<?xml version="1.0" encoding="utf-8"?>
<!-- Generator: Adobe Illustrator 19.2.1, SVG Export Plug-In . SVG Version: 6.00 Build 0)  -->
<svg version="1.1" id="Layer_1" xmlns="http://www.w3.org/2000/svg" xmlns:xlink="http://www.w3.org/1999/xlink" x="0px" y="0px"
	 width="864px" height="360px" viewBox="0 0 864 360" enable-background="new 0 0 864 360" xml:space="preserve">
<g id="Track">
	<g>
		<rect x="410.5" y="47.3" fill="none" width="321.3" height="87.6"/>
		<path fill="#272660" d="M413,53h-0.7c-0.1-0.3-0.1-0.7-0.2-1.1s-0.1-0.9-0.2-1.3s-0.1-0.9-0.2-1.3c0-0.4-0.1-0.7-0.1-1h9.9v1
			c-0.8,1.2-1.4,2.3-1.9,3.3s-1,2.1-1.3,3.2c-0.4,1.1-0.6,2.2-0.9,3.4c-0.2,1.2-0.4,2.5-0.6,3.9h-3c0.5-2.1,1.2-4,2-5.9
			s1.8-3.7,2.9-5.6l0.8-1l-1.1,0.1h-4.6L413,53z"/>
		<path fill="#272660" d="M425.5,53.1h-0.7c-0.1-0.2-0.2-0.5-0.3-0.7c-0.1-0.3-0.2-0.6-0.3-0.9s-0.2-0.6-0.3-0.9
			c-0.1-0.3-0.2-0.6-0.2-0.8c0.5-0.4,1.1-0.8,1.9-1.1c0.8-0.3,1.7-0.5,2.8-0.5c0.8,0,1.4,0.1,2,0.3c0.6,0.2,1,0.5,1.4,0.8
			c0.4,0.4,0.6,0.8,0.8,1.2c0.2,0.5,0.3,1,0.3,1.5c0,0.9-0.2,1.7-0.6,2.4c-0.4,0.8-0.9,1.5-1.5,2.2s-1.2,1.3-1.9,1.9
			s-1.3,1.1-1.8,1.6l-1.1,0.7v0.1l1.3-0.1h3.6l1-2.4h0.7c0,0.3,0.1,0.7,0.1,1.2s0.1,0.9,0.1,1.4s0.1,0.9,0.1,1.3s0,0.8,0,1h-9.7
			v-1.4c0.4-0.3,0.8-0.7,1.2-1.1c0.5-0.4,0.9-0.9,1.4-1.4s1-1.1,1.4-1.6c0.5-0.6,0.9-1.2,1.2-1.8c0.4-0.6,0.7-1.2,0.9-1.8
			c0.2-0.6,0.3-1.2,0.3-1.8c0-0.8-0.2-1.4-0.6-1.9s-1-0.7-1.8-0.7c-0.2,0-0.5,0-0.6,0c-0.2,0-0.4,0.1-0.6,0.1L425.5,53.1z"/>
		<path fill="#272660" d="M435.6,66c0.3-0.1,0.5-0.2,0.8-0.4c0.3-0.2,0.4-0.4,0.6-0.6s0.3-0.4,0.4-0.7c0.1-0.2,0.1-0.5,0.1-0.7
			c-0.2-0.3-0.4-0.5-0.7-0.6c-0.3-0.2-0.6-0.3-0.9-0.4c-0.1-0.3-0.1-0.6,0-0.9c0-0.3,0.1-0.6,0.3-0.8s0.3-0.5,0.5-0.6
			c0.2-0.2,0.4-0.3,0.6-0.3c0.3,0,0.6,0.1,0.9,0.2s0.5,0.3,0.8,0.5s0.4,0.5,0.5,0.8s0.2,0.7,0.2,1.2c0,0.4-0.1,0.9-0.3,1.3
			c-0.2,0.5-0.4,0.9-0.7,1.3s-0.7,0.7-1.1,1s-0.9,0.5-1.4,0.6L435.6,66z"/>
		<path fill="#272660" d="M443.9,53.1h-0.7c-0.1-0.2-0.2-0.5-0.3-0.7c-0.1-0.3-0.2-0.6-0.3-0.9s-0.2-0.6-0.3-0.9
			c-0.1-0.3-0.2-0.6-0.2-0.8c0.5-0.4,1.1-0.8,1.9-1.1c0.8-0.3,1.7-0.5,2.8-0.5c0.8,0,1.4,0.1,2,0.3c0.6,0.2,1,0.5,1.4,0.8
			c0.4,0.4,0.6,0.8,0.8,1.2c0.2,0.5,0.3,1,0.3,1.5c0,0.9-0.2,1.7-0.6,2.4c-0.4,0.8-0.9,1.5-1.5,2.2s-1.2,1.3-1.9,1.9
			c-0.7,0.6-1.3,1.1-1.8,1.6l-1.1,0.7v0.1l1.3-0.1h3.6l1-2.4h0.7c0,0.3,0.1,0.7,0.1,1.2s0.1,0.9,0.1,1.4s0.1,0.9,0.1,1.3s0,0.8,0,1
			h-9.7v-1.4c0.4-0.3,0.8-0.7,1.2-1.1c0.5-0.4,0.9-0.9,1.4-1.4s1-1.1,1.4-1.6c0.5-0.6,0.9-1.2,1.2-1.8c0.4-0.6,0.7-1.2,0.9-1.8
			c0.2-0.6,0.3-1.2,0.3-1.8c0-0.8-0.2-1.4-0.6-1.9s-1-0.7-1.8-0.7c-0.2,0-0.5,0-0.6,0c-0.2,0-0.4,0.1-0.6,0.1L443.9,53.1z"/>
		<path fill="#272660" d="M453.6,59.9c0-1,0.3-1.8,1-2.5c0.6-0.7,1.5-1.2,2.5-1.5c-0.8-0.5-1.5-1-2.1-1.7c-0.5-0.7-0.8-1.4-0.8-2.3
			c0-0.6,0.1-1.1,0.3-1.5c0.2-0.5,0.5-0.9,0.9-1.2c0.4-0.3,0.9-0.6,1.5-0.8c0.6-0.2,1.2-0.3,2-0.3c0.7,0,1.3,0.1,1.9,0.3
			c0.6,0.2,1,0.4,1.4,0.7c0.4,0.3,0.7,0.7,0.9,1.1c0.2,0.4,0.3,0.9,0.3,1.4c0,0.8-0.3,1.6-0.8,2.2c-0.6,0.6-1.3,1.1-2.1,1.3
			c0.6,0.3,1.1,0.6,1.6,1c0.4,0.3,0.8,0.7,1.1,1c0.3,0.4,0.5,0.7,0.7,1.1c0.1,0.4,0.2,0.8,0.2,1.3c0,0.6-0.1,1.1-0.3,1.5
			c-0.2,0.5-0.6,0.9-1,1.3s-1,0.6-1.7,0.8c-0.7,0.2-1.4,0.3-2.3,0.3c-0.8,0-1.5-0.1-2.1-0.3c-0.6-0.2-1.2-0.4-1.6-0.8
			s-0.8-0.7-1-1.1C453.9,60.8,453.6,60.4,453.6,59.9z M461,60.1c0-0.5-0.1-0.9-0.3-1.2c-0.2-0.3-0.4-0.6-0.7-0.9
			c-0.3-0.3-0.6-0.5-1-0.8c-0.4-0.2-0.8-0.5-1.2-0.7c-0.5,0.4-0.8,0.8-1,1.4c-0.2,0.5-0.3,1-0.3,1.5c0,0.3,0,0.7,0.1,1
			s0.2,0.6,0.4,0.9c0.2,0.3,0.4,0.5,0.7,0.6c0.3,0.2,0.7,0.3,1.1,0.3c0.3,0,0.7-0.1,0.9-0.2c0.3-0.1,0.5-0.3,0.7-0.5
			s0.3-0.4,0.4-0.7C461,60.7,461,60.4,461,60.1z M457.1,51.5c0,0.7,0.2,1.3,0.7,1.8s1.1,1,1.8,1.3c0.4-0.4,0.7-0.8,0.8-1.2
			c0.2-0.4,0.2-1,0.2-1.5c0-0.8-0.2-1.4-0.5-1.8s-0.8-0.6-1.3-0.6c-0.6,0-1.1,0.2-1.4,0.6C457.3,50.4,457.1,50.9,457.1,51.5z"/>
		<path fill="#272660" d="M470.3,62.1c0.3,0,0.6-0.1,1-0.2c0.3-0.1,0.6-0.4,0.8-0.6c0.2-0.2,0.4-0.6,0.6-1c0.1-0.4,0.2-0.8,0.2-1.2
			c0-0.5-0.1-0.9-0.2-1.2c-0.2-0.3-0.4-0.6-0.6-0.9c-0.3-0.2-0.6-0.4-0.9-0.5s-0.7-0.2-1-0.2H469v-0.8l3.2-4.1l0.7-0.7v-0.1
			l-1.1,0.1h-3.2l-0.8,2.2h-0.7c-0.1-0.3-0.1-0.6-0.2-1.1c-0.1-0.4-0.1-0.8-0.2-1.2c-0.1-0.4-0.1-0.8-0.1-1.2c0-0.4-0.1-0.7-0.1-1
			h9.2v1l-3.7,4.5l-0.9,0.9l0,0l0.7-0.1c0.7,0,1.3,0.2,1.8,0.4s1,0.5,1.3,0.9c0.4,0.4,0.6,0.8,0.8,1.3c0.2,0.5,0.3,1,0.3,1.6
			c0,0.7-0.2,1.3-0.5,1.9s-0.7,1-1.2,1.4s-1.1,0.7-1.8,0.9c-0.7,0.2-1.4,0.3-2.1,0.3c-0.4,0-0.8,0-1.3-0.1c-0.4-0.1-0.8-0.2-1.2-0.3
			s-0.7-0.2-1-0.4c-0.3-0.2-0.6-0.3-0.8-0.5l0.8-2.2h0.6c0.1,0.1,0.2,0.2,0.3,0.4c0.1,0.2,0.3,0.3,0.5,0.5s0.3,0.4,0.5,0.6
			s0.3,0.3,0.4,0.5c0.1,0,0.3,0.1,0.5,0.1C469.8,62.1,470,62.1,470.3,62.1z"/>
		<path fill="#272660" d="M495.1,63.2h-5.3v-0.8c0.1-0.1,0.3-0.2,0.5-0.3c0.2-0.1,0.4-0.2,0.6-0.2v-4.2c0-0.7,0-1.2-0.1-1.7
			c0-0.5-0.1-0.8-0.2-1.1c-0.1-0.3-0.3-0.5-0.5-0.6s-0.5-0.2-0.8-0.2c-0.5,0-0.8,0.2-1.2,0.5c-0.3,0.3-0.6,0.8-0.7,1.4v5.9
			c0.4,0.1,0.7,0.3,1.1,0.5v0.8H483v-0.8c0.2-0.1,0.4-0.2,0.7-0.3s0.5-0.2,0.7-0.2v-7.8l-1.4-0.2v-0.8c0.2-0.1,0.5-0.2,0.8-0.3
			c0.3-0.1,0.7-0.2,1-0.2c0.4-0.1,0.7-0.1,1-0.2c0.3,0,0.6-0.1,0.8-0.1h0.7v2.4l0,0c0.2-0.7,0.6-1.2,1.2-1.7s1.3-0.7,2.1-0.7
			c0.3,0,0.7,0,1,0.1s0.6,0.2,0.9,0.4c0.3,0.2,0.5,0.5,0.7,0.8s0.3,0.8,0.4,1.3c0.3-0.8,0.7-1.4,1.3-1.9c0.6-0.5,1.3-0.7,2.2-0.7
			c0.5,0,1,0.1,1.4,0.2s0.7,0.4,1,0.7c0.3,0.3,0.5,0.8,0.6,1.4s0.2,1.3,0.2,2.2v5c0.5,0.1,0.9,0.3,1.4,0.5v0.8h-5.5v-0.8
			c0.3-0.2,0.7-0.4,1.1-0.5v-4.6c0-1.1-0.1-1.9-0.3-2.4s-0.6-0.8-1.3-0.8c-0.5,0-0.9,0.2-1.2,0.6s-0.5,0.9-0.6,1.5v5.7
			c0.2,0.1,0.5,0.1,0.6,0.2c0.2,0.1,0.4,0.2,0.5,0.3L495.1,63.2L495.1,63.2z"/>
		<path fill="#272660" d="M508.6,63.2h-5.8v-0.8c0.2-0.1,0.4-0.2,0.7-0.3c0.2-0.1,0.5-0.2,0.7-0.2v-7.8l-1.4-0.2v-0.8
			c0.2-0.1,0.5-0.2,0.8-0.3s0.7-0.2,1-0.2s0.7-0.1,1-0.2c0.3,0,0.6-0.1,0.9-0.1h0.7v9.5c0.3,0.1,0.5,0.1,0.8,0.2
			c0.2,0.1,0.4,0.2,0.6,0.3L508.6,63.2L508.6,63.2z M503.8,49.2c0-0.5,0.2-0.9,0.5-1.2c0.3-0.3,0.8-0.4,1.3-0.4s1,0.1,1.3,0.4
			s0.5,0.7,0.5,1.2s-0.2,0.9-0.5,1.1c-0.3,0.3-0.8,0.4-1.3,0.4s-1-0.1-1.3-0.4C504,50,503.8,49.7,503.8,49.2z"/>
		<path fill="#272660" d="M515.6,63.2h-5.8v-0.8c0.5-0.2,0.9-0.4,1.4-0.5V49l-1.6-0.2V48c0.2-0.1,0.4-0.2,0.8-0.3
			c0.3-0.1,0.7-0.2,1-0.2s0.7-0.1,1.1-0.2c0.4,0,0.7-0.1,1-0.1h0.7v14.6c0.5,0.1,0.9,0.3,1.4,0.5V63.2z"/>
		<path fill="#272660" d="M526.3,61.4c-0.1,0.2-0.3,0.5-0.5,0.7s-0.5,0.5-0.9,0.7s-0.8,0.3-1.2,0.5s-1,0.2-1.5,0.2
			c-0.9,0-1.7-0.1-2.3-0.4c-0.7-0.3-1.2-0.6-1.7-1.1s-0.8-1.1-1-1.7c-0.2-0.7-0.3-1.4-0.3-2.3c0-1.8,0.5-3.2,1.4-4.1
			s2.3-1.4,3.9-1.4c0.7,0,1.4,0.1,2,0.3s1.1,0.5,1.6,1c0.4,0.5,0.7,1,0.9,1.8c0.2,0.7,0.2,1.6,0,2.7h-6.5c0,1.1,0.3,2,0.9,2.7
			s1.4,1,2.5,1c0.5,0,0.9-0.1,1.5-0.2c0.5-0.1,0.9-0.3,1.2-0.6V61.4z M522,53.6c-0.3,0-0.5,0-0.7,0.1s-0.4,0.3-0.6,0.5
			c-0.2,0.3-0.3,0.6-0.4,1.1c-0.1,0.4-0.2,1-0.2,1.7h3.4c0.1-1.1,0-1.9-0.2-2.5S522.7,53.6,522,53.6z"/>
		<path fill="#272660" d="M533.6,60.9c0-0.4-0.1-0.7-0.4-1s-0.6-0.5-1-0.7s-0.8-0.5-1.3-0.7s-0.9-0.5-1.3-0.8s-0.7-0.7-1-1.1
			s-0.4-0.9-0.4-1.5c0-0.4,0.1-0.8,0.3-1.2c0.2-0.3,0.5-0.6,0.8-0.9c0.3-0.2,0.7-0.4,1.2-0.6c0.5-0.1,1-0.2,1.5-0.2
			c0.8,0,1.5,0.1,2.1,0.2c0.7,0.1,1.2,0.3,1.7,0.5c-0.1,0.5-0.2,0.9-0.3,1.4c-0.2,0.5-0.3,1-0.5,1.4h-0.7l-0.9-2.2
			c-0.2-0.1-0.3-0.1-0.5-0.1s-0.4,0-0.6,0c-0.4,0-0.7,0.1-1,0.4c-0.2,0.2-0.3,0.5-0.3,0.8c0,0.4,0.1,0.7,0.4,0.9
			c0.3,0.3,0.6,0.5,1,0.7s0.8,0.5,1.3,0.7s0.9,0.5,1.3,0.8s0.7,0.6,1,1s0.4,0.9,0.4,1.4c0,1-0.4,1.7-1.2,2.3
			c-0.8,0.6-1.8,0.8-3.2,0.8c-0.7,0-1.4-0.1-2.1-0.2s-1.3-0.3-1.9-0.6c0-0.5,0.1-1,0.4-1.5s0.4-1,0.7-1.4h0.7l1,2.3
			c0.2,0.1,0.3,0.2,0.5,0.2s0.4,0,0.5,0c0.4,0,0.8-0.1,1.1-0.4C533.3,61.7,533.6,61.3,533.6,60.9z"/>
		<path fill="#272660" d="M542.8,53.2c0.5-0.3,1.1-0.6,1.7-0.7v-1.7c0.1-0.1,0.2-0.2,0.4-0.2c0.2-0.1,0.4-0.1,0.7-0.2
			c0.2-0.1,0.5-0.1,0.7-0.2s0.4-0.1,0.5-0.1h0.7v2.7h2.8v1.4h-2.8v5.5c0,0.9,0.1,1.5,0.3,1.8c0.2,0.3,0.6,0.5,1.1,0.5
			c0.3,0,0.5,0,0.9-0.1c0.3,0,0.6-0.1,0.9-0.2l0.1,0.7c-0.1,0.1-0.3,0.3-0.6,0.4c-0.2,0.1-0.5,0.3-0.8,0.4s-0.7,0.2-1,0.3
			s-0.8,0.1-1.2,0.1c-0.9,0-1.6-0.2-2.1-0.7s-0.7-1.3-0.7-2.3v-6.4h-1.7L542.8,53.2L542.8,53.2z"/>
		<path fill="#272660" d="M557.3,55.1c-0.2,0.1-0.4,0.2-0.6,0.4c-0.2,0.2-0.4,0.5-0.6,1v5.4c0.3,0,0.6,0.1,0.8,0.2
			c0.3,0.1,0.6,0.2,0.8,0.4v0.8h-6.1v-0.8c0.3-0.1,0.5-0.2,0.7-0.3c0.2-0.1,0.5-0.1,0.7-0.2v-7.8l-1.4-0.2v-0.8
			c0.2-0.1,0.5-0.2,0.8-0.3c0.3-0.1,0.7-0.2,1-0.2c0.4-0.1,0.7-0.1,1-0.2c0.3,0,0.6-0.1,0.8-0.1h0.7v2.8h0.1c0.1-0.3,0.3-0.6,0.5-1
			c0.2-0.3,0.5-0.6,0.8-0.9s0.6-0.5,1-0.7s0.7-0.2,1.1-0.2c0.2,0.2,0.3,0.5,0.4,0.8c0.1,0.4,0.2,0.7,0.3,1V55h-2.8L557.3,55.1
			L557.3,55.1z"/>
		<path fill="#272660" d="M570.2,60.2c0,0.3,0,0.6,0,0.8c0,0.2,0,0.5,0.1,0.7l1.5,0.2v0.7c-0.2,0.1-0.4,0.2-0.7,0.3
			c-0.3,0.1-0.6,0.2-0.9,0.2c-0.3,0.1-0.6,0.1-0.9,0.2c-0.3,0-0.6,0.1-0.8,0.1h-0.7c-0.1-0.3-0.2-0.6-0.3-1s0-0.7-0.1-1.2h-0.1
			c-0.1,0.3-0.2,0.6-0.4,0.8c-0.2,0.3-0.4,0.5-0.6,0.7c-0.3,0.2-0.6,0.4-0.9,0.5s-0.7,0.2-1.2,0.2s-0.9-0.1-1.3-0.2s-0.7-0.3-1-0.6
			c-0.3-0.3-0.5-0.6-0.7-0.9c-0.2-0.4-0.3-0.8-0.3-1.2c0-0.6,0.1-1.2,0.4-1.6c0.2-0.4,0.6-0.7,1.1-1s1.2-0.5,2-0.6s1.8-0.2,3-0.3
			c0.1-1.2,0.1-2.1-0.1-2.7s-0.7-0.8-1.4-0.8c-0.4,0-0.8,0.1-1.2,0.2l-1,2.5h-0.9c-0.1-0.2-0.2-0.4-0.3-0.6s-0.2-0.5-0.3-0.7
			c-0.1-0.2-0.2-0.5-0.2-0.8s-0.1-0.5-0.1-0.7c0.5-0.4,1.2-0.7,2.1-0.9c0.8-0.2,1.7-0.3,2.7-0.3c0.8,0,1.5,0.1,2,0.3
			c0.5,0.2,0.9,0.4,1.2,0.7c0.3,0.3,0.5,0.7,0.6,1.1s0.2,0.8,0.2,1.3c0,0.8,0,1.6-0.1,2.3C570.2,58.7,570.2,59.4,570.2,60.2z
			 M565.5,61.8c0.3,0,0.5-0.1,0.8-0.2s0.4-0.2,0.5-0.4s0.3-0.3,0.3-0.5c0.1-0.2,0.1-0.3,0.2-0.5v-2.1c-0.7,0-1.2,0.1-1.6,0.1
			c-0.4,0.1-0.8,0.2-1,0.3c-0.2,0.2-0.4,0.4-0.5,0.6s-0.1,0.5-0.1,0.9c0,0.5,0.1,1,0.4,1.2C564.8,61.4,565.1,61.8,565.5,61.8z"/>
		<path fill="#272660" d="M577.2,63.5l-4.2-9.5c-0.4-0.1-0.8-0.3-1.1-0.5v-0.8h5.6v0.8c-0.2,0.1-0.4,0.2-0.6,0.3
			c-0.2,0.1-0.4,0.2-0.6,0.2l2,5.4l0.4,1.4l0,0l0.3-1.4l1.8-5.4c-0.2-0.1-0.4-0.1-0.6-0.2s-0.4-0.2-0.5-0.3v-0.8h4.1v0.8
			c-0.1,0.1-0.3,0.2-0.5,0.3c-0.2,0.1-0.4,0.2-0.7,0.2l-3.7,9.3L577.2,63.5z"/>
		<path fill="#272660" d="M593.5,61.4c-0.1,0.2-0.3,0.5-0.5,0.7s-0.5,0.5-0.9,0.7s-0.8,0.3-1.2,0.5s-1,0.2-1.5,0.2
			c-0.9,0-1.7-0.1-2.3-0.4c-0.7-0.3-1.2-0.6-1.7-1.1s-0.8-1.1-1-1.7c-0.2-0.7-0.3-1.4-0.3-2.3c0-1.8,0.5-3.2,1.4-4.1
			s2.3-1.4,3.9-1.4c0.7,0,1.4,0.1,2,0.3c0.6,0.2,1.1,0.5,1.6,1c0.4,0.5,0.7,1,0.9,1.8c0.2,0.7,0.2,1.6,0,2.7h-6.5
			c0,1.1,0.3,2,0.9,2.7s1.4,1,2.5,1c0.5,0,0.9-0.1,1.5-0.2c0.5-0.1,0.9-0.3,1.2-0.6V61.4z M589.1,53.6c-0.3,0-0.5,0-0.7,0.1
			s-0.4,0.3-0.6,0.5c-0.2,0.3-0.3,0.6-0.4,1.1c-0.1,0.4-0.2,1-0.2,1.7h3.4c0.1-1.1,0-1.9-0.2-2.5S589.8,53.6,589.1,53.6z"/>
		<path fill="#272660" d="M601.1,63.2h-5.8v-0.8c0.5-0.2,0.9-0.4,1.4-0.5V49l-1.6-0.2V48c0.2-0.1,0.4-0.2,0.8-0.3
			c0.3-0.1,0.7-0.2,1-0.2s0.7-0.1,1.1-0.2c0.4,0,0.7-0.1,1-0.1h0.7v14.6c0.5,0.1,0.9,0.3,1.4,0.5V63.2z"/>
		<path fill="#272660" d="M608.1,63.2h-5.8v-0.8c0.5-0.2,0.9-0.4,1.4-0.5V49l-1.6-0.2V48c0.2-0.1,0.4-0.2,0.8-0.3
			c0.3-0.1,0.7-0.2,1-0.2s0.7-0.1,1.1-0.2c0.4,0,0.7-0.1,1-0.1h0.7v14.6c0.5,0.1,0.9,0.3,1.4,0.5V63.2z"/>
		<path fill="#272660" d="M618.8,61.4c-0.1,0.2-0.3,0.5-0.5,0.7s-0.5,0.5-0.9,0.7s-0.8,0.3-1.2,0.5s-1,0.2-1.5,0.2
			c-0.9,0-1.7-0.1-2.3-0.4c-0.7-0.3-1.2-0.6-1.7-1.1s-0.8-1.1-1-1.7c-0.2-0.7-0.3-1.4-0.3-2.3c0-1.8,0.5-3.2,1.4-4.1
			s2.3-1.4,3.9-1.4c0.7,0,1.4,0.1,2,0.3s1.1,0.5,1.6,1c0.4,0.5,0.7,1,0.9,1.8c0.2,0.7,0.2,1.6,0,2.7h-6.5c0,1.1,0.3,2,0.9,2.7
			s1.4,1,2.5,1c0.5,0,0.9-0.1,1.5-0.2c0.5-0.1,0.9-0.3,1.2-0.6V61.4z M614.6,53.6c-0.3,0-0.5,0-0.7,0.1s-0.4,0.3-0.6,0.5
			c-0.2,0.3-0.3,0.6-0.4,1.1c-0.1,0.4-0.2,1-0.2,1.7h3.4c0.1-1.1,0-1.9-0.2-2.5C615.6,53.9,615.2,53.6,614.6,53.6z"/>
		<path fill="#272660" d="M627.8,61.1c-0.1,0.3-0.2,0.6-0.4,0.9c-0.2,0.3-0.4,0.5-0.7,0.8c-0.3,0.2-0.5,0.4-0.9,0.5
			c-0.3,0.1-0.7,0.2-1,0.2c-1.4,0-2.5-0.4-3.2-1.3s-1.1-2.2-1.1-4.1c0-0.9,0.1-1.7,0.4-2.4c0.3-0.7,0.6-1.3,1.1-1.8s1-0.8,1.7-1.1
			c0.6-0.2,1.4-0.4,2.2-0.4c0.3,0,0.5,0,0.6,0c0.2,0,0.3,0,0.5,0.1c0.1,0,0.3,0.1,0.4,0.1s0.3,0.1,0.5,0.2v-3.7l-1.6-0.2v-0.8
			c0.2-0.1,0.5-0.2,0.8-0.2c0.3-0.1,0.7-0.1,1.1-0.2s0.8-0.1,1.1-0.2c0.4-0.1,0.7-0.1,0.9-0.1h0.7v14.4l1.4,0.2v0.7
			c-0.2,0.1-0.5,0.2-0.8,0.3c-0.3,0.1-0.6,0.2-1,0.2c-0.3,0.1-0.7,0.1-1,0.2c-0.3,0-0.6,0.1-0.8,0.1H628L627.8,61.1L627.8,61.1z
			 M626,61.8c0.5,0,0.9-0.2,1.2-0.5s0.6-0.8,0.7-1.6V54c-0.2-0.1-0.4-0.2-0.7-0.3c-0.3-0.1-0.6-0.1-1-0.1c-0.8,0-1.4,0.4-1.8,1.1
			s-0.5,1.8-0.5,3.2c0,1.1,0.2,2.1,0.5,2.8C624.7,61.4,625.2,61.8,626,61.8z"/>
		<path fill="#272660" d="M410.7,79.9c0.5-0.3,1.1-0.6,1.7-0.7v-1.7c0.1-0.1,0.2-0.2,0.4-0.2c0.2-0.1,0.4-0.1,0.7-0.2
			c0.2-0.1,0.5-0.1,0.7-0.2s0.4-0.1,0.5-0.1h0.7v2.7h2.8v1.4h-2.8v5.5c0,0.9,0.1,1.5,0.3,1.8c0.2,0.3,0.6,0.5,1.1,0.5
			c0.3,0,0.5,0,0.9-0.1c0.3,0,0.6-0.1,0.9-0.2l0.1,0.7c-0.1,0.1-0.3,0.3-0.6,0.4c-0.2,0.1-0.5,0.3-0.8,0.4c-0.3,0.1-0.7,0.2-1,0.3
			s-0.8,0.1-1.2,0.1c-0.9,0-1.6-0.2-2.1-0.7s-0.7-1.3-0.7-2.3v-6.4h-1.7L410.7,79.9L410.7,79.9z"/>
		<path fill="#272660" d="M419.6,84.7c0-0.9,0.1-1.6,0.4-2.3c0.3-0.7,0.6-1.3,1.1-1.7c0.5-0.5,1.1-0.8,1.8-1.1s1.5-0.4,2.3-0.4
			c1,0,1.8,0.1,2.6,0.4c0.7,0.3,1.3,0.7,1.8,1.1c0.5,0.5,0.8,1.1,1,1.8c0.2,0.7,0.3,1.4,0.3,2.2c0,0.9-0.1,1.6-0.4,2.3
			c-0.3,0.7-0.6,1.3-1.1,1.7c-0.5,0.5-1.1,0.8-1.8,1.1c-0.7,0.3-1.5,0.4-2.4,0.4c-1,0-1.8-0.1-2.5-0.4c-0.7-0.3-1.3-0.7-1.8-1.1
			c-0.5-0.5-0.8-1.1-1-1.8C419.8,86.2,419.6,85.5,419.6,84.7z M422.9,84.7c0,0.6,0,1.2,0.1,1.7s0.2,1,0.4,1.3
			c0.2,0.4,0.5,0.7,0.8,0.9s0.8,0.3,1.3,0.3c0.3,0,0.6-0.1,0.8-0.2c0.3-0.1,0.5-0.4,0.7-0.7s0.3-0.8,0.4-1.3s0.1-1.2,0.1-2
			c0-0.6,0-1.2-0.1-1.8c-0.1-0.5-0.2-1-0.4-1.3c-0.2-0.4-0.4-0.7-0.8-0.9c-0.3-0.2-0.7-0.3-1.2-0.3c-0.4,0-0.7,0.1-1,0.2
			s-0.5,0.4-0.7,0.7c-0.2,0.3-0.3,0.8-0.4,1.3C423,83.2,422.9,83.9,422.9,84.7z"/>
		<path fill="#272660" d="M447.2,86.9c0,0.3,0,0.6,0,0.8s0,0.5,0.1,0.7l1.5,0.2v0.7c-0.2,0.1-0.4,0.2-0.7,0.3
			c-0.3,0.1-0.6,0.2-0.9,0.2c-0.3,0.1-0.6,0.1-0.9,0.2c-0.3,0-0.6,0.1-0.8,0.1h-0.7c-0.1-0.3-0.2-0.6-0.3-1s0-0.7-0.1-1.2h-0.1
			c-0.1,0.3-0.2,0.6-0.4,0.8c-0.2,0.3-0.4,0.5-0.6,0.7c-0.3,0.2-0.6,0.4-0.9,0.5s-0.7,0.2-1.2,0.2s-0.9-0.1-1.3-0.2
			c-0.4-0.1-0.7-0.3-1-0.6s-0.5-0.6-0.7-0.9c-0.2-0.4-0.3-0.8-0.3-1.2c0-0.6,0.1-1.2,0.4-1.6c0.2-0.4,0.6-0.7,1.1-1s1.2-0.5,2-0.6
			s1.8-0.2,3-0.3c0.1-1.2,0.1-2.1-0.1-2.7s-0.7-0.8-1.4-0.8c-0.4,0-0.8,0.1-1.2,0.2l-1,2.5h-0.9c-0.1-0.2-0.2-0.4-0.3-0.6
			c-0.1-0.2-0.2-0.5-0.3-0.7s-0.2-0.5-0.2-0.8s-0.1-0.5-0.1-0.7c0.5-0.4,1.2-0.7,2.1-0.9c0.8-0.2,1.7-0.3,2.7-0.3
			c0.8,0,1.5,0.1,2,0.3c0.5,0.2,0.9,0.4,1.2,0.7c0.3,0.3,0.5,0.7,0.6,1.1s0.2,0.8,0.2,1.3c0,0.8,0,1.6-0.1,2.3
			C447.2,85.5,447.2,86.2,447.2,86.9z M442.5,88.5c0.3,0,0.5-0.1,0.8-0.2s0.4-0.2,0.5-0.4s0.3-0.3,0.3-0.5c0.1-0.2,0.1-0.3,0.2-0.5
			v-2.1c-0.7,0-1.2,0.1-1.6,0.1c-0.4,0.1-0.8,0.2-1,0.3c-0.2,0.2-0.4,0.4-0.5,0.6s-0.1,0.5-0.1,0.9c0,0.5,0.1,1,0.4,1.2
			C441.8,88.1,442,88.5,442.5,88.5z"/>
		<path fill="#272660" d="M462.4,90h-5.6v-0.8c0.2-0.1,0.4-0.2,0.5-0.3c0.2-0.1,0.4-0.2,0.6-0.2v-5c0-0.9-0.1-1.6-0.4-2.1
			s-0.7-0.8-1.4-0.8c-0.5,0-1,0.2-1.4,0.5s-0.7,0.8-0.9,1.4v5.9c0.2,0.1,0.4,0.1,0.6,0.2c0.2,0.1,0.4,0.2,0.6,0.3v0.8h-5.6v-0.7
			c0.4-0.2,0.8-0.4,1.4-0.5v-7.8l-1.4-0.2v-0.8c0.2-0.1,0.4-0.2,0.7-0.2c0.3-0.1,0.6-0.2,1-0.2c0.3-0.1,0.7-0.1,1.1-0.2
			c0.4,0,0.7-0.1,1-0.1h0.7v2.2l0,0c0.3-0.6,0.7-1.1,1.3-1.5c0.6-0.4,1.3-0.6,2.2-0.6c0.5,0,1,0.1,1.5,0.2c0.4,0.1,0.8,0.4,1.1,0.7
			c0.3,0.3,0.5,0.8,0.7,1.4s0.2,1.3,0.2,2.2v5.1c0.6,0.1,1,0.3,1.4,0.5L462.4,90L462.4,90z"/>
		<path fill="#272660" d="M470.6,87.9c-0.1,0.3-0.2,0.6-0.4,0.9c-0.2,0.3-0.4,0.5-0.7,0.8c-0.3,0.2-0.5,0.4-0.9,0.5
			c-0.3,0.1-0.7,0.2-1,0.2c-1.4,0-2.5-0.4-3.2-1.3c-0.7-0.9-1.1-2.2-1.1-4.1c0-0.9,0.1-1.7,0.4-2.4c0.3-0.7,0.6-1.3,1.1-1.8
			s1-0.8,1.7-1.1c0.6-0.2,1.4-0.4,2.2-0.4c0.3,0,0.5,0,0.6,0c0.2,0,0.3,0,0.5,0.1c0.1,0,0.3,0.1,0.4,0.1s0.3,0.1,0.5,0.2v-3.7
			l-1.6-0.2v-0.8c0.2-0.1,0.5-0.2,0.8-0.2c0.3-0.1,0.7-0.1,1.1-0.2s0.8-0.1,1.1-0.2c0.4-0.1,0.7-0.1,0.9-0.1h0.7v14.4l1.4,0.2v0.7
			c-0.2,0.1-0.5,0.2-0.8,0.3s-0.6,0.2-1,0.2c-0.3,0.1-0.7,0.1-1,0.2c-0.3,0-0.6,0.1-0.8,0.1h-0.7L470.6,87.9L470.6,87.9z
			 M468.6,88.5c0.5,0,0.9-0.2,1.2-0.5c0.3-0.3,0.6-0.8,0.7-1.6v-5.7c-0.2-0.1-0.4-0.2-0.7-0.3c-0.3-0.1-0.6-0.1-1-0.1
			c-0.8,0-1.4,0.4-1.8,1.1s-0.5,1.8-0.5,3.2c0,1.1,0.2,2.1,0.5,2.8C467.4,88.2,467.9,88.5,468.6,88.5z"/>
		<path fill="#272660" d="M487.9,74c0.6,0,1.1,0.1,1.6,0.2s0.8,0.2,1,0.3c0,0.5-0.1,0.9-0.3,1.4c-0.1,0.5-0.3,0.9-0.4,1.2H489
			l-0.9-2c-0.4,0-0.7,0-0.9,0.1c-0.2,0.1-0.4,0.2-0.6,0.5c-0.1,0.2-0.3,0.5-0.3,1c-0.1,0.4-0.1,1-0.1,1.6v1.1h2.2v1.4h-2.2v7.9
			c0.7,0.1,1.4,0.3,2,0.5V90h-6.5v-0.8c0.4-0.3,0.9-0.4,1.4-0.5v-7.9h-1.6V80c0.5-0.3,1-0.6,1.6-0.7v-0.7c0-0.9,0.1-1.6,0.4-2.2
			c0.2-0.6,0.6-1,1-1.4c0.4-0.3,0.9-0.6,1.5-0.7C486.6,74.1,487.2,74,487.9,74z"/>
		<path fill="#272660" d="M495,81.8c-0.2,0.1-0.4,0.2-0.6,0.4c-0.2,0.2-0.4,0.5-0.6,1v5.4c0.3,0,0.6,0.1,0.8,0.2
			c0.3,0.1,0.6,0.2,0.8,0.4V90h-6.1v-0.8c0.3-0.1,0.5-0.2,0.7-0.3s0.5-0.1,0.7-0.2v-7.8l-1.4-0.2v-0.8c0.2-0.1,0.5-0.2,0.8-0.3
			c0.3-0.1,0.7-0.2,1-0.2c0.4-0.1,0.7-0.1,1-0.2c0.3,0,0.6-0.1,0.8-0.1h0.7v2.8h0.1c0.1-0.3,0.3-0.6,0.5-1c0.2-0.3,0.5-0.6,0.8-0.9
			s0.6-0.5,1-0.7s0.7-0.2,1.1-0.2c0.2,0.2,0.3,0.5,0.4,0.8c0.1,0.4,0.2,0.7,0.3,1v0.8H495L495,81.8L495,81.8z"/>
		<path fill="#272660" d="M498.7,84.7c0-0.9,0.1-1.6,0.4-2.3c0.3-0.7,0.6-1.3,1.1-1.7c0.5-0.5,1.1-0.8,1.8-1.1
			c0.7-0.3,1.5-0.4,2.3-0.4c1,0,1.8,0.1,2.6,0.4c0.7,0.3,1.3,0.7,1.8,1.1c0.5,0.5,0.8,1.1,1,1.8c0.2,0.7,0.3,1.4,0.3,2.2
			c0,0.9-0.1,1.6-0.4,2.3c-0.3,0.7-0.6,1.3-1.1,1.7c-0.5,0.5-1.1,0.8-1.8,1.1c-0.7,0.3-1.5,0.4-2.4,0.4c-1,0-1.8-0.1-2.5-0.4
			c-0.7-0.3-1.3-0.7-1.8-1.1c-0.5-0.5-0.8-1.1-1-1.8C498.8,86.2,498.7,85.5,498.7,84.7z M501.9,84.7c0,0.6,0,1.2,0.1,1.7
			s0.2,1,0.4,1.3c0.2,0.4,0.5,0.7,0.8,0.9s0.8,0.3,1.3,0.3c0.3,0,0.6-0.1,0.8-0.2c0.3-0.1,0.5-0.4,0.7-0.7s0.3-0.8,0.4-1.3
			s0.1-1.2,0.1-2c0-0.6,0-1.2-0.1-1.8c-0.1-0.5-0.2-1-0.4-1.3c-0.2-0.4-0.4-0.7-0.8-0.9c-0.3-0.2-0.7-0.3-1.2-0.3
			c-0.4,0-0.7,0.1-1,0.2s-0.5,0.4-0.7,0.7c-0.2,0.3-0.3,0.8-0.4,1.3C502,83.2,501.9,83.9,501.9,84.7z"/>
		<path fill="#272660" d="M523.1,90h-5.3v-0.8c0.1-0.1,0.3-0.2,0.5-0.3s0.4-0.2,0.6-0.2v-4.2c0-0.7,0-1.2-0.1-1.7
			c0-0.5-0.1-0.8-0.2-1.1c-0.1-0.3-0.3-0.5-0.5-0.6s-0.5-0.2-0.8-0.2c-0.5,0-0.8,0.2-1.2,0.5c-0.3,0.3-0.6,0.8-0.7,1.4v5.9
			c0.4,0.1,0.7,0.3,1.1,0.5V90H511v-0.8c0.2-0.1,0.4-0.2,0.7-0.3s0.5-0.2,0.7-0.2v-7.8l-1.4-0.2v-0.8c0.2-0.1,0.5-0.2,0.8-0.3
			c0.3-0.1,0.7-0.2,1-0.2c0.4-0.1,0.7-0.1,1-0.2c0.3,0,0.6-0.1,0.8-0.1h0.7v2.4l0,0c0.2-0.7,0.6-1.2,1.2-1.7s1.3-0.7,2.1-0.7
			c0.3,0,0.7,0,1,0.1s0.6,0.2,0.9,0.4c0.3,0.2,0.5,0.5,0.7,0.8s0.3,0.8,0.4,1.3c0.3-0.8,0.7-1.4,1.3-1.9c0.6-0.5,1.3-0.7,2.2-0.7
			c0.5,0,1,0.1,1.4,0.2s0.7,0.4,1,0.7c0.3,0.3,0.5,0.8,0.6,1.4s0.2,1.3,0.2,2.2v5c0.5,0.1,0.9,0.3,1.4,0.5v0.8h-5.5v-0.7
			c0.3-0.2,0.7-0.4,1.1-0.5v-4.6c0-1.1-0.1-1.9-0.3-2.4s-0.6-0.8-1.3-0.8c-0.5,0-0.9,0.2-1.2,0.6s-0.5,0.9-0.6,1.5v5.7
			c0.2,0.1,0.5,0.1,0.6,0.2c0.2,0.1,0.4,0.2,0.5,0.3L523.1,90L523.1,90z"/>
		<path fill="#272660" d="M540.1,90.2l-3.3-9.5c-0.2-0.1-0.4-0.1-0.6-0.2s-0.4-0.2-0.5-0.3v-0.8h5.4v0.8c-0.2,0.1-0.4,0.2-0.6,0.3
			c-0.2,0.1-0.4,0.2-0.6,0.2l1.5,5.4l0.3,1.6l0,0l0.4-1.7l2.2-6.6l1-0.1l2.4,6.7l0.4,1.7l0,0l0.3-1.7l1.3-5.4
			c-0.2,0-0.3-0.1-0.5-0.2s-0.4-0.2-0.6-0.3v-0.8h4.1v0.8c-0.3,0.2-0.7,0.4-1.2,0.5l-2.9,9.3l-2,0.3l-1.8-5.2l-0.4-1.8h-0.1
			l-0.5,1.8l-1.7,5L540.1,90.2z"/>
		<path fill="#272660" d="M552.8,84.7c0-0.9,0.1-1.6,0.4-2.3c0.3-0.7,0.6-1.3,1.1-1.7c0.5-0.5,1.1-0.8,1.8-1.1
			c0.7-0.3,1.5-0.4,2.3-0.4c1,0,1.8,0.1,2.6,0.4c0.7,0.3,1.3,0.7,1.8,1.1c0.5,0.5,0.8,1.1,1,1.8c0.2,0.7,0.3,1.4,0.3,2.2
			c0,0.9-0.1,1.6-0.4,2.3c-0.3,0.7-0.6,1.3-1.1,1.7c-0.5,0.5-1.1,0.8-1.8,1.1c-0.7,0.3-1.5,0.4-2.4,0.4c-1,0-1.8-0.1-2.5-0.4
			c-0.7-0.3-1.3-0.7-1.8-1.1c-0.5-0.5-0.8-1.1-1-1.8C552.8,86.2,552.8,85.5,552.8,84.7z M556.1,84.7c0,0.6,0,1.2,0.1,1.7
			s0.2,1,0.4,1.3c0.2,0.4,0.5,0.7,0.8,0.9s0.8,0.3,1.3,0.3c0.3,0,0.6-0.1,0.8-0.2c0.3-0.1,0.5-0.4,0.7-0.7s0.3-0.8,0.4-1.3
			s0.1-1.2,0.1-2c0-0.6,0-1.2-0.1-1.8c-0.1-0.5-0.2-1-0.4-1.3c-0.2-0.4-0.4-0.7-0.8-0.9c-0.3-0.2-0.7-0.3-1.2-0.3
			c-0.4,0-0.7,0.1-1,0.2s-0.5,0.4-0.7,0.7c-0.2,0.3-0.3,0.8-0.4,1.3C556.2,83.2,556.1,83.9,556.1,84.7z"/>
		<path fill="#272660" d="M570.8,81.8c-0.2,0.1-0.4,0.2-0.6,0.4c-0.2,0.2-0.4,0.5-0.6,1v5.4c0.3,0,0.6,0.1,0.8,0.2
			c0.3,0.1,0.6,0.2,0.8,0.4V90h-6.1v-0.8c0.3-0.1,0.5-0.2,0.7-0.3s0.5-0.1,0.7-0.2v-7.8l-1.4-0.2v-0.8c0.2-0.1,0.5-0.2,0.8-0.3
			c0.3-0.1,0.7-0.2,1-0.2c0.4-0.1,0.7-0.1,1-0.2c0.3,0,0.6-0.1,0.8-0.1h0.7v2.8h0.1c0.1-0.3,0.3-0.6,0.5-1c0.2-0.3,0.5-0.6,0.8-0.9
			s0.6-0.5,1-0.7s0.7-0.2,1.1-0.2c0.2,0.2,0.3,0.5,0.4,0.8c0.1,0.4,0.2,0.7,0.3,1v0.8h-2.8L570.8,81.8L570.8,81.8z"/>
		<path fill="#272660" d="M580.7,79.4h5v0.8c-0.3,0.1-0.5,0.2-0.8,0.3c-0.2,0.1-0.5,0.2-0.8,0.2c-0.2,0.3-0.4,0.6-0.7,0.8
			c-0.2,0.3-0.5,0.5-0.7,0.8s-0.5,0.5-0.7,0.7s-0.4,0.4-0.6,0.6c0.2,0.3,0.5,0.6,0.7,1c0.3,0.4,0.6,0.8,0.9,1.3
			c0.3,0.4,0.7,0.9,1,1.4c0.4,0.5,0.7,0.9,1.1,1.3l1.1,0.5v0.8h-3.6l-0.6-0.5c-0.3-0.4-0.6-0.8-0.9-1.2c-0.2-0.4-0.5-0.7-0.7-1.1
			s-0.4-0.7-0.6-1s-0.4-0.7-0.6-1l-0.7-0.2v3.7c0.2,0,0.5,0.1,0.7,0.2c0.2,0.1,0.4,0.2,0.6,0.3v0.8h-5.7v-0.7
			c0.5-0.2,0.9-0.4,1.4-0.5V75.8l-1.6-0.2v-0.8c0.2-0.1,0.5-0.2,0.8-0.3c0.3-0.1,0.7-0.2,1.1-0.2s0.8-0.1,1.1-0.2
			c0.4,0,0.7-0.1,0.9-0.1h0.7v9.9h0.6c0.5-0.5,0.9-1,1.3-1.6s0.8-1.1,1.1-1.6c-0.2-0.1-0.3-0.1-0.5-0.2c-0.1-0.1-0.3-0.2-0.5-0.3
			v-0.8L580.7,79.4L580.7,79.4z"/>
		<path fill="#272660" d="M598.3,90h-5.8v-0.8c0.2-0.1,0.4-0.2,0.7-0.3c0.2-0.1,0.5-0.2,0.7-0.2v-7.8l-1.4-0.2v-0.8
			c0.2-0.1,0.5-0.2,0.8-0.3c0.3-0.1,0.7-0.2,1-0.2s0.7-0.1,1-0.2c0.3,0,0.6-0.1,0.9-0.1h0.7v9.5c0.3,0.1,0.5,0.1,0.8,0.2
			c0.2,0.1,0.4,0.2,0.6,0.3L598.3,90L598.3,90z M593.7,75.9c0-0.5,0.2-0.9,0.5-1.2c0.3-0.3,0.8-0.4,1.3-0.4s1,0.1,1.3,0.4
			s0.5,0.7,0.5,1.2s-0.2,0.9-0.5,1.1c-0.3,0.3-0.8,0.4-1.3,0.4s-1-0.1-1.3-0.4C593.8,76.8,593.7,76.4,593.7,75.9z"/>
		<path fill="#272660" d="M612.2,90h-5.6v-0.8c0.2-0.1,0.4-0.2,0.5-0.3c0.2-0.1,0.4-0.2,0.6-0.2v-5c0-0.9-0.1-1.6-0.4-2.1
			s-0.7-0.8-1.4-0.8c-0.5,0-1,0.2-1.4,0.5s-0.7,0.8-0.9,1.4v5.9c0.2,0.1,0.4,0.1,0.6,0.2c0.2,0.1,0.4,0.2,0.6,0.3v0.8h-5.6v-0.7
			c0.4-0.2,0.8-0.4,1.4-0.5v-7.8l-1.4-0.2v-0.8c0.2-0.1,0.4-0.2,0.7-0.2c0.3-0.1,0.6-0.2,1-0.2c0.3-0.1,0.7-0.1,1.1-0.2
			c0.4,0,0.7-0.1,1-0.1h0.7v2.2l0,0c0.3-0.6,0.7-1.1,1.3-1.5s1.3-0.6,2.2-0.6c0.5,0,1,0.1,1.5,0.2c0.4,0.1,0.8,0.4,1.1,0.7
			c0.3,0.3,0.5,0.8,0.7,1.4s0.2,1.3,0.2,2.2v5.1c0.6,0.1,1,0.3,1.4,0.5L612.2,90L612.2,90z"/>
		<path fill="#272660" d="M628.2,86.9c0,0.3,0,0.6,0,0.8s0,0.5,0.1,0.7l1.5,0.2v0.7c-0.2,0.1-0.4,0.2-0.7,0.3
			c-0.3,0.1-0.6,0.2-0.9,0.2c-0.3,0.1-0.6,0.1-0.9,0.2c-0.3,0-0.6,0.1-0.8,0.1h-0.7c-0.1-0.3-0.2-0.6-0.3-1s0-0.7-0.1-1.2h-0.1
			c-0.1,0.3-0.2,0.6-0.4,0.8c-0.2,0.3-0.4,0.5-0.6,0.7c-0.3,0.2-0.6,0.4-0.9,0.5s-0.7,0.2-1.2,0.2s-0.9-0.1-1.3-0.2
			c-0.4-0.1-0.7-0.3-1-0.6s-0.5-0.6-0.7-0.9c-0.2-0.4-0.3-0.8-0.3-1.2c0-0.6,0.1-1.2,0.4-1.6c0.2-0.4,0.6-0.7,1.1-1s1.2-0.5,2-0.6
			s1.8-0.2,3-0.3c0.1-1.2,0.1-2.1-0.1-2.7s-0.7-0.8-1.4-0.8c-0.4,0-0.8,0.1-1.2,0.2l-1,2.5h-0.9c-0.1-0.2-0.2-0.4-0.3-0.6
			c-0.1-0.2-0.2-0.5-0.3-0.7s-0.2-0.5-0.2-0.8s-0.1-0.5-0.1-0.7c0.5-0.4,1.2-0.7,2.1-0.9c0.8-0.2,1.7-0.3,2.7-0.3
			c0.8,0,1.5,0.1,2,0.3c0.5,0.2,0.9,0.4,1.2,0.7c0.3,0.3,0.5,0.7,0.6,1.1s0.2,0.8,0.2,1.3c0,0.8,0,1.6-0.1,2.3
			C628.2,85.5,628.2,86.2,628.2,86.9z M623.5,88.5c0.3,0,0.5-0.1,0.8-0.2s0.4-0.2,0.5-0.4s0.3-0.3,0.3-0.5c0.1-0.2,0.1-0.3,0.2-0.5
			v-2.1c-0.7,0-1.2,0.1-1.6,0.1c-0.4,0.1-0.8,0.2-1,0.3c-0.2,0.2-0.4,0.4-0.5,0.6s-0.1,0.5-0.1,0.9c0,0.5,0.1,1,0.4,1.2
			C622.8,88.1,623,88.5,623.5,88.5z"/>
		<path fill="#272660" d="M636.6,80.7c-0.2-0.1-0.4-0.1-0.6-0.2s-0.4-0.2-0.5-0.3v-0.8h5.6v0.8c-0.3,0.2-0.7,0.4-1.2,0.5L642,86
			l0.4,1.4l0,0l0.3-1.4l1.7-5.3c-0.4-0.1-0.8-0.3-1.2-0.5v-0.8h4.1v0.8c-0.3,0.2-0.7,0.4-1.2,0.5l-3.5,9.3c-0.3,0.9-0.7,1.6-1,2.2
			c-0.3,0.6-0.7,1-1,1.4c-0.3,0.3-0.7,0.6-1,0.7c-0.3,0.1-0.7,0.2-1,0.3c-0.1-0.1-0.3-0.3-0.4-0.5s-0.2-0.4-0.3-0.6
			c-0.1-0.2-0.2-0.4-0.2-0.7c-0.1-0.2-0.1-0.4-0.1-0.6l0.3-0.5h2.6c0.1-0.2,0.2-0.4,0.3-0.6c0.1-0.2,0.2-0.6,0.3-1L636.6,80.7z"/>
		<path fill="#272660" d="M656.8,88.2c-0.1,0.2-0.3,0.5-0.5,0.7s-0.5,0.5-0.9,0.7s-0.8,0.3-1.2,0.5s-1,0.2-1.5,0.2
			c-0.9,0-1.7-0.1-2.3-0.4c-0.7-0.3-1.2-0.6-1.7-1.1s-0.8-1.1-1-1.7c-0.2-0.7-0.3-1.4-0.3-2.3c0-1.8,0.5-3.2,1.4-4.1
			s2.3-1.4,3.9-1.4c0.7,0,1.4,0.1,2,0.3s1.1,0.5,1.6,1c0.4,0.5,0.7,1,0.9,1.8c0.2,0.7,0.2,1.6,0,2.7h-6.5c0,1.1,0.3,2,0.9,2.7
			s1.4,1,2.5,1c0.5,0,0.9-0.1,1.5-0.2c0.5-0.1,0.9-0.3,1.2-0.6V88.2z M652.6,80.3c-0.3,0-0.5,0-0.7,0.1s-0.4,0.3-0.6,0.5
			c-0.2,0.3-0.3,0.6-0.4,1.1c-0.1,0.4-0.2,1-0.2,1.7h3.4c0.1-1.1,0-1.9-0.2-2.5C653.6,80.6,653.2,80.3,652.6,80.3z"/>
		<path fill="#272660" d="M668,86.9c0,0.3,0,0.6,0,0.8s0,0.5,0.1,0.7l1.5,0.2v0.7c-0.2,0.1-0.4,0.2-0.7,0.3
			c-0.3,0.1-0.6,0.2-0.9,0.2c-0.3,0.1-0.6,0.1-0.9,0.2c-0.3,0-0.6,0.1-0.8,0.1h-0.7c-0.1-0.3-0.2-0.6-0.3-1c-0.1-0.4,0-0.7-0.1-1.2
			h-0.1c-0.1,0.3-0.2,0.6-0.4,0.8c-0.2,0.3-0.4,0.5-0.6,0.7c-0.3,0.2-0.6,0.4-0.9,0.5s-0.7,0.2-1.2,0.2s-0.9-0.1-1.3-0.2
			c-0.4-0.1-0.7-0.3-1-0.6s-0.5-0.6-0.7-0.9c-0.2-0.4-0.3-0.8-0.3-1.2c0-0.6,0.1-1.2,0.4-1.6c0.2-0.4,0.6-0.7,1.1-1s1.2-0.5,2-0.6
			s1.8-0.2,3-0.3c0.1-1.2,0.1-2.1-0.1-2.7s-0.7-0.8-1.4-0.8c-0.4,0-0.8,0.1-1.2,0.2l-1,2.5h-0.9c-0.1-0.2-0.2-0.4-0.3-0.6
			c-0.1-0.2-0.2-0.5-0.3-0.7c-0.1-0.2-0.2-0.5-0.2-0.8s-0.1-0.5-0.1-0.7c0.5-0.4,1.2-0.7,2.1-0.9c0.8-0.2,1.7-0.3,2.7-0.3
			c0.8,0,1.5,0.1,2,0.3c0.5,0.2,0.9,0.4,1.2,0.7c0.3,0.3,0.5,0.7,0.6,1.1s0.2,0.8,0.2,1.3c0,0.8,0,1.6-0.1,2.3
			C668,85.5,668,86.2,668,86.9z M663.2,88.5c0.3,0,0.5-0.1,0.8-0.2c0.3-0.1,0.4-0.2,0.5-0.4s0.3-0.3,0.3-0.5
			c0.1-0.2,0.1-0.3,0.2-0.5v-2.1c-0.7,0-1.2,0.1-1.6,0.1c-0.4,0.1-0.8,0.2-1,0.3c-0.2,0.2-0.4,0.4-0.5,0.6s-0.1,0.5-0.1,0.9
			c0,0.5,0.1,1,0.4,1.2C662.5,88.1,662.8,88.5,663.2,88.5z"/>
		<path fill="#272660" d="M675.8,81.8c-0.2,0.1-0.4,0.2-0.6,0.4c-0.2,0.2-0.4,0.5-0.6,1v5.4c0.3,0,0.6,0.1,0.8,0.2
			c0.3,0.1,0.6,0.2,0.8,0.4V90h-6.1v-0.8c0.3-0.1,0.5-0.2,0.7-0.3s0.5-0.1,0.7-0.2v-7.8l-1.4-0.2v-0.8c0.2-0.1,0.5-0.2,0.8-0.3
			c0.3-0.1,0.7-0.2,1-0.2c0.4-0.1,0.7-0.1,1-0.2c0.3,0,0.6-0.1,0.8-0.1h0.7v2.8h0.1c0.1-0.3,0.3-0.6,0.5-1c0.2-0.3,0.5-0.6,0.8-0.9
			s0.6-0.5,1-0.7s0.7-0.2,1.1-0.2c0.2,0.2,0.3,0.5,0.4,0.8c0.1,0.4,0.2,0.7,0.3,1v0.8h-2.8L675.8,81.8L675.8,81.8z"/>
	</g>
	<path fill="#828182" d="M830.2,267.2H422.5c-6.6,0-12-5.4-12-12V119.6c0-6.6,5.4-12,12-12h407.7c6.6,0,12,5.4,12,12v135.6
		C842.2,261.8,836.8,267.2,830.2,267.2z"/>
	<circle fill="#272660" cx="726" cy="112.9" r="9.7"/>
	<circle fill="#272660" cx="785.2" cy="112.9" r="9.7"/>
	<path fill="#DE573D" d="M805.8,85.6h-11.4V63.5c0-8.9-6.2-16.2-13.7-16.2H724c-7.5,0-13.7,7.3-13.7,16.2v21.2h-8
		c-7.5,0-13.7,7.3-13.7,16.2v1.8c0,8.9,6.2,16.2,13.7,16.2H713c0-0.2,0-0.4,0-0.7c0-7.6,5.6-13.7,12.5-13.7s12.5,6.2,12.5,13.7
		c0,0.5,0,1.1-0.1,1.6h35.5c0-0.4-0.1-0.9-0.1-1.4c0-7.6,5.6-13.7,12.5-13.7s12.5,6.2,12.5,13.7c0,0.5,0,0.9-0.1,1.4h7.3
		c7.5,0,13.7-7.3,13.7-16.2v-1.8C819.5,92.9,813.2,85.6,805.8,85.6z"/>
	<path fill="none" stroke="#DFB541" stroke-width="2.0544" stroke-miterlimit="10" stroke-dasharray="11.4528" d="M800.6,230.3H451
		c-6.6,0-12-5.4-12-12v-69.8c0-6.6,5.4-12,12-12h349.6c6.6,0,12,5.4,12,12v69.8C812.6,224.9,807.2,230.3,800.6,230.3z"/>
	<path fill="#AFD17E" d="M758.8,197.6H492.7c-6.6,0-12-5.4-12-12v-11c0-6.6,5.4-12,12-12h266.2c6.6,0,12,5.4,12,12v11
		C770.9,192.2,765.5,197.6,758.8,197.6z"/>
</g>
<g id="Carpool">
	<circle fill="#272660" cx="89.6" cy="140.2" r="9.7"/>
	<circle fill="#272660" cx="148.8" cy="140.2" r="9.7"/>
	<g>
		<line fill="none" stroke="#272661" stroke-width="3" stroke-miterlimit="10" x1="291.6" y1="150.2" x2="28.8" y2="150.2"/>
		<line fill="none" stroke="#272661" stroke-width="3" stroke-miterlimit="10" x1="28.3" y1="152.1" x2="28.3" y2="30.1"/>
	</g>
	<line fill="none" stroke="#272660" stroke-width="3" stroke-miterlimit="10" x1="27.8" y1="88.4" x2="70.6" y2="88.4"/>
	<line fill="none" stroke="#272660" stroke-width="3" stroke-miterlimit="10" x1="27.4" y1="58.6" x2="70.2" y2="58.6"/>
	<g>
		<rect x="65.2" y="180.4" fill="none" width="281" height="87.8"/>
		<path fill="#272660" d="M68.1,192.3c0-0.9,0.3-1.7,0.9-2.4s1.4-1.1,2.4-1.4c-0.8-0.5-1.5-1-1.9-1.6c-0.5-0.6-0.7-1.3-0.7-2.2
			c0-0.5,0.1-1,0.3-1.4s0.5-0.8,0.9-1.1s0.9-0.6,1.4-0.8c0.6-0.2,1.2-0.3,1.9-0.3c0.6,0,1.2,0.1,1.8,0.2c0.5,0.2,1,0.4,1.4,0.7
			s0.7,0.6,0.9,1c0.2,0.4,0.3,0.8,0.3,1.3c0,0.8-0.3,1.5-0.8,2.1s-1.2,1-2,1.3c0.6,0.3,1.1,0.6,1.5,0.9c0.4,0.3,0.8,0.6,1.1,1
			c0.3,0.3,0.5,0.7,0.6,1.1c0.1,0.4,0.2,0.8,0.2,1.2c0,0.5-0.1,1-0.3,1.5c-0.2,0.5-0.5,0.9-1,1.2c-0.4,0.3-0.9,0.6-1.6,0.8
			c-0.6,0.2-1.3,0.3-2.2,0.3c-0.7,0-1.4-0.1-2-0.3s-1.1-0.4-1.5-0.7s-0.7-0.7-1-1.1C68.2,193.2,68.1,192.8,68.1,192.3z M75.1,192.5
			c0-0.5-0.1-0.8-0.2-1.2c-0.2-0.3-0.4-0.6-0.7-0.9s-0.6-0.5-0.9-0.7c-0.4-0.2-0.7-0.5-1.1-0.7c-0.5,0.4-0.8,0.8-1,1.3
			s-0.3,1-0.3,1.4c0,0.3,0,0.6,0.1,1c0.1,0.3,0.2,0.6,0.4,0.9c0.2,0.2,0.4,0.5,0.7,0.6c0.3,0.2,0.6,0.2,1,0.2c0.3,0,0.6-0.1,0.9-0.2
			c0.2-0.1,0.5-0.3,0.6-0.4c0.2-0.2,0.3-0.4,0.4-0.6S75.1,192.8,75.1,192.5z M71.4,184.3c0,0.6,0.2,1.2,0.7,1.7
			c0.4,0.5,1,0.9,1.7,1.3c0.4-0.3,0.6-0.7,0.8-1.2c0.2-0.4,0.2-0.9,0.2-1.5c0-0.8-0.2-1.4-0.5-1.7c-0.3-0.4-0.7-0.6-1.2-0.6
			c-0.6,0-1,0.2-1.3,0.6C71.5,183.3,71.4,183.8,71.4,184.3z"/>
		<path fill="#272660" d="M89.5,191.1c0,0.7-0.1,1.3-0.4,1.9c-0.3,0.6-0.6,1-1.1,1.4s-1,0.7-1.6,0.9s-1.2,0.3-1.9,0.3
			c-0.8,0-1.6-0.1-2.2-0.4s-1.2-0.6-1.6-1.1s-0.8-1-1-1.7s-0.3-1.3-0.3-2.1c0-1.3,0.2-2.4,0.7-3.4c0.4-1,1-2,1.8-2.8
			c0.7-0.8,1.6-1.5,2.6-2s2.1-0.9,3.2-1.2l0.3,0.9c-0.7,0.2-1.4,0.5-2,0.9s-1.2,0.9-1.6,1.4c-0.5,0.6-0.9,1.2-1.2,1.9
			s-0.5,1.5-0.6,2.3c0.1-0.2,0.2-0.3,0.4-0.5s0.4-0.3,0.6-0.5c0.2-0.1,0.5-0.3,0.8-0.3c0.3-0.1,0.7-0.1,1.1-0.1
			c0.5,0,1.1,0.1,1.5,0.3c0.5,0.2,0.9,0.4,1.2,0.8c0.3,0.3,0.6,0.8,0.8,1.3C89.4,189.8,89.5,190.4,89.5,191.1z M86.5,191.4
			c0-2-0.7-3-2-3c-0.5,0-0.8,0.1-1.2,0.4c-0.3,0.2-0.6,0.5-0.7,0.8c0,0.2-0.1,0.4-0.1,0.7c0,0.2,0,0.5,0,0.7c0,0.5,0,0.9,0.1,1.3
			c0.1,0.4,0.2,0.8,0.4,1.1c0.2,0.3,0.4,0.6,0.7,0.8s0.6,0.3,1,0.3c0.3,0,0.6-0.1,0.8-0.3c0.2-0.2,0.4-0.4,0.6-0.7
			c0.1-0.3,0.2-0.6,0.3-1C86.4,192.2,86.5,191.8,86.5,191.4z"/>
		<path fill="#272660" d="M90.9,184.6c0-0.5,0.1-1,0.3-1.4s0.5-0.8,0.8-1.1s0.7-0.5,1.2-0.7s1-0.2,1.6-0.2s1.1,0.1,1.6,0.2
			c0.5,0.1,0.9,0.4,1.2,0.6c0.3,0.3,0.6,0.6,0.8,1.1c0.2,0.4,0.3,0.9,0.3,1.5c0,0.5-0.1,1-0.3,1.4s-0.4,0.8-0.8,1.1
			c-0.3,0.3-0.7,0.5-1.2,0.7s-1,0.2-1.6,0.2s-1.1-0.1-1.6-0.2c-0.5-0.1-0.9-0.4-1.2-0.6c-0.3-0.2-0.6-0.6-0.8-1.1
			S90.9,185.1,90.9,184.6z M103.9,181.1l1,0.8l-11.7,13.8l-0.9-0.9L103.9,181.1z M93.3,184.6c0,1.6,0.5,2.4,1.4,2.4
			c0.5,0,0.8-0.2,1.1-0.5c0.2-0.4,0.4-1,0.4-1.9s-0.1-1.5-0.4-1.9c-0.2-0.4-0.6-0.5-1.1-0.5s-0.9,0.2-1.1,0.5
			C93.4,183.1,93.3,183.7,93.3,184.6z M98.5,192.2c0-0.5,0.1-1,0.3-1.4s0.5-0.8,0.8-1.1s0.7-0.5,1.2-0.7s1-0.2,1.6-0.2
			s1.1,0.1,1.6,0.2c0.5,0.1,0.9,0.4,1.2,0.6c0.3,0.3,0.6,0.6,0.8,1.1c0.2,0.4,0.3,0.9,0.3,1.5c0,0.5-0.1,1-0.3,1.4s-0.4,0.8-0.8,1.1
			c-0.3,0.3-0.7,0.5-1.2,0.7s-1,0.2-1.6,0.2s-1.1-0.1-1.6-0.2c-0.5-0.1-0.9-0.4-1.2-0.6c-0.3-0.3-0.6-0.6-0.8-1.1
			C98.6,193.3,98.5,192.8,98.5,192.2z M100.9,192.2c0,1.6,0.5,2.4,1.4,2.4c0.5,0,0.8-0.2,1.1-0.5c0.2-0.4,0.4-1,0.4-1.9
			s-0.1-1.5-0.4-1.9c-0.2-0.4-0.6-0.5-1.1-0.5s-0.9,0.2-1.1,0.5C101,190.7,100.9,191.4,100.9,192.2z"/>
		<path fill="#272660" d="M113.1,190.4c0-0.8,0.1-1.5,0.4-2.2s0.6-1.2,1.1-1.7s1-0.8,1.7-1s1.4-0.4,2.2-0.4c0.9,0,1.7,0.1,2.4,0.4
			c0.7,0.3,1.2,0.6,1.7,1.1c0.4,0.5,0.8,1,1,1.7c0.2,0.6,0.3,1.4,0.3,2.1c0,0.8-0.1,1.5-0.4,2.2c-0.2,0.6-0.6,1.2-1.1,1.7
			s-1,0.8-1.7,1s-1.4,0.4-2.2,0.4c-0.9,0-1.7-0.1-2.4-0.4c-0.7-0.3-1.2-0.6-1.7-1.1s-0.8-1-1-1.7
			C113.2,191.8,113.1,191.2,113.1,190.4z M116.2,190.4c0,0.6,0,1.2,0.1,1.7s0.2,0.9,0.4,1.3c0.2,0.3,0.4,0.6,0.8,0.8
			c0.3,0.2,0.7,0.3,1.2,0.3c0.3,0,0.6-0.1,0.8-0.2c0.2-0.1,0.4-0.4,0.6-0.7s0.3-0.7,0.4-1.2s0.1-1.1,0.1-1.9c0-0.6,0-1.2-0.1-1.7
			s-0.2-0.9-0.4-1.3c-0.2-0.3-0.4-0.6-0.7-0.8s-0.7-0.3-1.2-0.3c-0.3,0-0.6,0.1-0.9,0.2c-0.3,0.1-0.5,0.4-0.6,0.7
			c-0.2,0.3-0.3,0.7-0.4,1.2C116.2,189,116.2,189.7,116.2,190.4z"/>
		<path fill="#272660" d="M130.8,180.4c0.5,0,1,0.1,1.5,0.2s0.8,0.2,1,0.3c0,0.4-0.1,0.9-0.3,1.4c-0.1,0.5-0.3,0.9-0.4,1.2h-0.7
			l-0.9-1.9c-0.3,0-0.6,0-0.9,0.1c-0.2,0.1-0.4,0.2-0.6,0.4c-0.1,0.2-0.2,0.5-0.3,0.9c-0.1,0.4-0.1,0.9-0.1,1.5v1h2.1v1.3H129v7.5
			c0.7,0.1,1.3,0.2,1.9,0.5v0.8h-6.1v-0.8c0.4-0.2,0.9-0.4,1.3-0.5v-7.5h-1.5V186c0.5-0.3,1-0.5,1.5-0.7v-0.7c0-0.8,0.1-1.5,0.4-2.1
			c0.2-0.5,0.6-1,1-1.3s0.9-0.5,1.4-0.7C129.6,180.4,130.2,180.4,130.8,180.4z"/>
		<path fill="#272660" d="M146.7,192.5c0,0.3,0,0.5,0,0.8c0,0.2,0,0.4,0,0.7l1.4,0.2v0.7c-0.2,0.1-0.4,0.2-0.7,0.2
			c-0.3,0.1-0.6,0.2-0.9,0.2s-0.6,0.1-0.9,0.2c-0.3,0-0.6,0.1-0.8,0.1h-0.7c-0.1-0.3-0.2-0.6-0.2-0.9c0-0.3,0-0.7-0.1-1.1h-0.1
			c-0.1,0.3-0.2,0.5-0.3,0.8c-0.2,0.2-0.4,0.5-0.6,0.7s-0.5,0.4-0.9,0.5c-0.3,0.1-0.7,0.2-1.1,0.2s-0.8-0.1-1.2-0.2s-0.7-0.3-1-0.6
			c-0.3-0.2-0.5-0.5-0.7-0.9s-0.2-0.7-0.2-1.2c0-0.6,0.1-1.1,0.3-1.5c0.2-0.4,0.6-0.7,1.1-1c0.5-0.2,1.1-0.4,1.9-0.6
			s1.7-0.2,2.8-0.3c0.1-1.1,0.1-2-0.1-2.5s-0.6-0.8-1.3-0.8c-0.4,0-0.8,0.1-1.1,0.2l-0.9,2.4h-0.9c-0.1-0.2-0.2-0.3-0.3-0.6
			c-0.1-0.2-0.2-0.4-0.3-0.7c-0.1-0.2-0.2-0.5-0.2-0.7c-0.1-0.2-0.1-0.5-0.1-0.7c0.5-0.3,1.2-0.6,2-0.8s1.7-0.3,2.5-0.3
			s1.4,0.1,1.9,0.3s0.9,0.4,1.1,0.7c0.3,0.3,0.5,0.6,0.6,1s0.2,0.8,0.2,1.2c0,0.8,0,1.5,0,2.2C146.7,191.2,146.7,191.8,146.7,192.5z
			 M142.2,194.1c0.3,0,0.5-0.1,0.7-0.2c0.2-0.1,0.4-0.2,0.5-0.4c0.1-0.1,0.2-0.3,0.3-0.5s0.1-0.3,0.2-0.5v-2c-0.6,0-1.1,0.1-1.5,0.1
			c-0.4,0.1-0.7,0.2-0.9,0.3c-0.2,0.2-0.4,0.3-0.5,0.6c-0.1,0.2-0.1,0.5-0.1,0.9c0,0.5,0.1,0.9,0.4,1.2
			C141.4,193.9,141.7,194.1,142.2,194.1z"/>
		<path fill="#272660" d="M154.6,195.4h-5.5v-0.8c0.4-0.2,0.9-0.4,1.3-0.5v-12.2l-1.5-0.2v-0.8c0.2-0.1,0.4-0.2,0.7-0.2
			c0.3-0.1,0.6-0.2,1-0.2c0.4-0.1,0.7-0.1,1.1-0.2c0.4,0,0.7-0.1,1-0.1h0.7v14c0.4,0.1,0.9,0.3,1.3,0.5L154.6,195.4L154.6,195.4z"/>
		<path fill="#272660" d="M161.2,195.4h-5.5v-0.8c0.4-0.2,0.9-0.4,1.3-0.5v-12.2l-1.5-0.2v-0.8c0.2-0.1,0.4-0.2,0.7-0.2
			c0.3-0.1,0.6-0.2,1-0.2c0.4-0.1,0.7-0.1,1.1-0.2c0.4,0,0.7-0.1,1-0.1h0.7v14c0.4,0.1,0.9,0.3,1.3,0.5L161.2,195.4L161.2,195.4z"/>
		<path fill="#272660" d="M171.9,195.4h-5v-0.8c0.2-0.1,0.4-0.3,0.7-0.4c0.2-0.1,0.5-0.2,0.7-0.2l5.2-12.9h1.5l5,12.9
			c0.3,0.1,0.5,0.1,0.8,0.2c0.3,0.1,0.5,0.2,0.7,0.4v0.8h-6.3v-0.8c0.3-0.1,0.5-0.2,0.8-0.3s0.6-0.2,0.8-0.2l-1.2-3.2H171l-1.2,3.2
			c0.6,0.1,1.2,0.3,1.7,0.6v0.7H171.9z M171.8,189.6h3.5l-1.3-3.8l-0.4-1.7l0,0l-0.4,1.8L171.8,189.6z"/>
		<path fill="#272660" d="M193.5,195.4h-5v-0.8c0.1-0.1,0.3-0.2,0.5-0.3s0.4-0.2,0.6-0.2v-4c0-0.6,0-1.1-0.1-1.6s-0.1-0.8-0.2-1.1
			s-0.3-0.5-0.4-0.6c-0.2-0.1-0.4-0.2-0.7-0.2c-0.4,0-0.8,0.2-1.1,0.5c-0.3,0.3-0.5,0.8-0.7,1.3v5.6c0.4,0.1,0.7,0.3,1,0.5v0.8h-5.2
			v-0.8c0.2-0.1,0.4-0.2,0.6-0.3s0.5-0.2,0.7-0.2v-7.4l-1.3-0.2v-0.8c0.2-0.1,0.5-0.2,0.8-0.3s0.6-0.2,1-0.2s0.7-0.1,1-0.2
			c0.3,0,0.6-0.1,0.8-0.1h0.7v2.3l0,0c0.2-0.6,0.6-1.2,1.1-1.6c0.5-0.4,1.2-0.7,2-0.7c0.3,0,0.6,0,0.9,0.1s0.6,0.2,0.9,0.4
			s0.5,0.4,0.7,0.8c0.2,0.4,0.3,0.7,0.4,1.2c0.2-0.7,0.6-1.3,1.2-1.8s1.2-0.7,2-0.7c0.5,0,0.9,0.1,1.3,0.2c0.4,0.1,0.7,0.4,1,0.7
			s0.5,0.8,0.6,1.3s0.2,1.2,0.2,2.1v4.8c0.5,0.1,0.9,0.2,1.3,0.5v0.8h-5.2v-0.8c0.3-0.2,0.6-0.4,1-0.5v-4.4c0-1-0.1-1.8-0.3-2.3
			c-0.2-0.5-0.6-0.7-1.3-0.7c-0.5,0-0.9,0.2-1.1,0.5c-0.3,0.4-0.5,0.8-0.6,1.4v5.4c0.2,0.1,0.4,0.1,0.6,0.2c0.2,0.1,0.4,0.2,0.5,0.3
			v1.1H193.5z"/>
		<path fill="#272660" d="M209.8,193.8c-0.1,0.2-0.3,0.5-0.5,0.7s-0.5,0.4-0.9,0.6s-0.7,0.3-1.2,0.4c-0.4,0.1-0.9,0.2-1.5,0.2
			c-0.8,0-1.6-0.1-2.2-0.4c-0.6-0.2-1.2-0.6-1.6-1.1s-0.8-1-1-1.7s-0.3-1.4-0.3-2.2c0-1.7,0.4-3,1.3-3.9s2.1-1.3,3.7-1.3
			c0.7,0,1.3,0.1,1.9,0.3s1.1,0.5,1.5,0.9s0.7,1,0.8,1.7c0.2,0.7,0.1,1.5,0,2.5h-6.2c0,1.1,0.3,1.9,0.8,2.5s1.3,0.9,2.3,0.9
			c0.4,0,0.9-0.1,1.4-0.2c0.5-0.1,0.8-0.3,1.1-0.5L209.8,193.8z M205.7,186.3c-0.3,0-0.5,0-0.7,0.1s-0.4,0.3-0.5,0.5
			c-0.2,0.2-0.3,0.6-0.4,1s-0.2,1-0.2,1.6h3.2c0.1-1,0-1.8-0.2-2.4C206.7,186.6,206.3,186.3,205.7,186.3z"/>
		<path fill="#272660" d="M216.7,187.7c-0.2,0.1-0.3,0.2-0.6,0.4c-0.2,0.2-0.4,0.5-0.6,0.9v5.1c0.3,0,0.5,0.1,0.8,0.2
			c0.3,0.1,0.5,0.2,0.8,0.3v0.8h-5.8v-0.8c0.2-0.1,0.5-0.2,0.7-0.3s0.4-0.1,0.6-0.2v-7.4l-1.3-0.2v-0.8c0.2-0.1,0.5-0.2,0.8-0.3
			s0.6-0.2,1-0.2s0.7-0.1,1-0.2c0.3,0,0.6-0.1,0.8-0.1h0.7v2.7h0.1c0.1-0.3,0.3-0.6,0.5-0.9c0.2-0.3,0.5-0.6,0.7-0.9
			c0.3-0.3,0.6-0.5,0.9-0.6c0.3-0.2,0.7-0.2,1-0.2c0.1,0.2,0.3,0.5,0.4,0.8s0.2,0.7,0.3,1v0.8h-2.8V187.7z"/>
		<path fill="#272660" d="M225.7,195.4h-5.5v-0.8c0.2-0.1,0.4-0.2,0.6-0.3s0.4-0.1,0.7-0.2v-7.4l-1.3-0.2v-0.8
			c0.2-0.1,0.5-0.2,0.8-0.2c0.3-0.1,0.6-0.2,1-0.2c0.3-0.1,0.7-0.1,1-0.2c0.3,0,0.6-0.1,0.8-0.1h0.7v9c0.3,0.1,0.5,0.1,0.7,0.2
			c0.2,0.1,0.4,0.2,0.6,0.3L225.7,195.4L225.7,195.4z M221.2,182.1c0-0.5,0.2-0.8,0.5-1.1s0.7-0.4,1.2-0.4s0.9,0.1,1.2,0.4
			c0.3,0.3,0.5,0.6,0.5,1.1s-0.2,0.8-0.5,1.1s-0.7,0.4-1.2,0.4s-0.9-0.1-1.2-0.4C221.3,182.9,221.2,182.6,221.2,182.1z"/>
		<path fill="#272660" d="M235.3,193.8c-0.1,0.3-0.2,0.5-0.5,0.7c-0.2,0.2-0.5,0.4-0.8,0.6c-0.3,0.2-0.6,0.3-1,0.4
			c-0.4,0.1-0.8,0.1-1.2,0.1c-0.9,0-1.6-0.1-2.3-0.4c-0.6-0.2-1.2-0.6-1.6-1.1s-0.7-1-0.9-1.7c-0.2-0.6-0.3-1.4-0.3-2.2
			c0-1.7,0.5-3,1.4-3.9s2.2-1.4,4-1.4c0.7,0,1.3,0.1,1.8,0.2c0.5,0.1,1,0.3,1.4,0.5c0,0.2-0.1,0.5-0.1,0.8s-0.1,0.5-0.2,0.8
			s-0.1,0.5-0.2,0.8s-0.2,0.5-0.2,0.7h-1l-0.8-2.4c-0.1-0.1-0.2-0.1-0.3-0.2c-0.1,0-0.3-0.1-0.5-0.1c-0.3,0-0.6,0.1-0.9,0.2
			s-0.5,0.3-0.7,0.7c-0.2,0.3-0.3,0.7-0.4,1.2s-0.1,1.1-0.1,1.9c0,0.5,0.1,1.1,0.2,1.5s0.3,0.9,0.6,1.2c0.2,0.3,0.6,0.6,0.9,0.8
			c0.4,0.2,0.8,0.3,1.3,0.3s0.9-0.1,1.2-0.2c0.3-0.1,0.6-0.3,0.9-0.5L235.3,193.8z"/>
		<path fill="#272660" d="M245.3,192.5c0,0.3,0,0.5,0,0.8c0,0.2,0,0.4,0,0.7l1.4,0.2v0.7c-0.2,0.1-0.4,0.2-0.7,0.2
			c-0.3,0.1-0.6,0.2-0.9,0.2s-0.6,0.1-0.9,0.2c-0.3,0-0.6,0.1-0.8,0.1h-0.7c-0.1-0.3-0.2-0.6-0.2-0.9c0-0.3,0-0.7-0.1-1.1h-0.1
			c-0.1,0.3-0.2,0.5-0.3,0.8c-0.2,0.2-0.4,0.5-0.6,0.7s-0.5,0.4-0.9,0.5c-0.3,0.1-0.7,0.2-1.1,0.2s-0.8-0.1-1.2-0.2s-0.7-0.3-1-0.6
			c-0.3-0.2-0.5-0.5-0.7-0.9s-0.2-0.7-0.2-1.2c0-0.6,0.1-1.1,0.3-1.5c0.2-0.4,0.6-0.7,1.1-1c0.5-0.2,1.1-0.4,1.9-0.6
			s1.7-0.2,2.8-0.3c0.1-1.1,0.1-2-0.1-2.5s-0.6-0.8-1.3-0.8c-0.4,0-0.8,0.1-1.1,0.2l-0.9,2.4h-0.9c-0.1-0.2-0.2-0.3-0.3-0.6
			c-0.1-0.2-0.2-0.4-0.3-0.7c-0.1-0.2-0.2-0.5-0.2-0.7c-0.1-0.2-0.1-0.5-0.1-0.7c0.5-0.3,1.2-0.6,2-0.8s1.7-0.3,2.5-0.3
			s1.4,0.1,1.9,0.3s0.9,0.4,1.1,0.7c0.3,0.3,0.5,0.6,0.6,1s0.2,0.8,0.2,1.2c0,0.8,0,1.5,0,2.2C245.3,191.2,245.3,191.8,245.3,192.5z
			 M240.8,194.1c0.3,0,0.5-0.1,0.7-0.2c0.2-0.1,0.4-0.2,0.5-0.4c0.1-0.1,0.2-0.3,0.3-0.5s0.1-0.3,0.2-0.5v-2c-0.6,0-1.1,0.1-1.5,0.1
			c-0.4,0.1-0.7,0.2-0.9,0.3c-0.2,0.2-0.4,0.3-0.5,0.6c-0.1,0.2-0.1,0.5-0.1,0.9c0,0.5,0.1,0.9,0.4,1.2
			C240,193.9,240.4,194.1,240.8,194.1z"/>
		<path fill="#272660" d="M259.7,195.4h-5.3v-0.8c0.2-0.1,0.3-0.2,0.5-0.3s0.4-0.2,0.6-0.2v-4.7c0-0.8-0.1-1.5-0.4-2
			c-0.2-0.5-0.7-0.7-1.3-0.7c-0.5,0-0.9,0.2-1.3,0.5s-0.6,0.8-0.8,1.3v5.6c0.2,0.1,0.4,0.1,0.6,0.2c0.2,0.1,0.3,0.2,0.5,0.3v0.8
			h-5.3v-0.8c0.3-0.2,0.8-0.3,1.3-0.5v-7.4l-1.3-0.2v-0.8c0.2-0.1,0.4-0.2,0.7-0.2c0.3-0.1,0.6-0.1,0.9-0.2c0.3-0.1,0.7-0.1,1-0.2
			s0.7-0.1,0.9-0.1h0.7v2.1l0,0c0.3-0.6,0.7-1,1.3-1.5c0.6-0.4,1.2-0.6,2-0.6c0.5,0,1,0.1,1.4,0.2c0.4,0.1,0.8,0.4,1.1,0.7
			s0.5,0.8,0.7,1.3s0.2,1.2,0.2,2.1v4.8c0.5,0.1,1,0.3,1.3,0.5L259.7,195.4L259.7,195.4z"/>
		<path fill="#272660" d="M265.7,193.2c0-0.3-0.1-0.6-0.4-0.9c-0.2-0.3-0.6-0.5-0.9-0.7c-0.4-0.2-0.8-0.4-1.2-0.6
			c-0.4-0.2-0.8-0.5-1.2-0.8s-0.7-0.6-0.9-1s-0.4-0.9-0.4-1.4c0-0.4,0.1-0.8,0.3-1.1c0.2-0.3,0.4-0.6,0.8-0.8
			c0.3-0.2,0.7-0.4,1.2-0.5s0.9-0.2,1.5-0.2c0.7,0,1.4,0.1,2,0.2c0.6,0.1,1.2,0.3,1.6,0.5c-0.1,0.4-0.2,0.9-0.3,1.4
			s-0.3,0.9-0.5,1.3h-0.7l-0.8-2c-0.2-0.1-0.3-0.1-0.5-0.1s-0.4,0-0.6,0c-0.4,0-0.7,0.1-0.9,0.4s-0.3,0.5-0.3,0.8s0.1,0.6,0.4,0.9
			c0.2,0.2,0.6,0.5,0.9,0.7c0.4,0.2,0.8,0.4,1.2,0.6s0.8,0.5,1.2,0.7c0.4,0.3,0.7,0.6,0.9,1c0.2,0.4,0.4,0.8,0.4,1.3
			c0,0.9-0.4,1.6-1.1,2.2c-0.7,0.5-1.8,0.8-3,0.8c-0.6,0-1.3-0.1-2-0.2c-0.7-0.1-1.3-0.3-1.8-0.6c0-0.5,0.1-1,0.3-1.5
			c0.2-0.5,0.4-0.9,0.6-1.3h0.7l1,2.2c0.1,0.1,0.3,0.2,0.5,0.2s0.4,0,0.5,0c0.4,0,0.7-0.1,1.1-0.3
			C265.6,194,265.7,193.7,265.7,193.2z"/>
		<path fill="#272660" d="M275.1,190.4c0-0.8,0.1-1.5,0.4-2.2s0.6-1.2,1.1-1.7s1-0.8,1.7-1s1.4-0.4,2.2-0.4c0.9,0,1.7,0.1,2.4,0.4
			c0.7,0.3,1.2,0.6,1.7,1.1c0.4,0.5,0.8,1,1,1.7c0.2,0.6,0.3,1.4,0.3,2.1c0,0.8-0.1,1.5-0.4,2.2c-0.2,0.6-0.6,1.2-1.1,1.7
			s-1,0.8-1.7,1s-1.4,0.4-2.2,0.4c-0.9,0-1.7-0.1-2.4-0.4c-0.7-0.3-1.2-0.6-1.7-1.1s-0.8-1-1-1.7
			C275.2,191.8,275.1,191.2,275.1,190.4z M278.2,190.4c0,0.6,0,1.2,0.1,1.7s0.2,0.9,0.4,1.3c0.2,0.3,0.4,0.6,0.8,0.8
			c0.3,0.2,0.7,0.3,1.2,0.3c0.3,0,0.6-0.1,0.8-0.2c0.2-0.1,0.4-0.4,0.6-0.7s0.3-0.7,0.4-1.2s0.1-1.1,0.1-1.9c0-0.6,0-1.2-0.1-1.7
			s-0.2-0.9-0.4-1.3c-0.2-0.3-0.4-0.6-0.7-0.8s-0.7-0.3-1.2-0.3c-0.3,0-0.6,0.1-0.9,0.2c-0.3,0.1-0.5,0.4-0.6,0.7
			c-0.2,0.3-0.3,0.7-0.4,1.2C278.2,189,278.2,189.7,278.2,190.4z"/>
		<path fill="#272660" d="M290.9,195.7l-4-9c-0.4-0.1-0.7-0.3-1.1-0.5v-0.8h5.3v0.7c-0.2,0.1-0.4,0.2-0.5,0.3
			c-0.2,0.1-0.4,0.2-0.6,0.2l1.9,5.1l0.4,1.3l0,0l0.3-1.4l1.7-5.1c-0.2-0.1-0.4-0.1-0.6-0.2s-0.4-0.2-0.5-0.3v-0.8h3.9v0.8
			c-0.1,0.1-0.3,0.2-0.5,0.3s-0.4,0.2-0.7,0.2l-3.5,8.8L290.9,195.7z"/>
		<path fill="#272660" d="M306.3,193.8c-0.1,0.2-0.3,0.5-0.5,0.7s-0.5,0.4-0.9,0.6s-0.7,0.3-1.2,0.4c-0.4,0.1-0.9,0.2-1.5,0.2
			c-0.8,0-1.6-0.1-2.2-0.4c-0.6-0.2-1.2-0.6-1.6-1.1s-0.8-1-1-1.7s-0.3-1.4-0.3-2.2c0-1.7,0.4-3,1.3-3.9s2.1-1.3,3.7-1.3
			c0.7,0,1.3,0.1,1.9,0.3s1.1,0.5,1.5,0.9s0.7,1,0.8,1.7c0.2,0.7,0.1,1.5,0,2.5h-6.2c0,1.1,0.3,1.9,0.8,2.5s1.3,0.9,2.3,0.9
			c0.4,0,0.9-0.1,1.4-0.2c0.5-0.1,0.8-0.3,1.1-0.5L306.3,193.8z M302.1,186.3c-0.3,0-0.5,0-0.7,0.1s-0.4,0.3-0.5,0.5
			c-0.2,0.2-0.3,0.6-0.4,1s-0.2,1-0.2,1.6h3.2c0.1-1,0-1.8-0.2-2.4C303.2,186.6,302.7,186.3,302.1,186.3z"/>
		<path fill="#272660" d="M313.1,187.7c-0.2,0.1-0.3,0.2-0.6,0.4c-0.2,0.2-0.4,0.5-0.6,0.9v5.1c0.3,0,0.5,0.1,0.8,0.2
			c0.3,0.1,0.5,0.2,0.8,0.3v0.8h-5.8v-0.8c0.2-0.1,0.5-0.2,0.7-0.3s0.4-0.1,0.6-0.2v-7.4l-1.3-0.2v-0.8c0.2-0.1,0.5-0.2,0.8-0.3
			s0.6-0.2,1-0.2s0.7-0.1,1-0.2c0.3,0,0.6-0.1,0.8-0.1h0.7v2.7h0.1c0.1-0.3,0.3-0.6,0.5-0.9c0.2-0.3,0.5-0.6,0.7-0.9
			c0.3-0.3,0.6-0.5,0.9-0.6c0.3-0.2,0.7-0.2,1-0.2c0.1,0.2,0.3,0.5,0.4,0.8s0.2,0.7,0.3,1v0.8h-2.8V187.7z"/>
		<path fill="#272660" d="M330.7,195.4h-6.9v-0.9c0.3-0.1,0.7-0.3,1-0.4s0.7-0.2,1-0.3v-9.2l0.1-1.2c-0.4,0.1-0.8,0.2-1.2,0.2
			c-0.4,0-0.8,0.1-1.2,0l-0.1-0.7c0.7-0.2,1.5-0.4,2.3-0.8c0.8-0.3,1.6-0.7,2.3-1.1h0.7v12.7c0.3,0.1,0.7,0.2,1,0.3s0.7,0.2,1,0.4
			L330.7,195.4L330.7,195.4z"/>
		<path fill="#272660" d="M343.4,191.1c0,0.7-0.1,1.3-0.4,1.9c-0.3,0.6-0.6,1-1.1,1.4s-1,0.7-1.6,0.9s-1.2,0.3-1.9,0.3
			c-0.8,0-1.6-0.1-2.2-0.4s-1.2-0.6-1.6-1.1s-0.8-1-1-1.7s-0.3-1.3-0.3-2.1c0-1.3,0.2-2.4,0.7-3.4c0.4-1,1-2,1.8-2.8
			c0.7-0.8,1.6-1.5,2.6-2s2.1-0.9,3.2-1.2l0.3,0.9c-0.7,0.2-1.4,0.5-2,0.9s-1.2,0.9-1.6,1.4c-0.5,0.6-0.9,1.2-1.2,1.9
			s-0.5,1.5-0.6,2.3c0.1-0.2,0.2-0.3,0.4-0.5s0.4-0.3,0.6-0.5c0.2-0.1,0.5-0.3,0.8-0.3c0.3-0.1,0.7-0.1,1.1-0.1
			c0.5,0,1.1,0.1,1.5,0.3c0.5,0.2,0.9,0.4,1.2,0.8c0.3,0.3,0.6,0.8,0.8,1.3C343.3,189.8,343.4,190.4,343.4,191.1z M340.4,191.4
			c0-2-0.7-3-2-3c-0.5,0-0.8,0.1-1.2,0.4c-0.3,0.2-0.6,0.5-0.7,0.8c0,0.2-0.1,0.4-0.1,0.7c0,0.2,0,0.5,0,0.7c0,0.5,0,0.9,0.1,1.3
			c0.1,0.4,0.2,0.8,0.4,1.1c0.2,0.3,0.4,0.6,0.7,0.8s0.6,0.3,1,0.3c0.3,0,0.6-0.1,0.8-0.3c0.2-0.2,0.4-0.4,0.6-0.7
			c0.1-0.3,0.2-0.6,0.3-1C340.4,192.2,340.4,191.8,340.4,191.4z"/>
		<path fill="#272660" d="M68.9,210.7c-0.2-0.1-0.4-0.1-0.6-0.2c-0.2-0.1-0.3-0.2-0.5-0.3v-0.8h5.3v0.7c-0.3,0.2-0.7,0.4-1.1,0.5
			l2,5l0.3,1.3l0,0l0.3-1.3l1.6-5c-0.4-0.1-0.8-0.2-1.1-0.5v-0.8H79v0.8c-0.3,0.2-0.7,0.3-1.1,0.5l-3.3,8.8c-0.3,0.9-0.6,1.6-1,2.1
			c-0.3,0.5-0.6,1-1,1.3c-0.3,0.3-0.6,0.5-1,0.7c-0.3,0.1-0.6,0.2-1,0.2c-0.1-0.1-0.3-0.3-0.4-0.5s-0.2-0.4-0.3-0.6
			s-0.1-0.4-0.2-0.6c-0.1-0.2-0.1-0.4-0.1-0.6l0.3-0.5h2.4c0.1-0.2,0.2-0.4,0.3-0.6c0.1-0.2,0.2-0.5,0.3-1L68.9,210.7z"/>
		<path fill="#272660" d="M88.2,217.8c-0.1,0.2-0.3,0.5-0.5,0.7s-0.5,0.4-0.9,0.6s-0.7,0.3-1.2,0.4c-0.4,0.1-0.9,0.2-1.5,0.2
			c-0.8,0-1.6-0.1-2.2-0.4c-0.6-0.2-1.2-0.6-1.6-1.1s-0.8-1-1-1.7s-0.3-1.4-0.3-2.2c0-1.7,0.4-3,1.3-3.9s2.1-1.3,3.7-1.3
			c0.7,0,1.3,0.1,1.9,0.3s1.1,0.5,1.5,0.9s0.7,1,0.8,1.7c0.2,0.7,0.1,1.5,0,2.5H82c0,1.1,0.3,1.9,0.8,2.5s1.3,0.9,2.3,0.9
			c0.4,0,0.9-0.1,1.4-0.2c0.5-0.1,0.8-0.3,1.1-0.5L88.2,217.8z M84,210.4c-0.3,0-0.5,0-0.7,0.1s-0.4,0.3-0.5,0.5s-0.3,0.6-0.4,1
			s-0.2,1-0.2,1.6h3.2c0.1-1,0-1.8-0.2-2.4C85,210.7,84.6,210.4,84,210.4z"/>
		<path fill="#272660" d="M98.6,216.6c0,0.3,0,0.5,0,0.8c0,0.2,0,0.4,0,0.7l1.4,0.2v0.7c-0.2,0.1-0.4,0.2-0.7,0.2
			c-0.3,0.1-0.6,0.2-0.9,0.2s-0.6,0.1-0.9,0.2c-0.3,0-0.6,0.1-0.8,0.1H96c-0.1-0.3-0.2-0.6-0.2-0.9c0-0.3,0-0.7-0.1-1.1h-0.1
			c-0.1,0.3-0.2,0.5-0.3,0.8c-0.2,0.2-0.4,0.5-0.6,0.7s-0.5,0.4-0.9,0.5c-0.3,0.1-0.7,0.2-1.1,0.2s-0.8-0.1-1.2-0.2s-0.7-0.3-1-0.6
			c-0.3-0.2-0.5-0.5-0.7-0.9s-0.2-0.7-0.2-1.2c0-0.6,0.1-1.1,0.3-1.5c0.2-0.4,0.6-0.7,1.1-1c0.5-0.2,1.1-0.4,1.9-0.6
			s1.7-0.2,2.8-0.3c0.1-1.1,0.1-2-0.1-2.5s-0.6-0.8-1.3-0.8c-0.4,0-0.8,0.1-1.1,0.2l-0.9,2.4h-0.9c-0.1-0.2-0.2-0.3-0.3-0.6
			c-0.1-0.2-0.2-0.4-0.3-0.7c-0.1-0.2-0.2-0.5-0.2-0.7c-0.1-0.2-0.1-0.5-0.1-0.7c0.5-0.3,1.2-0.6,2-0.8s1.7-0.3,2.5-0.3
			s1.4,0.1,1.9,0.3s0.9,0.4,1.1,0.7c0.3,0.3,0.5,0.6,0.6,1s0.2,0.8,0.2,1.2c0,0.8,0,1.5,0,2.2C98.6,215.2,98.6,215.9,98.6,216.6z
			 M94.1,218.1c0.3,0,0.5-0.1,0.7-0.2c0.2-0.1,0.4-0.2,0.5-0.4c0.1-0.1,0.2-0.3,0.3-0.5s0.1-0.3,0.2-0.5v-2c-0.6,0-1.1,0.1-1.5,0.1
			c-0.4,0.1-0.7,0.2-0.9,0.3c-0.2,0.2-0.4,0.3-0.5,0.6c-0.1,0.2-0.1,0.5-0.1,0.9c0,0.5,0.1,0.9,0.4,1.2
			C93.4,218,93.7,218.1,94.1,218.1z"/>
		<path fill="#272660" d="M106.2,211.8c-0.2,0.1-0.3,0.2-0.6,0.4c-0.2,0.2-0.4,0.5-0.6,0.9v5.1c0.3,0,0.5,0.1,0.8,0.2
			c0.3,0.1,0.5,0.2,0.8,0.3v0.8h-5.8v-0.8c0.2-0.1,0.5-0.2,0.7-0.3s0.4-0.1,0.6-0.2v-7.4l-1.3-0.2v-0.8c0.2-0.1,0.5-0.2,0.8-0.3
			s0.6-0.2,1-0.2s0.7-0.1,1-0.2c0.3,0,0.6-0.1,0.8-0.1h0.7v2.7h0.1c0.1-0.3,0.3-0.6,0.5-0.9c0.2-0.3,0.5-0.6,0.7-0.9
			c0.3-0.3,0.6-0.5,0.9-0.6c0.3-0.2,0.7-0.2,1-0.2c0.1,0.2,0.3,0.5,0.4,0.8s0.2,0.7,0.3,1v0.8h-2.8V211.8z"/>
		<path fill="#272660" d="M114.8,217.3c0-0.3-0.1-0.6-0.4-0.9c-0.2-0.3-0.6-0.5-0.9-0.7c-0.4-0.2-0.8-0.4-1.2-0.6
			c-0.4-0.2-0.8-0.5-1.2-0.8s-0.7-0.6-0.9-1s-0.4-0.9-0.4-1.4c0-0.4,0.1-0.8,0.3-1.1c0.2-0.3,0.4-0.6,0.8-0.8
			c0.3-0.2,0.7-0.4,1.2-0.5c0.4-0.1,0.9-0.2,1.5-0.2c0.7,0,1.4,0.1,2,0.2c0.6,0.1,1.2,0.3,1.6,0.5c-0.1,0.4-0.2,0.9-0.3,1.4
			s-0.3,0.9-0.5,1.3h-0.7l-0.8-2c-0.2-0.1-0.3-0.1-0.5-0.1s-0.4,0-0.6,0c-0.4,0-0.7,0.1-0.9,0.4c-0.2,0.2-0.3,0.5-0.3,0.8
			s0.1,0.6,0.4,0.9c0.2,0.2,0.6,0.5,0.9,0.7c0.4,0.2,0.8,0.4,1.2,0.6s0.8,0.5,1.2,0.7c0.4,0.3,0.7,0.6,0.9,1
			c0.2,0.4,0.4,0.8,0.4,1.3c0,0.9-0.4,1.6-1.1,2.2c-0.7,0.5-1.8,0.8-3,0.8c-0.6,0-1.3-0.1-2-0.2c-0.7-0.1-1.3-0.3-1.8-0.6
			c0-0.5,0.1-1,0.3-1.5c0.2-0.5,0.4-0.9,0.6-1.3h0.7l1,2.2c0.1,0.1,0.3,0.2,0.5,0.2s0.4,0,0.5,0c0.4,0,0.7-0.1,1.1-0.3
			C114.6,218,114.8,217.7,114.8,217.3z"/>
		<path fill="#272660" d="M124.1,214.5c0-0.8,0.1-1.5,0.4-2.2s0.6-1.2,1.1-1.7s1-0.8,1.7-1s1.4-0.4,2.2-0.4c0.9,0,1.7,0.1,2.4,0.4
			s1.2,0.6,1.7,1.1c0.4,0.5,0.8,1,1,1.7c0.2,0.6,0.3,1.4,0.3,2.1c0,0.8-0.1,1.5-0.4,2.2c-0.2,0.6-0.6,1.2-1.1,1.7s-1,0.8-1.7,1
			s-1.4,0.4-2.2,0.4c-0.9,0-1.7-0.1-2.4-0.4c-0.7-0.3-1.2-0.6-1.7-1.1s-0.8-1-1-1.7C124.2,215.9,124.1,215.2,124.1,214.5z
			 M127.2,214.5c0,0.6,0,1.2,0.1,1.7s0.2,0.9,0.4,1.3c0.2,0.3,0.4,0.6,0.8,0.8c0.3,0.2,0.7,0.3,1.2,0.3c0.3,0,0.6-0.1,0.8-0.2
			c0.2-0.1,0.4-0.4,0.6-0.7s0.3-0.7,0.4-1.2s0.1-1.1,0.1-1.9c0-0.6,0-1.2-0.1-1.7s-0.2-0.9-0.4-1.3c-0.2-0.4-0.4-0.6-0.7-0.8
			s-0.7-0.3-1.2-0.3c-0.3,0-0.6,0.1-0.9,0.2c-0.3,0.1-0.5,0.4-0.6,0.7c-0.2,0.3-0.3,0.7-0.4,1.2
			C127.3,213.1,127.2,213.7,127.2,214.5z"/>
		<path fill="#272660" d="M141.6,219.5h-5.5v-0.8c0.4-0.2,0.9-0.4,1.3-0.5V206l-1.5-0.2V205c0.2-0.1,0.4-0.2,0.7-0.2s0.6-0.2,1-0.2
			c0.4-0.1,0.7-0.1,1.1-0.2c0.4,0,0.7-0.1,1-0.1h0.7v13.8c0.4,0.1,0.9,0.3,1.3,0.5L141.6,219.5L141.6,219.5z"/>
		<path fill="#272660" d="M149.5,217.5c-0.1,0.3-0.2,0.6-0.4,0.8c-0.2,0.2-0.4,0.5-0.6,0.7s-0.5,0.4-0.8,0.5s-0.6,0.2-1,0.2
			c-1.3,0-2.3-0.4-3-1.3c-0.7-0.8-1-2.1-1-3.8c0-0.9,0.1-1.7,0.4-2.3c0.2-0.7,0.6-1.2,1-1.7s1-0.8,1.6-1s1.3-0.3,2-0.3
			c0.2,0,0.4,0,0.6,0s0.3,0,0.5,0.1c0.1,0,0.3,0.1,0.4,0.1s0.3,0.1,0.4,0.2v-3.5l-1.5-0.2v-0.8c0.2-0.1,0.4-0.2,0.8-0.2
			c0.3-0.1,0.7-0.1,1-0.2c0.4-0.1,0.7-0.1,1.1-0.2c0.3-0.1,0.6-0.1,0.9-0.1h0.7v13.7l1.3,0.2v0.7c-0.2,0.1-0.4,0.2-0.7,0.3
			s-0.6,0.2-0.9,0.2c-0.3,0.1-0.6,0.1-0.9,0.2s-0.6,0.1-0.8,0.1h-0.7L149.5,217.5L149.5,217.5z M147.7,218.1c0.5,0,0.9-0.1,1.2-0.4
			c0.3-0.3,0.6-0.8,0.7-1.5v-5.4c-0.2-0.1-0.4-0.2-0.7-0.3c-0.3-0.1-0.6-0.1-1-0.1c-0.8,0-1.3,0.4-1.7,1.1c-0.3,0.7-0.5,1.7-0.5,3.1
			c0,1.1,0.1,2,0.4,2.6S147,218.1,147.7,218.1z"/>
		<path fill="#272660" d="M166.9,217.5c-0.1,0.3-0.2,0.6-0.4,0.8c-0.2,0.2-0.4,0.5-0.6,0.7s-0.5,0.4-0.8,0.5s-0.6,0.2-1,0.2
			c-1.3,0-2.3-0.4-3-1.3c-0.7-0.8-1-2.1-1-3.8c0-0.9,0.1-1.7,0.4-2.3c0.2-0.7,0.6-1.2,1-1.7s1-0.8,1.6-1s1.3-0.3,2-0.3
			c0.2,0,0.4,0,0.6,0s0.3,0,0.5,0.1c0.1,0,0.3,0.1,0.4,0.1s0.3,0.1,0.4,0.2v-3.5l-1.5-0.2v-0.8c0.2-0.1,0.4-0.2,0.8-0.2
			c0.3-0.1,0.7-0.1,1-0.2c0.4-0.1,0.7-0.1,1.1-0.2c0.3-0.1,0.6-0.1,0.9-0.1h0.7v13.7l1.3,0.2v0.7c-0.2,0.1-0.4,0.2-0.7,0.3
			s-0.6,0.2-0.9,0.2c-0.3,0.1-0.6,0.1-0.9,0.2s-0.6,0.1-0.8,0.1h-0.7L166.9,217.5L166.9,217.5z M165.1,218.1c0.5,0,0.9-0.1,1.2-0.4
			c0.3-0.3,0.6-0.8,0.7-1.5v-5.4c-0.2-0.1-0.4-0.2-0.7-0.3c-0.3-0.1-0.6-0.1-1-0.1c-0.8,0-1.3,0.4-1.7,1.1c-0.3,0.7-0.5,1.7-0.5,3.1
			c0,1.1,0.1,2,0.4,2.6S164.4,218.1,165.1,218.1z"/>
		<path fill="#272660" d="M177.3,211.8c-0.2,0.1-0.3,0.2-0.6,0.4c-0.2,0.2-0.4,0.5-0.6,0.9v5.1c0.3,0,0.5,0.1,0.8,0.2
			c0.3,0.1,0.5,0.2,0.8,0.3v0.8h-5.8v-0.8c0.2-0.1,0.5-0.2,0.7-0.3s0.4-0.1,0.6-0.2v-7.4l-1.3-0.2v-0.8c0.2-0.1,0.5-0.2,0.8-0.3
			s0.6-0.2,1-0.2s0.7-0.1,1-0.2c0.3,0,0.6-0.1,0.8-0.1h0.7v2.7h0.1c0.1-0.3,0.3-0.6,0.5-0.9c0.2-0.3,0.5-0.6,0.7-0.9
			c0.3-0.3,0.6-0.5,0.9-0.6c0.3-0.2,0.7-0.2,1-0.2c0.1,0.2,0.3,0.5,0.4,0.8s0.2,0.7,0.3,1v0.8h-2.8V211.8z"/>
		<path fill="#272660" d="M186.3,219.5h-5.5v-0.8c0.2-0.1,0.4-0.2,0.6-0.3s0.4-0.1,0.7-0.2v-7.4l-1.3-0.2v-0.8
			c0.2-0.1,0.5-0.2,0.8-0.2s0.6-0.2,1-0.2c0.3-0.1,0.7-0.1,1-0.2c0.3,0,0.6-0.1,0.8-0.1h0.7v9c0.3,0.1,0.5,0.1,0.7,0.2
			c0.2,0.1,0.4,0.2,0.6,0.3L186.3,219.5L186.3,219.5z M181.8,206.2c0-0.5,0.2-0.8,0.5-1.1s0.7-0.4,1.2-0.4s0.9,0.1,1.2,0.4
			c0.3,0.3,0.5,0.6,0.5,1.1s-0.2,0.8-0.5,1.1s-0.7,0.4-1.2,0.4s-0.9-0.1-1.2-0.4C181.9,207,181.8,206.6,181.8,206.2z"/>
		<path fill="#272660" d="M191.7,219.7l-4-9c-0.4-0.1-0.7-0.3-1.1-0.5v-0.8h5.3v0.7c-0.2,0.1-0.4,0.2-0.5,0.3
			c-0.2,0.1-0.4,0.2-0.6,0.2l1.9,5.1l0.4,1.3l0,0l0.3-1.4l1.7-5.1c-0.2-0.1-0.4-0.1-0.6-0.2c-0.2-0.1-0.4-0.2-0.5-0.3v-0.8h3.9v0.8
			c-0.1,0.1-0.3,0.2-0.5,0.3s-0.4,0.2-0.7,0.2l-3.5,8.8L191.7,219.7z"/>
		<path fill="#272660" d="M207,217.8c-0.1,0.2-0.3,0.5-0.5,0.7s-0.5,0.4-0.9,0.6c-0.4,0.2-0.7,0.3-1.2,0.4c-0.4,0.1-0.9,0.2-1.5,0.2
			c-0.8,0-1.6-0.1-2.2-0.4c-0.6-0.2-1.2-0.6-1.6-1.1s-0.8-1-1-1.7s-0.3-1.4-0.3-2.2c0-1.7,0.4-3,1.3-3.9s2.1-1.3,3.7-1.3
			c0.7,0,1.3,0.1,1.9,0.3s1.1,0.5,1.5,0.9s0.7,1,0.8,1.7c0.2,0.7,0.1,1.5,0,2.5h-6.2c0,1.1,0.3,1.9,0.8,2.5s1.3,0.9,2.3,0.9
			c0.4,0,0.9-0.1,1.4-0.2c0.5-0.1,0.8-0.3,1.1-0.5L207,217.8z M202.9,210.4c-0.3,0-0.5,0-0.7,0.1s-0.4,0.3-0.5,0.5s-0.3,0.6-0.4,1
			s-0.2,1-0.2,1.6h3.2c0.1-1,0-1.8-0.2-2.4C203.9,210.7,203.5,210.4,202.9,210.4z"/>
		<path fill="#272660" d="M222.9,216.6c0,0.3,0,0.5,0,0.8c0,0.2,0,0.4,0,0.7l1.4,0.2v0.7c-0.2,0.1-0.4,0.2-0.7,0.2
			c-0.3,0.1-0.6,0.2-0.9,0.2s-0.6,0.1-0.9,0.2c-0.3,0-0.6,0.1-0.8,0.1h-0.7c-0.1-0.3-0.2-0.6-0.2-0.9c0-0.3,0-0.7-0.1-1.1h-0.1
			c-0.1,0.3-0.2,0.5-0.3,0.8c-0.2,0.2-0.4,0.5-0.6,0.7s-0.5,0.4-0.9,0.5c-0.3,0.1-0.7,0.2-1.1,0.2s-0.8-0.1-1.2-0.2
			c-0.4-0.1-0.7-0.3-1-0.6c-0.3-0.2-0.5-0.5-0.7-0.9s-0.2-0.7-0.2-1.2c0-0.6,0.1-1.1,0.3-1.5s0.6-0.7,1.1-1c0.5-0.2,1.1-0.4,1.9-0.6
			s1.7-0.2,2.8-0.3c0.1-1.1,0.1-2-0.1-2.5s-0.6-0.8-1.3-0.8c-0.4,0-0.8,0.1-1.1,0.2l-0.9,2.4h-0.9c-0.1-0.2-0.2-0.3-0.3-0.6
			c-0.1-0.2-0.2-0.4-0.3-0.7c-0.1-0.2-0.2-0.5-0.2-0.7c-0.1-0.2-0.1-0.5-0.1-0.7c0.5-0.3,1.2-0.6,2-0.8s1.7-0.3,2.5-0.3
			s1.4,0.1,1.9,0.3s0.9,0.4,1.1,0.7c0.3,0.3,0.5,0.6,0.6,1s0.2,0.8,0.2,1.2c0,0.8,0,1.5,0,2.2C222.9,215.2,222.9,215.9,222.9,216.6z
			 M218.4,218.1c0.3,0,0.5-0.1,0.7-0.2c0.2-0.1,0.4-0.2,0.5-0.4c0.1-0.1,0.2-0.3,0.3-0.5c0.1-0.2,0.1-0.3,0.2-0.5v-2
			c-0.6,0-1.1,0.1-1.5,0.1c-0.4,0.1-0.7,0.2-0.9,0.3c-0.2,0.2-0.4,0.3-0.5,0.6c-0.1,0.2-0.1,0.5-0.1,0.9c0,0.5,0.1,0.9,0.4,1.2
			C217.6,218,218,218.1,218.4,218.1z"/>
		<path fill="#272660" d="M239.2,217.9c-0.1,0.3-0.2,0.5-0.5,0.7c-0.2,0.2-0.5,0.4-0.8,0.6c-0.3,0.2-0.6,0.3-1,0.4
			c-0.4,0.1-0.8,0.1-1.2,0.1c-0.9,0-1.6-0.1-2.3-0.4c-0.6-0.2-1.2-0.6-1.6-1.1s-0.7-1-0.9-1.7c-0.2-0.6-0.3-1.4-0.3-2.2
			c0-1.7,0.5-3,1.4-3.9s2.2-1.4,4-1.4c0.7,0,1.3,0.1,1.8,0.2c0.5,0.1,1,0.3,1.4,0.5c0,0.2-0.1,0.5-0.1,0.8s-0.1,0.5-0.2,0.8
			s-0.1,0.5-0.2,0.8s-0.2,0.5-0.2,0.7h-1l-0.8-2.4c-0.1-0.1-0.2-0.1-0.3-0.2s-0.3,0-0.5,0c-0.3,0-0.6,0.1-0.9,0.2s-0.5,0.3-0.7,0.7
			s-0.3,0.7-0.4,1.2s-0.1,1.1-0.1,1.9c0,0.5,0.1,1.1,0.2,1.5s0.3,0.9,0.6,1.2c0.2,0.3,0.6,0.6,0.9,0.8c0.4,0.2,0.8,0.3,1.3,0.3
			s0.9-0.1,1.2-0.2c0.3-0.1,0.6-0.3,0.9-0.5L239.2,217.9z"/>
		<path fill="#272660" d="M249.2,216.6c0,0.3,0,0.5,0,0.8c0,0.2,0,0.4,0,0.7l1.4,0.2v0.7c-0.2,0.1-0.4,0.2-0.7,0.2
			c-0.3,0.1-0.6,0.2-0.9,0.2s-0.6,0.1-0.9,0.2c-0.3,0-0.6,0.1-0.8,0.1h-0.7c-0.1-0.3-0.2-0.6-0.2-0.9c0-0.3,0-0.7-0.1-1.1h-0.1
			c-0.1,0.3-0.2,0.5-0.3,0.8c-0.2,0.2-0.4,0.5-0.6,0.7s-0.5,0.4-0.9,0.5c-0.3,0.1-0.7,0.2-1.1,0.2s-0.8-0.1-1.2-0.2s-0.7-0.3-1-0.6
			c-0.3-0.2-0.5-0.5-0.7-0.9s-0.2-0.7-0.2-1.2c0-0.6,0.1-1.1,0.3-1.5c0.2-0.4,0.6-0.7,1.1-1c0.5-0.2,1.1-0.4,1.9-0.6
			s1.7-0.2,2.8-0.3c0.1-1.1,0.1-2-0.1-2.5s-0.6-0.8-1.3-0.8c-0.4,0-0.8,0.1-1.1,0.2l-0.9,2.4H242c-0.1-0.2-0.2-0.3-0.3-0.6
			c-0.1-0.2-0.2-0.4-0.3-0.7c-0.1-0.2-0.2-0.5-0.2-0.7c-0.1-0.2-0.1-0.5-0.1-0.7c0.5-0.3,1.2-0.6,2-0.8s1.7-0.3,2.5-0.3
			s1.4,0.1,1.9,0.3s0.9,0.4,1.1,0.7c0.3,0.3,0.5,0.6,0.6,1s0.2,0.8,0.2,1.2c0,0.8,0,1.5,0,2.2C249.2,215.2,249.2,215.9,249.2,216.6z
			 M244.7,218.1c0.3,0,0.5-0.1,0.7-0.2c0.2-0.1,0.4-0.2,0.5-0.4c0.1-0.1,0.2-0.3,0.3-0.5s0.1-0.3,0.2-0.5v-2c-0.6,0-1.1,0.1-1.5,0.1
			c-0.4,0.1-0.7,0.2-0.9,0.3c-0.2,0.2-0.4,0.3-0.5,0.6c-0.1,0.2-0.1,0.5-0.1,0.9c0,0.5,0.1,0.9,0.4,1.2
			C243.9,218,244.3,218.1,244.7,218.1z"/>
		<path fill="#272660" d="M256.8,211.8c-0.2,0.1-0.3,0.2-0.6,0.4c-0.2,0.2-0.4,0.5-0.6,0.9v5.1c0.3,0,0.5,0.1,0.8,0.2
			c0.3,0.1,0.5,0.2,0.8,0.3v0.8h-5.8v-0.8c0.2-0.1,0.5-0.2,0.7-0.3s0.4-0.1,0.6-0.2v-7.4l-1.3-0.2v-0.8c0.2-0.1,0.5-0.2,0.8-0.3
			s0.6-0.2,1-0.2s0.7-0.1,1-0.2c0.3,0,0.6-0.1,0.8-0.1h0.7v2.7h0.1c0.1-0.3,0.3-0.6,0.5-0.9c0.2-0.3,0.5-0.6,0.7-0.9
			c0.3-0.3,0.6-0.5,0.9-0.6c0.3-0.2,0.7-0.2,1-0.2c0.1,0.2,0.3,0.5,0.4,0.8s0.2,0.7,0.3,1v0.8h-2.8V211.8z"/>
		<path fill="#272660" d="M265.2,210c0.5-0.3,1-0.6,1.6-0.7v-1.6c0.1-0.1,0.2-0.2,0.4-0.2c0.2-0.1,0.4-0.1,0.6-0.2
			c0.2-0.1,0.4-0.1,0.7-0.2c0.2-0.1,0.4-0.1,0.5-0.1h0.7v2.5h2.6v1.3h-2.6v5.2c0,0.8,0.1,1.4,0.3,1.7c0.2,0.3,0.6,0.5,1,0.5
			c0.2,0,0.5,0,0.8-0.1c0.3,0,0.6-0.1,0.8-0.2l0.1,0.7c-0.1,0.1-0.3,0.2-0.5,0.4c-0.2,0.1-0.5,0.3-0.8,0.4s-0.6,0.2-1,0.3
			s-0.7,0.1-1.1,0.1c-0.9,0-1.5-0.2-1.9-0.7s-0.6-1.2-0.6-2.2v-6.1h-1.6V210z"/>
		<path fill="#272660" d="M273.6,214.5c0-0.8,0.1-1.5,0.4-2.2s0.6-1.2,1.1-1.7s1-0.8,1.7-1s1.4-0.4,2.2-0.4c0.9,0,1.7,0.1,2.4,0.4
			s1.2,0.6,1.7,1.1c0.4,0.5,0.8,1,1,1.7c0.2,0.6,0.3,1.4,0.3,2.1c0,0.8-0.1,1.5-0.4,2.2c-0.2,0.6-0.6,1.2-1.1,1.7s-1,0.8-1.7,1
			s-1.4,0.4-2.2,0.4c-0.9,0-1.7-0.1-2.4-0.4c-0.7-0.3-1.2-0.6-1.7-1.1s-0.8-1-1-1.7C273.7,215.9,273.6,215.2,273.6,214.5z
			 M276.7,214.5c0,0.6,0,1.2,0.1,1.7s0.2,0.9,0.4,1.3c0.2,0.3,0.4,0.6,0.8,0.8c0.3,0.2,0.7,0.3,1.2,0.3c0.3,0,0.6-0.1,0.8-0.2
			c0.2-0.1,0.4-0.4,0.6-0.7s0.3-0.7,0.4-1.2s0.1-1.1,0.1-1.9c0-0.6,0-1.2-0.1-1.7s-0.2-0.9-0.4-1.3c-0.2-0.4-0.4-0.6-0.7-0.8
			s-0.7-0.3-1.2-0.3c-0.3,0-0.6,0.1-0.9,0.2c-0.3,0.1-0.5,0.4-0.6,0.7c-0.2,0.3-0.3,0.7-0.4,1.2
			C276.8,213.1,276.7,213.7,276.7,214.5z"/>
		<path fill="#272660" d="M294.3,219.7l-3.1-9c-0.2-0.1-0.4-0.1-0.6-0.2s-0.4-0.2-0.5-0.3v-0.8h5.1v0.7c-0.2,0.1-0.4,0.2-0.6,0.3
			s-0.4,0.2-0.6,0.2l1.4,5.1l0.3,1.5l0,0l0.4-1.6l2.1-6.2l1-0.1l2.3,6.4l0.4,1.6l0,0l0.3-1.6l1.2-5.1c-0.1,0-0.3-0.1-0.5-0.2
			c-0.2-0.1-0.4-0.2-0.6-0.3v-0.8h3.9v0.8c-0.3,0.2-0.7,0.3-1.1,0.5l-2.8,8.8l-1.9,0.2l-1.7-5l-0.4-1.7h-0.1l-0.5,1.7l-1.6,4.7
			L294.3,219.7z"/>
		<path fill="#272660" d="M306.4,214.5c0-0.8,0.1-1.5,0.4-2.2s0.6-1.2,1.1-1.7s1-0.8,1.7-1s1.4-0.4,2.2-0.4c0.9,0,1.7,0.1,2.4,0.4
			c0.7,0.3,1.2,0.6,1.7,1.1c0.4,0.5,0.8,1,1,1.7c0.2,0.6,0.3,1.4,0.3,2.1c0,0.8-0.1,1.5-0.4,2.2c-0.2,0.6-0.6,1.2-1.1,1.7
			s-1,0.8-1.7,1s-1.4,0.4-2.2,0.4c-0.9,0-1.7-0.1-2.4-0.4c-0.7-0.3-1.2-0.6-1.7-1.1s-0.8-1-1-1.7S306.4,215.2,306.4,214.5z
			 M309.5,214.5c0,0.6,0,1.2,0.1,1.7s0.2,0.9,0.4,1.3c0.2,0.3,0.4,0.6,0.8,0.8c0.3,0.2,0.7,0.3,1.2,0.3c0.3,0,0.6-0.1,0.8-0.2
			c0.2-0.1,0.4-0.4,0.6-0.7s0.3-0.7,0.4-1.2s0.1-1.1,0.1-1.9c0-0.6,0-1.2-0.1-1.7s-0.2-0.9-0.4-1.3s-0.4-0.6-0.7-0.8
			c-0.3-0.2-0.7-0.3-1.2-0.3c-0.3,0-0.6,0.1-0.9,0.2c-0.3,0.1-0.5,0.4-0.6,0.7c-0.2,0.3-0.3,0.7-0.4,1.2
			C309.6,213.1,309.5,213.7,309.5,214.5z"/>
		<path fill="#272660" d="M323.5,211.8c-0.2,0.1-0.3,0.2-0.6,0.4c-0.2,0.2-0.4,0.5-0.6,0.9v5.1c0.3,0,0.5,0.1,0.8,0.2
			c0.3,0.1,0.5,0.2,0.8,0.3v0.8h-5.8v-0.8c0.2-0.1,0.5-0.2,0.7-0.3s0.4-0.1,0.6-0.2v-7.4l-1.3-0.2v-0.8c0.2-0.1,0.5-0.2,0.8-0.3
			s0.6-0.2,1-0.2s0.7-0.1,1-0.2c0.3,0,0.6-0.1,0.8-0.1h0.7v2.7h0.1c0.1-0.3,0.3-0.6,0.5-0.9c0.2-0.3,0.5-0.6,0.7-0.9
			c0.3-0.3,0.6-0.5,0.9-0.6c0.3-0.2,0.7-0.2,1-0.2c0.1,0.2,0.3,0.5,0.4,0.8s0.2,0.7,0.3,1v0.8h-2.8V211.8z"/>
		<path fill="#272660" d="M332.8,209.5h4.7v0.8c-0.3,0.1-0.5,0.2-0.7,0.3s-0.5,0.1-0.7,0.2c-0.2,0.3-0.4,0.5-0.7,0.8
			c-0.2,0.3-0.5,0.5-0.7,0.8c-0.2,0.2-0.5,0.5-0.7,0.7s-0.4,0.4-0.6,0.6c0.2,0.3,0.4,0.6,0.7,1c0.3,0.4,0.6,0.8,0.9,1.2
			s0.6,0.9,1,1.3c0.3,0.4,0.7,0.8,1,1.2l1,0.5v0.8h-3.4l-0.5-0.5c-0.3-0.4-0.6-0.8-0.8-1.2s-0.4-0.7-0.6-1s-0.4-0.7-0.5-1
			s-0.3-0.6-0.5-0.9l-0.7-0.2v3.5c0.2,0,0.4,0.1,0.6,0.2c0.2,0.1,0.4,0.2,0.6,0.3v0.8h-5.4v-0.8c0.4-0.2,0.9-0.4,1.3-0.5v-12.2
			l-1.5-0.2v-0.8c0.2-0.1,0.4-0.2,0.8-0.2c0.3-0.1,0.7-0.2,1-0.2c0.4-0.1,0.7-0.1,1.1-0.2c0.4-0.1,0.6-0.1,0.9-0.1h0.7v9.4h0.5
			c0.4-0.5,0.9-1,1.2-1.6c0.4-0.6,0.7-1.1,1-1.6c-0.2-0.1-0.3-0.1-0.5-0.2c-0.1-0.1-0.3-0.2-0.4-0.3L332.8,209.5L332.8,209.5z"/>
		<path fill="#231F20" d="M339.3,218.1c0-0.5,0.2-0.9,0.5-1.2s0.7-0.4,1.2-0.4s0.9,0.1,1.2,0.4c0.3,0.3,0.5,0.7,0.5,1.2
			s-0.2,0.9-0.5,1.2s-0.7,0.4-1.2,0.4s-0.9-0.1-1.2-0.4S339.3,218.6,339.3,218.1z"/>
	</g>
	<g>
		<rect x="66.7" y="250.9" fill="none" width="334.2" height="87.8"/>
		<path fill="#272660" d="M69.1,256.3h-0.7c-0.1-0.3-0.1-0.6-0.2-1s-0.1-0.8-0.2-1.2s-0.1-0.8-0.2-1.2s-0.1-0.7-0.1-0.9h9.4v0.9
			c-0.7,1.1-1.3,2.2-1.8,3.2s-0.9,2-1.2,3s-0.6,2.1-0.8,3.2c-0.2,1.1-0.4,2.4-0.6,3.7h-2.8c0.5-1.9,1.1-3.8,1.9-5.6s1.7-3.5,2.7-5.3
			l0.7-1l-1,0.1h-4.3L69.1,256.3z"/>
		<path fill="#272660" d="M88.8,261.7c0,0.7-0.1,1.3-0.4,1.9c-0.3,0.6-0.6,1-1.1,1.4s-1,0.7-1.6,0.9s-1.2,0.3-1.9,0.3
			c-0.8,0-1.6-0.1-2.2-0.4c-0.6-0.3-1.2-0.6-1.6-1.1s-0.8-1-1-1.7s-0.3-1.3-0.3-2.1c0-1.3,0.2-2.4,0.7-3.4c0.4-1,1-2,1.8-2.8
			s1.6-1.5,2.6-2s2.1-0.9,3.2-1.2l0.3,0.9c-0.7,0.2-1.4,0.5-2,0.9s-1.2,0.9-1.6,1.4s-0.9,1.2-1.2,1.9c-0.3,0.7-0.5,1.5-0.6,2.3
			c0.1-0.2,0.2-0.3,0.4-0.5c0.2-0.2,0.4-0.3,0.6-0.5c0.2-0.1,0.5-0.3,0.8-0.3c0.3-0.1,0.7-0.1,1.1-0.1c0.5,0,1.1,0.1,1.5,0.3
			s0.9,0.4,1.2,0.8c0.3,0.3,0.6,0.8,0.8,1.3C88.7,260.4,88.8,261,88.8,261.7z M85.8,261.9c0-2-0.7-3-2-3c-0.5,0-0.8,0.1-1.2,0.4
			c-0.3,0.2-0.6,0.5-0.7,0.8c0,0.2-0.1,0.4-0.1,0.7c0,0.2,0,0.5,0,0.7c0,0.5,0,0.9,0.1,1.3s0.2,0.8,0.4,1.1s0.4,0.6,0.7,0.8
			c0.3,0.2,0.6,0.3,1,0.3c0.3,0,0.6-0.1,0.8-0.3s0.4-0.4,0.6-0.7c0.1-0.3,0.2-0.6,0.3-1C85.8,262.7,85.8,262.3,85.8,261.9z"/>
		<path fill="#272660" d="M90.2,255.1c0-0.5,0.1-1,0.3-1.4c0.2-0.4,0.5-0.8,0.8-1.1s0.7-0.5,1.2-0.7s1-0.2,1.6-0.2s1.1,0.1,1.6,0.2
			c0.5,0.1,0.9,0.4,1.2,0.6c0.3,0.3,0.6,0.6,0.8,1.1c0.2,0.4,0.3,0.9,0.3,1.5c0,0.5-0.1,1-0.3,1.4c-0.2,0.4-0.4,0.8-0.8,1.1
			c-0.3,0.3-0.7,0.5-1.2,0.7s-1,0.2-1.6,0.2s-1.1-0.1-1.6-0.2c-0.5-0.1-0.9-0.4-1.2-0.6c-0.3-0.3-0.6-0.6-0.8-1.1
			C90.3,256.2,90.2,255.7,90.2,255.1z M103.3,251.6l1,0.8l-11.7,13.8l-0.9-0.9L103.3,251.6z M92.7,255.1c0,1.6,0.5,2.4,1.4,2.4
			c0.5,0,0.8-0.2,1.1-0.5c0.2-0.4,0.4-1,0.4-1.9s-0.1-1.5-0.4-1.9c-0.2-0.4-0.6-0.5-1.1-0.5s-0.9,0.2-1.1,0.5
			C92.8,253.6,92.7,254.2,92.7,255.1z M97.9,262.8c0-0.5,0.1-1,0.3-1.4s0.5-0.8,0.8-1.1s0.7-0.5,1.2-0.7s1-0.2,1.6-0.2
			s1.1,0.1,1.6,0.2c0.5,0.1,0.9,0.4,1.2,0.6c0.3,0.3,0.6,0.6,0.8,1.1c0.2,0.4,0.3,0.9,0.3,1.5c0,0.5-0.1,1-0.3,1.4s-0.4,0.8-0.8,1.1
			c-0.3,0.3-0.7,0.5-1.2,0.7s-1,0.2-1.6,0.2s-1.1-0.1-1.6-0.2c-0.5-0.1-0.9-0.4-1.2-0.6c-0.3-0.3-0.6-0.6-0.8-1.1
			C98,263.9,97.9,263.4,97.9,262.8z M100.3,262.8c0,1.6,0.5,2.4,1.4,2.4c0.5,0,0.8-0.2,1.1-0.5c0.2-0.4,0.4-1,0.4-1.9
			s-0.1-1.5-0.4-1.9c-0.2-0.4-0.6-0.5-1.1-0.5s-0.9,0.2-1.1,0.5C100.4,261.3,100.3,261.9,100.3,262.8z"/>
		<path fill="#272660" d="M112.4,261c0-0.8,0.1-1.5,0.4-2.2s0.6-1.2,1.1-1.7s1-0.8,1.7-1s1.4-0.4,2.2-0.4c0.9,0,1.7,0.1,2.4,0.4
			c0.7,0.3,1.2,0.6,1.7,1.1c0.4,0.5,0.8,1,1,1.7c0.2,0.6,0.3,1.4,0.3,2.1c0,0.8-0.1,1.5-0.4,2.2c-0.2,0.6-0.6,1.2-1.1,1.7
			s-1,0.8-1.7,1s-1.4,0.4-2.2,0.4c-0.9,0-1.7-0.1-2.4-0.4c-0.7-0.3-1.2-0.6-1.7-1.1s-0.8-1-1-1.7S112.4,261.7,112.4,261z M115.6,261
			c0,0.6,0,1.2,0.1,1.7s0.2,0.9,0.4,1.3c0.2,0.3,0.4,0.6,0.8,0.8c0.3,0.2,0.7,0.3,1.2,0.3c0.3,0,0.6-0.1,0.8-0.2
			c0.2-0.1,0.4-0.4,0.6-0.7s0.3-0.7,0.4-1.2s0.1-1.1,0.1-1.9c0-0.6,0-1.2-0.1-1.7s-0.2-0.9-0.4-1.3c-0.2-0.4-0.4-0.6-0.7-0.8
			s-0.7-0.3-1.2-0.3c-0.3,0-0.6,0.1-0.9,0.2c-0.3,0.1-0.5,0.4-0.6,0.7c-0.2,0.3-0.3,0.7-0.4,1.2C115.6,259.6,115.6,260.2,115.6,261z
			"/>
		<path fill="#272660" d="M130.2,250.9c0.5,0,1,0,1.5,0.2c0.4,0.1,0.8,0.2,1,0.3c0,0.4-0.1,0.9-0.3,1.4c-0.1,0.5-0.3,0.9-0.4,1.2
			h-0.7l-0.9-1.9c-0.3,0-0.6,0-0.9,0.1c-0.2,0.1-0.4,0.2-0.6,0.4c-0.1,0.2-0.2,0.5-0.3,0.9c-0.1,0.4-0.1,0.9-0.1,1.5v1h2.1v1.3h-2.1
			v7.5c0.7,0.1,1.3,0.2,1.9,0.5v0.8h-6.1v-0.9c0.4-0.2,0.9-0.4,1.3-0.5v-7.5h-1.5v-0.8c0.5-0.3,1-0.5,1.5-0.7V255
			c0-0.8,0.1-1.5,0.4-2.1c0.2-0.5,0.6-1,1-1.3s0.9-0.5,1.4-0.7C129,251,129.6,250.9,130.2,250.9z"/>
		<path fill="#272660" d="M136.8,256.4c0.5-0.3,1-0.6,1.6-0.7v-1.6c0.1-0.1,0.2-0.2,0.4-0.2c0.2-0.1,0.4-0.1,0.6-0.2
			c0.2-0.1,0.4-0.1,0.7-0.2c0.2-0.1,0.4-0.1,0.5-0.1h0.7v2.5h2.6v1.3h-2.6v5.2c0,0.8,0.1,1.4,0.3,1.7c0.2,0.3,0.6,0.5,1,0.5
			c0.2,0,0.5,0,0.8-0.1c0.3,0,0.6-0.1,0.8-0.2l0.1,0.7c-0.1,0.1-0.3,0.2-0.5,0.4c-0.2,0.1-0.5,0.3-0.8,0.4s-0.6,0.2-1,0.3
			s-0.7,0.1-1.1,0.1c-0.9,0-1.5-0.2-1.9-0.7s-0.6-1.2-0.6-2.2v-6.1h-1.6V256.4z"/>
		<path fill="#272660" d="M157.2,266h-5.3v-0.8c0.2-0.1,0.3-0.2,0.5-0.3s0.4-0.2,0.6-0.2v-4.1c0-1.2-0.1-2-0.3-2.5s-0.7-0.8-1.3-0.8
			c-0.5,0-1,0.2-1.4,0.6c-0.4,0.4-0.6,0.8-0.8,1.3v5.6c0.2,0.1,0.4,0.1,0.6,0.2s0.3,0.2,0.5,0.3v0.8h-5.3v-0.9
			c0.4-0.2,0.9-0.4,1.3-0.5v-12.2l-1.5-0.2v-0.8c0.2-0.1,0.5-0.2,0.8-0.2c0.3-0.1,0.6-0.2,1-0.2c0.3-0.1,0.7-0.1,1-0.2
			c0.3-0.1,0.7-0.1,0.9-0.1h0.7v7.1l0,0c0.1-0.3,0.3-0.6,0.5-0.9c0.2-0.3,0.5-0.5,0.8-0.7s0.6-0.4,0.9-0.5s0.7-0.2,1.1-0.2
			c0.5,0,1,0.1,1.4,0.2c0.4,0.1,0.8,0.4,1.1,0.7c0.3,0.3,0.5,0.8,0.6,1.3s0.2,1.2,0.2,2.1v4.8c0.2,0.1,0.5,0.1,0.7,0.2
			c0.2,0.1,0.4,0.2,0.6,0.3v0.8L157.2,266L157.2,266z"/>
		<path fill="#272660" d="M167.2,264.3c-0.1,0.2-0.3,0.5-0.5,0.7s-0.5,0.4-0.9,0.6s-0.7,0.3-1.2,0.4c-0.4,0.1-0.9,0.2-1.5,0.2
			c-0.8,0-1.6-0.1-2.2-0.4c-0.6-0.2-1.2-0.6-1.6-1.1s-0.8-1-1-1.7s-0.3-1.4-0.3-2.2c0-1.7,0.4-3,1.3-3.9s2.1-1.3,3.7-1.3
			c0.7,0,1.3,0.1,1.9,0.3s1.1,0.5,1.5,0.9s0.7,1,0.8,1.7c0.2,0.7,0.1,1.5,0,2.5H161c0,1.1,0.3,1.9,0.8,2.5s1.3,0.9,2.3,0.9
			c0.4,0,0.9-0.1,1.4-0.2c0.5-0.1,0.8-0.3,1.1-0.5L167.2,264.3z M163,256.9c-0.3,0-0.5,0-0.7,0.1s-0.4,0.3-0.5,0.5s-0.3,0.6-0.4,1
			s-0.2,1-0.2,1.6h3.2c0.1-1,0-1.8-0.2-2.4C164,257.1,163.6,256.9,163,256.9z"/>
		<path fill="#272660" d="M174,263.8c0-0.3-0.1-0.6-0.4-0.9c-0.2-0.3-0.6-0.5-0.9-0.7c-0.4-0.2-0.8-0.4-1.2-0.6
			c-0.4-0.2-0.8-0.5-1.2-0.8c-0.4-0.3-0.7-0.6-0.9-1c-0.2-0.4-0.4-0.9-0.4-1.4c0-0.4,0.1-0.8,0.3-1.1s0.4-0.6,0.8-0.8
			c0.3-0.2,0.7-0.4,1.2-0.5c0.4-0.1,0.9-0.2,1.5-0.2c0.7,0,1.4,0.1,2,0.2c0.6,0.1,1.2,0.3,1.6,0.5c-0.1,0.4-0.2,0.9-0.3,1.4
			c-0.1,0.5-0.3,0.9-0.5,1.3h-0.7l-0.8-2c-0.2-0.1-0.3-0.1-0.5-0.1s-0.4,0-0.6,0c-0.4,0-0.7,0.1-0.9,0.4c-0.2,0.2-0.3,0.5-0.3,0.8
			s0.1,0.6,0.4,0.9c0.2,0.2,0.6,0.5,0.9,0.7c0.4,0.2,0.8,0.4,1.2,0.6c0.4,0.2,0.8,0.5,1.2,0.7c0.4,0.3,0.7,0.6,0.9,1
			s0.4,0.8,0.4,1.3c0,0.9-0.4,1.6-1.1,2.2c-0.7,0.5-1.8,0.8-3,0.8c-0.6,0-1.3-0.1-2-0.2s-1.3-0.3-1.8-0.6c0-0.5,0.1-1,0.3-1.5
			s0.4-0.9,0.6-1.3h0.7l1,2.2c0.1,0.1,0.3,0.2,0.5,0.2s0.4,0,0.5,0c0.4,0,0.7-0.1,1.1-0.3C173.8,264.5,174,264.2,174,263.8z"/>
		<path fill="#272660" d="M187,264.3c-0.1,0.2-0.3,0.5-0.5,0.7s-0.5,0.4-0.9,0.6c-0.4,0.2-0.7,0.3-1.2,0.4c-0.4,0.1-0.9,0.2-1.5,0.2
			c-0.8,0-1.6-0.1-2.2-0.4c-0.6-0.2-1.2-0.6-1.6-1.1s-0.8-1-1-1.7s-0.3-1.4-0.3-2.2c0-1.7,0.4-3,1.3-3.9s2.1-1.3,3.7-1.3
			c0.7,0,1.3,0.1,1.9,0.3s1.1,0.5,1.5,0.9s0.7,1,0.8,1.7c0.2,0.7,0.1,1.5,0,2.5h-6.2c0,1.1,0.3,1.9,0.8,2.5s1.3,0.9,2.3,0.9
			c0.4,0,0.9-0.1,1.4-0.2c0.5-0.1,0.8-0.3,1.1-0.5L187,264.3z M182.9,256.9c-0.3,0-0.5,0-0.7,0.1s-0.4,0.3-0.5,0.5s-0.3,0.6-0.4,1
			s-0.2,1-0.2,1.6h3.2c0.1-1,0-1.8-0.2-2.4C183.9,257.1,183.5,256.9,182.9,256.9z"/>
		<path fill="#272660" d="M199.4,270h-5.5v-0.8c0.5-0.2,0.9-0.4,1.3-0.5v-11.4l-1.3-0.2v-0.8c0.2-0.1,0.5-0.2,0.8-0.3s0.6-0.2,1-0.2
			s0.7-0.1,1-0.2c0.3,0,0.6-0.1,0.8-0.1h0.7v2.2l0,0c0.2-0.6,0.6-1.2,1.1-1.6c0.5-0.4,1.2-0.6,2-0.6c0.6,0,1.1,0.1,1.6,0.3
			s0.9,0.5,1.2,0.9c0.3,0.4,0.6,0.9,0.8,1.6c0.2,0.6,0.3,1.4,0.3,2.3c0,0.8-0.1,1.6-0.4,2.3c-0.2,0.7-0.6,1.3-1,1.7
			c-0.4,0.5-1,0.8-1.6,1.1s-1.3,0.4-2.1,0.4c-0.5,0-0.8,0-1.1-0.1c-0.3-0.1-0.5-0.2-0.8-0.3v2.9c0.2,0,0.4,0.1,0.6,0.2
			c0.2,0.1,0.4,0.2,0.7,0.3L199.4,270L199.4,270L199.4,270z M200,257.3c-0.5,0-0.9,0.2-1.2,0.5c-0.4,0.3-0.6,0.8-0.8,1.5v5.3
			c0.2,0.2,0.4,0.3,0.7,0.4c0.2,0.1,0.6,0.1,0.9,0.1c0.8,0,1.3-0.4,1.7-1.1c0.4-0.7,0.5-1.8,0.5-3.2c0-1.1-0.1-1.9-0.4-2.5
			C201.2,257.6,200.8,257.3,200,257.3z"/>
		<path fill="#272660" d="M215.4,264.3c-0.1,0.2-0.3,0.5-0.5,0.7s-0.5,0.4-0.9,0.6c-0.4,0.2-0.7,0.3-1.2,0.4
			c-0.4,0.1-0.9,0.2-1.5,0.2c-0.8,0-1.6-0.1-2.2-0.4c-0.6-0.2-1.2-0.6-1.6-1.1s-0.8-1-1-1.7s-0.3-1.4-0.3-2.2c0-1.7,0.4-3,1.3-3.9
			s2.1-1.3,3.7-1.3c0.7,0,1.3,0.1,1.9,0.3s1.1,0.5,1.5,0.9s0.7,1,0.8,1.7c0.2,0.7,0.1,1.5,0,2.5h-6.2c0,1.1,0.3,1.9,0.8,2.5
			s1.3,0.9,2.3,0.9c0.4,0,0.9-0.1,1.4-0.2c0.5-0.1,0.8-0.3,1.1-0.5L215.4,264.3z M211.3,256.9c-0.3,0-0.5,0-0.7,0.1
			s-0.4,0.3-0.5,0.5s-0.3,0.6-0.4,1s-0.2,1-0.2,1.6h3.2c0.1-1,0-1.8-0.2-2.4C212.3,257.1,211.9,256.9,211.3,256.9z"/>
		<path fill="#272660" d="M217.1,261c0-0.8,0.1-1.5,0.4-2.2s0.6-1.2,1.1-1.7s1-0.8,1.7-1s1.4-0.4,2.2-0.4c0.9,0,1.7,0.1,2.4,0.4
			s1.2,0.6,1.7,1.1c0.4,0.5,0.8,1,1,1.7c0.2,0.6,0.3,1.4,0.3,2.1c0,0.8-0.1,1.5-0.4,2.2c-0.2,0.6-0.6,1.2-1.1,1.7s-1,0.8-1.7,1
			s-1.4,0.4-2.2,0.4c-0.9,0-1.7-0.1-2.4-0.4c-0.7-0.3-1.2-0.6-1.7-1.1s-0.8-1-1-1.7C217.2,262.4,217.1,261.7,217.1,261z M220.2,261
			c0,0.6,0,1.2,0.1,1.7s0.2,0.9,0.4,1.3c0.2,0.3,0.4,0.6,0.8,0.8c0.3,0.2,0.7,0.3,1.2,0.3c0.3,0,0.6-0.1,0.8-0.2
			c0.2-0.1,0.4-0.4,0.6-0.7s0.3-0.7,0.4-1.2s0.1-1.1,0.1-1.9c0-0.6,0-1.2-0.1-1.7s-0.2-0.9-0.4-1.3c-0.2-0.4-0.4-0.6-0.7-0.8
			s-0.7-0.3-1.2-0.3c-0.3,0-0.6,0.1-0.9,0.2c-0.3,0.1-0.5,0.4-0.6,0.7c-0.2,0.3-0.3,0.7-0.4,1.2C220.2,259.6,220.2,260.2,220.2,261z
			"/>
		<path fill="#272660" d="M234.3,270h-5.5v-0.8c0.5-0.2,0.9-0.4,1.3-0.5v-11.4l-1.3-0.2v-0.8c0.2-0.1,0.5-0.2,0.8-0.3s0.6-0.2,1-0.2
			s0.7-0.1,1-0.2c0.3,0,0.6-0.1,0.8-0.1h0.7v2.2l0,0c0.2-0.6,0.6-1.2,1.1-1.6c0.5-0.4,1.2-0.6,2-0.6c0.6,0,1.1,0.1,1.6,0.3
			s0.9,0.5,1.2,0.9s0.6,0.9,0.8,1.6c0.2,0.6,0.3,1.4,0.3,2.3c0,0.8-0.1,1.6-0.4,2.3c-0.2,0.7-0.6,1.3-1,1.7c-0.4,0.5-1,0.8-1.6,1.1
			s-1.3,0.4-2.1,0.4c-0.5,0-0.8,0-1.1-0.1s-0.5-0.2-0.8-0.3v2.9c0.2,0,0.4,0.1,0.6,0.2c0.2,0.1,0.4,0.2,0.7,0.3L234.3,270L234.3,270
			z M234.9,257.3c-0.5,0-0.9,0.2-1.2,0.5c-0.4,0.3-0.6,0.8-0.8,1.5v5.3c0.2,0.2,0.4,0.3,0.7,0.4c0.2,0.1,0.6,0.1,0.9,0.1
			c0.8,0,1.3-0.4,1.7-1.1c0.4-0.7,0.5-1.8,0.5-3.2c0-1.1-0.1-1.9-0.4-2.5C236.1,257.6,235.6,257.3,234.9,257.3z"/>
		<path fill="#272660" d="M246.7,266h-5.5v-0.8c0.4-0.2,0.9-0.4,1.3-0.5v-12.2l-1.5-0.2v-0.8c0.2-0.1,0.4-0.2,0.7-0.2s0.6-0.2,1-0.2
			c0.4-0.1,0.7-0.1,1.1-0.2c0.4,0,0.7-0.1,1-0.1h0.7v13.8c0.4,0.1,0.9,0.3,1.3,0.5L246.7,266L246.7,266z"/>
		<path fill="#272660" d="M257,264.3c-0.1,0.2-0.3,0.5-0.5,0.7s-0.5,0.4-0.9,0.6c-0.4,0.2-0.7,0.3-1.2,0.4c-0.4,0.1-0.9,0.2-1.5,0.2
			c-0.8,0-1.6-0.1-2.2-0.4c-0.6-0.2-1.2-0.6-1.6-1.1s-0.8-1-1-1.7s-0.3-1.4-0.3-2.2c0-1.7,0.4-3,1.3-3.9s2.1-1.3,3.7-1.3
			c0.7,0,1.3,0.1,1.9,0.3s1.1,0.5,1.5,0.9s0.7,1,0.8,1.7c0.2,0.7,0.1,1.5,0,2.5h-6.2c0,1.1,0.3,1.9,0.8,2.5s1.3,0.9,2.3,0.9
			c0.4,0,0.9-0.1,1.4-0.2c0.5-0.1,0.8-0.3,1.1-0.5L257,264.3z M252.8,256.9c-0.3,0-0.5,0-0.7,0.1s-0.4,0.3-0.5,0.5s-0.3,0.6-0.4,1
			s-0.2,1-0.2,1.6h3.2c0.1-1,0-1.8-0.2-2.4C253.8,257.1,253.4,256.9,252.8,256.9z"/>
		<path fill="#272660" d="M270.8,264c-0.1,0.3-0.2,0.6-0.4,0.8s-0.4,0.5-0.6,0.7s-0.5,0.4-0.8,0.5s-0.6,0.2-1,0.2
			c-1.3,0-2.3-0.4-3-1.3c-0.7-0.8-1-2.1-1-3.8c0-0.9,0.1-1.7,0.4-2.3c0.2-0.7,0.6-1.2,1-1.7s1-0.8,1.6-1s1.3-0.3,2-0.3
			c0.2,0,0.4,0,0.6,0s0.3,0,0.5,0.1c0.1,0,0.3,0.1,0.4,0.1s0.3,0.1,0.4,0.2v-3.5l-1.5-0.2v-0.8c0.2-0.1,0.4-0.2,0.8-0.2
			c0.3-0.1,0.7-0.1,1-0.2c0.4-0.1,0.7-0.1,1.1-0.2c0.3-0.1,0.6-0.1,0.9-0.1h0.7v13.7l1.3,0.2v0.7c-0.2,0.1-0.4,0.2-0.7,0.3
			c-0.3,0.1-0.6,0.2-0.9,0.2c-0.3,0.1-0.6,0.1-0.9,0.2s-0.6,0.1-0.8,0.1h-0.7L270.8,264L270.8,264z M269,264.6
			c0.5,0,0.9-0.1,1.2-0.4c0.3-0.3,0.6-0.8,0.7-1.5v-5.4c-0.2-0.1-0.4-0.2-0.7-0.3s-0.6-0.1-1-0.1c-0.8,0-1.3,0.4-1.7,1.1
			c-0.3,0.7-0.5,1.7-0.5,3.1c0,1.1,0.1,2,0.4,2.6S268.3,264.6,269,264.6z"/>
		<path fill="#272660" d="M281.2,258.3c-0.2,0.1-0.3,0.2-0.6,0.4c-0.2,0.2-0.4,0.5-0.6,0.9v5.1c0.3,0,0.5,0.1,0.8,0.2
			c0.3,0.1,0.5,0.2,0.8,0.3v0.8h-5.8v-0.8c0.2-0.1,0.5-0.2,0.7-0.3s0.4-0.1,0.6-0.2v-7.4l-1.3-0.2v-0.8c0.2-0.1,0.5-0.2,0.8-0.3
			s0.6-0.2,1-0.2s0.7-0.1,1-0.2c0.3,0,0.6-0.1,0.8-0.1h0.7v2.7h0.1c0.1-0.3,0.3-0.6,0.5-0.9c0.2-0.3,0.5-0.6,0.7-0.9
			c0.3-0.3,0.6-0.5,0.9-0.6c0.3-0.2,0.7-0.2,1-0.2c0.1,0.2,0.3,0.5,0.4,0.8s0.2,0.7,0.3,1v0.8h-2.8V258.3z"/>
		<path fill="#272660" d="M290.2,266h-5.5v-0.8c0.2-0.1,0.4-0.2,0.6-0.3s0.4-0.1,0.7-0.2v-7.4l-1.3-0.2v-0.8
			c0.2-0.1,0.5-0.2,0.8-0.2s0.6-0.2,1-0.2c0.3-0.1,0.7-0.1,1-0.2c0.3,0,0.6-0.1,0.8-0.1h0.7v9c0.3,0.1,0.5,0.1,0.7,0.2
			c0.2,0.1,0.4,0.2,0.6,0.3L290.2,266L290.2,266z M285.7,252.7c0-0.5,0.2-0.8,0.5-1.1s0.7-0.4,1.2-0.4s0.9,0.1,1.2,0.4
			c0.3,0.3,0.5,0.6,0.5,1.1s-0.2,0.8-0.5,1.1s-0.7,0.4-1.2,0.4s-0.9-0.1-1.2-0.4C285.8,253.5,285.7,253.1,285.7,252.7z"/>
		<path fill="#272660" d="M295.6,266.2l-4-9c-0.4-0.1-0.7-0.3-1.1-0.5v-0.8h5.3v0.7c-0.2,0.1-0.4,0.2-0.5,0.3
			c-0.2,0.1-0.4,0.2-0.6,0.2l1.9,5.1l0.4,1.3l0,0l0.3-1.4l1.7-5.1c-0.2-0.1-0.4-0.1-0.6-0.2c-0.2-0.1-0.4-0.2-0.5-0.3v-0.8h3.9v0.8
			c-0.1,0.1-0.3,0.2-0.5,0.3s-0.4,0.2-0.7,0.2l-3.5,8.8L295.6,266.2z"/>
		<path fill="#272660" d="M310.9,264.3c-0.1,0.2-0.3,0.5-0.5,0.7s-0.5,0.4-0.9,0.6c-0.4,0.2-0.7,0.3-1.2,0.4
			c-0.4,0.1-0.9,0.2-1.5,0.2c-0.8,0-1.6-0.1-2.2-0.4c-0.6-0.2-1.2-0.6-1.6-1.1s-0.8-1-1-1.7s-0.3-1.4-0.3-2.2c0-1.7,0.4-3,1.3-3.9
			s2.1-1.3,3.7-1.3c0.7,0,1.3,0.1,1.9,0.3s1.1,0.5,1.5,0.9s0.7,1,0.8,1.7c0.2,0.7,0.1,1.5,0,2.5h-6.2c0,1.1,0.3,1.9,0.8,2.5
			s1.3,0.9,2.3,0.9c0.4,0,0.9-0.1,1.4-0.2c0.5-0.1,0.8-0.3,1.1-0.5L310.9,264.3z M306.8,256.9c-0.3,0-0.5,0-0.7,0.1
			s-0.4,0.3-0.5,0.5s-0.3,0.6-0.4,1s-0.2,1-0.2,1.6h3.2c0.1-1,0-1.8-0.2-2.4C307.8,257.1,307.4,256.9,306.8,256.9z"/>
		<path fill="#272660" d="M326.8,263.1c0,0.3,0,0.5,0,0.8c0,0.2,0,0.4,0,0.7l1.4,0.2v0.7c-0.2,0.1-0.4,0.2-0.7,0.2
			c-0.3,0.1-0.6,0.2-0.9,0.2s-0.6,0.1-0.9,0.2c-0.3,0-0.6,0.1-0.8,0.1h-0.7c-0.1-0.3-0.2-0.6-0.2-0.9c0-0.3,0-0.7-0.1-1.1h-0.1
			c-0.1,0.3-0.2,0.5-0.3,0.8c-0.2,0.2-0.4,0.5-0.6,0.7s-0.5,0.4-0.9,0.5c-0.3,0.1-0.7,0.2-1.1,0.2s-0.8-0.1-1.2-0.2s-0.7-0.3-1-0.6
			c-0.3-0.2-0.5-0.5-0.7-0.9s-0.2-0.7-0.2-1.2c0-0.6,0.1-1.1,0.3-1.5c0.2-0.4,0.6-0.7,1.1-1c0.5-0.2,1.1-0.4,1.9-0.6
			s1.7-0.2,2.8-0.3c0.1-1.1,0.1-2-0.1-2.5s-0.6-0.8-1.3-0.8c-0.4,0-0.8,0.1-1.1,0.2l-0.9,2.4h-0.9c-0.1-0.2-0.2-0.3-0.3-0.6
			c-0.1-0.2-0.2-0.4-0.3-0.7c-0.1-0.2-0.2-0.5-0.2-0.7c-0.1-0.2-0.1-0.5-0.1-0.7c0.5-0.3,1.2-0.6,2-0.8s1.7-0.3,2.5-0.3
			s1.4,0.1,1.9,0.3s0.9,0.4,1.1,0.7c0.3,0.3,0.5,0.6,0.6,1s0.2,0.8,0.2,1.2c0,0.8,0,1.5,0,2.2C326.8,261.7,326.8,262.4,326.8,263.1z
			 M322.3,264.6c0.3,0,0.5-0.1,0.7-0.2c0.2-0.1,0.4-0.2,0.5-0.4c0.1-0.1,0.2-0.3,0.3-0.5s0.1-0.3,0.2-0.5v-2c-0.6,0-1.1,0.1-1.5,0.1
			c-0.4,0.1-0.7,0.2-0.9,0.3c-0.2,0.2-0.4,0.3-0.5,0.6c-0.1,0.2-0.1,0.5-0.1,0.9c0,0.5,0.1,0.9,0.4,1.2
			C321.5,264.5,321.9,264.6,322.3,264.6z"/>
		<path fill="#272660" d="M334.7,266h-5.5v-0.8c0.4-0.2,0.9-0.4,1.3-0.5v-12.2l-1.5-0.2v-0.8c0.2-0.1,0.4-0.2,0.7-0.2s0.6-0.2,1-0.2
			c0.4-0.1,0.7-0.1,1.1-0.2c0.4,0,0.7-0.1,1-0.1h0.7v13.8c0.4,0.1,0.9,0.3,1.3,0.5L334.7,266L334.7,266z"/>
		<path fill="#272660" d="M335.8,261c0-0.8,0.1-1.5,0.4-2.2s0.6-1.2,1.1-1.7s1-0.8,1.7-1s1.4-0.4,2.2-0.4c0.9,0,1.7,0.1,2.4,0.4
			s1.2,0.6,1.7,1.1c0.4,0.5,0.8,1,1,1.7c0.2,0.6,0.3,1.4,0.3,2.1c0,0.8-0.1,1.5-0.4,2.2c-0.2,0.6-0.6,1.2-1.1,1.7s-1,0.8-1.7,1
			s-1.4,0.4-2.2,0.4c-0.9,0-1.7-0.1-2.4-0.4c-0.7-0.3-1.2-0.6-1.7-1.1s-0.8-1-1-1.7C335.9,262.4,335.8,261.7,335.8,261z M338.9,261
			c0,0.6,0,1.2,0.1,1.7s0.2,0.9,0.4,1.3c0.2,0.3,0.4,0.6,0.8,0.8c0.3,0.2,0.7,0.3,1.2,0.3c0.3,0,0.6-0.1,0.8-0.2
			c0.2-0.1,0.4-0.4,0.6-0.7s0.3-0.7,0.4-1.2s0.1-1.1,0.1-1.9c0-0.6,0-1.2-0.1-1.7s-0.2-0.9-0.4-1.3s-0.4-0.6-0.7-0.8
			c-0.3-0.2-0.7-0.3-1.2-0.3c-0.3,0-0.6,0.1-0.9,0.2c-0.3,0.1-0.5,0.4-0.6,0.7c-0.2,0.3-0.3,0.7-0.4,1.2
			C339,259.6,338.9,260.2,338.9,261z"/>
		<path fill="#272660" d="M359.8,266h-5.3v-0.8c0.2-0.1,0.3-0.2,0.5-0.3s0.4-0.2,0.6-0.2V260c0-0.8-0.1-1.5-0.4-2
			c-0.2-0.5-0.7-0.7-1.3-0.7c-0.5,0-0.9,0.2-1.3,0.5s-0.6,0.8-0.8,1.3v5.6c0.2,0.1,0.4,0.1,0.6,0.2c0.2,0.1,0.3,0.2,0.5,0.3v0.8
			h-5.3v-0.8c0.3-0.2,0.8-0.3,1.3-0.5v-7.4l-1.3-0.2v-0.8c0.2-0.1,0.4-0.2,0.7-0.2c0.3-0.1,0.6-0.1,0.9-0.2c0.3-0.1,0.7-0.1,1-0.2
			s0.7-0.1,0.9-0.1h0.7v2.1l0,0c0.3-0.6,0.7-1,1.3-1.5c0.6-0.4,1.2-0.6,2-0.6c0.5,0,1,0.1,1.4,0.2c0.4,0.1,0.8,0.4,1.1,0.7
			s0.5,0.8,0.7,1.3s0.2,1.2,0.2,2.1v4.8c0.5,0.1,1,0.3,1.3,0.5L359.8,266L359.8,266z"/>
		<path fill="#272660" d="M369.8,264.3c-0.1,0.2-0.3,0.5-0.5,0.7s-0.5,0.4-0.9,0.6s-0.7,0.3-1.2,0.4c-0.4,0.1-0.9,0.2-1.5,0.2
			c-0.8,0-1.6-0.1-2.2-0.4c-0.6-0.2-1.2-0.6-1.6-1.1s-0.8-1-1-1.7s-0.3-1.4-0.3-2.2c0-1.7,0.4-3,1.3-3.9s2.1-1.3,3.7-1.3
			c0.7,0,1.3,0.1,1.9,0.3s1.1,0.5,1.5,0.9s0.7,1,0.8,1.7c0.2,0.7,0.1,1.5,0,2.5h-6.2c0,1.1,0.3,1.9,0.8,2.5s1.3,0.9,2.3,0.9
			c0.4,0,0.9-0.1,1.4-0.2c0.5-0.1,0.8-0.3,1.1-0.5L369.8,264.3z M365.6,256.9c-0.3,0-0.5,0-0.7,0.1s-0.4,0.3-0.5,0.5s-0.3,0.6-0.4,1
			s-0.2,1-0.2,1.6h3.2c0.1-1,0-1.8-0.2-2.4C366.6,257.1,366.2,256.9,365.6,256.9z"/>
		<path fill="#272660" d="M372.1,264.5c0-0.5,0.2-0.9,0.5-1.2s0.7-0.4,1.2-0.4s0.9,0.1,1.2,0.4c0.3,0.3,0.5,0.7,0.5,1.2
			s-0.2,0.9-0.5,1.2s-0.7,0.4-1.2,0.4s-0.9-0.1-1.2-0.4S372.1,265,372.1,264.5z"/>
	</g>
	<path fill="#659F9C" d="M192.8,98.6h-14.4V75.1c0-9.5-7.8-17.3-17.3-17.3H89.6c-9.5,0-17.3,7.8-17.3,17.3v22.5H62.2
		c-9.5,0-17.3,7.8-17.3,17.3v1.9c0,9.5,7.8,17.3,17.3,17.3h13.5c0-0.2,0-0.5,0-0.7c0-8.1,7.1-14.6,15.8-14.6
		c8.7,0,15.8,6.5,15.8,14.6c0,0.6,0,1.1-0.1,1.7h44.8c-0.1-0.5-0.1-1-0.1-1.4c0-8.1,7.1-14.6,15.8-14.6s15.8,6.5,15.8,14.6
		c0,0.5,0,1-0.1,1.4h9.2c9.5,0,17.3-7.8,17.3-17.3v-1.9C210.1,106.3,202.3,98.6,192.8,98.6z"/>
	<path fill="#DFB541" d="M170,118.8h-11.7V99.7c0-7.7-6.3-14-14-14H86.2c-7.7,0-14,6.3-14,14V118H64c-7.7,0-14,6.3-14,14v1.6
		c0,7.7,6.3,14,14,14h11c0-0.2,0-0.4,0-0.6c0-6.6,5.8-11.9,12.9-11.9s12.9,5.3,12.9,11.9c0,0.5,0,0.9-0.1,1.4h36.4
		c0-0.4-0.1-0.8-0.1-1.2c0-6.6,5.8-11.9,12.9-11.9s12.9,5.3,12.9,11.9c0,0.4,0,0.8-0.1,1.2h7.5c7.7,0,14-6.3,14-14v-1.6
		C184,125.2,177.7,118.8,170,118.8z"/>
	<rect x="27.5" y="180.1" fill="#659F9C" width="33.9" height="32.3"/>
	<rect x="27.5" y="249.4" fill="#DFB541" width="33.9" height="32.3"/>
</g>
</svg>
