<?xml version="1.0" encoding="utf-8"?>
<!-- Generator: Adobe Illustrator 19.2.1, SVG Export Plug-In . SVG Version: 6.00 Build 0)  -->
<svg version="1.1" id="Layer_1" xmlns="http://www.w3.org/2000/svg" xmlns:xlink="http://www.w3.org/1999/xlink" x="0px" y="0px"
	 width="864px" height="360px" viewBox="0 0 864 360" style="enable-background:new 0 0 864 360;" xml:space="preserve">
<style type="text/css">
	.st0{opacity:0.58;fill:#A8CED7;enable-background:new    ;}
	.st1{fill:#828182;}
	.st2{fill:none;}
	.st3{fill:none;stroke:#DFB541;stroke-width:2.3339;stroke-miterlimit:10;}
	.st4{fill:none;stroke:#DFB541;stroke-width:2.3339;stroke-miterlimit:10;stroke-dasharray:13.1549,13.1549;}
	.st5{fill:#5A5A5D;}
	.st6{fill:#272660;}
	.st7{fill:#DDC659;}
	.st8{fill:none;stroke:#FFFFFF;stroke-miterlimit:10;}
	.st9{fill:#FFFFFF;}
	.st10{fill:#DE573D;}
	.st11{fill:#659F9C;}
	.st12{fill:#A8CED7;}
</style>
<rect x="1" class="st0" width="863" height="227.7"/>
<path class="st1" d="M853.4,291.4l-821.9,1.7l0,0c0,0,0,0-0.1,0h-0.1h-0.1c-0.1,0-0.1,0-0.2,0s-0.1,0-0.2,0v53.5l823.2,0.6
	L853.4,291.4z"/>
<g>
	<line class="st2" x1="63.2" y1="320.2" x2="852.4" y2="319.4"/>
	<g>
		<line class="st3" x1="63.2" y1="320.2" x2="69.7" y2="320.2"/>
		<line class="st4" x1="82.9" y1="320.2" x2="839.3" y2="319.4"/>
		<line class="st3" x1="845.9" y1="319.4" x2="852.4" y2="319.4"/>
	</g>
</g>
<rect x="677.9" y="190.7" class="st5" width="8" height="37"/>
<g>
	<rect x="31.1" y="245.9" class="st2" width="628.7" height="26.4"/>
	<path class="st6" d="M40.7,260.2h-6.5v-0.7c0.3-0.1,0.5-0.2,0.9-0.3c0.3-0.1,0.6-0.2,1-0.2v-10.8h-2.2l-1.2,3.2h-0.8
		c-0.1-0.3-0.1-0.6-0.2-1s-0.1-0.8-0.1-1.2s-0.1-0.8-0.1-1.2s0-0.8,0-1.1h12.1c0,0.3,0,0.7,0,1.1s-0.1,0.8-0.1,1.2s-0.1,0.8-0.1,1.2
		c-0.1,0.4-0.1,0.7-0.2,1h-0.8l-1.2-3.2H39V259c0.3,0.1,0.7,0.1,1,0.2s0.6,0.2,0.9,0.3v0.7H40.7z"/>
	<path class="st6" d="M55.8,260.2h-5v-0.7c0.2-0.1,0.3-0.2,0.5-0.2c0.2-0.1,0.4-0.1,0.6-0.2v-3.8c0-1.1-0.1-1.9-0.3-2.4
		S51,252,50.4,252c-0.5,0-0.9,0.2-1.3,0.5c-0.4,0.3-0.6,0.8-0.8,1.2v5.3c0.2,0.1,0.4,0.1,0.5,0.2s0.3,0.2,0.5,0.3v0.7h-5v-0.7
		c0.4-0.2,0.8-0.4,1.3-0.5v-11.5l-1.4-0.2v-0.7c0.2-0.1,0.4-0.2,0.7-0.2s0.6-0.1,0.9-0.2c0.3-0.1,0.7-0.1,1-0.2
		c0.3-0.1,0.6-0.1,0.9-0.1h0.6v6.7l0,0c0.1-0.3,0.3-0.6,0.5-0.8c0.2-0.3,0.5-0.5,0.7-0.7s0.6-0.4,0.9-0.5s0.7-0.2,1-0.2
		c0.5,0,1,0.1,1.4,0.2c0.4,0.1,0.7,0.3,1,0.6s0.5,0.7,0.6,1.2s0.2,1.2,0.2,2v4.6c0.2,0.1,0.4,0.1,0.6,0.2c0.2,0.1,0.4,0.2,0.6,0.3
		L55.8,260.2L55.8,260.2z"/>
	<path class="st6" d="M65.2,258.7c-0.1,0.2-0.3,0.4-0.5,0.7s-0.5,0.4-0.8,0.6s-0.7,0.3-1.1,0.4c-0.4,0.1-0.9,0.2-1.4,0.2
		c-0.8,0-1.5-0.1-2.1-0.4c-0.6-0.2-1.1-0.6-1.5-1s-0.7-1-0.9-1.6s-0.3-1.3-0.3-2.1c0-1.6,0.4-2.9,1.3-3.7s2-1.3,3.5-1.3
		c0.6,0,1.2,0.1,1.8,0.3s1,0.5,1.4,0.9s0.6,0.9,0.8,1.6c0.1,0.7,0.1,1.5,0,2.4h-5.8c0,1,0.3,1.8,0.8,2.4s1.2,0.9,2.2,0.9
		c0.4,0,0.9-0.1,1.3-0.2c0.4-0.1,0.8-0.3,1.1-0.5L65.2,258.7z M61.3,251.6c-0.3,0-0.5,0-0.7,0.1s-0.4,0.3-0.5,0.5s-0.3,0.6-0.3,0.9
		c-0.1,0.4-0.2,0.9-0.2,1.5h3c0.1-1,0-1.7-0.2-2.3C62.2,251.9,61.9,251.6,61.3,251.6z"/>
	<path class="st6" d="M80.2,257.5c0,0.3,0,0.5,0,0.7s0,0.4,0,0.6l1.3,0.2v0.7c-0.2,0.1-0.4,0.2-0.6,0.2c-0.3,0.1-0.5,0.1-0.8,0.2
		s-0.6,0.1-0.8,0.2c-0.3,0-0.5,0.1-0.7,0.1H78c-0.1-0.3-0.2-0.6-0.2-0.9s0-0.6-0.1-1.1h-0.1c-0.1,0.3-0.2,0.5-0.3,0.7
		c-0.2,0.2-0.3,0.4-0.6,0.6c-0.3,0.2-0.5,0.3-0.8,0.4s-0.7,0.2-1.1,0.2s-0.8-0.1-1.2-0.2c-0.4-0.1-0.7-0.3-0.9-0.5
		c-0.3-0.2-0.5-0.5-0.6-0.8c-0.2-0.3-0.2-0.7-0.2-1.1c0-0.6,0.1-1,0.3-1.4c0.2-0.4,0.6-0.7,1-0.9c0.5-0.2,1.1-0.4,1.8-0.5
		s1.6-0.2,2.7-0.2c0.1-1.1,0.1-1.9-0.1-2.4s-0.6-0.8-1.2-0.8c-0.4,0-0.8,0.1-1.1,0.2l-0.9,2.3h-0.8c-0.1-0.2-0.2-0.3-0.3-0.5
		s-0.2-0.4-0.3-0.6c-0.1-0.2-0.2-0.4-0.2-0.7c-0.1-0.2-0.1-0.4-0.1-0.7c0.5-0.3,1.1-0.6,1.9-0.8s1.6-0.3,2.4-0.3
		c0.7,0,1.3,0.1,1.8,0.2c0.5,0.2,0.8,0.4,1.1,0.6c0.3,0.2,0.4,0.6,0.5,1s0.2,0.8,0.2,1.2c0,0.8,0,1.4,0,2.1
		C80.3,256.2,80.2,256.8,80.2,257.5z M76,259c0.3,0,0.5-0.1,0.7-0.2s0.4-0.2,0.5-0.4c0.1-0.1,0.2-0.3,0.3-0.5s0.1-0.3,0.2-0.4v-1.8
		c-0.6,0-1.1,0.1-1.5,0.1s-0.7,0.2-0.9,0.3c-0.2,0.1-0.4,0.3-0.4,0.6c-0.1,0.2-0.1,0.5-0.1,0.8c0,0.5,0.1,0.9,0.3,1.1
		C75.2,258.8,75.6,259,76,259z"/>
	<path class="st6" d="M86.5,260.5l-3.8-8.5c-0.4-0.1-0.7-0.3-1-0.5v-0.8h5v0.7c-0.2,0.1-0.3,0.2-0.5,0.3s-0.4,0.2-0.6,0.2l1.8,4.9
		l0.4,1.3l0,0l0.3-1.3l1.6-4.9c-0.2,0-0.4-0.1-0.6-0.2c-0.2-0.1-0.3-0.2-0.5-0.3v-0.7h3.7v0.7c-0.1,0.1-0.3,0.2-0.5,0.2
		c-0.2,0.1-0.4,0.1-0.6,0.2l-3.3,8.3L86.5,260.5z"/>
	<path class="st6" d="M101.1,258.7c-0.1,0.2-0.3,0.4-0.5,0.7s-0.5,0.4-0.8,0.6s-0.7,0.3-1.1,0.4s-0.9,0.2-1.4,0.2
		c-0.8,0-1.5-0.1-2.1-0.4c-0.6-0.2-1.1-0.6-1.5-1s-0.7-1-0.9-1.6s-0.3-1.3-0.3-2.1c0-1.6,0.4-2.9,1.3-3.7s2-1.3,3.5-1.3
		c0.6,0,1.2,0.1,1.8,0.3s1,0.5,1.4,0.9s0.6,0.9,0.8,1.6c0.1,0.7,0.1,1.5,0,2.4h-5.8c0,1,0.3,1.8,0.8,2.4s1.2,0.9,2.2,0.9
		c0.4,0,0.9-0.1,1.3-0.2s0.8-0.3,1.1-0.5L101.1,258.7z M97.2,251.6c-0.3,0-0.5,0-0.7,0.1s-0.4,0.3-0.5,0.5s-0.3,0.6-0.3,0.9
		c-0.1,0.4-0.2,0.9-0.2,1.5h3c0.1-1,0-1.7-0.2-2.3C98.1,251.9,97.7,251.6,97.2,251.6z"/>
	<path class="st6" d="M107.6,252.9c-0.2,0.1-0.3,0.2-0.5,0.4s-0.4,0.5-0.6,0.9v4.9c0.3,0,0.5,0.1,0.8,0.1c0.3,0.1,0.5,0.2,0.8,0.3
		v0.7h-5.5v-0.7c0.2-0.1,0.4-0.2,0.6-0.3c0.2-0.1,0.4-0.1,0.6-0.2v-7l-1.3-0.2v-0.7c0.2-0.1,0.5-0.2,0.8-0.2s0.6-0.1,0.9-0.2
		c0.3-0.1,0.6-0.1,0.9-0.1s0.5-0.1,0.8-0.1h0.6v2.5h0.1c0.1-0.3,0.2-0.6,0.4-0.9c0.2-0.3,0.4-0.6,0.7-0.8c0.3-0.3,0.6-0.5,0.9-0.6
		c0.3-0.2,0.6-0.2,1-0.2c0.1,0.2,0.3,0.4,0.4,0.8c0.1,0.3,0.2,0.6,0.2,0.9v0.7L107.6,252.9L107.6,252.9z"/>
	<path class="st6" d="M119.2,257.5c0,0.3,0,0.5,0,0.7s0,0.4,0,0.6l1.3,0.2v0.7c-0.2,0.1-0.4,0.2-0.6,0.2c-0.3,0.1-0.5,0.1-0.8,0.2
		s-0.6,0.1-0.8,0.2c-0.3,0-0.5,0.1-0.7,0.1H117c-0.1-0.3-0.2-0.6-0.2-0.9s0-0.6-0.1-1.1h-0.1c-0.1,0.3-0.2,0.5-0.3,0.7
		c-0.2,0.2-0.3,0.4-0.6,0.6c-0.3,0.2-0.5,0.3-0.8,0.4s-0.7,0.2-1.1,0.2s-0.8-0.1-1.2-0.2c-0.4-0.1-0.7-0.3-0.9-0.5
		c-0.3-0.2-0.5-0.5-0.6-0.8c-0.2-0.3-0.2-0.7-0.2-1.1c0-0.6,0.1-1,0.3-1.4c0.2-0.4,0.6-0.7,1-0.9c0.5-0.2,1.1-0.4,1.8-0.5
		s1.6-0.2,2.7-0.2c0.1-1.1,0.1-1.9-0.1-2.4s-0.6-0.8-1.2-0.8c-0.4,0-0.8,0.1-1.1,0.2l-0.9,2.3h-0.8c-0.1-0.2-0.2-0.3-0.3-0.5
		s-0.2-0.4-0.3-0.6c-0.1-0.2-0.2-0.4-0.2-0.7c-0.1-0.2-0.1-0.4-0.1-0.7c0.5-0.3,1.1-0.6,1.9-0.8s1.6-0.3,2.4-0.3
		c0.7,0,1.3,0.1,1.8,0.2c0.5,0.2,0.8,0.4,1.1,0.6c0.3,0.2,0.4,0.6,0.5,1s0.2,0.8,0.2,1.2c0,0.8,0,1.4,0,2.1
		C119.2,256.2,119.2,256.8,119.2,257.5z M114.9,259c0.3,0,0.5-0.1,0.7-0.2s0.4-0.2,0.5-0.4c0.1-0.1,0.2-0.3,0.3-0.5s0.1-0.3,0.2-0.4
		v-1.8c-0.6,0-1.1,0.1-1.5,0.1s-0.7,0.2-0.9,0.3c-0.2,0.1-0.4,0.3-0.4,0.6c-0.1,0.2-0.1,0.5-0.1,0.8c0,0.5,0.1,0.9,0.3,1.1
		C114.2,258.8,114.5,259,114.9,259z"/>
	<path class="st6" d="M125.8,250.4c0.8,0,1.5,0.1,2.1,0.3c0.5,0.2,1,0.4,1.2,0.6c0.6-0.6,1.3-1.1,2.1-1.3c0.1,0.1,0.2,0.2,0.3,0.3
		s0.2,0.3,0.2,0.4c0.1,0.1,0.1,0.3,0.2,0.4c0,0.1,0.1,0.3,0.1,0.3l-0.2,0.5h-2c0.1,0.2,0.3,0.4,0.4,0.7s0.2,0.6,0.2,1
		s-0.1,0.8-0.3,1.2s-0.4,0.7-0.8,1c-0.4,0.3-0.8,0.5-1.4,0.7s-1.2,0.2-1.9,0.2c-0.2,0-0.4,0-0.6,0s-0.3,0-0.4,0
		c-0.1,0.1-0.1,0.2-0.2,0.3s-0.1,0.2-0.1,0.3c0,0.2,0.2,0.4,0.5,0.5s0.7,0.2,1.2,0.3s1,0.2,1.5,0.3c0.5,0.1,1,0.3,1.5,0.5
		s0.9,0.5,1.2,0.8s0.5,0.8,0.5,1.3s-0.1,1-0.4,1.3s-0.6,0.7-1.1,1s-1,0.5-1.6,0.6s-1.3,0.2-2,0.2c-0.8,0-1.5-0.1-2.1-0.2
		s-1.1-0.3-1.4-0.5c-0.4-0.2-0.6-0.5-0.8-0.8s-0.3-0.6-0.3-0.9c0-0.4,0.1-0.7,0.2-0.9s0.3-0.5,0.6-0.7s0.5-0.3,0.9-0.5
		s0.7-0.2,1.1-0.3c-0.2-0.1-0.4-0.1-0.6-0.2s-0.3-0.2-0.5-0.3c-0.1-0.1-0.3-0.2-0.3-0.4c-0.1-0.1-0.1-0.3-0.1-0.5s0.1-0.3,0.2-0.5
		s0.2-0.3,0.4-0.4c0.2-0.1,0.3-0.3,0.5-0.4s0.4-0.2,0.6-0.3c-0.8-0.2-1.4-0.5-1.9-1s-0.7-1.2-0.7-2c0-1,0.4-1.7,1.2-2.2
		C123.4,250.7,124.5,250.4,125.8,250.4z M128.2,261.7c0-0.3-0.1-0.6-0.3-0.8s-0.5-0.4-0.8-0.5s-0.7-0.2-1.1-0.3
		c-0.4-0.1-0.8-0.2-1.2-0.3c-0.3,0.3-0.6,0.5-0.7,0.8s-0.2,0.6-0.2,0.9c0,0.6,0.2,1,0.6,1.4c0.4,0.3,1,0.5,1.7,0.5s1.2-0.1,1.6-0.4
		C128.1,262.5,128.2,262.1,128.2,261.7z M124.2,253.6c0,0.7,0.1,1.2,0.3,1.5s0.7,0.5,1.3,0.5s1-0.2,1.3-0.5c0.2-0.3,0.4-0.8,0.4-1.5
		s-0.1-1.2-0.4-1.5c-0.2-0.3-0.7-0.5-1.3-0.5s-1.1,0.2-1.3,0.5S124.2,252.9,124.2,253.6z"/>
	<path class="st6" d="M140.8,258.7c-0.1,0.2-0.3,0.4-0.5,0.7s-0.5,0.4-0.8,0.6s-0.7,0.3-1.1,0.4c-0.4,0.1-0.9,0.2-1.4,0.2
		c-0.8,0-1.5-0.1-2.1-0.4c-0.6-0.2-1.1-0.6-1.5-1s-0.7-1-0.9-1.6s-0.3-1.3-0.3-2.1c0-1.6,0.4-2.9,1.3-3.7s2-1.3,3.5-1.3
		c0.6,0,1.2,0.1,1.8,0.3s1,0.5,1.4,0.9s0.6,0.9,0.8,1.6c0.1,0.7,0.1,1.5,0,2.4h-5.8c0,1,0.3,1.8,0.8,2.4s1.2,0.9,2.2,0.9
		c0.4,0,0.9-0.1,1.3-0.2c0.4-0.1,0.8-0.3,1.1-0.5L140.8,258.7z M136.9,251.6c-0.3,0-0.5,0-0.7,0.1s-0.4,0.3-0.5,0.5
		s-0.3,0.6-0.3,0.9c-0.1,0.4-0.2,0.9-0.2,1.5h3c0.1-1,0-1.7-0.2-2.3C137.8,251.9,137.4,251.6,136.9,251.6z"/>
	<path class="st6" d="M155.5,258.7c-0.1,0.3-0.2,0.5-0.4,0.7s-0.4,0.4-0.7,0.6s-0.6,0.3-1,0.4s-0.7,0.1-1.1,0.1
		c-0.8,0-1.6-0.1-2.2-0.4s-1.1-0.6-1.5-1s-0.7-1-0.9-1.6s-0.3-1.3-0.3-2c0-1.6,0.4-2.8,1.3-3.7c0.9-0.9,2.1-1.3,3.8-1.3
		c0.6,0,1.2,0.1,1.7,0.2c0.5,0.1,1,0.3,1.3,0.5c0,0.2-0.1,0.5-0.1,0.7c0,0.3-0.1,0.5-0.2,0.8s-0.1,0.5-0.2,0.8s-0.2,0.5-0.2,0.6
		h-0.9l-0.8-2.3c-0.1-0.1-0.2-0.1-0.3-0.1s-0.3,0-0.5,0c-0.3,0-0.6,0.1-0.9,0.2c-0.2,0.1-0.4,0.3-0.6,0.6c-0.2,0.3-0.3,0.7-0.4,1.2
		s-0.1,1.1-0.1,1.8c0,0.5,0.1,1,0.2,1.4c0.1,0.4,0.3,0.8,0.5,1.1s0.5,0.6,0.9,0.8s0.8,0.3,1.3,0.3c0.4,0,0.8-0.1,1.2-0.2
		c0.3-0.1,0.6-0.3,0.8-0.5L155.5,258.7z"/>
	<path class="st6" d="M156.4,255.4c0-0.8,0.1-1.5,0.4-2.1c0.2-0.6,0.6-1.1,1-1.6c0.4-0.4,1-0.8,1.6-1s1.3-0.3,2.1-0.3
		c0.9,0,1.7,0.1,2.3,0.4s1.2,0.6,1.6,1c0.4,0.4,0.7,1,0.9,1.6s0.3,1.3,0.3,2c0,0.8-0.1,1.5-0.3,2.1s-0.6,1.1-1,1.6
		c-0.4,0.4-1,0.8-1.6,1s-1.3,0.3-2.1,0.3c-0.9,0-1.6-0.1-2.2-0.4c-0.6-0.2-1.2-0.6-1.6-1c-0.4-0.4-0.7-1-0.9-1.6
		C156.5,256.9,156.4,256.2,156.4,255.4z M159.3,255.4c0,0.6,0,1.1,0.1,1.6s0.2,0.9,0.4,1.2s0.4,0.6,0.7,0.8s0.7,0.3,1.2,0.3
		c0.3,0,0.5-0.1,0.8-0.2c0.2-0.1,0.4-0.3,0.6-0.6c0.2-0.3,0.3-0.7,0.4-1.2s0.1-1.1,0.1-1.8c0-0.6,0-1.1-0.1-1.6s-0.2-0.9-0.4-1.2
		s-0.4-0.6-0.7-0.8s-0.7-0.3-1.1-0.3c-0.3,0-0.6,0.1-0.9,0.2c-0.2,0.1-0.4,0.3-0.6,0.6s-0.3,0.7-0.4,1.2
		C159.4,254.2,159.3,254.7,159.3,255.4z"/>
	<path class="st6" d="M178.4,260.2h-4.8v-0.7c0.1-0.1,0.3-0.2,0.4-0.2c0.2-0.1,0.3-0.2,0.5-0.2v-3.8c0-0.6,0-1.1,0-1.5
		s-0.1-0.7-0.2-1s-0.2-0.5-0.4-0.6s-0.4-0.2-0.7-0.2c-0.4,0-0.8,0.2-1.1,0.5s-0.5,0.7-0.7,1.2v5.3c0.3,0.1,0.7,0.3,1,0.5v0.7h-4.9
		v-0.7c0.2-0.1,0.4-0.2,0.6-0.2c0.2-0.1,0.4-0.1,0.7-0.2v-7l-1.3-0.2v-0.7c0.2-0.1,0.5-0.2,0.8-0.2s0.6-0.1,0.9-0.2
		c0.3-0.1,0.6-0.1,0.9-0.1s0.5-0.1,0.8-0.1h0.6v2.1l0,0c0.2-0.6,0.6-1.1,1.1-1.5s1.1-0.6,1.9-0.6c0.3,0,0.6,0,0.9,0.1
		s0.6,0.2,0.8,0.4s0.5,0.4,0.6,0.7s0.3,0.7,0.4,1.2c0.2-0.7,0.6-1.3,1.1-1.7s1.2-0.6,1.9-0.6c0.5,0,0.9,0.1,1.2,0.2
		c0.4,0.1,0.7,0.3,0.9,0.6s0.4,0.7,0.6,1.2s0.2,1.2,0.2,2v4.5c0.4,0.1,0.8,0.2,1.3,0.5v0.7h-4.9v-0.7c0.3-0.2,0.6-0.3,1-0.5v-4.1
		c0-1-0.1-1.7-0.3-2.2s-0.6-0.7-1.2-0.7c-0.5,0-0.8,0.2-1.1,0.5s-0.5,0.8-0.6,1.4v5.1c0.2,0.1,0.4,0.1,0.6,0.2s0.3,0.2,0.5,0.2
		V260.2L178.4,260.2z"/>
	<path class="st6" d="M195.9,260.2h-4.8v-0.7c0.1-0.1,0.3-0.2,0.4-0.2c0.2-0.1,0.3-0.2,0.5-0.2v-3.8c0-0.6,0-1.1,0-1.5
		s-0.1-0.7-0.2-1s-0.2-0.5-0.4-0.6s-0.4-0.2-0.7-0.2c-0.4,0-0.8,0.2-1.1,0.5s-0.5,0.7-0.7,1.2v5.3c0.3,0.1,0.7,0.3,1,0.5v0.7H185
		v-0.7c0.2-0.1,0.4-0.2,0.6-0.2c0.2-0.1,0.4-0.1,0.7-0.2v-7l-1.3-0.2v-0.7c0.2-0.1,0.5-0.2,0.8-0.2s0.6-0.1,0.9-0.2
		c0.3-0.1,0.6-0.1,0.9-0.1s0.5-0.1,0.8-0.1h0.6v2.1l0,0c0.2-0.6,0.6-1.1,1.1-1.5s1.1-0.6,1.9-0.6c0.3,0,0.6,0,0.9,0.1
		s0.6,0.2,0.8,0.4s0.5,0.4,0.6,0.7s0.3,0.7,0.4,1.2c0.2-0.7,0.6-1.3,1.1-1.7s1.2-0.6,1.9-0.6c0.5,0,0.9,0.1,1.2,0.2
		c0.4,0.1,0.7,0.3,0.9,0.6s0.4,0.7,0.6,1.2s0.2,1.2,0.2,2v4.5c0.4,0.1,0.8,0.2,1.3,0.5v0.7H197v-0.7c0.3-0.2,0.6-0.3,1-0.5v-4.1
		c0-1-0.1-1.7-0.3-2.2s-0.6-0.7-1.2-0.7c-0.5,0-0.8,0.2-1.1,0.5s-0.5,0.8-0.6,1.4v5.1c0.2,0.1,0.4,0.1,0.6,0.2s0.3,0.2,0.5,0.2
		V260.2L195.9,260.2z"/>
	<path class="st6" d="M203.5,256.5c0-0.8,0-1.5,0.1-2.2s0.1-1.4,0.1-2.2l-1.3-0.2v-0.7c0.2-0.1,0.5-0.2,0.8-0.2
		c0.3-0.1,0.6-0.1,0.9-0.2c0.3-0.1,0.6-0.1,0.9-0.2c0.3,0,0.5-0.1,0.8-0.1h0.6c0,1,0,1.9-0.1,2.8c0,0.9-0.1,1.8-0.1,2.7
		c0,1,0.1,1.8,0.3,2.2s0.6,0.7,1.2,0.7c0.4,0,0.8-0.1,1.1-0.4s0.6-0.8,0.8-1.4v-5l-1.2-0.2v-0.7c0.2-0.1,0.4-0.2,0.7-0.2
		c0.3-0.1,0.6-0.1,0.9-0.2c0.3-0.1,0.6-0.1,0.9-0.2c0.3,0,0.6-0.1,0.8-0.1h0.6v8.4l1.3,0.2v0.7c-0.2,0.1-0.4,0.2-0.7,0.2
		c-0.3,0.1-0.5,0.1-0.8,0.2s-0.6,0.1-0.9,0.2c-0.3,0-0.5,0.1-0.8,0.1h-0.6l-0.1-2.3h-0.1c-0.1,0.3-0.2,0.5-0.3,0.8
		c-0.2,0.3-0.4,0.5-0.6,0.7c-0.3,0.2-0.6,0.4-0.9,0.5c-0.4,0.1-0.7,0.2-1.2,0.2s-0.9-0.1-1.3-0.2c-0.4-0.1-0.7-0.3-1-0.6
		s-0.5-0.7-0.6-1.2C203.6,257.9,203.5,257.2,203.5,256.5z"/>
	<path class="st6" d="M214.2,251.2c0.5-0.3,1-0.5,1.5-0.7V249c0.1-0.1,0.2-0.1,0.4-0.2c0.2-0.1,0.4-0.1,0.6-0.2s0.4-0.1,0.6-0.2
		c0.2-0.1,0.4-0.1,0.5-0.1h0.6v2.4h2.5v1.2h-2.5v4.9c0,0.8,0.1,1.3,0.3,1.6s0.5,0.5,1,0.5c0.2,0,0.5,0,0.8,0s0.5-0.1,0.8-0.2
		l0.1,0.6c-0.1,0.1-0.3,0.2-0.5,0.4s-0.5,0.2-0.8,0.4c-0.3,0.1-0.6,0.2-0.9,0.3s-0.7,0.1-1.1,0.1c-0.8,0-1.4-0.2-1.8-0.6
		c-0.4-0.4-0.6-1.1-0.6-2.1V252h-1.5L214.2,251.2L214.2,251.2z"/>
	<path class="st6" d="M230.8,258.7c-0.1,0.2-0.3,0.4-0.5,0.7s-0.5,0.4-0.8,0.6s-0.7,0.3-1.1,0.4c-0.4,0.1-0.9,0.2-1.4,0.2
		c-0.8,0-1.5-0.1-2.1-0.4c-0.6-0.2-1.1-0.6-1.5-1s-0.7-1-0.9-1.6s-0.3-1.3-0.3-2.1c0-1.6,0.4-2.9,1.3-3.7s2-1.3,3.5-1.3
		c0.6,0,1.2,0.1,1.8,0.3s1,0.5,1.4,0.9s0.6,0.9,0.8,1.6c0.1,0.7,0.1,1.5,0,2.4h-5.8c0,1,0.3,1.8,0.8,2.4s1.2,0.9,2.2,0.9
		c0.4,0,0.9-0.1,1.3-0.2c0.4-0.1,0.8-0.3,1.1-0.5L230.8,258.7z M226.9,251.6c-0.3,0-0.5,0-0.7,0.1s-0.4,0.3-0.5,0.5
		s-0.3,0.6-0.3,0.9c-0.1,0.4-0.2,0.9-0.2,1.5h3c0.1-1,0-1.7-0.2-2.3C227.8,251.9,227.5,251.6,226.9,251.6z"/>
	<path class="st6" d="M243,245.9c0.5,0,1,0,1.4,0.1s0.7,0.2,0.9,0.3c0,0.4-0.1,0.8-0.2,1.3c-0.1,0.4-0.2,0.8-0.3,1.1h-0.6l-0.8-1.8
		c-0.3,0-0.6,0-0.8,0.1s-0.4,0.2-0.5,0.4s-0.2,0.5-0.3,0.9s-0.1,0.9-0.1,1.5v1h2v1.2h-2v7.1c0.7,0.1,1.3,0.2,1.8,0.5v0.7h-5.8v-0.7
		c0.4-0.2,0.8-0.4,1.3-0.5V252h-1.4v-0.8c0.4-0.3,0.9-0.5,1.4-0.6V250c0-0.8,0.1-1.4,0.3-1.9s0.5-0.9,0.9-1.2s0.8-0.5,1.3-0.6
		C241.9,245.9,242.4,245.9,243,245.9z"/>
	<path class="st6" d="M244.3,255.4c0-0.8,0.1-1.5,0.4-2.1c0.2-0.6,0.6-1.1,1-1.6c0.4-0.4,1-0.8,1.6-1s1.3-0.3,2.1-0.3
		c0.9,0,1.7,0.1,2.3,0.4s1.2,0.6,1.6,1s0.7,1,0.9,1.6s0.3,1.3,0.3,2c0,0.8-0.1,1.5-0.3,2.1s-0.6,1.1-1,1.6c-0.4,0.4-1,0.8-1.6,1
		s-1.3,0.3-2.1,0.3c-0.9,0-1.6-0.1-2.2-0.4c-0.6-0.2-1.2-0.6-1.6-1s-0.7-1-0.9-1.6C244.4,256.9,244.3,256.2,244.3,255.4z
		 M247.2,255.4c0,0.6,0,1.1,0.1,1.6s0.2,0.9,0.4,1.2s0.4,0.6,0.7,0.8s0.7,0.3,1.2,0.3c0.3,0,0.5-0.1,0.8-0.2
		c0.2-0.1,0.4-0.3,0.6-0.6c0.2-0.3,0.3-0.7,0.4-1.2s0.1-1.1,0.1-1.8c0-0.6,0-1.1-0.1-1.6s-0.2-0.9-0.4-1.2s-0.4-0.6-0.7-0.8
		s-0.7-0.3-1.1-0.3c-0.3,0-0.6,0.1-0.9,0.2c-0.2,0.1-0.4,0.3-0.6,0.6s-0.3,0.7-0.4,1.2C247.3,254.2,247.2,254.7,247.2,255.4z"/>
	<path class="st6" d="M260.5,252.9c-0.2,0.1-0.3,0.2-0.5,0.4s-0.4,0.5-0.6,0.9v4.9c0.3,0,0.5,0.1,0.8,0.1c0.3,0.1,0.5,0.2,0.8,0.3
		v0.7h-5.5v-0.7c0.2-0.1,0.4-0.2,0.6-0.3s0.4-0.1,0.6-0.2v-7l-1.3-0.2v-0.7c0.2-0.1,0.5-0.2,0.8-0.2c0.3,0,0.6-0.1,0.9-0.2
		c0.3-0.1,0.6-0.1,0.9-0.1s0.5-0.1,0.8-0.1h0.6v2.5h0.1c0.1-0.3,0.2-0.6,0.4-0.9s0.4-0.6,0.7-0.8c0.3-0.3,0.6-0.5,0.9-0.6
		c0.3-0.2,0.6-0.2,1-0.2c0.1,0.2,0.3,0.4,0.4,0.8c0.1,0.3,0.2,0.6,0.2,0.9v0.7L260.5,252.9L260.5,252.9z"/>
	<path class="st6" d="M277.2,257.5c0,0.3,0,0.5,0,0.7s0,0.4,0,0.6l1.3,0.2v0.7c-0.2,0.1-0.4,0.2-0.6,0.2c-0.3,0.1-0.5,0.1-0.8,0.2
		s-0.6,0.1-0.8,0.2c-0.3,0-0.5,0.1-0.7,0.1H275c-0.1-0.3-0.2-0.6-0.2-0.9s0-0.6-0.1-1.1h-0.1c-0.1,0.3-0.2,0.5-0.3,0.7
		c-0.2,0.2-0.3,0.4-0.6,0.6c-0.3,0.2-0.5,0.3-0.8,0.4s-0.7,0.2-1.1,0.2s-0.8-0.1-1.2-0.2c-0.4-0.1-0.7-0.3-0.9-0.5
		c-0.3-0.2-0.5-0.5-0.6-0.8c-0.2-0.3-0.2-0.7-0.2-1.1c0-0.6,0.1-1,0.3-1.4c0.2-0.4,0.6-0.7,1-0.9c0.5-0.2,1.1-0.4,1.8-0.5
		s1.6-0.2,2.7-0.2c0.1-1.1,0.1-1.9-0.1-2.4s-0.6-0.8-1.2-0.8c-0.4,0-0.8,0.1-1.1,0.2l-0.9,2.3h-0.8c-0.1-0.2-0.2-0.3-0.3-0.5
		s-0.2-0.4-0.3-0.6c-0.1-0.2-0.2-0.4-0.2-0.7c-0.1-0.2-0.1-0.4-0.1-0.7c0.5-0.3,1.1-0.6,1.9-0.8s1.6-0.3,2.4-0.3
		c0.7,0,1.3,0.1,1.8,0.2c0.5,0.2,0.8,0.4,1.1,0.6c0.3,0.2,0.4,0.6,0.5,1s0.2,0.8,0.2,1.2c0,0.8,0,1.4,0,2.1
		C277.3,256.2,277.2,256.8,277.2,257.5z M273,259c0.3,0,0.5-0.1,0.7-0.2s0.4-0.2,0.5-0.4c0.1-0.1,0.2-0.3,0.3-0.5s0.1-0.3,0.2-0.4
		v-1.8c-0.6,0-1.1,0.1-1.5,0.1s-0.7,0.2-0.9,0.3c-0.2,0.1-0.4,0.3-0.4,0.6c-0.1,0.2-0.1,0.5-0.1,0.8c0,0.5,0.1,0.9,0.3,1.1
		C272.2,258.8,272.6,259,273,259z"/>
	<path class="st6" d="M289.5,258.2c0-0.3-0.1-0.6-0.4-0.9c-0.2-0.2-0.5-0.5-0.9-0.7c-0.3-0.2-0.7-0.4-1.1-0.6
		c-0.4-0.2-0.8-0.4-1.1-0.7s-0.6-0.6-0.9-1s-0.4-0.8-0.4-1.3c0-0.4,0.1-0.7,0.3-1s0.4-0.6,0.7-0.8s0.7-0.4,1.1-0.5s0.9-0.2,1.4-0.2
		c0.7,0,1.3,0.1,1.9,0.2c0.6,0.1,1.1,0.3,1.5,0.4c-0.1,0.4-0.2,0.8-0.3,1.3c-0.2,0.5-0.3,0.9-0.4,1.3h-0.6l-0.8-1.9
		c-0.2-0.1-0.3-0.1-0.5-0.1s-0.3,0-0.6,0c-0.4,0-0.7,0.1-0.9,0.3s-0.3,0.5-0.3,0.8s0.1,0.6,0.4,0.8s0.5,0.5,0.9,0.7
		c0.3,0.2,0.7,0.4,1.1,0.6c0.4,0.2,0.8,0.4,1.1,0.7s0.6,0.6,0.9,0.9s0.4,0.8,0.4,1.3c0,0.9-0.4,1.6-1.1,2.1s-1.7,0.8-2.9,0.8
		c-0.6,0-1.2-0.1-1.9-0.2c-0.6-0.1-1.2-0.3-1.7-0.5c0-0.5,0.1-0.9,0.3-1.4s0.4-0.9,0.6-1.3h0.6l0.9,2.1c0.1,0.1,0.3,0.2,0.5,0.2
		s0.3,0,0.5,0c0.4,0,0.7-0.1,1-0.3C289.3,258.9,289.5,258.6,289.5,258.2z"/>
	<path class="st6" d="M298.4,260.2h-5.2v-0.7c0.2-0.1,0.4-0.2,0.6-0.3s0.4-0.1,0.7-0.2v-7l-1.3-0.2V251c0.2-0.1,0.4-0.2,0.7-0.2
		s0.6-0.1,0.9-0.2c0.3-0.1,0.6-0.1,0.9-0.2c0.3,0,0.6-0.1,0.8-0.1h0.6v8.5c0.3,0.1,0.5,0.1,0.7,0.2s0.4,0.2,0.6,0.3L298.4,260.2
		L298.4,260.2z M294.2,247.6c0-0.4,0.2-0.8,0.5-1c0.3-0.3,0.7-0.4,1.2-0.4s0.9,0.1,1.2,0.4c0.3,0.3,0.5,0.6,0.5,1s-0.2,0.8-0.5,1
		c-0.3,0.3-0.7,0.4-1.2,0.4s-0.9-0.1-1.2-0.4C294.3,248.4,294.2,248.1,294.2,247.6z"/>
	<path class="st6" d="M310.9,260.2h-5v-0.7c0.2-0.1,0.3-0.2,0.5-0.2c0.2-0.1,0.3-0.1,0.6-0.2v-4.5c0-0.8-0.1-1.4-0.3-1.9
		s-0.6-0.7-1.2-0.7c-0.5,0-0.9,0.2-1.2,0.5s-0.6,0.7-0.8,1.3v5.3c0.2,0.1,0.4,0.1,0.5,0.2c0.2,0.1,0.3,0.2,0.5,0.3v0.7h-5v-0.7
		c0.3-0.2,0.7-0.3,1.3-0.5v-7l-1.3-0.2v-0.7c0.2-0.1,0.4-0.1,0.6-0.2c0.2-0.1,0.6-0.1,0.9-0.2s0.6-0.1,1-0.2c0.3,0,0.6-0.1,0.9-0.1
		h0.6v2l0,0c0.3-0.5,0.7-1,1.2-1.4s1.2-0.6,1.9-0.6c0.5,0,0.9,0.1,1.3,0.2c0.4,0.1,0.7,0.3,1,0.6s0.5,0.7,0.6,1.2s0.2,1.2,0.2,2v4.6
		c0.5,0.1,0.9,0.2,1.3,0.5v0.6L310.9,260.2L310.9,260.2z"/>
	<path class="st6" d="M316.2,250.4c0.8,0,1.5,0.1,2.1,0.3c0.5,0.2,1,0.4,1.2,0.6c0.6-0.6,1.3-1.1,2.1-1.3c0.1,0.1,0.2,0.2,0.3,0.3
		s0.2,0.3,0.2,0.4c0.1,0.1,0.1,0.3,0.2,0.4c0,0.1,0.1,0.3,0.1,0.3l-0.2,0.5h-2c0.1,0.2,0.3,0.4,0.4,0.7s0.2,0.6,0.2,1
		s-0.1,0.8-0.3,1.2s-0.4,0.7-0.8,1c-0.4,0.3-0.8,0.5-1.4,0.7s-1.2,0.2-1.9,0.2c-0.2,0-0.4,0-0.6,0s-0.3,0-0.4,0
		c-0.1,0.1-0.1,0.2-0.2,0.3s-0.1,0.2-0.1,0.3c0,0.2,0.2,0.4,0.5,0.5s0.7,0.2,1.2,0.3s1,0.2,1.5,0.3s1,0.3,1.5,0.5s0.9,0.5,1.2,0.8
		s0.5,0.8,0.5,1.3s-0.1,1-0.4,1.3s-0.6,0.7-1.1,1s-1,0.5-1.6,0.6s-1.3,0.2-2,0.2c-0.8,0-1.5-0.1-2.1-0.2s-1.1-0.3-1.4-0.5
		c-0.4-0.2-0.6-0.5-0.8-0.8s-0.3-0.6-0.3-0.9c0-0.4,0.1-0.7,0.2-0.9s0.3-0.5,0.6-0.7s0.5-0.3,0.9-0.5s0.7-0.2,1.1-0.3
		c-0.2-0.1-0.4-0.1-0.6-0.2s-0.3-0.2-0.5-0.3c-0.1-0.1-0.3-0.2-0.3-0.4c-0.1-0.1-0.1-0.3-0.1-0.5s0.1-0.3,0.2-0.5s0.2-0.3,0.4-0.4
		c0.2-0.1,0.3-0.3,0.5-0.4s0.4-0.2,0.6-0.3c-0.8-0.2-1.4-0.5-1.9-1s-0.7-1.2-0.7-2c0-1,0.4-1.7,1.2-2.2
		C313.8,250.7,314.8,250.4,316.2,250.4z M318.6,261.7c0-0.3-0.1-0.6-0.3-0.8s-0.5-0.4-0.8-0.5s-0.7-0.2-1.1-0.3s-0.8-0.2-1.2-0.3
		c-0.3,0.3-0.6,0.5-0.7,0.8s-0.2,0.6-0.2,0.9c0,0.6,0.2,1,0.6,1.4c0.4,0.3,1,0.5,1.7,0.5s1.2-0.1,1.6-0.4
		C318.4,262.5,318.6,262.1,318.6,261.7z M314.5,253.6c0,0.7,0.1,1.2,0.3,1.5s0.7,0.5,1.3,0.5s1-0.2,1.3-0.5c0.2-0.3,0.4-0.8,0.4-1.5
		s-0.1-1.2-0.4-1.5c-0.2-0.3-0.7-0.5-1.3-0.5s-1.1,0.2-1.3,0.5S314.5,252.9,314.5,253.6z"/>
	<path class="st6" d="M327.7,260.2h-5.2v-0.7c0.4-0.2,0.8-0.4,1.3-0.5v-11.5l-1.4-0.2v-0.7c0.2-0.1,0.4-0.2,0.7-0.2
		c0.3-0.1,0.6-0.1,0.9-0.2c0.3-0.1,0.7-0.1,1-0.2s0.6-0.1,0.9-0.1h0.6V259c0.4,0.1,0.8,0.3,1.3,0.5L327.7,260.2L327.7,260.2
		L327.7,260.2z"/>
	<path class="st6" d="M337.4,258.7c-0.1,0.2-0.3,0.4-0.5,0.7s-0.5,0.4-0.8,0.6s-0.7,0.3-1.1,0.4s-0.9,0.2-1.4,0.2
		c-0.8,0-1.5-0.1-2.1-0.4c-0.6-0.2-1.1-0.6-1.5-1s-0.7-1-0.9-1.6s-0.3-1.3-0.3-2.1c0-1.6,0.4-2.9,1.3-3.7s2-1.3,3.5-1.3
		c0.6,0,1.2,0.1,1.8,0.3s1,0.5,1.4,0.9s0.6,0.9,0.8,1.6c0.1,0.7,0.1,1.5,0,2.4h-5.8c0,1,0.3,1.8,0.8,2.4s1.2,0.9,2.2,0.9
		c0.4,0,0.9-0.1,1.3-0.2s0.8-0.3,1.1-0.5L337.4,258.7z M333.5,251.6c-0.3,0-0.5,0-0.7,0.1s-0.4,0.3-0.5,0.5s-0.3,0.6-0.3,0.9
		c-0.1,0.4-0.2,0.9-0.2,1.5h3c0.1-1,0-1.7-0.2-2.3C334.4,251.9,334.1,251.6,333.5,251.6z"/>
	<path class="st6" d="M344.1,255.4c0-0.8,0.1-1.5,0.4-2.1c0.2-0.6,0.6-1.1,1-1.6c0.4-0.4,1-0.8,1.6-1s1.3-0.3,2.1-0.3
		c0.9,0,1.7,0.1,2.3,0.4s1.2,0.6,1.6,1s0.7,1,0.9,1.6s0.3,1.3,0.3,2c0,0.8-0.1,1.5-0.3,2.1s-0.6,1.1-1,1.6c-0.4,0.4-1,0.8-1.6,1
		s-1.3,0.3-2.1,0.3c-0.9,0-1.6-0.1-2.2-0.4c-0.6-0.2-1.2-0.6-1.6-1s-0.7-1-0.9-1.6C344.2,256.9,344.1,256.2,344.1,255.4z M347,255.4
		c0,0.6,0,1.1,0.1,1.6s0.2,0.9,0.4,1.2s0.4,0.6,0.7,0.8s0.7,0.3,1.2,0.3c0.3,0,0.5-0.1,0.8-0.2c0.2-0.1,0.4-0.3,0.6-0.6
		c0.2-0.3,0.3-0.7,0.4-1.2s0.1-1.1,0.1-1.8c0-0.6,0-1.1-0.1-1.6s-0.2-0.9-0.4-1.2s-0.4-0.6-0.7-0.8s-0.7-0.3-1.1-0.3
		c-0.3,0-0.6,0.1-0.9,0.2c-0.2,0.1-0.4,0.3-0.6,0.6s-0.3,0.7-0.4,1.2C347.1,254.2,347,254.7,347,255.4z"/>
	<path class="st6" d="M363.5,258.7c-0.1,0.3-0.2,0.5-0.4,0.7s-0.4,0.4-0.7,0.6c-0.3,0.2-0.6,0.3-1,0.4s-0.7,0.1-1.1,0.1
		c-0.8,0-1.6-0.1-2.2-0.4s-1.1-0.6-1.5-1s-0.7-1-0.9-1.6s-0.3-1.3-0.3-2c0-1.6,0.4-2.8,1.3-3.7s2.1-1.3,3.8-1.3
		c0.6,0,1.2,0.1,1.7,0.2c0.5,0.1,1,0.3,1.3,0.5c0,0.2-0.1,0.5-0.1,0.7c0,0.3-0.1,0.5-0.2,0.8s-0.1,0.5-0.2,0.8s-0.2,0.5-0.2,0.6
		h-0.9l-0.8-2.3c-0.1-0.1-0.2-0.1-0.3-0.1s-0.3,0-0.5,0c-0.3,0-0.6,0.1-0.9,0.2c-0.2,0.1-0.4,0.3-0.6,0.6s-0.3,0.7-0.4,1.2
		s-0.1,1.1-0.1,1.8c0,0.5,0.1,1,0.2,1.4s0.3,0.8,0.5,1.1s0.5,0.6,0.9,0.8s0.8,0.3,1.3,0.3c0.4,0,0.8-0.1,1.2-0.2
		c0.3-0.1,0.6-0.3,0.8-0.5L363.5,258.7z"/>
	<path class="st6" d="M372.4,258.7c-0.1,0.3-0.2,0.5-0.4,0.7s-0.4,0.4-0.7,0.6c-0.3,0.2-0.6,0.3-1,0.4s-0.7,0.1-1.1,0.1
		c-0.8,0-1.6-0.1-2.2-0.4s-1.1-0.6-1.5-1s-0.7-1-0.9-1.6s-0.3-1.3-0.3-2c0-1.6,0.4-2.8,1.3-3.7s2.1-1.3,3.8-1.3
		c0.6,0,1.2,0.1,1.7,0.2c0.5,0.1,1,0.3,1.3,0.5c0,0.2-0.1,0.5-0.1,0.7c0,0.3-0.1,0.5-0.2,0.8s-0.1,0.5-0.2,0.8s-0.2,0.5-0.2,0.6
		h-0.9l-0.8-2.3c-0.1-0.1-0.2-0.1-0.3-0.1s-0.3,0-0.5,0c-0.3,0-0.6,0.1-0.9,0.2c-0.2,0.1-0.4,0.3-0.6,0.6s-0.3,0.7-0.4,1.2
		s-0.1,1.1-0.1,1.8c0,0.5,0.1,1,0.2,1.4s0.3,0.8,0.5,1.1s0.5,0.6,0.9,0.8s0.8,0.3,1.3,0.3c0.4,0,0.8-0.1,1.2-0.2
		c0.3-0.1,0.6-0.3,0.8-0.5L372.4,258.7z"/>
	<path class="st6" d="M374.2,256.5c0-0.8,0-1.5,0.1-2.2s0.1-1.4,0.1-2.2l-1.3-0.2v-0.7c0.2-0.1,0.5-0.2,0.8-0.2
		c0.3-0.1,0.6-0.1,0.9-0.2c0.3-0.1,0.6-0.1,0.9-0.2c0.3,0,0.5-0.1,0.8-0.1h0.6c0,1,0,1.9-0.1,2.8c0,0.9-0.1,1.8-0.1,2.7
		c0,1,0.1,1.8,0.3,2.2s0.6,0.7,1.2,0.7c0.4,0,0.8-0.1,1.1-0.4c0.3-0.3,0.6-0.8,0.8-1.4v-5l-1.2-0.2v-0.7c0.2-0.1,0.4-0.2,0.7-0.2
		c0.3-0.1,0.6-0.1,0.9-0.2c0.3-0.1,0.6-0.1,0.9-0.2c0.3,0,0.6-0.1,0.8-0.1h0.6v8.4l1.3,0.2v0.7c-0.2,0.1-0.4,0.2-0.7,0.2
		c-0.3,0.1-0.5,0.1-0.8,0.2s-0.6,0.1-0.9,0.2c-0.3,0-0.5,0.1-0.8,0.1h-0.6l-0.1-2.3h-0.1c-0.1,0.3-0.2,0.5-0.3,0.8
		c-0.2,0.3-0.4,0.5-0.6,0.7c-0.3,0.2-0.6,0.4-0.9,0.5c-0.4,0.1-0.7,0.2-1.2,0.2s-0.9-0.1-1.3-0.2s-0.7-0.3-1-0.6s-0.5-0.7-0.6-1.2
		C374.3,257.9,374.2,257.2,374.2,256.5z"/>
	<path class="st6" d="M390.4,264h-5.2v-0.7c0.4-0.2,0.8-0.4,1.3-0.5V252l-1.3-0.2V251c0.2-0.1,0.5-0.2,0.8-0.2s0.6-0.1,0.9-0.2
		c0.3-0.1,0.6-0.1,0.9-0.1s0.5-0.1,0.8-0.1h0.6v2.1l0,0c0.2-0.6,0.6-1.1,1-1.5c0.5-0.4,1.1-0.6,1.9-0.6c0.6,0,1.1,0.1,1.5,0.3
		s0.8,0.5,1.1,0.9s0.6,0.9,0.7,1.5c0.2,0.6,0.3,1.3,0.3,2.2c0,0.8-0.1,1.5-0.3,2.2c-0.2,0.6-0.5,1.2-1,1.6c-0.4,0.4-0.9,0.8-1.5,1
		s-1.3,0.4-2,0.4c-0.4,0-0.8,0-1-0.1s-0.5-0.2-0.8-0.3v2.8c0.2,0,0.4,0.1,0.6,0.1c0.2,0.1,0.4,0.2,0.6,0.3L390.4,264L390.4,264z
		 M391,251.9c-0.4,0-0.8,0.2-1.1,0.5s-0.6,0.8-0.7,1.4v5.1c0.2,0.2,0.4,0.3,0.6,0.3c0.2,0.1,0.5,0.1,0.9,0.1c0.7,0,1.3-0.3,1.6-1
		s0.5-1.7,0.5-3.1c0-1-0.1-1.8-0.4-2.4S391.6,251.9,391,251.9z"/>
	<path class="st6" d="M405.2,257.5c0,0.3,0,0.5,0,0.7s0,0.4,0,0.6l1.3,0.2v0.7c-0.2,0.1-0.4,0.2-0.6,0.2c-0.3,0.1-0.5,0.1-0.8,0.2
		s-0.6,0.1-0.8,0.2c-0.3,0-0.5,0.1-0.7,0.1H403c-0.1-0.3-0.2-0.6-0.2-0.9s0-0.6-0.1-1.1h-0.1c-0.1,0.3-0.2,0.5-0.3,0.7
		c-0.2,0.2-0.3,0.4-0.6,0.6c-0.3,0.2-0.5,0.3-0.8,0.4s-0.7,0.2-1.1,0.2s-0.8-0.1-1.2-0.2c-0.4-0.1-0.7-0.3-0.9-0.5
		c-0.3-0.2-0.5-0.5-0.6-0.8c-0.2-0.3-0.2-0.7-0.2-1.1c0-0.6,0.1-1,0.3-1.4c0.2-0.4,0.6-0.7,1-0.9c0.5-0.2,1.1-0.4,1.8-0.5
		s1.6-0.2,2.7-0.2c0.1-1.1,0.1-1.9-0.1-2.4s-0.6-0.8-1.2-0.8c-0.4,0-0.8,0.1-1.1,0.2l-0.9,2.3h-0.8c-0.1-0.2-0.2-0.3-0.3-0.5
		s-0.2-0.4-0.3-0.6c-0.1-0.2-0.2-0.4-0.2-0.7c-0.1-0.2-0.1-0.4-0.1-0.7c0.5-0.3,1.1-0.6,1.9-0.8s1.6-0.3,2.4-0.3
		c0.7,0,1.3,0.1,1.8,0.2c0.5,0.2,0.8,0.4,1.1,0.6c0.3,0.2,0.4,0.6,0.5,1s0.2,0.8,0.2,1.2c0,0.8,0,1.4,0,2.1
		C405.2,256.2,405.2,256.8,405.2,257.5z M400.9,259c0.3,0,0.5-0.1,0.7-0.2s0.4-0.2,0.5-0.4c0.1-0.1,0.2-0.3,0.3-0.5s0.1-0.3,0.2-0.4
		v-1.8c-0.6,0-1.1,0.1-1.5,0.1s-0.7,0.2-0.9,0.3c-0.2,0.1-0.4,0.3-0.4,0.6c-0.1,0.2-0.1,0.5-0.1,0.8c0,0.5,0.1,0.9,0.3,1.1
		C400.2,258.8,400.5,259,400.9,259z"/>
	<path class="st6" d="M418.9,260.2h-5v-0.7c0.2-0.1,0.3-0.2,0.5-0.2c0.2-0.1,0.3-0.1,0.6-0.2v-4.5c0-0.8-0.1-1.4-0.3-1.9
		s-0.6-0.7-1.2-0.7c-0.5,0-0.9,0.2-1.2,0.5s-0.6,0.7-0.8,1.3v5.3c0.2,0.1,0.4,0.1,0.5,0.2c0.2,0.1,0.3,0.2,0.5,0.3v0.7h-5v-0.7
		c0.3-0.2,0.7-0.3,1.3-0.5v-7l-1.3-0.2v-0.7c0.2-0.1,0.4-0.1,0.6-0.2c0.2-0.1,0.6-0.1,0.9-0.2s0.6-0.1,1-0.2c0.3,0,0.6-0.1,0.9-0.1
		h0.6v2l0,0c0.3-0.5,0.7-1,1.2-1.4s1.2-0.6,1.9-0.6c0.5,0,0.9,0.1,1.3,0.2c0.4,0.1,0.7,0.3,1,0.6s0.5,0.7,0.6,1.2s0.2,1.2,0.2,2v4.6
		c0.5,0.1,0.9,0.2,1.3,0.5v0.6L418.9,260.2L418.9,260.2z"/>
	<path class="st6" d="M419.3,251.2c0.5-0.3,1-0.5,1.5-0.7V249c0.1-0.1,0.2-0.1,0.4-0.2c0.2-0.1,0.4-0.1,0.6-0.2s0.4-0.1,0.6-0.2
		c0.2-0.1,0.4-0.1,0.5-0.1h0.6v2.4h2.5v1.2h-2.5v4.9c0,0.8,0.1,1.3,0.3,1.6s0.5,0.5,1,0.5c0.2,0,0.5,0,0.8,0s0.5-0.1,0.8-0.2
		l0.1,0.6c-0.1,0.1-0.3,0.2-0.5,0.4s-0.5,0.2-0.8,0.4c-0.3,0.1-0.6,0.2-0.9,0.3s-0.7,0.1-1.1,0.1c-0.8,0-1.4-0.2-1.8-0.6
		s-0.6-1.1-0.6-2.1V252h-1.5V251.2L419.3,251.2z"/>
	<path class="st6" d="M436.4,260.5l-3.8-8.5c-0.4-0.1-0.7-0.3-1-0.5v-0.8h5v0.7c-0.2,0.1-0.3,0.2-0.5,0.3s-0.4,0.2-0.6,0.2l1.8,4.9
		l0.4,1.3l0,0l0.3-1.3l1.6-4.9c-0.2,0-0.4-0.1-0.6-0.2c-0.2-0.1-0.3-0.2-0.5-0.3v-0.7h3.7v0.7c-0.1,0.1-0.3,0.2-0.5,0.2
		c-0.2,0.1-0.4,0.1-0.6,0.2l-3.3,8.3L436.4,260.5z"/>
	<path class="st6" d="M451,258.7c-0.1,0.2-0.3,0.4-0.5,0.7s-0.5,0.4-0.8,0.6s-0.7,0.3-1.1,0.4s-0.9,0.2-1.4,0.2
		c-0.8,0-1.5-0.1-2.1-0.4c-0.6-0.2-1.1-0.6-1.5-1s-0.7-1-0.9-1.6s-0.3-1.3-0.3-2.1c0-1.6,0.4-2.9,1.3-3.7s2-1.3,3.5-1.3
		c0.6,0,1.2,0.1,1.8,0.3s1,0.5,1.4,0.9s0.6,0.9,0.8,1.6c0.1,0.7,0.1,1.5,0,2.4h-5.8c0,1,0.3,1.8,0.8,2.4s1.2,0.9,2.2,0.9
		c0.4,0,0.9-0.1,1.3-0.2s0.8-0.3,1.1-0.5L451,258.7z M447.1,251.6c-0.3,0-0.5,0-0.7,0.1s-0.4,0.3-0.5,0.5s-0.3,0.6-0.3,0.9
		c-0.1,0.4-0.2,0.9-0.2,1.5h3c0.1-1,0-1.7-0.2-2.3C448,251.9,447.7,251.6,447.1,251.6z"/>
	<path class="st6" d="M463.9,260.2h-5v-0.7c0.2-0.1,0.3-0.2,0.5-0.2c0.2-0.1,0.4-0.1,0.6-0.2v-3.8c0-1.1-0.1-1.9-0.3-2.4
		s-0.6-0.8-1.2-0.8c-0.5,0-0.9,0.2-1.3,0.5s-0.6,0.8-0.8,1.2v5.3c0.2,0.1,0.4,0.1,0.5,0.2s0.3,0.2,0.5,0.3v0.7h-5v-0.7
		c0.4-0.2,0.8-0.4,1.3-0.5v-11.5l-1.4-0.2v-0.7c0.2-0.1,0.4-0.2,0.7-0.2s0.6-0.1,0.9-0.2c0.3-0.1,0.7-0.1,1-0.2s0.6-0.1,0.9-0.1h0.6
		v6.7l0,0c0.1-0.3,0.3-0.6,0.5-0.8c0.2-0.3,0.5-0.5,0.7-0.7s0.6-0.4,0.9-0.5s0.7-0.2,1-0.2c0.5,0,1,0.1,1.4,0.2
		c0.4,0.1,0.7,0.3,1,0.6s0.5,0.7,0.6,1.2s0.2,1.2,0.2,2v4.6c0.2,0.1,0.4,0.1,0.6,0.2s0.4,0.2,0.6,0.3L463.9,260.2L463.9,260.2z"/>
	<path class="st6" d="M470,260.2h-5.2v-0.7c0.2-0.1,0.4-0.2,0.6-0.3c0.2-0.1,0.4-0.1,0.7-0.2v-7l-1.3-0.2V251
		c0.2-0.1,0.4-0.2,0.7-0.2s0.6-0.1,0.9-0.2s0.6-0.1,0.9-0.2c0.3,0,0.6-0.1,0.8-0.1h0.6v8.5c0.3,0.1,0.5,0.1,0.7,0.2s0.4,0.2,0.6,0.3
		L470,260.2L470,260.2z M465.7,247.6c0-0.4,0.2-0.8,0.5-1c0.3-0.3,0.7-0.4,1.2-0.4s0.9,0.1,1.2,0.4c0.3,0.3,0.5,0.6,0.5,1
		s-0.2,0.8-0.5,1c-0.3,0.3-0.7,0.4-1.2,0.4s-0.9-0.1-1.2-0.4C465.8,248.4,465.7,248.1,465.7,247.6z"/>
	<path class="st6" d="M479.1,258.7c-0.1,0.3-0.2,0.5-0.4,0.7s-0.4,0.4-0.7,0.6c-0.3,0.2-0.6,0.3-1,0.4s-0.7,0.1-1.1,0.1
		c-0.8,0-1.6-0.1-2.2-0.4s-1.1-0.6-1.5-1s-0.7-1-0.9-1.6s-0.3-1.3-0.3-2c0-1.6,0.4-2.8,1.3-3.7s2.1-1.3,3.8-1.3
		c0.6,0,1.2,0.1,1.7,0.2c0.5,0.1,1,0.3,1.3,0.5c0,0.2-0.1,0.5-0.1,0.7c0,0.3-0.1,0.5-0.2,0.8s-0.1,0.5-0.2,0.8s-0.2,0.5-0.2,0.6
		h-0.9l-0.8-2.3c-0.1-0.1-0.2-0.1-0.3-0.1s-0.3,0-0.5,0c-0.3,0-0.6,0.1-0.9,0.2c-0.2,0.1-0.4,0.3-0.6,0.6s-0.3,0.7-0.4,1.2
		s-0.1,1.1-0.1,1.8c0,0.5,0.1,1,0.2,1.4s0.3,0.8,0.5,1.1s0.5,0.6,0.9,0.8s0.8,0.3,1.3,0.3c0.4,0,0.8-0.1,1.2-0.2
		c0.3-0.1,0.6-0.3,0.8-0.5L479.1,258.7z"/>
	<path class="st6" d="M485.5,260.2h-5.2v-0.7c0.4-0.2,0.8-0.4,1.3-0.5v-11.5l-1.4-0.2v-0.7c0.2-0.1,0.4-0.2,0.7-0.2
		c0.3-0.1,0.6-0.1,0.9-0.2c0.3-0.1,0.7-0.1,1-0.2s0.6-0.1,0.9-0.1h0.6V259c0.4,0.1,0.8,0.3,1.3,0.5L485.5,260.2L485.5,260.2
		L485.5,260.2z"/>
	<path class="st6" d="M495.2,258.7c-0.1,0.2-0.3,0.4-0.5,0.7s-0.5,0.4-0.8,0.6s-0.7,0.3-1.1,0.4s-0.9,0.2-1.4,0.2
		c-0.8,0-1.5-0.1-2.1-0.4c-0.6-0.2-1.1-0.6-1.5-1s-0.7-1-0.9-1.6s-0.3-1.3-0.3-2.1c0-1.6,0.4-2.9,1.3-3.7s2-1.3,3.5-1.3
		c0.6,0,1.2,0.1,1.8,0.3s1,0.5,1.4,0.9s0.6,0.9,0.8,1.6c0.1,0.7,0.1,1.5,0,2.4h-5.8c0,1,0.3,1.8,0.8,2.4s1.2,0.9,2.2,0.9
		c0.4,0,0.9-0.1,1.3-0.2s0.8-0.3,1.1-0.5L495.2,258.7z M491.3,251.6c-0.3,0-0.5,0-0.7,0.1s-0.4,0.3-0.5,0.5s-0.3,0.6-0.3,0.9
		c-0.1,0.4-0.2,0.9-0.2,1.5h3c0.1-1,0-1.7-0.2-2.3C492.2,251.9,491.8,251.6,491.3,251.6z"/>
	<path class="st6" d="M507.1,260.2h-5.2v-0.7c0.2-0.1,0.4-0.2,0.6-0.3s0.4-0.1,0.7-0.2v-7l-1.3-0.2V251c0.2-0.1,0.4-0.2,0.7-0.2
		s0.6-0.1,0.9-0.2c0.3-0.1,0.6-0.1,0.9-0.2c0.3,0,0.6-0.1,0.8-0.1h0.6v8.5c0.3,0.1,0.5,0.1,0.7,0.2s0.4,0.2,0.6,0.3L507.1,260.2
		L507.1,260.2z M502.8,247.6c0-0.4,0.2-0.8,0.5-1c0.3-0.3,0.7-0.4,1.2-0.4s0.9,0.1,1.2,0.4c0.3,0.3,0.5,0.6,0.5,1s-0.2,0.8-0.5,1
		c-0.3,0.3-0.7,0.4-1.2,0.4s-0.9-0.1-1.2-0.4C503,248.4,502.8,248.1,502.8,247.6z"/>
	<path class="st6" d="M513.1,258.2c0-0.3-0.1-0.6-0.4-0.9c-0.2-0.2-0.5-0.5-0.9-0.7c-0.3-0.2-0.7-0.4-1.1-0.6
		c-0.4-0.2-0.8-0.4-1.1-0.7s-0.6-0.6-0.9-1s-0.4-0.8-0.4-1.3c0-0.4,0.1-0.7,0.3-1s0.4-0.6,0.7-0.8s0.7-0.4,1.1-0.5s0.9-0.2,1.4-0.2
		c0.7,0,1.3,0.1,1.9,0.2s1.1,0.3,1.5,0.4c-0.1,0.4-0.2,0.8-0.3,1.3c-0.2,0.5-0.3,0.9-0.4,1.3h-0.6l-0.8-1.9
		c-0.2-0.1-0.3-0.1-0.5-0.1s-0.3,0-0.6,0c-0.4,0-0.7,0.1-0.9,0.3s-0.3,0.5-0.3,0.8s0.1,0.6,0.4,0.8s0.5,0.5,0.9,0.7
		c0.3,0.2,0.7,0.4,1.1,0.6c0.4,0.2,0.8,0.4,1.1,0.7s0.6,0.6,0.9,0.9c0.3,0.3,0.4,0.8,0.4,1.3c0,0.9-0.4,1.6-1.1,2.1
		c-0.7,0.5-1.7,0.8-2.9,0.8c-0.6,0-1.2-0.1-1.9-0.2c-0.6-0.1-1.2-0.3-1.7-0.5c0-0.5,0.1-0.9,0.3-1.4s0.4-0.9,0.6-1.3h0.6l0.9,2.1
		c0.1,0.1,0.3,0.2,0.5,0.2s0.3,0,0.5,0c0.4,0,0.7-0.1,1-0.3C512.9,258.9,513.1,258.6,513.1,258.2z"/>
	<path class="st6" d="M530.2,260.2h-6.6v-0.8c0.3-0.1,0.6-0.3,1-0.4s0.6-0.2,1-0.3V250l0.1-1.1c-0.4,0.1-0.7,0.2-1.1,0.2
		c-0.4,0-0.8,0.1-1.2,0l-0.1-0.7c0.7-0.2,1.4-0.4,2.2-0.7s1.5-0.7,2.2-1.1h0.6v12.1c0.3,0.1,0.6,0.2,1,0.3c0.3,0.1,0.6,0.2,0.9,0.4
		L530.2,260.2L530.2,260.2z"/>
	<path class="st6" d="M536.9,259.2c0.3,0,0.6-0.1,0.9-0.2c0.3-0.1,0.5-0.3,0.8-0.6c0.2-0.2,0.4-0.5,0.5-0.9s0.2-0.7,0.2-1.1
		s-0.1-0.8-0.2-1.1s-0.3-0.6-0.6-0.8c-0.2-0.2-0.5-0.4-0.8-0.4s-0.6-0.1-0.9-0.1h-1.1v-0.8l2.8-3.7l0.6-0.7v-0.1l-1,0.1h-2.9
		l-0.7,1.9h-0.6c-0.1-0.3-0.1-0.6-0.2-1s-0.1-0.7-0.2-1.1s-0.1-0.7-0.1-1.1c0-0.3,0-0.6,0-0.9h8.3v0.9l-3.3,4l-0.8,0.8l0,0l0.6-0.1
		c0.6,0,1.1,0.1,1.6,0.3s0.9,0.5,1.2,0.8s0.6,0.7,0.7,1.2c0.2,0.4,0.3,0.9,0.3,1.5s-0.1,1.2-0.4,1.7s-0.6,0.9-1.1,1.3
		s-1,0.6-1.6,0.8s-1.2,0.3-1.9,0.3c-0.4,0-0.8,0-1.1-0.1c-0.4-0.1-0.7-0.1-1.1-0.2c-0.3-0.1-0.6-0.2-0.9-0.4s-0.5-0.3-0.7-0.5l0.7-2
		h0.6c0.1,0.1,0.2,0.2,0.3,0.4c0.1,0.1,0.3,0.3,0.4,0.5s0.3,0.3,0.4,0.5c0.1,0.2,0.3,0.3,0.4,0.4c0.1,0,0.3,0.1,0.4,0.1
		C536.5,258.8,536.7,259.2,536.9,259.2z"/>
	<path class="st6" d="M544,258.9c0-0.5,0.1-0.8,0.4-1.1c0.3-0.3,0.7-0.4,1.2-0.4s0.9,0.1,1.2,0.4s0.5,0.6,0.5,1.1s-0.2,0.8-0.5,1.1
		s-0.7,0.4-1.2,0.4s-0.9-0.1-1.2-0.4C544.1,259.7,544,259.4,544,258.9z"/>
	<path class="st6" d="M549.1,251.1c0-0.6,0.1-1.2,0.3-1.8c0.2-0.5,0.5-1,1-1.4c0.4-0.4,0.9-0.7,1.5-0.9s1.2-0.3,1.9-0.3
		s1.4,0.1,2,0.4c0.6,0.2,1.1,0.6,1.5,1s0.7,1,0.9,1.6s0.3,1.3,0.3,2.1c0,1.2-0.2,2.3-0.5,3.3c-0.4,1-0.9,1.9-1.5,2.6
		c-0.6,0.8-1.4,1.4-2.3,1.8c-0.9,0.5-1.9,0.8-3,0.9l-0.4-0.8c1.5-0.4,2.6-1.1,3.4-2.1c0.8-1,1.3-2.2,1.5-3.6
		c-0.2,0.3-0.6,0.6-0.9,0.8c-0.4,0.2-0.9,0.3-1.5,0.3c-0.5,0-1.1-0.1-1.5-0.2s-0.9-0.4-1.3-0.8c-0.4-0.3-0.6-0.8-0.9-1.2
		C549.3,252.4,549.1,251.7,549.1,251.1z M552,250.9c0,0.4,0,0.7,0.1,1s0.2,0.6,0.4,0.9c0.2,0.3,0.4,0.5,0.6,0.6
		c0.2,0.1,0.5,0.2,0.9,0.2s0.7-0.1,1-0.2c0.3-0.1,0.5-0.3,0.7-0.6c0-0.2,0-0.4,0.1-0.6c0-0.2,0-0.5,0-0.7c0-0.5,0-1-0.1-1.4
		s-0.2-0.8-0.3-1.2c-0.2-0.3-0.3-0.6-0.6-0.8c-0.2-0.2-0.5-0.3-0.9-0.3c-0.6,0-1.1,0.3-1.4,0.8C552.1,249.2,552,249.9,552,250.9z"/>
	<path class="st6" d="M575.6,260.2h-4.8v-0.7c0.1-0.1,0.3-0.2,0.4-0.2c0.2-0.1,0.3-0.2,0.5-0.2v-3.8c0-0.6,0-1.1,0-1.5
		s-0.1-0.7-0.2-1s-0.2-0.5-0.4-0.6s-0.4-0.2-0.7-0.2c-0.4,0-0.8,0.2-1.1,0.5s-0.5,0.7-0.7,1.2v5.3c0.3,0.1,0.7,0.3,1,0.5v0.7h-4.9
		v-0.7c0.2-0.1,0.4-0.2,0.6-0.2c0.2-0.1,0.4-0.1,0.7-0.2v-7l-1.3-0.2v-0.7c0.2-0.1,0.5-0.2,0.8-0.2s0.6-0.1,0.9-0.2
		c0.3-0.1,0.6-0.1,0.9-0.1s0.5-0.1,0.8-0.1h0.6v2.1l0,0c0.2-0.6,0.6-1.1,1.1-1.5s1.1-0.6,1.9-0.6c0.3,0,0.6,0,0.9,0.1
		s0.6,0.2,0.8,0.4s0.5,0.4,0.6,0.7s0.3,0.7,0.4,1.2c0.2-0.7,0.6-1.3,1.1-1.7s1.2-0.6,1.9-0.6c0.5,0,0.9,0.1,1.2,0.2
		c0.4,0.1,0.7,0.3,0.9,0.6s0.4,0.7,0.6,1.2s0.2,1.2,0.2,2v4.5c0.4,0.1,0.8,0.2,1.3,0.5v0.7h-4.9v-0.7c0.3-0.2,0.6-0.3,1-0.5v-4.1
		c0-1-0.1-1.7-0.3-2.2s-0.6-0.7-1.2-0.7c-0.5,0-0.8,0.2-1.1,0.5s-0.5,0.8-0.6,1.4v5.1c0.2,0.1,0.4,0.1,0.6,0.2s0.3,0.2,0.5,0.2
		V260.2L575.6,260.2z"/>
	<path class="st6" d="M587.7,260.2h-5.2v-0.7c0.2-0.1,0.4-0.2,0.6-0.3c0.2-0.1,0.4-0.1,0.7-0.2v-7l-1.3-0.2V251
		c0.2-0.1,0.4-0.2,0.7-0.2s0.6-0.1,0.9-0.2s0.6-0.1,0.9-0.2c0.3,0,0.6-0.1,0.8-0.1h0.6v8.5c0.3,0.1,0.5,0.1,0.7,0.2s0.4,0.2,0.6,0.3
		V260.2L587.7,260.2z M583.4,247.6c0-0.4,0.2-0.8,0.5-1c0.3-0.3,0.7-0.4,1.2-0.4s0.9,0.1,1.2,0.4c0.3,0.3,0.5,0.6,0.5,1
		s-0.2,0.8-0.5,1c-0.3,0.3-0.7,0.4-1.2,0.4s-0.9-0.1-1.2-0.4C583.5,248.4,583.4,248.1,583.4,247.6z"/>
	<path class="st6" d="M594,260.2h-5.2v-0.7c0.4-0.2,0.8-0.4,1.3-0.5v-11.5l-1.4-0.2v-0.7c0.2-0.1,0.4-0.2,0.7-0.2
		c0.3-0.1,0.6-0.1,0.9-0.2c0.3-0.1,0.7-0.1,1-0.2s0.6-0.1,0.9-0.1h0.6V259c0.4,0.1,0.8,0.3,1.3,0.5L594,260.2L594,260.2L594,260.2z"
		/>
	<path class="st6" d="M603.7,258.7c-0.1,0.2-0.3,0.4-0.5,0.7s-0.5,0.4-0.8,0.6s-0.7,0.3-1.1,0.4c-0.4,0.1-0.9,0.2-1.4,0.2
		c-0.8,0-1.5-0.1-2.1-0.4c-0.6-0.2-1.1-0.6-1.5-1s-0.7-1-0.9-1.6s-0.3-1.3-0.3-2.1c0-1.6,0.4-2.9,1.3-3.7s2-1.3,3.5-1.3
		c0.6,0,1.2,0.1,1.8,0.3s1,0.5,1.4,0.9s0.6,0.9,0.8,1.6c0.1,0.7,0.1,1.5,0,2.4h-5.8c0,1,0.3,1.8,0.8,2.4s1.2,0.9,2.2,0.9
		c0.4,0,0.9-0.1,1.3-0.2c0.4-0.1,0.8-0.3,1.1-0.5L603.7,258.7z M599.7,251.6c-0.3,0-0.5,0-0.7,0.1s-0.4,0.3-0.5,0.5
		s-0.3,0.6-0.3,0.9c-0.1,0.4-0.2,0.9-0.2,1.5h3c0.1-1,0-1.7-0.2-2.3C600.7,251.9,600.3,251.6,599.7,251.6z"/>
	<path class="st6" d="M610.1,258.2c0-0.3-0.1-0.6-0.4-0.9c-0.2-0.2-0.5-0.5-0.9-0.7c-0.3-0.2-0.7-0.4-1.1-0.6
		c-0.4-0.2-0.8-0.4-1.1-0.7s-0.6-0.6-0.9-1s-0.4-0.8-0.4-1.3c0-0.4,0.1-0.7,0.3-1s0.4-0.6,0.7-0.8s0.7-0.4,1.1-0.5s0.9-0.2,1.4-0.2
		c0.7,0,1.3,0.1,1.9,0.2s1.1,0.3,1.5,0.4c-0.1,0.4-0.2,0.8-0.3,1.3c-0.2,0.5-0.3,0.9-0.4,1.3h-0.6l-0.8-1.9
		c-0.2-0.1-0.3-0.1-0.5-0.1s-0.3,0-0.6,0c-0.4,0-0.7,0.1-0.9,0.3s-0.3,0.5-0.3,0.8s0.1,0.6,0.4,0.8c0.3,0.2,0.5,0.5,0.9,0.7
		c0.3,0.2,0.7,0.4,1.1,0.6c0.4,0.2,0.8,0.4,1.1,0.7s0.6,0.6,0.9,0.9c0.3,0.3,0.4,0.8,0.4,1.3c0,0.9-0.4,1.6-1.1,2.1
		c-0.7,0.5-1.7,0.8-2.9,0.8c-0.6,0-1.2-0.1-1.9-0.2c-0.6-0.1-1.2-0.3-1.7-0.5c0-0.5,0.1-0.9,0.3-1.4s0.4-0.9,0.6-1.3h0.6l0.9,2.1
		c0.1,0.1,0.3,0.2,0.5,0.2s0.3,0,0.5,0c0.4,0,0.7-0.1,1-0.3C610,258.9,610.1,258.6,610.1,258.2z"/>
</g>
<path class="st7" d="M691.2,197.1l-20.5,0.1c-2.8-2.8-4.4-4.4-7.2-7.2v-17.4c2.8-2.8,4.4-4.4,7.2-7.2l20.5-0.1
	c2.8,2.8,4.4,4.4,7.2,7.2v17.4C695.6,192.7,694,194.2,691.2,197.1z"/>
<path class="st8" d="M691.2,197.1l-20.5,0.1c-2.8-2.8-4.4-4.4-7.2-7.2v-17.4c2.8-2.8,4.4-4.4,7.2-7.2l20.5-0.1
	c2.8,2.8,4.4,4.4,7.2,7.2v17.4C695.6,192.7,694,194.2,691.2,197.1z"/>
<g>
	<rect x="660.1" y="175.4" class="st2" width="41.5" height="30.5"/>
	<path class="st9" d="M668.3,185.9c0.4,0,0.7,0,0.9,0s0.4-0.1,0.5-0.2c0.1-0.1,0.2-0.3,0.3-0.6s0.1-0.7,0.1-1.2v-5.2
		c0-0.3,0-0.6-0.1-0.8c0-0.2-0.1-0.4-0.2-0.5s-0.3-0.2-0.5-0.2s-0.5-0.1-0.8-0.1v-0.3c1.2-0.1,2.3-0.4,3.3-0.8v7.8
		c0,0.5,0,0.9,0.1,1.2c0,0.3,0.1,0.5,0.3,0.6c0.1,0.1,0.3,0.2,0.5,0.2s0.5,0,0.8,0v0.3c-0.4,0-0.9,0-1.3,0s-0.8,0-1.3,0
		c-0.4,0-0.9,0-1.3,0s-0.9,0-1.3,0V185.9z"/>
	<path class="st9" d="M678.6,180.2L678.6,180.2c0.1,0,0.2,0,0.3,0s0.2,0,0.3,0c1,0,1.7,0.2,2.1,0.8c0.4,0.5,0.7,1.2,0.7,2.1
		c0,0.6-0.1,1-0.3,1.4s-0.5,0.8-0.9,1c-0.4,0.3-0.8,0.5-1.2,0.6c-0.5,0.1-1,0.2-1.5,0.2c-0.4,0-0.8,0-1.1-0.1s-0.6-0.2-0.9-0.4
		s-0.5-0.4-0.6-0.7s-0.2-0.6-0.2-0.9c0-0.3,0.1-0.5,0.3-0.7s0.4-0.3,0.7-0.3s0.5,0.1,0.7,0.2c0.2,0.2,0.3,0.3,0.3,0.6
		c0,0.2,0,0.4-0.1,0.5c0,0.1-0.1,0.2-0.1,0.3s0.1,0.2,0.1,0.4c0.1,0.1,0.1,0.2,0.2,0.4s0.2,0.2,0.4,0.3s0.4,0.1,0.6,0.1
		c0.5,0,0.9-0.2,1.2-0.7s0.4-1.1,0.4-1.8s-0.1-1.3-0.4-1.7c-0.2-0.4-0.6-0.7-1.1-0.7c-0.2,0-0.4,0.1-0.6,0.2
		c-0.2,0.1-0.4,0.3-0.5,0.4l-0.4-0.3l2.8-3.5h-2.1c-0.3,0-0.5,0-0.6,0.1s-0.3,0.1-0.4,0.2c-0.1,0.1-0.2,0.2-0.3,0.4
		s-0.2,0.4-0.3,0.7h-0.3l0.6-3c0.4,0,0.9,0,1.3,0s0.9,0,1.3,0c0.5,0,1,0,1.4,0c0.5,0,0.9,0,1.4,0l0.1,0.3L678.6,180.2z"/>
	<path class="st9" d="M684.6,183.7c0.3,0,0.6,0.1,0.8,0.3s0.3,0.5,0.3,0.8s-0.1,0.6-0.3,0.8s-0.5,0.3-0.8,0.3s-0.6-0.1-0.8-0.3
		s-0.3-0.5-0.3-0.8s0.1-0.6,0.3-0.8C684,183.9,684.3,183.7,684.6,183.7z"/>
	<path class="st9" d="M686.9,185.9c0.8,0,1.4-0.1,2-0.3s1-0.4,1.4-0.8s0.7-0.8,0.9-1.3s0.4-1.1,0.5-1.8c-0.3,0.2-0.6,0.3-0.9,0.4
		s-0.7,0.1-1,0.1c-0.4,0-0.8-0.1-1.2-0.2c-0.4-0.2-0.7-0.4-0.9-0.7s-0.4-0.6-0.6-1s-0.2-0.8-0.2-1.2c0-0.5,0.1-0.9,0.3-1.3
		s0.4-0.7,0.7-0.9s0.6-0.5,1-0.6s0.8-0.2,1.3-0.2c0.6,0,1.1,0.1,1.6,0.3c0.4,0.2,0.8,0.5,1.1,0.9s0.5,0.8,0.6,1.3s0.2,1,0.2,1.5
		c0,1.1-0.2,2.1-0.5,2.9c-0.3,0.8-0.7,1.4-1.3,1.9s-1.3,0.9-2.1,1.1c-0.8,0.2-1.8,0.3-2.9,0.3L686.9,185.9L686.9,185.9z
		 M691.8,179.4c0-0.5,0-0.9-0.1-1.2c-0.1-0.4-0.2-0.6-0.4-0.9c-0.2-0.2-0.3-0.4-0.5-0.5s-0.4-0.2-0.6-0.2s-0.4,0.1-0.6,0.2
		s-0.3,0.3-0.4,0.5s-0.2,0.5-0.2,0.7c0,0.3-0.1,0.6-0.1,0.9c0,0.8,0.1,1.4,0.4,1.9c0.3,0.4,0.6,0.7,1.1,0.7c0.3,0,0.5-0.1,0.7-0.2
		c0.2-0.1,0.3-0.3,0.5-0.4c0.1-0.2,0.2-0.4,0.3-0.7C691.7,179.9,691.8,179.7,691.8,179.4z"/>
</g>
<circle class="st6" cx="631.1" cy="296.9" r="8.7"/>
<circle class="st6" cx="684.2" cy="296.9" r="8.7"/>
<path class="st10" d="M702.7,272.5h-10.2v-19.8c0-8-5.5-14.6-12.3-14.6h-50.8c-6.8,0-12.3,6.6-12.3,14.6v19h-7.2
	c-6.8,0-12.3,6.6-12.3,14.6v1.6c0,8,5.5,14.6,12.3,14.6h9.6c0-0.2,0-0.4,0-0.6c0-6.8,5-12.3,11.3-12.3c6.2,0,11.3,5.5,11.3,12.3
	c0,0.5,0,1-0.1,1.4h31.8c0-0.4-0.1-0.8-0.1-1.2c0-6.8,5-12.3,11.3-12.3c6.2,0,11.3,5.5,11.3,12.3c0,0.4,0,0.8-0.1,1.2h6.5
	c6.8,0,12.3-6.6,12.3-14.6v-1.6C715,279,709.5,272.5,702.7,272.5z"/>
<rect x="712.9" y="9.2" class="st11" width="109.5" height="218.5"/>
<rect x="729.2" y="23.8" class="st12" width="29.7" height="29.7"/>
<rect x="773.6" y="23.8" class="st12" width="29.7" height="29.7"/>
<rect x="729.2" y="64.4" class="st12" width="29.7" height="29.7"/>
<rect x="773.6" y="64.4" class="st12" width="29.7" height="29.7"/>
<rect x="729.2" y="106.2" class="st12" width="29.7" height="29.7"/>
<rect x="773.6" y="106.2" class="st12" width="29.7" height="29.7"/>
<rect x="729.2" y="150.1" class="st12" width="29.7" height="29.7"/>
<rect x="773.6" y="150.1" class="st12" width="29.7" height="29.7"/>
<g>
	<rect x="30.6" y="142.4" class="st11" width="92.7" height="84.7"/>
	<polygon class="st11" points="12,154.2 140.2,154.2 74.9,104.9 	"/>
	<rect x="30.6" y="114.4" class="st11" width="15.3" height="42.3"/>
	<rect x="55.9" y="175.7" class="st12" width="28" height="51.3"/>
</g>
<rect x="89.6" y="175.7" class="st12" width="23.7" height="23.7"/>
</svg>
