<?xml version="1.0" encoding="utf-8"?>
<!-- Generator: Adobe Illustrator 19.2.1, SVG Export Plug-In . SVG Version: 6.00 Build 0)  -->
<svg version="1.1" id="Layer_1" xmlns="http://www.w3.org/2000/svg" xmlns:xlink="http://www.w3.org/1999/xlink" x="0px" y="0px"
	 width="864px" height="360px" viewBox="0 0 864 360" style="enable-background:new 0 0 864 360;" xml:space="preserve">
<style type="text/css">
	.st0{fill:#D7A17D;}
	.st1{fill:#DE573D;}
	.st2{fill:#659F9C;}
	.st3{fill:none;}
	.st4{fill:#FFFFFF;}
	.st5{fill:none;stroke:#4D7E7A;stroke-width:1.3069;stroke-miterlimit:10;}
	.st6{opacity:0.75;fill:#6AB445;enable-background:new    ;}
	.st7{fill:#E8E7E8;}
	.st8{fill:#754E2A;}
	.st9{fill:#FFFFFF;stroke:#272661;stroke-miterlimit:10;}
	.st10{fill:#4D7E7A;}
	.st11{fill:#E5252A;}
	.st12{fill:#F36D26;}
	.st13{fill:none;stroke:#272661;stroke-width:2;stroke-linecap:round;stroke-miterlimit:10;}
</style>
<g id="Gasoline">
	<path class="st0" d="M406.3,212.8c-12.9-6-10.5-32.3-7.6-49.2c19.5-59.4,8.2-119.1-31.6-117.8c-115,3.7-122-51.7-177.9-27
		c-5.1,0.6-9-0.3-10.5-0.8c-0.8-1-1.1-1.9-2.4-0.7c-0.5,0.5-1.7,1.5-1.9,2.1c-0.1,0.1,0,0.3-0.1,0.4c-1.2,0.6-2,1.5-2.4,2.8
		l-0.1,0.1c-0.7,1.2,0.1,0.1,0.1,0.1c-0.7,2.4,0.1,5.7,2.5,9.5c-2.8,4.9-5.2,10.9-7.1,17.9c-0.8,1.2-0.3,1.6-0.3,1.6l-0.1,0.1
		c-14.4,56.5-32.8,172.3,11.9,227l209.6,2.8c-5.5-3.3,0.8-8.6,4.8-16.8c3.3-6.8,8.5-12.5,15-16.2l0,0
		C408.2,248.6,425.5,221.7,406.3,212.8z"/>
	<path class="st1" d="M53.5,18.4v116.1c0,3.5,2.9,6.4,6.4,6.4H140c3.5,0,6.4-2.9,6.4-6.4V58.4l-40-46.4H59.9
		C56.4,12,53.5,14.9,53.5,18.4z M101.3,22.1L63.1,52.2C63.1,52.3,46.5,6.5,101.3,22.1z"/>
	
		<rect x="124.9" y="17.1" transform="matrix(0.7589 -0.6512 0.6512 0.7589 11.1122 92.757)" class="st2" width="11.8" height="28.5"/>
	<path class="st2" d="M178.2,15.2l-7,8.6c0,0-15-10.7-33.3,8.6l-8-8.6C129.8,23.8,149.1-3.1,178.2,15.2z"/>
	<path class="st1" d="M339.8,164.8v40.5c0,1.2,1,2.2,2.2,2.2h28c1.2,0,2.2-1,2.2-2.2v-26.5l-13.9-16.3h-16.2
		C340.9,162.5,339.8,163.6,339.8,164.8z M356.5,166.1l-13.3,10.4C343.2,176.6,337.4,160.7,356.5,166.1z"/>
	
		<rect x="364.9" y="164.3" transform="matrix(0.7589 -0.6512 0.6512 0.7589 -21.7345 279.7473)" class="st2" width="4.1" height="9.9"/>
	<path class="st2" d="M383,164.5l-2.4,3c0,0-5.3-3.7-11.6,3l-2.8-3C366.1,167.5,372.9,158.2,383,164.5z"/>
	<path class="st1" d="M290.2,164.8v40.5c0,1.2,1,2.2,2.2,2.2h27.9c1.2,0,2.2-1,2.2-2.2v-26.5l-13.9-16.3h-16.2
		C291.1,162.5,290.2,163.6,290.2,164.8z M306.8,166.1l-13.3,10.4C293.5,176.6,287.7,160.7,306.8,166.1z"/>
	
		<rect x="315.2" y="164.3" transform="matrix(0.7589 -0.6512 0.6512 0.7589 -33.7242 247.3853)" class="st1" width="4.1" height="9.9"/>
	<path class="st2" d="M333.5,163.6l-2.4,3c0,0-5.3-3.7-11.6,3l-2.8-3C316.7,166.6,323.4,157.3,333.5,163.6z"/>
	<path class="st1" d="M244,163.9v40.5c0,1.2,1,2.2,2.2,2.2h27.9c1.2,0,2.2-1,2.2-2.2v-26.5l-13.9-16.1h-16.2
		C245,161.6,244,162.7,244,163.9z M260.7,165.2l-13.3,10.5C247.4,175.7,241.5,159.8,260.7,165.2z"/>
	
		<rect x="269" y="163.4" transform="matrix(0.7589 -0.6512 0.6512 0.7589 -44.286 217.0725)" class="st2" width="4.1" height="9.9"/>
	<path class="st2" d="M287.4,162.7l-2.4,3c0,0-5.3-3.7-11.6,3l-2.8-3C270.6,165.8,277.3,156.4,287.4,162.7z"/>
	<path class="st1" d="M194.3,164.8v40.5c0,1.2,1,2.2,2.2,2.2h27.9c1.2,0,2.2-1,2.2-2.2v-26.5l-13.9-16.3h-16.2
		C195.3,162.5,194.3,163.6,194.3,164.8z M210.9,166.1l-13.3,10.4C197.7,176.6,191.9,160.7,210.9,166.1z"/>
	
		<rect x="219.3" y="164.3" transform="matrix(0.7589 -0.6512 0.6512 0.7589 -56.8637 184.9546)" class="st2" width="4.1" height="9.9"/>
	<path class="st2" d="M237.7,163.6l-2.4,3c0,0-5.3-3.7-11.6,3l-2.8-3C220.9,166.6,227.6,157.3,237.7,163.6z"/>
	<path class="st1" d="M337.2,224.3v40.5c0,1.2,1,2.2,2.2,2.2h27.9c1.2,0,2.2-1,2.2-2.2v-26.5l-13.9-16.1h-16.2
		C338.2,222,337.2,223,337.2,224.3z M353.8,225.6l-13.3,10.5C340.5,236,334.7,220.1,353.8,225.6z"/>
	
		<rect x="362.2" y="223.8" transform="matrix(0.7589 -0.6512 0.6512 0.7589 -61.1404 292.3227)" class="st2" width="4.1" height="9.9"/>
	<path class="st2" d="M380,224l-2.4,3c0,0-5.3-3.7-11.6,3l-2.8-3C363.2,227,369.9,217.6,380,224z"/>
	<path class="st1" d="M287.5,224.3v40.5c0,1.2,1,2.2,2.2,2.2h27.9c1.2,0,2.2-1,2.2-2.2v-26.5l-13.9-16.1h-16.2
		C288.5,222,287.5,223,287.5,224.3z M304.2,225.6l-13.3,10.5C290.9,236,285,220.1,304.2,225.6z"/>
	
		<rect x="312.4" y="223.8" transform="matrix(0.7589 -0.6512 0.6512 0.7589 -73.1811 259.9167)" class="st2" width="4.1" height="9.9"/>
	<path class="st2" d="M330.9,223.1l-2.4,3c0,0-5.3-3.7-11.6,3l-2.8-3C314.1,226.1,320.8,216.8,330.9,223.1z"/>
	<path class="st1" d="M241.3,223.4v40.5c0,1.2,1,2.2,2.2,2.2h27.9c1.2,0,2.2-1,2.2-2.2v-26.5l-13.9-16.1h-16.2
		C242.4,221.1,241.3,222.1,241.3,223.4z M258,224.7l-13.3,10.5C244.7,235.1,238.9,219.3,258,224.7z"/>
	
		<rect x="266.3" y="222.9" transform="matrix(0.7589 -0.6512 0.6512 0.7589 -83.6872 229.6706)" class="st2" width="4.1" height="9.9"/>
	<path class="st2" d="M284.8,222.2l-2.4,3c0,0-5.3-3.7-11.6,3l-2.8-3C267.9,225.2,274.7,215.9,284.8,222.2z"/>
	<path class="st1" d="M191.7,224.3v40.5c0,1.2,1,2.2,2.2,2.2h27.9c1.2,0,2.2-1,2.2-2.2v-26.5l-13.9-16.1h-16.2
		C192.6,222,191.7,223,191.7,224.3z M208.3,225.6L195,236C195,236,189.2,220.1,208.3,225.6z"/>
	
		<rect x="216.6" y="223.8" transform="matrix(0.7589 -0.6512 0.6512 0.7589 -96.2697 197.53)" class="st2" width="4.1" height="9.9"/>
	<path class="st2" d="M235,223.1l-2.4,3c0,0-5.3-3.7-11.6,3l-2.8-3C218.2,226.1,224.9,216.8,235,223.1z"/>
	<g>
		<rect x="192.2" y="63.4" class="st3" width="187.2" height="92.1"/>
		<path class="st4" d="M209.3,67.4v3h4.7c0.3,0,0.6,0.1,0.6,0.5c0,0.3-0.2,0.4-0.6,0.4h-5.2c-0.3,0-0.4-0.2-0.4-0.6v-6.6
			c0-0.3,0.1-0.6,0.4-0.6h5.2c0.3,0,0.6,0.1,0.6,0.5c0,0.3-0.2,0.4-0.6,0.4h-4.7v2.1h3.3c0.4,0,0.6,0.1,0.6,0.5
			c0,0.3-0.2,0.4-0.6,0.4H209.3L209.3,67.4z"/>
		<path class="st4" d="M219.3,63.5l2.9,7.3c0,0.1,0.1,0.1,0.1,0.2s-0.1,0.3-0.1,0.3c-0.1,0.1-0.2,0.1-0.3,0.1
			c-0.2,0-0.3-0.1-0.5-0.3l-0.8-2.1h-3.4l-0.8,2.1c-0.1,0.2-0.3,0.3-0.5,0.3c-0.1,0-0.2,0-0.3-0.1s-0.1-0.1-0.1-0.3
			c0-0.1,0-0.1,0.1-0.2l2.9-7.3H219.3z M217.5,68.1h2.7l-1.4-3.3L217.5,68.1z"/>
		<path class="st4" d="M228.2,71.2h-1.7c-1.1,0-1.9-0.1-2.4-0.5c-0.5-0.3-0.7-0.9-0.7-1.8v-3.3c0-0.9,0.2-1.5,0.7-1.8
			c0.5-0.3,1.2-0.5,2.1-0.5h1.9c0.6,0,0.9,0.1,1,0.4c0.1,0.3,0.3,0.6,0.3,1.1c0,0.3-0.1,0.6-0.4,0.6c-0.1,0-0.2-0.1-0.3-0.1
			c-0.1-0.1-0.1-0.2-0.1-0.4c0-0.3-0.1-0.4-0.1-0.5c-0.1-0.1-0.2-0.1-0.4-0.1h-1.9c-0.8,0-1.3,0.1-1.6,0.3s-0.4,0.6-0.4,1.2V69
			c0,0.6,0.1,1,0.4,1.2c0.3,0.2,0.9,0.2,1.8,0.2h1.7c0.2,0,0.3-0.1,0.4-0.1c0.1-0.1,0.1-0.3,0.1-0.5s0.1-0.3,0.1-0.4
			c0.1-0.1,0.2-0.1,0.3-0.1c0.3,0,0.4,0.2,0.4,0.6s-0.1,0.8-0.3,1C229.1,71,228.7,71.2,228.2,71.2z"/>
		<path class="st4" d="M232.1,70.8c0,0.3-0.1,0.5-0.4,0.5c-0.3,0-0.4-0.1-0.4-0.5v-6.9c0-0.3,0.1-0.6,0.4-0.6c0.3,0,0.5,0.2,0.5,0.6
			v2.7h4.4v-2.7c0-0.3,0.1-0.6,0.4-0.6s0.5,0.2,0.5,0.6v6.9c0,0.3-0.1,0.5-0.4,0.5s-0.5-0.1-0.5-0.5v-3.3h-4.4L232.1,70.8
			L232.1,70.8z"/>
		<path class="st4" d="M247.7,68.4h-1.5c-0.4,0-0.6-0.1-0.6-0.4s0.2-0.5,0.6-0.5h2.4v2.4c0,0.4-0.1,0.8-0.3,1
			c-0.2,0.3-0.6,0.4-1,0.4h-1.9c-1,0-1.7-0.1-2.1-0.5c-0.4-0.3-0.7-0.9-0.7-1.7v-3.3c0-0.9,0.2-1.5,0.7-1.7c0.5-0.2,1.2-0.4,2.4-0.4
			h1.7c0.6,0,0.9,0.1,1,0.4c0.1,0.3,0.3,0.6,0.3,1c0,0.3-0.1,0.6-0.4,0.6s-0.4-0.2-0.4-0.6c0-0.3-0.1-0.4-0.1-0.5
			c-0.1-0.1-0.2-0.1-0.4-0.1h-1.7c-0.9,0-1.5,0.1-1.8,0.2s-0.4,0.6-0.4,1.1v3.3c0,0.6,0.1,1,0.4,1.1c0.3,0.1,0.8,0.2,1.6,0.2h1.9
			c0.2,0,0.3-0.1,0.4-0.1c0.1-0.1,0.1-0.2,0.1-0.5L247.7,68.4L247.7,68.4z"/>
		<path class="st4" d="M253.7,63.5l2.9,7.3c0,0.1,0.1,0.1,0.1,0.2s-0.1,0.3-0.1,0.3c-0.1,0.1-0.2,0.1-0.3,0.1
			c-0.2,0-0.3-0.1-0.5-0.3L255,69h-3.4l-0.8,2.1c-0.1,0.2-0.3,0.3-0.5,0.3c-0.1,0-0.2,0-0.3-0.1s-0.1-0.1-0.1-0.3
			c0-0.1,0-0.1,0.1-0.2l2.9-7.3H253.7z M251.8,68.1h2.7l-1.4-3.3L251.8,68.1z"/>
		<path class="st4" d="M258.3,71.2c-0.3,0-0.4-0.2-0.4-0.6v-6.8c0-0.1,0.1-0.3,0.1-0.3c0.1-0.1,0.2-0.1,0.3-0.1
			c0.1,0,0.2,0.1,0.3,0.1c0.1,0.1,0.1,0.2,0.1,0.3v6.4h4.1c0.3,0,0.6,0.1,0.6,0.5c0,0.3-0.2,0.4-0.6,0.4L258.3,71.2L258.3,71.2z"/>
		<path class="st4" d="M265,71.2c-0.3,0-0.4-0.2-0.4-0.6v-6.8c0-0.1,0.1-0.3,0.1-0.3c0.1-0.1,0.2-0.1,0.3-0.1s0.2,0.1,0.3,0.1
			c0.1,0.1,0.1,0.2,0.1,0.3v6.4h4.1c0.3,0,0.6,0.1,0.6,0.5c0,0.3-0.2,0.4-0.6,0.4L265,71.2L265,71.2z"/>
		<path class="st4" d="M274,71.4c-0.9,0-1.7-0.3-2.2-0.8c-0.6-0.5-0.8-1.2-0.8-2.1v-2.1c0-0.9,0.3-1.6,0.8-2.1
			c0.6-0.6,1.3-0.8,2.2-0.8s1.7,0.3,2.2,0.8c0.6,0.5,0.8,1.2,0.8,2.1v2.1c0,0.9-0.3,1.6-0.8,2.1C275.7,71.2,274.9,71.4,274,71.4z
			 M275.6,64.8c-0.3-0.3-0.9-0.6-1.7-0.6s-1.2,0.2-1.7,0.6c-0.4,0.3-0.6,0.9-0.6,1.5v2.1c0,0.7,0.2,1.2,0.6,1.5s0.9,0.6,1.7,0.6
			s1.2-0.2,1.7-0.6c0.4-0.3,0.6-0.9,0.6-1.5v-2.1C276.2,65.7,276,65.1,275.6,64.8z"/>
		<path class="st4" d="M284.6,71.3c-0.2,0-0.3,0-0.3-0.1l-4.5-6.3v5.9c0,0.3-0.1,0.5-0.4,0.5s-0.4-0.1-0.4-0.5v-6.9
			c0-0.3,0.1-0.6,0.4-0.6c0.2,0,0.3,0.1,0.5,0.3l4.4,6.1v-5.8c0-0.3,0.1-0.6,0.4-0.6s0.5,0.2,0.5,0.6v6.9
			C285,71.2,284.9,71.3,284.6,71.3z"/>
		<path class="st4" d="M293.1,71.4c-0.9,0-1.7-0.3-2.2-0.8c-0.6-0.5-0.8-1.2-0.8-2.1v-2.1c0-0.9,0.3-1.6,0.8-2.1
			c0.6-0.6,1.3-0.8,2.2-0.8c0.9,0,1.7,0.3,2.2,0.8c0.6,0.5,0.8,1.2,0.8,2.1v2.1c0,0.9-0.3,1.6-0.8,2.1S294,71.4,293.1,71.4z
			 M294.7,64.8c-0.3-0.3-0.9-0.6-1.7-0.6c-0.8,0-1.2,0.2-1.7,0.6c-0.4,0.3-0.6,0.9-0.6,1.5v2.1c0,0.7,0.2,1.2,0.6,1.5
			c0.3,0.3,0.9,0.6,1.7,0.6c0.8,0,1.2-0.2,1.7-0.6s0.6-0.9,0.6-1.5v-2.1C295.2,65.7,295.1,65.1,294.7,64.8z"/>
		<path class="st4" d="M298.8,70.8c0,0.3-0.1,0.5-0.4,0.5s-0.4-0.2-0.4-0.6v-6.8c0-0.3,0.1-0.6,0.4-0.6h5.2c0.3,0,0.6,0.1,0.6,0.5
			c0,0.3-0.2,0.4-0.6,0.4h-4.7v2.1h3.3c0.4,0,0.6,0.1,0.6,0.5c0,0.3-0.2,0.4-0.6,0.4h-3.3L298.8,70.8L298.8,70.8z"/>
		<path class="st4" d="M313.7,68.4h-1.5c-0.4,0-0.6-0.1-0.6-0.4s0.2-0.5,0.6-0.5h2.4v2.4c0,0.4-0.1,0.8-0.3,1s-0.6,0.4-1,0.4h-1.9
			c-1,0-1.7-0.1-2.1-0.5c-0.4-0.3-0.7-0.9-0.7-1.7v-3.3c0-0.9,0.2-1.5,0.7-1.7c0.5-0.2,1.2-0.4,2.4-0.4h1.7c0.6,0,0.9,0.1,1,0.4
			c0.1,0.3,0.3,0.6,0.3,1c0,0.3-0.1,0.6-0.4,0.6s-0.4-0.2-0.4-0.6c0-0.3-0.1-0.4-0.1-0.5c-0.1-0.1-0.2-0.1-0.4-0.1h-1.7
			c-0.9,0-1.5,0.1-1.8,0.2s-0.4,0.6-0.4,1.1v3.3c0,0.6,0.1,1,0.4,1.1s0.8,0.2,1.6,0.2h1.9c0.2,0,0.3-0.1,0.4-0.1
			c0.1-0.1,0.1-0.2,0.1-0.5L313.7,68.4L313.7,68.4z"/>
		<path class="st4" d="M319.6,63.5l2.9,7.3c0,0.1,0.1,0.1,0.1,0.2s-0.1,0.3-0.1,0.3c-0.1,0.1-0.2,0.1-0.3,0.1
			c-0.2,0-0.3-0.1-0.5-0.3l-0.8-2.1h-3.4l-0.8,2.1c-0.1,0.2-0.3,0.3-0.5,0.3c-0.1,0-0.2,0-0.3-0.1c-0.1-0.1-0.1-0.1-0.1-0.3
			c0-0.1,0-0.1,0.1-0.2l2.9-7.3H319.6z M317.8,68.1h2.7l-1.4-3.3L317.8,68.1z"/>
		<path class="st4" d="M324.5,65.5c0,0.3,0.1,0.6,0.2,0.8s0.3,0.3,0.4,0.3l3.3,0.6c0.6,0.1,1,0.3,1.2,0.8c0.2,0.4,0.4,0.8,0.4,1.4
			s-0.2,1-0.6,1.5c-0.3,0.4-1,0.6-1.7,0.6h-1.2c-1,0-1.9-0.1-2.4-0.5c-0.5-0.3-0.7-0.9-0.7-1.9c0-0.3,0.1-0.6,0.5-0.6
			c0.1,0,0.2,0.1,0.3,0.1c0.1,0.1,0.1,0.2,0.1,0.3c0,0.6,0.1,1,0.4,1.2s0.8,0.3,1.7,0.3h1.5c0.4,0,0.7-0.1,0.9-0.4
			c0.2-0.3,0.3-0.6,0.3-0.8c0-0.3-0.1-0.6-0.2-0.9s-0.3-0.3-0.4-0.3l-3.3-0.6c-0.6-0.1-1-0.3-1.3-0.6c-0.3-0.3-0.4-0.8-0.4-1.3
			c0-0.3,0.1-0.5,0.1-0.7s0.2-0.4,0.4-0.6c0.2-0.2,0.4-0.3,0.8-0.5c0.3-0.1,0.8-0.2,1.2-0.2h0.9c0.6,0,1,0,1.3,0.1s0.7,0.1,1,0.3
			c0.3,0.2,0.5,0.4,0.6,0.7s0.2,0.7,0.2,1.2c0,0.2-0.1,0.3-0.1,0.4c-0.1,0.1-0.2,0.1-0.3,0.1c-0.1,0-0.2-0.1-0.3-0.1
			c-0.1-0.1-0.1-0.2-0.1-0.3c0-0.6-0.1-1-0.4-1.2s-0.9-0.2-1.8-0.2h-1.3c-0.5,0-0.8,0.1-1,0.3C324.6,64.9,324.5,65.2,324.5,65.5z"/>
		<path class="st4" d="M334.7,71.4c-0.9,0-1.7-0.3-2.2-0.8c-0.6-0.5-0.8-1.2-0.8-2.1v-2.1c0-0.9,0.3-1.6,0.8-2.1
			c0.6-0.6,1.3-0.8,2.2-0.8c0.9,0,1.7,0.3,2.2,0.8c0.6,0.5,0.8,1.2,0.8,2.1v2.1c0,0.9-0.3,1.6-0.8,2.1S335.6,71.4,334.7,71.4z
			 M336.3,64.8c-0.3-0.3-0.9-0.6-1.7-0.6c-0.8,0-1.2,0.2-1.7,0.6c-0.4,0.3-0.6,0.9-0.6,1.5v2.1c0,0.7,0.2,1.2,0.6,1.5
			c0.3,0.3,0.9,0.6,1.7,0.6c0.8,0,1.2-0.2,1.7-0.6s0.6-0.9,0.6-1.5v-2.1C336.9,65.7,336.7,65.1,336.3,64.8z"/>
		<path class="st4" d="M340,71.2c-0.3,0-0.4-0.2-0.4-0.6v-6.8c0-0.1,0.1-0.3,0.1-0.3c0.1-0.1,0.2-0.1,0.3-0.1c0.1,0,0.2,0.1,0.3,0.1
			c0.1,0.1,0.1,0.2,0.1,0.3v6.4h4.1c0.3,0,0.6,0.1,0.6,0.5c0,0.3-0.2,0.4-0.6,0.4L340,71.2L340,71.2z"/>
		<path class="st4" d="M347.2,70.8c0,0.3-0.1,0.5-0.5,0.5c-0.3,0-0.4-0.1-0.4-0.5v-6.9c0-0.3,0.1-0.5,0.4-0.5s0.4,0.1,0.4,0.5
			L347.2,70.8L347.2,70.8z"/>
		<path class="st4" d="M354.9,71.3c-0.2,0-0.3,0-0.3-0.1l-4.5-6.3v5.9c0,0.3-0.1,0.5-0.4,0.5s-0.4-0.1-0.4-0.5v-6.9
			c0-0.3,0.1-0.6,0.4-0.6c0.2,0,0.3,0.1,0.5,0.3l4.4,6.1v-5.8c0-0.3,0.1-0.6,0.4-0.6s0.5,0.2,0.5,0.6v6.9
			C355.4,71.2,355.2,71.3,354.9,71.3z"/>
		<path class="st4" d="M358.3,67.4v3h4.7c0.3,0,0.6,0.1,0.6,0.5c0,0.3-0.2,0.4-0.6,0.4h-5.2c-0.3,0-0.4-0.2-0.4-0.6v-6.6
			c0-0.3,0.1-0.6,0.4-0.6h5.2c0.3,0,0.6,0.1,0.6,0.5c0,0.3-0.2,0.4-0.6,0.4h-4.7v2.1h3.3c0.4,0,0.6,0.1,0.6,0.5
			c0,0.3-0.2,0.4-0.6,0.4H358.3L358.3,67.4z"/>
		<path class="st4" d="M200.7,86.1v-6.6c0-0.3,0.1-0.6,0.4-0.6h2.3c1,0,1.7,0.1,2.2,0.4s0.7,0.8,0.7,1.5c0,0.6-0.1,1-0.5,1.4
			c0.7,0.3,1,1,1,2v0.3c0,0.9-0.2,1.5-0.7,1.8s-1.2,0.5-2.4,0.5h-2.6C200.8,86.7,200.7,86.5,200.7,86.1z M203.4,82
			c0.8,0,1.3-0.1,1.6-0.2s0.4-0.4,0.4-0.9c0-0.4-0.1-0.8-0.4-0.9c-0.3-0.1-0.8-0.2-1.6-0.2h-1.8V82H203.4L203.4,82z M203.9,82.9
			h-2.4v2.9h2.2c0.9,0,1.5-0.1,1.7-0.2c0.3-0.1,0.4-0.6,0.4-1.1v-0.2c0-0.6-0.1-1-0.4-1.1S204.7,82.9,203.9,82.9z"/>
		<path class="st4" d="M213.7,79.3c0-0.3,0.1-0.5,0.5-0.5c0.3,0,0.4,0.1,0.4,0.5v4.5c0,0.9-0.3,1.6-0.8,2.1
			c-0.6,0.6-1.3,0.8-2.2,0.8s-1.7-0.3-2.2-0.8c-0.6-0.5-0.8-1.2-0.8-2.1v-4.5c0-0.3,0.1-0.5,0.4-0.5c0.1,0,0.2,0.1,0.3,0.1
			c0.1,0.1,0.1,0.2,0.1,0.3v4.5c0,0.7,0.2,1.2,0.6,1.5c0.3,0.3,0.9,0.6,1.7,0.6s1.2-0.2,1.7-0.6c0.4-0.3,0.6-0.9,0.6-1.5L213.7,79.3
			L213.7,79.3z"/>
		<path class="st4" d="M220.8,82.6c0.3,0.3,0.5,0.8,0.8,1.4s0.4,1.1,0.5,1.5s0.1,0.7,0.1,0.8c0,0.1-0.1,0.3-0.1,0.3
			c-0.1,0.1-0.2,0.1-0.3,0.1s-0.2-0.1-0.3-0.1c-0.1-0.1-0.1-0.2-0.1-0.3s-0.1-0.4-0.2-0.8c-0.1-0.4-0.3-0.9-0.6-1.5s-0.6-1-1-1.2
			h-2.3v3.5c0,0.3-0.1,0.5-0.5,0.5c-0.3,0-0.4-0.1-0.4-0.5v-6.9c0-0.3,0.1-0.6,0.4-0.6h2.3c1,0,1.7,0.1,2.2,0.4s0.7,0.8,0.7,1.5
			C222.2,81.7,221.7,82.3,220.8,82.6z M217.4,79.7v2.2h1.8c0.8,0,1.3-0.1,1.6-0.2s0.4-0.4,0.4-0.9s-0.1-0.8-0.4-0.9
			c-0.3-0.1-0.8-0.2-1.6-0.2H217.4L217.4,79.7z"/>
		<path class="st4" d="M229.6,86.8c-0.2,0-0.3,0-0.3-0.1l-4.5-6.3v5.9c0,0.3-0.1,0.5-0.4,0.5s-0.4-0.1-0.4-0.5v-6.9
			c0-0.3,0.1-0.6,0.4-0.6c0.2,0,0.3,0.1,0.5,0.3l4.4,6.1v-5.8c0-0.3,0.1-0.6,0.4-0.6c0.3,0,0.5,0.2,0.5,0.6v6.9
			C230,86.6,229.9,86.8,229.6,86.8z"/>
		<path class="st4" d="M233,82.7v3h4.7c0.3,0,0.6,0.1,0.6,0.5c0,0.3-0.2,0.4-0.6,0.4h-5.2c-0.3,0-0.4-0.2-0.4-0.6v-6.5
			c0-0.3,0.1-0.6,0.4-0.6h5.2c0.3,0,0.6,0.1,0.6,0.5c0,0.3-0.2,0.4-0.6,0.4H233v2.1h3.3c0.4,0,0.6,0.1,0.6,0.5
			c0,0.3-0.2,0.4-0.6,0.4L233,82.7L233,82.7z"/>
		<path class="st4" d="M246,81.1v3.3c0,0.9-0.2,1.5-0.7,1.8s-1.2,0.5-2.4,0.5h-2.6c-0.3,0-0.4-0.2-0.4-0.6v-6.6
			c0-0.3,0.1-0.6,0.4-0.6h2.8c1,0,1.7,0.1,2.1,0.5C245.7,79.8,246,80.3,246,81.1z M245.1,84.4v-3.2c0-0.6-0.1-1-0.4-1.2
			c-0.3-0.2-0.8-0.3-1.6-0.3h-2.4v6h2.2c0.9,0,1.5-0.1,1.8-0.2C244.9,85.4,245.1,85,245.1,84.4z"/>
		<path class="st4" d="M251.9,86.3c0,0.3-0.1,0.5-0.5,0.5c-0.3,0-0.4-0.1-0.4-0.5v-6.9c0-0.3,0.1-0.5,0.4-0.5s0.4,0.1,0.4,0.5
			L251.9,86.3L251.9,86.3z"/>
		<path class="st4" d="M259.7,86.8c-0.2,0-0.3,0-0.3-0.1l-4.5-6.3v5.9c0,0.3-0.1,0.5-0.4,0.5c-0.3,0-0.4-0.1-0.4-0.5v-6.9
			c0-0.3,0.1-0.6,0.4-0.6c0.2,0,0.3,0.1,0.5,0.3l4.4,6.1v-5.8c0-0.3,0.1-0.6,0.4-0.6s0.5,0.2,0.5,0.6v6.9
			C260.1,86.6,260,86.8,259.7,86.8z"/>
		<path class="st4" d="M268.5,78.9l2.9,7.3c0,0.1,0.1,0.1,0.1,0.2s-0.1,0.3-0.1,0.3c-0.1,0.1-0.2,0.1-0.3,0.1
			c-0.2,0-0.3-0.1-0.5-0.3l-0.8-2.1h-3.4l-0.8,2.1c-0.1,0.2-0.3,0.3-0.5,0.3c-0.1,0-0.2,0-0.3-0.1c-0.1-0.1-0.1-0.1-0.1-0.3
			c0-0.1,0-0.1,0.1-0.2l2.9-7.3H268.5z M266.7,83.5h2.7l-1.4-3.3L266.7,83.5z"/>
		<path class="st4" d="M278.5,86.8c-0.2,0-0.3,0-0.3-0.1l-4.5-6.3v5.9c0,0.3-0.1,0.5-0.4,0.5s-0.4-0.1-0.4-0.5v-6.9
			c0-0.3,0.1-0.6,0.4-0.6c0.2,0,0.3,0.1,0.5,0.3l4.4,6.1v-5.8c0-0.3,0.1-0.6,0.4-0.6s0.5,0.2,0.5,0.6v6.9
			C278.9,86.6,278.7,86.8,278.5,86.8z"/>
		<path class="st4" d="M287.3,78.9l2.9,7.3c0,0.1,0.1,0.1,0.1,0.2s-0.1,0.3-0.1,0.3c-0.1,0.1-0.2,0.1-0.3,0.1
			c-0.2,0-0.3-0.1-0.5-0.3l-0.8-2.1h-3.4l-0.8,2.1c-0.1,0.2-0.3,0.3-0.5,0.3c-0.1,0-0.2,0-0.3-0.1c-0.1-0.1-0.1-0.1-0.1-0.3
			c0-0.1,0-0.1,0.1-0.2l2.9-7.3H287.3z M285.5,83.5h2.7l-1.4-3.3L285.5,83.5z"/>
		<path class="st4" d="M296.1,79.1c0.1-0.2,0.3-0.3,0.5-0.3c0.1,0,0.2,0,0.3,0.1C297,79,297,79,297,79.2c0,0.1,0,0.1-0.1,0.2
			l-2.9,7.3h-1l-2.9-7.3c0-0.1-0.1-0.1-0.1-0.2s0.1-0.3,0.1-0.3c0.1-0.1,0.2-0.1,0.3-0.1c0.2,0,0.3,0.1,0.5,0.3l2.6,6.3L296.1,79.1z
			"/>
		<path class="st4" d="M299.2,82.7v3h4.7c0.3,0,0.6,0.1,0.6,0.5c0,0.3-0.2,0.4-0.6,0.4h-5.2c-0.3,0-0.4-0.2-0.4-0.6v-6.5
			c0-0.3,0.1-0.6,0.4-0.6h5.2c0.3,0,0.6,0.1,0.6,0.5c0,0.3-0.2,0.4-0.6,0.4h-4.7v2.1h3.3c0.4,0,0.6,0.1,0.6,0.5
			c0,0.3-0.2,0.4-0.6,0.4L299.2,82.7L299.2,82.7z"/>
		<path class="st4" d="M310.4,82.6c0.3,0.3,0.5,0.8,0.8,1.4s0.4,1.1,0.5,1.5s0.1,0.7,0.1,0.8c0,0.1-0.1,0.3-0.1,0.3
			c-0.1,0.1-0.2,0.1-0.3,0.1c-0.1,0-0.2-0.1-0.3-0.1c-0.1-0.1-0.1-0.2-0.1-0.3s-0.1-0.4-0.2-0.8s-0.3-0.9-0.6-1.5s-0.6-1-1-1.2h-2.3
			v3.5c0,0.3-0.1,0.5-0.5,0.5c-0.3,0-0.4-0.1-0.4-0.5v-6.9c0-0.3,0.1-0.6,0.4-0.6h2.3c1,0,1.7,0.1,2.2,0.4s0.7,0.8,0.7,1.5
			C311.7,81.7,311.3,82.3,310.4,82.6z M307,79.7v2.2h1.8c0.8,0,1.3-0.1,1.6-0.2s0.4-0.4,0.4-0.9s-0.1-0.8-0.4-0.9s-0.8-0.2-1.6-0.2
			H307L307,79.7z"/>
		<path class="st4" d="M316.7,78.9l2.9,7.3c0,0.1,0.1,0.1,0.1,0.2s-0.1,0.3-0.1,0.3c-0.1,0.1-0.2,0.1-0.3,0.1
			c-0.2,0-0.3-0.1-0.5-0.3l-0.8-2.1h-3.4l-0.8,2.1c-0.1,0.2-0.3,0.3-0.5,0.3c-0.1,0-0.2,0-0.3-0.1c-0.1-0.1-0.1-0.1-0.1-0.3
			c0-0.1,0-0.1,0.1-0.2l2.9-7.3H316.7z M314.9,83.5h2.7l-1.4-3.3L314.9,83.5z"/>
		<path class="st4" d="M326.1,83.8h-1.5c-0.4,0-0.6-0.1-0.6-0.4s0.2-0.5,0.6-0.5h2.4v2.4c0,0.4-0.1,0.8-0.3,1
			c-0.2,0.3-0.6,0.4-1,0.4h-1.9c-1,0-1.7-0.1-2.1-0.5c-0.4-0.3-0.7-0.9-0.7-1.7v-3.3c0-0.9,0.2-1.5,0.7-1.7s1.2-0.4,2.4-0.4h1.7
			c0.6,0,0.9,0.1,1,0.4s0.3,0.6,0.3,1c0,0.3-0.1,0.6-0.4,0.6s-0.4-0.2-0.4-0.6c0-0.3-0.1-0.4-0.1-0.5s-0.2-0.1-0.4-0.1h-1.7
			c-0.9,0-1.5,0.1-1.8,0.2s-0.4,0.6-0.4,1.1v3.3c0,0.6,0.1,1,0.4,1.1s0.8,0.2,1.6,0.2h1.9c0.2,0,0.3-0.1,0.4-0.1
			c0.1-0.1,0.1-0.2,0.1-0.5L326.1,83.8L326.1,83.8z"/>
		<path class="st4" d="M329.7,82.7v3h4.7c0.3,0,0.6,0.1,0.6,0.5c0,0.3-0.2,0.4-0.6,0.4h-5.2c-0.3,0-0.4-0.2-0.4-0.6v-6.5
			c0-0.3,0.1-0.6,0.4-0.6h5.2c0.3,0,0.6,0.1,0.6,0.5c0,0.3-0.2,0.4-0.6,0.4h-4.7v2.1h3.3c0.4,0,0.6,0.1,0.6,0.5
			c0,0.3-0.2,0.4-0.6,0.4L329.7,82.7L329.7,82.7z"/>
		<path class="st4" d="M344.3,86.7h-1.7c-1.1,0-1.9-0.1-2.4-0.5c-0.5-0.3-0.7-0.9-0.7-1.8v-3.3c0-0.9,0.2-1.5,0.7-1.8
			s1.2-0.5,2.1-0.5h1.9c0.6,0,0.9,0.1,1,0.4s0.3,0.6,0.3,1.1c0,0.3-0.1,0.6-0.4,0.6c-0.1,0-0.2-0.1-0.3-0.1
			c-0.1-0.1-0.1-0.2-0.1-0.4c0-0.3-0.1-0.4-0.1-0.5c-0.1-0.1-0.2-0.1-0.4-0.1h-1.9c-0.8,0-1.3,0.1-1.6,0.3c-0.3,0.2-0.4,0.6-0.4,1.2
			v3.2c0,0.6,0.1,1,0.4,1.2s0.9,0.2,1.8,0.2h1.7c0.2,0,0.3-0.1,0.4-0.1c0.1-0.1,0.1-0.3,0.1-0.5s0.1-0.3,0.1-0.4
			c0.1-0.1,0.2-0.1,0.3-0.1c0.3,0,0.4,0.2,0.4,0.6s-0.1,0.8-0.3,1C345.2,86.4,344.9,86.7,344.3,86.7z"/>
		<path class="st4" d="M350.6,78.9l2.9,7.3c0,0.1,0.1,0.1,0.1,0.2s-0.1,0.3-0.1,0.3c-0.1,0.1-0.2,0.1-0.3,0.1
			c-0.2,0-0.3-0.1-0.5-0.3l-0.8-2.1h-3.4l-0.8,2.1c-0.1,0.2-0.3,0.3-0.5,0.3c-0.1,0-0.2,0-0.3-0.1c-0.1-0.1-0.1-0.1-0.1-0.3
			c0-0.1,0-0.1,0.1-0.2l2.9-7.3H350.6z M348.8,83.5h2.7l-1.4-3.3L348.8,83.5z"/>
		<path class="st4" d="M359.2,82.6c0.3,0.3,0.5,0.8,0.8,1.4s0.4,1.1,0.5,1.5s0.1,0.7,0.1,0.8c0,0.1-0.1,0.3-0.1,0.3
			c-0.1,0.1-0.2,0.1-0.3,0.1c-0.1,0-0.2-0.1-0.3-0.1c-0.1-0.1-0.1-0.2-0.1-0.3s-0.1-0.4-0.2-0.8s-0.3-0.9-0.6-1.5
			c-0.3-0.6-0.6-1-1-1.2h-2.3v3.5c0,0.3-0.1,0.5-0.5,0.5c-0.3,0-0.4-0.1-0.4-0.5v-6.9c0-0.3,0.1-0.6,0.4-0.6h2.3
			c1,0,1.7,0.1,2.2,0.4s0.7,0.8,0.7,1.5C360.5,81.7,360,82.3,359.2,82.6z M355.7,79.7v2.2h1.8c0.8,0,1.3-0.1,1.6-0.2
			s0.4-0.4,0.4-0.9s-0.1-0.8-0.4-0.9s-0.8-0.2-1.6-0.2H355.7L355.7,79.7z"/>
		<path class="st4" d="M362.3,78.7c0-0.1,0.1-0.2,0.1-0.3c0.1-0.1,0.2-0.1,0.4-0.1c0.3,0,0.5,0.1,0.5,0.4c0,0.4-0.1,0.8-0.3,1.1
			s-0.4,0.5-0.6,0.5s-0.3-0.1-0.3-0.3c0-0.1,0.1-0.2,0.1-0.4C362.2,79.3,362.3,79.1,362.3,78.7z"/>
		<path class="st4" d="M365.5,80.9c0,0.3,0.1,0.6,0.2,0.8c0.1,0.2,0.3,0.3,0.4,0.3l3.3,0.6c0.6,0.1,1,0.3,1.2,0.8
			c0.2,0.4,0.4,0.8,0.4,1.4s-0.2,1-0.6,1.5c-0.3,0.4-1,0.6-1.7,0.6h-1.2c-1,0-1.9-0.1-2.4-0.5c-0.5-0.3-0.7-0.9-0.7-1.9
			c0-0.3,0.1-0.6,0.5-0.6c0.1,0,0.2,0.1,0.3,0.1c0.1,0.1,0.1,0.2,0.1,0.3c0,0.6,0.1,1,0.4,1.2c0.3,0.1,0.8,0.3,1.7,0.3h1.5
			c0.4,0,0.7-0.1,0.9-0.4s0.3-0.6,0.3-0.8c0-0.3-0.1-0.6-0.2-0.9s-0.3-0.3-0.4-0.3l-3.3-0.6c-0.6-0.1-1-0.3-1.3-0.6
			c-0.3-0.3-0.4-0.8-0.4-1.3c0-0.3,0.1-0.5,0.1-0.7c0.1-0.2,0.2-0.4,0.4-0.6c0.2-0.2,0.4-0.3,0.8-0.5c0.3-0.1,0.8-0.2,1.2-0.2h0.9
			c0.6,0,1,0,1.3,0.1s0.7,0.1,1,0.3s0.5,0.4,0.6,0.7c0.1,0.3,0.2,0.7,0.2,1.2c0,0.2-0.1,0.3-0.1,0.4c-0.1,0.1-0.2,0.1-0.3,0.1
			c-0.1,0-0.2-0.1-0.3-0.1c-0.1-0.1-0.1-0.2-0.1-0.3c0-0.6-0.1-1-0.4-1.2s-0.9-0.2-1.8-0.2h-1.3c-0.5,0-0.8,0.1-1,0.3
			C365.7,80.3,365.5,80.6,365.5,80.9z"/>
		<path class="st4" d="M195.7,98.2v3h4.7c0.3,0,0.6,0.1,0.6,0.5c0,0.3-0.2,0.4-0.6,0.4h-5.2c-0.3,0-0.4-0.2-0.4-0.6v-6.6
			c0-0.3,0.1-0.6,0.4-0.6h5.2c0.3,0,0.6,0.1,0.6,0.5c0,0.3-0.2,0.4-0.6,0.4h-4.7v2.1h3.3c0.4,0,0.6,0.1,0.6,0.5
			c0,0.3-0.2,0.4-0.6,0.4L195.7,98.2L195.7,98.2z"/>
		<path class="st4" d="M208.3,102.1c-0.2,0-0.3,0-0.3-0.1l-4.5-6.3v5.9c0,0.3-0.1,0.5-0.4,0.5c-0.3,0-0.4-0.1-0.4-0.5v-6.9
			c0-0.3,0.1-0.6,0.4-0.6c0.2,0,0.3,0.1,0.5,0.3l4.4,6.1v-5.8c0-0.3,0.1-0.6,0.4-0.6c0.3,0,0.5,0.2,0.5,0.6v6.9
			C208.7,102,208.6,102.1,208.3,102.1z"/>
		<path class="st4" d="M215.8,99.2h-1.5c-0.4,0-0.6-0.1-0.6-0.4s0.2-0.5,0.6-0.5h2.4v2.4c0,0.4-0.1,0.8-0.3,1
			c-0.2,0.3-0.6,0.4-1,0.4h-1.9c-1,0-1.7-0.1-2.1-0.5c-0.4-0.3-0.7-0.9-0.7-1.7v-3.3c0-0.9,0.2-1.5,0.7-1.7s1.2-0.4,2.4-0.4h1.7
			c0.6,0,0.9,0.1,1,0.4s0.3,0.6,0.3,1c0,0.3-0.1,0.6-0.4,0.6c-0.3,0-0.4-0.2-0.4-0.6c0-0.3-0.1-0.4-0.1-0.5
			c-0.1-0.1-0.2-0.1-0.4-0.1h-1.7c-0.9,0-1.5,0.1-1.8,0.2s-0.4,0.6-0.4,1.1v3.3c0,0.6,0.1,1,0.4,1.1c0.3,0.1,0.8,0.2,1.6,0.2h1.9
			c0.2,0,0.3-0.1,0.4-0.1s0.1-0.2,0.1-0.5L215.8,99.2L215.8,99.2z"/>
		<path class="st4" d="M219.5,101.7c0,0.3-0.1,0.5-0.5,0.5c-0.3,0-0.4-0.1-0.4-0.5v-6.9c0-0.3,0.1-0.5,0.4-0.5
			c0.3,0,0.4,0.1,0.4,0.5L219.5,101.7L219.5,101.7z"/>
		<path class="st4" d="M227.2,102.1c-0.2,0-0.3,0-0.3-0.1l-4.5-6.3v5.9c0,0.3-0.1,0.5-0.4,0.5c-0.3,0-0.4-0.1-0.4-0.5v-6.9
			c0-0.3,0.1-0.6,0.4-0.6c0.2,0,0.3,0.1,0.5,0.3l4.4,6.1v-5.8c0-0.3,0.1-0.6,0.4-0.6c0.3,0,0.5,0.2,0.5,0.6v6.9
			C227.7,102,227.6,102.1,227.2,102.1z"/>
		<path class="st4" d="M230.6,98.2v3h4.7c0.3,0,0.6,0.1,0.6,0.5c0,0.3-0.2,0.4-0.6,0.4h-5.2c-0.3,0-0.4-0.2-0.4-0.6v-6.6
			c0-0.3,0.1-0.6,0.4-0.6h5.2c0.3,0,0.6,0.1,0.6,0.5c0,0.3-0.2,0.4-0.6,0.4h-4.7v2.1h3.3c0.4,0,0.6,0.1,0.6,0.5
			c0,0.3-0.2,0.4-0.6,0.4L230.6,98.2L230.6,98.2z"/>
		<path class="st4" d="M240.6,101.5v-6.6c0-0.3,0.1-0.6,0.4-0.6h2.3c1,0,1.7,0.1,2.2,0.4s0.7,0.8,0.7,1.5c0,0.6-0.1,1-0.5,1.4
			c0.7,0.3,1,1,1,2v0.2c0,0.9-0.2,1.5-0.7,1.8s-1.2,0.5-2.4,0.5H241C240.8,102.1,240.6,101.9,240.6,101.5z M243.3,97.4
			c0.8,0,1.3-0.1,1.6-0.2s0.4-0.4,0.4-0.9c0-0.4-0.1-0.8-0.4-0.9c-0.3-0.1-0.8-0.2-1.6-0.2h-1.8v2.2H243.3L243.3,97.4z M243.9,98.3
			h-2.4v2.9h2.2c0.9,0,1.5-0.1,1.7-0.2c0.3-0.1,0.4-0.6,0.4-1.1v-0.2c0-0.6-0.1-1-0.4-1.1C245.1,98.4,244.7,98.3,243.9,98.3z"/>
		<path class="st4" d="M248.9,102.1c-0.3,0-0.4-0.2-0.4-0.6v-6.8c0-0.1,0.1-0.3,0.1-0.3c0.1-0.1,0.2-0.1,0.3-0.1s0.2,0.1,0.3,0.1
			c0.1,0.1,0.1,0.2,0.1,0.3v6.4h4.1c0.3,0,0.6,0.1,0.6,0.5c0,0.3-0.2,0.4-0.6,0.4L248.9,102.1L248.9,102.1z"/>
		<path class="st4" d="M257.8,102.2c-0.9,0-1.7-0.3-2.2-0.8c-0.6-0.5-0.8-1.2-0.8-2.1v-2.1c0-0.9,0.3-1.6,0.8-2.1
			c0.6-0.6,1.3-0.8,2.2-0.8s1.7,0.3,2.2,0.8c0.6,0.5,0.8,1.2,0.8,2.1v2.1c0,0.9-0.3,1.6-0.8,2.1C259.5,102,258.7,102.2,257.8,102.2z
			 M259.5,95.6c-0.3-0.3-0.9-0.6-1.7-0.6s-1.2,0.2-1.7,0.6c-0.4,0.3-0.6,0.9-0.6,1.5v2.1c0,0.7,0.2,1.2,0.6,1.5
			c0.3,0.3,0.9,0.6,1.7,0.6s1.2-0.2,1.7-0.6c0.4-0.3,0.6-0.9,0.6-1.5v-2.1C260,96.5,259.8,96,259.5,95.6z"/>
		<path class="st4" d="M270.2,100.9l1.9-6.4c0.1-0.2,0.2-0.3,0.5-0.3s0.4,0.1,0.4,0.3c0,0.1,0,0.1-0.1,0.2l-2.4,7.3h-0.9l-2.1-6.4
			l-2.1,6.4h-0.9l-2.4-7.3c0-0.1-0.1-0.1-0.1-0.2c0-0.3,0.1-0.3,0.4-0.3c0.2,0,0.4,0.1,0.5,0.3l2,6.4l2.1-6.4
			c0.1-0.3,0.3-0.4,0.5-0.4c0.3,0,0.4,0.1,0.6,0.4L270.2,100.9z"/>
		<path class="st4" d="M274.9,96.3c0,0.3,0.1,0.6,0.2,0.8c0.1,0.2,0.3,0.3,0.4,0.3l3.3,0.6c0.6,0.1,1,0.3,1.2,0.8s0.4,0.8,0.4,1.4
			s-0.2,1-0.6,1.5c-0.3,0.4-1,0.6-1.7,0.6h-1.2c-1,0-1.9-0.1-2.4-0.5c-0.5-0.3-0.7-0.9-0.7-1.9c0-0.3,0.1-0.6,0.5-0.6
			c0.1,0,0.2,0.1,0.3,0.1c0.1,0.1,0.1,0.2,0.1,0.3c0,0.6,0.1,1,0.4,1.2c0.3,0.1,0.8,0.3,1.7,0.3h1.5c0.4,0,0.7-0.1,0.9-0.4
			s0.3-0.6,0.3-0.8c0-0.3-0.1-0.6-0.2-0.9s-0.3-0.3-0.4-0.3l-3.3-0.6c-0.6-0.1-1-0.3-1.3-0.6c-0.3-0.3-0.4-0.8-0.4-1.3
			c0-0.3,0.1-0.5,0.1-0.7c0.1-0.2,0.2-0.4,0.4-0.6c0.2-0.2,0.4-0.3,0.8-0.5c0.3-0.1,0.8-0.2,1.2-0.2h0.9c0.6,0,1,0,1.3,0.1
			s0.7,0.1,1,0.3c0.3,0.2,0.5,0.4,0.6,0.7s0.2,0.7,0.2,1.2c0,0.2-0.1,0.3-0.1,0.4c-0.1,0.1-0.2,0.1-0.3,0.1c-0.1,0-0.2-0.1-0.3-0.1
			c-0.1-0.1-0.1-0.2-0.1-0.3c0-0.6-0.1-1-0.4-1.2c-0.3-0.1-0.9-0.2-1.8-0.2h-1.3c-0.5,0-0.8,0.1-1,0.3
			C275.1,95.8,274.9,96,274.9,96.3z"/>
		<path class="st1" d="M287.7,95.1L287.7,95.1c-0.2,0.2-0.3,0.3-0.5,0.3c-0.1,0-0.3-0.1-0.3-0.1s-0.1-0.1-0.1-0.3
			c0-0.1,0.1-0.3,0.2-0.4l0.8-0.8c0.1-0.1,0.3-0.2,0.4-0.2s0.2,0.1,0.3,0.1s0.1,0.2,0.1,0.3v7.5c0,0.3-0.1,0.5-0.4,0.5
			s-0.4-0.1-0.4-0.5L287.7,95.1L287.7,95.1z"/>
		<path class="st1" d="M292.2,96.4c0-0.3,0.1-0.6,0.1-0.8c0.1-0.2,0.3-0.4,0.5-0.6s0.4-0.3,0.6-0.3c0.2-0.1,0.5-0.1,0.8-0.2
			s0.5-0.1,0.7-0.1s0.4,0,0.6,0c1.9,0,2.8,0.7,2.8,2.1c0,0.8-0.1,1.7-0.4,2.4c-0.3,0.8-0.6,1.4-1,1.9s-1,0.9-1.5,1.2
			s-1.2,0.4-1.7,0.4c-0.3,0-0.5-0.1-0.5-0.4c0-0.1,0.1-0.2,0.1-0.3c0.1-0.1,0.2-0.1,0.4-0.1c0.3,0,0.6-0.1,0.9-0.2s0.7-0.3,1-0.6
			c0.3-0.3,0.7-0.6,1-1s0.6-0.9,0.7-1.5c-0.4,0.2-1,0.3-1.7,0.3C293.4,98.5,292.2,97.8,292.2,96.4z M295.5,95.1
			c-1.6,0-2.4,0.4-2.4,1.2c0,0.2,0.1,0.4,0.1,0.6c0.1,0.1,0.2,0.3,0.3,0.3c0.1,0.1,0.3,0.1,0.6,0.2c0.2,0.1,0.4,0.1,0.6,0.1
			s0.4,0,0.7,0c0.8,0,1.2-0.1,1.5-0.3c0.3-0.2,0.4-0.6,0.4-0.9s-0.1-0.7-0.4-0.9C296.7,95.2,296.3,95.1,295.5,95.1z"/>
		<path class="st1" d="M299.9,102.3c-0.2,0-0.3-0.1-0.5-0.2c-0.1-0.1-0.2-0.3-0.2-0.4s0.1-0.3,0.3-0.4c0.2-0.1,0.3-0.2,0.5-0.2
			c0.1,0,0.3,0.1,0.5,0.2c0.1,0.1,0.3,0.3,0.3,0.4s-0.1,0.3-0.3,0.4C300.2,102.2,300,102.3,299.9,102.3z"/>
		<path class="st1" d="M307.3,100.1h-0.6v1.5c0,0.3-0.1,0.5-0.4,0.5c-0.1,0-0.2-0.1-0.3-0.1c-0.1-0.1-0.1-0.2-0.1-0.3v-1.5h-4.2
			v-0.9l4.1-4.9h1v5h0.6c0.3,0,0.6,0.1,0.6,0.4S307.6,100.1,307.3,100.1z M305.8,99.2v-3.9l-3.2,3.9H305.8z"/>
		<path class="st1" d="M313,102.1c-0.3,0-0.4-0.2-0.4-0.6v-6.8c0-0.1,0.1-0.3,0.1-0.3c0.1-0.1,0.2-0.1,0.3-0.1
			c0.1,0,0.2,0.1,0.3,0.1c0.1,0.1,0.1,0.2,0.1,0.3v6.4h4.1c0.3,0,0.6,0.1,0.6,0.5c0,0.3-0.2,0.4-0.6,0.4L313,102.1L313,102.1z"/>
		<path class="st1" d="M319.3,101.5v-6.6c0-0.3,0.1-0.6,0.4-0.6h2.3c1,0,1.7,0.1,2.2,0.4s0.7,0.8,0.7,1.5c0,0.6-0.1,1-0.5,1.4
			c0.7,0.3,1,1,1,2v0.2c0,0.9-0.2,1.5-0.7,1.8s-1.2,0.5-2.4,0.5h-2.6C319.4,102.1,319.3,101.9,319.3,101.5z M322,97.4
			c0.8,0,1.3-0.1,1.6-0.2c0.3-0.1,0.4-0.4,0.4-0.9c0-0.4-0.1-0.8-0.4-0.9s-0.8-0.2-1.6-0.2h-1.8v2.2H322L322,97.4z M322.6,98.3h-2.4
			v2.9h2.2c0.9,0,1.5-0.1,1.7-0.2s0.4-0.6,0.4-1.1v-0.2c0-0.6-0.1-1-0.4-1.1S323.4,98.3,322.6,98.3z"/>
		<path class="st1" d="M327.7,96.3c0,0.3,0.1,0.6,0.2,0.8c0.1,0.2,0.3,0.3,0.4,0.3l3.3,0.6c0.6,0.1,1,0.3,1.2,0.8
			c0.2,0.4,0.4,0.8,0.4,1.4s-0.2,1-0.6,1.5s-1,0.6-1.7,0.6h-1.2c-1,0-1.9-0.1-2.4-0.5c-0.5-0.3-0.7-0.9-0.7-1.9
			c0-0.3,0.1-0.6,0.5-0.6c0.1,0,0.2,0.1,0.3,0.1c0.1,0.1,0.1,0.2,0.1,0.3c0,0.6,0.1,1,0.4,1.2c0.3,0.1,0.8,0.3,1.7,0.3h1.5
			c0.4,0,0.7-0.1,0.9-0.4c0.2-0.3,0.3-0.6,0.3-0.8c0-0.3-0.1-0.6-0.2-0.9s-0.3-0.3-0.4-0.3l-3.3-0.6c-0.6-0.1-1-0.3-1.3-0.6
			s-0.4-0.8-0.4-1.3c0-0.3,0.1-0.5,0.1-0.7c0.1-0.2,0.2-0.4,0.4-0.6c0.2-0.2,0.4-0.3,0.8-0.5c0.3-0.1,0.8-0.2,1.2-0.2h0.9
			c0.6,0,1,0,1.3,0.1s0.7,0.1,1,0.3c0.3,0.2,0.5,0.4,0.6,0.7s0.2,0.7,0.2,1.2c0,0.2-0.1,0.3-0.1,0.4c-0.1,0.1-0.2,0.1-0.3,0.1
			c-0.1,0-0.2-0.1-0.3-0.1c-0.1-0.1-0.1-0.2-0.1-0.3c0-0.6-0.1-1-0.4-1.2c-0.3-0.1-0.9-0.2-1.8-0.2H329c-0.5,0-0.8,0.1-1,0.3
			C327.9,95.8,327.7,96,327.7,96.3z"/>
		<path class="st1" d="M341.2,102.2c-0.9,0-1.7-0.3-2.2-0.8c-0.6-0.5-0.8-1.2-0.8-2.1v-2.1c0-0.9,0.3-1.6,0.8-2.1s1.3-0.8,2.2-0.8
			c0.9,0,1.7,0.3,2.2,0.8s0.8,1.2,0.8,2.1v2.1c0,0.9-0.3,1.6-0.8,2.1C342.8,102,342.1,102.2,341.2,102.2z M342.7,95.6
			c-0.3-0.3-0.9-0.6-1.7-0.6c-0.8,0-1.2,0.2-1.7,0.6c-0.4,0.3-0.6,0.9-0.6,1.5v2.1c0,0.7,0.2,1.2,0.6,1.5c0.3,0.3,0.9,0.6,1.7,0.6
			c0.8,0,1.2-0.2,1.7-0.6c0.4-0.3,0.6-0.9,0.6-1.5v-2.1C343.3,96.5,343.2,96,342.7,95.6z"/>
		<path class="st1" d="M346.9,101.7c0,0.3-0.1,0.5-0.4,0.5s-0.4-0.2-0.4-0.6v-6.8c0-0.3,0.1-0.6,0.4-0.6h5.2c0.3,0,0.6,0.1,0.6,0.5
			c0,0.3-0.2,0.4-0.6,0.4H347v2.1h3.3c0.4,0,0.6,0.1,0.6,0.5c0,0.3-0.2,0.4-0.6,0.4H347L346.9,101.7L346.9,101.7z"/>
		<path class="st1" d="M361.3,102.1h-1.7c-1.1,0-1.9-0.1-2.4-0.5c-0.5-0.3-0.7-0.9-0.7-1.8v-3.3c0-0.9,0.2-1.5,0.7-1.8
			s1.2-0.5,2.1-0.5h1.9c0.6,0,0.9,0.1,1,0.4s0.3,0.6,0.3,1.1c0,0.3-0.1,0.6-0.4,0.6c-0.1,0-0.2-0.1-0.3-0.1
			c-0.1-0.1-0.1-0.2-0.1-0.4c0-0.3-0.1-0.4-0.1-0.5c-0.1-0.1-0.2-0.1-0.4-0.1h-1.9c-0.8,0-1.3,0.1-1.6,0.3c-0.3,0.2-0.4,0.6-0.4,1.2
			v3.2c0,0.6,0.1,1,0.4,1.2s0.9,0.2,1.8,0.2h1.7c0.2,0,0.3-0.1,0.4-0.1c0.1-0.1,0.1-0.3,0.1-0.5s0.1-0.3,0.1-0.4
			c0.1-0.1,0.2-0.1,0.3-0.1c0.3,0,0.4,0.2,0.4,0.6s-0.1,0.8-0.3,1C362.1,101.8,361.8,102.1,361.3,102.1z"/>
		<path class="st1" d="M370,100.1c0,0.6-0.2,1-0.7,1.5c-0.5,0.4-1,0.6-1.7,0.6h-1.4c-0.7,0-1.2-0.2-1.7-0.6
			c-0.5-0.3-0.7-0.8-0.7-1.5v-3.9c0-0.6,0.2-1,0.7-1.5s1-0.6,1.7-0.6h1.4c0.7,0,1.2,0.2,1.7,0.6c0.5,0.3,0.7,0.8,0.7,1.5V100.1z
			 M364.7,96.1v4.2c0,0.2,0.1,0.4,0.4,0.6s0.6,0.3,1,0.3h1.7c0.4,0,0.7-0.1,1-0.3c0.3-0.2,0.4-0.4,0.4-0.6v-4.2
			c0-0.2-0.1-0.4-0.4-0.6s-0.6-0.3-1-0.3h-1.7c-0.4,0-0.7,0.1-1,0.3C364.8,95.7,364.7,95.9,364.7,96.1z"/>
		<path class="st1" d="M377.2,96.5c0,0.4-0.1,0.8-0.5,1.1c-0.3,0.3-0.8,0.6-1.2,0.8c-0.5,0.2-1,0.5-1.5,0.7c-0.6,0.2-1,0.6-1.3,0.9
			s-0.6,0.8-0.6,1.2h4.7c0.3,0,0.6,0.1,0.6,0.5c0,0.3-0.2,0.4-0.6,0.4h-5.6v-0.7c0-0.6,0.2-1,0.6-1.5c0.3-0.5,0.8-0.8,1.3-1
			s1-0.5,1.5-0.8s1-0.5,1.3-0.7s0.6-0.6,0.6-0.8c0-0.6-0.1-1-0.4-1.2s-0.8-0.3-1.6-0.3h-1.9c-0.2,0-0.3,0.1-0.4,0.1
			c-0.1,0.1-0.1,0.3-0.1,0.5c0,0.3-0.1,0.6-0.5,0.6c-0.3,0-0.4-0.2-0.4-0.6c0-0.6,0.1-0.9,0.3-1.2c0.2-0.3,0.6-0.3,1-0.3h1.9
			c1,0,1.7,0.1,2.1,0.5S377.2,95.6,377.2,96.5z"/>
		<path class="st4" d="M215.2,117.6c-0.9,0-1.7-0.3-2.2-0.8c-0.6-0.5-0.8-1.2-0.8-2.1v-2.2c0-0.9,0.3-1.6,0.8-2.1
			c0.6-0.6,1.3-0.8,2.2-0.8s1.7,0.3,2.2,0.8c0.6,0.5,0.8,1.2,0.8,2.1v2.1c0,0.9-0.3,1.6-0.8,2.1
			C216.9,117.4,216.1,117.6,215.2,117.6z M216.9,111.1c-0.3-0.3-0.9-0.6-1.7-0.6s-1.2,0.2-1.7,0.6c-0.4,0.3-0.6,0.9-0.6,1.5v2.1
			c0,0.7,0.2,1.2,0.6,1.5c0.3,0.3,0.9,0.6,1.7,0.6s1.2-0.2,1.7-0.6c0.4-0.3,0.6-0.9,0.6-1.5v-2.1
			C217.4,111.9,217.2,111.4,216.9,111.1z"/>
		<path class="st4" d="M225.3,110.2c0-0.3,0.1-0.5,0.5-0.5c0.3,0,0.4,0.1,0.4,0.5v4.5c0,0.9-0.3,1.6-0.8,2.1s-1.3,0.8-2.2,0.8
			s-1.7-0.3-2.2-0.8c-0.6-0.5-0.8-1.2-0.8-2.1v-4.5c0-0.3,0.1-0.5,0.4-0.5c0.1,0,0.2,0.1,0.3,0.1c0.1,0.1,0.1,0.2,0.1,0.3v4.5
			c0,0.7,0.2,1.2,0.6,1.5c0.3,0.3,0.9,0.6,1.7,0.6s1.2-0.2,1.7-0.6c0.4-0.3,0.6-0.9,0.6-1.5L225.3,110.2L225.3,110.2z"/>
		<path class="st4" d="M232.6,109.8c0.3,0,0.6,0.1,0.6,0.5c0,0.3-0.2,0.4-0.6,0.4h-1.8v6.4c0,0.1-0.1,0.3-0.1,0.3
			c-0.1,0.1-0.2,0.1-0.3,0.1s-0.3-0.1-0.3-0.1c-0.1-0.1-0.1-0.2-0.1-0.3v-6.4h-2c-0.2,0-0.3-0.1-0.4-0.1c-0.1-0.1-0.1-0.2-0.1-0.3
			c0-0.1,0.1-0.2,0.1-0.3c0.1-0.1,0.2-0.1,0.4-0.1L232.6,109.8L232.6,109.8z"/>
		<path class="st4" d="M240.4,117.6c-0.9,0-1.7-0.3-2.2-0.8c-0.6-0.5-0.8-1.2-0.8-2.1v-2.2c0-0.9,0.3-1.6,0.8-2.1
			c0.6-0.6,1.3-0.8,2.2-0.8s1.7,0.3,2.2,0.8c0.6,0.5,0.8,1.2,0.8,2.1v2.1c0,0.9-0.3,1.6-0.8,2.1
			C242.1,117.4,241.3,117.6,240.4,117.6z M242.1,111.1c-0.3-0.3-0.9-0.6-1.7-0.6s-1.2,0.2-1.7,0.6c-0.4,0.3-0.6,0.9-0.6,1.5v2.1
			c0,0.7,0.2,1.2,0.6,1.5c0.3,0.3,0.9,0.6,1.7,0.6s1.2-0.2,1.7-0.6c0.4-0.3,0.6-0.9,0.6-1.5v-2.1
			C242.7,111.9,242.4,111.4,242.1,111.1z"/>
		<path class="st4" d="M246.2,117c0,0.3-0.1,0.5-0.4,0.5c-0.3,0-0.4-0.2-0.4-0.6v-6.8c0-0.3,0.1-0.6,0.4-0.6h5.2
			c0.3,0,0.6,0.1,0.6,0.5c0,0.3-0.2,0.4-0.6,0.4h-4.7v2.1h3.3c0.4,0,0.6,0.1,0.6,0.5c0,0.3-0.2,0.4-0.6,0.4h-3.3L246.2,117
			L246.2,117z"/>
		<path class="st4" d="M260.5,109.8c0.3,0,0.6,0.1,0.6,0.5c0,0.3-0.2,0.4-0.6,0.4h-1.8v6.4c0,0.1-0.1,0.3-0.1,0.3
			c-0.1,0.1-0.2,0.1-0.3,0.1c-0.1,0-0.3-0.1-0.3-0.1c-0.1-0.1-0.1-0.2-0.1-0.3v-6.4h-1.8c-0.2,0-0.3-0.1-0.4-0.1
			c-0.1-0.1-0.1-0.2-0.1-0.3c0-0.1,0.1-0.2,0.1-0.3c0.1-0.1,0.2-0.1,0.4-0.1L260.5,109.8L260.5,109.8z"/>
		<path class="st4" d="M263.2,117c0,0.3-0.1,0.5-0.4,0.5s-0.4-0.1-0.4-0.5v-6.9c0-0.3,0.1-0.6,0.4-0.6s0.5,0.2,0.5,0.6v2.7h4.4v-2.7
			c0-0.3,0.1-0.6,0.4-0.6s0.5,0.2,0.5,0.6v6.9c0,0.3-0.1,0.5-0.4,0.5s-0.5-0.1-0.5-0.5v-3.3h-4.4L263.2,117L263.2,117z"/>
		<path class="st4" d="M271.3,113.6v3h4.7c0.3,0,0.6,0.1,0.6,0.5c0,0.3-0.2,0.4-0.6,0.4h-5.2c-0.3,0-0.4-0.2-0.4-0.6v-6.6
			c0-0.3,0.1-0.6,0.4-0.6h5.2c0.3,0,0.6,0.1,0.6,0.5c0,0.3-0.2,0.4-0.6,0.4h-4.7v2.1h3.3c0.4,0,0.6,0.1,0.6,0.5
			c0,0.3-0.2,0.4-0.6,0.4L271.3,113.6L271.3,113.6z"/>
		<path class="st4" d="M282.3,113.6v3h4.7c0.3,0,0.6,0.1,0.6,0.5c0,0.3-0.2,0.4-0.6,0.4h-5.2c-0.3,0-0.4-0.2-0.4-0.6v-6.6
			c0-0.3,0.1-0.6,0.4-0.6h5.2c0.3,0,0.6,0.1,0.6,0.5c0,0.3-0.2,0.4-0.6,0.4h-4.7v2.1h3.3c0.4,0,0.6,0.1,0.6,0.5
			c0,0.3-0.2,0.4-0.6,0.4L282.3,113.6L282.3,113.6z"/>
		<path class="st4" d="M294.5,109.7c0.1,0,0.2,0,0.3,0.1s0.1,0.2,0.1,0.3c0,0.1-0.1,0.2-0.1,0.3l-2.5,3.3l2.5,3.2
			c0.1,0.1,0.1,0.2,0.1,0.3s-0.1,0.2-0.1,0.3c-0.1,0.1-0.2,0.1-0.3,0.1c-0.1,0-0.3-0.1-0.4-0.3l-2.4-3.1l-2.4,3.1
			c-0.1,0.1-0.3,0.3-0.4,0.3s-0.2-0.1-0.3-0.1c-0.1-0.1-0.1-0.1-0.1-0.3c0-0.1,0.1-0.2,0.1-0.3l2.5-3.2l-2.5-3.3
			c-0.1-0.1-0.1-0.2-0.1-0.3c0-0.1,0-0.2,0.1-0.3c0.1-0.1,0.1-0.1,0.2-0.1s0.1,0,0.1,0c0.1,0,0.3,0.1,0.4,0.3l2.4,3.1l2.4-3.1
			C294.3,109.8,294.4,109.7,294.5,109.7z"/>
		<path class="st4" d="M297.4,117c0,0.3-0.1,0.5-0.4,0.5s-0.4-0.1-0.4-0.5v-6.9c0-0.3,0.1-0.6,0.4-0.6s0.5,0.2,0.5,0.6v2.7h4.4v-2.7
			c0-0.3,0.1-0.6,0.4-0.6s0.5,0.2,0.5,0.6v6.9c0,0.3-0.1,0.5-0.4,0.5s-0.5-0.1-0.5-0.5v-3.3h-4.4L297.4,117L297.4,117z"/>
		<path class="st4" d="M307.9,109.8l2.9,7.3c0,0.1,0.1,0.1,0.1,0.2s-0.1,0.3-0.1,0.3c-0.1,0.1-0.2,0.1-0.3,0.1
			c-0.2,0-0.3-0.1-0.5-0.3l-0.8-2.1h-3.4l-0.8,2.1c-0.1,0.2-0.3,0.3-0.5,0.3c-0.1,0-0.2,0-0.3-0.1c-0.1-0.1-0.1-0.1-0.1-0.3
			c0-0.1,0-0.1,0.1-0.2l2.9-7.3H307.9z M306,114.3h2.7l-1.4-3.3L306,114.3z"/>
		<path class="st4" d="M317.2,110.2c0-0.3,0.1-0.5,0.5-0.5c0.3,0,0.4,0.1,0.4,0.5v4.5c0,0.9-0.3,1.6-0.8,2.1s-1.3,0.8-2.2,0.8
			c-0.9,0-1.7-0.3-2.2-0.8c-0.6-0.5-0.8-1.2-0.8-2.1v-4.5c0-0.3,0.1-0.5,0.4-0.5c0.1,0,0.2,0.1,0.3,0.1c0.1,0.1,0.1,0.2,0.1,0.3v4.5
			c0,0.7,0.2,1.2,0.6,1.5c0.3,0.3,0.9,0.6,1.7,0.6c0.8,0,1.2-0.2,1.7-0.6c0.4-0.3,0.6-0.9,0.6-1.5L317.2,110.2L317.2,110.2z"/>
		<path class="st4" d="M320.6,111.7c0,0.3,0.1,0.6,0.2,0.8c0.1,0.2,0.3,0.3,0.4,0.3l3.3,0.6c0.6,0.1,1,0.3,1.2,0.8
			c0.2,0.4,0.4,0.8,0.4,1.4s-0.2,1-0.6,1.5s-1,0.6-1.7,0.6h-1.2c-1,0-1.9-0.1-2.4-0.5c-0.5-0.3-0.7-0.9-0.7-1.9
			c0-0.3,0.1-0.6,0.5-0.6c0.1,0,0.2,0.1,0.3,0.1c0.1,0.1,0.1,0.2,0.1,0.3c0,0.6,0.1,1,0.4,1.2c0.3,0.1,0.8,0.3,1.7,0.3h1.5
			c0.4,0,0.7-0.1,0.9-0.4c0.2-0.3,0.3-0.6,0.3-0.8c0-0.3-0.1-0.6-0.2-0.9s-0.3-0.3-0.4-0.3l-3.3-0.6c-0.6-0.1-1-0.3-1.3-0.6
			c-0.3-0.3-0.4-0.8-0.4-1.3c0-0.3,0.1-0.5,0.1-0.7c0.1-0.2,0.2-0.4,0.4-0.6c0.2-0.2,0.4-0.3,0.8-0.5c0.3-0.1,0.8-0.2,1.2-0.2h0.9
			c0.6,0,1,0,1.3,0.1s0.7,0.1,1,0.3c0.3,0.2,0.5,0.4,0.6,0.7s0.2,0.7,0.2,1.2c0,0.2-0.1,0.3-0.1,0.4c-0.1,0.1-0.2,0.1-0.3,0.1
			c-0.1,0-0.2-0.1-0.3-0.1c-0.1-0.1-0.1-0.2-0.1-0.3c0-0.6-0.1-1-0.4-1.2c-0.3-0.1-0.9-0.2-1.8-0.2h-1.3c-0.5,0-0.8,0.1-1,0.3
			C320.7,111.1,320.6,111.4,320.6,111.7z"/>
		<path class="st4" d="M332.5,109.8c0.3,0,0.6,0.1,0.6,0.5c0,0.3-0.2,0.4-0.6,0.4h-1.8v6.4c0,0.1-0.1,0.3-0.1,0.3
			c-0.1,0.1-0.2,0.1-0.3,0.1c-0.1,0-0.3-0.1-0.3-0.1c-0.1-0.1-0.1-0.2-0.1-0.3v-6.4h-1.8c-0.2,0-0.3-0.1-0.4-0.1s-0.1-0.2-0.1-0.3
			c0-0.1,0.1-0.2,0.1-0.3c0.1-0.1,0.2-0.1,0.4-0.1L332.5,109.8L332.5,109.8z"/>
		<path class="st4" d="M340.7,109.8l2.9,7.3c0,0.1,0.1,0.1,0.1,0.2s-0.1,0.3-0.1,0.3c-0.1,0.1-0.2,0.1-0.3,0.1
			c-0.2,0-0.3-0.1-0.5-0.3l-0.8-2.1h-3.4l-0.8,2.1c-0.1,0.2-0.3,0.3-0.5,0.3c-0.1,0-0.2,0-0.3-0.1c-0.1-0.1-0.1-0.1-0.1-0.3
			c0-0.1,0-0.1,0.1-0.2l2.9-7.3H340.7z M338.9,114.3h2.7l-1.4-3.3L338.9,114.3z"/>
		<path class="st4" d="M350.6,117.6c-0.2,0-0.3,0-0.3-0.1l-4.5-6.3v5.9c0,0.3-0.1,0.5-0.4,0.5s-0.4-0.1-0.4-0.5v-6.9
			c0-0.3,0.1-0.6,0.4-0.6c0.2,0,0.3,0.1,0.5,0.3l4.4,6.1v-5.8c0-0.3,0.1-0.6,0.4-0.6s0.5,0.2,0.5,0.6v6.9
			C351.1,117.4,350.9,117.6,350.6,117.6z"/>
		<path class="st4" d="M359.3,112v3.3c0,0.9-0.2,1.5-0.7,1.8s-1.2,0.5-2.4,0.5h-2.6c-0.3,0-0.4-0.2-0.4-0.6v-6.6
			c0-0.3,0.1-0.6,0.4-0.6h2.8c1,0,1.7,0.1,2.1,0.5C359,110.6,359.3,111.1,359.3,112z M358.4,115.2V112c0-0.6-0.1-1-0.4-1.2
			s-0.8-0.3-1.6-0.3H354v6h2.2c0.9,0,1.5-0.1,1.8-0.2C358.3,116.2,358.4,115.9,358.4,115.2z"/>
		<path class="st4" d="M227.3,127.4v3.3c0,0.9-0.2,1.5-0.7,1.8s-1.2,0.5-2.4,0.5h-2.6c-0.3,0-0.4-0.2-0.4-0.6v-6.6
			c0-0.3,0.1-0.6,0.4-0.6h2.8c1,0,1.7,0.1,2.1,0.5C227.1,126,227.3,126.5,227.3,127.4z M226.4,130.6v-3.2c0-0.6-0.1-1-0.4-1.2
			c-0.3-0.2-0.8-0.3-1.6-0.3H222v6h2.2c0.9,0,1.5-0.1,1.8-0.2C226.3,131.6,226.4,131.2,226.4,130.6z"/>
		<path class="st4" d="M230.1,132.5c0,0.3-0.1,0.5-0.5,0.5c-0.3,0-0.4-0.1-0.4-0.5v-7c0-0.3,0.1-0.5,0.4-0.5c0.3,0,0.4,0.1,0.4,0.5
			L230.1,132.5L230.1,132.5z"/>
		<path class="st4" d="M236.4,128.8c0.3,0.3,0.5,0.8,0.8,1.4c0.3,0.6,0.4,1.1,0.5,1.5s0.1,0.7,0.1,0.8s-0.1,0.3-0.1,0.3
			s-0.2,0.1-0.3,0.1s-0.2-0.1-0.3-0.1c-0.1-0.1-0.1-0.2-0.1-0.3s-0.1-0.4-0.2-0.8c-0.1-0.4-0.3-0.9-0.6-1.5s-0.6-1-1-1.2h-2.3v3.5
			c0,0.3-0.1,0.5-0.5,0.5c-0.3,0-0.4-0.1-0.4-0.5v-7c0-0.3,0.1-0.6,0.4-0.6h2.3c1,0,1.7,0.1,2.2,0.4s0.7,0.8,0.7,1.5
			C237.7,127.9,237.3,128.5,236.4,128.8z M233,125.9v2.2h1.8c0.8,0,1.3-0.1,1.6-0.2c0.3-0.1,0.4-0.4,0.4-0.9s-0.1-0.8-0.4-0.9
			c-0.3-0.1-0.8-0.2-1.6-0.2L233,125.9L233,125.9z"/>
		<path class="st4" d="M240.4,129v3h4.7c0.3,0,0.6,0.1,0.6,0.5c0,0.3-0.2,0.4-0.6,0.4H240c-0.3,0-0.4-0.2-0.4-0.6v-6.6
			c0-0.3,0.1-0.6,0.4-0.6h5.2c0.3,0,0.6,0.1,0.6,0.5c0,0.3-0.2,0.4-0.6,0.4h-4.7v2.1h3.3c0.4,0,0.6,0.1,0.6,0.5
			c0,0.3-0.2,0.4-0.6,0.4L240.4,129L240.4,129z"/>
		<path class="st4" d="M251.9,132.9h-1.7c-1.1,0-1.9-0.1-2.4-0.5c-0.5-0.3-0.7-0.9-0.7-1.8v-3.3c0-0.9,0.2-1.5,0.7-1.8
			s1.2-0.5,2.1-0.5h1.9c0.6,0,0.9,0.1,1,0.4c0.1,0.3,0.3,0.6,0.3,1.1c0,0.3-0.1,0.6-0.4,0.6c-0.1,0-0.2-0.1-0.3-0.1
			c-0.1-0.1-0.1-0.2-0.1-0.4c0-0.3-0.1-0.4-0.1-0.5c-0.1-0.1-0.2-0.1-0.4-0.1H250c-0.8,0-1.3,0.1-1.6,0.3s-0.4,0.6-0.4,1.2v3.2
			c0,0.6,0.1,1,0.4,1.2c0.3,0.2,0.9,0.2,1.8,0.2h1.7c0.2,0,0.3-0.1,0.4-0.1c0.1-0.1,0.1-0.3,0.1-0.5s0.1-0.3,0.1-0.4
			c0.1-0.1,0.2-0.1,0.3-0.1c0.3,0,0.4,0.2,0.4,0.6c0,0.4-0.1,0.8-0.3,1C252.8,132.6,252.5,132.9,251.9,132.9z"/>
		<path class="st4" d="M259.4,125.1c0.3,0,0.6,0.1,0.6,0.5c0,0.3-0.2,0.4-0.6,0.4h-1.8v6.4c0,0.1-0.1,0.3-0.1,0.3
			c-0.1,0.1-0.2,0.1-0.3,0.1s-0.3-0.1-0.3-0.1s-0.1-0.2-0.1-0.3V126H255c-0.2,0-0.3-0.1-0.4-0.1c-0.1-0.1-0.1-0.2-0.1-0.3
			s0.1-0.2,0.1-0.3c0.1-0.1,0.2-0.1,0.4-0.1L259.4,125.1L259.4,125.1z"/>
		<path class="st4" d="M261.7,132.9c-0.3,0-0.4-0.2-0.4-0.6v-6.8c0-0.1,0.1-0.3,0.1-0.3s0.2-0.1,0.3-0.1s0.2,0.1,0.3,0.1
			c0.1,0.1,0.1,0.2,0.1,0.3v6.4h4.1c0.3,0,0.6,0.1,0.6,0.5c0,0.3-0.2,0.4-0.6,0.4h-4.5V132.9z"/>
		<path class="st4" d="M268.5,129.2l-2.7-3.4c-0.1-0.1-0.1-0.3-0.1-0.3c0-0.1,0.1-0.2,0.1-0.3s0.2-0.1,0.3-0.1
			c0.1,0,0.3,0.1,0.4,0.3l2.4,3.1l2.4-3.1c0.1-0.2,0.3-0.3,0.4-0.3s0.2,0.1,0.3,0.1c0.1,0.1,0.1,0.2,0.1,0.3s-0.1,0.2-0.1,0.3
			l-2.6,3.4v3.3c0,0.3-0.1,0.5-0.4,0.5s-0.4-0.1-0.4-0.5L268.5,129.2L268.5,129.2z"/>
		<path class="st4" d="M277.4,132.5c0,0.3-0.1,0.5-0.5,0.5c-0.3,0-0.4-0.1-0.4-0.5v-7c0-0.3,0.1-0.5,0.4-0.5s0.4,0.1,0.4,0.5
			L277.4,132.5L277.4,132.5z"/>
		<path class="st4" d="M285.2,133c-0.2,0-0.3,0-0.3-0.1l-4.5-6.3v5.9c0,0.3-0.1,0.5-0.4,0.5s-0.4-0.1-0.4-0.5v-6.9
			c0-0.3,0.1-0.6,0.4-0.6c0.2,0,0.3,0.1,0.5,0.3l4.4,6.1v-5.8c0-0.3,0.1-0.6,0.4-0.6s0.5,0.2,0.5,0.6v6.9
			C285.6,132.8,285.5,133,285.2,133z"/>
		<path class="st4" d="M292.1,125.1c0.3,0,0.6,0.1,0.6,0.5c0,0.3-0.2,0.4-0.6,0.4h-1.8v6.4c0,0.1-0.1,0.3-0.1,0.3
			c-0.1,0.1-0.2,0.1-0.3,0.1s-0.3-0.1-0.3-0.1s-0.1-0.2-0.1-0.3V126h-1.8c-0.2,0-0.3-0.1-0.4-0.1c-0.1-0.1-0.1-0.2-0.1-0.3
			s0.1-0.2,0.1-0.3c0.1-0.1,0.2-0.1,0.4-0.1L292.1,125.1L292.1,125.1z"/>
		<path class="st4" d="M296.7,133c-0.9,0-1.7-0.3-2.2-0.8s-0.8-1.2-0.8-2.1V128c0-0.9,0.3-1.6,0.8-2.1s1.3-0.8,2.2-0.8
			c0.9,0,1.7,0.3,2.2,0.8s0.8,1.2,0.8,2.1v2.1c0,0.9-0.3,1.6-0.8,2.1S297.6,133,296.7,133z M298.3,126.5c-0.3-0.3-0.9-0.6-1.7-0.6
			s-1.2,0.2-1.7,0.6c-0.4,0.3-0.6,0.9-0.6,1.5v2.1c0,0.7,0.2,1.2,0.6,1.5c0.3,0.3,0.9,0.6,1.7,0.6s1.2-0.2,1.7-0.6
			c0.4-0.3,0.6-0.9,0.6-1.5V128C298.8,127.4,298.7,126.8,298.3,126.5z"/>
		<path class="st4" d="M305.5,129v3h4.7c0.3,0,0.6,0.1,0.6,0.5c0,0.3-0.2,0.4-0.6,0.4H305c-0.3,0-0.4-0.2-0.4-0.6v-6.6
			c0-0.3,0.1-0.6,0.4-0.6h5.2c0.3,0,0.6,0.1,0.6,0.5c0,0.3-0.2,0.4-0.6,0.4h-4.7v2.1h3.3c0.4,0,0.6,0.1,0.6,0.5
			c0,0.3-0.2,0.4-0.6,0.4L305.5,129L305.5,129z"/>
		<path class="st4" d="M315.7,125.1l2.9,7.3c0,0.1,0.1,0.1,0.1,0.2c0,0.1-0.1,0.3-0.1,0.3c-0.1,0.1-0.2,0.1-0.3,0.1
			c-0.2,0-0.3-0.1-0.5-0.3l-0.8-2.1h-3.4l-0.8,2.1c-0.1,0.2-0.3,0.3-0.5,0.3c-0.1,0-0.2,0-0.3-0.1c-0.1-0.1-0.1-0.1-0.1-0.3
			c0-0.1,0-0.1,0.1-0.2l2.9-7.3H315.7z M313.8,129.7h2.7l-1.4-3.3L313.8,129.7z"/>
		<path class="st4" d="M324.2,128.8c0.3,0.3,0.5,0.8,0.8,1.4c0.3,0.6,0.4,1.1,0.5,1.5s0.1,0.7,0.1,0.8s-0.1,0.3-0.1,0.3
			c-0.1,0.1-0.2,0.1-0.3,0.1c-0.1,0-0.2-0.1-0.3-0.1c-0.1-0.1-0.1-0.2-0.1-0.3s-0.1-0.4-0.2-0.8c-0.1-0.4-0.3-0.9-0.6-1.5
			c-0.3-0.6-0.6-1-1-1.2h-2.3v3.5c0,0.3-0.1,0.5-0.5,0.5c-0.3,0-0.4-0.1-0.4-0.5v-7c0-0.3,0.1-0.6,0.4-0.6h2.3c1,0,1.7,0.1,2.2,0.4
			c0.5,0.3,0.7,0.8,0.7,1.5C325.5,127.9,325.1,128.5,324.2,128.8z M320.7,125.9v2.2h1.8c0.8,0,1.3-0.1,1.6-0.2
			c0.3-0.1,0.4-0.4,0.4-0.9s-0.1-0.8-0.4-0.9c-0.3-0.1-0.8-0.2-1.6-0.2L320.7,125.9L320.7,125.9z"/>
		<path class="st4" d="M331.7,125.1c0.3,0,0.6,0.1,0.6,0.5c0,0.3-0.2,0.4-0.6,0.4h-1.8v6.4c0,0.1-0.1,0.3-0.1,0.3
			c-0.1,0.1-0.2,0.1-0.3,0.1c-0.1,0-0.3-0.1-0.3-0.1s-0.1-0.2-0.1-0.3V126h-1.8c-0.2,0-0.3-0.1-0.4-0.1c-0.1-0.1-0.1-0.2-0.1-0.3
			s0.1-0.2,0.1-0.3c0.1-0.1,0.2-0.1,0.4-0.1L331.7,125.1L331.7,125.1z"/>
		<path class="st4" d="M334.4,132.5c0,0.3-0.1,0.5-0.4,0.5s-0.4-0.1-0.4-0.5v-6.9c0-0.3,0.1-0.6,0.4-0.6s0.5,0.2,0.5,0.6v2.7h4.4
			v-2.7c0-0.3,0.1-0.6,0.4-0.6s0.5,0.2,0.5,0.6v6.9c0,0.3-0.1,0.5-0.4,0.5s-0.5-0.1-0.5-0.5v-3.3h-4.4L334.4,132.5L334.4,132.5z"/>
		<path class="st4" d="M341.7,124.9c0-0.1,0.1-0.2,0.1-0.3c0.1-0.1,0.2-0.1,0.4-0.1c0.3,0,0.5,0.1,0.5,0.4c0,0.4-0.1,0.8-0.3,1.1
			c-0.2,0.3-0.4,0.5-0.6,0.5s-0.3-0.1-0.3-0.3c0-0.1,0.1-0.2,0.1-0.4C341.6,125.5,341.7,125.3,341.7,124.9z"/>
		<path class="st4" d="M345,127.1c0,0.3,0.1,0.6,0.2,0.8s0.3,0.3,0.4,0.3l3.3,0.6c0.6,0.1,1,0.3,1.2,0.8c0.2,0.4,0.4,0.8,0.4,1.4
			s-0.2,1-0.6,1.5c-0.3,0.4-1,0.6-1.7,0.6H347c-1,0-1.9-0.1-2.4-0.5c-0.5-0.3-0.7-0.9-0.7-1.9c0-0.3,0.1-0.6,0.5-0.6
			c0.1,0,0.2,0.1,0.3,0.1c0.1,0.1,0.1,0.2,0.1,0.3c0,0.6,0.1,1,0.4,1.2c0.3,0.1,0.8,0.3,1.7,0.3h1.5c0.4,0,0.7-0.1,0.9-0.4
			s0.3-0.6,0.3-0.8c0-0.3-0.1-0.6-0.2-0.9c-0.1-0.3-0.3-0.3-0.4-0.3l-3.3-0.6c-0.6-0.1-1-0.3-1.3-0.6s-0.4-0.8-0.4-1.3
			c0-0.3,0.1-0.5,0.1-0.7c0.1-0.2,0.2-0.4,0.4-0.6c0.2-0.2,0.4-0.3,0.8-0.5c0.3-0.1,0.8-0.2,1.2-0.2h0.9c0.6,0,1,0,1.3,0.1
			s0.7,0.1,1,0.3s0.5,0.4,0.6,0.7s0.2,0.7,0.2,1.2c0,0.2-0.1,0.3-0.1,0.4c-0.1,0.1-0.2,0.1-0.3,0.1c-0.1,0-0.2-0.1-0.3-0.1
			c-0.1-0.1-0.1-0.2-0.1-0.3c0-0.6-0.1-1-0.4-1.2s-0.9-0.2-1.8-0.2h-1.3c-0.5,0-0.8,0.1-1,0.3C345.1,126.6,345,126.9,345,127.1z"/>
		<path class="st4" d="M252.4,140.6l2.9,7.3c0,0.1,0.1,0.1,0.1,0.2c0,0.1-0.1,0.3-0.1,0.3c-0.1,0.1-0.2,0.1-0.3,0.1
			c-0.2,0-0.3-0.1-0.5-0.3l-0.8-2.1h-3.4l-0.8,2.1c-0.1,0.2-0.3,0.3-0.5,0.3c-0.1,0-0.2,0-0.3-0.1s-0.1-0.1-0.1-0.3
			c0-0.1,0-0.1,0.1-0.2l2.9-7.3H252.4z M250.5,145.2h2.7l-1.4-3.3L250.5,145.2z"/>
		<path class="st4" d="M260.2,140.6c0.3,0,0.6,0.1,0.6,0.5c0,0.3-0.2,0.4-0.6,0.4h-1.8v6.4c0,0.1-0.1,0.3-0.1,0.3s-0.2,0.1-0.3,0.1
			s-0.3-0.1-0.3-0.1c-0.1-0.1-0.1-0.2-0.1-0.3v-6.4h-1.8c-0.2,0-0.3-0.1-0.4-0.1s-0.1-0.2-0.1-0.3s0.1-0.2,0.1-0.3
			c0.1-0.1,0.2-0.1,0.4-0.1L260.2,140.6L260.2,140.6z"/>
		<path class="st4" d="M265.3,144.9c-0.1,0-0.2-0.1-0.3-0.1l-2-2.8v5.9c0,0.3-0.1,0.6-0.4,0.6s-0.4-0.1-0.4-0.5v-6.9
			c0-0.3,0.1-0.6,0.4-0.6c0.2,0,0.3,0.1,0.5,0.3l2.3,3.3l2.4-3.3c0.1-0.2,0.3-0.3,0.5-0.3c0.3,0,0.4,0.2,0.4,0.6v6.9
			c0,0.3-0.1,0.5-0.5,0.5c-0.3,0-0.4-0.2-0.4-0.6V142l-2,2.8C265.6,144.9,265.4,144.9,265.3,144.9z"/>
		<path class="st4" d="M273.4,148.4c-0.9,0-1.7-0.3-2.2-0.8c-0.6-0.5-0.8-1.2-0.8-2.1v-2.1c0-0.9,0.3-1.6,0.8-2.1
			c0.6-0.6,1.3-0.8,2.2-0.8s1.7,0.3,2.2,0.8c0.6,0.5,0.8,1.2,0.8,2.1v2.1c0,0.9-0.3,1.6-0.8,2.1
			C275.1,148.2,274.3,148.4,273.4,148.4z M275,141.9c-0.3-0.3-0.9-0.6-1.7-0.6s-1.2,0.2-1.7,0.6c-0.4,0.3-0.6,0.9-0.6,1.5v2.1
			c0,0.7,0.2,1.2,0.6,1.5c0.3,0.3,0.9,0.6,1.7,0.6s1.2-0.2,1.7-0.6c0.4-0.3,0.6-0.9,0.6-1.5v-2.1C275.6,142.7,275.4,142.2,275,141.9
			z"/>
		<path class="st4" d="M278.9,142.5c0,0.3,0.1,0.6,0.2,0.8s0.3,0.3,0.4,0.3l3.3,0.6c0.6,0.1,1,0.3,1.2,0.8c0.2,0.4,0.4,0.8,0.4,1.4
			s-0.2,1-0.6,1.5c-0.3,0.4-1,0.6-1.7,0.6H281c-1,0-1.9-0.1-2.4-0.5c-0.5-0.3-0.7-0.9-0.7-1.9c0-0.3,0.1-0.6,0.5-0.6
			c0.1,0,0.2,0.1,0.3,0.1s0.1,0.2,0.1,0.3c0,0.6,0.1,1,0.4,1.2c0.3,0.1,0.8,0.3,1.7,0.3h1.5c0.4,0,0.7-0.1,0.9-0.4
			c0.2-0.3,0.3-0.6,0.3-0.8c0-0.3-0.1-0.6-0.2-0.9c-0.1-0.3-0.3-0.3-0.4-0.3l-3.3-0.6c-0.6-0.1-1-0.3-1.3-0.6s-0.4-0.8-0.4-1.3
			c0-0.3,0.1-0.5,0.1-0.7s0.2-0.4,0.4-0.6c0.2-0.2,0.4-0.3,0.8-0.5c0.3-0.1,0.8-0.2,1.2-0.2h0.9c0.6,0,1,0,1.3,0.1s0.7,0.1,1,0.3
			s0.5,0.4,0.6,0.7s0.2,0.7,0.2,1.2c0,0.2-0.1,0.3-0.1,0.4c-0.1,0.1-0.2,0.1-0.3,0.1c-0.1,0-0.2-0.1-0.3-0.1
			c-0.1-0.1-0.1-0.2-0.1-0.3c0-0.6-0.1-1-0.4-1.2c-0.3-0.1-0.9-0.2-1.8-0.2h-1.3c-0.5,0-0.8,0.1-1,0.3
			C279,142,278.9,142.2,278.9,142.5z"/>
		<path class="st4" d="M287.1,147.9c0,0.3-0.1,0.5-0.5,0.5c-0.3,0-0.4-0.1-0.4-0.5V141c0-0.3,0.1-0.6,0.4-0.6h2.4
			c1,0,1.7,0.1,2.1,0.4c0.4,0.3,0.7,0.8,0.7,1.5c0,0.6-0.2,1.1-0.6,1.5c-0.4,0.3-1,0.5-1.7,0.5h-2.4V147.9L287.1,147.9z M289,143.5
			c0.8,0,1.3-0.1,1.6-0.2c0.3-0.1,0.4-0.4,0.4-0.8c0-0.4-0.1-0.7-0.4-0.8s-0.8-0.2-1.6-0.2h-1.9v2.1L289,143.5L289,143.5z"/>
		<path class="st4" d="M294.2,147.9c0,0.3-0.1,0.5-0.4,0.5s-0.4-0.1-0.4-0.5V141c0-0.3,0.1-0.6,0.4-0.6s0.5,0.2,0.5,0.6v2.7h4.4V141
			c0-0.3,0.1-0.6,0.4-0.6s0.5,0.2,0.5,0.6v6.9c0,0.3-0.1,0.5-0.4,0.5s-0.5-0.1-0.5-0.5v-3.4h-4.4L294.2,147.9L294.2,147.9z"/>
		<path class="st4" d="M302.4,144.4v3h4.7c0.3,0,0.6,0.1,0.6,0.5c0,0.3-0.2,0.4-0.6,0.4h-5.2c-0.3,0-0.4-0.2-0.4-0.6v-6.6
			c0-0.3,0.1-0.6,0.4-0.6h5.2c0.3,0,0.6,0.1,0.6,0.5c0,0.3-0.2,0.4-0.6,0.4h-4.7v2.1h3.3c0.4,0,0.6,0.1,0.6,0.5
			c0,0.3-0.2,0.4-0.6,0.4L302.4,144.4L302.4,144.4z"/>
		<path class="st4" d="M313.6,144.3c0.3,0.3,0.5,0.8,0.8,1.4c0.3,0.6,0.4,1.1,0.5,1.5s0.1,0.7,0.1,0.8s-0.1,0.3-0.1,0.3
			c-0.1,0.1-0.2,0.1-0.3,0.1c-0.1,0-0.2-0.1-0.3-0.1s-0.1-0.2-0.1-0.3s-0.1-0.4-0.2-0.8c-0.1-0.4-0.3-0.9-0.6-1.5
			c-0.3-0.6-0.6-1-1-1.2h-2.3v3.5c0,0.3-0.1,0.5-0.5,0.5c-0.3,0-0.4-0.1-0.4-0.5v-6.9c0-0.3,0.1-0.6,0.4-0.6h2.3
			c1,0,1.7,0.1,2.2,0.4s0.7,0.8,0.7,1.5C314.9,143.4,314.4,144,313.6,144.3z M310.1,141.3v2.2h1.8c0.8,0,1.3-0.1,1.6-0.2
			c0.3-0.1,0.4-0.4,0.4-0.9s-0.1-0.8-0.4-0.9c-0.3-0.1-0.8-0.2-1.6-0.2L310.1,141.3L310.1,141.3z"/>
		<path class="st4" d="M317.5,144.4v3h4.7c0.3,0,0.6,0.1,0.6,0.5c0,0.3-0.2,0.4-0.6,0.4H317c-0.3,0-0.4-0.2-0.4-0.6v-6.6
			c0-0.3,0.1-0.6,0.4-0.6h5.2c0.3,0,0.6,0.1,0.6,0.5c0,0.3-0.2,0.4-0.6,0.4h-4.7v2.1h3.3c0.4,0,0.6,0.1,0.6,0.5
			c0,0.3-0.2,0.4-0.6,0.4L317.5,144.4L317.5,144.4z"/>
	</g>
	<g>
		<rect x="58" y="156.6" class="st3" width="89.4" height="20.4"/>
		<path class="st4" d="M61.5,157.6L61.5,157.6c-0.2,0.2-0.3,0.3-0.6,0.3c-0.1,0-0.3-0.1-0.3-0.1c-0.1-0.1-0.1-0.1-0.1-0.3
			c0-0.1,0.1-0.3,0.2-0.4l0.8-0.8c0.1-0.1,0.3-0.2,0.4-0.2c0.1,0,0.2,0.1,0.3,0.1c0.1,0.1,0.1,0.2,0.1,0.3v7.9
			c0,0.3-0.1,0.5-0.5,0.5s-0.5-0.1-0.5-0.5L61.5,157.6L61.5,157.6z"/>
		<path class="st4" d="M73.6,159.5c0.3,0,0.6,0.1,0.6,0.5c0,0.1-0.1,0.3-0.1,0.3c-0.1,0.1-0.2,0.1-0.4,0.1h-3.1
			c-0.3,0-0.6-0.1-0.6-0.5c0-0.1,0.1-0.2,0.1-0.3c0.1-0.1,0.2-0.1,0.4-0.1H73.6L73.6,159.5z M73.6,160.8c0.3,0,0.6,0.1,0.6,0.5
			c0,0.1-0.1,0.3-0.1,0.3c-0.1,0.1-0.2,0.1-0.4,0.1h-3.1c-0.3,0-0.6-0.1-0.6-0.5c0-0.1,0.1-0.2,0.1-0.3c0.1-0.1,0.2-0.1,0.4-0.1
			H73.6L73.6,160.8z"/>
		<path class="st4" d="M85.1,162.8h-0.6v1.7c0,0.3-0.1,0.5-0.4,0.5c-0.1,0-0.3-0.1-0.3-0.1s-0.1-0.2-0.1-0.3v-1.7H79v-1l4.3-5.2h1.1
			v5.3H85c0.3,0,0.6,0.1,0.6,0.5C85.6,162.7,85.4,162.8,85.1,162.8z M83.5,161.8v-4.1l-3.4,4.1H83.5z"/>
		<path class="st4" d="M87.6,165.1c-0.2,0-0.3-0.1-0.6-0.2c-0.1-0.1-0.3-0.3-0.3-0.5s0.1-0.3,0.3-0.5c0.2-0.1,0.3-0.2,0.6-0.2
			c0.1,0,0.3,0.1,0.6,0.2c0.2,0.1,0.3,0.3,0.3,0.5s-0.1,0.3-0.3,0.5C87.9,165,87.7,165.1,87.6,165.1z"/>
		<path class="st4" d="M96,162.5c0,0.5-0.1,0.9-0.2,1.2s-0.3,0.6-0.6,0.7c-0.3,0.1-0.6,0.3-0.9,0.3c-0.3,0.1-0.8,0.1-1.3,0.1h-0.4
			c-1,0-1.8-0.1-2.3-0.5c-0.5-0.3-0.7-1-0.7-1.9s0.2-1.5,0.7-1.9c-0.5-0.3-0.7-1-0.7-1.8c0-0.4,0.1-0.8,0.1-1s0.2-0.5,0.4-0.6
			c0.1-0.1,0.3-0.3,0.7-0.3c0.3-0.1,0.6-0.1,0.8-0.1c0.3,0,0.6,0,1,0H93c0.4,0,0.8,0,1,0c0.3,0,0.6,0.1,0.8,0.1
			c0.3,0.1,0.5,0.2,0.6,0.3s0.3,0.3,0.4,0.6s0.1,0.6,0.1,1c0,0.9-0.2,1.5-0.7,1.8C95.8,161,96,161.7,96,162.5z M95.1,158.9
			c0-0.2,0-0.4,0-0.6c0-0.1-0.1-0.3-0.1-0.3c-0.1-0.1-0.1-0.2-0.2-0.2s-0.2-0.1-0.4-0.1c-0.2,0-0.3-0.1-0.6-0.1c-0.1,0-0.4,0-0.7,0
			h-0.5c-0.3,0-0.5,0-0.6,0s-0.3,0-0.5,0s-0.3,0.1-0.4,0.1s-0.1,0.1-0.3,0.1c-0.1,0.1-0.1,0.1-0.2,0.2c0,0.1-0.1,0.2-0.1,0.3
			s-0.1,0.3-0.1,0.5s0,0.3,0.1,0.5c0,0.1,0.1,0.3,0.1,0.3c0,0.1,0.1,0.1,0.2,0.2c0.1,0.1,0.2,0.1,0.3,0.1s0.2,0.1,0.4,0.1
			c0.2,0,0.3,0,0.5,0c0.1,0,0.3,0,0.6,0H93c0.3,0,0.5,0,0.6,0s0.3,0,0.5,0s0.3-0.1,0.4-0.1c0.1-0.1,0.1-0.1,0.3-0.1
			c0.1-0.1,0.1-0.1,0.2-0.2c0-0.1,0.1-0.2,0.1-0.3C95.1,159.2,95.1,159.1,95.1,158.9z M90.5,162.5c0,0.6,0.1,1,0.4,1.2
			c0.3,0.1,0.8,0.3,1.7,0.3H93c0.8,0,1.4-0.1,1.7-0.3c0.3-0.1,0.4-0.6,0.4-1.2s-0.1-1-0.4-1.2c-0.3-0.1-0.8-0.3-1.7-0.3h-0.4
			c-0.8,0-1.4,0.1-1.7,0.3C90.6,161.5,90.5,161.9,90.5,162.5z"/>
		<path class="st4" d="M97.7,163c0.1,0,0.2,0.1,0.5,0.3c0.2,0.1,0.6,0.3,1,0.5c0.4,0.1,0.8,0.3,1.2,0.3c0.8,0,1.3-0.2,1.7-0.6
			c0.4-0.4,0.6-0.9,0.6-1.6c0-0.6-0.2-1.1-0.6-1.4c-0.4-0.3-0.8-0.4-1.3-0.4h-3.4l0.1-1.7c0.1-0.6,0.2-1.1,0.4-1.3
			c0.3-0.3,0.6-0.3,1.2-0.3h3.5c0.3,0,0.6,0.1,0.6,0.5c0,0.1-0.1,0.2-0.1,0.3c-0.1,0.1-0.2,0.1-0.4,0.1H99c-0.2,0-0.3,0.1-0.4,0.1
			c-0.1,0.1-0.1,0.2-0.1,0.5l-0.1,1h2.3c0.8,0,1.5,0.3,2.1,0.8s0.9,1.2,0.9,2c0,1-0.3,1.7-0.9,2.3s-1.4,0.8-2.4,0.8
			c-0.6,0-1.2-0.1-2-0.5c-0.8-0.3-1.1-0.6-1.1-1c0-0.1,0.1-0.2,0.1-0.3C97.5,163.1,97.5,163,97.7,163z"/>
		<path class="st4" d="M109.1,164.8c-0.3,0-0.4-0.2-0.4-0.6V157c0-0.2,0.1-0.3,0.1-0.4c0.1-0.1,0.2-0.1,0.3-0.1
			c0.1,0,0.2,0.1,0.3,0.1c0.1,0.1,0.1,0.2,0.1,0.4v6.9h4.3c0.3,0,0.6,0.1,0.6,0.5c0,0.3-0.2,0.4-0.6,0.4L109.1,164.8L109.1,164.8z"
			/>
		<path class="st4" d="M115.8,164.3v-7.1c0-0.3,0.1-0.6,0.4-0.6h2.4c1,0,1.8,0.1,2.4,0.4c0.5,0.3,0.8,0.8,0.8,1.6
			c0,0.6-0.1,1.1-0.5,1.5c0.7,0.3,1,1,1,2.1v0.3c0,0.9-0.3,1.6-0.8,1.9c-0.5,0.3-1.3,0.5-2.5,0.5h-2.8
			C115.9,164.8,115.8,164.7,115.8,164.3z M118.6,159.9c0.8,0,1.4-0.1,1.7-0.2c0.3-0.1,0.5-0.5,0.5-1s-0.1-0.8-0.5-0.9
			c-0.3-0.1-0.9-0.2-1.7-0.2h-1.9v2.3L118.6,159.9L118.6,159.9z M119.2,160.8h-2.6v3.1h2.3c1,0,1.6-0.1,1.9-0.3
			c0.3-0.1,0.4-0.6,0.4-1.2v-0.2c0-0.6-0.1-1-0.4-1.2C120.6,160.9,120.1,160.8,119.2,160.8z"/>
		<path class="st4" d="M124.7,158.7c0,0.3,0.1,0.6,0.2,0.8s0.3,0.3,0.5,0.4l3.5,0.6c0.6,0.1,1,0.3,1.3,0.8c0.3,0.4,0.4,0.9,0.4,1.5
			s-0.2,1.1-0.6,1.5c-0.3,0.4-1,0.6-1.9,0.6H127c-1.1,0-1.9-0.1-2.5-0.5c-0.5-0.3-0.8-1-0.8-1.9c0-0.3,0.1-0.6,0.5-0.6
			c0.1,0,0.3,0.1,0.3,0.1c0.1,0.1,0.1,0.2,0.1,0.4c0,0.7,0.1,1.1,0.4,1.2c0.3,0.2,0.9,0.3,1.9,0.3h1.5c0.4,0,0.8-0.1,1-0.4
			c0.2-0.3,0.3-0.6,0.3-0.9c0-0.4-0.1-0.7-0.2-0.9c-0.1-0.2-0.3-0.3-0.4-0.4l-3.5-0.6c-0.6-0.1-1.1-0.3-1.4-0.7s-0.4-0.8-0.4-1.4
			c0-0.3,0.1-0.6,0.1-0.8c0.1-0.2,0.2-0.5,0.4-0.7c0.2-0.2,0.5-0.4,0.8-0.5s0.8-0.2,1.3-0.2h1c0.6,0,1,0,1.4,0.1
			c0.3,0.1,0.7,0.2,1,0.3s0.5,0.4,0.6,0.8c0.1,0.3,0.2,0.8,0.2,1.2c0,0.2-0.1,0.3-0.1,0.4c-0.1,0.1-0.2,0.1-0.3,0.1
			s-0.3-0.1-0.3-0.1c-0.1-0.1-0.1-0.2-0.1-0.4c0-0.7-0.1-1-0.4-1.2c-0.3-0.1-0.9-0.3-1.9-0.3H126c-0.5,0-0.8,0.1-1,0.4
			C124.8,158.2,124.7,158.5,124.7,158.7z"/>
	</g>
	<path class="st1" d="M175.1,48.5"/>
	<path class="st0" d="M168.2,27.3c0,0,1.1,12.3-5.5,11.2c-3.3-0.6-3.7-2-3.3-3.4c0.3-1.2,1.5-1.9,2.8-2.1
		C163.3,32.8,165.1,31.6,168.2,27.3z"/>
	<path class="st0" d="M147.3,176.8c0,0,1.1,12.3-5.5,11.2c-3.3-0.6-3.7-2-3.3-3.4c0.3-1.2,1.5-1.9,2.8-2.1
		C142.4,182.3,144.2,181.1,147.3,176.8z"/>
	<path class="st0" d="M178.8,13.9c0,0,11.4,4.5,12.3-2.1c0.4-3.3-0.9-4.1-2.4-4.1c-1.2,0-2.3,0.9-2.8,2
		C185.4,10.7,183.8,12.2,178.8,13.9z"/>
	<path class="st0" d="M293.6,29.6c0,0,11.4,4.5,12.3-2.1c0.4-3.3-0.9-4.1-2.4-4.1c-1.2,0-2.3,0.9-2.8,2
		C300.2,26.4,298.6,27.9,293.6,29.6z"/>
	<path class="st0" d="M401.8,191.8c0,0,7.3,9.9,11.4,4.8c2.1-2.6,1.4-3.9,0.2-4.7c-1.1-0.7-2.4-0.5-3.5,0.2
		C409.1,192.7,407,193,401.8,191.8z"/>
	<path class="st0" d="M163.3,40.4c0,0,0.6,8.7-3.1,7.9c-1.5-0.3-2-1.1-1.9-1.9c0.1-1,0.8-1.7,1.7-2
		C160.6,44.2,161.7,43.3,163.3,40.4z"/>
	<path class="st1" d="M423.6,353.4l-0.5-29.5H0.5v-44.4h421.9l-0.4-26.7l71.8,44.8L423.6,353.4z"/>
	<g>
		<rect x="-14" y="294.4" class="st3" width="510.6" height="34.4"/>
		<path class="st4" d="M32.1,308.2c0,0.5-0.2,0.8-0.6,0.8c-0.4,0-0.6-0.3-0.6-0.8v-12.9c0-0.6,0.2-0.8,0.6-0.8h9.1
			c0.5,0,0.8,0.2,0.8,0.6c0,0.3-0.3,0.6-0.8,0.6h-8.5v4.5H38c0.6,0,0.8,0.2,0.8,0.6c0,0.3-0.3,0.6-0.8,0.6h-5.8L32.1,308.2
			L32.1,308.2L32.1,308.2z"/>
		<path class="st4" d="M45.1,308.3c0,0.5-0.2,0.7-0.6,0.7c-0.3,0-0.6-0.2-0.6-0.7v-13.2c0-0.5,0.2-0.8,0.6-0.8
			c0.4,0,0.6,0.3,0.6,0.8V308.3L45.1,308.3z"/>
		<path class="st4" d="M57.9,303.3h-3c-0.6,0-0.8-0.2-0.8-0.6s0.3-0.6,0.8-0.6H59v4.2c0,0.8-0.1,1.3-0.4,1.8
			c-0.3,0.5-0.9,0.7-1.8,0.7h-3.3c-0.8,0-1.5-0.1-2.1-0.1c-0.6-0.1-1-0.3-1.5-0.6c-0.5-0.3-0.8-0.7-1-1.2c-0.2-0.6-0.3-1.2-0.3-2.1
			v-6.4c0-1.6,0.4-2.6,1.2-3.2s2.1-0.8,3.8-0.8h3.2c0.5,0,0.9,0.1,1.2,0.2s0.6,0.3,0.7,0.6c0.1,0.3,0.2,0.6,0.3,0.8
			c0.1,0.3,0.1,0.6,0.1,0.9c0,0.6-0.2,0.8-0.6,0.8c-0.4,0-0.6-0.3-0.6-0.8s-0.1-0.8-0.3-1c-0.1-0.2-0.5-0.3-1-0.3h-3
			c-1.5,0-2.5,0.1-3,0.5c-0.6,0.3-0.8,1.1-0.8,2.4v6.3c0,1.2,0.3,2,0.8,2.4c0.6,0.3,1.5,0.5,2.9,0.5h3.2c0.5,0,0.8-0.1,1-0.3
			c0.1-0.2,0.3-0.6,0.3-1L57.9,303.3L57.9,303.3z"/>
		<path class="st4" d="M71.7,295c0-0.5,0.2-0.7,0.6-0.7c0.3,0,0.6,0.3,0.6,0.8v8.6c0,1.7-0.5,3-1.5,3.9c-1,1-2.2,1.5-3.7,1.5
			s-2.8-0.5-3.7-1.4c-1-0.9-1.5-2.3-1.5-3.9v-8.6c0-0.5,0.2-0.8,0.6-0.8c0.4,0,0.6,0.2,0.6,0.7v8.6c0,1.3,0.3,2.4,1,3.1
			c0.7,0.8,1.7,1.1,3,1.1c1.2,0,2.3-0.3,3-1.1c0.7-0.8,1-1.7,1-3.1V295L71.7,295z"/>
		<path class="st4" d="M83.3,301.3c0.5,0.5,1,1.3,1.5,2.4s0.8,2.1,1,3s0.3,1.4,0.3,1.5c0,0.2-0.1,0.4-0.1,0.5
			c-0.1,0.1-0.3,0.2-0.4,0.2c-0.2,0-0.3-0.1-0.4-0.2s-0.1-0.3-0.1-0.5s-0.1-0.7-0.3-1.5c-0.2-0.8-0.6-1.7-1.1-2.8
			c-0.5-1.1-1.1-1.9-1.7-2.4h-4.2v6.7c0,0.5-0.2,0.7-0.6,0.7c-0.3,0-0.6-0.2-0.6-0.7v-13c0-0.6,0.2-0.8,0.6-0.8h4.1
			c1.7,0,2.8,0.3,3.7,0.8c0.8,0.5,1.2,1.4,1.2,2.7C86,299.8,85.1,300.9,83.3,301.3z M81.1,300.4c1.4,0,2.4-0.1,2.9-0.5
			c0.6-0.3,0.8-1,0.8-1.9c0-1-0.3-1.6-0.8-1.9c-0.6-0.3-1.5-0.5-2.9-0.5h-3.4v4.7L81.1,300.4L81.1,300.4z"/>
		<path class="st4" d="M90.5,301.3v6.3H99c0.5,0,0.8,0.2,0.8,0.6c0,0.3-0.3,0.6-0.8,0.6h-9.1c-0.3,0-0.6-0.3-0.6-0.8v-12.7
			c0-0.6,0.2-0.8,0.6-0.8H99c0.5,0,0.8,0.2,0.8,0.6c0,0.3-0.3,0.6-0.8,0.6h-8.5v4.5h5.8c0.6,0,0.8,0.2,0.8,0.6
			c0,0.3-0.3,0.6-0.8,0.6L90.5,301.3L90.5,301.3z"/>
		<path class="st4" d="M117.2,307.6c-1,1-2.2,1.5-3.7,1.5s-2.8-0.5-3.7-1.4c-1-0.9-1.5-2.3-1.5-3.9v-4.1c0-1.7,0.5-3,1.5-3.9
			c1-1,2.2-1.4,3.7-1.4s2.8,0.5,3.7,1.5c1,1,1.5,2.3,1.5,3.9v4.1C118.7,305.3,118.2,306.6,117.2,307.6z M116.5,296.6
			c-0.7-0.8-1.7-1.1-3-1.1c-1.2,0-2.3,0.3-3,1.1c-0.7,0.8-1,1.7-1,3.1v4c0,1.3,0.3,2.4,1,3.1c0.7,0.8,1.7,1.1,3,1.1
			c1.2,0,2.3-0.3,3-1.1c0.7-0.8,1-1.7,1-3.1v-4.1C117.5,298.3,117.1,297.3,116.5,296.6z"/>
		<path class="st4" d="M131.2,295c0-0.5,0.2-0.7,0.6-0.7c0.3,0,0.6,0.3,0.6,0.8v8.6c0,1.7-0.5,3-1.5,3.9c-1,1-2.2,1.5-3.7,1.5
			s-2.8-0.5-3.7-1.4s-1.5-2.3-1.5-3.9v-8.6c0-0.5,0.2-0.8,0.6-0.8s0.6,0.2,0.6,0.7v8.6c0,1.3,0.3,2.4,1,3.1c0.7,0.8,1.7,1.1,3,1.1
			s2.3-0.3,3-1.1c0.7-0.8,1-1.7,1-3.1L131.2,295L131.2,295L131.2,295z"/>
		<path class="st4" d="M143.6,294.5c0.5,0,0.8,0.2,0.8,0.6c0,0.3-0.3,0.6-0.8,0.6h-3.5v12.6c0,0.5-0.2,0.7-0.6,0.7
			c-0.3,0-0.6-0.2-0.6-0.7v-12.6h-3.5c-0.5,0-0.8-0.2-0.8-0.6s0.3-0.6,0.8-0.6H143.6L143.6,294.5z"/>
		<path class="st4" d="M156.1,301.9l-4.7-6.5c-0.1-0.2-0.2-0.3-0.2-0.5c0-0.1,0.1-0.3,0.2-0.4c0.1-0.1,0.3-0.1,0.4-0.1
			s0.3,0.1,0.6,0.4l4.4,6l4.4-6c0.2-0.3,0.4-0.4,0.6-0.4c0.1,0,0.3,0.1,0.3,0.1c0.1,0.1,0.2,0.3,0.2,0.4s-0.1,0.3-0.2,0.5l-4.7,6.5
			v6.4c0,0.5-0.2,0.7-0.6,0.7s-0.6-0.2-0.6-0.7L156.1,301.9L156.1,301.9z"/>
		<path class="st4" d="M172.8,307.6c-1,1-2.2,1.5-3.7,1.5s-2.8-0.5-3.7-1.4s-1.5-2.3-1.5-3.9v-4.1c0-1.7,0.5-3,1.5-3.9
			c1-1,2.2-1.4,3.7-1.4s2.8,0.5,3.7,1.5c1,1,1.5,2.3,1.5,3.9v4.1C174.2,305.3,173.7,306.6,172.8,307.6z M172,296.6
			c-0.7-0.8-1.7-1.1-3-1.1c-1.2,0-2.3,0.3-3,1.1c-0.7,0.8-1,1.7-1,3.1v4c0,1.3,0.3,2.4,1,3.1c0.7,0.8,1.7,1.1,3,1.1
			c1.2,0,2.3-0.3,3-1.1c0.7-0.8,1-1.7,1-3.1v-4.1C173,298.3,172.7,297.3,172,296.6z"/>
		<path class="st4" d="M186.8,295c0-0.5,0.2-0.7,0.6-0.7c0.3,0,0.6,0.3,0.6,0.8v8.6c0,1.7-0.5,3-1.5,3.9c-1,1-2.2,1.5-3.7,1.5
			s-2.8-0.5-3.7-1.4c-1-0.9-1.5-2.3-1.5-3.9v-8.6c0-0.5,0.2-0.8,0.6-0.8c0.4,0,0.6,0.2,0.6,0.7v8.6c0,1.3,0.3,2.4,1,3.1
			c0.7,0.8,1.7,1.1,3,1.1s2.3-0.3,3-1.1c0.7-0.8,1-1.7,1-3.1L186.8,295L186.8,295L186.8,295z"/>
		<path class="st4" d="M198.5,301.3c0.5,0.5,1,1.3,1.5,2.4s0.8,2.1,1,3c0.2,0.8,0.3,1.4,0.3,1.5c0,0.2-0.1,0.4-0.1,0.5
			c-0.1,0.1-0.3,0.2-0.4,0.2c-0.2,0-0.3-0.1-0.4-0.2c-0.1-0.1-0.1-0.3-0.1-0.5s-0.1-0.7-0.3-1.5s-0.6-1.7-1.1-2.8
			c-0.5-1.1-1.1-1.9-1.7-2.4H193v6.7c0,0.5-0.2,0.7-0.6,0.7c-0.3,0-0.6-0.2-0.6-0.7v-13c0-0.6,0.2-0.8,0.6-0.8h4.1
			c1.7,0,2.8,0.3,3.7,0.8c0.8,0.5,1.2,1.4,1.2,2.7C201.1,299.8,200.2,300.9,198.5,301.3z M196.2,300.4c1.4,0,2.4-0.1,2.9-0.5
			c0.6-0.3,0.8-1,0.8-1.9c0-1-0.3-1.6-0.8-1.9c-0.6-0.3-1.5-0.5-2.9-0.5h-3.4v4.7L196.2,300.4L196.2,300.4z"/>
		<path class="st4" d="M218.8,307.6c-1,1-2.2,1.5-3.7,1.5s-2.8-0.5-3.7-1.4s-1.5-2.3-1.5-3.9v-4.1c0-1.7,0.5-3,1.5-3.9
			c1-1,2.2-1.4,3.7-1.4s2.8,0.5,3.7,1.5c1,1,1.5,2.3,1.5,3.9v4.1C220.3,305.3,219.8,306.6,218.8,307.6z M218.1,296.6
			c-0.7-0.8-1.7-1.1-3-1.1c-1.2,0-2.3,0.3-3,1.1c-0.7,0.8-1,1.7-1,3.1v4c0,1.3,0.3,2.4,1,3.1c0.7,0.8,1.7,1.1,3,1.1
			c1.2,0,2.3-0.3,3-1.1c0.7-0.8,1-1.7,1-3.1v-4.1C219.1,298.3,218.8,297.3,218.1,296.6z"/>
		<path class="st4" d="M236.4,306.1l4.2-11.5c0.1-0.3,0.3-0.5,0.6-0.5s0.6,0.1,0.6,0.4c0,0.1,0,0.2-0.1,0.4l-4.3,13.8h-1.3l-4-12.5
			l-3.9,12.5h-1.3l-4.4-13.9c-0.1-0.2-0.1-0.3-0.1-0.4c0-0.3,0.2-0.4,0.6-0.4c0.3,0,0.5,0.1,0.6,0.5l3.6,11.5l4.3-11.4
			c0.1-0.4,0.3-0.6,0.6-0.6s0.6,0.2,0.7,0.6L236.4,306.1z"/>
		<path class="st4" d="M254.2,309c-0.2,0-0.3-0.1-0.5-0.1l-8.2-12.3v11.6c0,0.5-0.2,0.8-0.6,0.8c-0.4,0-0.6-0.3-0.6-0.8v-13.1
			c0-0.6,0.2-0.8,0.6-0.8c0.3,0,0.5,0.1,0.7,0.4l8,11.9v-11.5c0-0.6,0.2-0.8,0.6-0.8c0.4,0,0.6,0.3,0.6,0.8v13.1
			C254.7,308.7,254.6,309,254.2,309z"/>
		<path class="st4" d="M272.3,308.8h-3.2c-1.7,0-3-0.3-3.8-0.8c-0.8-0.6-1.2-1.6-1.2-3.3v-6.2c0-1.6,0.4-2.7,1.2-3.3
			c0.8-0.6,2-0.8,3.7-0.8h3.3c0.5,0,0.9,0.1,1.2,0.2c0.3,0.1,0.6,0.3,0.7,0.6c0.1,0.3,0.2,0.6,0.3,0.8c0.1,0.3,0.1,0.6,0.1,0.9
			c0,0.6-0.2,0.8-0.6,0.8s-0.6-0.3-0.6-0.8c0-0.6-0.1-0.9-0.3-1.1s-0.5-0.3-1-0.3H269c-0.7,0-1.3,0-1.7,0.1
			c-0.4,0.1-0.8,0.2-1.1,0.3c-0.3,0.2-0.6,0.5-0.7,0.9s-0.2,0.9-0.2,1.5v6.2c0,1.2,0.3,2,0.8,2.4c0.6,0.3,1.5,0.5,3,0.5h3
			c0.5,0,0.8-0.1,1-0.3c0.1-0.2,0.3-0.6,0.3-1.1s0.2-0.8,0.6-0.8s0.6,0.3,0.6,0.8c0,0.3,0,0.6-0.1,0.9s-0.1,0.5-0.3,0.8
			c-0.1,0.3-0.3,0.5-0.7,0.6C273.2,308.8,272.8,308.8,272.3,308.8z"/>
		<path class="st4" d="M282.9,294.5l5.1,13.8c0.1,0.1,0.1,0.3,0.1,0.3c0,0.2-0.1,0.3-0.2,0.4s-0.3,0.1-0.3,0.1
			c-0.3,0-0.4-0.1-0.6-0.5l-1.6-4.3h-6.2l-1.6,4.3c-0.1,0.3-0.3,0.5-0.6,0.5c-0.1,0-0.3-0.1-0.3-0.1c-0.1-0.1-0.2-0.2-0.2-0.4
			c0-0.1,0-0.2,0.1-0.3l5.1-13.8H282.9z M282.2,296.2l-2.6,7h5.3L282.2,296.2z"/>
		<path class="st4" d="M297.4,301.3c0.5,0.5,1,1.3,1.5,2.4s0.8,2.1,1,3s0.3,1.4,0.3,1.5c0,0.2-0.1,0.4-0.1,0.5
			c-0.1,0.1-0.3,0.2-0.4,0.2c-0.2,0-0.3-0.1-0.4-0.2s-0.1-0.3-0.1-0.5s-0.1-0.7-0.3-1.5c-0.2-0.8-0.6-1.7-1.1-2.8
			c-0.5-1.1-1.1-1.9-1.7-2.4h-4.2v6.7c0,0.5-0.2,0.7-0.6,0.7c-0.3,0-0.6-0.2-0.6-0.7v-13c0-0.6,0.2-0.8,0.6-0.8h4.1
			c1.7,0,2.8,0.3,3.7,0.8c0.8,0.5,1.2,1.4,1.2,2.7C300.1,299.8,299.2,300.9,297.4,301.3z M295.2,300.4c1.4,0,2.4-0.1,2.9-0.5
			s0.8-1,0.8-1.9c0-1-0.3-1.6-0.8-1.9c-0.6-0.3-1.5-0.5-2.9-0.5h-3.4v4.7L295.2,300.4L295.2,300.4z"/>
		<path class="st4" d="M303.4,308v-12.7c0-0.6,0.2-0.8,0.6-0.8h4.1c1.7,0,2.9,0.2,3.7,0.7c0.8,0.5,1.2,1.3,1.2,2.6
			c0,1.2-0.3,2-1.1,2.6c0.7,0.3,1.2,0.7,1.5,1.2c0.3,0.6,0.5,1.4,0.5,2.5v0.6c0,1.6-0.4,2.7-1.2,3.3c-0.8,0.6-2.1,0.8-3.8,0.8H304
			C303.5,308.8,303.4,308.6,303.4,308z M308,300.2c1.4,0,2.4-0.1,2.9-0.4c0.6-0.3,0.8-0.9,0.8-1.8c0-1-0.3-1.6-0.8-1.9
			c-0.6-0.3-1.5-0.4-2.9-0.4h-3.4v4.5L308,300.2L308,300.2z M304.6,301.3v6.3h4.3c1.5,0,2.5-0.1,3-0.5c0.6-0.3,0.8-1.1,0.8-2.4v-0.6
			c0-1.2-0.3-2-0.8-2.4c-0.6-0.3-1.5-0.5-2.9-0.5L304.6,301.3L304.6,301.3z"/>
		<path class="st4" d="M325.6,307.6c-1,1-2.2,1.5-3.7,1.5s-2.8-0.5-3.7-1.4s-1.5-2.3-1.5-3.9v-4.1c0-1.7,0.5-3,1.5-3.9
			c1-1,2.2-1.4,3.7-1.4s2.8,0.5,3.7,1.5c1,1,1.5,2.3,1.5,3.9v4.1C327,305.3,326.5,306.6,325.6,307.6z M324.8,296.6
			c-0.7-0.8-1.7-1.1-3-1.1s-2.3,0.3-3,1.1c-0.7,0.8-1,1.7-1,3.1v4c0,1.3,0.3,2.4,1,3.1c0.7,0.8,1.7,1.1,3,1.1s2.3-0.3,3-1.1
			c0.7-0.8,1-1.7,1-3.1v-4.1C325.8,298.3,325.5,297.3,324.8,296.6z"/>
		<path class="st4" d="M340.3,309c-0.2,0-0.3-0.1-0.5-0.1l-8.2-12.3v11.6c0,0.5-0.2,0.8-0.6,0.8s-0.6-0.3-0.6-0.8v-13.1
			c0-0.6,0.2-0.8,0.6-0.8c0.3,0,0.5,0.1,0.7,0.4l8,11.9v-11.5c0-0.6,0.2-0.8,0.6-0.8s0.6,0.3,0.6,0.8v13.1
			C340.9,308.7,340.7,309,340.3,309z"/>
		<path class="st4" d="M351.7,308.2c0,0.5-0.2,0.8-0.6,0.8s-0.6-0.3-0.6-0.8v-12.9c0-0.6,0.2-0.8,0.6-0.8h9.1c0.5,0,0.8,0.2,0.8,0.6
			c0,0.3-0.3,0.6-0.8,0.6h-8.5v4.5h5.8c0.6,0,0.8,0.2,0.8,0.6c0,0.3-0.3,0.6-0.8,0.6h-5.8V308.2L351.7,308.2z"/>
		<path class="st4" d="M371.8,307.6c-1,1-2.2,1.5-3.7,1.5s-2.8-0.5-3.7-1.4s-1.5-2.3-1.5-3.9v-4.1c0-1.7,0.5-3,1.5-3.9
			c1-1,2.2-1.4,3.7-1.4s2.8,0.5,3.7,1.5s1.5,2.3,1.5,3.9v4.1C373.3,305.3,372.8,306.6,371.8,307.6z M371.1,296.6
			c-0.7-0.8-1.7-1.1-3-1.1s-2.3,0.3-3,1.1c-0.7,0.8-1,1.7-1,3.1v4c0,1.3,0.3,2.4,1,3.1c0.7,0.8,1.7,1.1,3,1.1s2.3-0.3,3-1.1
			c0.7-0.8,1-1.7,1-3.1v-4.1C372.1,298.3,371.8,297.3,371.1,296.6z"/>
		<path class="st4" d="M385.2,307.6c-1,1-2.2,1.5-3.7,1.5s-2.8-0.5-3.7-1.4s-1.5-2.3-1.5-3.9v-4.1c0-1.7,0.5-3,1.5-3.9
			c1-1,2.2-1.4,3.7-1.4s2.8,0.5,3.7,1.5s1.5,2.3,1.5,3.9v4.1C386.7,305.3,386.2,306.6,385.2,307.6z M384.4,296.6
			c-0.7-0.8-1.7-1.1-3-1.1s-2.3,0.3-3,1.1c-0.7,0.8-1,1.7-1,3.1v4c0,1.3,0.3,2.4,1,3.1c0.7,0.8,1.7,1.1,3,1.1s2.3-0.3,3-1.1
			c0.7-0.8,1-1.7,1-3.1v-4.1C385.5,298.3,385.1,297.3,384.4,296.6z"/>
		<path class="st4" d="M397.3,294.5c0.5,0,0.8,0.2,0.8,0.6c0,0.3-0.3,0.6-0.8,0.6h-3.5v12.6c0,0.5-0.2,0.7-0.6,0.7
			c-0.3,0-0.6-0.2-0.6-0.7v-12.6h-3.5c-0.5,0-0.8-0.2-0.8-0.6s0.3-0.6,0.8-0.6H397.3L397.3,294.5z"/>
		<path class="st4" d="M401.7,308.3c0,0.5-0.2,0.7-0.6,0.7c-0.3,0-0.6-0.2-0.6-0.7v-13c0-0.6,0.2-0.8,0.6-0.8h4.1
			c1.6,0,2.8,0.3,3.7,0.8c0.8,0.5,1.2,1.4,1.2,2.8c0,1.1-0.3,2-1,2.6s-1.7,0.9-2.8,0.9h-4.4L401.7,308.3L401.7,308.3L401.7,308.3z
			 M405.2,300.2c1.4,0,2.4-0.1,2.9-0.5c0.6-0.3,0.8-0.9,0.8-1.9s-0.3-1.6-0.8-1.9c-0.6-0.3-1.5-0.4-2.9-0.4h-3.5v4.6L405.2,300.2
			L405.2,300.2z"/>
		<path class="st4" d="M419.6,301.3c0.5,0.5,1,1.3,1.5,2.4s0.8,2.1,1,3s0.3,1.4,0.3,1.5c0,0.2-0.1,0.4-0.1,0.5
			c-0.1,0.1-0.3,0.2-0.4,0.2c-0.2,0-0.3-0.1-0.4-0.2s-0.1-0.3-0.1-0.5s-0.1-0.7-0.3-1.5c-0.2-0.8-0.6-1.7-1.1-2.8
			c-0.5-1.1-1.1-1.9-1.7-2.4h-4.2v6.7c0,0.5-0.2,0.7-0.6,0.7c-0.3,0-0.6-0.2-0.6-0.7v-13c0-0.6,0.2-0.8,0.6-0.8h4.1
			c1.7,0,2.8,0.3,3.7,0.8c0.8,0.5,1.2,1.4,1.2,2.7C422.2,299.8,421.3,300.9,419.6,301.3z M417.3,300.4c1.4,0,2.4-0.1,2.9-0.5
			s0.8-1,0.8-1.9c0-1-0.3-1.6-0.8-1.9c-0.6-0.3-1.5-0.5-2.9-0.5h-3.4v4.7L417.3,300.4L417.3,300.4z"/>
		<path class="st4" d="M426.7,308.3c0,0.5-0.2,0.7-0.6,0.7c-0.3,0-0.6-0.2-0.6-0.7v-13.2c0-0.5,0.2-0.8,0.6-0.8s0.6,0.3,0.6,0.8
			V308.3L426.7,308.3z"/>
		<path class="st4" d="M440.3,309c-0.2,0-0.3-0.1-0.5-0.1l-8.2-12.3v11.6c0,0.5-0.2,0.8-0.6,0.8s-0.6-0.3-0.6-0.8v-13.1
			c0-0.6,0.2-0.8,0.6-0.8c0.3,0,0.5,0.1,0.7,0.4l8,11.9v-11.5c0-0.6,0.2-0.8,0.6-0.8s0.6,0.3,0.6,0.8v13.1
			C440.9,308.7,440.8,309,440.3,309z"/>
		<path class="st4" d="M452.3,294.5c0.5,0,0.8,0.2,0.8,0.6c0,0.3-0.3,0.6-0.8,0.6h-3.5v12.6c0,0.5-0.2,0.7-0.6,0.7
			c-0.3,0-0.6-0.2-0.6-0.7v-12.6h-3.5c-0.5,0-0.8-0.2-0.8-0.6s0.3-0.6,0.8-0.6H452.3L452.3,294.5z"/>
	</g>
</g>
<g>
	<path class="st2" d="M621.8,107.4c-20.4,53.4,7.2,113.2,61.6,133.7c54.4,20.5,115.1-6.2,135.6-59.6s-7.2-113.2-61.6-133.7
		C703,27.4,642.2,54,621.8,107.4z"/>
	<path class="st5" d="M719.2,140.2c0,0,1.7,14.2-5.8,15.4s-20.3,4.3-9.1,11.9c11.2,7.7,11.8-4.3,11.8-4.3"/>
	<path class="st5" d="M702,168.8c0,0-12.2,14.3,10.4,17.9c22.5,3.7,25.7,10.1,25.7,10.1s3,19.9-8.6,17.8
		c-11.6-2.1-31.7-11.9-32.9-18.1c-1.2-6.2-7,2.1-7,2.1s-0.5,10.4,5.2,11.7"/>
	<path class="st6" d="M817.9,183.7c0,0-19.1-10.8-31.5,24c-12.4,34.8-19.3,8.9-19.3,8.9s-26,10-17.6,16.1c8.3,6.1-3.8,12.2-3.8,12.2
		S790.9,241.7,817.9,183.7z"/>
	<path class="st6" d="M757,47.8c0,0-20.3,27.1-4.3,41.8c0,0,1.7,6-4.2,9.8c-6,3.9-11.1,6-4.9,8.2c6.2,2.3,19.1-6,19.1-6
		s17.2-1,16.3,5.7c-0.8,6.7,10.6,25.5,17.9,21.6c7.3-3.8,22.2,7.9,17.6,12.8c-4.5,4.9,10.1,17.2,10.1,17.2S836.3,78.7,757,47.8z"/>
	<path class="st6" d="M712.3,41.4c0,0,16.2,22.5,5.6,24.7c-10.6,2.1-2.1,15.9-2.1,15.9s-0.4,16.9-15.7,2.9
		c-15.4-14.1-23.4-19.8-26-12.9c-2.6,6.9-24.2-1-25-3.5C648.3,66,678.9,42.6,712.3,41.4z"/>
	<path class="st6" d="M705.8,246.9c0,0-10.8-30.7-73.8-46.5C632.1,200.4,659.9,241.7,705.8,246.9z"/>
	<path class="st6" d="M622.2,116.9c0,0,23.6,20,15,30c-8.6,10,3.8,15.4,3.8,15.4s19.1,10.4,7.2,13.8c-11.9,3.6-22.4,3.5-18.8,7.4
		c3.7,3.9-1.1,9.8-1.1,9.8S604.2,152.2,622.2,116.9z"/>
	<path class="st7" d="M732.3,137.7c-5,13.1,2.4,28,16.4,33.4c14.1,5.4,29.6-1.1,34.6-14.2c5-13.1-2.4-28-16.4-33.4
		C752.8,118.2,737.3,124.6,732.3,137.7z"/>
	<path class="st7" d="M665,115.4c-5,13.1,2.4,28,16.4,33.4c14.1,5.2,29.6-1.1,34.6-14.2s-2.4-28-16.4-33.4
		C685.5,96,670,102.3,665,115.4z"/>
	<path class="st8" d="M743.3,140.6c-2.5,6.4,0.8,13.7,7.5,16.2s13.9-0.7,16.4-7.2s-0.8-13.7-7.5-16.2
		C753.1,131,745.8,134.2,743.3,140.6z"/>
	<path class="st8" d="M675.2,119.7c-2.5,6.4,0.8,13.7,7.5,16.2s13.9-0.7,16.4-7.2c2.5-6.5-0.8-13.7-7.5-16.2
		C685.1,110,677.7,113.2,675.2,119.7z"/>
	<path class="st9" d="M748.7,138.1c-0.7,2,0.2,4.3,2.3,5c2,0.7,4.3-0.2,5.1-2.3c0.8-2.1-0.2-4.3-2.3-5
		C751.8,135,749.6,136.1,748.7,138.1z"/>
	<path class="st9" d="M682.6,117.5c-0.7,2,0.2,4.3,2.3,5c2,0.7,4.3-0.2,5.1-2.3c0.8-2.1-0.2-4.3-2.3-5
		C685.6,114.5,683.3,115.5,682.6,117.5z"/>
	<path class="st10" d="M696.4,193.8c-2.9,6.9,18.1,17.8,29.8,20c13.8,2.6,12.2-5.6,12.6-12.3c0.5-7.5-2.9-8.5-13.8-12.9
		C713.9,184.1,699.3,186.9,696.4,193.8z"/>
</g>
<g>
	<path class="st11" d="M750.6,326.8l27.6,10.6l-16.6,2.3l16.4,13.5c0,0-47.6-6.1-50.9-9.2l11.3-24.6L750.6,326.8z"/>
	<path class="st11" d="M561.3,199.9l-21-20.7l4.5,16l-19.1-9.4c0,0,24.9,40.6,29.1,42.4l18.1-20.1L561.3,199.9z"/>
	<path class="st12" d="M579.6,184.1l-33,25c0,0,120.5,113,208.8,128.9l11.2-33.3C766.6,304.7,642.7,261.4,579.6,184.1z"/>
	<g>
		<path class="st3" d="M561.7,209.4c0,0,85.7,80.7,187,122"/>
		<path class="st4" d="M575,210.4c-0.2,0.2-0.5,0.6-0.5,1c-0.1,0.4,0,0.6,0.1,0.8l3.1,3.8c0.5,0.7,0.7,1.3,0.7,2
			c-0.1,0.7-0.4,1.3-0.8,1.9c-0.6,0.6-1.2,1-1.9,1.1s-1.5-0.2-2.5-1.1l-1.3-1.1c-1.2-1-1.8-1.9-2-2.6c-0.2-0.8,0.1-1.7,1-2.6
			c0.4-0.4,0.7-0.4,1-0.1c0.1,0.1,0.2,0.2,0.2,0.5c0,0.1-0.1,0.4-0.2,0.5c-0.6,0.7-0.8,1.2-0.7,1.7c0.1,0.5,0.7,1.1,1.7,1.9l1.5,1.3
			c0.5,0.4,1,0.6,1.3,0.5c0.5-0.1,0.8-0.4,1.1-0.6c0.4-0.4,0.6-0.7,0.6-1.2c0-0.4,0-0.6-0.1-0.8l-3-3.8c-0.6-0.7-0.8-1.3-0.8-1.9
			s0.2-1.2,0.8-1.8c0.2-0.2,0.5-0.5,0.8-0.7c0.4-0.2,0.6-0.2,1.1-0.4c0.4,0,0.8,0,1.3,0.2s1,0.5,1.5,1l1,0.8c0.6,0.5,1.1,1,1.3,1.3
			c0.2,0.3,0.6,0.8,0.7,1.2c0.1,0.4,0.1,0.8,0,1.3c-0.1,0.5-0.5,1-1,1.4c-0.1,0.2-0.4,0.2-0.5,0.2c-0.1,0-0.4,0-0.5-0.1
			c-0.1-0.1-0.2-0.2-0.2-0.5c0-0.2,0.1-0.4,0.2-0.5c0.6-0.7,0.8-1.2,0.7-1.7c-0.1-0.5-0.7-1.1-1.7-1.9l-1.4-1.2
			c-0.5-0.5-1-0.6-1.4-0.5C575.6,209.8,575.2,210,575,210.4z"/>
		<path class="st4" d="M582.4,217.5c0.1-0.2,0.4-0.4,0.5-0.4c0.1,0,0.4,0,0.5,0.1c0.1,0.1,0.2,0.2,0.2,0.4s0,0.4-0.2,0.6l-4.8,5.5
			c-0.4,0.4-0.6,0.4-1,0.1c-0.1-0.1-0.2-0.2-0.2-0.4s0-0.4,0.2-0.6L582.4,217.5z M584.7,216.7c-0.2,0-0.5-0.1-0.7-0.2
			c-0.1-0.1-0.4-0.4-0.4-0.6c-0.1-0.2,0-0.5,0.1-0.7c0.1-0.2,0.4-0.2,0.7-0.2c0.2,0,0.5,0.1,0.7,0.2c0.1,0.1,0.4,0.4,0.4,0.6
			c0,0.2,0,0.5-0.1,0.7C585.3,216.7,585.1,216.7,584.7,216.7z"/>
		<path class="st4" d="M588,223.4c-1-0.7-1.7-1.1-2.4-1c-0.7,0.1-1.3,0.5-1.8,1.1l-2.1,2.6c-0.4,0.4-0.6,0.5-1,0.1
			c-0.4-0.2-0.4-0.6,0-1l4.4-5.1c0.4-0.4,0.6-0.5,1-0.2c0.4,0.2,0.4,0.6,0,1.1l-0.1,0.1c1,0,1.9,0.5,3,1.3l0.4,0.4
			c1.2,1,1.9,1.9,2.1,2.6c0.2,0.7,0,1.5-0.8,2.5l-2.7,3.3c-0.4,0.4-0.6,0.5-1,0.1c-0.4-0.2-0.4-0.6,0-1l2.7-3.2
			c0.6-0.6,0.7-1.2,0.6-1.5c-0.1-0.5-0.7-1.1-1.8-1.9L588,223.4z"/>
		<path class="st4" d="M595.5,239.9c-0.5,0.6-1,1-1.4,1.1c-0.4,0.1-0.8,0-1.4-0.5l-4.4-3.6c-0.6-0.5-0.8-1-0.8-1.4s0.2-1,0.7-1.4
			c0.4-0.4,0.7-0.5,1-0.2c0.4,0.2,0.4,0.6,0,1c-0.2,0.2-0.4,0.5-0.4,0.6s0.1,0.4,0.4,0.6l4.2,3.3c0.2,0.1,0.4,0.2,0.5,0.2
			c0.1,0,0.2-0.1,0.5-0.4l1.1-1.2l-2.9-2.3c-1.2-1-1.9-1.8-2.1-2.6c-0.2-0.7,0-1.5,0.7-2.5l1.2-1.4c0.7-1,1.5-1.3,2.4-1.3
			c0.8,0.1,1.8,0.6,3,1.7l0.4,0.4c1.1,0.8,1.7,1.8,1.9,2.6l0.1-0.1c0.4-0.4,0.7-0.5,1-0.2c0.4,0.2,0.4,0.6,0,1L595.5,239.9z
			 M593.3,234.8l2.9,2.3l1.8-2.1c0.5-0.6,0.7-1.3,0.7-1.9c0-0.7-0.5-1.4-1.4-2.1l-0.4-0.4c-1-0.8-1.7-1.2-2.1-1.3
			c-0.5-0.1-1,0.2-1.4,0.8l-1.1,1.3c-0.5,0.6-0.7,1.2-0.5,1.5C591.8,233.4,592.3,234,593.3,234.8z"/>
		<path class="st4" d="M600.2,241.9L600.2,241.9c-0.7-0.5-1-1-1-1.4s0.2-1,0.8-1.7l5-6.3c0.4-0.4,0.6-0.5,1-0.2c0.4,0.2,0.4,0.6,0,1
			l-5.2,6.6c-0.2,0.2-0.2,0.5-0.2,0.6s0.1,0.4,0.4,0.5c0.4,0.4,0.5,0.6,0.2,1C601,242.2,600.6,242.2,600.2,241.9z"/>
		<path class="st4" d="M612.5,245.3l-0.5,0.6l-6.3-4.9l-0.6,0.7c-0.5,0.6-0.7,1.2-0.5,1.5c0.2,0.4,0.8,1.1,1.8,1.8l2.1,1.7
			c0.2,0.2,0.5,0.2,0.6,0.2c0.1,0,0.4-0.2,0.6-0.5c0.1-0.2,0.4-0.4,0.5-0.4c0.1,0,0.4,0,0.5,0.1c0.4,0.2,0.4,0.6,0,1
			c-0.4,0.5-0.8,0.8-1.3,1c-0.5,0.1-1,0-1.5-0.5l-2.3-1.7c-1.2-1-2-1.8-2.3-2.5s0-1.5,0.7-2.5l1.1-1.4c0.7-1,1.5-1.4,2.4-1.3
			c0.8,0.1,1.8,0.6,3.1,1.5l0.4,0.4c1.2,1,2,1.8,2.3,2.5C613.5,243.4,613.2,244.2,612.5,245.3z M610.1,241.1l-0.4-0.4
			c-1-0.7-1.7-1.2-2.1-1.3c-0.5-0.1-0.8,0-1.2,0.5l5.4,4.2c0.4-0.5,0.4-1,0.1-1.3C611.7,242.4,611.1,241.8,610.1,241.1z"/>
		<path class="st4" d="M618.1,255.8c-1.1-0.8-1.7-1.7-1.9-2.7c-0.2-1.1,0.1-2.1,0.8-3.1l1.8-2.4c0.8-1.1,1.7-1.5,2.7-1.7
			c1.1-0.1,2.1,0.2,3.2,1.1c1.1,0.8,1.7,1.7,1.9,2.7c0.2,1.1-0.1,2.1-0.8,3.1l-1.7,2.4c-0.7,1.1-1.7,1.5-2.7,1.7
			C620.3,256.8,619.2,256.6,618.1,255.8z M625.6,249.7c-0.1-0.7-0.6-1.4-1.4-2s-1.7-0.8-2.4-0.8c-0.7,0.1-1.4,0.5-1.9,1.3l-1.8,2.4
			c-0.6,0.7-0.8,1.5-0.7,2.3c0.1,0.7,0.6,1.4,1.4,2c0.8,0.6,1.5,0.8,2.4,0.8c0.7-0.1,1.4-0.5,1.9-1.3l1.8-2.4
			C625.5,251.2,625.7,250.4,625.6,249.7z"/>
		<path class="st4" d="M629,263.5l-2-1.4c-1.3-1-2-1.8-2.4-2.5c-0.4-0.7-0.1-1.5,0.6-2.6l1.1-1.4c0.7-1,1.4-1.4,2.3-1.4
			c0.8,0.1,1.8,0.6,3.1,1.4l2,1.4c0.6,0.5,1,0.8,0.8,1.3c0,0.5-0.2,1-0.6,1.4c-0.4,0.5-0.6,0.5-1,0.2c-0.1-0.1-0.2-0.2-0.2-0.4
			c0-0.1,0-0.4,0.2-0.6s0.4-0.5,0.2-0.7c0-0.1-0.1-0.4-0.4-0.5l-1.9-1.3c-1.1-0.7-1.8-1.2-2.3-1.2c-0.5-0.1-1,0.2-1.4,1l-1.1,1.4
			c-0.5,0.7-0.6,1.2-0.5,1.7c0.2,0.4,0.8,1,1.9,1.8l1.9,1.3c0.2,0.2,0.5,0.2,0.6,0.2c0.1,0,0.4-0.2,0.6-0.5c0.1-0.2,0.4-0.4,0.5-0.4
			c0.1,0,0.4,0,0.5,0.1c0.4,0.2,0.4,0.6,0,1c-0.4,0.5-0.8,0.8-1.2,1C630.2,264.1,629.7,264,629,263.5z"/>
		<path class="st4" d="M637.9,269.7l-2-1.4c-1.3-1-2-1.7-2.4-2.5c-0.4-0.7-0.1-1.5,0.6-2.6l1.1-1.4c0.7-1,1.4-1.4,2.3-1.4
			c0.8,0,1.9,0.5,3.1,1.4l2,1.4c0.6,0.5,1,0.8,1,1.3s-0.2,1-0.6,1.4c-0.4,0.5-0.6,0.5-1,0.2c-0.1-0.1-0.2-0.2-0.2-0.4s0-0.4,0.1-0.6
			c0.2-0.2,0.2-0.5,0.2-0.7c0-0.1-0.1-0.4-0.4-0.5l-1.9-1.3c-1.1-0.7-1.8-1.2-2.3-1.2s-1,0.2-1.4,1l-1,1.4c-0.5,0.7-0.6,1.2-0.4,1.7
			c0.2,0.4,0.8,1,1.9,1.7l1.9,1.3c0.2,0.2,0.5,0.2,0.6,0.2c0.1,0,0.4-0.2,0.6-0.5c0.1-0.2,0.4-0.4,0.5-0.4c0.1,0,0.4,0,0.5,0.1
			c0.4,0.2,0.4,0.6,0,1c-0.4,0.5-0.7,0.8-1.2,1.1C639,270.3,638.5,270.2,637.9,269.7z"/>
		<path class="st4" d="M646,273.8c1,0.7,1.8,1,2.5,0.7c0.7-0.1,1.2-0.6,1.7-1.3l1.9-2.7c0.2-0.4,0.6-0.5,1-0.2
			c0.4,0.2,0.4,0.6,0.1,1l-3.8,5.6c-0.2,0.4-0.6,0.5-1,0.2c-0.4-0.2-0.4-0.6-0.1-1.1l0.1-0.1c-1,0.1-1.9-0.2-3.1-1.1l-0.5-0.2
			c-1.3-0.8-2.1-1.7-2.4-2.4c-0.4-0.7-0.1-1.5,0.6-2.6l2.4-3.6c0.2-0.4,0.6-0.5,1-0.2c0.4,0.3,0.4,0.6,0.1,1l-2.4,3.5
			c-0.5,0.7-0.6,1.2-0.4,1.7c0.2,0.4,0.8,1,1.9,1.7L646,273.8z"/>
		<path class="st4" d="M660.5,281.3c-0.7,1-1.4,1.5-2.3,1.4c-0.8,0-1.8-0.5-3.1-1.3l-3.1-2l-1.3,2c-0.2,0.5-0.6,0.5-1,0.2
			c-0.4-0.2-0.4-0.6-0.1-1l5.4-8.1c0.2-0.4,0.6-0.5,1-0.2c0.4,0.2,0.4,0.6,0.1,1l-0.1,0.1c1-0.1,1.9,0.2,3.1,1l0.5,0.2
			c1.3,0.8,2.1,1.7,2.5,2.4c0.4,0.7,0.1,1.5-0.5,2.6L660.5,281.3z M660.4,279c0.5-0.7,0.6-1.2,0.4-1.7c-0.2-0.4-0.8-1-1.9-1.7
			l-0.5-0.2c-1-0.6-1.8-0.8-2.5-0.7c-0.7,0.1-1.2,0.6-1.7,1.3l-1.5,2.3l3.1,2c1.1,0.7,1.8,1.1,2.3,1.1s1-0.2,1.3-1L660.4,279z"/>
		<path class="st4" d="M667.2,282.8l2,1.3l0.4-0.6c0.1-0.2,0.2-0.5,0.2-0.6s-0.2-0.2-0.5-0.5l-2-1.3c-0.7-0.5-1.3-0.7-1.7-0.8
			c-0.4-0.1-0.6,0-0.7,0.2c-0.2,0.5-0.6,0.6-1,0.4c-0.4-0.2-0.4-0.6-0.1-1c0.4-0.6,1-0.8,1.5-0.8c0.6,0.1,1.4,0.4,2.4,1l2.3,1.4
			c0.6,0.4,1,0.8,1,1.2c0,0.5-0.1,1-0.6,1.7l-2.7,4.3c-0.2,0.4-0.6,0.5-1,0.2c-0.4-0.2-0.4-0.6-0.1-1l0.1-0.1c-1,0.1-1.9-0.2-3.1-1
			l-1.3-0.8c-0.5-0.4-0.8-0.7-1-1.3s0-1.1,0.4-1.7c0.6-1,1.3-1.4,2.1-1.4C664.7,281.6,665.9,282,667.2,282.8z M668.5,285.1l-2-1.3
			c-1.1-0.7-1.9-1.1-2.4-1.1s-1,0.4-1.3,1c-0.1,0.2-0.1,0.5-0.1,0.7s0.1,0.4,0.2,0.5l1.3,0.8c0.6,0.4,1.1,0.6,1.5,0.7
			c0.5,0.1,0.8,0.1,1.2-0.1c0.4-0.2,0.6-0.4,0.8-0.5C668.2,285.7,668.3,285.4,668.5,285.1z"/>
		<path class="st4" d="M676.8,287.1c-1-0.6-1.8-0.8-2.5-0.6s-1.2,0.6-1.7,1.3l-1.8,2.9c-0.2,0.4-0.6,0.5-1,0.2
			c-0.4-0.2-0.4-0.5-0.1-1l3.6-5.7c0.2-0.5,0.6-0.5,1-0.4c0.4,0.2,0.5,0.6,0.1,1.1l-0.1,0.1c1-0.1,1.9,0.2,3.1,1l0.5,0.2
			c1.3,0.8,2.1,1.5,2.5,2.3c0.4,0.7,0.2,1.5-0.4,2.6l-2.3,3.7c-0.2,0.4-0.6,0.5-1,0.4c-0.4-0.2-0.5-0.6-0.1-1l2.3-3.6
			c0.5-0.7,0.6-1.3,0.4-1.7c-0.2-0.4-0.8-1-2-1.5L676.8,287.1z"/>
		<path class="st4" d="M682.4,294.6c-0.5,0.7-0.5,1.2-0.4,1.7c0.2,0.4,0.7,0.8,1.7,1.3c0.5,0.2,0.6,0.6,0.4,1s-0.6,0.5-1.1,0.1
			c-1.1-0.7-1.9-1.3-2.1-2c-0.4-0.7-0.2-1.5,0.5-2.6l1.9-3.2c-0.2-0.2-0.4-0.5-0.1-0.8c0.1-0.2,0.4-0.4,0.7-0.2l0.8-1.4
			c0.2-0.5,0.6-0.6,1-0.4c0.4,0.2,0.5,0.6,0.1,1.1l-0.8,1.4l1.9,1.1c0.5,0.2,0.6,0.6,0.4,1s-0.5,0.4-1,0.1l-1.9-1.1L682.4,294.6z"/>
		<path class="st4" d="M701.1,296.5c0.2-0.2,0.6-0.2,0.8-0.1c0.1,0.1,0.2,0.1,0.2,0.4c0.1,0.1,0.1,0.4,0,0.5c0,0.1-0.1,0.2-0.2,0.2
			l-8.7,7l-1.2-0.7l1.5-11c0-0.1,0.1-0.2,0.1-0.4c0.1-0.2,0.2-0.2,0.4-0.2c0.2,0,0.4,0,0.5,0.1c0.2,0.1,0.4,0.4,0.4,0.7l-1.3,9.5
			L701.1,296.5z"/>
		<path class="st4" d="M708,306.9l-0.4,0.7l-7-3.8l-0.5,0.8c-0.4,0.7-0.5,1.3-0.2,1.7c0.2,0.4,1,0.8,2.1,1.5l2.4,1.3
			c0.2,0.1,0.5,0.2,0.6,0.1c0.1-0.1,0.4-0.2,0.5-0.6c0.1-0.2,0.2-0.4,0.5-0.4c0.1,0,0.4,0,0.5,0c0.4,0.2,0.5,0.5,0.1,1
			c-0.4,0.6-0.7,1-1.1,1.2c-0.4,0.2-1,0.1-1.7-0.2l-2.5-1.3c-1.4-0.7-2.3-1.4-2.6-2.1c-0.4-0.7-0.4-1.5,0.2-2.6l0.8-1.5
			c0.6-1.1,1.3-1.7,2.1-1.7c0.8,0,1.9,0.4,3.2,1.1l0.5,0.2c1.3,0.7,2.3,1.4,2.6,2.1C708.6,305,708.6,305.8,708,306.9z M705,303.2
			l-0.5-0.2c-1.1-0.6-1.9-1-2.3-1c-0.4,0-0.8,0.2-1.2,0.7l6,3.2c0.2-0.6,0.2-1,0-1.3C706.7,304.3,706.1,303.8,705,303.2z"/>
		<path class="st4" d="M714.5,308.3c-1.1-0.5-1.9-0.7-2.5-0.5c-0.6,0.2-1.2,0.7-1.5,1.4l-1.5,3c-0.2,0.5-0.5,0.6-1,0.4
			c-0.4-0.2-0.5-0.5-0.2-1l4.5-8.6c0.2-0.5,0.6-0.6,1-0.5c0.4,0.2,0.5,0.6,0.2,1l-1.5,2.9c1-0.2,2,0,3.2,0.7l0.5,0.2
			c1.4,0.7,2.3,1.4,2.7,2.1c0.4,0.7,0.4,1.5-0.2,2.6l-2,3.8c-0.2,0.5-0.5,0.6-0.8,0.4c-0.4-0.2-0.5-0.5-0.2-1l1.9-3.8
			c0.4-0.7,0.5-1.3,0.2-1.7c-0.2-0.4-1-0.8-2.1-1.4H714.5z"/>
		<path class="st4" d="M721.4,310.7c0.1-0.2,0.2-0.4,0.5-0.5c0.1,0,0.4,0,0.5,0c0.1,0.1,0.2,0.2,0.4,0.4c0.1,0.1,0,0.4-0.1,0.6
			l-3.2,6.4c-0.2,0.5-0.5,0.6-1,0.4c-0.1-0.1-0.2-0.2-0.4-0.4c-0.1-0.1,0-0.4,0.1-0.6L721.4,310.7z M723.6,309.4
			c-0.2,0-0.6,0-0.7-0.1c-0.1-0.1-0.4-0.2-0.5-0.6c-0.1-0.4-0.1-0.5,0-0.7c0.1-0.2,0.4-0.4,0.6-0.4s0.5,0,0.7,0.1s0.4,0.2,0.5,0.6
			c0.1,0.2,0.1,0.5,0,0.7C724.1,309.3,723.8,309.4,723.6,309.4z"/>
		<path class="st4" d="M727.4,322.1l-2.3-1.1c-1.4-0.7-2.4-1.3-2.7-2c-0.5-0.7-0.4-1.5,0.1-2.6l0.8-1.7c0.5-1.1,1.2-1.7,2-1.8
			s1.9,0.2,3.3,0.8l2.3,1.1c0.7,0.4,1.1,0.7,1.1,1.2c0.1,0.5,0,1-0.4,1.5c-0.2,0.5-0.5,0.6-1,0.5c-0.1-0.1-0.2-0.2-0.4-0.4
			c-0.2-0.2,0-0.4,0.1-0.6c0.1-0.4,0.2-0.6,0.1-0.7c0-0.1-0.2-0.4-0.5-0.5l-2.1-1c-1.2-0.6-2-0.8-2.4-0.8c-0.5,0-0.8,0.4-1.2,1.2
			l-0.7,1.5c-0.4,0.7-0.4,1.3-0.1,1.7c0.2,0.4,1,0.8,2.1,1.4l2.1,1c0.2,0.1,0.5,0.1,0.6,0.1c0.1-0.1,0.4-0.2,0.5-0.6
			c0.1-0.2,0.2-0.4,0.5-0.5c0.1,0,0.4,0,0.5,0c0.4,0.2,0.5,0.5,0.2,1c-0.2,0.6-0.6,1-1.1,1.2C728.6,322.5,728,322.4,727.4,322.1z"/>
		<path class="st4" d="M733.2,324.8L733.2,324.8c-0.8-0.4-1.2-0.7-1.3-1.2c-0.1-0.5,0-1.1,0.4-1.8l3.5-7.3c0.2-0.5,0.5-0.6,1-0.5
			c0.4,0.1,0.5,0.5,0.2,1l-3.5,7.5c-0.1,0.2-0.1,0.5-0.1,0.6s0.2,0.2,0.5,0.4c0.5,0.2,0.6,0.5,0.5,1
			C734.1,325,733.7,325,733.2,324.8z"/>
		<path class="st4" d="M746,325.1l-0.4,0.7l-7.4-3.2l-0.4,0.8c-0.4,0.7-0.4,1.3-0.1,1.7c0.2,0.4,1.1,0.8,2.3,1.3l2.5,1.1
			c0.2,0.1,0.5,0.1,0.6,0.1c0.1-0.1,0.2-0.2,0.5-0.6c0.1-0.2,0.2-0.4,0.4-0.5c0.1,0,0.4,0,0.5,0c0.4,0.1,0.5,0.5,0.2,1
			c-0.2,0.6-0.6,1-1,1.2c-0.4,0.2-1,0.2-1.7-0.1l-2.6-1.1c-1.4-0.6-2.4-1.3-2.9-1.9c-0.5-0.7-0.5-1.5,0-2.6l0.7-1.7
			c0.5-1.1,1.2-1.7,1.9-1.8c0.8-0.1,1.9,0.1,3.3,0.7l0.5,0.2c1.4,0.6,2.4,1.3,2.9,1.9C746.6,323.1,746.6,323.9,746,325.1z
			 M742.8,321.7l-0.5-0.2c-1.2-0.5-1.9-0.7-2.4-0.7s-0.8,0.2-1.1,0.8l6.2,2.7c0.2-0.6,0.1-1.1-0.1-1.3
			C744.6,322.5,743.8,322.1,742.8,321.7z"/>
	</g>
</g>
<path class="st13" d="M556.3,7.3c34,3.9,58.5,33.4,54.8,65.9c-2,17.9-12.3,32.9-26.7,42.2c1.7,5.4,5.1,11.7,12.6,15.4
	c0,0-16.1-0.6-27.1-8.6c-8.6,2.9-17.9,3.8-27.4,2.7C508.4,121,484,91.5,487.7,59C491.6,26.6,522.2,3.4,556.3,7.3z"/>
<g>
	<line class="st3" x1="514.3" y1="46.4" x2="590.7" y2="47.2"/>
	<path class="st6" d="M534.6,35.5l-0.1,6.6c0,1.8-0.5,3-1.5,3.6s-2.6,0.8-4.8,0.8h-5.4c-0.6,0-0.8-0.4-0.8-1.1l0.1-13.3
		c0-0.7,0.2-1.1,0.8-1.1l5.8,0.1c2,0,3.5,0.4,4.4,1C534.1,32.7,534.6,33.7,534.6,35.5z M532.8,42l0.1-6.4c0-1.2-0.2-2-0.8-2.3
		c-0.5-0.4-1.5-0.5-3.2-0.5H524l-0.1,12h4.4c1.8,0,3-0.1,3.6-0.5C532.4,44,532.7,43.3,532.8,42z"/>
	<path class="st6" d="M544,46.9c-1.9,0-3.3-0.6-4.5-1.5c-1.1-1.1-1.7-2.5-1.7-4.3v-4.3c0-1.8,0.6-3.2,1.8-4.3
		c1.2-1.1,2.6-1.5,4.5-1.5c1.9,0,3.3,0.6,4.5,1.7c1.1,1.1,1.7,2.5,1.7,4.3v4.3c0,1.8-0.6,3.2-1.8,4.3
		C547.3,46.4,545.9,46.9,544,46.9z M547.4,33.7c-0.7-0.7-1.8-1.1-3.3-1.1c-1.4,0-2.6,0.4-3.3,1.1c-0.7,0.7-1.2,1.8-1.2,3.1V41
		c0,1.3,0.4,2.4,1.1,3.1c0.7,0.7,1.8,1.1,3.3,1.1s2.5-0.4,3.3-1.1c0.7-0.7,1.2-1.8,1.2-3.1v-4.2C548.5,35.5,548.2,34.6,547.4,33.7z"
		/>
	<path class="st6" d="M565.4,47.1c-0.4,0-0.6-0.1-0.7-0.1l-8.9-12.8L555.7,46c0,0.6-0.4,1-1,1c-0.6,0-0.8-0.4-0.8-1.1l0.1-13.8
		c0-0.7,0.2-1.1,0.8-1.1c0.4,0,0.7,0.2,1,0.6l8.7,12.4l0.1-11.7c0-0.7,0.4-1.1,0.8-1.1c0.6,0,1,0.4,1,1.1l-0.1,13.8
		C566.3,46.7,566,47.1,565.4,47.1z"/>
	<path class="st6" d="M570.7,30.9c0-0.2,0.1-0.5,0.4-0.6c0.2-0.1,0.5-0.2,0.8-0.2c0.7,0,1,0.4,1,0.8c0,0.8-0.2,1.5-0.7,2.3
		c-0.5,0.7-1,1-1.3,1c-0.5,0-0.7-0.2-0.7-0.7c0-0.1,0.1-0.4,0.4-0.8C570.6,32.2,570.7,31.6,570.7,30.9z"/>
	<path class="st6" d="M585,31.6c0.7,0,1.1,0.4,1.1,1c0,0.6-0.4,0.8-1.1,0.8h-3.7l-0.1,13c0,0.4-0.1,0.6-0.4,0.7s-0.5,0.2-0.7,0.2
		c-0.2,0-0.5-0.1-0.7-0.2c-0.2-0.1-0.2-0.4-0.2-0.7l0.1-13h-3.7c-0.4,0-0.6-0.1-0.8-0.2c-0.1-0.2-0.2-0.4-0.2-0.6
		c0-0.2,0.1-0.5,0.2-0.6c0.1-0.1,0.5-0.2,0.8-0.2L585,31.6z"/>
</g>
<g>
	<line class="st3" x1="521.8" y1="69.7" x2="592.9" y2="74.7"/>
	<path class="st6" d="M529.1,69.3l1-12.8c0-0.7,0.4-1,0.8-1l4.4,0.4c1.9,0.1,3.3,0.5,4.2,1.1c0.9,0.6,1.3,1.5,1.2,3
		c-0.1,1.2-0.5,2-1.1,2.5c1.2,0.7,1.8,2,1.7,3.9v0.5c-0.1,1.7-0.7,2.7-1.7,3.3c-1,0.5-2.5,0.7-4.5,0.6l-5.1-0.4
		C529.2,70.2,529,69.9,529.1,69.3z M535.9,63.4l-4.6-0.4l-0.5,5.6L535,69c1.7,0.1,2.9,0,3.5-0.2c0.6-0.2,1-1,1-2.1v-0.4
		c0.1-1.1-0.1-1.9-0.6-2.1C538.3,63.9,537.3,63.5,535.9,63.4z M534.8,61.7c1.5,0.1,2.5,0,3.1-0.2c0.6-0.2,1-0.8,1-1.7
		c0.1-0.8-0.1-1.4-0.7-1.8c-0.5-0.4-1.5-0.5-3.1-0.6l-3.5-0.2l-0.4,4.2L534.8,61.7z"/>
	<path class="st6" d="M546.3,63.9l-0.5,5.8l9.1,0.6c0.7,0,1,0.4,1,1c0,0.5-0.4,0.7-1.1,0.7l-10-0.7c-0.5,0-0.7-0.4-0.7-1.1l1-12.8
		c0-0.7,0.4-1,0.8-1l10,0.7c0.7,0,1,0.4,1,1c0,0.5-0.4,0.7-1.1,0.7l-9.1-0.6l-0.2,3.9l6.2,0.5c0.8,0,1.2,0.4,1.1,1
		c0,0.5-0.5,0.7-1.2,0.7L546.3,63.9z"/>
	<path class="st6" d="M572.2,58.5l4.5,14.3c0,0.1,0,0.2,0,0.5c0,0.2-0.1,0.5-0.4,0.6c-0.2,0.1-0.4,0.1-0.6,0.1
		c-0.4,0-0.7-0.2-0.8-0.7l-1.3-4.2l-6.6-0.5l-1.9,3.9c-0.2,0.5-0.5,0.6-1,0.6c-0.1,0-0.4-0.1-0.6-0.2s-0.2-0.4-0.2-0.6
		c0-0.1,0-0.4,0.1-0.5l6.6-13.5L572.2,58.5z M568.1,66.9l5.1,0.4l-2.1-6.4L568.1,66.9z"/>
</g>
<g>
	<line class="st3" x1="510.3" y1="98.9" x2="598.7" y2="101.3"/>
	<path class="st2" d="M518.1,86.4c0,0.6,0.1,1.2,0.4,1.7c0.2,0.5,0.6,0.7,1,0.8l7.4,1.5c1.3,0.2,2.3,0.8,2.7,1.8
		c0.6,0.8,0.8,1.9,0.8,3.1s-0.5,2.3-1.3,3.1c-0.8,0.8-2.1,1.3-3.9,1.2l-2.6-0.1c-2.4-0.1-4.1-0.5-5.1-1.2c-1.1-0.7-1.5-2-1.5-4.1
		c0-0.7,0.4-1.2,1.1-1.1c0.2,0,0.5,0.1,0.7,0.4c0.2,0.2,0.2,0.5,0.2,0.8c0,1.4,0.2,2.3,0.8,2.6c0.6,0.4,1.9,0.6,3.8,0.6l3.2,0.1
		c1,0,1.5-0.2,2-0.8c0.4-0.6,0.6-1.2,0.6-1.8c0-0.8-0.1-1.4-0.5-1.9c-0.4-0.5-0.6-0.7-1-0.8l-7.4-1.5c-1.3-0.4-2.3-0.8-2.9-1.5
		c-0.6-0.7-0.8-1.7-0.8-3c0-0.6,0.1-1.1,0.4-1.5c0.2-0.5,0.5-1,0.8-1.4c0.4-0.5,1-0.8,1.8-1.1c0.7-0.2,1.7-0.4,2.7-0.4h2
		c1.2,0,2.1,0.1,3,0.2c0.7,0.1,1.4,0.4,2,0.7c0.6,0.4,1.1,0.8,1.3,1.5s0.4,1.5,0.4,2.6c0,0.4-0.1,0.7-0.4,0.8
		c-0.2,0.1-0.5,0.2-0.7,0.2c-0.2,0-0.5-0.1-0.7-0.4c-0.1-0.2-0.2-0.5-0.2-0.8c0-1.4-0.2-2.3-0.8-2.6c-0.6-0.4-1.9-0.6-3.9-0.6
		l-2.9-0.1c-1.1,0-1.8,0.2-2.3,0.7C518.4,85.2,518.1,85.8,518.1,86.4z"/>
	<path class="st2" d="M535.2,100.2c-0.4,0-0.7-0.1-1.1-0.5c-0.4-0.4-0.5-0.6-0.5-1s0.2-0.7,0.6-1c0.4-0.2,0.7-0.4,1.1-0.4
		c0.4,0,0.7,0.1,1.1,0.5c0.4,0.4,0.6,0.6,0.5,1c-0.1,0.4-0.2,0.7-0.6,1C535.9,100.1,535.5,100.2,535.2,100.2z"/>
	<path class="st2" d="M546.5,100.1c-2,0-3.7-0.7-4.9-1.8c-1.2-1.2-1.8-2.7-1.8-4.8l0.1-4.8c0-2,0.7-3.6,2-4.6c1.3-1.1,3-1.7,5-1.5
		c2,0,3.7,0.7,4.9,1.8c1.2,1.2,1.8,2.7,1.8,4.8l-0.1,4.8c0,2-0.7,3.6-2,4.6S548.5,100.2,546.5,100.1z M550.5,85.9
		c-0.8-0.8-2-1.2-3.6-1.3c-1.6-0.1-2.9,0.4-3.7,1.1c-0.8,0.7-1.3,1.9-1.3,3.3l-0.1,4.5c0,1.4,0.4,2.6,1.2,3.5c0.8,0.8,2,1.2,3.6,1.3
		c1.5,0,2.9-0.4,3.7-1.1s1.3-1.9,1.3-3.3l0.1-4.5C551.7,87.8,551.3,86.7,550.5,85.9z"/>
	<path class="st2" d="M557.8,100.8c-0.4,0-0.7-0.1-1.1-0.5c-0.4-0.4-0.5-0.6-0.5-1s0.2-0.7,0.6-1c0.4-0.2,0.7-0.4,1.1-0.4
		c0.4,0,0.7,0.1,1.1,0.5s0.6,0.6,0.5,1c-0.1,0.4-0.2,0.7-0.6,1C558.5,100.7,558.2,100.8,557.8,100.8z"/>
	<path class="st2" d="M573.9,83.9c0.2-0.5,0.6-0.7,1.1-0.7c0.2,0,0.4,0.1,0.6,0.2c0.2,0.1,0.4,0.4,0.4,0.7c0,0.1,0,0.4-0.1,0.5
		l-6.8,15.9h-2.3l-6-16.2c0-0.1-0.1-0.4-0.1-0.5c0-0.4,0.1-0.6,0.4-0.7c0.2-0.1,0.5-0.2,0.6-0.2c0.5,0,0.8,0.2,1,0.8l5.2,14.1
		L573.9,83.9z"/>
	<path class="st2" d="M577.8,101.3c-0.4,0-0.7-0.1-1.1-0.5c-0.4-0.4-0.5-0.6-0.5-1s0.2-0.7,0.6-1c0.4-0.2,0.7-0.4,1.1-0.4
		c0.4,0,0.7,0.1,1.1,0.5s0.6,0.6,0.5,1c-0.1,0.4-0.2,0.7-0.6,1C578.6,101.3,578.2,101.4,577.8,101.3z"/>
</g>
<line class="st13" x1="722.6" y1="112.5" x2="705.6" y2="70"/>
<line class="st13" x1="780.7" y1="112.2" x2="734.9" y2="118.7"/>
</svg>
