<?xml version="1.0" encoding="utf-8"?>
<!-- Generator: Adobe Illustrator 19.2.1, SVG Export Plug-In . SVG Version: 6.00 Build 0)  -->
<svg version="1.1" id="Layer_1" xmlns="http://www.w3.org/2000/svg" xmlns:xlink="http://www.w3.org/1999/xlink" x="0px" y="0px"
	 width="504px" height="360px" viewBox="0 0 504 360" enable-background="new 0 0 504 360" xml:space="preserve">
<g>
	<path fill="#659F9C" d="M222.7,107.2c-20.4,53.4,7.2,113.2,61.6,133.7s115.1-6.2,135.6-59.6s-7.2-113.2-61.6-133.7
		C303.9,27.2,243.1,53.8,222.7,107.2z"/>
	<path fill="none" stroke="#4D7E7A" stroke-width="1.3069" stroke-miterlimit="10" d="M320.1,140c0,0,1.7,14.2-5.8,15.4
		s-20.3,4.3-9.1,11.9C316.4,175,317,163,317,163"/>
	<path fill="none" stroke="#4D7E7A" stroke-width="1.3069" stroke-miterlimit="10" d="M302.9,168.6c0,0-12.2,14.3,10.4,17.9
		c22.5,3.7,25.7,10.1,25.7,10.1s3,19.9-8.6,17.8c-11.6-2.1-31.7-11.9-32.9-18.1c-1.2-6.2-7,2.1-7,2.1s-0.5,10.4,5.2,11.7"/>
	<path opacity="0.75" fill="#6AB445" enable-background="new    " d="M418.8,183.5c0,0-19.1-10.8-31.5,24
		c-12.4,34.8-19.3,8.9-19.3,8.9s-26,10-17.6,16.1c8.3,6.1-3.8,12.2-3.8,12.2S391.8,241.5,418.8,183.5z"/>
	<path opacity="0.75" fill="#6AB445" enable-background="new    " d="M357.9,47.6c0,0-20.3,27.1-4.3,41.8c0,0,1.7,6-4.2,9.8
		c-6,3.9-11.1,6-4.9,8.2c6.2,2.3,19.1-6,19.1-6s17.2-1,16.3,5.7c-0.8,6.7,10.6,25.5,17.9,21.6c7.3-3.8,22.2,7.9,17.6,12.8
		c-4.5,4.9,10.1,17.2,10.1,17.2S437.2,78.5,357.9,47.6z"/>
	<path opacity="0.75" fill="#6AB445" enable-background="new    " d="M313.2,41.2c0,0,16.2,22.5,5.6,24.7
		c-10.6,2.1-2.1,15.9-2.1,15.9s-0.4,16.9-15.7,2.9c-15.4-14.1-23.4-19.8-26-12.9c-2.6,6.9-24.2-1-25-3.5
		C249.2,65.8,279.8,42.4,313.2,41.2z"/>
	<path opacity="0.75" fill="#6AB445" enable-background="new    " d="M306.7,246.7c0,0-10.8-30.7-73.8-46.5
		C233,200.2,260.8,241.5,306.7,246.7z"/>
	<path opacity="0.75" fill="#6AB445" enable-background="new    " d="M223.1,116.7c0,0,23.6,20,15,30c-8.6,10,3.8,15.4,3.8,15.4
		s19.1,10.4,7.2,13.8c-11.9,3.6-22.4,3.5-18.8,7.4c3.7,3.9-1.1,9.8-1.1,9.8S205.1,152,223.1,116.7z"/>
	<path fill="#E8E7E8" d="M333.2,137.5c-5,13.1,2.4,28,16.4,33.4c14.1,5.4,29.6-1.1,34.6-14.2c5-13.1-2.4-28-16.4-33.4
		C353.7,118,338.2,124.4,333.2,137.5z"/>
	<path fill="#E8E7E8" d="M265.9,115.2c-5,13.1,2.4,28,16.4,33.4c14.1,5.2,29.6-1.1,34.6-14.2c5-13.1-2.4-28-16.4-33.4
		C286.4,95.8,270.9,102.1,265.9,115.2z"/>
	<path fill="#754E2A" d="M344.2,140.4c-2.5,6.4,0.8,13.7,7.5,16.2s13.9-0.7,16.4-7.2s-0.8-13.7-7.5-16.2
		C354,130.8,346.7,134,344.2,140.4z"/>
	<path fill="#754E2A" d="M276.1,119.5c-2.5,6.4,0.8,13.7,7.5,16.2c6.7,2.5,13.9-0.7,16.4-7.2s-0.8-13.7-7.5-16.2
		C286,109.8,278.6,113,276.1,119.5z"/>
	<path fill="#FFFFFF" stroke="#272661" stroke-miterlimit="10" d="M349.6,137.9c-0.7,2,0.2,4.3,2.3,5c2,0.7,4.3-0.2,5.1-2.3
		s-0.2-4.3-2.3-5C352.7,134.8,350.5,135.9,349.6,137.9z"/>
	<path fill="#FFFFFF" stroke="#272661" stroke-miterlimit="10" d="M283.5,117.3c-0.7,2,0.2,4.3,2.3,5c2,0.7,4.3-0.2,5.1-2.3
		s-0.2-4.3-2.3-5C286.5,114.3,284.2,115.3,283.5,117.3z"/>
	<path fill="#4D7E7A" d="M297.3,193.6c-2.9,6.9,18.1,17.8,29.8,20c13.8,2.6,12.2-5.6,12.6-12.3c0.5-7.5-2.9-8.5-13.8-12.9
		C314.8,183.9,300.2,186.7,297.3,193.6z"/>
</g>
<g>
	<path fill="#E5252A" d="M351.5,326.6l27.6,10.6l-16.6,2.3l16.4,13.5c0,0-47.6-6.1-50.9-9.2l11.3-24.6L351.5,326.6z"/>
	<path fill="#E5252A" d="M162.2,199.7l-21-20.7l4.5,16l-19.1-9.4c0,0,24.9,40.6,29.1,42.4l18.1-20.1L162.2,199.7z"/>
	<path fill="#F36D26" d="M180.5,183.9l-33,25c0,0,120.5,113,208.8,128.9l11.2-33.3C367.5,304.5,243.6,261.2,180.5,183.9z"/>
	<g>
		<path fill="none" d="M162.6,209.2c0,0,85.7,80.7,187,122"/>
		<path fill="#FFFFFF" d="M175.9,210.2c-0.2,0.2-0.5,0.6-0.5,1c-0.1,0.4,0,0.6,0.1,0.8l3.1,3.8c0.5,0.7,0.7,1.3,0.7,2
			c-0.1,0.7-0.4,1.3-0.8,1.9c-0.6,0.6-1.2,1-1.9,1.1c-0.7,0.1-1.5-0.2-2.5-1.1l-1.3-1.1c-1.2-1-1.8-1.9-2-2.6
			c-0.2-0.8,0.1-1.7,1-2.6c0.4-0.4,0.7-0.4,1-0.1c0.1,0.1,0.2,0.2,0.2,0.5c0,0.1-0.1,0.4-0.2,0.5c-0.6,0.7-0.8,1.2-0.7,1.7
			c0.1,0.5,0.7,1.1,1.7,1.9l1.5,1.3c0.5,0.4,1,0.6,1.3,0.5c0.5-0.1,0.8-0.4,1.1-0.6c0.4-0.4,0.6-0.7,0.6-1.2c0-0.4,0-0.6-0.1-0.8
			l-3-3.8c-0.6-0.7-0.8-1.3-0.8-1.9s0.2-1.2,0.8-1.8c0.2-0.2,0.5-0.5,0.8-0.7c0.4-0.2,0.6-0.2,1.1-0.4c0.4,0,0.8,0,1.3,0.2
			c0.5,0.2,1,0.5,1.5,1l1,0.8c0.6,0.5,1.1,1,1.3,1.3s0.6,0.8,0.7,1.2s0.1,0.8,0,1.3c-0.1,0.5-0.5,1-1,1.4c-0.1,0.2-0.4,0.2-0.5,0.2
			c-0.1,0-0.4,0-0.5-0.1c-0.1-0.1-0.2-0.2-0.2-0.5c0-0.2,0.1-0.4,0.2-0.5c0.6-0.7,0.8-1.2,0.7-1.7c-0.1-0.5-0.7-1.1-1.7-1.9
			l-1.4-1.2c-0.5-0.5-1-0.6-1.4-0.5C176.5,209.6,176.1,209.8,175.9,210.2z"/>
		<path fill="#FFFFFF" d="M183.3,217.3c0.1-0.2,0.4-0.4,0.5-0.4c0.1,0,0.4,0,0.5,0.1c0.1,0.1,0.2,0.2,0.2,0.4s0,0.4-0.2,0.6
			l-4.8,5.5c-0.4,0.4-0.6,0.4-1,0.1c-0.1-0.1-0.2-0.2-0.2-0.4s0-0.4,0.2-0.6L183.3,217.3z M185.6,216.5c-0.2,0-0.5-0.1-0.7-0.2
			c-0.1-0.1-0.4-0.4-0.4-0.6c-0.1-0.2,0-0.5,0.1-0.7s0.4-0.2,0.7-0.2c0.2,0,0.5,0.1,0.7,0.2c0.1,0.1,0.4,0.4,0.4,0.6
			c0,0.2,0,0.5-0.1,0.7C186.2,216.5,186,216.5,185.6,216.5z"/>
		<path fill="#FFFFFF" d="M188.9,223.2c-1-0.7-1.7-1.1-2.4-1c-0.7,0.1-1.3,0.5-1.8,1.1l-2.1,2.6c-0.4,0.4-0.6,0.5-1,0.1
			c-0.4-0.2-0.4-0.6,0-1l4.4-5.1c0.4-0.4,0.6-0.5,1-0.2c0.4,0.2,0.4,0.6,0,1.1l-0.1,0.1c1,0,1.9,0.5,3,1.3l0.4,0.4
			c1.2,1,1.9,1.9,2.1,2.6c0.2,0.7,0,1.5-0.8,2.5l-2.7,3.3c-0.4,0.4-0.6,0.5-1,0.1c-0.4-0.2-0.4-0.6,0-1l2.7-3.2
			c0.6-0.6,0.7-1.2,0.6-1.5c-0.1-0.5-0.7-1.1-1.8-1.9L188.9,223.2z"/>
		<path fill="#FFFFFF" d="M196.4,239.7c-0.5,0.6-1,1-1.4,1.1c-0.4,0.1-0.8,0-1.4-0.5l-4.4-3.6c-0.6-0.5-0.8-1-0.8-1.4s0.2-1,0.7-1.4
			c0.4-0.4,0.7-0.5,1-0.2c0.4,0.2,0.4,0.6,0,1c-0.2,0.2-0.4,0.5-0.4,0.6s0.1,0.4,0.4,0.6l4.2,3.3c0.2,0.1,0.4,0.2,0.5,0.2
			c0.1,0,0.2-0.1,0.5-0.4l1.1-1.2l-2.9-2.3c-1.2-1-1.9-1.8-2.1-2.6c-0.2-0.7,0-1.5,0.7-2.5l1.2-1.4c0.7-1,1.5-1.3,2.4-1.3
			c0.8,0.1,1.8,0.6,3,1.7l0.4,0.4c1.1,0.8,1.7,1.8,1.9,2.6l0.1-0.1c0.4-0.4,0.7-0.5,1-0.2c0.4,0.2,0.4,0.6,0,1L196.4,239.7z
			 M194.2,234.6l2.9,2.3l1.8-2.1c0.5-0.6,0.7-1.3,0.7-1.9c0-0.7-0.5-1.4-1.4-2.1l-0.4-0.4c-1-0.8-1.7-1.2-2.1-1.3
			c-0.5-0.1-1,0.2-1.4,0.8l-1.1,1.3c-0.5,0.6-0.7,1.2-0.5,1.5C192.7,233.2,193.2,233.8,194.2,234.6z"/>
		<path fill="#FFFFFF" d="M201.1,241.7L201.1,241.7c-0.7-0.5-1-1-1-1.4s0.2-1,0.8-1.7l5-6.3c0.4-0.4,0.6-0.5,1-0.2
			c0.4,0.2,0.4,0.6,0,1l-5.2,6.6c-0.2,0.2-0.2,0.5-0.2,0.6s0.1,0.4,0.4,0.5c0.4,0.4,0.5,0.6,0.2,1C201.9,242,201.5,242,201.1,241.7z
			"/>
		<path fill="#FFFFFF" d="M213.4,245.1l-0.5,0.6l-6.3-4.9l-0.6,0.7c-0.5,0.6-0.7,1.2-0.5,1.5c0.2,0.4,0.8,1.1,1.8,1.8l2.1,1.7
			c0.2,0.2,0.5,0.2,0.6,0.2s0.4-0.2,0.6-0.5c0.1-0.2,0.4-0.4,0.5-0.4c0.1,0,0.4,0,0.5,0.1c0.4,0.2,0.4,0.6,0,1
			c-0.4,0.5-0.8,0.8-1.3,1c-0.5,0.1-1,0-1.5-0.5l-2.3-1.7c-1.2-1-2-1.8-2.3-2.5s0-1.5,0.7-2.5l1.1-1.4c0.7-1,1.5-1.4,2.4-1.3
			c0.8,0.1,1.8,0.6,3.1,1.5l0.4,0.4c1.2,1,2,1.8,2.3,2.5C214.4,243.2,214.1,244,213.4,245.1z M211,240.9l-0.4-0.4
			c-1-0.7-1.7-1.2-2.1-1.3c-0.5-0.1-0.8,0-1.2,0.5l5.4,4.2c0.4-0.5,0.4-1,0.1-1.3C212.6,242.2,212,241.6,211,240.9z"/>
		<path fill="#FFFFFF" d="M219,255.6c-1.1-0.8-1.7-1.7-1.9-2.7c-0.2-1.1,0.1-2.1,0.8-3.1l1.8-2.4c0.8-1.1,1.7-1.5,2.7-1.7
			c1.1-0.1,2.1,0.2,3.2,1.1c1.1,0.8,1.7,1.7,1.9,2.7c0.2,1.1-0.1,2.1-0.8,3.1L225,255c-0.7,1.1-1.7,1.5-2.7,1.7
			C221.2,256.6,220.1,256.4,219,255.6z M226.5,249.5c-0.1-0.7-0.6-1.4-1.4-2c-0.8-0.6-1.7-0.8-2.4-0.8c-0.7,0.1-1.4,0.5-1.9,1.3
			l-1.8,2.4c-0.6,0.7-0.8,1.5-0.7,2.3c0.1,0.7,0.6,1.4,1.4,2c0.8,0.6,1.5,0.8,2.4,0.8c0.7-0.1,1.4-0.5,1.9-1.3l1.8-2.4
			C226.4,251,226.6,250.2,226.5,249.5z"/>
		<path fill="#FFFFFF" d="M229.9,263.3l-2-1.4c-1.3-1-2-1.8-2.4-2.5s-0.1-1.5,0.6-2.6l1.1-1.4c0.7-1,1.4-1.4,2.3-1.4
			c0.8,0.1,1.8,0.6,3.1,1.4l2,1.4c0.6,0.5,1,0.8,0.8,1.3c0,0.5-0.2,1-0.6,1.4c-0.4,0.5-0.6,0.5-1,0.2c-0.1-0.1-0.2-0.2-0.2-0.4
			c0-0.1,0-0.4,0.2-0.6s0.4-0.5,0.2-0.7c0-0.1-0.1-0.4-0.4-0.5l-1.9-1.3c-1.1-0.7-1.8-1.2-2.3-1.2c-0.5-0.1-1,0.2-1.4,1l-1.1,1.4
			c-0.5,0.7-0.6,1.2-0.5,1.7c0.2,0.4,0.8,1,1.9,1.8l1.9,1.3c0.2,0.2,0.5,0.2,0.6,0.2s0.4-0.2,0.6-0.5c0.1-0.2,0.4-0.4,0.5-0.4
			c0.1,0,0.4,0,0.5,0.1c0.4,0.2,0.4,0.6,0,1c-0.4,0.5-0.8,0.8-1.2,1C231.1,263.9,230.6,263.8,229.9,263.3z"/>
		<path fill="#FFFFFF" d="M238.8,269.5l-2-1.4c-1.3-1-2-1.7-2.4-2.5c-0.4-0.7-0.1-1.5,0.6-2.6l1.1-1.4c0.7-1,1.4-1.4,2.3-1.4
			c0.8,0,1.9,0.5,3.1,1.4l2,1.4c0.6,0.5,1,0.8,1,1.3c0,0.5-0.2,1-0.6,1.4c-0.4,0.5-0.6,0.5-1,0.2c-0.1-0.1-0.2-0.2-0.2-0.4
			s0-0.4,0.1-0.6c0.2-0.2,0.2-0.5,0.2-0.7c0-0.1-0.1-0.4-0.4-0.5l-1.9-1.3c-1.1-0.7-1.8-1.2-2.3-1.2c-0.5,0-1,0.2-1.4,1l-1,1.4
			c-0.5,0.7-0.6,1.2-0.4,1.7c0.2,0.4,0.8,1,1.9,1.7l1.9,1.3c0.2,0.2,0.5,0.2,0.6,0.2s0.4-0.2,0.6-0.5c0.1-0.2,0.4-0.4,0.5-0.4
			c0.1,0,0.4,0,0.5,0.1c0.4,0.2,0.4,0.6,0,1c-0.4,0.5-0.7,0.8-1.2,1.1C239.9,270.1,239.4,270,238.8,269.5z"/>
		<path fill="#FFFFFF" d="M246.9,273.6c1,0.7,1.8,1,2.5,0.7c0.7-0.1,1.2-0.6,1.7-1.3l1.9-2.7c0.2-0.4,0.6-0.5,1-0.2
			c0.4,0.2,0.4,0.6,0.1,1l-3.8,5.6c-0.2,0.4-0.6,0.5-1,0.2c-0.4-0.2-0.4-0.6-0.1-1.1l0.1-0.1c-1,0.1-1.9-0.2-3.1-1.1l-0.5-0.2
			c-1.3-0.8-2.1-1.7-2.4-2.4c-0.4-0.7-0.1-1.5,0.6-2.6l2.4-3.6c0.2-0.4,0.6-0.5,1-0.2s0.4,0.6,0.1,1l-2.4,3.5
			c-0.5,0.7-0.6,1.2-0.4,1.7c0.2,0.4,0.8,1,1.9,1.7L246.9,273.6z"/>
		<path fill="#FFFFFF" d="M261.4,281.1c-0.7,1-1.4,1.5-2.3,1.4c-0.8,0-1.8-0.5-3.1-1.3l-3.1-2l-1.3,2c-0.2,0.5-0.6,0.5-1,0.2
			c-0.4-0.2-0.4-0.6-0.1-1l5.4-8.1c0.2-0.4,0.6-0.5,1-0.2c0.4,0.2,0.4,0.6,0.1,1l-0.1,0.1c1-0.1,1.9,0.2,3.1,1l0.5,0.2
			c1.3,0.8,2.1,1.7,2.5,2.4c0.4,0.7,0.1,1.5-0.5,2.6L261.4,281.1z M261.3,278.8c0.5-0.7,0.6-1.2,0.4-1.7c-0.2-0.4-0.8-1-1.9-1.7
			l-0.5-0.2c-1-0.6-1.8-0.8-2.5-0.7c-0.7,0.1-1.2,0.6-1.7,1.3l-1.5,2.3l3.1,2c1.1,0.7,1.8,1.1,2.3,1.1s1-0.2,1.3-1L261.3,278.8z"/>
		<path fill="#FFFFFF" d="M268.1,282.6l2,1.3l0.4-0.6c0.1-0.2,0.2-0.5,0.2-0.6c0-0.1-0.2-0.2-0.5-0.5l-2-1.3
			c-0.7-0.5-1.3-0.7-1.7-0.8c-0.4-0.1-0.6,0-0.7,0.2c-0.2,0.5-0.6,0.6-1,0.4c-0.4-0.2-0.4-0.6-0.1-1c0.4-0.6,1-0.8,1.5-0.8
			c0.6,0.1,1.4,0.4,2.4,1l2.3,1.4c0.6,0.4,1,0.8,1,1.2c0,0.5-0.1,1-0.6,1.7l-2.7,4.3c-0.2,0.4-0.6,0.5-1,0.2c-0.4-0.2-0.4-0.6-0.1-1
			l0.1-0.1c-1,0.1-1.9-0.2-3.1-1l-1.3-0.8c-0.5-0.4-0.8-0.7-1-1.3s0-1.1,0.4-1.7c0.6-1,1.3-1.4,2.1-1.4
			C265.6,281.4,266.8,281.8,268.1,282.6z M269.4,284.9l-2-1.3c-1.1-0.7-1.9-1.1-2.4-1.1s-1,0.4-1.3,1c-0.1,0.2-0.1,0.5-0.1,0.7
			c0,0.2,0.1,0.4,0.2,0.5l1.3,0.8c0.6,0.4,1.1,0.6,1.5,0.7c0.5,0.1,0.8,0.1,1.2-0.1c0.4-0.2,0.6-0.4,0.8-0.5
			C269.1,285.5,269.2,285.2,269.4,284.9z"/>
		<path fill="#FFFFFF" d="M277.7,286.9c-1-0.6-1.8-0.8-2.5-0.6s-1.2,0.6-1.7,1.3l-1.8,2.9c-0.2,0.4-0.6,0.5-1,0.2
			c-0.4-0.2-0.4-0.5-0.1-1l3.6-5.7c0.2-0.5,0.6-0.5,1-0.4c0.4,0.2,0.5,0.6,0.1,1.1l-0.1,0.1c1-0.1,1.9,0.2,3.1,1l0.5,0.2
			c1.3,0.8,2.1,1.5,2.5,2.3c0.4,0.7,0.2,1.5-0.4,2.6l-2.3,3.7c-0.2,0.4-0.6,0.5-1,0.4c-0.4-0.2-0.5-0.6-0.1-1l2.3-3.6
			c0.5-0.7,0.6-1.3,0.4-1.7c-0.2-0.4-0.8-1-2-1.5L277.7,286.9z"/>
		<path fill="#FFFFFF" d="M283.3,294.4c-0.5,0.7-0.5,1.2-0.4,1.7c0.2,0.4,0.7,0.8,1.7,1.3c0.5,0.2,0.6,0.6,0.4,1
			c-0.2,0.4-0.6,0.5-1.1,0.1c-1.1-0.7-1.9-1.3-2.1-2c-0.4-0.7-0.2-1.5,0.5-2.6l1.9-3.2c-0.2-0.2-0.4-0.5-0.1-0.8
			c0.1-0.2,0.4-0.4,0.7-0.2l0.8-1.4c0.2-0.5,0.6-0.6,1-0.4c0.4,0.2,0.5,0.6,0.1,1.1l-0.8,1.4l1.9,1.1c0.5,0.2,0.6,0.6,0.4,1
			c-0.2,0.4-0.5,0.4-1,0.1l-1.9-1.1L283.3,294.4z"/>
		<path fill="#FFFFFF" d="M302,296.3c0.2-0.2,0.6-0.2,0.8-0.1c0.1,0.1,0.2,0.1,0.2,0.4c0.1,0.1,0.1,0.4,0,0.5c0,0.1-0.1,0.2-0.2,0.2
			l-8.7,7l-1.2-0.7l1.5-11c0-0.1,0.1-0.2,0.1-0.4c0.1-0.2,0.2-0.2,0.4-0.2s0.4,0,0.5,0.1c0.2,0.1,0.4,0.4,0.4,0.7l-1.3,9.5
			L302,296.3z"/>
		<path fill="#FFFFFF" d="M308.9,306.7l-0.4,0.7l-7-3.8l-0.5,0.8c-0.4,0.7-0.5,1.3-0.2,1.7c0.2,0.4,1,0.8,2.1,1.5l2.4,1.3
			c0.2,0.1,0.5,0.2,0.6,0.1c0.1-0.1,0.4-0.2,0.5-0.6c0.1-0.2,0.2-0.4,0.5-0.4c0.1,0,0.4,0,0.5,0c0.4,0.2,0.5,0.5,0.1,1
			c-0.4,0.6-0.7,1-1.1,1.2c-0.4,0.2-1,0.1-1.7-0.2l-2.5-1.3c-1.4-0.7-2.3-1.4-2.6-2.1c-0.4-0.7-0.4-1.5,0.2-2.6l0.8-1.5
			c0.6-1.1,1.3-1.7,2.1-1.7c0.8,0,1.9,0.4,3.2,1.1l0.5,0.2c1.3,0.7,2.3,1.4,2.6,2.1C309.5,304.8,309.5,305.6,308.9,306.7z
			 M305.9,303l-0.5-0.2c-1.1-0.6-1.9-1-2.3-1s-0.8,0.2-1.2,0.7l6,3.2c0.2-0.6,0.2-1,0-1.3C307.6,304.1,307,303.6,305.9,303z"/>
		<path fill="#FFFFFF" d="M315.4,308.1c-1.1-0.5-1.9-0.7-2.5-0.5c-0.6,0.2-1.2,0.7-1.5,1.4l-1.5,3c-0.2,0.5-0.5,0.6-1,0.4
			c-0.4-0.2-0.5-0.5-0.2-1l4.5-8.6c0.2-0.5,0.6-0.6,1-0.5c0.4,0.2,0.5,0.6,0.2,1l-1.5,2.9c1-0.2,2,0,3.2,0.7l0.5,0.2
			c1.4,0.7,2.3,1.4,2.7,2.1c0.4,0.7,0.4,1.5-0.2,2.6l-2,3.8c-0.2,0.5-0.5,0.6-0.8,0.4c-0.4-0.2-0.5-0.5-0.2-1l1.9-3.8
			c0.4-0.7,0.5-1.3,0.2-1.7c-0.2-0.4-1-0.8-2.1-1.4L315.4,308.1z"/>
		<path fill="#FFFFFF" d="M322.3,310.5c0.1-0.2,0.2-0.4,0.5-0.5c0.1,0,0.4,0,0.5,0c0.1,0.1,0.2,0.2,0.4,0.4c0.1,0.1,0,0.4-0.1,0.6
			l-3.2,6.4c-0.2,0.5-0.5,0.6-1,0.4c-0.1-0.1-0.2-0.2-0.4-0.4c-0.1-0.1,0-0.4,0.1-0.6L322.3,310.5z M324.5,309.2
			c-0.2,0-0.6,0-0.7-0.1c-0.1-0.1-0.4-0.2-0.5-0.6c-0.1-0.4-0.1-0.5,0-0.7c0.1-0.2,0.4-0.4,0.6-0.4c0.2,0,0.5,0,0.7,0.1
			c0.2,0.1,0.4,0.2,0.5,0.6c0.1,0.2,0.1,0.5,0,0.7C325,309.1,324.7,309.2,324.5,309.2z"/>
		<path fill="#FFFFFF" d="M328.3,321.9l-2.3-1.1c-1.4-0.7-2.4-1.3-2.7-2c-0.5-0.7-0.4-1.5,0.1-2.6l0.8-1.7c0.5-1.1,1.2-1.7,2-1.8
			s1.9,0.2,3.3,0.8l2.3,1.1c0.7,0.4,1.1,0.7,1.1,1.2c0.1,0.5,0,1-0.4,1.5c-0.2,0.5-0.5,0.6-1,0.5c-0.1-0.1-0.2-0.2-0.4-0.4
			s0-0.4,0.1-0.6c0.1-0.4,0.2-0.6,0.1-0.7c0-0.1-0.2-0.4-0.5-0.5l-2.1-1c-1.2-0.6-2-0.8-2.4-0.8c-0.5,0-0.8,0.4-1.2,1.2l-0.7,1.5
			c-0.4,0.7-0.4,1.3-0.1,1.7c0.2,0.4,1,0.8,2.1,1.4l2.1,1c0.2,0.1,0.5,0.1,0.6,0.1c0.1-0.1,0.4-0.2,0.5-0.6c0.1-0.2,0.2-0.4,0.5-0.5
			c0.1,0,0.4,0,0.5,0c0.4,0.2,0.5,0.5,0.2,1c-0.2,0.6-0.6,1-1.1,1.2C329.5,322.3,328.9,322.2,328.3,321.9z"/>
		<path fill="#FFFFFF" d="M334.1,324.6L334.1,324.6c-0.8-0.4-1.2-0.7-1.3-1.2c-0.1-0.5,0-1.1,0.4-1.8l3.5-7.3c0.2-0.5,0.5-0.6,1-0.5
			c0.4,0.1,0.5,0.5,0.2,1l-3.5,7.5c-0.1,0.2-0.1,0.5-0.1,0.6c0,0.1,0.2,0.2,0.5,0.4c0.5,0.2,0.6,0.5,0.5,1
			C335,324.8,334.6,324.8,334.1,324.6z"/>
		<path fill="#FFFFFF" d="M346.9,324.9l-0.4,0.7l-7.4-3.2l-0.4,0.8c-0.4,0.7-0.4,1.3-0.1,1.7c0.2,0.4,1.1,0.8,2.3,1.3l2.5,1.1
			c0.2,0.1,0.5,0.1,0.6,0.1c0.1-0.1,0.2-0.2,0.5-0.6c0.1-0.2,0.2-0.4,0.4-0.5c0.1,0,0.4,0,0.5,0c0.4,0.1,0.5,0.5,0.2,1
			c-0.2,0.6-0.6,1-1,1.2s-1,0.2-1.7-0.1l-2.6-1.1c-1.4-0.6-2.4-1.3-2.9-1.9c-0.5-0.7-0.5-1.5,0-2.6l0.7-1.7c0.5-1.1,1.2-1.7,1.9-1.8
			c0.8-0.1,1.9,0.1,3.3,0.7l0.5,0.2c1.4,0.6,2.4,1.3,2.9,1.9C347.5,322.9,347.5,323.7,346.9,324.9z M343.7,321.5l-0.5-0.2
			c-1.2-0.5-1.9-0.7-2.4-0.7s-0.8,0.2-1.1,0.8l6.2,2.7c0.2-0.6,0.1-1.1-0.1-1.3C345.5,322.3,344.7,321.9,343.7,321.5z"/>
	</g>
</g>
<path fill="none" stroke="#272661" stroke-width="2" stroke-linecap="round" stroke-miterlimit="10" d="M157.2,7.1
	C191.2,11,215.7,40.5,212,73c-2,17.9-12.3,32.9-26.7,42.2c1.7,5.4,5.1,11.7,12.6,15.4c0,0-16.1-0.6-27.1-8.6
	c-8.6,2.9-17.9,3.8-27.4,2.7c-34.1-3.9-58.5-33.4-54.8-65.9C92.5,26.4,123.1,3.2,157.2,7.1z"/>
<g>
	<line fill="none" x1="115.2" y1="46.2" x2="191.6" y2="47"/>
	<path opacity="0.75" fill="#6AB445" enable-background="new    " d="M135.5,35.3l-0.1,6.6c0,1.8-0.5,3-1.5,3.6
		c-1,0.6-2.6,0.8-4.8,0.8h-5.4c-0.6,0-0.8-0.4-0.8-1.1l0.1-13.3c0-0.7,0.2-1.1,0.8-1.1l5.8,0.1c2,0,3.5,0.4,4.4,1
		C135,32.5,135.5,33.5,135.5,35.3z M133.7,41.8l0.1-6.4c0-1.2-0.2-2-0.8-2.3c-0.5-0.4-1.5-0.5-3.2-0.5h-4.9l-0.1,12h4.4
		c1.8,0,3-0.1,3.6-0.5C133.3,43.8,133.6,43.1,133.7,41.8z"/>
	<path opacity="0.75" fill="#6AB445" enable-background="new    " d="M144.9,46.7c-1.9,0-3.3-0.6-4.5-1.5c-1.1-1.1-1.7-2.5-1.7-4.3
		v-4.3c0-1.8,0.6-3.2,1.8-4.3s2.6-1.5,4.5-1.5c1.9,0,3.3,0.6,4.5,1.7c1.1,1.1,1.7,2.5,1.7,4.3v4.3c0,1.8-0.6,3.2-1.8,4.3
		C148.2,46.2,146.8,46.7,144.9,46.7z M148.3,33.5c-0.7-0.7-1.8-1.1-3.3-1.1c-1.4,0-2.6,0.4-3.3,1.1c-0.7,0.7-1.2,1.8-1.2,3.1v4.2
		c0,1.3,0.4,2.4,1.1,3.1c0.7,0.7,1.8,1.1,3.3,1.1s2.5-0.4,3.3-1.1c0.7-0.7,1.2-1.8,1.2-3.1v-4.2C149.4,35.3,149.1,34.4,148.3,33.5z"
		/>
	<path opacity="0.75" fill="#6AB445" enable-background="new    " d="M166.3,46.9c-0.4,0-0.6-0.1-0.7-0.1L156.7,34l-0.1,11.8
		c0,0.6-0.4,1-1,1c-0.6,0-0.8-0.4-0.8-1.1l0.1-13.8c0-0.7,0.2-1.1,0.8-1.1c0.4,0,0.7,0.2,1,0.6l8.7,12.4l0.1-11.7
		c0-0.7,0.4-1.1,0.8-1.1c0.6,0,1,0.4,1,1.1l-0.1,13.8C167.2,46.5,166.9,46.9,166.3,46.9z"/>
	<path opacity="0.75" fill="#6AB445" enable-background="new    " d="M171.6,30.7c0-0.2,0.1-0.5,0.4-0.6c0.2-0.1,0.5-0.2,0.8-0.2
		c0.7,0,1,0.4,1,0.8c0,0.8-0.2,1.5-0.7,2.3c-0.5,0.7-1,1-1.3,1c-0.5,0-0.7-0.2-0.7-0.7c0-0.1,0.1-0.4,0.4-0.8
		C171.5,32,171.6,31.4,171.6,30.7z"/>
	<path opacity="0.75" fill="#6AB445" enable-background="new    " d="M185.9,31.4c0.7,0,1.1,0.4,1.1,1c0,0.6-0.4,0.8-1.1,0.8h-3.7
		l-0.1,13c0,0.4-0.1,0.6-0.4,0.7s-0.5,0.2-0.7,0.2c-0.2,0-0.5-0.1-0.7-0.2c-0.2-0.1-0.2-0.4-0.2-0.7l0.1-13h-3.7
		c-0.4,0-0.6-0.1-0.8-0.2c-0.1-0.2-0.2-0.4-0.2-0.6c0-0.2,0.1-0.5,0.2-0.6c0.1-0.1,0.5-0.2,0.8-0.2L185.9,31.4z"/>
</g>
<g>
	<line fill="none" x1="122.7" y1="69.5" x2="193.8" y2="74.5"/>
	<path opacity="0.75" fill="#6AB445" enable-background="new    " d="M130,69.1l1-12.8c0-0.7,0.4-1,0.8-1l4.4,0.4
		c1.9,0.1,3.3,0.5,4.2,1.1s1.3,1.5,1.2,3c-0.1,1.2-0.5,2-1.1,2.5c1.2,0.7,1.8,2,1.7,3.9v0.5c-0.1,1.7-0.7,2.7-1.7,3.3
		c-1,0.5-2.5,0.7-4.5,0.6l-5.1-0.4C130.1,70,129.9,69.7,130,69.1z M136.8,63.2l-4.6-0.4l-0.5,5.6l4.2,0.4c1.7,0.1,2.9,0,3.5-0.2
		c0.6-0.2,1-1,1-2.1v-0.4c0.1-1.1-0.1-1.9-0.6-2.1C139.2,63.7,138.2,63.3,136.8,63.2z M135.7,61.5c1.5,0.1,2.5,0,3.1-0.2
		c0.6-0.2,1-0.8,1-1.7c0.1-0.8-0.1-1.4-0.7-1.8c-0.5-0.4-1.5-0.5-3.1-0.6l-3.5-0.2l-0.4,4.2L135.7,61.5z"/>
	<path opacity="0.75" fill="#6AB445" enable-background="new    " d="M147.2,63.7l-0.5,5.8l9.1,0.6c0.7,0,1,0.4,1,1
		c0,0.5-0.4,0.7-1.1,0.7l-10-0.7c-0.5,0-0.7-0.4-0.7-1.1l1-12.8c0-0.7,0.4-1,0.8-1l10,0.7c0.7,0,1,0.4,1,1c0,0.5-0.4,0.7-1.1,0.7
		l-9.1-0.6l-0.2,3.9l6.2,0.5c0.8,0,1.2,0.4,1.1,1c0,0.5-0.5,0.7-1.2,0.7L147.2,63.7z"/>
	<path opacity="0.75" fill="#6AB445" enable-background="new    " d="M173.1,58.3l4.5,14.3c0,0.1,0,0.2,0,0.5c0,0.2-0.1,0.5-0.4,0.6
		c-0.2,0.1-0.4,0.1-0.6,0.1c-0.4,0-0.7-0.2-0.8-0.7l-1.3-4.2l-6.6-0.5l-1.9,3.9c-0.2,0.5-0.5,0.6-1,0.6c-0.1,0-0.4-0.1-0.6-0.2
		c-0.2-0.1-0.2-0.4-0.2-0.6c0-0.1,0-0.4,0.1-0.5l6.6-13.5L173.1,58.3z M169,66.7l5.1,0.4l-2.1-6.4L169,66.7z"/>
</g>
<g>
	<line fill="none" x1="111.2" y1="98.7" x2="199.6" y2="101.1"/>
	<path fill="#659F9C" d="M119,86.2c0,0.6,0.1,1.2,0.4,1.7c0.2,0.5,0.6,0.7,1,0.8l7.4,1.5c1.3,0.2,2.3,0.8,2.7,1.8
		c0.6,0.8,0.8,1.9,0.8,3.1c0,1.2-0.5,2.3-1.3,3.1c-0.8,0.8-2.1,1.3-3.9,1.2l-2.6-0.1c-2.4-0.1-4.1-0.5-5.1-1.2
		c-1.1-0.7-1.5-2-1.5-4.1c0-0.7,0.4-1.2,1.1-1.1c0.2,0,0.5,0.1,0.7,0.4c0.2,0.2,0.2,0.5,0.2,0.8c0,1.4,0.2,2.3,0.8,2.6
		c0.6,0.4,1.9,0.6,3.8,0.6l3.2,0.1c1,0,1.5-0.2,2-0.8c0.4-0.6,0.6-1.2,0.6-1.8c0-0.8-0.1-1.4-0.5-1.9c-0.4-0.5-0.6-0.7-1-0.8
		l-7.4-1.5c-1.3-0.4-2.3-0.8-2.9-1.5c-0.6-0.7-0.8-1.7-0.8-3c0-0.6,0.1-1.1,0.4-1.5c0.2-0.5,0.5-1,0.8-1.4c0.4-0.5,1-0.8,1.8-1.1
		c0.7-0.2,1.7-0.4,2.7-0.4h2c1.2,0,2.1,0.1,3,0.2c0.7,0.1,1.4,0.4,2,0.7c0.6,0.4,1.1,0.8,1.3,1.5c0.2,0.7,0.4,1.5,0.4,2.6
		c0,0.4-0.1,0.7-0.4,0.8c-0.2,0.1-0.5,0.2-0.7,0.2c-0.2,0-0.5-0.1-0.7-0.4c-0.1-0.2-0.2-0.5-0.2-0.8c0-1.4-0.2-2.3-0.8-2.6
		c-0.6-0.4-1.9-0.6-3.9-0.6l-2.9-0.1c-1.1,0-1.8,0.2-2.3,0.7C119.3,85,119,85.6,119,86.2z"/>
	<path fill="#659F9C" d="M136.1,100c-0.4,0-0.7-0.1-1.1-0.5c-0.4-0.4-0.5-0.6-0.5-1s0.2-0.7,0.6-1c0.4-0.2,0.7-0.4,1.1-0.4
		c0.4,0,0.7,0.1,1.1,0.5c0.4,0.4,0.6,0.6,0.5,1c-0.1,0.4-0.2,0.7-0.6,1C136.8,99.9,136.4,100,136.1,100z"/>
	<path fill="#659F9C" d="M147.4,99.9c-2,0-3.7-0.7-4.9-1.8c-1.2-1.2-1.8-2.7-1.8-4.8l0.1-4.8c0-2,0.7-3.6,2-4.6c1.3-1.1,3-1.7,5-1.5
		c2,0,3.7,0.7,4.9,1.8c1.2,1.2,1.8,2.7,1.8,4.8l-0.1,4.8c0,2-0.7,3.6-2,4.6C151.1,99.4,149.4,100,147.4,99.9z M151.4,85.7
		c-0.8-0.8-2-1.2-3.6-1.3s-2.9,0.4-3.7,1.1c-0.8,0.7-1.3,1.9-1.3,3.3l-0.1,4.5c0,1.4,0.4,2.6,1.2,3.5c0.8,0.8,2,1.2,3.6,1.3
		c1.5,0,2.9-0.4,3.7-1.1c0.8-0.7,1.3-1.9,1.3-3.3l0.1-4.5C152.6,87.6,152.2,86.5,151.4,85.7z"/>
	<path fill="#659F9C" d="M158.7,100.6c-0.4,0-0.7-0.1-1.1-0.5s-0.5-0.6-0.5-1s0.2-0.7,0.6-1c0.4-0.2,0.7-0.4,1.1-0.4
		c0.4,0,0.7,0.1,1.1,0.5c0.4,0.4,0.6,0.6,0.5,1c-0.1,0.4-0.2,0.7-0.6,1C159.4,100.5,159.1,100.6,158.7,100.6z"/>
	<path fill="#659F9C" d="M174.8,83.7c0.2-0.5,0.6-0.7,1.1-0.7c0.2,0,0.4,0.1,0.6,0.2c0.2,0.1,0.4,0.4,0.4,0.7c0,0.1,0,0.4-0.1,0.5
		l-6.8,15.9h-2.3l-6-16.2c0-0.1-0.1-0.4-0.1-0.5c0-0.4,0.1-0.6,0.4-0.7c0.2-0.1,0.5-0.2,0.6-0.2c0.5,0,0.8,0.2,1,0.8l5.2,14.1
		L174.8,83.7z"/>
	<path fill="#659F9C" d="M178.7,101.1c-0.4,0-0.7-0.1-1.1-0.5c-0.4-0.4-0.5-0.6-0.5-1c0-0.4,0.2-0.7,0.6-1c0.4-0.2,0.7-0.4,1.1-0.4
		c0.4,0,0.7,0.1,1.1,0.5c0.4,0.4,0.6,0.6,0.5,1s-0.2,0.7-0.6,1C179.5,101.1,179.1,101.2,178.7,101.1z"/>
</g>
<line fill="none" stroke="#272661" stroke-width="2" stroke-linecap="round" stroke-miterlimit="10" x1="323.5" y1="112.3" x2="306.5" y2="69.8"/>
<line fill="none" stroke="#272661" stroke-width="2" stroke-linecap="round" stroke-miterlimit="10" x1="381.6" y1="112" x2="335.8" y2="118.5"/>
</svg>
