<?xml version="1.0" encoding="utf-8"?>
<!-- Generator: Adobe Illustrator 19.2.1, SVG Export Plug-In . SVG Version: 6.00 Build 0)  -->
<svg version="1.1" id="Layer_1" xmlns="http://www.w3.org/2000/svg" xmlns:xlink="http://www.w3.org/1999/xlink" x="0px" y="0px"
	 width="864px" height="360px" viewBox="0 0 864 360" enable-background="new 0 0 864 360" xml:space="preserve">
<g id="Footprint">
	<g>
		<path fill="#659F9C" d="M702.1,136.8c8.7,8,18.7,13.1,28.5,15.1c4.9,1,9.2,3.8,12.2,7.8c3,4.2,6.7,8.3,10.8,12.1
			c20.8,19.1,47,24.4,58.5,11.9c11.6-12.6,4.1-38.2-16.7-57.4c-5.3-4.9-11-8.9-16.7-11.9c-4.3-2.3-7.5-6.1-9.3-10.6
			c-3.2-8.1-8.6-16.1-16-22.9c-20.4-18.8-48.5-21.5-62.7-6.1C676.5,90.2,681.6,118,702.1,136.8z"/>
		
			<ellipse transform="matrix(0.6772 -0.7358 0.7358 0.6772 145.5181 513.5626)" fill="#659F9C" cx="658.1" cy="90.9" rx="12.2" ry="17.2"/>
		
			<ellipse transform="matrix(0.6772 -0.7358 0.7358 0.6772 165.3507 516.1254)" fill="#659F9C" cx="670.9" cy="69.6" rx="7.1" ry="11.1"/>
		
			<ellipse transform="matrix(0.6772 -0.7358 0.7358 0.6772 178.1821 521.3676)" fill="#659F9C" cx="683.3" cy="57.6" rx="5.6" ry="10.1"/>
		
			<ellipse transform="matrix(0.6772 -0.7358 0.7358 0.6772 189.1101 529.8126)" fill="#659F9C" cx="698.4" cy="49.4" rx="7.1" ry="9.6"/>
		
			<ellipse transform="matrix(0.6772 -0.7358 0.7358 0.6772 197.5636 542.6736)" fill="#659F9C" cx="717.3" cy="46.2" rx="5.1" ry="9.6"/>
	</g>
	<g>
		<rect x="640" y="233.2" fill="none" width="204.1" height="90.1"/>
		<path fill="#272661" d="M643.8,249.1v-0.6c0.5-0.2,1.1-0.4,1.7-0.5v-12.5c-0.3-0.1-0.6-0.2-0.9-0.2c-0.3-0.1-0.6-0.2-0.8-0.3v-0.6
			h2.2c0.2,0,0.5,0,0.8,0s0.7,0,1-0.1c0.3,0,0.7,0,1-0.1s0.6,0,0.8,0c2.4,0,4.2,0.6,5.5,1.9c1.3,1.3,1.9,3.1,1.9,5.4
			c0,1.1-0.2,2.1-0.5,3.1c-0.3,1-0.8,1.8-1.4,2.5s-1.5,1.2-2.5,1.6c-1,0.4-2.2,0.6-3.5,0.6c-0.2,0-0.5,0-0.7,0c-0.3,0-0.5,0-0.8-0.1
			c-0.3,0-0.6,0-0.9-0.1c-0.3,0-0.6,0-0.9,0L643.8,249.1L643.8,249.1z M649.3,235.3c-0.4,0-0.7,0-1.1,0c-0.3,0-0.6,0-0.8,0.1v12.8
			c0.1,0,0.2,0,0.4,0c0.2,0,0.4,0,0.6,0s0.4,0,0.6,0s0.3,0,0.4,0c1,0,1.8-0.2,2.5-0.5c0.7-0.4,1.2-0.9,1.7-1.5
			c0.4-0.6,0.7-1.3,0.9-2.1c0.2-0.8,0.3-1.6,0.3-2.5c0-0.7-0.1-1.4-0.3-2.1c-0.2-0.7-0.5-1.4-0.9-2c-0.4-0.6-1-1.1-1.7-1.5
			S650.3,235.3,649.3,235.3z"/>
		<path fill="#272661" d="M663.7,249.1H659v-0.5c0.2-0.1,0.4-0.2,0.7-0.3c0.2-0.1,0.5-0.2,0.7-0.2v-8.3l-1.4-0.2v-0.5
			c0.4-0.2,0.9-0.3,1.3-0.4c0.5-0.1,1-0.2,1.4-0.3h0.5v9.8c0.3,0.1,0.5,0.1,0.8,0.2c0.2,0.1,0.4,0.2,0.6,0.3L663.7,249.1
			L663.7,249.1z M660,235c0-0.4,0.1-0.7,0.4-0.9s0.6-0.3,1-0.3c0.4,0,0.7,0.1,1,0.3s0.4,0.5,0.4,0.9s-0.1,0.7-0.4,0.9
			c-0.2,0.2-0.6,0.3-1,0.3c-0.4,0-0.7-0.1-1-0.3C660.1,235.6,660,235.3,660,235z"/>
		<path fill="#272661" d="M669.5,249.4l-4.1-9.8c-0.4-0.1-0.8-0.3-1.1-0.5v-0.5h4.4v0.5c-0.2,0.1-0.4,0.2-0.6,0.3s-0.4,0.2-0.6,0.2
			l2.4,6.4l0.4,1.3l0,0l0.3-1.3l2.2-6.3c-0.2-0.1-0.4-0.1-0.6-0.2c-0.2-0.1-0.4-0.2-0.5-0.3v-0.5h3.6v0.5c-0.1,0.1-0.3,0.2-0.5,0.3
			s-0.4,0.2-0.7,0.2l-3.7,9.5L669.5,249.4z"/>
		<path fill="#272661" d="M680.7,249.1H676v-0.5c0.2-0.1,0.4-0.2,0.7-0.3c0.2-0.1,0.5-0.2,0.7-0.2v-8.3l-1.4-0.2v-0.5
			c0.4-0.2,0.9-0.3,1.3-0.4c0.5-0.1,1-0.2,1.4-0.3h0.5v9.8c0.3,0.1,0.5,0.1,0.8,0.2c0.2,0.1,0.4,0.2,0.6,0.3L680.7,249.1
			L680.7,249.1z M677,235c0-0.4,0.1-0.7,0.4-0.9s0.6-0.3,1-0.3c0.4,0,0.7,0.1,1,0.3s0.4,0.5,0.4,0.9s-0.1,0.7-0.4,0.9
			c-0.2,0.2-0.6,0.3-1,0.3c-0.4,0-0.7-0.1-1-0.3C677.2,235.6,677,235.3,677,235z"/>
		<path fill="#272661" d="M689.4,247c-0.1,0.3-0.2,0.6-0.4,0.9c-0.2,0.3-0.4,0.5-0.6,0.7s-0.5,0.4-0.8,0.5s-0.7,0.2-1,0.2
			c-1.4,0-2.4-0.4-3.1-1.3c-0.7-0.9-1-2.3-1-4.1s0.4-3.2,1.3-4.1c0.9-0.9,2.1-1.4,3.6-1.4c0.5,0,0.9,0,1.2,0.1c0.3,0,0.6,0.1,1,0.3
			v-4l-1.6-0.2V234c0.4-0.2,0.9-0.3,1.4-0.4c0.5-0.1,1.1-0.2,1.6-0.3h0.5V248l1.4,0.2v0.4c-0.4,0.2-0.8,0.4-1.3,0.5
			s-0.9,0.2-1.3,0.3h-0.5L689.4,247L689.4,247z M687,248.1c0.7,0,1.2-0.2,1.6-0.7c0.4-0.4,0.7-1,0.8-1.8v-6
			c-0.2-0.1-0.5-0.2-0.8-0.3s-0.7-0.1-1.2-0.1c-1,0-1.7,0.4-2.2,1.3c-0.5,0.8-0.8,2-0.8,3.3c0,0.6,0,1.1,0.1,1.6
			c0.1,0.5,0.3,0.9,0.5,1.3c0.2,0.4,0.5,0.7,0.8,0.9C686.2,247.9,686.5,248.1,687,248.1z"/>
		<path fill="#272661" d="M702.7,247.6c-0.1,0.2-0.3,0.5-0.5,0.7c-0.2,0.2-0.5,0.4-0.8,0.5c-0.3,0.2-0.6,0.3-1,0.4
			c-0.4,0.1-0.7,0.1-1.1,0.1c-0.8,0-1.6-0.1-2.2-0.4c-0.6-0.3-1.2-0.6-1.6-1.1c-0.4-0.5-0.7-1.1-1-1.7c-0.2-0.7-0.3-1.4-0.3-2.3
			c0-1.8,0.4-3.2,1.2-4.1c0.8-0.9,2-1.4,3.5-1.4c0.5,0,1,0.1,1.5,0.2s0.9,0.4,1.3,0.7s0.7,0.7,0.9,1.2c0.2,0.5,0.3,1.2,0.3,1.9
			c0,0.2,0,0.5,0,0.7s-0.1,0.5-0.1,0.8h-6.6c0,0.6,0.1,1.1,0.2,1.7c0.1,0.5,0.4,1,0.7,1.3c0.3,0.4,0.7,0.7,1.1,0.9
			c0.5,0.2,1,0.3,1.6,0.3c0.5,0,1-0.1,1.5-0.2c0.5-0.1,0.9-0.3,1.1-0.5L702.7,247.6z M698.8,239.2c-0.8,0-1.4,0.3-1.8,0.8
			c-0.4,0.5-0.7,1.5-0.8,2.9h4.6c0-0.1,0-0.2,0-0.4c0-0.1,0-0.2,0-0.3c0-0.9-0.2-1.6-0.5-2.2C700.1,239.5,699.5,239.2,698.8,239.2z"
			/>
		<path fill="#272661" d="M709.9,239.6c-0.2-0.1-0.4-0.1-0.6-0.2c-0.2-0.1-0.4-0.2-0.5-0.3v-0.5h4.4v0.5c-0.3,0.2-0.7,0.4-1.2,0.5
			l2.7,6.2l0.4,1.3l0,0l0.3-1.3l2-6.2c-0.4-0.1-0.8-0.3-1.2-0.5v-0.5h3.6v0.5c-0.3,0.2-0.7,0.4-1.2,0.5l-3.3,9.5
			c-0.3,0.9-0.7,1.6-1,2.2c-0.3,0.6-0.6,1-0.9,1.3s-0.6,0.6-0.9,0.7c-0.3,0.1-0.7,0.3-1,0.3c-0.2-0.3-0.3-0.6-0.4-0.9
			c-0.1-0.3-0.2-0.6-0.3-0.9l0.3-0.5h2.2c0.1-0.1,0.2-0.2,0.2-0.3c0.1-0.1,0.1-0.2,0.2-0.4c0.1-0.2,0.1-0.4,0.2-0.6
			c0.1-0.2,0.2-0.5,0.3-0.9L709.9,239.6z"/>
		<path fill="#272661" d="M720.2,243.8c0-0.9,0.1-1.7,0.3-2.4c0.2-0.7,0.6-1.3,1-1.7c0.4-0.4,1-0.8,1.6-1.1c0.6-0.2,1.3-0.4,2-0.4
			c0.9,0,1.6,0.1,2.3,0.4c0.6,0.3,1.2,0.6,1.6,1.1c0.4,0.5,0.7,1.1,0.9,1.7c0.2,0.6,0.3,1.4,0.3,2.3c0,1.8-0.5,3.1-1.4,4.1
			c-0.9,1-2.1,1.4-3.6,1.4c-0.8,0-1.6-0.1-2.2-0.4s-1.1-0.6-1.5-1.1c-0.4-0.5-0.7-1.1-0.9-1.8C720.3,245.4,720.2,244.7,720.2,243.8z
			 M722.2,243.8c0,0.6,0.1,1.2,0.2,1.8c0.1,0.6,0.3,1.1,0.6,1.5c0.3,0.4,0.6,0.7,1,1c0.4,0.2,0.9,0.4,1.5,0.4c0.8,0,1.4-0.4,1.9-1.1
			c0.5-0.7,0.7-1.9,0.7-3.5c0-0.6-0.1-1.2-0.2-1.8s-0.3-1-0.6-1.5c-0.3-0.4-0.6-0.7-1-1c-0.4-0.2-0.9-0.4-1.4-0.4
			c-0.8,0-1.5,0.4-2,1.1C722.4,241.1,722.2,242.3,722.2,243.8z"/>
		<path fill="#272661" d="M732.6,244.9c0-0.9,0-1.8,0.1-2.6c0.1-0.8,0.1-1.7,0.1-2.5l-1.4-0.2v-0.5c0.5-0.2,0.9-0.3,1.4-0.4
			c0.5-0.1,0.9-0.2,1.4-0.3h0.5c0,1.1,0,2.1-0.1,3.1c0,1-0.1,2.1-0.1,3.1c0,0.5,0,1,0.1,1.5c0.1,0.4,0.2,0.8,0.3,1.1
			c0.2,0.3,0.4,0.5,0.7,0.7s0.6,0.2,1.1,0.2c0.6,0,1.2-0.2,1.6-0.7s0.8-1.1,1-1.8v-5.8l-1.4-0.2v-0.5c0.4-0.2,0.9-0.3,1.4-0.4
			c0.5-0.1,0.9-0.2,1.4-0.3h0.5v9.6l1.4,0.2v0.4c-0.4,0.2-0.8,0.3-1.2,0.5c-0.4,0.2-0.8,0.2-1.3,0.3h-0.5l-0.1-2.5h-0.1
			c-0.1,0.3-0.2,0.6-0.4,0.9c-0.2,0.3-0.4,0.6-0.7,0.8s-0.6,0.4-1,0.6c-0.4,0.2-0.8,0.2-1.2,0.2c-0.6,0-1.1-0.1-1.5-0.2
			c-0.4-0.1-0.8-0.4-1.1-0.7c-0.3-0.3-0.5-0.8-0.7-1.4C732.7,246.5,732.6,245.8,732.6,244.9z"/>
		<path fill="#272661" d="M748.2,240.1c-0.2,0.1-0.3,0.3-0.6,0.5c-0.2,0.3-0.4,0.6-0.6,1.2v6.3c0.3,0,0.6,0.1,0.8,0.2
			c0.3,0.1,0.6,0.2,0.8,0.3v0.5h-5v-0.5c0.3-0.1,0.5-0.2,0.7-0.3c0.2-0.1,0.5-0.1,0.7-0.2v-8.3l-1.4-0.2v-0.5
			c0.5-0.2,0.9-0.4,1.4-0.5s0.9-0.2,1.4-0.3h0.5v2.2h0.1c0.1-0.3,0.3-0.6,0.5-0.8c0.2-0.3,0.5-0.5,0.8-0.8c0.3-0.3,0.6-0.4,1-0.5
			c0.4-0.1,0.7-0.2,1.1-0.1c0.1,0.2,0.2,0.4,0.3,0.6c0.1,0.2,0.2,0.4,0.2,0.7v0.5L748.2,240.1L748.2,240.1z"/>
		<path fill="#272661" d="M762.8,233.2c0.1,0,0.3,0,0.4,0c0.1,0,0.3,0,0.5,0.1c0.2,0,0.4,0,0.5,0.1c0.1,0.1,0.3,0.1,0.4,0.1
			c0,0.5-0.1,0.9-0.2,1.3c-0.1,0.4-0.2,0.8-0.3,1.1h-0.5l-0.9-1.8c-0.4,0-0.8,0-1,0.1c-0.3,0.1-0.5,0.2-0.7,0.5
			c-0.2,0.2-0.3,0.6-0.4,1c-0.1,0.5-0.1,1-0.1,1.8v1.1h2.4v1.1h-2.4v8.4c0.7,0.1,1.4,0.3,2,0.5v0.5h-5.3v-0.5
			c0.4-0.3,0.9-0.4,1.4-0.5v-8.4H757v-0.6c0.5-0.3,1-0.6,1.6-0.7v-0.7c0-0.9,0.1-1.6,0.3-2.2c0.2-0.6,0.5-1,0.9-1.4
			c0.4-0.3,0.8-0.6,1.3-0.7C761.7,233.3,762.2,233.2,762.8,233.2z"/>
		<path fill="#272661" d="M764,243.8c0-0.9,0.1-1.7,0.3-2.4s0.6-1.3,1-1.7c0.4-0.4,1-0.8,1.6-1.1c0.6-0.2,1.3-0.4,2-0.4
			c0.9,0,1.6,0.1,2.3,0.4c0.6,0.3,1.2,0.6,1.6,1.1c0.4,0.5,0.7,1.1,0.9,1.7c0.2,0.6,0.3,1.4,0.3,2.3c0,1.8-0.5,3.1-1.4,4.1
			s-2.1,1.4-3.6,1.4c-0.8,0-1.6-0.1-2.2-0.4s-1.1-0.6-1.5-1.1s-0.7-1.1-0.9-1.8C764.1,245.4,764,244.7,764,243.8z M766.1,243.8
			c0,0.6,0.1,1.2,0.2,1.8c0.1,0.6,0.3,1.1,0.6,1.5s0.6,0.7,1,1c0.4,0.2,0.9,0.4,1.5,0.4c0.8,0,1.4-0.4,1.9-1.1
			c0.5-0.7,0.7-1.9,0.7-3.5c0-0.6-0.1-1.2-0.2-1.8c-0.1-0.6-0.3-1-0.6-1.5c-0.3-0.4-0.6-0.7-1-1c-0.4-0.2-0.9-0.4-1.4-0.4
			c-0.8,0-1.5,0.4-2,1.1C766.3,241.1,766.1,242.3,766.1,243.8z"/>
		<path fill="#272661" d="M775.7,243.8c0-0.9,0.1-1.7,0.3-2.4c0.2-0.7,0.6-1.3,1-1.7c0.4-0.4,1-0.8,1.6-1.1c0.6-0.2,1.3-0.4,2-0.4
			c0.9,0,1.6,0.1,2.3,0.4c0.6,0.3,1.2,0.6,1.6,1.1c0.4,0.5,0.7,1.1,0.9,1.7s0.3,1.4,0.3,2.3c0,1.8-0.5,3.1-1.4,4.1
			c-0.9,1-2.1,1.4-3.6,1.4c-0.8,0-1.6-0.1-2.2-0.4c-0.6-0.3-1.1-0.6-1.5-1.1c-0.4-0.5-0.7-1.1-0.9-1.8
			C775.8,245.4,775.7,244.7,775.7,243.8z M777.7,243.8c0,0.6,0.1,1.2,0.2,1.8s0.3,1.1,0.6,1.5c0.3,0.4,0.6,0.7,1,1
			c0.4,0.2,0.9,0.4,1.5,0.4c0.8,0,1.4-0.4,1.9-1.1c0.5-0.7,0.7-1.9,0.7-3.5c0-0.6-0.1-1.2-0.2-1.8s-0.3-1-0.6-1.5
			c-0.3-0.4-0.6-0.7-1-1c-0.4-0.2-0.9-0.4-1.4-0.4c-0.8,0-1.5,0.4-2,1.1C778,241.1,777.7,242.3,777.7,243.8z"/>
		<path fill="#272661" d="M786.6,239.1c0.5-0.3,1.1-0.6,1.7-0.7v-1.8c0.2-0.2,0.4-0.3,0.6-0.4c0.2-0.1,0.5-0.2,0.7-0.3h0.5v2.8h3.2
			v1.1h-3.2v6.1c0,0.8,0.1,1.4,0.4,1.8c0.3,0.4,0.7,0.5,1.2,0.5c0.3,0,0.6,0,1-0.1c0.4,0,0.7-0.1,1-0.2l0.1,0.3
			c-0.1,0.1-0.3,0.3-0.5,0.4c-0.2,0.1-0.4,0.3-0.7,0.4c-0.3,0.1-0.5,0.2-0.9,0.3c-0.4,0.1-0.6,0.1-1,0.1c-0.8,0-1.5-0.2-1.9-0.7
			c-0.4-0.5-0.7-1.2-0.7-2.3v-6.7h-1.7v-0.6L786.6,239.1L786.6,239.1z"/>
		<path fill="#272661" d="M799.5,253.3h-4.7v-0.5c0.5-0.2,0.9-0.4,1.4-0.5v-12.5l-1.4-0.2v-0.5c0.5-0.2,0.9-0.4,1.4-0.5
			s0.9-0.2,1.4-0.3h0.5v2.4l0,0c0.3-0.7,0.7-1.3,1.2-1.7s1.2-0.6,2-0.6c1.3,0,2.2,0.4,2.9,1.2c0.7,0.8,1,2.2,1,4.1
			c0,0.9-0.1,1.7-0.3,2.4s-0.6,1.3-1,1.8c-0.4,0.5-1,0.9-1.6,1.1c-0.6,0.3-1.3,0.4-2,0.4c-0.5,0-0.9,0-1.2-0.1s-0.6-0.2-1-0.3v3.4
			c0.2,0,0.5,0.1,0.7,0.2c0.2,0.1,0.5,0.2,0.7,0.3V253.3L799.5,253.3z M800.6,239.6c-0.7,0-1.2,0.2-1.6,0.7c-0.4,0.4-0.7,1-0.9,1.8
			v5.9c0.3,0.2,0.5,0.3,0.9,0.3c0.3,0.1,0.7,0.1,1.2,0.1s0.9-0.1,1.3-0.4c0.4-0.2,0.7-0.6,1-1c0.3-0.4,0.5-0.9,0.6-1.5
			s0.2-1.2,0.2-1.9c0-0.6,0-1.1-0.1-1.6c-0.1-0.5-0.2-0.9-0.4-1.3c-0.2-0.4-0.5-0.6-0.8-0.8C801.5,239.7,801.1,239.6,800.6,239.6z"
			/>
		<path fill="#272661" d="M811.2,240.1c-0.2,0.1-0.3,0.3-0.6,0.5c-0.2,0.3-0.4,0.6-0.6,1.2v6.3c0.3,0,0.6,0.1,0.8,0.2
			c0.3,0.1,0.6,0.2,0.8,0.3v0.5h-5v-0.5c0.3-0.1,0.5-0.2,0.7-0.3s0.5-0.1,0.7-0.2v-8.3l-1.4-0.2v-0.5c0.5-0.2,0.9-0.4,1.4-0.5
			s0.9-0.2,1.4-0.3h0.5v2.2h0.1c0.1-0.3,0.3-0.6,0.5-0.8c0.2-0.3,0.5-0.5,0.8-0.8s0.6-0.4,1-0.5c0.4-0.1,0.7-0.2,1.1-0.1
			c0.1,0.2,0.2,0.4,0.3,0.6c0.1,0.2,0.2,0.4,0.2,0.7v0.5L811.2,240.1L811.2,240.1z"/>
		<path fill="#272661" d="M819.7,249.1H815v-0.5c0.2-0.1,0.4-0.2,0.7-0.3c0.2-0.1,0.5-0.2,0.7-0.2v-8.3l-1.4-0.2v-0.5
			c0.4-0.2,0.9-0.3,1.3-0.4c0.5-0.1,1-0.2,1.4-0.3h0.5v9.8c0.3,0.1,0.5,0.1,0.8,0.2c0.2,0.1,0.4,0.2,0.6,0.3L819.7,249.1
			L819.7,249.1z M816,235c0-0.4,0.1-0.7,0.4-0.9s0.6-0.3,1-0.3c0.4,0,0.7,0.1,1,0.3s0.4,0.5,0.4,0.9s-0.1,0.7-0.4,0.9
			c-0.2,0.2-0.6,0.3-1,0.3c-0.4,0-0.7-0.1-1-0.3C816.2,235.6,816,235.3,816,235z"/>
		<path fill="#272661" d="M832.7,249.1h-4.5v-0.5c0.4-0.2,0.8-0.4,1.2-0.5v-5c0-1.1-0.2-1.9-0.5-2.5s-0.9-0.9-1.7-0.9
			c-0.4,0-0.7,0.1-1,0.2c-0.3,0.1-0.6,0.3-0.8,0.5s-0.4,0.5-0.6,0.7s-0.3,0.6-0.4,0.9v6.2c0.4,0.1,0.9,0.3,1.3,0.5v0.5h-4.6v-0.5
			c0.4-0.2,0.8-0.4,1.4-0.5v-8.3l-1.4-0.2v-0.5c0.4-0.2,0.8-0.3,1.3-0.4c0.5-0.1,1-0.2,1.5-0.3h0.5v2.4l0,0c0.3-0.6,0.7-1.2,1.3-1.7
			c0.6-0.5,1.2-0.7,2-0.7c0.6,0,1.1,0.1,1.5,0.2c0.4,0.1,0.8,0.4,1.1,0.7s0.5,0.8,0.7,1.4c0.2,0.6,0.2,1.3,0.2,2.2v5.3
			c0.6,0.1,1,0.3,1.4,0.5L832.7,249.1L832.7,249.1z"/>
		<path fill="#272661" d="M833.4,239.1c0.5-0.3,1.1-0.6,1.7-0.7v-1.8c0.2-0.2,0.4-0.3,0.6-0.4c0.2-0.1,0.5-0.2,0.7-0.3h0.5v2.8h3.2
			v1.1H837v6.1c0,0.8,0.1,1.4,0.4,1.8c0.3,0.4,0.7,0.5,1.2,0.5c0.3,0,0.6,0,1-0.1c0.4,0,0.7-0.1,1-0.2l0.1,0.3
			c-0.1,0.1-0.3,0.3-0.5,0.4c-0.2,0.1-0.4,0.3-0.7,0.4c-0.3,0.1-0.5,0.2-0.9,0.3s-0.6,0.1-1,0.1c-0.8,0-1.5-0.2-1.9-0.7
			c-0.4-0.5-0.7-1.2-0.7-2.3v-6.7h-1.7L833.4,239.1L833.4,239.1L833.4,239.1z"/>
		<path fill="#272661" d="M660.4,260.1l-1.6-0.2v-0.5c0.4-0.2,0.9-0.3,1.5-0.4c0.5-0.1,1-0.2,1.5-0.3h0.5v7.4l0,0
			c0.2-0.7,0.6-1.3,1.2-1.7c0.6-0.4,1.2-0.6,1.9-0.6c1.3,0,2.3,0.4,2.9,1.3c0.7,0.9,1,2.2,1,4c0,1.9-0.5,3.3-1.4,4.2
			c-0.9,1-2.3,1.4-4,1.4c-0.4,0-0.7,0-1.1-0.1c-0.4,0-0.7-0.1-1-0.2c-0.3-0.1-0.6-0.2-0.9-0.3c-0.3-0.1-0.5-0.2-0.6-0.3L660.4,260.1
			L660.4,260.1z M664.9,265c-0.7,0-1.2,0.2-1.6,0.7c-0.4,0.5-0.7,1-0.9,1.7v5.9c0.3,0.1,0.6,0.2,0.9,0.3c0.4,0.1,0.8,0.1,1.2,0.1
			c0.9,0,1.7-0.4,2.2-1.2s0.8-2,0.8-3.5c0-0.5,0-1.1-0.1-1.6c-0.1-0.5-0.2-0.9-0.4-1.3c-0.2-0.4-0.5-0.7-0.8-0.9
			C665.7,265.1,665.4,265,664.9,265z"/>
		<path fill="#272661" d="M670.8,265c-0.2-0.1-0.4-0.1-0.6-0.2c-0.2-0.1-0.4-0.2-0.5-0.3V264h4.4v0.5c-0.3,0.2-0.7,0.4-1.2,0.5
			l2.7,6.2l0.4,1.3l0,0l0.3-1.3l2-6.2c-0.4-0.1-0.8-0.3-1.2-0.5V264h3.6v0.5c-0.3,0.2-0.7,0.4-1.2,0.5l-3.3,9.5
			c-0.3,0.9-0.7,1.6-1,2.2c-0.3,0.6-0.6,1-0.9,1.3s-0.6,0.6-0.9,0.7s-0.7,0.3-1,0.3c-0.2-0.3-0.3-0.6-0.4-0.9
			c-0.1-0.3-0.2-0.6-0.3-0.9l0.3-0.5h2.2c0.1-0.1,0.2-0.2,0.2-0.3c0.1-0.1,0.1-0.2,0.2-0.4s0.1-0.4,0.2-0.6s0.2-0.5,0.3-0.9
			L670.8,265z"/>
		<path fill="#272661" d="M686,264.4c0.5-0.3,1.1-0.6,1.7-0.7v-1.8c0.2-0.2,0.4-0.3,0.6-0.4s0.5-0.2,0.7-0.3h0.5v2.8h3.2v1.1h-3.2
			v6.1c0,0.8,0.1,1.4,0.4,1.8s0.7,0.5,1.2,0.5c0.3,0,0.6,0,1-0.1c0.4,0,0.7-0.1,1-0.2l0.1,0.3c-0.1,0.1-0.3,0.3-0.5,0.4
			c-0.2,0.1-0.4,0.3-0.7,0.4c-0.3,0.1-0.5,0.2-0.9,0.3c-0.4,0.1-0.6,0.1-1,0.1c-0.8,0-1.5-0.2-1.9-0.7c-0.4-0.5-0.7-1.2-0.7-2.3V265
			H686V264.4L686,264.4z"/>
		<path fill="#272661" d="M705.6,274.5H701V274c0.3-0.2,0.8-0.4,1.3-0.5v-4.9c0-1.1-0.2-2-0.5-2.6s-0.9-0.9-1.7-0.9
			c-0.4,0-0.7,0.1-1,0.2s-0.6,0.3-0.8,0.5s-0.4,0.5-0.6,0.7s-0.3,0.6-0.4,0.9v6.2c0.2,0.1,0.4,0.1,0.6,0.2s0.4,0.2,0.6,0.3v0.5H694
			v-0.5c0.4-0.2,0.9-0.4,1.4-0.5v-13.4l-1.6-0.2v-0.5c0.4-0.2,0.9-0.3,1.4-0.4s1.1-0.2,1.6-0.3h0.5v7.5l0,0c0.3-0.7,0.7-1.2,1.3-1.7
			c0.6-0.5,1.2-0.7,2-0.7c0.6,0,1.1,0.1,1.5,0.2c0.4,0.1,0.8,0.4,1.1,0.7c0.3,0.3,0.5,0.8,0.7,1.4c0.2,0.6,0.2,1.3,0.2,2.2v5.3
			c0.2,0.1,0.5,0.1,0.7,0.2s0.5,0.2,0.7,0.3L705.6,274.5L705.6,274.5z"/>
		<path fill="#272661" d="M715.4,273c-0.1,0.2-0.3,0.5-0.5,0.7s-0.5,0.4-0.8,0.5c-0.3,0.2-0.6,0.3-1,0.4c-0.4,0.1-0.7,0.1-1.1,0.1
			c-0.8,0-1.6-0.1-2.2-0.4c-0.6-0.3-1.2-0.6-1.6-1.1c-0.4-0.5-0.7-1.1-1-1.7c-0.2-0.7-0.3-1.4-0.3-2.3c0-1.8,0.4-3.2,1.2-4.1
			c0.8-0.9,2-1.4,3.5-1.4c0.5,0,1,0.1,1.5,0.2s0.9,0.4,1.3,0.7c0.4,0.3,0.7,0.7,0.9,1.2c0.2,0.5,0.3,1.2,0.3,1.9c0,0.2,0,0.5,0,0.7
			s-0.1,0.5-0.1,0.8h-6.6c0,0.6,0.1,1.1,0.2,1.7c0.1,0.5,0.4,1,0.7,1.3c0.3,0.4,0.7,0.7,1.1,0.9c0.5,0.2,1,0.3,1.6,0.3
			c0.5,0,1-0.1,1.5-0.2s0.9-0.3,1.1-0.5L715.4,273z M711.5,264.6c-0.8,0-1.4,0.3-1.8,0.8c-0.4,0.5-0.7,1.5-0.8,2.9h4.6
			c0-0.1,0-0.2,0-0.4c0-0.1,0-0.2,0-0.3c0-0.9-0.2-1.6-0.5-2.2C712.8,264.8,712.2,264.6,711.5,264.6z"/>
		<path fill="#272661" d="M728.2,269.5h-3l-0.9,3.7h-1.1l0.9-3.7h-1.7l0.3-0.9h1.6l0.8-3.2h-1.6l0.3-0.9h1.5l0.8-3.5h1.1l-0.8,3.5h3
			l0.8-3.5h1.1l-0.8,3.5h1.7l-0.4,0.9h-1.6l-0.8,3.2h1.6l-0.4,0.9h-1.5l-0.9,3.7h-1.1L728.2,269.5z M725.4,268.6h3l0.8-3.2h-3
			L725.4,268.6z"/>
		<path fill="#272661" d="M739,269.2c0-0.9,0.1-1.7,0.3-2.4s0.6-1.3,1-1.7c0.4-0.4,1-0.8,1.6-1.1c0.6-0.2,1.3-0.4,2-0.4
			c0.9,0,1.6,0.1,2.3,0.4c0.6,0.3,1.2,0.6,1.6,1.1s0.7,1.1,0.9,1.7c0.2,0.6,0.3,1.4,0.3,2.3c0,1.8-0.5,3.1-1.4,4.1
			c-0.9,1-2.1,1.4-3.6,1.4c-0.8,0-1.6-0.1-2.2-0.4s-1.1-0.6-1.5-1.1c-0.4-0.5-0.7-1.1-0.9-1.8C739.1,270.8,739,270,739,269.2z
			 M741,269.2c0,0.6,0.1,1.2,0.2,1.8c0.1,0.6,0.3,1.1,0.6,1.5s0.6,0.7,1,1c0.4,0.2,0.9,0.4,1.5,0.4c0.8,0,1.4-0.4,1.9-1.1
			s0.7-1.9,0.7-3.5c0-0.6-0.1-1.2-0.2-1.8c-0.1-0.6-0.3-1-0.6-1.5c-0.3-0.4-0.6-0.7-1-1c-0.4-0.2-0.9-0.4-1.4-0.4
			c-0.8,0-1.5,0.4-2,1.1C741.2,266.4,741,267.6,741,269.2z"/>
		<path fill="#272661" d="M756.2,258.6c0.1,0,0.3,0,0.4,0s0.3,0,0.5,0.1c0.2,0,0.4,0,0.5,0.1s0.3,0.1,0.4,0.1c0,0.5-0.1,0.9-0.2,1.3
			c-0.1,0.4-0.2,0.8-0.3,1.1H757l-0.9-1.8c-0.4,0-0.8,0-1,0.1c-0.3,0.1-0.5,0.2-0.7,0.5c-0.2,0.2-0.3,0.6-0.4,1
			c-0.1,0.5-0.1,1-0.1,1.8v1.1h2.4v1.1h-2.4v8.4c0.7,0.1,1.4,0.3,2,0.5v0.5h-5.3V274c0.4-0.3,0.9-0.4,1.4-0.5V265h-1.6v-0.6
			c0.5-0.3,1-0.6,1.6-0.7V263c0-0.9,0.1-1.6,0.3-2.2s0.5-1,0.9-1.4c0.4-0.3,0.8-0.6,1.3-0.7C755.1,258.6,755.6,258.6,756.2,258.6z"
			/>
		<path fill="#272661" d="M767.5,278.7h-4.7v-0.5c0.5-0.2,0.9-0.4,1.4-0.5v-12.5l-1.4-0.2v-0.5c0.5-0.2,0.9-0.4,1.4-0.5
			s0.9-0.2,1.4-0.3h0.5v2.4l0,0c0.3-0.7,0.7-1.3,1.2-1.7c0.5-0.4,1.2-0.6,2-0.6c1.3,0,2.2,0.4,2.9,1.2c0.7,0.8,1,2.2,1,4.1
			c0,0.9-0.1,1.7-0.3,2.4s-0.6,1.3-1,1.8c-0.4,0.5-1,0.9-1.6,1.1c-0.6,0.3-1.3,0.4-2,0.4c-0.5,0-0.9,0-1.2-0.1s-0.6-0.2-1-0.3v3.4
			c0.2,0,0.5,0.1,0.7,0.2s0.5,0.2,0.7,0.3V278.7L767.5,278.7z M768.6,265c-0.7,0-1.2,0.2-1.6,0.7c-0.4,0.4-0.7,1-0.9,1.8v5.9
			c0.3,0.2,0.5,0.3,0.9,0.3c0.3,0.1,0.7,0.1,1.2,0.1s0.9-0.1,1.3-0.4c0.4-0.2,0.7-0.6,1-1c0.3-0.4,0.5-0.9,0.6-1.5s0.2-1.2,0.2-1.9
			c0-0.6,0-1.1-0.1-1.6c-0.1-0.5-0.2-0.9-0.4-1.3s-0.5-0.6-0.8-0.8C769.5,265,769.1,265,768.6,265z"/>
		<path fill="#272661" d="M783.5,273c-0.1,0.2-0.3,0.5-0.5,0.7c-0.2,0.2-0.5,0.4-0.8,0.5c-0.3,0.2-0.6,0.3-1,0.4
			c-0.4,0.1-0.7,0.1-1.1,0.1c-0.8,0-1.6-0.1-2.2-0.4c-0.6-0.3-1.2-0.6-1.6-1.1c-0.4-0.5-0.7-1.1-1-1.7c-0.2-0.7-0.3-1.4-0.3-2.3
			c0-1.8,0.4-3.2,1.2-4.1s2-1.4,3.5-1.4c0.5,0,1,0.1,1.5,0.2s0.9,0.4,1.3,0.7c0.4,0.3,0.7,0.7,0.9,1.2s0.3,1.2,0.3,1.9
			c0,0.2,0,0.5,0,0.7s-0.1,0.5-0.1,0.8H777c0,0.6,0.1,1.1,0.2,1.7c0.1,0.5,0.4,1,0.7,1.3c0.3,0.4,0.7,0.7,1.1,0.9
			c0.5,0.2,1,0.3,1.6,0.3c0.5,0,1-0.1,1.5-0.2s0.9-0.3,1.1-0.5L783.5,273z M779.6,264.6c-0.8,0-1.4,0.3-1.8,0.8
			c-0.4,0.5-0.7,1.5-0.8,2.9h4.6c0-0.1,0-0.2,0-0.4c0-0.1,0-0.2,0-0.3c0-0.9-0.2-1.6-0.5-2.2C780.9,264.8,780.3,264.6,779.6,264.6z"
			/>
		<path fill="#272661" d="M785.6,269.2c0-0.9,0.1-1.7,0.3-2.4s0.6-1.3,1-1.7c0.4-0.4,1-0.8,1.6-1.1c0.6-0.2,1.3-0.4,2-0.4
			c0.9,0,1.6,0.1,2.3,0.4c0.6,0.3,1.2,0.6,1.6,1.1c0.4,0.5,0.7,1.1,0.9,1.7s0.3,1.4,0.3,2.3c0,1.8-0.5,3.1-1.4,4.1
			c-0.9,1-2.1,1.4-3.6,1.4c-0.8,0-1.6-0.1-2.2-0.4c-0.6-0.3-1.1-0.6-1.5-1.1c-0.4-0.5-0.7-1.1-0.9-1.8
			C785.7,270.8,785.6,270,785.6,269.2z M787.6,269.2c0,0.6,0.1,1.2,0.2,1.8c0.1,0.6,0.3,1.1,0.6,1.5s0.6,0.7,1,1
			c0.4,0.2,0.9,0.4,1.5,0.4c0.8,0,1.4-0.4,1.9-1.1s0.7-1.9,0.7-3.5c0-0.6-0.1-1.2-0.2-1.8c-0.1-0.6-0.3-1-0.6-1.5
			c-0.3-0.4-0.6-0.7-1-1c-0.4-0.2-0.9-0.4-1.4-0.4c-0.8,0-1.5,0.4-2,1.1C787.8,266.4,787.6,267.6,787.6,269.2z"/>
		<path fill="#272661" d="M801.7,278.7H797v-0.5c0.5-0.2,0.9-0.4,1.4-0.5v-12.5L797,265v-0.5c0.5-0.2,0.9-0.4,1.4-0.5
			s0.9-0.2,1.4-0.3h0.5v2.4l0,0c0.3-0.7,0.7-1.3,1.2-1.7c0.5-0.4,1.2-0.6,2-0.6c1.3,0,2.2,0.4,2.9,1.2c0.7,0.8,1,2.2,1,4.1
			c0,0.9-0.1,1.7-0.3,2.4s-0.6,1.3-1,1.8s-1,0.9-1.6,1.1c-0.6,0.3-1.3,0.4-2,0.4c-0.5,0-0.9,0-1.2-0.1s-0.6-0.2-1-0.3v3.4
			c0.2,0,0.5,0.1,0.7,0.2c0.2,0.1,0.5,0.2,0.7,0.3V278.7L801.7,278.7z M802.8,265c-0.7,0-1.2,0.2-1.6,0.7c-0.4,0.4-0.7,1-0.9,1.8
			v5.9c0.3,0.2,0.5,0.3,0.9,0.3c0.3,0.1,0.7,0.1,1.2,0.1s0.9-0.1,1.3-0.4c0.4-0.2,0.7-0.6,1-1c0.3-0.4,0.5-0.9,0.6-1.5
			c0.1-0.6,0.2-1.2,0.2-1.9c0-0.6,0-1.1-0.1-1.6c-0.1-0.5-0.2-0.9-0.4-1.3c-0.2-0.4-0.5-0.6-0.8-0.8C803.7,265,803.3,265,802.8,265z
			"/>
		<path fill="#272661" d="M813.9,274.5h-4.7V274c0.5-0.2,0.9-0.4,1.4-0.5v-13.4l-1.6-0.2v-0.5c0.4-0.2,0.8-0.3,1.4-0.4
			c0.5-0.1,1.1-0.2,1.6-0.3h0.5v14.8c0.5,0.1,0.9,0.3,1.4,0.5V274.5L813.9,274.5z"/>
		<path fill="#272661" d="M824.1,273c-0.1,0.2-0.3,0.5-0.5,0.7s-0.5,0.4-0.8,0.5c-0.3,0.2-0.6,0.3-1,0.4c-0.4,0.1-0.7,0.1-1.1,0.1
			c-0.8,0-1.6-0.1-2.2-0.4c-0.6-0.3-1.2-0.6-1.6-1.1c-0.4-0.5-0.7-1.1-1-1.7c-0.2-0.7-0.3-1.4-0.3-2.3c0-1.8,0.4-3.2,1.2-4.1
			s2-1.4,3.5-1.4c0.5,0,1,0.1,1.5,0.2s0.9,0.4,1.3,0.7c0.4,0.3,0.7,0.7,0.9,1.2c0.2,0.5,0.3,1.2,0.3,1.9c0,0.2,0,0.5,0,0.7
			s-0.1,0.5-0.1,0.8h-6.6c0,0.6,0.1,1.1,0.2,1.7c0.1,0.5,0.4,1,0.7,1.3c0.3,0.4,0.7,0.7,1.1,0.9c0.5,0.2,1,0.3,1.6,0.3
			c0.5,0,1-0.1,1.5-0.2s0.9-0.3,1.1-0.5L824.1,273z M820.2,264.6c-0.8,0-1.4,0.3-1.8,0.8c-0.4,0.5-0.7,1.5-0.8,2.9h4.6
			c0-0.1,0-0.2,0-0.4c0-0.1,0-0.2,0-0.3c0-0.9-0.2-1.6-0.5-2.2C821.5,264.8,820.9,264.6,820.2,264.6z"/>
		<path fill="#272661" d="M642.9,290.3c-0.2-0.1-0.4-0.1-0.6-0.2s-0.4-0.2-0.5-0.3v-0.5h4.4v0.5c-0.3,0.2-0.7,0.4-1.2,0.5l2.7,6.2
			l0.4,1.3l0,0l0.3-1.3l2-6.2c-0.4-0.1-0.8-0.3-1.2-0.5v-0.5h3.6v0.5c-0.3,0.2-0.7,0.4-1.2,0.5l-3.3,9.5c-0.3,0.9-0.7,1.6-1,2.2
			c-0.3,0.6-0.6,1-0.9,1.3s-0.6,0.6-0.9,0.7c-0.3,0.1-0.7,0.3-1,0.3c-0.2-0.3-0.3-0.6-0.4-0.9s-0.2-0.6-0.3-0.9l0.3-0.5h2.2
			c0.1-0.1,0.2-0.2,0.2-0.3c0.1-0.1,0.1-0.2,0.2-0.4c0.1-0.2,0.1-0.4,0.2-0.6c0.1-0.2,0.2-0.5,0.3-0.9L642.9,290.3z"/>
		<path fill="#272661" d="M653.2,294.5c0-0.9,0.1-1.7,0.3-2.4c0.2-0.7,0.6-1.3,1-1.7c0.4-0.4,1-0.8,1.6-1.1c0.6-0.2,1.3-0.4,2-0.4
			c0.9,0,1.6,0.1,2.3,0.4c0.6,0.3,1.2,0.6,1.6,1.1c0.4,0.5,0.7,1.1,0.9,1.7c0.2,0.6,0.3,1.4,0.3,2.3c0,1.8-0.5,3.1-1.4,4.1
			c-0.9,1-2.1,1.4-3.6,1.4c-0.8,0-1.6-0.1-2.2-0.4s-1.1-0.6-1.5-1.1c-0.4-0.5-0.7-1.1-0.9-1.8C653.3,296.1,653.2,295.3,653.2,294.5z
			 M655.2,294.5c0,0.6,0.1,1.2,0.2,1.8c0.1,0.6,0.3,1.1,0.6,1.5c0.3,0.4,0.6,0.7,1,1c0.4,0.2,0.9,0.4,1.5,0.4c0.8,0,1.4-0.4,1.9-1.1
			s0.7-1.9,0.7-3.5c0-0.6-0.1-1.2-0.2-1.8c-0.1-0.6-0.3-1-0.6-1.5c-0.3-0.4-0.6-0.7-1-1c-0.4-0.2-0.9-0.4-1.4-0.4
			c-0.8,0-1.5,0.4-2,1.1C655.5,291.8,655.2,292.9,655.2,294.5z"/>
		<path fill="#272661" d="M665.6,295.6c0-0.9,0-1.8,0.1-2.6c0.1-0.8,0.1-1.7,0.1-2.5l-1.4-0.2v-0.5c0.5-0.2,0.9-0.3,1.4-0.4
			s0.9-0.2,1.4-0.3h0.5c0,1.1,0,2.1-0.1,3.1c0,1-0.1,2.1-0.1,3.1c0,0.5,0,1,0.1,1.5c0.1,0.4,0.2,0.8,0.3,1.1
			c0.2,0.3,0.4,0.5,0.7,0.7s0.6,0.2,1.1,0.2c0.6,0,1.2-0.2,1.6-0.7s0.8-1.1,1-1.8v-5.8l-1.4-0.2v-0.5c0.4-0.2,0.9-0.3,1.4-0.4
			s0.9-0.2,1.4-0.3h0.5v9.6l1.4,0.2v0.4c-0.4,0.2-0.8,0.3-1.2,0.5c-0.4,0.2-0.8,0.2-1.3,0.3h-0.5l-0.1-2.5h-0.1
			c-0.1,0.3-0.2,0.6-0.4,0.9c-0.2,0.3-0.4,0.6-0.7,0.8c-0.3,0.2-0.6,0.4-1,0.6c-0.4,0.2-0.8,0.2-1.2,0.2c-0.6,0-1.1-0.1-1.5-0.2
			c-0.4-0.1-0.8-0.4-1.1-0.7c-0.3-0.3-0.5-0.8-0.7-1.4C665.7,297.2,665.6,296.5,665.6,295.6z"/>
		<path fill="#272661" d="M687.5,297.4c0-0.4-0.1-0.7-0.4-1s-0.6-0.5-0.9-0.8c-0.4-0.2-0.8-0.5-1.2-0.7c-0.4-0.2-0.8-0.5-1.2-0.8
			c-0.4-0.3-0.7-0.7-0.9-1c-0.2-0.3-0.4-0.9-0.4-1.5c0-0.4,0.1-0.7,0.3-1.1c0.2-0.4,0.4-0.6,0.7-0.8c0.3-0.2,0.6-0.4,1-0.5
			c0.4-0.1,0.8-0.2,1.3-0.2c0.8,0,1.4,0,1.9,0.1s1,0.2,1.4,0.4c-0.1,0.5-0.1,0.9-0.2,1.4c-0.1,0.5-0.2,0.9-0.3,1.4h-0.5l-0.8-2.2
			c-0.2-0.1-0.4-0.1-0.6-0.1s-0.4,0-0.7,0s-0.5,0-0.7,0.1s-0.4,0.2-0.5,0.3c-0.1,0.1-0.2,0.3-0.3,0.5c-0.1,0.2-0.1,0.4-0.1,0.5
			c0,0.4,0.1,0.7,0.4,1c0.2,0.3,0.6,0.5,0.9,0.8c0.4,0.2,0.8,0.5,1.2,0.7c0.4,0.2,0.8,0.5,1.2,0.8c0.4,0.3,0.7,0.6,0.9,1
			c0.2,0.4,0.4,0.8,0.4,1.3s-0.1,0.9-0.3,1.3c-0.2,0.4-0.5,0.7-0.8,1c-0.4,0.3-0.8,0.5-1.2,0.6c-0.5,0.1-1,0.2-1.5,0.2
			c-0.6,0-1.2-0.1-1.7-0.2s-1-0.3-1.6-0.5c0-0.5,0.1-1,0.2-1.5c0.1-0.5,0.2-0.9,0.4-1.4h0.5l0.9,2.3c0.2,0.1,0.3,0.2,0.6,0.2
			c0.2,0,0.4,0,0.6,0c0.6,0,1.1-0.2,1.5-0.5C687.4,298.2,687.5,297.9,687.5,297.4z"/>
		<path fill="#272661" d="M702.4,299.8h-4.6v-0.5c0.3-0.2,0.8-0.4,1.3-0.5v-4.9c0-1.1-0.2-2-0.5-2.6s-0.9-0.9-1.7-0.9
			c-0.4,0-0.7,0.1-1,0.2s-0.6,0.3-0.8,0.5s-0.4,0.5-0.6,0.7s-0.3,0.6-0.4,0.9v6.2c0.2,0.1,0.4,0.1,0.6,0.2s0.4,0.2,0.6,0.3v0.5h-4.5
			v-0.5c0.4-0.2,0.9-0.4,1.4-0.5v-13.4l-1.6-0.2v-0.5c0.4-0.2,0.9-0.3,1.4-0.4s1.1-0.2,1.6-0.3h0.5v7.5l0,0c0.3-0.7,0.7-1.2,1.3-1.7
			c0.6-0.5,1.2-0.7,2-0.7c0.6,0,1.1,0.1,1.5,0.2c0.4,0.1,0.8,0.4,1.1,0.7c0.3,0.3,0.5,0.8,0.7,1.4c0.2,0.6,0.2,1.3,0.2,2.2v5.3
			c0.2,0.1,0.5,0.1,0.7,0.2s0.5,0.2,0.7,0.3L702.4,299.8L702.4,299.8z"/>
		<path fill="#272661" d="M711.5,297c0,0.3,0,0.6,0,0.8c0,0.2,0,0.5,0,0.7l1.5,0.2v0.4c-0.4,0.2-0.7,0.3-1.2,0.5s-0.8,0.2-1.2,0.3
			H710c-0.1-0.3-0.2-0.7-0.3-1.1c-0.1-0.4,0-0.8-0.1-1.3h-0.1c-0.1,0.3-0.2,0.6-0.3,0.9c-0.1,0.3-0.4,0.5-0.6,0.8
			c-0.3,0.2-0.6,0.4-0.9,0.5c-0.4,0.1-0.8,0.2-1.2,0.2c-0.9,0-1.6-0.3-2.1-0.8s-0.8-1.2-0.8-2c0-0.6,0.1-1.2,0.4-1.6s0.6-0.7,1.2-1
			c0.5-0.2,1.1-0.4,1.9-0.5c0.7-0.1,1.6-0.2,2.6-0.2c0.1-0.6,0.1-1.2,0.1-1.6c0-0.5-0.1-0.9-0.2-1.2c-0.1-0.3-0.3-0.6-0.6-0.8
			c-0.3-0.2-0.6-0.3-1-0.3c-0.2,0-0.4,0-0.7,0c-0.2,0-0.5,0.1-0.7,0.2l-1,2.5h-0.5c-0.1-0.4-0.3-0.9-0.4-1.3s-0.2-0.9-0.2-1.3
			c0.5-0.3,1.1-0.6,1.8-0.8c0.7-0.2,1.4-0.3,2.2-0.3c0.7,0,1.3,0.1,1.7,0.3c0.4,0.2,0.8,0.5,1,0.8s0.4,0.7,0.4,1.1s0.1,0.8,0.1,1.2
			c0,0.8,0,1.7-0.1,2.4C711.5,295.4,711.5,296.3,711.5,297z M707.4,298.7c0.4,0,0.7-0.1,0.9-0.2c0.3-0.1,0.5-0.3,0.7-0.5
			c0.2-0.2,0.3-0.4,0.4-0.6s0.2-0.4,0.2-0.5v-2.2c-0.8,0-1.5,0-2,0.1s-0.9,0.2-1.2,0.4s-0.5,0.4-0.6,0.7c-0.1,0.3-0.2,0.6-0.2,0.9
			c0,0.6,0.2,1.1,0.5,1.4C706.4,298.6,706.8,298.7,707.4,298.7z"/>
		<path fill="#272661" d="M718.6,290.8c-0.2,0.1-0.3,0.3-0.6,0.5c-0.2,0.3-0.4,0.6-0.6,1.2v6.3c0.3,0,0.6,0.1,0.8,0.2
			c0.3,0.1,0.6,0.2,0.8,0.3v0.5h-5v-0.5c0.3-0.1,0.5-0.2,0.7-0.3c0.2-0.1,0.5-0.1,0.7-0.2v-8.3l-1.4-0.2v-0.5
			c0.5-0.2,0.9-0.4,1.4-0.5s0.9-0.2,1.4-0.3h0.5v2.2h0.1c0.1-0.3,0.3-0.6,0.5-0.8c0.2-0.3,0.5-0.5,0.8-0.8c0.3-0.3,0.6-0.4,1-0.5
			c0.4-0.1,0.7-0.2,1.1-0.1c0.1,0.2,0.2,0.4,0.3,0.6c0.1,0.2,0.2,0.4,0.2,0.7v0.5L718.6,290.8L718.6,290.8z"/>
		<path fill="#272661" d="M731,298.3c-0.1,0.2-0.3,0.5-0.5,0.7c-0.2,0.2-0.5,0.4-0.8,0.5c-0.3,0.2-0.6,0.3-1,0.4
			c-0.4,0.1-0.7,0.1-1.1,0.1c-0.8,0-1.6-0.1-2.2-0.4s-1.2-0.6-1.6-1.1c-0.4-0.5-0.7-1.1-1-1.7c-0.2-0.7-0.3-1.4-0.3-2.3
			c0-1.8,0.4-3.2,1.2-4.1s2-1.4,3.5-1.4c0.5,0,1,0.1,1.5,0.2s0.9,0.4,1.3,0.7c0.4,0.3,0.7,0.7,0.9,1.2s0.3,1.2,0.3,1.9
			c0,0.2,0,0.5,0,0.7s-0.1,0.5-0.1,0.8h-6.6c0,0.6,0.1,1.1,0.2,1.7c0.1,0.5,0.4,1,0.7,1.3c0.3,0.4,0.7,0.7,1.1,0.9
			c0.5,0.2,1,0.3,1.6,0.3c0.5,0,1-0.1,1.5-0.2s0.9-0.3,1.1-0.5L731,298.3z M727.1,289.9c-0.8,0-1.4,0.3-1.8,0.8s-0.7,1.5-0.8,2.9
			h4.6c0-0.1,0-0.2,0-0.4c0-0.1,0-0.2,0-0.3c0-0.9-0.2-1.6-0.5-2.2C728.4,290.2,727.8,289.9,727.1,289.9z"/>
		<path fill="#272661" d="M746,297c0,0.3,0,0.6,0,0.8c0,0.2,0,0.5,0,0.7l1.5,0.2v0.4c-0.4,0.2-0.7,0.3-1.2,0.5s-0.8,0.2-1.2,0.3
			h-0.5c-0.1-0.3-0.2-0.7-0.3-1.1c-0.1-0.4,0-0.8-0.1-1.3h-0.1c-0.1,0.3-0.2,0.6-0.3,0.9c-0.1,0.3-0.4,0.5-0.6,0.8
			c-0.3,0.2-0.6,0.4-0.9,0.5c-0.4,0.1-0.8,0.2-1.2,0.2c-0.9,0-1.6-0.3-2.1-0.8s-0.8-1.2-0.8-2c0-0.6,0.1-1.2,0.4-1.6s0.6-0.7,1.2-1
			c0.5-0.2,1.1-0.4,1.9-0.5c0.7-0.1,1.6-0.2,2.6-0.2c0.1-0.6,0.1-1.2,0.1-1.6c0-0.5-0.1-0.9-0.2-1.2c-0.1-0.3-0.3-0.6-0.6-0.8
			c-0.3-0.2-0.6-0.3-1-0.3c-0.2,0-0.4,0-0.7,0c-0.2,0-0.5,0.1-0.7,0.2l-1,2.5h-0.5c-0.1-0.4-0.3-0.9-0.4-1.3
			c-0.1-0.4-0.2-0.9-0.2-1.3c0.5-0.3,1.1-0.6,1.8-0.8c0.7-0.2,1.4-0.3,2.2-0.3c0.7,0,1.3,0.1,1.7,0.3c0.4,0.2,0.8,0.5,1,0.8
			c0.2,0.3,0.4,0.7,0.4,1.1s0.1,0.8,0.1,1.2c0,0.8,0,1.7-0.1,2.4C746.1,295.4,746,296.3,746,297z M741.9,298.7
			c0.4,0,0.7-0.1,0.9-0.2c0.3-0.1,0.5-0.3,0.7-0.5c0.2-0.2,0.3-0.4,0.4-0.6s0.2-0.4,0.2-0.5v-2.2c-0.8,0-1.5,0-2,0.1
			s-0.9,0.2-1.2,0.4s-0.5,0.4-0.6,0.7c-0.1,0.3-0.2,0.6-0.2,0.9c0,0.6,0.2,1.1,0.5,1.4C740.9,298.6,741.4,298.7,741.9,298.7z"/>
		<path fill="#272661" d="M758.3,290.8c-0.2,0.1-0.3,0.3-0.6,0.5c-0.2,0.3-0.4,0.6-0.6,1.2v6.3c0.3,0,0.6,0.1,0.8,0.2
			c0.3,0.1,0.6,0.2,0.8,0.3v0.5h-5v-0.5c0.3-0.1,0.5-0.2,0.7-0.3c0.2-0.1,0.5-0.1,0.7-0.2v-8.3l-1.4-0.2v-0.5
			c0.5-0.2,0.9-0.4,1.4-0.5s0.9-0.2,1.4-0.3h0.5v2.2h0.1c0.1-0.3,0.3-0.6,0.5-0.8c0.2-0.3,0.5-0.5,0.8-0.8c0.3-0.3,0.6-0.4,1-0.5
			c0.4-0.1,0.7-0.2,1.1-0.1c0.1,0.2,0.2,0.4,0.3,0.6c0.1,0.2,0.2,0.4,0.2,0.7v0.5L758.3,290.8L758.3,290.8z"/>
		<path fill="#272661" d="M766.8,299.8h-4.7v-0.5c0.2-0.1,0.4-0.2,0.7-0.3c0.2-0.1,0.5-0.2,0.7-0.2v-8.3l-1.4-0.2v-0.5
			c0.4-0.2,0.9-0.3,1.3-0.4c0.5-0.1,1-0.2,1.4-0.3h0.5v9.8c0.3,0.1,0.5,0.1,0.8,0.2c0.2,0.1,0.4,0.2,0.6,0.3v0.4H766.8z
			 M763.1,285.6c0-0.4,0.1-0.7,0.4-0.9c0.3-0.2,0.6-0.3,1-0.3c0.4,0,0.7,0.1,1,0.3c0.3,0.2,0.4,0.5,0.4,0.9s-0.1,0.7-0.4,0.9
			c-0.2,0.2-0.6,0.3-1,0.3c-0.4,0-0.7-0.1-1-0.3C763.2,286.3,763.1,286,763.1,285.6z"/>
		<path fill="#272661" d="M775.5,297.7c-0.1,0.3-0.2,0.6-0.4,0.9s-0.4,0.5-0.6,0.7c-0.2,0.2-0.5,0.4-0.8,0.5c-0.3,0.1-0.7,0.2-1,0.2
			c-1.4,0-2.4-0.4-3.1-1.3s-1-2.3-1-4.1c0-1.8,0.4-3.2,1.3-4.1c0.9-0.9,2.1-1.4,3.6-1.4c0.5,0,0.9,0,1.2,0.1c0.3,0,0.6,0.1,1,0.3v-4
			l-1.6-0.2v-0.5c0.4-0.2,0.9-0.3,1.4-0.4s1.1-0.2,1.6-0.3h0.5v14.7l1.4,0.2v0.4c-0.4,0.2-0.8,0.4-1.3,0.5s-0.9,0.2-1.3,0.3h-0.5
			L775.5,297.7L775.5,297.7z M773,298.7c0.7,0,1.2-0.2,1.6-0.7c0.4-0.4,0.7-1,0.8-1.8v-6c-0.2-0.1-0.5-0.2-0.8-0.3s-0.7-0.1-1.2-0.1
			c-1,0-1.7,0.4-2.2,1.3c-0.5,0.8-0.8,2-0.8,3.3c0,0.6,0,1.1,0.1,1.6c0.1,0.5,0.3,0.9,0.5,1.3c0.2,0.4,0.5,0.7,0.8,0.9
			C772.2,298.6,772.6,298.7,773,298.7z"/>
		<path fill="#272661" d="M788.7,298.3c-0.1,0.2-0.3,0.5-0.5,0.7c-0.2,0.2-0.5,0.4-0.8,0.5c-0.3,0.2-0.6,0.3-1,0.4s-0.7,0.1-1.1,0.1
			c-0.8,0-1.6-0.1-2.2-0.4s-1.2-0.6-1.6-1.1c-0.4-0.5-0.7-1.1-1-1.7c-0.2-0.7-0.3-1.4-0.3-2.3c0-1.8,0.4-3.2,1.2-4.1s2-1.4,3.5-1.4
			c0.5,0,1,0.1,1.5,0.2s0.9,0.4,1.3,0.7c0.4,0.3,0.7,0.7,0.9,1.2s0.3,1.2,0.3,1.9c0,0.2,0,0.5,0,0.7s-0.1,0.5-0.1,0.8h-6.6
			c0,0.6,0.1,1.1,0.2,1.7c0.1,0.5,0.4,1,0.7,1.3c0.3,0.4,0.7,0.7,1.1,0.9c0.5,0.2,1,0.3,1.6,0.3c0.5,0,1-0.1,1.5-0.2
			s0.9-0.3,1.1-0.5L788.7,298.3z M784.9,289.9c-0.8,0-1.4,0.3-1.8,0.8s-0.7,1.5-0.8,2.9h4.6c0-0.1,0-0.2,0-0.4c0-0.1,0-0.2,0-0.3
			c0-0.9-0.2-1.6-0.5-2.2C786.1,290.2,785.6,289.9,784.9,289.9z"/>
		<path fill="#272661" d="M799.3,300l-3.3-9.8c-0.2-0.1-0.4-0.1-0.6-0.2s-0.4-0.2-0.5-0.3v-0.5h4.4v0.5c-0.2,0.1-0.4,0.2-0.6,0.3
			c-0.2,0.1-0.4,0.2-0.6,0.2l1.8,6.2l0.3,1.5l0,0l0.3-1.6l2.3-7l0.6-0.2l2.4,7.2l0.4,1.5l0,0l0.3-1.5l1.6-6.1
			c-0.2,0-0.3-0.1-0.5-0.2c-0.2-0.1-0.4-0.2-0.6-0.3v-0.5h3.6v0.5c-0.3,0.2-0.7,0.4-1.2,0.5l-3,9.5l-1.1,0.3l-2.1-6l-0.4-1.8h-0.1
			l-0.5,1.8l-1.9,5.7L799.3,300z"/>
		<path fill="#272661" d="M816,299.8h-4.7v-0.5c0.2-0.1,0.4-0.2,0.7-0.3c0.2-0.1,0.5-0.2,0.7-0.2v-8.3l-1.4-0.2v-0.5
			c0.4-0.2,0.9-0.3,1.3-0.4c0.5-0.1,1-0.2,1.4-0.3h0.5v9.8c0.3,0.1,0.5,0.1,0.8,0.2c0.2,0.1,0.4,0.2,0.6,0.3v0.4H816z M812.3,285.6
			c0-0.4,0.1-0.7,0.4-0.9c0.3-0.2,0.6-0.3,1-0.3c0.4,0,0.7,0.1,1,0.3c0.3,0.2,0.4,0.5,0.4,0.9s-0.1,0.7-0.4,0.9
			c-0.2,0.2-0.6,0.3-1,0.3c-0.4,0-0.7-0.1-1-0.3C812.4,286.3,812.3,286,812.3,285.6z"/>
		<path fill="#272661" d="M817.1,289.8c0.5-0.3,1.1-0.6,1.7-0.7v-1.8c0.2-0.2,0.4-0.3,0.6-0.4s0.5-0.2,0.7-0.3h0.5v2.8h3.2v1.1h-3.2
			v6.1c0,0.8,0.1,1.4,0.4,1.8c0.3,0.4,0.7,0.5,1.2,0.5c0.3,0,0.6,0,1-0.1c0.4,0,0.7-0.1,1-0.2l0.1,0.3c-0.1,0.1-0.3,0.3-0.5,0.4
			s-0.4,0.3-0.7,0.4s-0.5,0.2-0.9,0.3c-0.4,0.1-0.6,0.1-1,0.1c-0.8,0-1.5-0.2-1.9-0.7c-0.4-0.5-0.7-1.2-0.7-2.3v-6.7h-1.7v-0.6
			L817.1,289.8L817.1,289.8z"/>
		<path fill="#272661" d="M836.6,299.8H832v-0.5c0.3-0.2,0.8-0.4,1.3-0.5v-4.9c0-1.1-0.2-2-0.5-2.6s-0.9-0.9-1.7-0.9
			c-0.4,0-0.7,0.1-1,0.2s-0.6,0.3-0.8,0.5s-0.4,0.5-0.6,0.7c-0.2,0.2-0.3,0.6-0.4,0.9v6.2c0.2,0.1,0.4,0.1,0.6,0.2s0.4,0.2,0.6,0.3
			v0.5H825v-0.5c0.4-0.2,0.9-0.4,1.4-0.5v-13.4l-1.6-0.2v-0.5c0.4-0.2,0.9-0.3,1.4-0.4s1.1-0.2,1.6-0.3h0.5v7.5l0,0
			c0.3-0.7,0.7-1.2,1.3-1.7s1.2-0.7,2-0.7c0.6,0,1.1,0.1,1.5,0.2s0.8,0.4,1.1,0.7c0.3,0.3,0.5,0.8,0.7,1.4s0.2,1.3,0.2,2.2v5.3
			c0.2,0.1,0.5,0.1,0.7,0.2s0.5,0.2,0.7,0.3L836.6,299.8L836.6,299.8z"/>
		<path fill="#272661" d="M838.5,298.6c0-0.4,0.1-0.8,0.4-1s0.6-0.4,1-0.4c0.4,0,0.8,0.1,1.1,0.4c0.3,0.3,0.4,0.6,0.4,1
			s-0.1,0.7-0.4,1c-0.3,0.3-0.6,0.4-1.1,0.4c-0.4,0-0.8-0.1-1-0.4C838.6,299.3,838.5,299,838.5,298.6z"/>
	</g>
	<g>
		<polygon fill="none" points="495.2,323.4 -3,323.4 -4,207.6 494.2,207.6 		"/>
		<path fill="#DE573D" d="M122.7,224.3V235c0,2.9-0.8,4.9-2.4,5.9c-1.6,1-4.2,1.5-7.7,1.5h-8.7c-0.9,0-1.4-0.6-1.4-1.8v-22
			c0-1.2,0.5-1.8,1.4-1.8h9.5c3.2,0,5.6,0.5,7.1,1.5C121.9,219.5,122.7,221.4,122.7,224.3z M119.8,235v-10.6c0-2-0.4-3.2-1.3-3.8
			c-0.9-0.5-2.6-0.8-5.2-0.8h-7.9v19.7h7.2c3,0,4.9-0.3,5.8-0.8C119.3,238.3,119.8,237,119.8,235z"/>
		<path fill="#DE573D" d="M131.8,241.1c0,1.1-0.5,1.6-1.5,1.6c-0.9,0-1.4-0.5-1.4-1.6v-22.8c0-1.1,0.5-1.6,1.4-1.6s1.4,0.5,1.4,1.6
			L131.8,241.1L131.8,241.1z"/>
		<path fill="#DE573D" d="M158.7,224.3V235c0,2.9-0.8,4.9-2.4,5.9c-1.6,1-4.2,1.5-7.7,1.5h-8.7c-0.9,0-1.4-0.6-1.4-1.8v-22
			c0-1.2,0.5-1.8,1.4-1.8h9.5c3.2,0,5.6,0.5,7.1,1.5C158,219.5,158.7,221.4,158.7,224.3z M155.8,235v-10.6c0-2-0.4-3.2-1.3-3.8
			c-0.9-0.5-2.6-0.8-5.2-0.8h-7.9v19.7h7.2c3,0,4.9-0.3,5.8-0.8C155.4,238.3,155.8,237,155.8,235z"/>
		<path fill="#DE573D" d="M181.7,230.2l-8.8-11.1c-0.3-0.5-0.4-0.8-0.4-1c0-0.4,0.1-0.7,0.4-1c0.3-0.3,0.6-0.4,1-0.4
			c0.5,0,0.9,0.3,1.3,0.9l7.9,10.3l7.9-10.3c0.5-0.6,0.9-0.9,1.4-0.9c0.3,0,0.6,0.1,1,0.4c0.3,0.3,0.5,0.6,0.5,1
			c0,0.2-0.1,0.6-0.4,1l-8.8,11.1v11c0,1-0.5,1.6-1.5,1.6c-0.9,0-1.4-0.5-1.4-1.6L181.7,230.2L181.7,230.2z"/>
		<path fill="#DE573D" d="M206.8,242.8c-3,0-5.5-0.8-7.3-2.5s-2.8-4-2.8-7v-7.1c0-3,0.9-5.3,2.8-7c1.8-1.7,4.3-2.5,7.3-2.5
			s5.5,0.9,7.3,2.6c1.9,1.7,2.8,4,2.8,7v7.1c0,3-0.9,5.3-2.8,7C212.2,242,209.8,242.8,206.8,242.8z M212.2,221.3
			c-1.2-1.2-3-1.8-5.4-1.8s-4.2,0.6-5.4,1.8s-1.8,2.9-1.8,5v6.8c0,2.2,0.6,3.9,1.8,5.1c1.2,1.2,3,1.8,5.4,1.8s4.1-0.6,5.4-1.8
			c1.2-1.2,1.8-2.9,1.8-5.1v-6.8C214,224.1,213.4,222.5,212.2,221.3z"/>
		<path fill="#DE573D" d="M239.9,218.3c0-1.1,0.5-1.6,1.5-1.6c0.9,0,1.4,0.5,1.4,1.6v14.9c0,3-0.9,5.3-2.8,7s-4.3,2.6-7.3,2.6
			s-5.5-0.8-7.3-2.5s-2.8-4-2.8-7v-14.9c0-1.1,0.5-1.6,1.4-1.6c0.4,0,0.7,0.1,1,0.4c0.3,0.3,0.4,0.7,0.4,1.2v14.8
			c0,2.2,0.6,3.9,1.8,5.1c1.2,1.2,3,1.8,5.4,1.8s4.1-0.6,5.4-1.8c1.2-1.2,1.8-2.9,1.8-5.1L239.9,218.3L239.9,218.3z"/>
		<path fill="#DE573D" d="M278.5,241.4c0,0.4-0.2,0.7-0.5,1s-0.6,0.4-1,0.4c-0.5,0-0.9-0.3-1.3-0.8l-11.5-12.2l-1.7,2.1v9.2
			c0,1.1-0.5,1.7-1.5,1.7c-0.9,0-1.4-0.5-1.4-1.6v-22.8c0-1.1,0.5-1.6,1.4-1.6c0.4,0,0.7,0.1,1,0.4c0.3,0.3,0.4,0.7,0.4,1.3v10.2
			l10.5-11.1c0.5-0.5,0.9-0.8,1.3-0.8c0.3,0,0.7,0.1,1,0.4c0.3,0.3,0.4,0.6,0.4,0.9c0,0.4-0.2,0.8-0.5,1.2l-9,9.1l11.6,12
			C278.3,240.7,278.5,241,278.5,241.4z"/>
		<path fill="#DE573D" d="M300.9,242.7c-0.6,0-1-0.1-1.1-0.3L285,221.7v19.4c0,1-0.5,1.6-1.4,1.6s-1.4-0.6-1.4-1.7v-22.7
			c0-1.1,0.5-1.7,1.4-1.7c0.6,0,1.1,0.3,1.5,0.9l14.4,20.1v-19.2c0-1.2,0.5-1.8,1.4-1.8c1,0,1.5,0.6,1.5,1.7V241
			C302.3,242.2,301.8,242.7,300.9,242.7z"/>
		<path fill="#DE573D" d="M318.3,242.8c-3,0-5.5-0.8-7.3-2.5s-2.8-4-2.8-7v-7.1c0-3,0.9-5.3,2.8-7c1.8-1.7,4.3-2.5,7.3-2.5
			s5.5,0.9,7.3,2.6c1.9,1.7,2.8,4,2.8,7v7.1c0,3-0.9,5.3-2.8,7C323.8,242,321.4,242.8,318.3,242.8z M323.7,221.3
			c-1.2-1.2-3-1.8-5.4-1.8s-4.2,0.6-5.4,1.8s-1.8,2.9-1.8,5v6.8c0,2.2,0.6,3.9,1.8,5.1c1.2,1.2,3,1.8,5.4,1.8s4.1-0.6,5.4-1.8
			c1.2-1.2,1.8-2.9,1.8-5.1v-6.8C325.6,224.1,324.9,222.5,323.7,221.3z"/>
		<path fill="#DE573D" d="M358.8,238.6l6.5-21.1c0.2-0.7,0.7-1.1,1.5-1.1c0.9,0,1.4,0.4,1.4,1.2c0,0.2-0.1,0.4-0.2,0.7l-7.8,24.1h-3
			l-7.2-21.3l-7.1,21.3H340l-7.8-24.2c-0.1-0.3-0.2-0.6-0.2-0.7c0-0.8,0.5-1.2,1.4-1.2c0.8,0,1.3,0.4,1.5,1.1l6.6,21.2l6.9-21
			c0.3-0.9,0.9-1.3,1.6-1.3c0.9,0,1.4,0.4,1.7,1.3L358.8,238.6z"/>
		<path fill="#DE573D" d="M378.3,234.7v-6.1l6.6-1.8c0.6-0.2,1.1-0.6,1.5-1.3s0.6-1.5,0.6-2.5s-0.3-2-0.8-2.8s-1.4-1.3-2.7-1.3h-3.7
			c-2.4,0-4,0.3-4.8,0.8s-1.2,1.8-1.2,3.8c0,0.6-0.2,1.1-0.5,1.3c-0.3,0.3-0.6,0.4-1,0.4s-0.7-0.1-1-0.4c-0.3-0.3-0.5-0.7-0.5-1.3
			c0-3,0.7-5,2.2-6s3.7-1.5,6.8-1.5h3c1.3,0,2.4,0.2,3.4,0.6c1,0.4,1.7,1,2.2,1.7s0.9,1.4,1.1,2.2s0.4,1.6,0.4,2.5
			c0,1.9-0.4,3.3-1.2,4.4c-0.8,1.1-2.2,1.9-4.2,2.4l-3.3-2v5.9c0,0.9-0.1,1.6-0.4,2s-0.6,0.6-1,0.6c-0.3,0-0.7-0.1-1-0.4
			C378.4,235.7,378.3,235.3,378.3,234.7z M379.7,243.3c-0.6,0-1.1-0.2-1.7-0.6c-0.5-0.4-0.8-0.9-0.8-1.5s0.3-1.1,0.8-1.5
			s1.1-0.6,1.6-0.6s1.1,0.2,1.6,0.6c0.5,0.4,0.8,0.9,0.8,1.5s-0.3,1.1-0.8,1.5S380.3,243.3,379.7,243.3z"/>
		<path fill="#272661" d="M53.1,269.2h-6.7v-0.8c0.3-0.1,0.6-0.3,0.9-0.4s0.6-0.2,0.9-0.3v-9.3l0.1-2.6h-0.2l-0.7,2.4l-4.3,11h-1
			l-4.3-10.9l-0.8-2.6h-0.2v2.8v9.1c0.3,0.1,0.6,0.2,0.9,0.3c0.3,0.1,0.7,0.3,1,0.4v0.8h-5.4v-0.8c0.2-0.1,0.5-0.3,0.9-0.4
			c0.3-0.2,0.7-0.3,1-0.3v-12.5c-0.3-0.1-0.6-0.1-0.9-0.2c-0.3-0.1-0.6-0.2-0.9-0.4v-0.8h6l3.4,9.1l0.6,2.1l0,0l0.7-2.2l3.5-9h5.5
			v0.8c-0.3,0.1-0.5,0.3-0.8,0.4s-0.6,0.2-0.9,0.3v12.6c0.3,0.1,0.6,0.1,0.9,0.3c0.3,0.1,0.5,0.2,0.8,0.4V269.2z"/>
		<path fill="#272661" d="M54.3,263.6c0-0.9,0.1-1.7,0.4-2.4c0.3-0.7,0.7-1.3,1.2-1.8s1.1-0.9,1.9-1.2c0.7-0.3,1.6-0.4,2.5-0.4
			c1,0,1.9,0.1,2.7,0.4s1.4,0.7,1.8,1.2c0.5,0.5,0.8,1.1,1.1,1.9c0.2,0.7,0.3,1.5,0.3,2.4s-0.1,1.7-0.4,2.4
			c-0.3,0.7-0.7,1.3-1.2,1.8s-1.1,0.9-1.9,1.2c-0.7,0.3-1.6,0.4-2.5,0.4c-1,0-1.9-0.1-2.6-0.4c-0.7-0.3-1.4-0.7-1.9-1.2
			s-0.9-1.1-1.1-1.9C54.4,265.3,54.3,264.5,54.3,263.6z M57.7,263.6c0,0.7,0,1.3,0.1,1.8c0.1,0.6,0.2,1,0.4,1.4s0.5,0.7,0.8,0.9
			c0.4,0.2,0.8,0.3,1.4,0.3c0.3,0,0.6-0.1,0.9-0.2c0.3-0.2,0.5-0.4,0.7-0.8c0.2-0.3,0.3-0.8,0.4-1.4c0.1-0.6,0.1-1.3,0.1-2.1
			c0-0.7,0-1.3-0.1-1.9c-0.1-0.5-0.2-1-0.4-1.4s-0.5-0.7-0.8-0.9s-0.8-0.3-1.3-0.3c-0.4,0-0.7,0.1-1,0.2s-0.5,0.4-0.7,0.8
			c-0.2,0.3-0.3,0.8-0.4,1.4C57.8,262.1,57.7,262.8,57.7,263.6z"/>
		<path fill="#272661" d="M73.2,266.8c0-0.4-0.1-0.7-0.4-1s-0.6-0.5-1-0.8c-0.4-0.2-0.9-0.5-1.3-0.7c-0.5-0.2-0.9-0.5-1.3-0.8
			c-0.4-0.3-0.8-0.7-1-1.1c-0.3-0.4-0.4-1-0.4-1.6c0-0.4,0.1-0.9,0.3-1.2c0.2-0.4,0.5-0.7,0.8-0.9c0.4-0.3,0.8-0.4,1.3-0.6
			s1-0.2,1.6-0.2c0.8,0,1.5,0.1,2.2,0.2s1.3,0.3,1.8,0.5c-0.1,0.5-0.2,1-0.4,1.5s-0.3,1-0.5,1.5h-0.8l-0.9-2.3
			c-0.2-0.1-0.4-0.1-0.6-0.1c-0.2,0-0.4,0-0.6,0c-0.4,0-0.8,0.1-1,0.4s-0.3,0.6-0.3,0.9c0,0.4,0.1,0.7,0.4,1c0.3,0.3,0.6,0.5,1,0.8
			c0.4,0.2,0.9,0.5,1.3,0.7c0.5,0.2,0.9,0.5,1.3,0.8c0.4,0.3,0.8,0.7,1,1.1c0.3,0.4,0.4,0.9,0.4,1.5c0,1-0.4,1.8-1.2,2.4
			s-1.9,0.9-3.3,0.9c-0.7,0-1.4-0.1-2.2-0.2s-1.4-0.4-2-0.6c0-0.5,0.2-1.1,0.4-1.6s0.5-1,0.7-1.5h0.8l1.1,2.4
			c0.2,0.1,0.3,0.2,0.5,0.2s0.4,0,0.6,0c0.4,0,0.8-0.1,1.2-0.4C73,267.6,73.2,267.2,73.2,266.8z"/>
		<path fill="#272661" d="M77.1,258.6c0.6-0.4,1.2-0.6,1.8-0.8V256c0.1-0.1,0.2-0.2,0.5-0.3c0.2-0.1,0.4-0.2,0.7-0.2
			s0.5-0.1,0.7-0.2c0.2-0.1,0.4-0.1,0.6-0.1H82v2.8h3v1.4h-3v5.7c0,0.9,0.1,1.6,0.3,1.9s0.6,0.5,1.1,0.5c0.3,0,0.6,0,0.9-0.1
			c0.3,0,0.6-0.1,0.9-0.2l0.2,0.7c-0.1,0.1-0.3,0.3-0.6,0.4s-0.6,0.3-0.9,0.4c-0.3,0.1-0.7,0.2-1.1,0.3c-0.4,0.1-0.8,0.1-1.2,0.1
			c-1,0-1.7-0.3-2.2-0.8s-0.7-1.3-0.7-2.4v-6.8h-1.8v-0.5H77.1z"/>
		<path fill="#272661" d="M101.9,267.4c-0.1,0.3-0.3,0.6-0.5,0.8c-0.2,0.2-0.5,0.5-0.9,0.7c-0.3,0.2-0.7,0.3-1.1,0.4
			c-0.4,0.1-0.9,0.2-1.3,0.2c-1,0-1.8-0.1-2.5-0.4s-1.3-0.7-1.7-1.2c-0.5-0.5-0.8-1.1-1-1.9c-0.2-0.7-0.3-1.5-0.3-2.4
			c0-1.9,0.5-3.3,1.5-4.3s2.5-1.5,4.4-1.5c0.7,0,1.4,0.1,2,0.2c0.6,0.2,1.1,0.3,1.5,0.5c0,0.3-0.1,0.5-0.1,0.8s-0.1,0.6-0.2,0.9
			c-0.1,0.3-0.1,0.6-0.2,0.9s-0.2,0.5-0.3,0.7h-1.1l-0.9-2.7c-0.1-0.1-0.2-0.1-0.3-0.2c-0.1,0-0.3-0.1-0.5-0.1c-0.4,0-0.7,0.1-1,0.2
			s-0.5,0.4-0.7,0.7c-0.2,0.3-0.3,0.8-0.4,1.4c-0.1,0.6-0.1,1.3-0.1,2.1c0,0.6,0.1,1.2,0.2,1.7c0.1,0.5,0.3,1,0.6,1.3
			c0.3,0.4,0.6,0.7,1,0.9c0.4,0.2,0.9,0.3,1.5,0.3c0.5,0,1-0.1,1.4-0.2s0.7-0.3,1-0.5L101.9,267.4L101.9,267.4z"/>
		<path fill="#272661" d="M102.9,263.6c0-0.9,0.1-1.7,0.4-2.4c0.3-0.7,0.7-1.3,1.2-1.8s1.1-0.9,1.9-1.2c0.7-0.3,1.6-0.4,2.5-0.4
			c1,0,1.9,0.1,2.7,0.4s1.4,0.7,1.8,1.2c0.5,0.5,0.8,1.1,1.1,1.9c0.2,0.7,0.3,1.5,0.3,2.4s-0.1,1.7-0.4,2.4
			c-0.3,0.7-0.7,1.3-1.2,1.8s-1.1,0.9-1.9,1.2c-0.7,0.3-1.6,0.4-2.5,0.4c-1,0-1.9-0.1-2.6-0.4s-1.4-0.7-1.9-1.2s-0.9-1.1-1.1-1.9
			C103,265.3,102.9,264.5,102.9,263.6z M106.4,263.6c0,0.7,0,1.3,0.1,1.8c0.1,0.6,0.2,1,0.4,1.4s0.5,0.7,0.8,0.9
			c0.4,0.2,0.8,0.3,1.4,0.3c0.3,0,0.6-0.1,0.9-0.2c0.3-0.2,0.5-0.4,0.7-0.8c0.2-0.3,0.3-0.8,0.4-1.4c0.1-0.6,0.1-1.3,0.1-2.1
			c0-0.7,0-1.3-0.1-1.9c-0.1-0.5-0.2-1-0.4-1.4s-0.5-0.7-0.8-0.9c-0.3-0.2-0.8-0.3-1.3-0.3c-0.4,0-0.7,0.1-1,0.2s-0.5,0.4-0.7,0.8
			c-0.2,0.3-0.3,0.8-0.4,1.4C106.4,262.1,106.4,262.8,106.4,263.6z"/>
		<path fill="#272661" d="M128.7,269.2h-5.6v-0.8c0.1-0.1,0.3-0.2,0.5-0.3c0.2-0.1,0.4-0.2,0.6-0.3v-4.4c0-0.7,0-1.3-0.1-1.7
			c0-0.5-0.1-0.9-0.2-1.2c-0.1-0.3-0.3-0.5-0.5-0.7c-0.2-0.1-0.5-0.2-0.8-0.2c-0.5,0-0.9,0.2-1.2,0.5c-0.3,0.4-0.6,0.8-0.8,1.4v6.3
			c0.4,0.1,0.8,0.3,1.1,0.5v0.8H116v-0.8c0.2-0.1,0.4-0.2,0.7-0.3c0.3-0.1,0.5-0.2,0.8-0.2v-8.2l-1.5-0.2v-0.8
			c0.2-0.1,0.5-0.2,0.9-0.3c0.3-0.1,0.7-0.2,1.1-0.2c0.4-0.1,0.7-0.1,1.1-0.2c0.3,0,0.6-0.1,0.9-0.1h0.8v2.5l0,0
			c0.2-0.7,0.7-1.3,1.3-1.8s1.3-0.7,2.2-0.7c0.4,0,0.7,0,1,0.1s0.7,0.2,0.9,0.4c0.3,0.2,0.5,0.5,0.7,0.8c0.2,0.4,0.4,0.8,0.4,1.4
			c0.3-0.8,0.7-1.5,1.3-2c0.6-0.5,1.4-0.8,2.3-0.8c0.5,0,1,0.1,1.5,0.2c0.4,0.1,0.8,0.4,1.1,0.7c0.3,0.4,0.5,0.8,0.7,1.5
			s0.2,1.4,0.2,2.3v5.3c0.5,0.1,1,0.3,1.5,0.5v0.8H130v-0.8c0.3-0.2,0.7-0.4,1.1-0.5V263c0-1.2-0.1-2-0.3-2.6s-0.7-0.8-1.4-0.8
			c-0.5,0-1,0.2-1.3,0.6c-0.3,0.4-0.5,0.9-0.7,1.6v6c0.3,0.1,0.5,0.2,0.7,0.2c0.2,0.1,0.4,0.2,0.6,0.3L128.7,269.2L128.7,269.2z"/>
		<path fill="#272661" d="M149.3,269.2h-5.6v-0.8c0.1-0.1,0.3-0.2,0.5-0.3c0.2-0.1,0.4-0.2,0.6-0.3v-4.4c0-0.7,0-1.3-0.1-1.7
			c0-0.5-0.1-0.9-0.2-1.2c-0.1-0.3-0.3-0.5-0.5-0.7c-0.2-0.1-0.5-0.2-0.8-0.2c-0.5,0-0.9,0.2-1.2,0.5c-0.3,0.4-0.6,0.8-0.8,1.4v6.3
			c0.4,0.1,0.8,0.3,1.1,0.5v0.8h-5.8v-0.8c0.2-0.1,0.4-0.2,0.7-0.3c0.3-0.1,0.5-0.2,0.8-0.2v-8.2l-1.5-0.2v-0.8
			c0.2-0.1,0.5-0.2,0.9-0.3c0.3-0.1,0.7-0.2,1.1-0.2c0.4-0.1,0.7-0.1,1.1-0.2c0.3,0,0.6-0.1,0.9-0.1h0.8v2.5l0,0
			c0.2-0.7,0.7-1.3,1.3-1.8s1.3-0.7,2.2-0.7c0.4,0,0.7,0,1,0.1s0.7,0.2,0.9,0.4c0.3,0.2,0.5,0.5,0.7,0.8c0.2,0.4,0.4,0.8,0.4,1.4
			c0.3-0.8,0.7-1.5,1.3-2s1.4-0.8,2.3-0.8c0.5,0,1,0.1,1.5,0.2c0.4,0.1,0.8,0.4,1.1,0.7c0.3,0.4,0.5,0.8,0.7,1.5s0.2,1.4,0.2,2.3
			v5.3c0.5,0.1,1,0.3,1.5,0.5v0.8h-5.8v-0.8c0.3-0.2,0.7-0.4,1.1-0.5V263c0-1.2-0.1-2-0.3-2.6s-0.7-0.8-1.4-0.8
			c-0.5,0-1,0.2-1.3,0.6s-0.5,0.9-0.7,1.6v6c0.3,0.1,0.5,0.2,0.7,0.2c0.2,0.1,0.4,0.2,0.6,0.3V269.2z"/>
		<path fill="#272661" d="M158.3,264.8c0-0.9,0-1.8,0.1-2.6c0.1-0.8,0.1-1.7,0.1-2.5l-1.5-0.2v-0.8c0.2-0.1,0.5-0.2,0.9-0.3
			c0.3-0.1,0.7-0.2,1.1-0.2c0.4-0.1,0.7-0.1,1.1-0.2c0.3-0.1,0.6-0.1,0.9-0.1h0.8c0,1.1,0,2.2-0.1,3.3c0,1.1-0.1,2.1-0.1,3.2
			c0,1.2,0.1,2.1,0.4,2.6c0.2,0.5,0.7,0.8,1.4,0.8c0.5,0,0.9-0.2,1.3-0.5c0.4-0.3,0.7-0.9,1-1.7v-5.9l-1.4-0.2v-0.8
			c0.2-0.1,0.5-0.2,0.8-0.3c0.3-0.1,0.7-0.2,1-0.2c0.4-0.1,0.7-0.1,1.1-0.2c0.4-0.1,0.7-0.1,0.9-0.1h0.8v9.8l1.5,0.2v0.8
			c-0.2,0.1-0.5,0.2-0.8,0.3c-0.3,0.1-0.6,0.2-1,0.3c-0.3,0.1-0.7,0.1-1,0.2s-0.6,0.1-0.9,0.1h-0.8l-0.2-2.7h-0.1
			c-0.1,0.3-0.2,0.6-0.4,0.9s-0.4,0.6-0.7,0.9s-0.7,0.5-1.1,0.6c-0.4,0.2-0.9,0.2-1.4,0.2c-0.6,0-1.1-0.1-1.5-0.2s-0.8-0.4-1.1-0.7
			c-0.3-0.4-0.5-0.8-0.7-1.4C158.3,266.5,158.3,265.7,158.3,264.8z"/>
		<path fill="#272661" d="M170.7,258.6c0.6-0.4,1.2-0.6,1.8-0.8V256c0.1-0.1,0.2-0.2,0.5-0.3c0.2-0.1,0.4-0.2,0.7-0.2
			s0.5-0.1,0.7-0.2c0.2-0.1,0.4-0.1,0.6-0.1h0.8v2.8h2.9v1.4h-2.9v5.7c0,0.9,0.1,1.6,0.3,1.9s0.6,0.5,1.1,0.5c0.3,0,0.6,0,0.9-0.1
			c0.3,0,0.6-0.1,0.9-0.2l0.2,0.7c-0.1,0.1-0.3,0.3-0.6,0.4s-0.6,0.3-0.9,0.4s-0.7,0.2-1.1,0.3c-0.4,0.1-0.8,0.1-1.2,0.1
			c-1,0-1.7-0.3-2.2-0.8s-0.7-1.3-0.7-2.4v-6.8h-1.8V258.6z"/>
		<path fill="#272661" d="M190.3,267.3c-0.1,0.3-0.3,0.5-0.6,0.8s-0.6,0.5-1,0.7s-0.8,0.4-1.3,0.5s-1,0.2-1.6,0.2
			c-0.9,0-1.7-0.1-2.5-0.4c-0.7-0.3-1.3-0.7-1.8-1.2s-0.8-1.1-1.1-1.8s-0.4-1.5-0.4-2.4c0-1.9,0.5-3.4,1.5-4.3c1-1,2.4-1.5,4.1-1.5
			c0.8,0,1.5,0.1,2.1,0.3c0.7,0.2,1.2,0.5,1.6,1c0.4,0.5,0.7,1.1,0.9,1.9s0.2,1.7,0,2.8h-6.8c0,1.2,0.3,2.1,0.9,2.8
			c0.6,0.7,1.5,1,2.6,1c0.5,0,1-0.1,1.5-0.2s0.9-0.3,1.2-0.6L190.3,267.3z M185.7,259.1c-0.3,0-0.6,0.1-0.8,0.2s-0.4,0.3-0.6,0.6
			s-0.3,0.6-0.4,1.1c-0.1,0.5-0.2,1.1-0.2,1.8h3.6c0.1-1.2,0-2.1-0.2-2.7C186.8,259.4,186.3,259.1,185.7,259.1z"/>
		<path fill="#272661" d="M197.9,260.6c-0.2,0.1-0.4,0.2-0.6,0.4c-0.2,0.2-0.5,0.6-0.6,1v5.7c0.3,0,0.6,0.1,0.9,0.2s0.6,0.2,0.9,0.4
			v0.8H192v-0.8c0.3-0.1,0.5-0.3,0.8-0.3c0.2-0.1,0.5-0.1,0.7-0.2v-8.2l-1.5-0.2v-0.8c0.2-0.1,0.5-0.2,0.9-0.3
			c0.3-0.1,0.7-0.2,1.1-0.2c0.4-0.1,0.7-0.1,1.1-0.2c0.3,0,0.6-0.1,0.9-0.1h0.8v3h0.1c0.1-0.3,0.3-0.7,0.5-1c0.2-0.4,0.5-0.7,0.8-1
			s0.7-0.5,1-0.7c0.4-0.2,0.8-0.3,1.2-0.2c0.2,0.2,0.3,0.5,0.4,0.9c0.1,0.4,0.2,0.7,0.3,1.1v0.9h-3.2L197.9,260.6L197.9,260.6z"/>
		<path fill="#272661" d="M207.4,266.8c0-0.4-0.1-0.7-0.4-1s-0.6-0.5-1-0.8c-0.4-0.2-0.9-0.5-1.3-0.7c-0.5-0.2-0.9-0.5-1.3-0.8
			c-0.4-0.3-0.8-0.7-1-1.1c-0.3-0.4-0.4-1-0.4-1.6c0-0.4,0.1-0.9,0.3-1.2c0.2-0.4,0.5-0.7,0.8-0.9c0.4-0.3,0.8-0.4,1.3-0.6
			s1-0.2,1.6-0.2c0.8,0,1.5,0.1,2.2,0.2s1.3,0.3,1.8,0.5c-0.1,0.5-0.2,1-0.4,1.5s-0.3,1-0.5,1.5h-0.8l-0.9-2.3
			c-0.2-0.1-0.4-0.1-0.6-0.1c-0.2,0-0.4,0-0.6,0c-0.4,0-0.8,0.1-1,0.4s-0.3,0.6-0.3,0.9c0,0.4,0.1,0.7,0.4,1s0.6,0.5,1,0.8
			c0.4,0.2,0.9,0.5,1.3,0.7c0.5,0.2,0.9,0.5,1.3,0.8c0.4,0.3,0.8,0.7,1,1.1c0.3,0.4,0.4,0.9,0.4,1.5c0,1-0.4,1.8-1.2,2.4
			s-1.9,0.9-3.3,0.9c-0.7,0-1.4-0.1-2.2-0.2s-1.4-0.4-2-0.6c0-0.5,0.2-1.1,0.4-1.6s0.5-1,0.7-1.5h0.8l1.1,2.4
			c0.2,0.1,0.3,0.2,0.5,0.2s0.4,0,0.6,0c0.4,0,0.8-0.1,1.2-0.4C207.2,267.6,207.4,267.2,207.4,266.8z"/>
		<path fill="#272661" d="M223.9,269.2h-6.2v-0.8c0.2-0.1,0.5-0.2,0.7-0.3c0.2-0.1,0.5-0.2,0.8-0.2v-8.2l-1.5-0.2v-0.8
			c0.2-0.1,0.5-0.2,0.8-0.3c0.3-0.1,0.7-0.2,1.1-0.2c0.4-0.1,0.7-0.1,1.1-0.2c0.4-0.1,0.7-0.1,0.9-0.1h0.8v10
			c0.3,0.1,0.6,0.2,0.8,0.2s0.5,0.2,0.7,0.3L223.9,269.2L223.9,269.2z M218.9,254.4c0-0.5,0.2-0.9,0.5-1.2c0.4-0.3,0.8-0.4,1.4-0.4
			c0.6,0,1,0.1,1.4,0.4c0.4,0.3,0.5,0.7,0.5,1.2s-0.2,0.9-0.5,1.2s-0.8,0.4-1.4,0.4c-0.6,0-1-0.1-1.4-0.4S218.9,254.9,218.9,254.4z"
			/>
		<path fill="#272661" d="M238.6,269.2h-5.9v-0.8c0.2-0.1,0.4-0.2,0.6-0.3c0.2-0.1,0.4-0.2,0.7-0.3v-5.3c0-0.9-0.1-1.7-0.4-2.2
			s-0.7-0.8-1.4-0.8c-0.6,0-1.1,0.2-1.5,0.5c-0.4,0.4-0.7,0.9-0.9,1.5v6.2c0.2,0.1,0.4,0.1,0.6,0.2s0.4,0.2,0.6,0.3v0.8h-6v-0.8
			c0.4-0.2,0.9-0.4,1.5-0.5v-8.2l-1.5-0.2v-0.8c0.2-0.1,0.4-0.2,0.8-0.3c0.4-0.1,0.6-0.2,1-0.2c0.4-0.1,0.7-0.1,1.1-0.2
			c0.4-0.1,0.7-0.1,1-0.1h0.8v2.3l0,0c0.3-0.6,0.8-1.2,1.4-1.6c0.6-0.5,1.4-0.7,2.3-0.7c0.6,0,1.1,0.1,1.6,0.2s0.9,0.4,1.2,0.7
			c0.3,0.4,0.6,0.8,0.7,1.4s0.3,1.4,0.3,2.3v5.3c0.6,0.1,1.1,0.3,1.5,0.5L238.6,269.2L238.6,269.2z"/>
		<path fill="#272661" d="M245,258.6c0.6-0.4,1.2-0.6,1.8-0.8V256c0.1-0.1,0.2-0.2,0.5-0.3c0.2-0.1,0.4-0.2,0.7-0.2s0.5-0.1,0.7-0.2
			c0.2-0.1,0.4-0.1,0.6-0.1h0.8v2.8h2.9v1.4h-3v5.7c0,0.9,0.1,1.6,0.3,1.9s0.6,0.5,1.1,0.5c0.3,0,0.6,0,0.9-0.1
			c0.3,0,0.6-0.1,0.9-0.2l0.2,0.7c-0.1,0.1-0.3,0.3-0.6,0.4s-0.6,0.3-0.9,0.4s-0.7,0.2-1.1,0.3c-0.4,0.1-0.8,0.1-1.2,0.1
			c-1,0-1.7-0.3-2.2-0.8s-0.7-1.3-0.7-2.4v-6.8H245V258.6z"/>
		<path fill="#272661" d="M267.8,269.2h-5.9v-0.8c0.2-0.1,0.4-0.2,0.6-0.3c0.2-0.1,0.4-0.2,0.7-0.2v-4.5c0-1.3-0.1-2.2-0.4-2.8
			c-0.2-0.6-0.7-0.9-1.4-0.9c-0.6,0-1.1,0.2-1.5,0.6s-0.7,0.9-0.9,1.4v6.2c0.2,0.1,0.4,0.1,0.6,0.2s0.4,0.2,0.6,0.3v0.8h-5.9v-0.8
			c0.5-0.2,1-0.4,1.5-0.5v-13.5l-1.7-0.2v-0.8c0.2-0.1,0.5-0.2,0.9-0.3c0.3-0.1,0.7-0.2,1.1-0.2c0.4-0.1,0.8-0.1,1.2-0.2
			c0.4-0.1,0.7-0.1,1-0.1h0.8v7.9l0,0c0.1-0.3,0.3-0.7,0.6-1s0.5-0.6,0.9-0.8c0.3-0.2,0.7-0.4,1-0.5c0.4-0.1,0.8-0.2,1.2-0.2
			c0.6,0,1.1,0.1,1.6,0.2s0.9,0.4,1.2,0.7c0.3,0.4,0.5,0.8,0.7,1.4s0.2,1.4,0.2,2.3v5.3c0.3,0.1,0.5,0.1,0.8,0.2s0.5,0.2,0.7,0.3
			v0.8L267.8,269.2L267.8,269.2z"/>
		<path fill="#272661" d="M278.9,267.3c-0.1,0.3-0.3,0.5-0.6,0.8s-0.6,0.5-1,0.7s-0.8,0.4-1.3,0.5s-1,0.2-1.6,0.2
			c-0.9,0-1.7-0.1-2.5-0.4c-0.7-0.3-1.3-0.7-1.8-1.2s-0.8-1.1-1.1-1.8s-0.4-1.5-0.4-2.4c0-1.9,0.5-3.4,1.5-4.3c1-1,2.4-1.5,4.1-1.5
			c0.8,0,1.5,0.1,2.1,0.3c0.7,0.2,1.2,0.5,1.6,1s0.7,1.1,0.9,1.9s0.2,1.7,0,2.8H272c0,1.2,0.3,2.1,0.9,2.8c0.6,0.7,1.5,1,2.6,1
			c0.5,0,1-0.1,1.5-0.2s0.9-0.3,1.2-0.6L278.9,267.3z M274.2,259.1c-0.3,0-0.6,0.1-0.8,0.2s-0.4,0.3-0.6,0.6
			c-0.2,0.3-0.3,0.6-0.4,1.1s-0.2,1.1-0.2,1.8h3.6c0.1-1.2,0-2.1-0.2-2.7C275.4,259.4,274.9,259.1,274.2,259.1z"/>
		<path fill="#272661" d="M286.2,253.6h6.9v0.8c-0.5,0.3-1.1,0.5-1.7,0.6v8.6c0,0.7,0.1,1.3,0.2,1.8c0.2,0.5,0.4,0.9,0.7,1.2
			c0.3,0.3,0.7,0.5,1.1,0.7s0.9,0.2,1.5,0.2c0.5,0,0.9-0.1,1.3-0.2s0.8-0.4,1.1-0.7c0.3-0.3,0.5-0.7,0.7-1.2s0.2-1.1,0.2-1.9v-8.4
			c-0.3-0.1-0.7-0.2-1.1-0.3s-0.7-0.3-0.9-0.4v-0.8h5.5v0.8c-0.3,0.2-0.6,0.3-0.9,0.5s-0.6,0.2-1,0.3v8.4c0,1.9-0.5,3.3-1.5,4.3
			s-2.4,1.5-4.2,1.5c-2,0-3.5-0.4-4.6-1.3s-1.6-2.3-1.6-4.3v-8.7c-0.3,0-0.6-0.1-0.9-0.2c-0.3-0.1-0.6-0.2-0.9-0.4L286.2,253.6
			L286.2,253.6z"/>
		<path fill="#272661" d="M303.3,267.6c0-0.5,0.2-1,0.5-1.3s0.8-0.5,1.4-0.5c0.6,0,1,0.2,1.4,0.5s0.5,0.8,0.5,1.3s-0.2,1-0.5,1.3
			s-0.8,0.5-1.4,0.5c-0.6,0-1-0.2-1.4-0.5S303.3,268.2,303.3,267.6z"/>
		<path fill="#272661" d="M312,267.4c0.2,0.2,0.4,0.3,0.7,0.5c0.3,0.1,0.7,0.2,1.2,0.2c0.8,0,1.5-0.2,2-0.6s0.8-1,0.8-1.8
			c0-0.5-0.2-1-0.5-1.4s-0.8-0.7-1.3-1s-1.1-0.6-1.7-0.9s-1.2-0.7-1.7-1.1s-1-0.9-1.3-1.5s-0.5-1.3-0.5-2.1c0-0.7,0.1-1.4,0.4-1.9
			c0.3-0.5,0.6-1,1.1-1.3s1-0.6,1.7-0.8s1.3-0.3,2.1-0.3c0.9,0,1.8,0.1,2.5,0.2c0.8,0.1,1.5,0.3,2.1,0.6c0,0.3,0,0.6-0.1,1
			c0,0.4-0.1,0.8-0.1,1.1s-0.1,0.7-0.2,1.1c-0.1,0.3-0.1,0.6-0.2,0.8h-1l-1-3.1c-0.2-0.1-0.4-0.2-0.8-0.2c-0.4-0.1-0.7-0.1-1.1-0.1
			c-0.6,0-1.2,0.2-1.6,0.5s-0.6,0.8-0.6,1.4c0,0.6,0.2,1,0.5,1.4s0.8,0.8,1.3,1.1s1.1,0.6,1.8,1c0.6,0.3,1.2,0.7,1.8,1.1
			c0.5,0.4,1,0.9,1.3,1.5s0.5,1.2,0.5,2.1c0,1.5-0.5,2.6-1.5,3.4s-2.5,1.2-4.4,1.2c-0.5,0-1,0-1.4-0.1c-0.5-0.1-0.9-0.1-1.4-0.2
			c-0.4-0.1-0.8-0.2-1.1-0.3c-0.3-0.1-0.6-0.2-0.7-0.4c0-0.3,0.1-0.7,0.1-1.1c0.1-0.4,0.1-0.8,0.2-1.2c0.1-0.4,0.1-0.8,0.2-1.1
			c0.1-0.4,0.1-0.7,0.2-0.9h0.9L312,267.4z"/>
		<path fill="#272661" d="M322.4,267.6c0-0.5,0.2-1,0.5-1.3s0.8-0.5,1.4-0.5s1,0.2,1.4,0.5s0.5,0.8,0.5,1.3s-0.2,1-0.5,1.3
			s-0.8,0.5-1.4,0.5s-1-0.2-1.4-0.5S322.4,268.2,322.4,267.6z"/>
		<path fill="#272661" d="M346.8,269.2h-5.9v-0.8c0.2-0.1,0.4-0.2,0.6-0.3c0.2-0.1,0.4-0.2,0.7-0.2v-4.5c0-1.3-0.1-2.2-0.4-2.8
			c-0.2-0.6-0.7-0.9-1.4-0.9c-0.6,0-1.1,0.2-1.5,0.6s-0.7,0.9-0.9,1.4v6.2c0.2,0.1,0.4,0.1,0.6,0.2s0.4,0.2,0.6,0.3v0.8h-5.9v-0.8
			c0.5-0.2,1-0.4,1.5-0.5v-13.5l-1.7-0.2v-0.8c0.2-0.1,0.5-0.2,0.9-0.3c0.3-0.1,0.7-0.2,1.1-0.2c0.4-0.1,0.8-0.1,1.2-0.2
			c0.4-0.1,0.7-0.1,1-0.1h0.8v7.9l0,0c0.1-0.3,0.3-0.7,0.6-1s0.5-0.6,0.9-0.8c0.3-0.2,0.7-0.4,1-0.5c0.4-0.1,0.8-0.2,1.2-0.2
			c0.6,0,1.1,0.1,1.6,0.2s0.9,0.4,1.2,0.7c0.3,0.4,0.5,0.8,0.7,1.4s0.2,1.4,0.2,2.3v5.3c0.3,0.1,0.5,0.1,0.8,0.2s0.5,0.2,0.7,0.3
			v0.8L346.8,269.2L346.8,269.2z"/>
		<path fill="#272661" d="M357.6,266c0,0.3,0,0.6,0,0.8c0,0.2,0,0.5,0.1,0.8l1.5,0.2v0.8c-0.2,0.1-0.4,0.2-0.7,0.3
			c-0.3,0.1-0.6,0.2-1,0.3c-0.3,0.1-0.7,0.1-1,0.2s-0.6,0.1-0.9,0.1h-0.8c-0.1-0.3-0.2-0.7-0.3-1c0-0.3-0.1-0.8-0.1-1.2h-0.1
			c-0.1,0.3-0.2,0.6-0.4,0.9s-0.4,0.5-0.7,0.7s-0.6,0.4-1,0.5s-0.8,0.2-1.2,0.2c-0.5,0-0.9-0.1-1.4-0.2s-0.8-0.4-1.1-0.6
			c-0.3-0.3-0.6-0.6-0.7-1c-0.2-0.4-0.3-0.8-0.3-1.3c0-0.7,0.1-1.2,0.4-1.6c0.3-0.4,0.7-0.8,1.2-1.1c0.5-0.3,1.2-0.5,2.1-0.6
			s1.9-0.2,3.1-0.3c0.1-1.3,0.1-2.2-0.2-2.8c-0.2-0.6-0.7-0.9-1.4-0.9c-0.5,0-0.9,0.1-1.3,0.2l-1,2.7h-1c-0.1-0.2-0.2-0.4-0.3-0.6
			s-0.2-0.5-0.3-0.7s-0.2-0.5-0.2-0.8c-0.1-0.3-0.1-0.5-0.1-0.8c0.6-0.4,1.3-0.7,2.2-0.9c0.9-0.2,1.8-0.3,2.8-0.3
			c0.8,0,1.5,0.1,2.1,0.3c0.5,0.2,1,0.4,1.3,0.8c0.3,0.3,0.5,0.7,0.6,1.1s0.2,0.9,0.2,1.4c0,0.9,0,1.7-0.1,2.4
			S357.6,265.2,357.6,266z M352.5,267.7c0.3,0,0.6-0.1,0.8-0.2s0.4-0.3,0.6-0.4c0.2-0.2,0.3-0.3,0.4-0.5s0.1-0.4,0.2-0.5v-2.2
			c-0.7,0-1.3,0.1-1.7,0.1c-0.4,0.1-0.8,0.2-1,0.4c-0.3,0.2-0.4,0.4-0.5,0.6c-0.1,0.3-0.1,0.6-0.1,0.9c0,0.6,0.1,1,0.4,1.3
			S352.1,267.7,352.5,267.7z"/>
		<path fill="#272661" d="M364.9,269.5l-4.5-10c-0.4-0.1-0.8-0.3-1.2-0.5v-0.8h5.9v0.8c-0.2,0.1-0.4,0.2-0.6,0.3
			c-0.2,0.1-0.4,0.2-0.7,0.3l2.1,5.7l0.4,1.5l0,0l0.4-1.5l1.9-5.7c-0.2-0.1-0.5-0.1-0.7-0.2s-0.4-0.2-0.6-0.3v-0.8h4.3v0.8
			c-0.1,0.1-0.3,0.2-0.5,0.3c-0.2,0.1-0.5,0.2-0.7,0.2l-3.9,9.8L364.9,269.5z"/>
		<path fill="#272661" d="M382,267.3c-0.1,0.3-0.3,0.5-0.6,0.8c-0.3,0.3-0.6,0.5-1,0.7s-0.8,0.4-1.3,0.5s-1,0.2-1.6,0.2
			c-0.9,0-1.7-0.1-2.5-0.4c-0.7-0.3-1.3-0.7-1.8-1.2s-0.8-1.1-1.1-1.8s-0.4-1.5-0.4-2.4c0-1.9,0.5-3.4,1.5-4.3c1-1,2.4-1.5,4.1-1.5
			c0.8,0,1.5,0.1,2.1,0.3c0.7,0.2,1.2,0.5,1.6,1s0.7,1.1,0.9,1.9s0.2,1.7,0,2.8h-6.8c0,1.2,0.3,2.1,0.9,2.8c0.6,0.7,1.5,1,2.6,1
			c0.5,0,1-0.1,1.5-0.2s0.9-0.3,1.2-0.6L382,267.3z M377.4,259.1c-0.3,0-0.6,0.1-0.8,0.2c-0.2,0.1-0.4,0.3-0.6,0.6s-0.3,0.6-0.4,1.1
			s-0.2,1.1-0.2,1.8h3.6c0.1-1.2,0-2.1-0.2-2.7C378.5,259.4,378.1,259.1,377.4,259.1z"/>
		<path fill="#272661" d="M399.6,266c0,0.3,0,0.6,0,0.8c0,0.2,0,0.5,0.1,0.8l1.5,0.2v0.8c-0.2,0.1-0.4,0.2-0.7,0.3
			c-0.3,0.1-0.6,0.2-1,0.3c-0.3,0.1-0.7,0.1-1,0.2s-0.6,0.1-0.9,0.1h-0.8c-0.1-0.3-0.2-0.7-0.3-1c0-0.3-0.1-0.8-0.1-1.2h-0.1
			c-0.1,0.3-0.2,0.6-0.4,0.9c-0.2,0.3-0.4,0.5-0.7,0.7c-0.3,0.2-0.6,0.4-1,0.5s-0.8,0.2-1.2,0.2c-0.5,0-0.9-0.1-1.4-0.2
			s-0.8-0.4-1.1-0.6c-0.3-0.3-0.6-0.6-0.7-1c-0.2-0.4-0.3-0.8-0.3-1.3c0-0.7,0.1-1.2,0.4-1.6s0.7-0.8,1.2-1.1
			c0.5-0.3,1.2-0.5,2.1-0.6s1.9-0.2,3.1-0.3c0.1-1.3,0.1-2.2-0.2-2.8c-0.2-0.6-0.7-0.9-1.4-0.9c-0.5,0-0.9,0.1-1.3,0.2l-1,2.7h-1
			c-0.1-0.2-0.2-0.4-0.3-0.6c-0.1-0.2-0.2-0.5-0.3-0.7s-0.2-0.5-0.2-0.8c-0.1-0.3-0.1-0.5-0.1-0.8c0.6-0.4,1.3-0.7,2.2-0.9
			c0.9-0.2,1.8-0.3,2.8-0.3c0.8,0,1.5,0.1,2.1,0.3c0.5,0.2,1,0.4,1.3,0.8c0.3,0.3,0.5,0.7,0.6,1.1s0.2,0.9,0.2,1.4
			c0,0.9,0,1.7-0.1,2.4S399.6,265.2,399.6,266z M394.6,267.7c0.3,0,0.6-0.1,0.8-0.2c0.2-0.1,0.4-0.3,0.6-0.4
			c0.2-0.2,0.3-0.3,0.4-0.5s0.1-0.4,0.2-0.5v-2.2c-0.7,0-1.3,0.1-1.7,0.1c-0.4,0.1-0.8,0.2-1,0.4c-0.3,0.2-0.4,0.4-0.5,0.6
			c-0.1,0.3-0.1,0.6-0.1,0.9c0,0.6,0.1,1,0.4,1.3S394.1,267.7,394.6,267.7z"/>
		<path fill="#272661" d="M407.8,258.6c0.6-0.4,1.2-0.6,1.8-0.8V256c0.1-0.1,0.2-0.2,0.5-0.3c0.2-0.1,0.4-0.2,0.7-0.2
			s0.5-0.1,0.7-0.2c0.2-0.1,0.4-0.1,0.6-0.1h0.8v2.8h2.9v1.4h-2.9v5.7c0,0.9,0.1,1.6,0.3,1.9s0.6,0.5,1.1,0.5c0.3,0,0.6,0,0.9-0.1
			c0.3,0,0.6-0.1,0.9-0.2l0.2,0.7c-0.1,0.1-0.3,0.3-0.6,0.4c-0.3,0.1-0.6,0.3-0.9,0.4s-0.7,0.2-1.1,0.3c-0.4,0.1-0.8,0.1-1.2,0.1
			c-1,0-1.7-0.3-2.2-0.8s-0.7-1.3-0.7-2.4v-6.8h-1.8L407.8,258.6L407.8,258.6z"/>
		<path fill="#272661" d="M417.2,263.6c0-0.9,0.1-1.7,0.4-2.4c0.3-0.7,0.7-1.3,1.2-1.8s1.1-0.9,1.9-1.2c0.7-0.3,1.6-0.4,2.5-0.4
			c1,0,1.9,0.1,2.7,0.4c0.8,0.3,1.4,0.7,1.8,1.2c0.5,0.5,0.8,1.1,1.1,1.9c0.2,0.7,0.3,1.5,0.3,2.4s-0.1,1.7-0.4,2.4
			c-0.3,0.7-0.7,1.3-1.2,1.8s-1.1,0.9-1.9,1.2c-0.7,0.3-1.6,0.4-2.5,0.4c-1,0-1.9-0.1-2.6-0.4s-1.4-0.7-1.9-1.2s-0.9-1.1-1.1-1.9
			C417.3,265.3,417.2,264.5,417.2,263.6z M420.6,263.6c0,0.7,0,1.3,0.1,1.8c0.1,0.6,0.2,1,0.4,1.4s0.5,0.7,0.8,0.9
			c0.4,0.2,0.8,0.3,1.4,0.3c0.3,0,0.6-0.1,0.9-0.2c0.3-0.2,0.5-0.4,0.7-0.8c0.2-0.3,0.3-0.8,0.4-1.4s0.1-1.3,0.1-2.1
			c0-0.7,0-1.3-0.1-1.9c-0.1-0.5-0.2-1-0.4-1.4c-0.2-0.4-0.5-0.7-0.8-0.9s-0.8-0.3-1.3-0.3c-0.4,0-0.7,0.1-1,0.2s-0.5,0.4-0.7,0.8
			c-0.2,0.3-0.3,0.8-0.4,1.4C420.7,262.1,420.6,262.8,420.6,263.6z"/>
		<path fill="#272661" d="M429.8,258.6c0.6-0.4,1.2-0.6,1.8-0.8V256c0.1-0.1,0.2-0.2,0.5-0.3c0.2-0.1,0.4-0.2,0.7-0.2
			s0.5-0.1,0.7-0.2c0.2-0.1,0.4-0.1,0.6-0.1h0.8v2.8h2.9v1.4h-2.9v5.7c0,0.9,0.1,1.6,0.3,1.9s0.6,0.5,1.1,0.5c0.3,0,0.6,0,0.9-0.1
			c0.3,0,0.6-0.1,0.9-0.2l0.2,0.7c-0.1,0.1-0.3,0.3-0.6,0.4c-0.3,0.1-0.6,0.3-0.9,0.4s-0.7,0.2-1.1,0.3c-0.4,0.1-0.8,0.1-1.2,0.1
			c-1,0-1.7-0.3-2.2-0.8s-0.7-1.3-0.7-2.4v-6.8h-1.8L429.8,258.6L429.8,258.6z"/>
		<path fill="#272661" d="M449,266c0,0.3,0,0.6,0,0.8c0,0.2,0,0.5,0.1,0.8l1.5,0.2v0.8c-0.2,0.1-0.4,0.2-0.7,0.3
			c-0.3,0.1-0.6,0.2-1,0.3c-0.3,0.1-0.7,0.1-1,0.2s-0.6,0.1-0.9,0.1h-0.8c-0.1-0.3-0.2-0.7-0.3-1c0-0.3-0.1-0.8-0.1-1.2h-0.1
			c-0.1,0.3-0.2,0.6-0.4,0.9c-0.2,0.3-0.4,0.5-0.7,0.7c-0.3,0.2-0.6,0.4-1,0.5s-0.8,0.2-1.2,0.2c-0.5,0-0.9-0.1-1.4-0.2
			s-0.8-0.4-1.1-0.6c-0.3-0.3-0.6-0.6-0.7-1c-0.2-0.4-0.3-0.8-0.3-1.3c0-0.7,0.1-1.2,0.4-1.6s0.7-0.8,1.2-1.1
			c0.5-0.3,1.2-0.5,2.1-0.6s1.9-0.2,3.1-0.3c0.1-1.3,0.1-2.2-0.2-2.8c-0.2-0.6-0.7-0.9-1.4-0.9c-0.5,0-0.9,0.1-1.3,0.2l-1,2.7h-1
			c-0.1-0.2-0.2-0.4-0.3-0.6c-0.1-0.2-0.2-0.5-0.3-0.7s-0.2-0.5-0.2-0.8c-0.1-0.3-0.1-0.5-0.1-0.8c0.6-0.4,1.3-0.7,2.2-0.9
			c0.9-0.2,1.8-0.3,2.8-0.3c0.8,0,1.5,0.1,2.1,0.3c0.5,0.2,1,0.4,1.3,0.8c0.3,0.3,0.5,0.7,0.6,1.1s0.2,0.9,0.2,1.4
			c0,0.9,0,1.7-0.1,2.4S449,265.2,449,266z M443.9,267.7c0.3,0,0.6-0.1,0.8-0.2c0.2-0.1,0.4-0.3,0.6-0.4c0.2-0.2,0.3-0.3,0.4-0.5
			s0.1-0.4,0.2-0.5v-2.2c-0.7,0-1.3,0.1-1.7,0.1c-0.4,0.1-0.8,0.2-1,0.4c-0.3,0.2-0.4,0.4-0.5,0.6c-0.1,0.3-0.1,0.6-0.1,0.9
			c0,0.6,0.1,1,0.4,1.3S443.5,267.7,443.9,267.7z"/>
		<path fill="#272661" d="M457.7,269.2h-6.2v-0.8c0.5-0.2,1-0.4,1.5-0.5v-13.5l-1.7-0.2v-0.8c0.2-0.1,0.5-0.2,0.8-0.3
			s0.7-0.2,1.1-0.2c0.4-0.1,0.8-0.1,1.2-0.2s0.7-0.1,1.1-0.1h0.8V268c0.5,0.1,1,0.3,1.5,0.5L457.7,269.2L457.7,269.2z"/>
		<path fill="#272661" d="M24.5,294.1c-0.1,0.3-0.3,0.6-0.5,0.8c-0.2,0.2-0.5,0.5-0.9,0.7c-0.3,0.2-0.7,0.3-1.1,0.4
			s-0.9,0.2-1.3,0.2c-1,0-1.8-0.1-2.5-0.4s-1.3-0.7-1.7-1.2c-0.5-0.5-0.8-1.1-1-1.9c-0.2-0.7-0.3-1.5-0.3-2.4c0-1.9,0.5-3.3,1.5-4.3
			s2.5-1.5,4.4-1.5c0.7,0,1.4,0.1,2,0.2c0.6,0.2,1.1,0.3,1.5,0.5c0,0.3-0.1,0.5-0.1,0.8s-0.1,0.6-0.2,0.9c-0.1,0.3-0.1,0.6-0.2,0.9
			c-0.1,0.3-0.2,0.5-0.3,0.7h-1.1l-0.9-2.7c-0.1-0.1-0.2-0.1-0.3-0.2c-0.1,0-0.3-0.1-0.5-0.1c-0.4,0-0.7,0.1-1,0.2s-0.5,0.4-0.7,0.7
			c-0.2,0.3-0.3,0.8-0.4,1.4c-0.1,0.6-0.1,1.3-0.1,2.1c0,0.6,0.1,1.2,0.2,1.7s0.3,1,0.6,1.3c0.3,0.4,0.6,0.7,1,0.9
			c0.4,0.2,0.9,0.3,1.5,0.3c0.5,0,1-0.1,1.4-0.2s0.7-0.3,1-0.5L24.5,294.1L24.5,294.1z"/>
		<path fill="#272661" d="M35.6,292.7c0,0.3,0,0.6,0,0.8c0,0.2,0,0.5,0.1,0.8l1.5,0.2v0.8c-0.2,0.1-0.4,0.2-0.7,0.3
			c-0.3,0.1-0.6,0.2-1,0.3c-0.3,0.1-0.7,0.1-1,0.2s-0.6,0.1-0.9,0.1h-0.8c-0.1-0.3-0.2-0.7-0.3-1c0-0.3-0.1-0.8-0.1-1.2h-0.1
			c-0.1,0.3-0.2,0.6-0.4,0.9s-0.4,0.5-0.7,0.7s-0.6,0.4-1,0.5s-0.8,0.2-1.2,0.2c-0.5,0-0.9-0.1-1.4-0.2s-0.8-0.4-1.1-0.6
			c-0.3-0.3-0.6-0.6-0.7-1c-0.2-0.4-0.3-0.8-0.3-1.3c0-0.7,0.1-1.2,0.4-1.6c0.3-0.4,0.7-0.8,1.2-1.1c0.5-0.3,1.2-0.5,2.1-0.6
			c0.9-0.1,1.9-0.2,3.1-0.3c0.1-1.3,0.1-2.2-0.2-2.8c-0.2-0.6-0.7-0.9-1.4-0.9c-0.5,0-0.9,0.1-1.3,0.2l-1,2.7h-1
			c-0.1-0.2-0.2-0.4-0.3-0.6s-0.2-0.5-0.3-0.7s-0.2-0.5-0.2-0.8c-0.1-0.3-0.1-0.5-0.1-0.8c0.6-0.4,1.3-0.7,2.2-0.9
			c0.9-0.2,1.8-0.3,2.8-0.3c0.8,0,1.5,0.1,2.1,0.3c0.5,0.2,1,0.4,1.3,0.8c0.3,0.3,0.5,0.7,0.6,1.1s0.2,0.9,0.2,1.4
			c0,0.9,0,1.7-0.1,2.4C35.5,291.4,35.6,292,35.6,292.7z M30.5,294.4c0.3,0,0.6-0.1,0.8-0.2s0.4-0.3,0.6-0.4
			c0.2-0.2,0.3-0.3,0.4-0.5c0.1-0.2,0.1-0.4,0.2-0.5v-2.2c-0.7,0-1.3,0.1-1.7,0.1c-0.4,0.1-0.8,0.2-1,0.4c-0.3,0.2-0.4,0.4-0.5,0.6
			c-0.1,0.3-0.1,0.6-0.1,0.9c0,0.6,0.1,1,0.4,1.3C29.9,294.2,30.1,294.4,30.5,294.4z"/>
		<path fill="#272661" d="M44,287.4c-0.2,0.1-0.4,0.2-0.6,0.4c-0.2,0.2-0.5,0.6-0.6,1v5.7c0.3,0,0.6,0.1,0.9,0.2s0.6,0.2,0.9,0.4
			v0.8H38v-0.8c0.3-0.1,0.5-0.3,0.8-0.3c0.2-0.1,0.5-0.1,0.7-0.2v-8.2l-1.5-0.2v-0.8c0.2-0.1,0.5-0.2,0.9-0.3
			c0.3-0.1,0.7-0.2,1.1-0.2c0.4-0.1,0.7-0.1,1.1-0.2c0.3,0,0.6-0.1,0.9-0.1h0.8v3h0.1c0.1-0.3,0.3-0.7,0.5-1c0.2-0.4,0.5-0.7,0.8-1
			s0.7-0.5,1-0.7c0.4-0.2,0.8-0.3,1.2-0.2c0.2,0.2,0.3,0.5,0.4,0.9c0.1,0.4,0.2,0.7,0.3,1.1v0.9H44L44,287.4L44,287.4z"/>
		<path fill="#272661" d="M48.6,281l-1.7-0.2V280c0.2-0.1,0.5-0.2,0.9-0.3c0.4-0.1,0.7-0.2,1.1-0.2c0.4,0,0.8-0.1,1.2-0.2
			s0.7-0.1,1-0.1h0.8v7.7l0,0c0.3-0.7,0.8-1.3,1.4-1.7c0.6-0.4,1.3-0.6,2.2-0.6c1.3,0,2.3,0.5,3.1,1.4c0.7,0.9,1.1,2.3,1.1,4.1
			c0,2-0.5,3.6-1.6,4.6s-2.7,1.5-4.7,1.5c-0.4,0-0.8,0-1.2-0.1c-0.5-0.1-0.9-0.1-1.3-0.2c-0.4-0.1-0.8-0.2-1.2-0.3
			c-0.4-0.1-0.6-0.2-0.8-0.3V281H48.6z M53.9,286.3c-0.6,0-1,0.2-1.4,0.6c-0.3,0.4-0.6,0.9-0.8,1.5v5.9c0.2,0.1,0.5,0.3,0.8,0.4
			s0.7,0.1,1,0.1c0.8,0,1.5-0.4,1.9-1.1s0.6-1.9,0.6-3.6c0-1.2-0.2-2.1-0.5-2.8C55.3,286.7,54.7,286.3,53.9,286.3z"/>
		<path fill="#272661" d="M60.9,290.4c0-0.9,0.1-1.7,0.4-2.4c0.3-0.7,0.7-1.3,1.2-1.8s1.1-0.9,1.9-1.2c0.7-0.3,1.6-0.4,2.5-0.4
			c1,0,1.9,0.1,2.7,0.4s1.4,0.7,1.8,1.2c0.5,0.5,0.8,1.1,1.1,1.9c0.2,0.7,0.3,1.5,0.3,2.4s-0.1,1.7-0.4,2.4
			c-0.3,0.7-0.7,1.3-1.2,1.8s-1.1,0.9-1.9,1.2c-0.7,0.3-1.6,0.4-2.5,0.4c-1,0-1.9-0.1-2.6-0.4c-0.7-0.3-1.4-0.7-1.9-1.2
			s-0.9-1.1-1.1-1.9S60.9,291.2,60.9,290.4z M64.4,290.4c0,0.7,0,1.3,0.1,1.8c0.1,0.6,0.2,1,0.4,1.4s0.5,0.7,0.8,0.9
			c0.4,0.2,0.8,0.3,1.4,0.3c0.3,0,0.6-0.1,0.9-0.2c0.3-0.2,0.5-0.4,0.7-0.8c0.2-0.3,0.3-0.8,0.4-1.4c0.1-0.6,0.1-1.3,0.1-2.1
			c0-0.7,0-1.3-0.1-1.9c-0.1-0.5-0.2-1-0.4-1.4s-0.5-0.7-0.8-0.9c-0.3-0.2-0.8-0.3-1.3-0.3c-0.4,0-0.7,0.1-1,0.2s-0.5,0.4-0.7,0.8
			c-0.2,0.3-0.3,0.8-0.4,1.4S64.4,289.5,64.4,290.4z"/>
		<path fill="#272661" d="M87.5,295.9h-5.9v-0.8c0.2-0.1,0.4-0.2,0.6-0.3c0.2-0.1,0.4-0.2,0.7-0.3v-5.3c0-0.9-0.1-1.7-0.4-2.2
			s-0.7-0.8-1.4-0.8c-0.6,0-1.1,0.2-1.5,0.5c-0.4,0.4-0.7,0.9-0.9,1.5v6.2c0.2,0.1,0.4,0.1,0.6,0.2s0.4,0.2,0.6,0.3v0.8H74v-0.8
			c0.4-0.2,0.9-0.4,1.5-0.5v-8.2L74,286v-0.8c0.2-0.1,0.4-0.2,0.8-0.3c0.4-0.1,0.6-0.2,1-0.2c0.4-0.1,0.7-0.1,1.1-0.2
			c0.4-0.1,0.7-0.1,1-0.1h0.8v2.3l0,0c0.3-0.6,0.8-1.2,1.4-1.6c0.6-0.5,1.4-0.7,2.3-0.7c0.6,0,1.1,0.1,1.6,0.2s0.9,0.4,1.2,0.7
			c0.3,0.4,0.6,0.8,0.7,1.4c0.1,0.6,0.3,1.4,0.3,2.3v5.3c0.6,0.1,1.1,0.3,1.5,0.5v1.1H87.5z"/>
		<path fill="#272661" d="M101,279.2c0.6,0,1.2,0.1,1.6,0.2c0.5,0.1,0.9,0.2,1.1,0.3c0,0.5-0.1,1-0.3,1.5c-0.1,0.5-0.3,1-0.4,1.3
			h-0.8l-1-2.1c-0.4,0-0.7,0-1,0.1s-0.5,0.2-0.6,0.5s-0.3,0.6-0.3,1c-0.1,0.4-0.1,1-0.1,1.7v1.1h2.4v1.4h-2.4v8.3
			c0.8,0.1,1.5,0.3,2.1,0.5v0.8h-6.8V295c0.5-0.3,1-0.4,1.5-0.5v-8.3h-1.7v-0.9c0.5-0.3,1.1-0.6,1.7-0.8v-0.8c0-0.9,0.1-1.7,0.4-2.3
			c0.3-0.6,0.6-1.1,1.1-1.4c0.4-0.3,1-0.6,1.6-0.7C99.7,279.3,100.3,279.2,101,279.2z"/>
		<path fill="#272661" d="M102.5,290.4c0-0.9,0.1-1.7,0.4-2.4c0.3-0.7,0.7-1.3,1.2-1.8s1.1-0.9,1.9-1.2c0.7-0.3,1.6-0.4,2.5-0.4
			c1,0,1.9,0.1,2.7,0.4s1.4,0.7,1.8,1.2c0.5,0.5,0.8,1.1,1.1,1.9c0.2,0.7,0.3,1.5,0.3,2.4s-0.1,1.7-0.4,2.4
			c-0.3,0.7-0.7,1.3-1.2,1.8s-1.1,0.9-1.9,1.2c-0.7,0.3-1.6,0.4-2.5,0.4c-1,0-1.9-0.1-2.6-0.4s-1.4-0.7-1.9-1.2s-0.9-1.1-1.1-1.9
			S102.5,291.2,102.5,290.4z M105.9,290.4c0,0.7,0,1.3,0.1,1.8c0.1,0.6,0.2,1,0.4,1.4s0.5,0.7,0.8,0.9c0.4,0.2,0.8,0.3,1.4,0.3
			c0.3,0,0.6-0.1,0.9-0.2c0.3-0.2,0.5-0.4,0.7-0.8c0.2-0.3,0.3-0.8,0.4-1.4c0.1-0.6,0.1-1.3,0.1-2.1c0-0.7,0-1.3-0.1-1.9
			c-0.1-0.5-0.2-1-0.4-1.4s-0.5-0.7-0.8-0.9c-0.3-0.2-0.8-0.3-1.3-0.3c-0.4,0-0.7,0.1-1,0.2s-0.5,0.4-0.7,0.8
			c-0.2,0.3-0.3,0.8-0.4,1.4C106,288.8,105.9,289.5,105.9,290.4z"/>
		<path fill="#272661" d="M115.7,290.4c0-0.9,0.1-1.7,0.4-2.4c0.3-0.7,0.7-1.3,1.2-1.8s1.1-0.9,1.9-1.2c0.7-0.3,1.6-0.4,2.5-0.4
			c1,0,1.9,0.1,2.7,0.4s1.4,0.7,1.8,1.2c0.5,0.5,0.8,1.1,1.1,1.9c0.2,0.7,0.3,1.5,0.3,2.4s-0.1,1.7-0.4,2.4
			c-0.3,0.7-0.7,1.3-1.2,1.8s-1.1,0.9-1.9,1.2c-0.7,0.3-1.6,0.4-2.5,0.4c-1,0-1.9-0.1-2.6-0.4c-0.7-0.3-1.4-0.7-1.9-1.2
			s-0.9-1.1-1.1-1.9S115.7,291.2,115.7,290.4z M119.2,290.4c0,0.7,0,1.3,0.1,1.8c0.1,0.6,0.2,1,0.4,1.4s0.5,0.7,0.8,0.9
			c0.4,0.2,0.8,0.3,1.4,0.3c0.3,0,0.6-0.1,0.9-0.2c0.3-0.2,0.5-0.4,0.7-0.8c0.2-0.3,0.3-0.8,0.4-1.4c0.1-0.6,0.1-1.3,0.1-2.1
			c0-0.7,0-1.3-0.1-1.9c-0.1-0.5-0.2-1-0.4-1.4s-0.5-0.7-0.8-0.9s-0.8-0.3-1.3-0.3c-0.4,0-0.7,0.1-1,0.2s-0.5,0.4-0.7,0.8
			c-0.2,0.3-0.3,0.8-0.4,1.4S119.2,289.5,119.2,290.4z"/>
		<path fill="#272661" d="M128.3,285.4c0.6-0.4,1.2-0.6,1.8-0.8v-1.8c0.1-0.1,0.2-0.2,0.5-0.3c0.2-0.1,0.4-0.2,0.7-0.2
			s0.5-0.1,0.7-0.2s0.4-0.1,0.6-0.1h0.8v2.8h2.9v1.4h-2.9v5.7c0,0.9,0.1,1.6,0.3,1.9s0.6,0.5,1.1,0.5c0.3,0,0.6,0,0.9-0.1
			c0.3,0,0.6-0.1,0.9-0.2l0.2,0.7c-0.1,0.1-0.3,0.3-0.6,0.4s-0.6,0.3-0.9,0.4s-0.7,0.2-1.1,0.3c-0.4,0.1-0.8,0.1-1.2,0.1
			c-1,0-1.7-0.3-2.2-0.8s-0.7-1.3-0.7-2.4v-6.8h-1.8V285.4z"/>
		<path fill="#272661" d="M143.6,300.4h-6.2v-0.8c0.5-0.2,1-0.4,1.5-0.5v-12.7l-1.5-0.2v-0.8c0.2-0.1,0.5-0.2,0.9-0.3
			c0.3-0.1,0.7-0.2,1.1-0.2c0.4-0.1,0.7-0.1,1.1-0.2c0.3,0,0.6-0.1,0.9-0.1h0.8v2.5l0,0c0.3-0.7,0.7-1.3,1.2-1.8s1.3-0.7,2.3-0.7
			c0.7,0,1.2,0.1,1.8,0.3c0.5,0.2,1,0.5,1.3,1c0.4,0.5,0.6,1,0.8,1.7s0.3,1.5,0.3,2.5c0,0.9-0.1,1.8-0.4,2.5
			c-0.3,0.8-0.6,1.4-1.1,1.9s-1.1,0.9-1.8,1.2c-0.7,0.3-1.5,0.4-2.4,0.4c-0.5,0-0.9,0-1.2-0.1s-0.6-0.2-0.9-0.3v3.3
			c0.2,0,0.5,0.1,0.7,0.2s0.5,0.2,0.8,0.4L143.6,300.4L143.6,300.4z M144.4,286.3c-0.5,0-1,0.2-1.3,0.5c-0.4,0.4-0.7,0.9-0.8,1.6
			v5.9c0.2,0.2,0.5,0.3,0.8,0.4s0.6,0.1,1,0.1c0.8,0,1.5-0.4,1.9-1.2c0.4-0.8,0.6-2,0.6-3.6c0-1.2-0.2-2.2-0.5-2.8
			C145.7,286.7,145.1,286.3,144.4,286.3z"/>
		<path fill="#272661" d="M157.1,287.4c-0.2,0.1-0.4,0.2-0.6,0.4c-0.2,0.2-0.5,0.6-0.6,1v5.7c0.3,0,0.6,0.1,0.9,0.2s0.6,0.2,0.9,0.4
			v0.8h-6.5v-0.8c0.3-0.1,0.5-0.3,0.8-0.3c0.2-0.1,0.5-0.1,0.7-0.2v-8.2l-1.5-0.2v-0.8c0.2-0.1,0.5-0.2,0.9-0.3
			c0.3-0.1,0.7-0.2,1.1-0.2c0.4-0.1,0.7-0.1,1.1-0.2c0.3,0,0.6-0.1,0.9-0.1h0.8v3h0.1c0.1-0.3,0.3-0.7,0.5-1c0.2-0.4,0.5-0.7,0.8-1
			s0.7-0.5,1-0.7c0.4-0.2,0.8-0.3,1.2-0.2c0.2,0.2,0.3,0.5,0.4,0.9s0.2,0.7,0.3,1.1v0.9h-3.2L157.1,287.4L157.1,287.4z"/>
		<path fill="#272661" d="M167,295.9h-6.2v-0.8c0.2-0.1,0.5-0.2,0.7-0.3c0.2-0.1,0.5-0.2,0.8-0.2v-8.2l-1.5-0.2v-0.8
			c0.2-0.1,0.5-0.2,0.8-0.3c0.3-0.1,0.7-0.2,1.1-0.2c0.4-0.1,0.7-0.1,1.1-0.2c0.4-0.1,0.7-0.1,0.9-0.1h0.8v10
			c0.3,0.1,0.6,0.2,0.8,0.2s0.5,0.2,0.7,0.3L167,295.9L167,295.9z M162,281.1c0-0.5,0.2-0.9,0.5-1.2c0.4-0.3,0.8-0.4,1.4-0.4
			c0.6,0,1,0.1,1.4,0.4s0.5,0.7,0.5,1.2s-0.2,0.9-0.5,1.2s-0.8,0.4-1.4,0.4c-0.6,0-1-0.1-1.4-0.4S162,281.7,162,281.1z"/>
		<path fill="#272661" d="M181.7,295.9h-5.9v-0.8c0.2-0.1,0.4-0.2,0.6-0.3c0.2-0.1,0.4-0.2,0.7-0.3v-5.3c0-0.9-0.1-1.7-0.4-2.2
			s-0.7-0.8-1.4-0.8c-0.6,0-1.1,0.2-1.5,0.5c-0.4,0.4-0.7,0.9-0.9,1.5v6.2c0.2,0.1,0.4,0.1,0.6,0.2c0.2,0.1,0.4,0.2,0.6,0.3v0.8
			h-5.9v-0.8c0.4-0.2,0.9-0.4,1.5-0.5v-8.2l-1.5-0.2v-0.8c0.2-0.1,0.4-0.2,0.8-0.3c0.4-0.1,0.6-0.2,1-0.2c0.4-0.1,0.7-0.1,1.1-0.2
			c0.4-0.1,0.7-0.1,1-0.1h0.8v2.3l0,0c0.3-0.6,0.8-1.2,1.4-1.6c0.6-0.5,1.4-0.7,2.3-0.7c0.6,0,1.1,0.1,1.6,0.2s0.9,0.4,1.2,0.7
			c0.3,0.4,0.6,0.8,0.7,1.4c0.1,0.6,0.3,1.4,0.3,2.3v5.3c0.6,0.1,1.1,0.3,1.5,0.5v1.1H181.7z"/>
		<path fill="#272661" d="M182.1,285.4c0.6-0.4,1.2-0.6,1.8-0.8v-1.8c0.1-0.1,0.2-0.2,0.5-0.3c0.2-0.1,0.4-0.2,0.7-0.2
			s0.5-0.1,0.7-0.2s0.4-0.1,0.6-0.1h0.8v2.8h2.9v1.4h-2.9v5.7c0,0.9,0.1,1.6,0.3,1.9s0.6,0.5,1.1,0.5c0.3,0,0.6,0,0.9-0.1
			c0.3,0,0.6-0.1,0.9-0.2l0.2,0.7c-0.1,0.1-0.3,0.3-0.6,0.4s-0.6,0.3-0.9,0.4c-0.3,0.1-0.7,0.2-1.1,0.3c-0.4,0.1-0.8,0.1-1.2,0.1
			c-1,0-1.7-0.3-2.2-0.8s-0.7-1.3-0.7-2.4v-6.8h-1.8V285.4z"/>
		<path fill="#272661" d="M197.6,290.4c0-0.9,0.1-1.7,0.4-2.4c0.3-0.7,0.7-1.3,1.2-1.8s1.1-0.9,1.9-1.2c0.7-0.3,1.6-0.4,2.5-0.4
			c1,0,1.9,0.1,2.7,0.4s1.4,0.7,1.8,1.2c0.5,0.5,0.8,1.1,1.1,1.9c0.2,0.7,0.3,1.5,0.3,2.4s-0.1,1.7-0.4,2.4
			c-0.3,0.7-0.7,1.3-1.2,1.8s-1.1,0.9-1.9,1.2c-0.7,0.3-1.6,0.4-2.5,0.4c-1,0-1.9-0.1-2.6-0.4s-1.4-0.7-1.9-1.2s-0.9-1.1-1.1-1.9
			S197.6,291.2,197.6,290.4z M201,290.4c0,0.7,0,1.3,0.1,1.8c0.1,0.6,0.2,1,0.4,1.4s0.5,0.7,0.8,0.9c0.4,0.2,0.8,0.3,1.4,0.3
			c0.3,0,0.6-0.1,0.9-0.2c0.3-0.2,0.5-0.4,0.7-0.8c0.2-0.3,0.3-0.8,0.4-1.4c0.1-0.6,0.1-1.3,0.1-2.1c0-0.7,0-1.3-0.1-1.9
			c-0.1-0.5-0.2-1-0.4-1.4s-0.5-0.7-0.8-0.9c-0.3-0.2-0.8-0.3-1.3-0.3c-0.4,0-0.7,0.1-1,0.2s-0.5,0.4-0.7,0.8
			c-0.2,0.3-0.3,0.8-0.4,1.4C201.1,288.8,201,289.5,201,290.4z"/>
		<path fill="#272661" d="M217.3,279.2c0.6,0,1.2,0.1,1.6,0.2c0.5,0.1,0.9,0.2,1.1,0.3c0,0.5-0.1,1-0.3,1.5c-0.1,0.5-0.3,1-0.4,1.3
			h-0.8l-1-2.1c-0.4,0-0.7,0-1,0.1s-0.5,0.2-0.6,0.5s-0.3,0.6-0.3,1c-0.1,0.4-0.1,1-0.1,1.7v1.1h2.4v1.4h-2.4v8.3
			c0.8,0.1,1.5,0.3,2.1,0.5v0.8h-6.8V295c0.5-0.3,1-0.4,1.5-0.5v-8.3h-1.7v-0.9c0.5-0.3,1.1-0.6,1.7-0.8v-0.8c0-0.9,0.1-1.7,0.4-2.3
			c0.3-0.6,0.6-1.1,1.1-1.4c0.4-0.3,1-0.6,1.6-0.7C215.9,279.3,216.6,279.2,217.3,279.2z"/>
		<path fill="#272661" d="M236.4,291.2c0,0.8-0.1,1.5-0.4,2.1s-0.7,1.2-1.2,1.6s-1.1,0.8-1.7,1c-0.7,0.2-1.4,0.4-2.1,0.4
			c-0.9,0-1.7-0.1-2.4-0.4s-1.3-0.7-1.8-1.2s-0.8-1.1-1.1-1.9s-0.4-1.5-0.4-2.3c0-1.4,0.2-2.7,0.7-3.8c0.5-1.2,1.2-2.2,2-3.1
			s1.8-1.6,2.9-2.2c1.1-0.6,2.3-1,3.5-1.3l0.3,1c-0.8,0.3-1.5,0.6-2.2,1s-1.3,1-1.8,1.6s-1,1.3-1.3,2.1c-0.3,0.8-0.5,1.6-0.6,2.6
			c0.1-0.2,0.3-0.4,0.5-0.6s0.4-0.4,0.7-0.5c0.3-0.2,0.6-0.3,0.9-0.4s0.7-0.1,1.2-0.1c0.6,0,1.2,0.1,1.7,0.3c0.5,0.2,1,0.5,1.4,0.9
			s0.7,0.9,0.9,1.4C236.2,289.7,236.4,290.4,236.4,291.2z M233,291.4c0-2.2-0.7-3.3-2.2-3.3c-0.5,0-0.9,0.1-1.3,0.4
			s-0.6,0.6-0.8,0.9c0,0.2-0.1,0.4-0.1,0.7s0,0.5,0,0.8c0,0.5,0,1,0.1,1.5s0.2,0.9,0.4,1.2c0.2,0.4,0.4,0.7,0.7,0.9
			c0.3,0.2,0.7,0.3,1.1,0.3c0.4,0,0.7-0.1,0.9-0.3c0.3-0.2,0.5-0.4,0.6-0.7c0.2-0.3,0.3-0.7,0.3-1.1S233,291.9,233,291.4z"/>
		<path fill="#272661" d="M240.1,285.3h-0.8c-0.1-0.2-0.2-0.5-0.3-0.8s-0.2-0.6-0.3-0.9s-0.2-0.6-0.3-1c-0.1-0.3-0.2-0.6-0.2-0.9
			c0.5-0.4,1.2-0.8,2-1.2c0.8-0.3,1.8-0.5,3-0.5c0.8,0,1.5,0.1,2.1,0.3c0.6,0.2,1.1,0.5,1.5,0.9s0.7,0.8,0.9,1.3s0.3,1,0.3,1.6
			c0,0.9-0.2,1.8-0.6,2.6c-0.4,0.8-0.9,1.6-1.5,2.3c-0.6,0.7-1.3,1.4-2,2s-1.3,1.1-1.9,1.6l-1.2,0.8v0.1l1.4-0.1h3.8l1.1-2.5h0.8
			c0,0.4,0.1,0.8,0.1,1.2c0.1,0.5,0.1,1,0.1,1.4s0.1,0.9,0.1,1.4c0,0.4,0,0.8,0,1.1H238v-1.4c0.4-0.3,0.8-0.7,1.3-1.2s1-1,1.5-1.5
			s1-1.1,1.5-1.7s0.9-1.2,1.3-1.9c0.4-0.6,0.7-1.3,0.9-1.9c0.2-0.7,0.3-1.3,0.3-1.9c0-0.8-0.2-1.5-0.7-2c-0.4-0.5-1.1-0.8-1.9-0.8
			c-0.3,0-0.5,0-0.7,0s-0.4,0.1-0.7,0.2L240.1,285.3z"/>
		<path fill="#272661" d="M260,295.9h-7.7v-1c0.4-0.2,0.7-0.3,1.1-0.4c0.4-0.1,0.8-0.2,1.1-0.3V284l0.1-1.3
			c-0.4,0.1-0.8,0.2-1.3,0.3c-0.4,0-0.9,0.1-1.4,0l-0.1-0.8c0.8-0.2,1.6-0.5,2.6-0.8s1.8-0.8,2.6-1.2h0.8v14.2
			c0.4,0.1,0.7,0.2,1.1,0.3c0.4,0.1,0.7,0.3,1.1,0.4L260,295.9L260,295.9z"/>
		<path fill="#272661" d="M273.6,295.9h-6.9v-1c0.7-0.3,1.4-0.4,2.1-0.5v-2.5h-6.6v-1l8.5-10.9h1.2v10.4h2.7v1.4h-2.7v2.5
			c0.6,0.1,1.1,0.3,1.7,0.5V295.9L273.6,295.9z M268.8,285.7l0.2-1.6h-0.1l-0.8,1.6l-3.2,4.2l-0.9,0.7l1.6-0.2h3.2V285.7
			L268.8,285.7z"/>
		<path fill="#272661" d="M287.6,295.9h-6.2v-0.8c0.5-0.2,1-0.4,1.5-0.5V281l-1.7-0.2V280c0.2-0.1,0.5-0.2,0.8-0.3
			c0.3-0.1,0.7-0.2,1.1-0.2c0.4-0.1,0.8-0.1,1.2-0.2s0.7-0.1,1.1-0.1h0.8v15.4c0.5,0.1,1,0.3,1.5,0.5L287.6,295.9L287.6,295.9z"/>
		<path fill="#272661" d="M289.7,281l-1.7-0.2V280c0.2-0.1,0.5-0.2,0.9-0.3c0.4-0.1,0.7-0.2,1.1-0.2s0.8-0.1,1.2-0.2s0.7-0.1,1-0.1
			h0.8v7.7l0,0c0.3-0.7,0.8-1.3,1.4-1.7c0.6-0.4,1.3-0.6,2.2-0.6c1.3,0,2.3,0.5,3.1,1.4c0.7,0.9,1.1,2.3,1.1,4.1
			c0,2-0.5,3.6-1.6,4.6s-2.7,1.5-4.7,1.5c-0.4,0-0.8,0-1.2-0.1c-0.5-0.1-0.9-0.1-1.3-0.2s-0.8-0.2-1.2-0.3s-0.6-0.2-0.8-0.3V281
			H289.7z M295,286.3c-0.6,0-1,0.2-1.4,0.6c-0.3,0.4-0.6,0.9-0.8,1.5v5.9c0.2,0.1,0.5,0.3,0.8,0.4s0.7,0.1,1,0.1
			c0.8,0,1.5-0.4,1.9-1.1s0.6-1.9,0.6-3.6c0-1.2-0.2-2.1-0.5-2.8C296.4,286.7,295.8,286.3,295,286.3z"/>
		<path fill="#272661" d="M307.7,293.5c0-0.4-0.1-0.7-0.4-1c-0.3-0.3-0.6-0.5-1-0.8c-0.4-0.2-0.9-0.5-1.3-0.7
			c-0.5-0.2-0.9-0.5-1.3-0.8c-0.4-0.3-0.8-0.7-1-1.1c-0.3-0.4-0.4-1-0.4-1.6c0-0.4,0.1-0.9,0.3-1.2c0.2-0.4,0.5-0.7,0.8-0.9
			c0.4-0.3,0.8-0.4,1.3-0.6s1-0.2,1.6-0.2c0.8,0,1.5,0.1,2.2,0.2s1.3,0.3,1.8,0.5c-0.1,0.5-0.2,1-0.4,1.5s-0.3,1-0.5,1.5h-0.8
			l-0.9-2.3c-0.2-0.1-0.4-0.1-0.6-0.1s-0.4,0-0.6,0c-0.4,0-0.8,0.1-1,0.4s-0.3,0.6-0.3,0.9c0,0.4,0.1,0.7,0.4,1s0.6,0.5,1,0.8
			c0.4,0.2,0.9,0.5,1.3,0.7c0.5,0.2,0.9,0.5,1.3,0.8s0.8,0.7,1,1.1c0.3,0.4,0.4,0.9,0.4,1.5c0,1-0.4,1.8-1.2,2.4s-1.9,0.9-3.3,0.9
			c-0.7,0-1.4-0.1-2.2-0.2s-1.4-0.4-2-0.6c0-0.5,0.2-1.1,0.4-1.6s0.5-1,0.7-1.5h0.8l1.1,2.4c0.2,0.1,0.3,0.2,0.5,0.2s0.4,0,0.6,0
			c0.4,0,0.8-0.1,1.2-0.4C307.5,294.3,307.7,294,307.7,293.5z"/>
		<path fill="#272661" d="M318.1,290.4c0-0.9,0.1-1.7,0.4-2.4c0.3-0.7,0.7-1.3,1.2-1.8s1.1-0.9,1.9-1.2c0.7-0.3,1.6-0.4,2.5-0.4
			c1,0,1.9,0.1,2.7,0.4s1.4,0.7,1.8,1.2c0.5,0.5,0.8,1.1,1.1,1.9c0.2,0.7,0.3,1.5,0.3,2.4s-0.1,1.7-0.4,2.4
			c-0.3,0.7-0.7,1.3-1.2,1.8s-1.1,0.9-1.9,1.2c-0.7,0.3-1.6,0.4-2.5,0.4c-1,0-1.9-0.1-2.6-0.4c-0.7-0.3-1.4-0.7-1.9-1.2
			s-0.9-1.1-1.1-1.9S318.1,291.2,318.1,290.4z M321.5,290.4c0,0.7,0,1.3,0.1,1.8c0.1,0.6,0.2,1,0.4,1.4s0.5,0.7,0.8,0.9
			c0.4,0.2,0.8,0.3,1.4,0.3c0.3,0,0.6-0.1,0.9-0.2c0.3-0.2,0.5-0.4,0.7-0.8c0.2-0.3,0.3-0.8,0.4-1.4c0.1-0.6,0.1-1.3,0.1-2.1
			c0-0.7,0-1.3-0.1-1.9c-0.1-0.5-0.2-1-0.4-1.4s-0.5-0.7-0.8-0.9s-0.8-0.3-1.3-0.3c-0.4,0-0.7,0.1-1,0.2s-0.5,0.4-0.7,0.8
			c-0.2,0.3-0.3,0.8-0.4,1.4C321.6,288.8,321.5,289.5,321.5,290.4z"/>
		<path fill="#272661" d="M337.8,279.2c0.6,0,1.2,0.1,1.6,0.2c0.5,0.1,0.9,0.2,1.1,0.3c0,0.5-0.1,1-0.3,1.5c-0.1,0.5-0.3,1-0.4,1.3
			H339l-1-2.1c-0.4,0-0.7,0-1,0.1s-0.5,0.2-0.6,0.5s-0.3,0.6-0.3,1c-0.1,0.4-0.1,1-0.1,1.7v1.1h2.4v1.4H336v8.3
			c0.8,0.1,1.5,0.3,2.1,0.5v0.8h-6.8V295c0.5-0.3,1-0.4,1.5-0.5v-8.3h-1.7v-0.9c0.5-0.3,1.1-0.6,1.7-0.8v-0.8c0-0.9,0.1-1.7,0.4-2.3
			c0.3-0.6,0.6-1.1,1.1-1.4c0.4-0.3,1-0.6,1.6-0.7C336.5,279.3,337.1,279.2,337.8,279.2z"/>
		<path fill="#272661" d="M357,291.3h0.9c0.1,0.2,0.1,0.5,0.2,0.9c0.1,0.3,0.1,0.7,0.1,1.1s0.1,0.8,0.1,1.1c0,0.4,0,0.7,0,1
			c-0.5,0.3-1.2,0.6-2,0.7s-1.6,0.2-2.4,0.2c-1.2,0-2.4-0.2-3.4-0.5s-1.9-0.8-2.6-1.4s-1.3-1.5-1.6-2.5c-0.4-1-0.6-2.2-0.6-3.7
			c0-1.4,0.2-2.6,0.6-3.6c0.4-1,1-1.9,1.7-2.5c0.7-0.7,1.5-1.1,2.5-1.4c0.9-0.3,1.9-0.5,3-0.5c1,0,1.9,0.1,2.7,0.2s1.4,0.3,2,0.6
			c0,0.2,0,0.5,0,0.9s-0.1,0.8-0.1,1.2c-0.1,0.4-0.1,0.8-0.2,1.2c-0.1,0.4-0.1,0.7-0.2,1h-0.9l-1.2-3.4c-0.1-0.1-0.3-0.1-0.6-0.2
			c-0.3,0-0.6-0.1-0.9-0.1c-0.6,0-1.2,0.1-1.7,0.4s-1,0.6-1.4,1.2c-0.4,0.5-0.7,1.2-1,2.1c-0.2,0.8-0.4,1.8-0.4,3
			c0,2.1,0.4,3.8,1.3,4.9c0.9,1.1,2,1.7,3.5,1.7c0.4,0,0.8,0,1.1-0.1s0.5-0.2,0.6-0.3L357,291.3z"/>
		<path fill="#272661" d="M360,288.1c0-1.3,0.1-2.5,0.4-3.5c0.3-1,0.7-1.8,1.2-2.5s1.1-1.2,1.8-1.5s1.5-0.5,2.3-0.5
			c1.8,0,3.2,0.7,4.2,2s1.6,3.4,1.6,6.1c0,1.3-0.1,2.5-0.4,3.5s-0.7,1.8-1.2,2.5s-1.2,1.2-1.9,1.5s-1.5,0.5-2.4,0.5
			s-1.7-0.2-2.4-0.5c-0.7-0.4-1.3-0.9-1.8-1.6s-0.8-1.5-1.1-2.5C360.1,290.6,360,289.4,360,288.1z M363.3,288.1c0,1.1,0,2,0.1,2.9
			c0.1,0.8,0.2,1.6,0.4,2.1c0.2,0.6,0.4,1,0.7,1.3s0.7,0.5,1.1,0.5c0.5,0,0.9-0.1,1.3-0.4c0.4-0.3,0.6-0.6,0.8-1.2
			c0.2-0.5,0.3-1.2,0.4-2.1s0.1-1.9,0.1-3.1c0-1.1,0-2-0.1-2.9c-0.1-0.8-0.2-1.6-0.3-2.1s-0.4-1-0.7-1.3s-0.7-0.5-1.3-0.5
			c-0.5,0-0.9,0.1-1.2,0.4s-0.6,0.6-0.7,1.2c-0.2,0.5-0.3,1.3-0.4,2.1C363.4,285.9,363.3,286.9,363.3,288.1z"/>
		<path fill="#272661" d="M375.2,285.3h-0.8c-0.1-0.2-0.2-0.5-0.3-0.8s-0.2-0.6-0.3-0.9c-0.1-0.3-0.2-0.6-0.3-1
			c-0.1-0.3-0.2-0.6-0.2-0.9c0.5-0.4,1.2-0.8,2-1.2c0.8-0.3,1.8-0.5,3-0.5c0.8,0,1.5,0.1,2.1,0.3c0.6,0.2,1.1,0.5,1.5,0.9
			s0.7,0.8,0.9,1.3c0.2,0.5,0.3,1,0.3,1.6c0,0.9-0.2,1.8-0.6,2.6c-0.4,0.8-0.9,1.6-1.5,2.3c-0.6,0.7-1.3,1.4-2,2s-1.3,1.1-1.9,1.6
			l-1.2,0.8v0.1l1.4-0.1h3.8l1.1-2.5h0.8c0,0.4,0.1,0.8,0.1,1.2c0.1,0.5,0.1,1,0.1,1.4s0.1,0.9,0.1,1.4c0,0.4,0,0.8,0,1.1H373v-1.4
			c0.4-0.3,0.8-0.7,1.3-1.2s1-1,1.5-1.5s1-1.1,1.5-1.7s0.9-1.2,1.3-1.9c0.4-0.6,0.7-1.3,0.9-1.9c0.2-0.7,0.3-1.3,0.3-1.9
			c0-0.8-0.2-1.5-0.7-2c-0.4-0.5-1.1-0.8-1.9-0.8c-0.3,0-0.5,0-0.7,0s-0.4,0.1-0.7,0.2L375.2,285.3z"/>
		<path fill="#272661" d="M397.3,300.4h-6.2v-0.8c0.5-0.2,1-0.4,1.5-0.5v-12.7l-1.5-0.2v-0.8c0.2-0.1,0.5-0.2,0.9-0.3
			c0.3-0.1,0.7-0.2,1.1-0.2c0.4-0.1,0.7-0.1,1.1-0.2c0.3,0,0.6-0.1,0.9-0.1h0.8v2.5l0,0c0.3-0.7,0.7-1.3,1.2-1.8s1.3-0.7,2.3-0.7
			c0.7,0,1.2,0.1,1.8,0.3c0.5,0.2,1,0.5,1.3,1c0.4,0.5,0.6,1,0.8,1.7c0.2,0.7,0.3,1.5,0.3,2.5c0,0.9-0.1,1.8-0.4,2.5
			c-0.3,0.8-0.6,1.4-1.1,1.9s-1.1,0.9-1.8,1.2c-0.7,0.3-1.5,0.4-2.4,0.4c-0.5,0-0.9,0-1.2-0.1c-0.3-0.1-0.6-0.2-0.9-0.3v3.3
			c0.2,0,0.5,0.1,0.7,0.2s0.5,0.2,0.8,0.4L397.3,300.4L397.3,300.4z M398,286.3c-0.5,0-1,0.2-1.3,0.5c-0.4,0.4-0.7,0.9-0.8,1.6v5.9
			c0.2,0.2,0.5,0.3,0.8,0.4s0.6,0.1,1,0.1c0.8,0,1.5-0.4,1.9-1.2c0.4-0.8,0.6-2,0.6-3.6c0-1.2-0.2-2.2-0.5-2.8
			C399.3,286.7,398.8,286.3,398,286.3z"/>
		<path fill="#272661" d="M415.1,294.1c-0.1,0.3-0.3,0.5-0.6,0.8c-0.3,0.3-0.6,0.5-1,0.7s-0.8,0.4-1.3,0.5s-1,0.2-1.6,0.2
			c-0.9,0-1.7-0.1-2.5-0.4c-0.7-0.3-1.3-0.7-1.8-1.2s-0.8-1.1-1.1-1.8s-0.4-1.5-0.4-2.4c0-1.9,0.5-3.4,1.5-4.3c1-1,2.4-1.5,4.1-1.5
			c0.8,0,1.5,0.1,2.1,0.3c0.7,0.2,1.2,0.5,1.6,1s0.7,1.1,0.9,1.9s0.2,1.7,0,2.8h-6.8c0,1.2,0.3,2.1,0.9,2.8c0.6,0.7,1.5,1,2.6,1
			c0.5,0,1-0.1,1.5-0.2s0.9-0.3,1.2-0.6L415.1,294.1z M410.5,285.8c-0.3,0-0.6,0.1-0.8,0.2c-0.2,0.1-0.4,0.3-0.6,0.6
			s-0.3,0.6-0.4,1.1s-0.2,1.1-0.2,1.8h3.6c0.1-1.2,0-2.1-0.2-2.7C411.6,286.1,411.1,285.8,410.5,285.8z"/>
		<path fill="#272661" d="M422.7,287.4c-0.2,0.1-0.4,0.2-0.6,0.4c-0.2,0.2-0.5,0.6-0.6,1v5.7c0.3,0,0.6,0.1,0.9,0.2s0.6,0.2,0.9,0.4
			v0.8h-6.5v-0.8c0.3-0.1,0.5-0.3,0.8-0.3c0.2-0.1,0.5-0.1,0.7-0.2v-8.2l-1.5-0.2v-0.8c0.2-0.1,0.5-0.2,0.9-0.3
			c0.3-0.1,0.7-0.2,1.1-0.2c0.4-0.1,0.7-0.1,1.1-0.2c0.3,0,0.6-0.1,0.9-0.1h0.8v3h0.1c0.1-0.3,0.3-0.7,0.5-1c0.2-0.4,0.5-0.7,0.8-1
			s0.7-0.5,1-0.7c0.4-0.2,0.8-0.3,1.2-0.2c0.2,0.2,0.3,0.5,0.4,0.9s0.2,0.7,0.3,1.1v0.9h-3.2L422.7,287.4L422.7,287.4z"/>
		<path fill="#272661" d="M432.7,286.2c-0.2-0.1-0.4-0.1-0.6-0.2s-0.4-0.2-0.6-0.3v-0.8h5.9v0.8c-0.3,0.2-0.7,0.4-1.3,0.6l2.3,5.6
			l0.4,1.4l0,0l0.4-1.5l1.7-5.6c-0.4-0.1-0.9-0.3-1.2-0.5v-0.8h4.3v0.8c-0.3,0.2-0.7,0.4-1.3,0.5l-3.6,9.8c-0.4,1-0.7,1.7-1.1,2.3
			c-0.4,0.6-0.7,1.1-1.1,1.4c-0.4,0.4-0.7,0.6-1.1,0.7s-0.7,0.2-1.1,0.3c-0.1-0.1-0.3-0.3-0.4-0.5s-0.2-0.4-0.3-0.6
			c-0.1-0.2-0.2-0.5-0.2-0.7c-0.1-0.2-0.1-0.5-0.1-0.7l0.3-0.5h2.7c0.1-0.2,0.2-0.4,0.3-0.7s0.2-0.6,0.3-1.1L432.7,286.2z"/>
		<path fill="#272661" d="M454.1,294.1c-0.1,0.3-0.3,0.5-0.6,0.8c-0.3,0.3-0.6,0.5-1,0.7s-0.8,0.4-1.3,0.5s-1,0.2-1.6,0.2
			c-0.9,0-1.7-0.1-2.5-0.4c-0.7-0.3-1.3-0.7-1.8-1.2s-0.8-1.1-1.1-1.8s-0.4-1.5-0.4-2.4c0-1.9,0.5-3.4,1.5-4.3c1-1,2.4-1.5,4.1-1.5
			c0.8,0,1.5,0.1,2.1,0.3c0.7,0.2,1.2,0.5,1.6,1s0.7,1.1,0.9,1.9s0.2,1.7,0,2.8h-6.8c0,1.2,0.3,2.1,0.9,2.8c0.6,0.7,1.5,1,2.6,1
			c0.5,0,1-0.1,1.5-0.2s0.9-0.3,1.2-0.6L454.1,294.1z M449.5,285.8c-0.3,0-0.6,0.1-0.8,0.2c-0.2,0.1-0.4,0.3-0.6,0.6
			s-0.3,0.6-0.4,1.1s-0.2,1.1-0.2,1.8h3.6c0.1-1.2,0-2.1-0.2-2.7C450.6,286.1,450.2,285.8,449.5,285.8z"/>
		<path fill="#272661" d="M465.7,292.7c0,0.3,0,0.6,0,0.8c0,0.2,0,0.5,0.1,0.8l1.5,0.2v0.8c-0.2,0.1-0.4,0.2-0.7,0.3
			c-0.3,0.1-0.6,0.2-1,0.3c-0.3,0.1-0.7,0.1-1,0.2s-0.6,0.1-0.9,0.1H463c-0.1-0.3-0.2-0.7-0.3-1c0-0.3-0.1-0.8-0.1-1.2h-0.1
			c-0.1,0.3-0.2,0.6-0.4,0.9c-0.2,0.3-0.4,0.5-0.7,0.7c-0.3,0.2-0.6,0.4-1,0.5s-0.8,0.2-1.2,0.2c-0.5,0-0.9-0.1-1.4-0.2
			s-0.8-0.4-1.1-0.6c-0.3-0.3-0.6-0.6-0.7-1c-0.2-0.4-0.3-0.8-0.3-1.3c0-0.7,0.1-1.2,0.4-1.6s0.7-0.8,1.2-1.1
			c0.5-0.3,1.2-0.5,2.1-0.6s1.9-0.2,3.1-0.3c0.1-1.3,0.1-2.2-0.2-2.8c-0.2-0.6-0.7-0.9-1.4-0.9c-0.5,0-0.9,0.1-1.3,0.2l-1,2.7h-1
			c-0.1-0.2-0.2-0.4-0.3-0.6c-0.1-0.2-0.2-0.5-0.3-0.7s-0.2-0.5-0.2-0.8c-0.1-0.3-0.1-0.5-0.1-0.8c0.6-0.4,1.3-0.7,2.2-0.9
			c0.9-0.2,1.8-0.3,2.8-0.3c0.8,0,1.5,0.1,2.1,0.3c0.5,0.2,1,0.4,1.3,0.8c0.3,0.3,0.5,0.7,0.6,1.1s0.2,0.9,0.2,1.4
			c0,0.9,0,1.7-0.1,2.4S465.7,292,465.7,292.7z M460.7,294.4c0.3,0,0.6-0.1,0.8-0.2c0.2-0.1,0.4-0.3,0.6-0.4
			c0.2-0.2,0.3-0.3,0.4-0.5s0.1-0.4,0.2-0.5v-2.2c-0.7,0-1.3,0.1-1.7,0.1c-0.4,0.1-0.8,0.2-1,0.4c-0.3,0.2-0.4,0.4-0.5,0.6
			c-0.1,0.3-0.1,0.6-0.1,0.9c0,0.6,0.1,1,0.4,1.3S460.2,294.4,460.7,294.4z"/>
		<path fill="#272661" d="M474.1,287.4c-0.2,0.1-0.4,0.2-0.6,0.4c-0.2,0.2-0.5,0.6-0.6,1v5.7c0.3,0,0.6,0.1,0.9,0.2s0.6,0.2,0.9,0.4
			v0.8h-6.5v-0.8c0.3-0.1,0.5-0.3,0.8-0.3c0.2-0.1,0.5-0.1,0.7-0.2v-8.2l-1.5-0.2v-0.8c0.2-0.1,0.5-0.2,0.9-0.3
			c0.3-0.1,0.7-0.2,1.1-0.2c0.4-0.1,0.7-0.1,1.1-0.2c0.3,0,0.6-0.1,0.9-0.1h0.8v3h0.1c0.1-0.3,0.3-0.7,0.5-1c0.2-0.4,0.5-0.7,0.8-1
			s0.7-0.5,1-0.7c0.4-0.2,0.8-0.3,1.2-0.2c0.2,0.2,0.3,0.5,0.4,0.9s0.2,0.7,0.3,1.1v0.9h-3.2L474.1,287.4L474.1,287.4z"/>
	</g>
</g>
</svg>
