<?xml version="1.0" encoding="utf-8"?>
<!-- Generator: Adobe Illustrator 19.2.1, SVG Export Plug-In . SVG Version: 6.00 Build 0)  -->
<svg version="1.1" id="Layer_1" xmlns="http://www.w3.org/2000/svg" xmlns:xlink="http://www.w3.org/1999/xlink" x="0px" y="0px"
	 width="504px" height="360px" viewBox="0 0 504 360" enable-background="new 0 0 504 360" xml:space="preserve">
<g id="Gasoline">
	<path fill="#D7A17D" d="M407.3,216.3c-12.9-6-10.5-32.3-7.6-49.2c19.5-59.4,8.2-119.1-31.6-117.8c-115,3.7-122-51.7-177.9-27
		c-5.1,0.6-9-0.3-10.5-0.8c-0.8-1-1.1-1.9-2.4-0.7c-0.5,0.5-1.7,1.5-1.9,2.1c-0.1,0.1,0,0.3-0.1,0.4c-1.2,0.6-2,1.5-2.4,2.8
		l-0.1,0.1c-0.7,1.2,0.1,0.1,0.1,0.1c-0.7,2.4,0.1,5.7,2.5,9.5c-2.8,4.9-5.2,10.9-7.1,17.9c-0.8,1.2-0.3,1.6-0.3,1.6l-0.1,0.1
		c-14.4,56.5-32.8,172.3,11.9,227l209.6,2.8c-5.5-3.3,0.8-8.6,4.8-16.8c3.3-6.8,8.5-12.5,15-16.2l0,0
		C409.2,252.1,426.5,225.2,407.3,216.3z"/>
	<path fill="#DE573D" d="M54.5,21.9V138c0,3.5,2.9,6.4,6.4,6.4H141c3.5,0,6.4-2.9,6.4-6.4V61.9l-40-46.4H60.9
		C57.4,15.5,54.5,18.4,54.5,21.9z M102.3,25.6L64.1,55.7C64.1,55.8,47.5,10,102.3,25.6z"/>
	
		<rect x="125.9" y="20.6" transform="matrix(0.7589 -0.6512 0.6512 0.7589 9.1074 94.2469)" fill="#659F9C" width="11.8" height="28.5"/>
	<path fill="#659F9C" d="M179.2,18.7l-7,8.6c0,0-15-10.7-33.3,8.6l-8-8.6C130.8,27.3,150.1,0.4,179.2,18.7z"/>
	<path fill="#DE573D" d="M340.8,168.3v40.5c0,1.2,1,2.2,2.2,2.2H371c1.2,0,2.2-1,2.2-2.2v-26.5L359.3,166h-16.2
		C341.9,166,340.8,167.1,340.8,168.3z M357.5,169.6L344.2,180C344.2,180.1,338.4,164.2,357.5,169.6z"/>
	
		<rect x="365.9" y="167.8" transform="matrix(0.7589 -0.6512 0.6512 0.7589 -23.7997 281.2302)" fill="#659F9C" width="4.1" height="9.9"/>
	<path fill="#659F9C" d="M384,168l-2.4,3c0,0-5.3-3.7-11.6,3l-2.8-3C367.1,171,373.9,161.7,384,168z"/>
	<path fill="#DE573D" d="M291.2,168.3v40.5c0,1.2,1,2.2,2.2,2.2h27.9c1.2,0,2.2-1,2.2-2.2v-26.5L309.6,166h-16.2
		C292.1,166,291.2,167.1,291.2,168.3z M307.8,169.6L294.5,180C294.5,180.1,288.7,164.2,307.8,169.6z"/>
	
		<rect x="316.2" y="167.8" transform="matrix(0.7589 -0.6512 0.6512 0.7589 -35.7822 248.8767)" fill="#DE573D" width="4.1" height="9.9"/>
	<path fill="#659F9C" d="M334.5,167.1l-2.4,3c0,0-5.3-3.7-11.6,3l-2.8-3C317.7,170.1,324.4,160.8,334.5,167.1z"/>
	<path fill="#DE573D" d="M245,167.4v40.5c0,1.2,1,2.2,2.2,2.2h27.9c1.2,0,2.2-1,2.2-2.2v-26.5l-13.9-16.1h-16.2
		C246,165.1,245,166.2,245,167.4z M261.7,168.7l-13.3,10.5C248.4,179.2,242.5,163.3,261.7,168.7z"/>
	
		<rect x="270" y="166.9" transform="matrix(0.7589 -0.6512 0.6512 0.7589 -46.3534 218.5815)" fill="#659F9C" width="4.1" height="9.9"/>
	<path fill="#659F9C" d="M288.4,166.2l-2.4,3c0,0-5.3-3.7-11.6,3l-2.8-3C271.6,169.3,278.3,159.9,288.4,166.2z"/>
	<path fill="#DE573D" d="M195.3,168.3v40.5c0,1.2,1,2.2,2.2,2.2h27.9c1.2,0,2.2-1,2.2-2.2v-26.5L213.7,166h-16.2
		C196.3,166,195.3,167.1,195.3,168.3z M211.9,169.6L198.6,180C198.7,180.1,192.9,164.2,211.9,169.6z"/>
	
		<rect x="220.3" y="167.8" transform="matrix(0.7589 -0.6512 0.6512 0.7589 -58.8863 186.4612)" fill="#659F9C" width="4.1" height="9.9"/>
	<path fill="#659F9C" d="M238.7,167.1l-2.4,3c0,0-5.3-3.7-11.6,3l-2.8-3C221.9,170.1,228.6,160.8,238.7,167.1z"/>
	<path fill="#DE573D" d="M338.2,227.8v40.5c0,1.2,1,2.2,2.2,2.2h27.9c1.2,0,2.2-1,2.2-2.2v-26.5l-13.9-16.1h-16.2
		C339.2,225.5,338.2,226.5,338.2,227.8z M354.8,229.1l-13.3,10.5C341.5,239.5,335.7,223.6,354.8,229.1z"/>
	
		<rect x="363.2" y="227.3" transform="matrix(0.7589 -0.6512 0.6512 0.7589 -63.2169 293.8229)" fill="#659F9C" width="4.1" height="9.9"/>
	<path fill="#659F9C" d="M381,227.5l-2.4,3c0,0-5.3-3.7-11.6,3l-2.8-3C364.2,230.5,370.9,221.1,381,227.5z"/>
	<path fill="#DE573D" d="M288.5,227.8v40.5c0,1.2,1,2.2,2.2,2.2h27.9c1.2,0,2.2-1,2.2-2.2v-26.5l-13.9-16.1h-16.2
		C289.5,225.5,288.5,226.5,288.5,227.8z M305.2,229.1l-13.3,10.5C291.9,239.5,286,223.6,305.2,229.1z"/>
	
		<rect x="313.4" y="227.3" transform="matrix(0.7589 -0.6512 0.6512 0.7589 -75.2085 261.4511)" fill="#659F9C" width="4.1" height="9.9"/>
	<path fill="#659F9C" d="M331.9,226.6l-2.4,3c0,0-5.3-3.7-11.6,3l-2.8-3C315.1,229.6,321.8,220.3,331.9,226.6z"/>
	<path fill="#DE573D" d="M242.3,226.9v40.5c0,1.2,1,2.2,2.2,2.2h27.9c1.2,0,2.2-1,2.2-2.2v-26.5l-13.9-16.1h-16.2
		C243.4,224.6,242.3,225.6,242.3,226.9z M259,228.2l-13.3,10.5C245.7,238.6,239.9,222.8,259,228.2z"/>
	
		<rect x="267.3" y="226.4" transform="matrix(0.7589 -0.6512 0.6512 0.7589 -85.7375 231.1793)" fill="#659F9C" width="4.1" height="9.9"/>
	<path fill="#659F9C" d="M285.8,225.7l-2.4,3c0,0-5.3-3.7-11.6,3l-2.8-3C268.9,228.7,275.7,219.4,285.8,225.7z"/>
	<path fill="#DE573D" d="M192.7,227.8v40.5c0,1.2,1,2.2,2.2,2.2h27.9c1.2,0,2.2-1,2.2-2.2v-26.5l-13.9-16.1h-16.2
		C193.6,225.5,192.7,226.5,192.7,227.8z M209.3,229.1L196,239.5C196,239.5,190.2,223.6,209.3,229.1z"/>
	
		<rect x="217.6" y="227.3" transform="matrix(0.7589 -0.6512 0.6512 0.7589 -98.3036 199.054)" fill="#659F9C" width="4.1" height="9.9"/>
	<path fill="#659F9C" d="M236,226.6l-2.4,3c0,0-5.3-3.7-11.6,3l-2.8-3C219.2,229.6,225.9,220.3,236,226.6z"/>
	<g>
		<rect x="193.2" y="66.9" fill="none" width="187.2" height="92.1"/>
		<path fill="#FFFFFF" d="M210.3,70.9v3h4.7c0.3,0,0.6,0.1,0.6,0.5c0,0.3-0.2,0.4-0.6,0.4h-5.2c-0.3,0-0.4-0.2-0.4-0.6v-6.6
			c0-0.3,0.1-0.6,0.4-0.6h5.2c0.3,0,0.6,0.1,0.6,0.5c0,0.3-0.2,0.4-0.6,0.4h-4.7V70h3.3c0.4,0,0.6,0.1,0.6,0.5
			c0,0.3-0.2,0.4-0.6,0.4L210.3,70.9L210.3,70.9z"/>
		<path fill="#FFFFFF" d="M220.3,67l2.9,7.3c0,0.1,0.1,0.1,0.1,0.2c0,0.1-0.1,0.3-0.1,0.3c-0.1,0.1-0.2,0.1-0.3,0.1
			c-0.2,0-0.3-0.1-0.5-0.3l-0.8-2.1h-3.4l-0.8,2.1c-0.1,0.2-0.3,0.3-0.5,0.3c-0.1,0-0.2,0-0.3-0.1c-0.1-0.1-0.1-0.1-0.1-0.3
			c0-0.1,0-0.1,0.1-0.2l2.9-7.3H220.3z M218.5,71.6h2.7l-1.4-3.3L218.5,71.6z"/>
		<path fill="#FFFFFF" d="M229.2,74.7h-1.7c-1.1,0-1.9-0.1-2.4-0.5c-0.5-0.3-0.7-0.9-0.7-1.8v-3.3c0-0.9,0.2-1.5,0.7-1.8
			c0.5-0.3,1.2-0.5,2.1-0.5h1.9c0.6,0,0.9,0.1,1,0.4s0.3,0.6,0.3,1.1c0,0.3-0.1,0.6-0.4,0.6c-0.1,0-0.2-0.1-0.3-0.1
			c-0.1-0.1-0.1-0.2-0.1-0.4c0-0.3-0.1-0.4-0.1-0.5c-0.1-0.1-0.2-0.1-0.4-0.1h-1.9c-0.8,0-1.3,0.1-1.6,0.3s-0.4,0.6-0.4,1.2v3.2
			c0,0.6,0.1,1,0.4,1.2c0.3,0.2,0.9,0.2,1.8,0.2h1.7c0.2,0,0.3-0.1,0.4-0.1c0.1-0.1,0.1-0.3,0.1-0.5c0-0.2,0.1-0.3,0.1-0.4
			c0.1-0.1,0.2-0.1,0.3-0.1c0.3,0,0.4,0.2,0.4,0.6c0,0.4-0.1,0.8-0.3,1C230.1,74.5,229.7,74.7,229.2,74.7z"/>
		<path fill="#FFFFFF" d="M233.1,74.3c0,0.3-0.1,0.5-0.4,0.5c-0.3,0-0.4-0.1-0.4-0.5v-6.9c0-0.3,0.1-0.6,0.4-0.6
			c0.3,0,0.5,0.2,0.5,0.6v2.7h4.4v-2.7c0-0.3,0.1-0.6,0.4-0.6s0.5,0.2,0.5,0.6v6.9c0,0.3-0.1,0.5-0.4,0.5s-0.5-0.1-0.5-0.5V71h-4.4
			L233.1,74.3L233.1,74.3z"/>
		<path fill="#FFFFFF" d="M248.7,71.9h-1.5c-0.4,0-0.6-0.1-0.6-0.4s0.2-0.5,0.6-0.5h2.4v2.4c0,0.4-0.1,0.8-0.3,1
			c-0.2,0.3-0.6,0.4-1,0.4h-1.9c-1,0-1.7-0.1-2.1-0.5c-0.4-0.3-0.7-0.9-0.7-1.7v-3.3c0-0.9,0.2-1.5,0.7-1.7s1.2-0.4,2.4-0.4h1.7
			c0.6,0,0.9,0.1,1,0.4s0.3,0.6,0.3,1c0,0.3-0.1,0.6-0.4,0.6s-0.4-0.2-0.4-0.6c0-0.3-0.1-0.4-0.1-0.5c-0.1-0.1-0.2-0.1-0.4-0.1h-1.7
			c-0.9,0-1.5,0.1-1.8,0.2s-0.4,0.6-0.4,1.1v3.3c0,0.6,0.1,1,0.4,1.1c0.3,0.1,0.8,0.2,1.6,0.2h1.9c0.2,0,0.3-0.1,0.4-0.1
			c0.1-0.1,0.1-0.2,0.1-0.5L248.7,71.9L248.7,71.9z"/>
		<path fill="#FFFFFF" d="M254.7,67l2.9,7.3c0,0.1,0.1,0.1,0.1,0.2c0,0.1-0.1,0.3-0.1,0.3c-0.1,0.1-0.2,0.1-0.3,0.1
			c-0.2,0-0.3-0.1-0.5-0.3l-0.8-2.1h-3.4l-0.8,2.1c-0.1,0.2-0.3,0.3-0.5,0.3c-0.1,0-0.2,0-0.3-0.1c-0.1-0.1-0.1-0.1-0.1-0.3
			c0-0.1,0-0.1,0.1-0.2l2.9-7.3H254.7z M252.8,71.6h2.7l-1.4-3.3L252.8,71.6z"/>
		<path fill="#FFFFFF" d="M259.3,74.7c-0.3,0-0.4-0.2-0.4-0.6v-6.8c0-0.1,0.1-0.3,0.1-0.3c0.1-0.1,0.2-0.1,0.3-0.1
			c0.1,0,0.2,0.1,0.3,0.1c0.1,0.1,0.1,0.2,0.1,0.3v6.4h4.1c0.3,0,0.6,0.1,0.6,0.5c0,0.3-0.2,0.4-0.6,0.4L259.3,74.7L259.3,74.7z"/>
		<path fill="#FFFFFF" d="M266,74.7c-0.3,0-0.4-0.2-0.4-0.6v-6.8c0-0.1,0.1-0.3,0.1-0.3c0.1-0.1,0.2-0.1,0.3-0.1s0.2,0.1,0.3,0.1
			c0.1,0.1,0.1,0.2,0.1,0.3v6.4h4.1c0.3,0,0.6,0.1,0.6,0.5c0,0.3-0.2,0.4-0.6,0.4L266,74.7L266,74.7z"/>
		<path fill="#FFFFFF" d="M275,74.9c-0.9,0-1.7-0.3-2.2-0.8c-0.6-0.5-0.8-1.2-0.8-2.1v-2.1c0-0.9,0.3-1.6,0.8-2.1
			c0.6-0.6,1.3-0.8,2.2-0.8s1.7,0.3,2.2,0.8c0.6,0.5,0.8,1.2,0.8,2.1V72c0,0.9-0.3,1.6-0.8,2.1C276.7,74.7,275.9,74.9,275,74.9z
			 M276.6,68.3c-0.3-0.3-0.9-0.6-1.7-0.6s-1.2,0.2-1.7,0.6c-0.4,0.3-0.6,0.9-0.6,1.5v2.1c0,0.7,0.2,1.2,0.6,1.5s0.9,0.6,1.7,0.6
			s1.2-0.2,1.7-0.6c0.4-0.3,0.6-0.9,0.6-1.5v-2.1C277.2,69.2,277,68.6,276.6,68.3z"/>
		<path fill="#FFFFFF" d="M285.6,74.8c-0.2,0-0.3,0-0.3-0.1l-4.5-6.3v5.9c0,0.3-0.1,0.5-0.4,0.5c-0.3,0-0.4-0.1-0.4-0.5v-6.9
			c0-0.3,0.1-0.6,0.4-0.6c0.2,0,0.3,0.1,0.5,0.3l4.4,6.1v-5.8c0-0.3,0.1-0.6,0.4-0.6c0.3,0,0.5,0.2,0.5,0.6v6.9
			C286,74.7,285.9,74.8,285.6,74.8z"/>
		<path fill="#FFFFFF" d="M294.1,74.9c-0.9,0-1.7-0.3-2.2-0.8c-0.6-0.5-0.8-1.2-0.8-2.1v-2.1c0-0.9,0.3-1.6,0.8-2.1
			c0.6-0.6,1.3-0.8,2.2-0.8c0.9,0,1.7,0.3,2.2,0.8c0.6,0.5,0.8,1.2,0.8,2.1V72c0,0.9-0.3,1.6-0.8,2.1S295,74.9,294.1,74.9z
			 M295.7,68.3c-0.3-0.3-0.9-0.6-1.7-0.6c-0.8,0-1.2,0.2-1.7,0.6c-0.4,0.3-0.6,0.9-0.6,1.5v2.1c0,0.7,0.2,1.2,0.6,1.5
			c0.3,0.3,0.9,0.6,1.7,0.6c0.8,0,1.2-0.2,1.7-0.6s0.6-0.9,0.6-1.5v-2.1C296.2,69.2,296.1,68.6,295.7,68.3z"/>
		<path fill="#FFFFFF" d="M299.8,74.3c0,0.3-0.1,0.5-0.4,0.5c-0.3,0-0.4-0.2-0.4-0.6v-6.8c0-0.3,0.1-0.6,0.4-0.6h5.2
			c0.3,0,0.6,0.1,0.6,0.5c0,0.3-0.2,0.4-0.6,0.4h-4.7v2.1h3.3c0.4,0,0.6,0.1,0.6,0.5c0,0.3-0.2,0.4-0.6,0.4h-3.3L299.8,74.3
			L299.8,74.3z"/>
		<path fill="#FFFFFF" d="M314.7,71.9h-1.5c-0.4,0-0.6-0.1-0.6-0.4s0.2-0.5,0.6-0.5h2.4v2.4c0,0.4-0.1,0.8-0.3,1s-0.6,0.4-1,0.4
			h-1.9c-1,0-1.7-0.1-2.1-0.5c-0.4-0.3-0.7-0.9-0.7-1.7v-3.3c0-0.9,0.2-1.5,0.7-1.7s1.2-0.4,2.4-0.4h1.7c0.6,0,0.9,0.1,1,0.4
			c0.1,0.3,0.3,0.6,0.3,1c0,0.3-0.1,0.6-0.4,0.6c-0.3,0-0.4-0.2-0.4-0.6c0-0.3-0.1-0.4-0.1-0.5c-0.1-0.1-0.2-0.1-0.4-0.1h-1.7
			c-0.9,0-1.5,0.1-1.8,0.2s-0.4,0.6-0.4,1.1v3.3c0,0.6,0.1,1,0.4,1.1s0.8,0.2,1.6,0.2h1.9c0.2,0,0.3-0.1,0.4-0.1
			c0.1-0.1,0.1-0.2,0.1-0.5L314.7,71.9L314.7,71.9z"/>
		<path fill="#FFFFFF" d="M320.6,67l2.9,7.3c0,0.1,0.1,0.1,0.1,0.2c0,0.1-0.1,0.3-0.1,0.3c-0.1,0.1-0.2,0.1-0.3,0.1
			c-0.2,0-0.3-0.1-0.5-0.3l-0.8-2.1h-3.4l-0.8,2.1c-0.1,0.2-0.3,0.3-0.5,0.3c-0.1,0-0.2,0-0.3-0.1c-0.1-0.1-0.1-0.1-0.1-0.3
			c0-0.1,0-0.1,0.1-0.2l2.9-7.3H320.6z M318.8,71.6h2.7l-1.4-3.3L318.8,71.6z"/>
		<path fill="#FFFFFF" d="M325.5,69c0,0.3,0.1,0.6,0.2,0.8s0.3,0.3,0.4,0.3l3.3,0.6c0.6,0.1,1,0.3,1.2,0.8c0.2,0.4,0.4,0.8,0.4,1.4
			s-0.2,1-0.6,1.5c-0.3,0.4-1,0.6-1.7,0.6h-1.2c-1,0-1.9-0.1-2.4-0.5c-0.5-0.3-0.7-0.9-0.7-1.9c0-0.3,0.1-0.6,0.5-0.6
			c0.1,0,0.2,0.1,0.3,0.1c0.1,0.1,0.1,0.2,0.1,0.3c0,0.6,0.1,1,0.4,1.2s0.8,0.3,1.7,0.3h1.5c0.4,0,0.7-0.1,0.9-0.4
			c0.2-0.3,0.3-0.6,0.3-0.8c0-0.3-0.1-0.6-0.2-0.9c-0.1-0.3-0.3-0.3-0.4-0.3l-3.3-0.6c-0.6-0.1-1-0.3-1.3-0.6
			c-0.3-0.3-0.4-0.8-0.4-1.3c0-0.3,0.1-0.5,0.1-0.7s0.2-0.4,0.4-0.6c0.2-0.2,0.4-0.3,0.8-0.5c0.3-0.1,0.8-0.2,1.2-0.2h0.9
			c0.6,0,1,0,1.3,0.1c0.3,0.1,0.7,0.1,1,0.3c0.3,0.2,0.5,0.4,0.6,0.7s0.2,0.7,0.2,1.2c0,0.2-0.1,0.3-0.1,0.4
			c-0.1,0.1-0.2,0.1-0.3,0.1c-0.1,0-0.2-0.1-0.3-0.1c-0.1-0.1-0.1-0.2-0.1-0.3c0-0.6-0.1-1-0.4-1.2s-0.9-0.2-1.8-0.2h-1.3
			c-0.5,0-0.8,0.1-1,0.3C325.6,68.4,325.5,68.7,325.5,69z"/>
		<path fill="#FFFFFF" d="M335.7,74.9c-0.9,0-1.7-0.3-2.2-0.8c-0.6-0.5-0.8-1.2-0.8-2.1v-2.1c0-0.9,0.3-1.6,0.8-2.1
			c0.6-0.6,1.3-0.8,2.2-0.8c0.9,0,1.7,0.3,2.2,0.8c0.6,0.5,0.8,1.2,0.8,2.1V72c0,0.9-0.3,1.6-0.8,2.1S336.6,74.9,335.7,74.9z
			 M337.3,68.3c-0.3-0.3-0.9-0.6-1.7-0.6c-0.8,0-1.2,0.2-1.7,0.6c-0.4,0.3-0.6,0.9-0.6,1.5v2.1c0,0.7,0.2,1.2,0.6,1.5
			c0.3,0.3,0.9,0.6,1.7,0.6c0.8,0,1.2-0.2,1.7-0.6s0.6-0.9,0.6-1.5v-2.1C337.9,69.2,337.7,68.6,337.3,68.3z"/>
		<path fill="#FFFFFF" d="M341,74.7c-0.3,0-0.4-0.2-0.4-0.6v-6.8c0-0.1,0.1-0.3,0.1-0.3c0.1-0.1,0.2-0.1,0.3-0.1
			c0.1,0,0.2,0.1,0.3,0.1c0.1,0.1,0.1,0.2,0.1,0.3v6.4h4.1c0.3,0,0.6,0.1,0.6,0.5c0,0.3-0.2,0.4-0.6,0.4L341,74.7L341,74.7z"/>
		<path fill="#FFFFFF" d="M348.2,74.3c0,0.3-0.1,0.5-0.5,0.5c-0.3,0-0.4-0.1-0.4-0.5v-6.9c0-0.3,0.1-0.5,0.4-0.5s0.4,0.1,0.4,0.5
			L348.2,74.3L348.2,74.3z"/>
		<path fill="#FFFFFF" d="M355.9,74.8c-0.2,0-0.3,0-0.3-0.1l-4.5-6.3v5.9c0,0.3-0.1,0.5-0.4,0.5s-0.4-0.1-0.4-0.5v-6.9
			c0-0.3,0.1-0.6,0.4-0.6c0.2,0,0.3,0.1,0.5,0.3l4.4,6.1v-5.8c0-0.3,0.1-0.6,0.4-0.6c0.3,0,0.5,0.2,0.5,0.6v6.9
			C356.4,74.7,356.2,74.8,355.9,74.8z"/>
		<path fill="#FFFFFF" d="M359.3,70.9v3h4.7c0.3,0,0.6,0.1,0.6,0.5c0,0.3-0.2,0.4-0.6,0.4h-5.2c-0.3,0-0.4-0.2-0.4-0.6v-6.6
			c0-0.3,0.1-0.6,0.4-0.6h5.2c0.3,0,0.6,0.1,0.6,0.5c0,0.3-0.2,0.4-0.6,0.4h-4.7V70h3.3c0.4,0,0.6,0.1,0.6,0.5
			c0,0.3-0.2,0.4-0.6,0.4L359.3,70.9L359.3,70.9z"/>
		<path fill="#FFFFFF" d="M201.7,89.6V83c0-0.3,0.1-0.6,0.4-0.6h2.3c1,0,1.7,0.1,2.2,0.4s0.7,0.8,0.7,1.5c0,0.6-0.1,1-0.5,1.4
			c0.7,0.3,1,1,1,2V88c0,0.9-0.2,1.5-0.7,1.8c-0.5,0.3-1.2,0.5-2.4,0.5h-2.6C201.8,90.2,201.7,90,201.7,89.6z M204.4,85.5
			c0.8,0,1.3-0.1,1.6-0.2c0.3-0.1,0.4-0.4,0.4-0.9c0-0.4-0.1-0.8-0.4-0.9c-0.3-0.1-0.8-0.2-1.6-0.2h-1.8v2.2L204.4,85.5L204.4,85.5z
			 M204.9,86.4h-2.4v2.9h2.2c0.9,0,1.5-0.1,1.7-0.2c0.3-0.1,0.4-0.6,0.4-1.1v-0.2c0-0.6-0.1-1-0.4-1.1S205.7,86.4,204.9,86.4z"/>
		<path fill="#FFFFFF" d="M214.7,82.8c0-0.3,0.1-0.5,0.5-0.5c0.3,0,0.4,0.1,0.4,0.5v4.5c0,0.9-0.3,1.6-0.8,2.1
			c-0.6,0.6-1.3,0.8-2.2,0.8s-1.7-0.3-2.2-0.8c-0.6-0.5-0.8-1.2-0.8-2.1v-4.5c0-0.3,0.1-0.5,0.4-0.5c0.1,0,0.2,0.1,0.3,0.1
			c0.1,0.1,0.1,0.2,0.1,0.3v4.5c0,0.7,0.2,1.2,0.6,1.5c0.3,0.3,0.9,0.6,1.7,0.6s1.2-0.2,1.7-0.6c0.4-0.3,0.6-0.9,0.6-1.5L214.7,82.8
			L214.7,82.8z"/>
		<path fill="#FFFFFF" d="M221.8,86.1c0.3,0.3,0.5,0.8,0.8,1.4c0.3,0.6,0.4,1.1,0.5,1.5s0.1,0.7,0.1,0.8c0,0.1-0.1,0.3-0.1,0.3
			c-0.1,0.1-0.2,0.1-0.3,0.1s-0.2-0.1-0.3-0.1c-0.1-0.1-0.1-0.2-0.1-0.3s-0.1-0.4-0.2-0.8c-0.1-0.4-0.3-0.9-0.6-1.5
			c-0.3-0.6-0.6-1-1-1.2h-2.3v3.5c0,0.3-0.1,0.5-0.5,0.5c-0.3,0-0.4-0.1-0.4-0.5v-6.9c0-0.3,0.1-0.6,0.4-0.6h2.3
			c1,0,1.7,0.1,2.2,0.4s0.7,0.8,0.7,1.5C223.2,85.2,222.7,85.8,221.8,86.1z M218.4,83.2v2.2h1.8c0.8,0,1.3-0.1,1.6-0.2
			c0.3-0.1,0.4-0.4,0.4-0.9c0-0.5-0.1-0.8-0.4-0.9c-0.3-0.1-0.8-0.2-1.6-0.2L218.4,83.2L218.4,83.2z"/>
		<path fill="#FFFFFF" d="M230.6,90.3c-0.2,0-0.3,0-0.3-0.1l-4.5-6.3v5.9c0,0.3-0.1,0.5-0.4,0.5s-0.4-0.1-0.4-0.5v-6.9
			c0-0.3,0.1-0.6,0.4-0.6c0.2,0,0.3,0.1,0.5,0.3l4.4,6.1v-5.8c0-0.3,0.1-0.6,0.4-0.6c0.3,0,0.5,0.2,0.5,0.6v6.9
			C231,90.1,230.9,90.3,230.6,90.3z"/>
		<path fill="#FFFFFF" d="M234,86.2v3h4.7c0.3,0,0.6,0.1,0.6,0.5c0,0.3-0.2,0.4-0.6,0.4h-5.2c-0.3,0-0.4-0.2-0.4-0.6V83
			c0-0.3,0.1-0.6,0.4-0.6h5.2c0.3,0,0.6,0.1,0.6,0.5c0,0.3-0.2,0.4-0.6,0.4H234v2.1h3.3c0.4,0,0.6,0.1,0.6,0.5
			c0,0.3-0.2,0.4-0.6,0.4L234,86.2L234,86.2z"/>
		<path fill="#FFFFFF" d="M247,84.6v3.3c0,0.9-0.2,1.5-0.7,1.8c-0.5,0.3-1.2,0.5-2.4,0.5h-2.6c-0.3,0-0.4-0.2-0.4-0.6V83
			c0-0.3,0.1-0.6,0.4-0.6h2.8c1,0,1.7,0.1,2.1,0.5C246.7,83.3,247,83.8,247,84.6z M246.1,87.9v-3.2c0-0.6-0.1-1-0.4-1.2
			c-0.3-0.2-0.8-0.3-1.6-0.3h-2.4v6h2.2c0.9,0,1.5-0.1,1.8-0.2C245.9,88.9,246.1,88.5,246.1,87.9z"/>
		<path fill="#FFFFFF" d="M252.9,89.8c0,0.3-0.1,0.5-0.5,0.5c-0.3,0-0.4-0.1-0.4-0.5v-6.9c0-0.3,0.1-0.5,0.4-0.5s0.4,0.1,0.4,0.5
			L252.9,89.8L252.9,89.8z"/>
		<path fill="#FFFFFF" d="M260.7,90.3c-0.2,0-0.3,0-0.3-0.1l-4.5-6.3v5.9c0,0.3-0.1,0.5-0.4,0.5c-0.3,0-0.4-0.1-0.4-0.5v-6.9
			c0-0.3,0.1-0.6,0.4-0.6c0.2,0,0.3,0.1,0.5,0.3l4.4,6.1v-5.8c0-0.3,0.1-0.6,0.4-0.6s0.5,0.2,0.5,0.6v6.9
			C261.1,90.1,261,90.3,260.7,90.3z"/>
		<path fill="#FFFFFF" d="M269.5,82.4l2.9,7.3c0,0.1,0.1,0.1,0.1,0.2c0,0.1-0.1,0.3-0.1,0.3c-0.1,0.1-0.2,0.1-0.3,0.1
			c-0.2,0-0.3-0.1-0.5-0.3l-0.8-2.1h-3.4l-0.8,2.1c-0.1,0.2-0.3,0.3-0.5,0.3c-0.1,0-0.2,0-0.3-0.1c-0.1-0.1-0.1-0.1-0.1-0.3
			c0-0.1,0-0.1,0.1-0.2l2.9-7.3H269.5z M267.7,87h2.7l-1.4-3.3L267.7,87z"/>
		<path fill="#FFFFFF" d="M279.5,90.3c-0.2,0-0.3,0-0.3-0.1l-4.5-6.3v5.9c0,0.3-0.1,0.5-0.4,0.5s-0.4-0.1-0.4-0.5v-6.9
			c0-0.3,0.1-0.6,0.4-0.6c0.2,0,0.3,0.1,0.5,0.3l4.4,6.1v-5.8c0-0.3,0.1-0.6,0.4-0.6s0.5,0.2,0.5,0.6v6.9
			C279.9,90.1,279.7,90.3,279.5,90.3z"/>
		<path fill="#FFFFFF" d="M288.3,82.4l2.9,7.3c0,0.1,0.1,0.1,0.1,0.2c0,0.1-0.1,0.3-0.1,0.3c-0.1,0.1-0.2,0.1-0.3,0.1
			c-0.2,0-0.3-0.1-0.5-0.3l-0.8-2.1h-3.4l-0.8,2.1c-0.1,0.2-0.3,0.3-0.5,0.3c-0.1,0-0.2,0-0.3-0.1c-0.1-0.1-0.1-0.1-0.1-0.3
			c0-0.1,0-0.1,0.1-0.2l2.9-7.3H288.3z M286.5,87h2.7l-1.4-3.3L286.5,87z"/>
		<path fill="#FFFFFF" d="M297.1,82.6c0.1-0.2,0.3-0.3,0.5-0.3c0.1,0,0.2,0,0.3,0.1c0.1,0.1,0.1,0.1,0.1,0.3c0,0.1,0,0.1-0.1,0.2
			l-2.9,7.3h-1l-2.9-7.3c0-0.1-0.1-0.1-0.1-0.2c0-0.1,0.1-0.3,0.1-0.3c0.1-0.1,0.2-0.1,0.3-0.1c0.2,0,0.3,0.1,0.5,0.3l2.6,6.3
			L297.1,82.6z"/>
		<path fill="#FFFFFF" d="M300.2,86.2v3h4.7c0.3,0,0.6,0.1,0.6,0.5c0,0.3-0.2,0.4-0.6,0.4h-5.2c-0.3,0-0.4-0.2-0.4-0.6V83
			c0-0.3,0.1-0.6,0.4-0.6h5.2c0.3,0,0.6,0.1,0.6,0.5c0,0.3-0.2,0.4-0.6,0.4h-4.7v2.1h3.3c0.4,0,0.6,0.1,0.6,0.5
			c0,0.3-0.2,0.4-0.6,0.4L300.2,86.2L300.2,86.2z"/>
		<path fill="#FFFFFF" d="M311.4,86.1c0.3,0.3,0.5,0.8,0.8,1.4c0.3,0.6,0.4,1.1,0.5,1.5c0.1,0.4,0.1,0.7,0.1,0.8
			c0,0.1-0.1,0.3-0.1,0.3c-0.1,0.1-0.2,0.1-0.3,0.1c-0.1,0-0.2-0.1-0.3-0.1c-0.1-0.1-0.1-0.2-0.1-0.3s-0.1-0.4-0.2-0.8
			c-0.1-0.4-0.3-0.9-0.6-1.5s-0.6-1-1-1.2h-2.3v3.5c0,0.3-0.1,0.5-0.5,0.5c-0.3,0-0.4-0.1-0.4-0.5v-6.9c0-0.3,0.1-0.6,0.4-0.6h2.3
			c1,0,1.7,0.1,2.2,0.4s0.7,0.8,0.7,1.5C312.7,85.2,312.3,85.8,311.4,86.1z M308,83.2v2.2h1.8c0.8,0,1.3-0.1,1.6-0.2
			s0.4-0.4,0.4-0.9c0-0.5-0.1-0.8-0.4-0.9c-0.3-0.1-0.8-0.2-1.6-0.2L308,83.2L308,83.2z"/>
		<path fill="#FFFFFF" d="M317.7,82.4l2.9,7.3c0,0.1,0.1,0.1,0.1,0.2c0,0.1-0.1,0.3-0.1,0.3c-0.1,0.1-0.2,0.1-0.3,0.1
			c-0.2,0-0.3-0.1-0.5-0.3l-0.8-2.1h-3.4l-0.8,2.1c-0.1,0.2-0.3,0.3-0.5,0.3c-0.1,0-0.2,0-0.3-0.1c-0.1-0.1-0.1-0.1-0.1-0.3
			c0-0.1,0-0.1,0.1-0.2l2.9-7.3H317.7z M315.9,87h2.7l-1.4-3.3L315.9,87z"/>
		<path fill="#FFFFFF" d="M327.1,87.3h-1.5c-0.4,0-0.6-0.1-0.6-0.4s0.2-0.5,0.6-0.5h2.4v2.4c0,0.4-0.1,0.8-0.3,1
			c-0.2,0.3-0.6,0.4-1,0.4h-1.9c-1,0-1.7-0.1-2.1-0.5c-0.4-0.3-0.7-0.9-0.7-1.7v-3.3c0-0.9,0.2-1.5,0.7-1.7s1.2-0.4,2.4-0.4h1.7
			c0.6,0,0.9,0.1,1,0.4c0.1,0.3,0.3,0.6,0.3,1c0,0.3-0.1,0.6-0.4,0.6s-0.4-0.2-0.4-0.6c0-0.3-0.1-0.4-0.1-0.5s-0.2-0.1-0.4-0.1h-1.7
			c-0.9,0-1.5,0.1-1.8,0.2c-0.3,0.1-0.4,0.6-0.4,1.1v3.3c0,0.6,0.1,1,0.4,1.1c0.3,0.1,0.8,0.2,1.6,0.2h1.9c0.2,0,0.3-0.1,0.4-0.1
			c0.1-0.1,0.1-0.2,0.1-0.5L327.1,87.3L327.1,87.3z"/>
		<path fill="#FFFFFF" d="M330.7,86.2v3h4.7c0.3,0,0.6,0.1,0.6,0.5c0,0.3-0.2,0.4-0.6,0.4h-5.2c-0.3,0-0.4-0.2-0.4-0.6V83
			c0-0.3,0.1-0.6,0.4-0.6h5.2c0.3,0,0.6,0.1,0.6,0.5c0,0.3-0.2,0.4-0.6,0.4h-4.7v2.1h3.3c0.4,0,0.6,0.1,0.6,0.5
			c0,0.3-0.2,0.4-0.6,0.4L330.7,86.2L330.7,86.2z"/>
		<path fill="#FFFFFF" d="M345.3,90.2h-1.7c-1.1,0-1.9-0.1-2.4-0.5c-0.5-0.3-0.7-0.9-0.7-1.8v-3.3c0-0.9,0.2-1.5,0.7-1.8
			c0.5-0.3,1.2-0.5,2.1-0.5h1.9c0.6,0,0.9,0.1,1,0.4c0.1,0.3,0.3,0.6,0.3,1.1c0,0.3-0.1,0.6-0.4,0.6c-0.1,0-0.2-0.1-0.3-0.1
			c-0.1-0.1-0.1-0.2-0.1-0.4c0-0.3-0.1-0.4-0.1-0.5c-0.1-0.1-0.2-0.1-0.4-0.1h-1.9c-0.8,0-1.3,0.1-1.6,0.3c-0.3,0.2-0.4,0.6-0.4,1.2
			v3.2c0,0.6,0.1,1,0.4,1.2c0.3,0.2,0.9,0.2,1.8,0.2h1.7c0.2,0,0.3-0.1,0.4-0.1c0.1-0.1,0.1-0.3,0.1-0.5c0-0.2,0.1-0.3,0.1-0.4
			c0.1-0.1,0.2-0.1,0.3-0.1c0.3,0,0.4,0.2,0.4,0.6c0,0.4-0.1,0.8-0.3,1C346.2,89.9,345.9,90.2,345.3,90.2z"/>
		<path fill="#FFFFFF" d="M351.6,82.4l2.9,7.3c0,0.1,0.1,0.1,0.1,0.2c0,0.1-0.1,0.3-0.1,0.3c-0.1,0.1-0.2,0.1-0.3,0.1
			c-0.2,0-0.3-0.1-0.5-0.3l-0.8-2.1h-3.4l-0.8,2.1c-0.1,0.2-0.3,0.3-0.5,0.3c-0.1,0-0.2,0-0.3-0.1c-0.1-0.1-0.1-0.1-0.1-0.3
			c0-0.1,0-0.1,0.1-0.2l2.9-7.3H351.6z M349.8,87h2.7l-1.4-3.3L349.8,87z"/>
		<path fill="#FFFFFF" d="M360.2,86.1c0.3,0.3,0.5,0.8,0.8,1.4c0.3,0.6,0.4,1.1,0.5,1.5c0.1,0.4,0.1,0.7,0.1,0.8
			c0,0.1-0.1,0.3-0.1,0.3c-0.1,0.1-0.2,0.1-0.3,0.1c-0.1,0-0.2-0.1-0.3-0.1c-0.1-0.1-0.1-0.2-0.1-0.3s-0.1-0.4-0.2-0.8
			c-0.1-0.4-0.3-0.9-0.6-1.5c-0.3-0.6-0.6-1-1-1.2h-2.3v3.5c0,0.3-0.1,0.5-0.5,0.5c-0.3,0-0.4-0.1-0.4-0.5v-6.9
			c0-0.3,0.1-0.6,0.4-0.6h2.3c1,0,1.7,0.1,2.2,0.4s0.7,0.8,0.7,1.5C361.5,85.2,361,85.8,360.2,86.1z M356.7,83.2v2.2h1.8
			c0.8,0,1.3-0.1,1.6-0.2s0.4-0.4,0.4-0.9c0-0.5-0.1-0.8-0.4-0.9c-0.3-0.1-0.8-0.2-1.6-0.2L356.7,83.2L356.7,83.2z"/>
		<path fill="#FFFFFF" d="M363.3,82.2c0-0.1,0.1-0.2,0.1-0.3c0.1-0.1,0.2-0.1,0.4-0.1c0.3,0,0.5,0.1,0.5,0.4c0,0.4-0.1,0.8-0.3,1.1
			s-0.4,0.5-0.6,0.5c-0.2,0-0.3-0.1-0.3-0.3c0-0.1,0.1-0.2,0.1-0.4C363.2,82.8,363.3,82.6,363.3,82.2z"/>
		<path fill="#FFFFFF" d="M366.5,84.4c0,0.3,0.1,0.6,0.2,0.8c0.1,0.2,0.3,0.3,0.4,0.3l3.3,0.6c0.6,0.1,1,0.3,1.2,0.8
			c0.2,0.4,0.4,0.8,0.4,1.4s-0.2,1-0.6,1.5c-0.3,0.4-1,0.6-1.7,0.6h-1.2c-1,0-1.9-0.1-2.4-0.5c-0.5-0.3-0.7-0.9-0.7-1.9
			c0-0.3,0.1-0.6,0.5-0.6c0.1,0,0.2,0.1,0.3,0.1c0.1,0.1,0.1,0.2,0.1,0.3c0,0.6,0.1,1,0.4,1.2c0.3,0.1,0.8,0.3,1.7,0.3h1.5
			c0.4,0,0.7-0.1,0.9-0.4s0.3-0.6,0.3-0.8c0-0.3-0.1-0.6-0.2-0.9c-0.1-0.3-0.3-0.3-0.4-0.3l-3.3-0.6c-0.6-0.1-1-0.3-1.3-0.6
			c-0.3-0.3-0.4-0.8-0.4-1.3c0-0.3,0.1-0.5,0.1-0.7c0.1-0.2,0.2-0.4,0.4-0.6c0.2-0.2,0.4-0.3,0.8-0.5c0.3-0.1,0.8-0.2,1.2-0.2h0.9
			c0.6,0,1,0,1.3,0.1c0.3,0.1,0.7,0.1,1,0.3s0.5,0.4,0.6,0.7c0.1,0.3,0.2,0.7,0.2,1.2c0,0.2-0.1,0.3-0.1,0.4
			c-0.1,0.1-0.2,0.1-0.3,0.1c-0.1,0-0.2-0.1-0.3-0.1c-0.1-0.1-0.1-0.2-0.1-0.3c0-0.6-0.1-1-0.4-1.2s-0.9-0.2-1.8-0.2h-1.3
			c-0.5,0-0.8,0.1-1,0.3C366.7,83.8,366.5,84.1,366.5,84.4z"/>
		<path fill="#FFFFFF" d="M196.7,101.7v3h4.7c0.3,0,0.6,0.1,0.6,0.5c0,0.3-0.2,0.4-0.6,0.4h-5.2c-0.3,0-0.4-0.2-0.4-0.6v-6.6
			c0-0.3,0.1-0.6,0.4-0.6h5.2c0.3,0,0.6,0.1,0.6,0.5c0,0.3-0.2,0.4-0.6,0.4h-4.7v2.1h3.3c0.4,0,0.6,0.1,0.6,0.5
			c0,0.3-0.2,0.4-0.6,0.4L196.7,101.7L196.7,101.7z"/>
		<path fill="#FFFFFF" d="M209.3,105.6c-0.2,0-0.3,0-0.3-0.1l-4.5-6.3v5.9c0,0.3-0.1,0.5-0.4,0.5c-0.3,0-0.4-0.1-0.4-0.5v-6.9
			c0-0.3,0.1-0.6,0.4-0.6c0.2,0,0.3,0.1,0.5,0.3l4.4,6.1v-5.8c0-0.3,0.1-0.6,0.4-0.6c0.3,0,0.5,0.2,0.5,0.6v6.9
			C209.7,105.5,209.6,105.6,209.3,105.6z"/>
		<path fill="#FFFFFF" d="M216.8,102.7h-1.5c-0.4,0-0.6-0.1-0.6-0.4s0.2-0.5,0.6-0.5h2.4v2.4c0,0.4-0.1,0.8-0.3,1
			c-0.2,0.3-0.6,0.4-1,0.4h-1.9c-1,0-1.7-0.1-2.1-0.5c-0.4-0.3-0.7-0.9-0.7-1.7v-3.3c0-0.9,0.2-1.5,0.7-1.7s1.2-0.4,2.4-0.4h1.7
			c0.6,0,0.9,0.1,1,0.4c0.1,0.3,0.3,0.6,0.3,1c0,0.3-0.1,0.6-0.4,0.6c-0.3,0-0.4-0.2-0.4-0.6c0-0.3-0.1-0.4-0.1-0.5
			c-0.1-0.1-0.2-0.1-0.4-0.1h-1.7c-0.9,0-1.5,0.1-1.8,0.2c-0.3,0.1-0.4,0.6-0.4,1.1v3.3c0,0.6,0.1,1,0.4,1.1
			c0.3,0.1,0.8,0.2,1.6,0.2h1.9c0.2,0,0.3-0.1,0.4-0.1s0.1-0.2,0.1-0.5L216.8,102.7L216.8,102.7z"/>
		<path fill="#FFFFFF" d="M220.5,105.2c0,0.3-0.1,0.5-0.5,0.5c-0.3,0-0.4-0.1-0.4-0.5v-6.9c0-0.3,0.1-0.5,0.4-0.5
			c0.3,0,0.4,0.1,0.4,0.5L220.5,105.2L220.5,105.2z"/>
		<path fill="#FFFFFF" d="M228.2,105.6c-0.2,0-0.3,0-0.3-0.1l-4.5-6.3v5.9c0,0.3-0.1,0.5-0.4,0.5c-0.3,0-0.4-0.1-0.4-0.5v-6.9
			c0-0.3,0.1-0.6,0.4-0.6c0.2,0,0.3,0.1,0.5,0.3l4.4,6.1v-5.8c0-0.3,0.1-0.6,0.4-0.6c0.3,0,0.5,0.2,0.5,0.6v6.9
			C228.7,105.5,228.6,105.6,228.2,105.6z"/>
		<path fill="#FFFFFF" d="M231.6,101.7v3h4.7c0.3,0,0.6,0.1,0.6,0.5c0,0.3-0.2,0.4-0.6,0.4h-5.2c-0.3,0-0.4-0.2-0.4-0.6v-6.6
			c0-0.3,0.1-0.6,0.4-0.6h5.2c0.3,0,0.6,0.1,0.6,0.5c0,0.3-0.2,0.4-0.6,0.4h-4.7v2.1h3.3c0.4,0,0.6,0.1,0.6,0.5
			c0,0.3-0.2,0.4-0.6,0.4L231.6,101.7L231.6,101.7z"/>
		<path fill="#FFFFFF" d="M241.6,105v-6.6c0-0.3,0.1-0.6,0.4-0.6h2.3c1,0,1.7,0.1,2.2,0.4s0.7,0.8,0.7,1.5c0,0.6-0.1,1-0.5,1.4
			c0.7,0.3,1,1,1,2v0.2c0,0.9-0.2,1.5-0.7,1.8s-1.2,0.5-2.4,0.5h-2.6C241.8,105.6,241.6,105.4,241.6,105z M244.3,100.9
			c0.8,0,1.3-0.1,1.6-0.2c0.3-0.1,0.4-0.4,0.4-0.9c0-0.4-0.1-0.8-0.4-0.9c-0.3-0.1-0.8-0.2-1.6-0.2h-1.8v2.2L244.3,100.9
			L244.3,100.9z M244.9,101.8h-2.4v2.9h2.2c0.9,0,1.5-0.1,1.7-0.2c0.3-0.1,0.4-0.6,0.4-1.1v-0.2c0-0.6-0.1-1-0.4-1.1
			C246.1,101.9,245.7,101.8,244.9,101.8z"/>
		<path fill="#FFFFFF" d="M249.9,105.6c-0.3,0-0.4-0.2-0.4-0.6v-6.8c0-0.1,0.1-0.3,0.1-0.3c0.1-0.1,0.2-0.1,0.3-0.1s0.2,0.1,0.3,0.1
			c0.1,0.1,0.1,0.2,0.1,0.3v6.4h4.1c0.3,0,0.6,0.1,0.6,0.5c0,0.3-0.2,0.4-0.6,0.4L249.9,105.6L249.9,105.6z"/>
		<path fill="#FFFFFF" d="M258.8,105.7c-0.9,0-1.7-0.3-2.2-0.8c-0.6-0.5-0.8-1.2-0.8-2.1v-2.1c0-0.9,0.3-1.6,0.8-2.1
			c0.6-0.6,1.3-0.8,2.2-0.8s1.7,0.3,2.2,0.8c0.6,0.5,0.8,1.2,0.8,2.1v2.1c0,0.9-0.3,1.6-0.8,2.1
			C260.5,105.5,259.7,105.7,258.8,105.7z M260.5,99.1c-0.3-0.3-0.9-0.6-1.7-0.6s-1.2,0.2-1.7,0.6c-0.4,0.3-0.6,0.9-0.6,1.5v2.1
			c0,0.7,0.2,1.2,0.6,1.5c0.3,0.3,0.9,0.6,1.7,0.6s1.2-0.2,1.7-0.6c0.4-0.3,0.6-0.9,0.6-1.5v-2.1C261,100,260.8,99.5,260.5,99.1z"/>
		<path fill="#FFFFFF" d="M271.2,104.4l1.9-6.4c0.1-0.2,0.2-0.3,0.5-0.3c0.3,0,0.4,0.1,0.4,0.3c0,0.1,0,0.1-0.1,0.2l-2.4,7.3h-0.9
			l-2.1-6.4l-2.1,6.4h-0.9l-2.4-7.3c0-0.1-0.1-0.1-0.1-0.2c0-0.3,0.1-0.3,0.4-0.3c0.2,0,0.4,0.1,0.5,0.3l2,6.4L268,98
			c0.1-0.3,0.3-0.4,0.5-0.4c0.3,0,0.4,0.1,0.6,0.4L271.2,104.4z"/>
		<path fill="#FFFFFF" d="M275.9,99.8c0,0.3,0.1,0.6,0.2,0.8c0.1,0.2,0.3,0.3,0.4,0.3l3.3,0.6c0.6,0.1,1,0.3,1.2,0.8
			s0.4,0.8,0.4,1.4s-0.2,1-0.6,1.5c-0.3,0.4-1,0.6-1.7,0.6h-1.2c-1,0-1.9-0.1-2.4-0.5c-0.5-0.3-0.7-0.9-0.7-1.9
			c0-0.3,0.1-0.6,0.5-0.6c0.1,0,0.2,0.1,0.3,0.1c0.1,0.1,0.1,0.2,0.1,0.3c0,0.6,0.1,1,0.4,1.2c0.3,0.1,0.8,0.3,1.7,0.3h1.5
			c0.4,0,0.7-0.1,0.9-0.4s0.3-0.6,0.3-0.8c0-0.3-0.1-0.6-0.2-0.9s-0.3-0.3-0.4-0.3l-3.3-0.6c-0.6-0.1-1-0.3-1.3-0.6
			c-0.3-0.3-0.4-0.8-0.4-1.3c0-0.3,0.1-0.5,0.1-0.7c0.1-0.2,0.2-0.4,0.4-0.6c0.2-0.2,0.4-0.3,0.8-0.5c0.3-0.1,0.8-0.2,1.2-0.2h0.9
			c0.6,0,1,0,1.3,0.1c0.3,0.1,0.7,0.1,1,0.3c0.3,0.2,0.5,0.4,0.6,0.7s0.2,0.7,0.2,1.2c0,0.2-0.1,0.3-0.1,0.4
			c-0.1,0.1-0.2,0.1-0.3,0.1c-0.1,0-0.2-0.1-0.3-0.1c-0.1-0.1-0.1-0.2-0.1-0.3c0-0.6-0.1-1-0.4-1.2c-0.3-0.1-0.9-0.2-1.8-0.2h-1.3
			c-0.5,0-0.8,0.1-1,0.3C276.1,99.3,275.9,99.5,275.9,99.8z"/>
		<path fill="#DE573D" d="M288.7,98.6L288.7,98.6c-0.2,0.2-0.3,0.3-0.5,0.3c-0.1,0-0.3-0.1-0.3-0.1s-0.1-0.1-0.1-0.3
			c0-0.1,0.1-0.3,0.2-0.4l0.8-0.8c0.1-0.1,0.3-0.2,0.4-0.2c0.1,0,0.2,0.1,0.3,0.1s0.1,0.2,0.1,0.3v7.5c0,0.3-0.1,0.5-0.4,0.5
			s-0.4-0.1-0.4-0.5L288.7,98.6L288.7,98.6z"/>
		<path fill="#DE573D" d="M293.2,99.9c0-0.3,0.1-0.6,0.1-0.8c0.1-0.2,0.3-0.4,0.5-0.6c0.2-0.2,0.4-0.3,0.6-0.3
			c0.2-0.1,0.5-0.1,0.8-0.2c0.3-0.1,0.5-0.1,0.7-0.1c0.2,0,0.4,0,0.6,0c1.9,0,2.8,0.7,2.8,2.1c0,0.8-0.1,1.7-0.4,2.4
			c-0.3,0.8-0.6,1.4-1,1.9c-0.4,0.5-1,0.9-1.5,1.2s-1.2,0.4-1.7,0.4c-0.3,0-0.5-0.1-0.5-0.4c0-0.1,0.1-0.2,0.1-0.3
			c0.1-0.1,0.2-0.1,0.4-0.1c0.3,0,0.6-0.1,0.9-0.2c0.3-0.1,0.7-0.3,1-0.6c0.3-0.3,0.7-0.6,1-1c0.3-0.4,0.6-0.9,0.7-1.5
			c-0.4,0.2-1,0.3-1.7,0.3C294.4,102,293.2,101.3,293.2,99.9z M296.5,98.6c-1.6,0-2.4,0.4-2.4,1.2c0,0.2,0.1,0.4,0.1,0.6
			c0.1,0.1,0.2,0.3,0.3,0.3c0.1,0.1,0.3,0.1,0.6,0.2c0.2,0.1,0.4,0.1,0.6,0.1s0.4,0,0.7,0c0.8,0,1.2-0.1,1.5-0.3
			c0.3-0.2,0.4-0.6,0.4-0.9c0-0.3-0.1-0.7-0.4-0.9C297.7,98.7,297.3,98.6,296.5,98.6z"/>
		<path fill="#DE573D" d="M300.9,105.8c-0.2,0-0.3-0.1-0.5-0.2c-0.1-0.1-0.2-0.3-0.2-0.4c0-0.1,0.1-0.3,0.3-0.4
			c0.2-0.1,0.3-0.2,0.5-0.2c0.1,0,0.3,0.1,0.5,0.2c0.1,0.1,0.3,0.3,0.3,0.4c0,0.1-0.1,0.3-0.3,0.4
			C301.2,105.7,301,105.8,300.9,105.8z"/>
		<path fill="#DE573D" d="M308.3,103.6h-0.6v1.5c0,0.3-0.1,0.5-0.4,0.5c-0.1,0-0.2-0.1-0.3-0.1c-0.1-0.1-0.1-0.2-0.1-0.3v-1.5h-4.2
			v-0.9l4.1-4.9h1v5h0.6c0.3,0,0.6,0.1,0.6,0.4S308.6,103.6,308.3,103.6z M306.8,102.7v-3.9l-3.2,3.9H306.8z"/>
		<path fill="#DE573D" d="M314,105.6c-0.3,0-0.4-0.2-0.4-0.6v-6.8c0-0.1,0.1-0.3,0.1-0.3c0.1-0.1,0.2-0.1,0.3-0.1
			c0.1,0,0.2,0.1,0.3,0.1c0.1,0.1,0.1,0.2,0.1,0.3v6.4h4.1c0.3,0,0.6,0.1,0.6,0.5c0,0.3-0.2,0.4-0.6,0.4L314,105.6L314,105.6z"/>
		<path fill="#DE573D" d="M320.3,105v-6.6c0-0.3,0.1-0.6,0.4-0.6h2.3c1,0,1.7,0.1,2.2,0.4s0.7,0.8,0.7,1.5c0,0.6-0.1,1-0.5,1.4
			c0.7,0.3,1,1,1,2v0.2c0,0.9-0.2,1.5-0.7,1.8s-1.2,0.5-2.4,0.5h-2.6C320.4,105.6,320.3,105.4,320.3,105z M323,100.9
			c0.8,0,1.3-0.1,1.6-0.2c0.3-0.1,0.4-0.4,0.4-0.9c0-0.4-0.1-0.8-0.4-0.9c-0.3-0.1-0.8-0.2-1.6-0.2h-1.8v2.2L323,100.9L323,100.9z
			 M323.6,101.8h-2.4v2.9h2.2c0.9,0,1.5-0.1,1.7-0.2s0.4-0.6,0.4-1.1v-0.2c0-0.6-0.1-1-0.4-1.1S324.4,101.8,323.6,101.8z"/>
		<path fill="#DE573D" d="M328.7,99.8c0,0.3,0.1,0.6,0.2,0.8c0.1,0.2,0.3,0.3,0.4,0.3l3.3,0.6c0.6,0.1,1,0.3,1.2,0.8
			c0.2,0.4,0.4,0.8,0.4,1.4s-0.2,1-0.6,1.5s-1,0.6-1.7,0.6h-1.2c-1,0-1.9-0.1-2.4-0.5c-0.5-0.3-0.7-0.9-0.7-1.9
			c0-0.3,0.1-0.6,0.5-0.6c0.1,0,0.2,0.1,0.3,0.1c0.1,0.1,0.1,0.2,0.1,0.3c0,0.6,0.1,1,0.4,1.2c0.3,0.1,0.8,0.3,1.7,0.3h1.5
			c0.4,0,0.7-0.1,0.9-0.4c0.2-0.3,0.3-0.6,0.3-0.8c0-0.3-0.1-0.6-0.2-0.9s-0.3-0.3-0.4-0.3l-3.3-0.6c-0.6-0.1-1-0.3-1.3-0.6
			s-0.4-0.8-0.4-1.3c0-0.3,0.1-0.5,0.1-0.7c0.1-0.2,0.2-0.4,0.4-0.6c0.2-0.2,0.4-0.3,0.8-0.5c0.3-0.1,0.8-0.2,1.2-0.2h0.9
			c0.6,0,1,0,1.3,0.1c0.3,0.1,0.7,0.1,1,0.3c0.3,0.2,0.5,0.4,0.6,0.7s0.2,0.7,0.2,1.2c0,0.2-0.1,0.3-0.1,0.4
			c-0.1,0.1-0.2,0.1-0.3,0.1c-0.1,0-0.2-0.1-0.3-0.1c-0.1-0.1-0.1-0.2-0.1-0.3c0-0.6-0.1-1-0.4-1.2c-0.3-0.1-0.9-0.2-1.8-0.2H330
			c-0.5,0-0.8,0.1-1,0.3C328.9,99.3,328.7,99.5,328.7,99.8z"/>
		<path fill="#DE573D" d="M342.2,105.7c-0.9,0-1.7-0.3-2.2-0.8c-0.6-0.5-0.8-1.2-0.8-2.1v-2.1c0-0.9,0.3-1.6,0.8-2.1
			s1.3-0.8,2.2-0.8c0.9,0,1.7,0.3,2.2,0.8s0.8,1.2,0.8,2.1v2.1c0,0.9-0.3,1.6-0.8,2.1C343.8,105.5,343.1,105.7,342.2,105.7z
			 M343.7,99.1c-0.3-0.3-0.9-0.6-1.7-0.6c-0.8,0-1.2,0.2-1.7,0.6c-0.4,0.3-0.6,0.9-0.6,1.5v2.1c0,0.7,0.2,1.2,0.6,1.5
			c0.3,0.3,0.9,0.6,1.7,0.6c0.8,0,1.2-0.2,1.7-0.6c0.4-0.3,0.6-0.9,0.6-1.5v-2.1C344.3,100,344.2,99.5,343.7,99.1z"/>
		<path fill="#DE573D" d="M347.9,105.2c0,0.3-0.1,0.5-0.4,0.5s-0.4-0.2-0.4-0.6v-6.8c0-0.3,0.1-0.6,0.4-0.6h5.2
			c0.3,0,0.6,0.1,0.6,0.5c0,0.3-0.2,0.4-0.6,0.4H348v2.1h3.3c0.4,0,0.6,0.1,0.6,0.5c0,0.3-0.2,0.4-0.6,0.4H348L347.9,105.2
			L347.9,105.2z"/>
		<path fill="#DE573D" d="M362.3,105.6h-1.7c-1.1,0-1.9-0.1-2.4-0.5c-0.5-0.3-0.7-0.9-0.7-1.8V100c0-0.9,0.2-1.5,0.7-1.8
			c0.5-0.3,1.2-0.5,2.1-0.5h1.9c0.6,0,0.9,0.1,1,0.4c0.1,0.3,0.3,0.6,0.3,1.1c0,0.3-0.1,0.6-0.4,0.6c-0.1,0-0.2-0.1-0.3-0.1
			c-0.1-0.1-0.1-0.2-0.1-0.4c0-0.3-0.1-0.4-0.1-0.5c-0.1-0.1-0.2-0.1-0.4-0.1h-1.9c-0.8,0-1.3,0.1-1.6,0.3c-0.3,0.2-0.4,0.6-0.4,1.2
			v3.2c0,0.6,0.1,1,0.4,1.2c0.3,0.2,0.9,0.2,1.8,0.2h1.7c0.2,0,0.3-0.1,0.4-0.1c0.1-0.1,0.1-0.3,0.1-0.5c0-0.2,0.1-0.3,0.1-0.4
			c0.1-0.1,0.2-0.1,0.3-0.1c0.3,0,0.4,0.2,0.4,0.6c0,0.4-0.1,0.8-0.3,1C363.1,105.3,362.8,105.6,362.3,105.6z"/>
		<path fill="#DE573D" d="M371,103.6c0,0.6-0.2,1-0.7,1.5c-0.5,0.4-1,0.6-1.7,0.6h-1.4c-0.7,0-1.2-0.2-1.7-0.6
			c-0.5-0.3-0.7-0.8-0.7-1.5v-3.9c0-0.6,0.2-1,0.7-1.5s1-0.6,1.7-0.6h1.4c0.7,0,1.2,0.2,1.7,0.6c0.5,0.3,0.7,0.8,0.7,1.5V103.6z
			 M365.7,99.6v4.2c0,0.2,0.1,0.4,0.4,0.6c0.3,0.2,0.6,0.3,1,0.3h1.7c0.4,0,0.7-0.1,1-0.3c0.3-0.2,0.4-0.4,0.4-0.6v-4.2
			c0-0.2-0.1-0.4-0.4-0.6c-0.3-0.2-0.6-0.3-1-0.3h-1.7c-0.4,0-0.7,0.1-1,0.3C365.8,99.2,365.7,99.4,365.7,99.6z"/>
		<path fill="#DE573D" d="M378.2,100c0,0.4-0.1,0.8-0.5,1.1c-0.3,0.3-0.8,0.6-1.2,0.8c-0.5,0.2-1,0.5-1.5,0.7
			c-0.6,0.2-1,0.6-1.3,0.9c-0.3,0.3-0.6,0.8-0.6,1.2h4.7c0.3,0,0.6,0.1,0.6,0.5c0,0.3-0.2,0.4-0.6,0.4h-5.6v-0.7
			c0-0.6,0.2-1,0.6-1.5c0.3-0.5,0.8-0.8,1.3-1c0.5-0.2,1-0.5,1.5-0.8s1-0.5,1.3-0.7c0.3-0.2,0.6-0.6,0.6-0.8c0-0.6-0.1-1-0.4-1.2
			s-0.8-0.3-1.6-0.3h-1.9c-0.2,0-0.3,0.1-0.4,0.1c-0.1,0.1-0.1,0.3-0.1,0.5c0,0.3-0.1,0.6-0.5,0.6c-0.3,0-0.4-0.2-0.4-0.6
			c0-0.6,0.1-0.9,0.3-1.2c0.2-0.3,0.6-0.3,1-0.3h1.9c1,0,1.7,0.1,2.1,0.5C377.9,98.6,378.2,99.1,378.2,100z"/>
		<path fill="#FFFFFF" d="M216.2,121.1c-0.9,0-1.7-0.3-2.2-0.8c-0.6-0.5-0.8-1.2-0.8-2.1V116c0-0.9,0.3-1.6,0.8-2.1
			c0.6-0.6,1.3-0.8,2.2-0.8s1.7,0.3,2.2,0.8c0.6,0.5,0.8,1.2,0.8,2.1v2.1c0,0.9-0.3,1.6-0.8,2.1
			C217.9,120.9,217.1,121.1,216.2,121.1z M217.9,114.6c-0.3-0.3-0.9-0.6-1.7-0.6c-0.8,0-1.2,0.2-1.7,0.6c-0.4,0.3-0.6,0.9-0.6,1.5
			v2.1c0,0.7,0.2,1.2,0.6,1.5c0.3,0.3,0.9,0.6,1.7,0.6c0.8,0,1.2-0.2,1.7-0.6c0.4-0.3,0.6-0.9,0.6-1.5v-2.1
			C218.4,115.4,218.2,114.9,217.9,114.6z"/>
		<path fill="#FFFFFF" d="M226.3,113.7c0-0.3,0.1-0.5,0.5-0.5c0.3,0,0.4,0.1,0.4,0.5v4.5c0,0.9-0.3,1.6-0.8,2.1s-1.3,0.8-2.2,0.8
			c-0.9,0-1.7-0.3-2.2-0.8c-0.6-0.5-0.8-1.2-0.8-2.1v-4.5c0-0.3,0.1-0.5,0.4-0.5c0.1,0,0.2,0.1,0.3,0.1c0.1,0.1,0.1,0.2,0.1,0.3v4.5
			c0,0.7,0.2,1.2,0.6,1.5c0.3,0.3,0.9,0.6,1.7,0.6c0.8,0,1.2-0.2,1.7-0.6c0.4-0.3,0.6-0.9,0.6-1.5L226.3,113.7L226.3,113.7z"/>
		<path fill="#FFFFFF" d="M233.6,113.3c0.3,0,0.6,0.1,0.6,0.5c0,0.3-0.2,0.4-0.6,0.4h-1.8v6.4c0,0.1-0.1,0.3-0.1,0.3
			c-0.1,0.1-0.2,0.1-0.3,0.1s-0.3-0.1-0.3-0.1c-0.1-0.1-0.1-0.2-0.1-0.3v-6.4H229c-0.2,0-0.3-0.1-0.4-0.1c-0.1-0.1-0.1-0.2-0.1-0.3
			c0-0.1,0.1-0.2,0.1-0.3c0.1-0.1,0.2-0.1,0.4-0.1L233.6,113.3L233.6,113.3z"/>
		<path fill="#FFFFFF" d="M241.4,121.1c-0.9,0-1.7-0.3-2.2-0.8c-0.6-0.5-0.8-1.2-0.8-2.1V116c0-0.9,0.3-1.6,0.8-2.1
			c0.6-0.6,1.3-0.8,2.2-0.8s1.7,0.3,2.2,0.8c0.6,0.5,0.8,1.2,0.8,2.1v2.1c0,0.9-0.3,1.6-0.8,2.1
			C243.1,120.9,242.3,121.1,241.4,121.1z M243.1,114.6c-0.3-0.3-0.9-0.6-1.7-0.6c-0.8,0-1.2,0.2-1.7,0.6c-0.4,0.3-0.6,0.9-0.6,1.5
			v2.1c0,0.7,0.2,1.2,0.6,1.5c0.3,0.3,0.9,0.6,1.7,0.6c0.8,0,1.2-0.2,1.7-0.6c0.4-0.3,0.6-0.9,0.6-1.5v-2.1
			C243.7,115.4,243.4,114.9,243.1,114.6z"/>
		<path fill="#FFFFFF" d="M247.2,120.5c0,0.3-0.1,0.5-0.4,0.5c-0.3,0-0.4-0.2-0.4-0.6v-6.8c0-0.3,0.1-0.6,0.4-0.6h5.2
			c0.3,0,0.6,0.1,0.6,0.5c0,0.3-0.2,0.4-0.6,0.4h-4.7v2.1h3.3c0.4,0,0.6,0.1,0.6,0.5c0,0.3-0.2,0.4-0.6,0.4h-3.3L247.2,120.5
			L247.2,120.5z"/>
		<path fill="#FFFFFF" d="M261.5,113.3c0.3,0,0.6,0.1,0.6,0.5c0,0.3-0.2,0.4-0.6,0.4h-1.8v6.4c0,0.1-0.1,0.3-0.1,0.3
			c-0.1,0.1-0.2,0.1-0.3,0.1c-0.1,0-0.3-0.1-0.3-0.1c-0.1-0.1-0.1-0.2-0.1-0.3v-6.4h-1.8c-0.2,0-0.3-0.1-0.4-0.1
			c-0.1-0.1-0.1-0.2-0.1-0.3c0-0.1,0.1-0.2,0.1-0.3c0.1-0.1,0.2-0.1,0.4-0.1L261.5,113.3L261.5,113.3z"/>
		<path fill="#FFFFFF" d="M264.2,120.5c0,0.3-0.1,0.5-0.4,0.5c-0.3,0-0.4-0.1-0.4-0.5v-6.9c0-0.3,0.1-0.6,0.4-0.6
			c0.3,0,0.5,0.2,0.5,0.6v2.7h4.4v-2.7c0-0.3,0.1-0.6,0.4-0.6c0.3,0,0.5,0.2,0.5,0.6v6.9c0,0.3-0.1,0.5-0.4,0.5
			c-0.3,0-0.5-0.1-0.5-0.5v-3.3h-4.4L264.2,120.5L264.2,120.5z"/>
		<path fill="#FFFFFF" d="M272.3,117.1v3h4.7c0.3,0,0.6,0.1,0.6,0.5c0,0.3-0.2,0.4-0.6,0.4h-5.2c-0.3,0-0.4-0.2-0.4-0.6v-6.6
			c0-0.3,0.1-0.6,0.4-0.6h5.2c0.3,0,0.6,0.1,0.6,0.5c0,0.3-0.2,0.4-0.6,0.4h-4.7v2.1h3.3c0.4,0,0.6,0.1,0.6,0.5
			c0,0.3-0.2,0.4-0.6,0.4L272.3,117.1L272.3,117.1z"/>
		<path fill="#FFFFFF" d="M283.3,117.1v3h4.7c0.3,0,0.6,0.1,0.6,0.5c0,0.3-0.2,0.4-0.6,0.4h-5.2c-0.3,0-0.4-0.2-0.4-0.6v-6.6
			c0-0.3,0.1-0.6,0.4-0.6h5.2c0.3,0,0.6,0.1,0.6,0.5c0,0.3-0.2,0.4-0.6,0.4h-4.7v2.1h3.3c0.4,0,0.6,0.1,0.6,0.5
			c0,0.3-0.2,0.4-0.6,0.4L283.3,117.1L283.3,117.1z"/>
		<path fill="#FFFFFF" d="M295.5,113.2c0.1,0,0.2,0,0.3,0.1s0.1,0.2,0.1,0.3c0,0.1-0.1,0.2-0.1,0.3l-2.5,3.3l2.5,3.2
			c0.1,0.1,0.1,0.2,0.1,0.3s-0.1,0.2-0.1,0.3c-0.1,0.1-0.2,0.1-0.3,0.1c-0.1,0-0.3-0.1-0.4-0.3l-2.4-3.1l-2.4,3.1
			c-0.1,0.1-0.3,0.3-0.4,0.3c-0.1,0-0.2-0.1-0.3-0.1c-0.1-0.1-0.1-0.1-0.1-0.3c0-0.1,0.1-0.2,0.1-0.3l2.5-3.2l-2.5-3.3
			c-0.1-0.1-0.1-0.2-0.1-0.3c0-0.1,0-0.2,0.1-0.3c0.1-0.1,0.1-0.1,0.2-0.1s0.1,0,0.1,0c0.1,0,0.3,0.1,0.4,0.3l2.4,3.1l2.4-3.1
			C295.3,113.3,295.4,113.2,295.5,113.2z"/>
		<path fill="#FFFFFF" d="M298.4,120.5c0,0.3-0.1,0.5-0.4,0.5c-0.3,0-0.4-0.1-0.4-0.5v-6.9c0-0.3,0.1-0.6,0.4-0.6
			c0.3,0,0.5,0.2,0.5,0.6v2.7h4.4v-2.7c0-0.3,0.1-0.6,0.4-0.6c0.3,0,0.5,0.2,0.5,0.6v6.9c0,0.3-0.1,0.5-0.4,0.5
			c-0.3,0-0.5-0.1-0.5-0.5v-3.3h-4.4L298.4,120.5L298.4,120.5z"/>
		<path fill="#FFFFFF" d="M308.9,113.3l2.9,7.3c0,0.1,0.1,0.1,0.1,0.2c0,0.1-0.1,0.3-0.1,0.3c-0.1,0.1-0.2,0.1-0.3,0.1
			c-0.2,0-0.3-0.1-0.5-0.3l-0.8-2.1h-3.4l-0.8,2.1c-0.1,0.2-0.3,0.3-0.5,0.3c-0.1,0-0.2,0-0.3-0.1c-0.1-0.1-0.1-0.1-0.1-0.3
			c0-0.1,0-0.1,0.1-0.2l2.9-7.3H308.9z M307,117.8h2.7l-1.4-3.3L307,117.8z"/>
		<path fill="#FFFFFF" d="M318.2,113.7c0-0.3,0.1-0.5,0.5-0.5c0.3,0,0.4,0.1,0.4,0.5v4.5c0,0.9-0.3,1.6-0.8,2.1s-1.3,0.8-2.2,0.8
			c-0.9,0-1.7-0.3-2.2-0.8c-0.6-0.5-0.8-1.2-0.8-2.1v-4.5c0-0.3,0.1-0.5,0.4-0.5c0.1,0,0.2,0.1,0.3,0.1c0.1,0.1,0.1,0.2,0.1,0.3v4.5
			c0,0.7,0.2,1.2,0.6,1.5c0.3,0.3,0.9,0.6,1.7,0.6c0.8,0,1.2-0.2,1.7-0.6c0.4-0.3,0.6-0.9,0.6-1.5L318.2,113.7L318.2,113.7z"/>
		<path fill="#FFFFFF" d="M321.6,115.2c0,0.3,0.1,0.6,0.2,0.8c0.1,0.2,0.3,0.3,0.4,0.3l3.3,0.6c0.6,0.1,1,0.3,1.2,0.8
			c0.2,0.4,0.4,0.8,0.4,1.4s-0.2,1-0.6,1.5s-1,0.6-1.7,0.6h-1.2c-1,0-1.9-0.1-2.4-0.5c-0.5-0.3-0.7-0.9-0.7-1.9
			c0-0.3,0.1-0.6,0.5-0.6c0.1,0,0.2,0.1,0.3,0.1c0.1,0.1,0.1,0.2,0.1,0.3c0,0.6,0.1,1,0.4,1.2c0.3,0.1,0.8,0.3,1.7,0.3h1.5
			c0.4,0,0.7-0.1,0.9-0.4c0.2-0.3,0.3-0.6,0.3-0.8c0-0.3-0.1-0.6-0.2-0.9c-0.1-0.3-0.3-0.3-0.4-0.3l-3.3-0.6c-0.6-0.1-1-0.3-1.3-0.6
			c-0.3-0.3-0.4-0.8-0.4-1.3c0-0.3,0.1-0.5,0.1-0.7c0.1-0.2,0.2-0.4,0.4-0.6c0.2-0.2,0.4-0.3,0.8-0.5c0.3-0.1,0.8-0.2,1.2-0.2h0.9
			c0.6,0,1,0,1.3,0.1c0.3,0.1,0.7,0.1,1,0.3c0.3,0.2,0.5,0.4,0.6,0.7s0.2,0.7,0.2,1.2c0,0.2-0.1,0.3-0.1,0.4
			c-0.1,0.1-0.2,0.1-0.3,0.1c-0.1,0-0.2-0.1-0.3-0.1c-0.1-0.1-0.1-0.2-0.1-0.3c0-0.6-0.1-1-0.4-1.2c-0.3-0.1-0.9-0.2-1.8-0.2h-1.3
			c-0.5,0-0.8,0.1-1,0.3C321.7,114.6,321.6,114.9,321.6,115.2z"/>
		<path fill="#FFFFFF" d="M333.5,113.3c0.3,0,0.6,0.1,0.6,0.5c0,0.3-0.2,0.4-0.6,0.4h-1.8v6.4c0,0.1-0.1,0.3-0.1,0.3
			c-0.1,0.1-0.2,0.1-0.3,0.1c-0.1,0-0.3-0.1-0.3-0.1c-0.1-0.1-0.1-0.2-0.1-0.3v-6.4h-1.8c-0.2,0-0.3-0.1-0.4-0.1s-0.1-0.2-0.1-0.3
			c0-0.1,0.1-0.2,0.1-0.3c0.1-0.1,0.2-0.1,0.4-0.1L333.5,113.3L333.5,113.3z"/>
		<path fill="#FFFFFF" d="M341.7,113.3l2.9,7.3c0,0.1,0.1,0.1,0.1,0.2c0,0.1-0.1,0.3-0.1,0.3c-0.1,0.1-0.2,0.1-0.3,0.1
			c-0.2,0-0.3-0.1-0.5-0.3l-0.8-2.1h-3.4l-0.8,2.1c-0.1,0.2-0.3,0.3-0.5,0.3c-0.1,0-0.2,0-0.3-0.1c-0.1-0.1-0.1-0.1-0.1-0.3
			c0-0.1,0-0.1,0.1-0.2l2.9-7.3H341.7z M339.9,117.8h2.7l-1.4-3.3L339.9,117.8z"/>
		<path fill="#FFFFFF" d="M351.6,121.1c-0.2,0-0.3,0-0.3-0.1l-4.5-6.3v5.9c0,0.3-0.1,0.5-0.4,0.5s-0.4-0.1-0.4-0.5v-6.9
			c0-0.3,0.1-0.6,0.4-0.6c0.2,0,0.3,0.1,0.5,0.3l4.4,6.1v-5.8c0-0.3,0.1-0.6,0.4-0.6c0.3,0,0.5,0.2,0.5,0.6v6.9
			C352.1,120.9,351.9,121.1,351.6,121.1z"/>
		<path fill="#FFFFFF" d="M360.3,115.5v3.3c0,0.9-0.2,1.5-0.7,1.8c-0.5,0.3-1.2,0.5-2.4,0.5h-2.6c-0.3,0-0.4-0.2-0.4-0.6v-6.6
			c0-0.3,0.1-0.6,0.4-0.6h2.8c1,0,1.7,0.1,2.1,0.5C360,114.1,360.3,114.6,360.3,115.5z M359.4,118.7v-3.2c0-0.6-0.1-1-0.4-1.2
			c-0.3-0.2-0.8-0.3-1.6-0.3H355v6h2.2c0.9,0,1.5-0.1,1.8-0.2C359.3,119.7,359.4,119.4,359.4,118.7z"/>
		<path fill="#FFFFFF" d="M228.3,130.9v3.3c0,0.9-0.2,1.5-0.7,1.8s-1.2,0.5-2.4,0.5h-2.6c-0.3,0-0.4-0.2-0.4-0.6v-6.6
			c0-0.3,0.1-0.6,0.4-0.6h2.8c1,0,1.7,0.1,2.1,0.5C228.1,129.5,228.3,130,228.3,130.9z M227.4,134.1v-3.2c0-0.6-0.1-1-0.4-1.2
			c-0.3-0.2-0.8-0.3-1.6-0.3H223v6h2.2c0.9,0,1.5-0.1,1.8-0.2C227.3,135.1,227.4,134.7,227.4,134.1z"/>
		<path fill="#FFFFFF" d="M231.1,136c0,0.3-0.1,0.5-0.5,0.5c-0.3,0-0.4-0.1-0.4-0.5V129c0-0.3,0.1-0.5,0.4-0.5
			c0.3,0,0.4,0.1,0.4,0.5L231.1,136L231.1,136z"/>
		<path fill="#FFFFFF" d="M237.4,132.3c0.3,0.3,0.5,0.8,0.8,1.4c0.3,0.6,0.4,1.1,0.5,1.5c0.1,0.4,0.1,0.7,0.1,0.8
			c0,0.1-0.1,0.3-0.1,0.3s-0.2,0.1-0.3,0.1c-0.1,0-0.2-0.1-0.3-0.1c-0.1-0.1-0.1-0.2-0.1-0.3c0-0.1-0.1-0.4-0.2-0.8
			c-0.1-0.4-0.3-0.9-0.6-1.5c-0.3-0.6-0.6-1-1-1.2h-2.3v3.5c0,0.3-0.1,0.5-0.5,0.5c-0.3,0-0.4-0.1-0.4-0.5V129
			c0-0.3,0.1-0.6,0.4-0.6h2.3c1,0,1.7,0.1,2.2,0.4s0.7,0.8,0.7,1.5C238.7,131.4,238.3,132,237.4,132.3z M234,129.4v2.2h1.8
			c0.8,0,1.3-0.1,1.6-0.2c0.3-0.1,0.4-0.4,0.4-0.9s-0.1-0.8-0.4-0.9c-0.3-0.1-0.8-0.2-1.6-0.2L234,129.4L234,129.4z"/>
		<path fill="#FFFFFF" d="M241.4,132.5v3h4.7c0.3,0,0.6,0.1,0.6,0.5c0,0.3-0.2,0.4-0.6,0.4H241c-0.3,0-0.4-0.2-0.4-0.6v-6.6
			c0-0.3,0.1-0.6,0.4-0.6h5.2c0.3,0,0.6,0.1,0.6,0.5c0,0.3-0.2,0.4-0.6,0.4h-4.7v2.1h3.3c0.4,0,0.6,0.1,0.6,0.5
			c0,0.3-0.2,0.4-0.6,0.4L241.4,132.5L241.4,132.5z"/>
		<path fill="#FFFFFF" d="M252.9,136.4h-1.7c-1.1,0-1.9-0.1-2.4-0.5c-0.5-0.3-0.7-0.9-0.7-1.8v-3.3c0-0.9,0.2-1.5,0.7-1.8
			s1.2-0.5,2.1-0.5h1.9c0.6,0,0.9,0.1,1,0.4c0.1,0.3,0.3,0.6,0.3,1.1c0,0.3-0.1,0.6-0.4,0.6c-0.1,0-0.2-0.1-0.3-0.1
			c-0.1-0.1-0.1-0.2-0.1-0.4c0-0.3-0.1-0.4-0.1-0.5c-0.1-0.1-0.2-0.1-0.4-0.1H251c-0.8,0-1.3,0.1-1.6,0.3c-0.3,0.2-0.4,0.6-0.4,1.2
			v3.2c0,0.6,0.1,1,0.4,1.2c0.3,0.2,0.9,0.2,1.8,0.2h1.7c0.2,0,0.3-0.1,0.4-0.1c0.1-0.1,0.1-0.3,0.1-0.5s0.1-0.3,0.1-0.4
			c0.1-0.1,0.2-0.1,0.3-0.1c0.3,0,0.4,0.2,0.4,0.6c0,0.4-0.1,0.8-0.3,1C253.8,136.1,253.5,136.4,252.9,136.4z"/>
		<path fill="#FFFFFF" d="M260.4,128.6c0.3,0,0.6,0.1,0.6,0.5c0,0.3-0.2,0.4-0.6,0.4h-1.8v6.4c0,0.1-0.1,0.3-0.1,0.3
			c-0.1,0.1-0.2,0.1-0.3,0.1s-0.3-0.1-0.3-0.1s-0.1-0.2-0.1-0.3v-6.4h-1.8c-0.2,0-0.3-0.1-0.4-0.1c-0.1-0.1-0.1-0.2-0.1-0.3
			s0.1-0.2,0.1-0.3c0.1-0.1,0.2-0.1,0.4-0.1L260.4,128.6L260.4,128.6z"/>
		<path fill="#FFFFFF" d="M262.7,136.4c-0.3,0-0.4-0.2-0.4-0.6V129c0-0.1,0.1-0.3,0.1-0.3s0.2-0.1,0.3-0.1s0.2,0.1,0.3,0.1
			c0.1,0.1,0.1,0.2,0.1,0.3v6.4h4.1c0.3,0,0.6,0.1,0.6,0.5c0,0.3-0.2,0.4-0.6,0.4H262.7z"/>
		<path fill="#FFFFFF" d="M269.5,132.7l-2.7-3.4c-0.1-0.1-0.1-0.3-0.1-0.3c0-0.1,0.1-0.2,0.1-0.3s0.2-0.1,0.3-0.1
			c0.1,0,0.3,0.1,0.4,0.3l2.4,3.1l2.4-3.1c0.1-0.2,0.3-0.3,0.4-0.3c0.1,0,0.2,0.1,0.3,0.1c0.1,0.1,0.1,0.2,0.1,0.3
			c0,0.1-0.1,0.2-0.1,0.3l-2.6,3.4v3.3c0,0.3-0.1,0.5-0.4,0.5c-0.3,0-0.4-0.1-0.4-0.5V132.7L269.5,132.7z"/>
		<path fill="#FFFFFF" d="M278.4,136c0,0.3-0.1,0.5-0.5,0.5c-0.3,0-0.4-0.1-0.4-0.5V129c0-0.3,0.1-0.5,0.4-0.5
			c0.3,0,0.4,0.1,0.4,0.5L278.4,136L278.4,136z"/>
		<path fill="#FFFFFF" d="M286.2,136.5c-0.2,0-0.3,0-0.3-0.1l-4.5-6.3v5.9c0,0.3-0.1,0.5-0.4,0.5c-0.3,0-0.4-0.1-0.4-0.5v-6.9
			c0-0.3,0.1-0.6,0.4-0.6c0.2,0,0.3,0.1,0.5,0.3l4.4,6.1v-5.8c0-0.3,0.1-0.6,0.4-0.6c0.3,0,0.5,0.2,0.5,0.6v6.9
			C286.6,136.3,286.5,136.5,286.2,136.5z"/>
		<path fill="#FFFFFF" d="M293.1,128.6c0.3,0,0.6,0.1,0.6,0.5c0,0.3-0.2,0.4-0.6,0.4h-1.8v6.4c0,0.1-0.1,0.3-0.1,0.3
			c-0.1,0.1-0.2,0.1-0.3,0.1s-0.3-0.1-0.3-0.1s-0.1-0.2-0.1-0.3v-6.4h-1.8c-0.2,0-0.3-0.1-0.4-0.1c-0.1-0.1-0.1-0.2-0.1-0.3
			s0.1-0.2,0.1-0.3c0.1-0.1,0.2-0.1,0.4-0.1L293.1,128.6L293.1,128.6z"/>
		<path fill="#FFFFFF" d="M297.7,136.5c-0.9,0-1.7-0.3-2.2-0.8s-0.8-1.2-0.8-2.1v-2.1c0-0.9,0.3-1.6,0.8-2.1s1.3-0.8,2.2-0.8
			c0.9,0,1.7,0.3,2.2,0.8s0.8,1.2,0.8,2.1v2.1c0,0.9-0.3,1.6-0.8,2.1S298.6,136.5,297.7,136.5z M299.3,130c-0.3-0.3-0.9-0.6-1.7-0.6
			s-1.2,0.2-1.7,0.6c-0.4,0.3-0.6,0.9-0.6,1.5v2.1c0,0.7,0.2,1.2,0.6,1.5c0.3,0.3,0.9,0.6,1.7,0.6s1.2-0.2,1.7-0.6
			c0.4-0.3,0.6-0.9,0.6-1.5v-2.1C299.8,130.9,299.7,130.3,299.3,130z"/>
		<path fill="#FFFFFF" d="M306.5,132.5v3h4.7c0.3,0,0.6,0.1,0.6,0.5c0,0.3-0.2,0.4-0.6,0.4h-5.2c-0.3,0-0.4-0.2-0.4-0.6v-6.6
			c0-0.3,0.1-0.6,0.4-0.6h5.2c0.3,0,0.6,0.1,0.6,0.5c0,0.3-0.2,0.4-0.6,0.4h-4.7v2.1h3.3c0.4,0,0.6,0.1,0.6,0.5
			c0,0.3-0.2,0.4-0.6,0.4L306.5,132.5L306.5,132.5z"/>
		<path fill="#FFFFFF" d="M316.7,128.6l2.9,7.3c0,0.1,0.1,0.1,0.1,0.2c0,0.1-0.1,0.3-0.1,0.3c-0.1,0.1-0.2,0.1-0.3,0.1
			c-0.2,0-0.3-0.1-0.5-0.3l-0.8-2.1h-3.4l-0.8,2.1c-0.1,0.2-0.3,0.3-0.5,0.3c-0.1,0-0.2,0-0.3-0.1c-0.1-0.1-0.1-0.1-0.1-0.3
			c0-0.1,0-0.1,0.1-0.2l2.9-7.3H316.7z M314.8,133.2h2.7l-1.4-3.3L314.8,133.2z"/>
		<path fill="#FFFFFF" d="M325.2,132.3c0.3,0.3,0.5,0.8,0.8,1.4c0.3,0.6,0.4,1.1,0.5,1.5c0.1,0.4,0.1,0.7,0.1,0.8
			c0,0.1-0.1,0.3-0.1,0.3c-0.1,0.1-0.2,0.1-0.3,0.1c-0.1,0-0.2-0.1-0.3-0.1c-0.1-0.1-0.1-0.2-0.1-0.3c0-0.1-0.1-0.4-0.2-0.8
			c-0.1-0.4-0.3-0.9-0.6-1.5c-0.3-0.6-0.6-1-1-1.2h-2.3v3.5c0,0.3-0.1,0.5-0.5,0.5c-0.3,0-0.4-0.1-0.4-0.5V129
			c0-0.3,0.1-0.6,0.4-0.6h2.3c1,0,1.7,0.1,2.2,0.4c0.5,0.3,0.7,0.8,0.7,1.5C326.5,131.4,326.1,132,325.2,132.3z M321.7,129.4v2.2
			h1.8c0.8,0,1.3-0.1,1.6-0.2c0.3-0.1,0.4-0.4,0.4-0.9s-0.1-0.8-0.4-0.9c-0.3-0.1-0.8-0.2-1.6-0.2L321.7,129.4L321.7,129.4z"/>
		<path fill="#FFFFFF" d="M332.7,128.6c0.3,0,0.6,0.1,0.6,0.5c0,0.3-0.2,0.4-0.6,0.4h-1.8v6.4c0,0.1-0.1,0.3-0.1,0.3
			c-0.1,0.1-0.2,0.1-0.3,0.1c-0.1,0-0.3-0.1-0.3-0.1s-0.1-0.2-0.1-0.3v-6.4h-1.8c-0.2,0-0.3-0.1-0.4-0.1c-0.1-0.1-0.1-0.2-0.1-0.3
			s0.1-0.2,0.1-0.3c0.1-0.1,0.2-0.1,0.4-0.1L332.7,128.6L332.7,128.6z"/>
		<path fill="#FFFFFF" d="M335.4,136c0,0.3-0.1,0.5-0.4,0.5c-0.3,0-0.4-0.1-0.4-0.5v-6.9c0-0.3,0.1-0.6,0.4-0.6
			c0.3,0,0.5,0.2,0.5,0.6v2.7h4.4v-2.7c0-0.3,0.1-0.6,0.4-0.6c0.3,0,0.5,0.2,0.5,0.6v6.9c0,0.3-0.1,0.5-0.4,0.5
			c-0.3,0-0.5-0.1-0.5-0.5v-3.3h-4.4L335.4,136L335.4,136z"/>
		<path fill="#FFFFFF" d="M342.7,128.4c0-0.1,0.1-0.2,0.1-0.3c0.1-0.1,0.2-0.1,0.4-0.1c0.3,0,0.5,0.1,0.5,0.4c0,0.4-0.1,0.8-0.3,1.1
			c-0.2,0.3-0.4,0.5-0.6,0.5c-0.2,0-0.3-0.1-0.3-0.3c0-0.1,0.1-0.2,0.1-0.4C342.6,129,342.7,128.8,342.7,128.4z"/>
		<path fill="#FFFFFF" d="M346,130.6c0,0.3,0.1,0.6,0.2,0.8c0.1,0.2,0.3,0.3,0.4,0.3l3.3,0.6c0.6,0.1,1,0.3,1.2,0.8
			c0.2,0.4,0.4,0.8,0.4,1.4s-0.2,1-0.6,1.5c-0.3,0.4-1,0.6-1.7,0.6h-1.2c-1,0-1.9-0.1-2.4-0.5c-0.5-0.3-0.7-0.9-0.7-1.9
			c0-0.3,0.1-0.6,0.5-0.6c0.1,0,0.2,0.1,0.3,0.1c0.1,0.1,0.1,0.2,0.1,0.3c0,0.6,0.1,1,0.4,1.2c0.3,0.1,0.8,0.3,1.7,0.3h1.5
			c0.4,0,0.7-0.1,0.9-0.4s0.3-0.6,0.3-0.8c0-0.3-0.1-0.6-0.2-0.9c-0.1-0.3-0.3-0.3-0.4-0.3l-3.3-0.6c-0.6-0.1-1-0.3-1.3-0.6
			c-0.3-0.3-0.4-0.8-0.4-1.3c0-0.3,0.1-0.5,0.1-0.7c0.1-0.2,0.2-0.4,0.4-0.6c0.2-0.2,0.4-0.3,0.8-0.5c0.3-0.1,0.8-0.2,1.2-0.2h0.9
			c0.6,0,1,0,1.3,0.1c0.3,0.1,0.7,0.1,1,0.3s0.5,0.4,0.6,0.7c0.1,0.3,0.2,0.7,0.2,1.2c0,0.2-0.1,0.3-0.1,0.4
			c-0.1,0.1-0.2,0.1-0.3,0.1c-0.1,0-0.2-0.1-0.3-0.1c-0.1-0.1-0.1-0.2-0.1-0.3c0-0.6-0.1-1-0.4-1.2s-0.9-0.2-1.8-0.2h-1.3
			c-0.5,0-0.8,0.1-1,0.3C346.1,130.1,346,130.4,346,130.6z"/>
		<path fill="#FFFFFF" d="M253.4,144.1l2.9,7.3c0,0.1,0.1,0.1,0.1,0.2c0,0.1-0.1,0.3-0.1,0.3c-0.1,0.1-0.2,0.1-0.3,0.1
			c-0.2,0-0.3-0.1-0.5-0.3l-0.8-2.1h-3.4l-0.8,2.1c-0.1,0.2-0.3,0.3-0.5,0.3c-0.1,0-0.2,0-0.3-0.1c-0.1-0.1-0.1-0.1-0.1-0.3
			c0-0.1,0-0.1,0.1-0.2l2.9-7.3H253.4z M251.5,148.7h2.7l-1.4-3.3L251.5,148.7z"/>
		<path fill="#FFFFFF" d="M261.2,144.1c0.3,0,0.6,0.1,0.6,0.5c0,0.3-0.2,0.4-0.6,0.4h-1.8v6.4c0,0.1-0.1,0.3-0.1,0.3
			s-0.2,0.1-0.3,0.1s-0.3-0.1-0.3-0.1c-0.1-0.1-0.1-0.2-0.1-0.3V145h-1.8c-0.2,0-0.3-0.1-0.4-0.1s-0.1-0.2-0.1-0.3
			c0-0.1,0.1-0.2,0.1-0.3c0.1-0.1,0.2-0.1,0.4-0.1L261.2,144.1L261.2,144.1z"/>
		<path fill="#FFFFFF" d="M266.3,148.4c-0.1,0-0.2-0.1-0.3-0.1l-2-2.8v5.9c0,0.3-0.1,0.6-0.4,0.6c-0.3,0-0.4-0.1-0.4-0.5v-6.9
			c0-0.3,0.1-0.6,0.4-0.6c0.2,0,0.3,0.1,0.5,0.3l2.3,3.3l2.4-3.3c0.1-0.2,0.3-0.3,0.5-0.3c0.3,0,0.4,0.2,0.4,0.6v6.9
			c0,0.3-0.1,0.5-0.5,0.5c-0.3,0-0.4-0.2-0.4-0.6v-5.9l-2,2.8C266.6,148.4,266.4,148.4,266.3,148.4z"/>
		<path fill="#FFFFFF" d="M274.4,151.9c-0.9,0-1.7-0.3-2.2-0.8c-0.6-0.5-0.8-1.2-0.8-2.1v-2.1c0-0.9,0.3-1.6,0.8-2.1
			c0.6-0.6,1.3-0.8,2.2-0.8s1.7,0.3,2.2,0.8c0.6,0.5,0.8,1.2,0.8,2.1v2.1c0,0.9-0.3,1.6-0.8,2.1
			C276.1,151.7,275.3,151.9,274.4,151.9z M276,145.4c-0.3-0.3-0.9-0.6-1.7-0.6s-1.2,0.2-1.7,0.6c-0.4,0.3-0.6,0.9-0.6,1.5v2.1
			c0,0.7,0.2,1.2,0.6,1.5c0.3,0.3,0.9,0.6,1.7,0.6s1.2-0.2,1.7-0.6c0.4-0.3,0.6-0.9,0.6-1.5v-2.1C276.6,146.2,276.4,145.7,276,145.4
			z"/>
		<path fill="#FFFFFF" d="M279.9,146c0,0.3,0.1,0.6,0.2,0.8c0.1,0.2,0.3,0.3,0.4,0.3l3.3,0.6c0.6,0.1,1,0.3,1.2,0.8
			c0.2,0.4,0.4,0.8,0.4,1.4s-0.2,1-0.6,1.5c-0.3,0.4-1,0.6-1.7,0.6H282c-1,0-1.9-0.1-2.4-0.5c-0.5-0.3-0.7-0.9-0.7-1.9
			c0-0.3,0.1-0.6,0.5-0.6c0.1,0,0.2,0.1,0.3,0.1s0.1,0.2,0.1,0.3c0,0.6,0.1,1,0.4,1.2c0.3,0.1,0.8,0.3,1.7,0.3h1.5
			c0.4,0,0.7-0.1,0.9-0.4c0.2-0.3,0.3-0.6,0.3-0.8c0-0.3-0.1-0.6-0.2-0.9c-0.1-0.3-0.3-0.3-0.4-0.3l-3.3-0.6c-0.6-0.1-1-0.3-1.3-0.6
			c-0.3-0.3-0.4-0.8-0.4-1.3c0-0.3,0.1-0.5,0.1-0.7s0.2-0.4,0.4-0.6c0.2-0.2,0.4-0.3,0.8-0.5c0.3-0.1,0.8-0.2,1.2-0.2h0.9
			c0.6,0,1,0,1.3,0.1c0.3,0.1,0.7,0.1,1,0.3s0.5,0.4,0.6,0.7c0.1,0.3,0.2,0.7,0.2,1.2c0,0.2-0.1,0.3-0.1,0.4
			c-0.1,0.1-0.2,0.1-0.3,0.1c-0.1,0-0.2-0.1-0.3-0.1c-0.1-0.1-0.1-0.2-0.1-0.3c0-0.6-0.1-1-0.4-1.2c-0.3-0.1-0.9-0.2-1.8-0.2h-1.3
			c-0.5,0-0.8,0.1-1,0.3C280,145.5,279.9,145.7,279.9,146z"/>
		<path fill="#FFFFFF" d="M288.1,151.4c0,0.3-0.1,0.5-0.5,0.5c-0.3,0-0.4-0.1-0.4-0.5v-6.9c0-0.3,0.1-0.6,0.4-0.6h2.4
			c1,0,1.7,0.1,2.1,0.4c0.4,0.3,0.7,0.8,0.7,1.5c0,0.6-0.2,1.1-0.6,1.5c-0.4,0.3-1,0.5-1.7,0.5h-2.4L288.1,151.4L288.1,151.4z
			 M290,147c0.8,0,1.3-0.1,1.6-0.2c0.3-0.1,0.4-0.4,0.4-0.8c0-0.4-0.1-0.7-0.4-0.8c-0.3-0.1-0.8-0.2-1.6-0.2h-1.9v2.1L290,147
			L290,147z"/>
		<path fill="#FFFFFF" d="M295.2,151.4c0,0.3-0.1,0.5-0.4,0.5s-0.4-0.1-0.4-0.5v-6.9c0-0.3,0.1-0.6,0.4-0.6c0.3,0,0.5,0.2,0.5,0.6
			v2.7h4.4v-2.7c0-0.3,0.1-0.6,0.4-0.6c0.3,0,0.5,0.2,0.5,0.6v6.9c0,0.3-0.1,0.5-0.4,0.5c-0.3,0-0.5-0.1-0.5-0.5V148h-4.4
			L295.2,151.4L295.2,151.4z"/>
		<path fill="#FFFFFF" d="M303.4,147.9v3h4.7c0.3,0,0.6,0.1,0.6,0.5c0,0.3-0.2,0.4-0.6,0.4h-5.2c-0.3,0-0.4-0.2-0.4-0.6v-6.6
			c0-0.3,0.1-0.6,0.4-0.6h5.2c0.3,0,0.6,0.1,0.6,0.5c0,0.3-0.2,0.4-0.6,0.4h-4.7v2.1h3.3c0.4,0,0.6,0.1,0.6,0.5
			c0,0.3-0.2,0.4-0.6,0.4L303.4,147.9L303.4,147.9z"/>
		<path fill="#FFFFFF" d="M314.6,147.8c0.3,0.3,0.5,0.8,0.8,1.4c0.3,0.6,0.4,1.1,0.5,1.5c0.1,0.4,0.1,0.7,0.1,0.8
			c0,0.1-0.1,0.3-0.1,0.3c-0.1,0.1-0.2,0.1-0.3,0.1c-0.1,0-0.2-0.1-0.3-0.1s-0.1-0.2-0.1-0.3c0-0.1-0.1-0.4-0.2-0.8
			c-0.1-0.4-0.3-0.9-0.6-1.5c-0.3-0.6-0.6-1-1-1.2h-2.3v3.5c0,0.3-0.1,0.5-0.5,0.5c-0.3,0-0.4-0.1-0.4-0.5v-6.9
			c0-0.3,0.1-0.6,0.4-0.6h2.3c1,0,1.7,0.1,2.2,0.4s0.7,0.8,0.7,1.5C315.9,146.9,315.4,147.5,314.6,147.8z M311.1,144.8v2.2h1.8
			c0.8,0,1.3-0.1,1.6-0.2c0.3-0.1,0.4-0.4,0.4-0.9s-0.1-0.8-0.4-0.9c-0.3-0.1-0.8-0.2-1.6-0.2L311.1,144.8L311.1,144.8z"/>
		<path fill="#FFFFFF" d="M318.5,147.9v3h4.7c0.3,0,0.6,0.1,0.6,0.5c0,0.3-0.2,0.4-0.6,0.4H318c-0.3,0-0.4-0.2-0.4-0.6v-6.6
			c0-0.3,0.1-0.6,0.4-0.6h5.2c0.3,0,0.6,0.1,0.6,0.5c0,0.3-0.2,0.4-0.6,0.4h-4.7v2.1h3.3c0.4,0,0.6,0.1,0.6,0.5
			c0,0.3-0.2,0.4-0.6,0.4L318.5,147.9L318.5,147.9z"/>
	</g>
	<g>
		<rect x="59" y="160.1" fill="none" width="89.4" height="20.4"/>
		<path fill="#FFFFFF" d="M62.5,161.1L62.5,161.1c-0.2,0.2-0.3,0.3-0.6,0.3c-0.1,0-0.3-0.1-0.3-0.1c-0.1-0.1-0.1-0.1-0.1-0.3
			c0-0.1,0.1-0.3,0.2-0.4l0.8-0.8c0.1-0.1,0.3-0.2,0.4-0.2c0.1,0,0.2,0.1,0.3,0.1c0.1,0.1,0.1,0.2,0.1,0.3v7.9
			c0,0.3-0.1,0.5-0.5,0.5s-0.5-0.1-0.5-0.5L62.5,161.1L62.5,161.1z"/>
		<path fill="#FFFFFF" d="M74.6,163c0.3,0,0.6,0.1,0.6,0.5c0,0.1-0.1,0.3-0.1,0.3c-0.1,0.1-0.2,0.1-0.4,0.1h-3.1
			c-0.3,0-0.6-0.1-0.6-0.5c0-0.1,0.1-0.2,0.1-0.3c0.1-0.1,0.2-0.1,0.4-0.1L74.6,163L74.6,163z M74.6,164.3c0.3,0,0.6,0.1,0.6,0.5
			c0,0.1-0.1,0.3-0.1,0.3c-0.1,0.1-0.2,0.1-0.4,0.1h-3.1c-0.3,0-0.6-0.1-0.6-0.5c0-0.1,0.1-0.2,0.1-0.3c0.1-0.1,0.2-0.1,0.4-0.1
			L74.6,164.3L74.6,164.3z"/>
		<path fill="#FFFFFF" d="M86.1,166.3h-0.6v1.7c0,0.3-0.1,0.5-0.4,0.5c-0.1,0-0.3-0.1-0.3-0.1s-0.1-0.2-0.1-0.3v-1.7H80v-1l4.3-5.2
			h1.1v5.3h0.6c0.3,0,0.6,0.1,0.6,0.5C86.6,166.2,86.4,166.3,86.1,166.3z M84.5,165.3v-4.1l-3.4,4.1H84.5z"/>
		<path fill="#FFFFFF" d="M88.6,168.6c-0.2,0-0.3-0.1-0.6-0.2c-0.1-0.1-0.3-0.3-0.3-0.5c0-0.2,0.1-0.3,0.3-0.5
			c0.2-0.1,0.3-0.2,0.6-0.2c0.1,0,0.3,0.1,0.6,0.2c0.2,0.1,0.3,0.3,0.3,0.5c0,0.2-0.1,0.3-0.3,0.5C88.9,168.5,88.7,168.6,88.6,168.6
			z"/>
		<path fill="#FFFFFF" d="M97,166c0,0.5-0.1,0.9-0.2,1.2c-0.1,0.3-0.3,0.6-0.6,0.7c-0.3,0.1-0.6,0.3-0.9,0.3
			c-0.3,0.1-0.8,0.1-1.3,0.1h-0.4c-1,0-1.8-0.1-2.3-0.5c-0.5-0.3-0.7-1-0.7-1.9s0.2-1.5,0.7-1.9c-0.5-0.3-0.7-1-0.7-1.8
			c0-0.4,0.1-0.8,0.1-1s0.2-0.5,0.4-0.6c0.1-0.1,0.3-0.3,0.7-0.3c0.3-0.1,0.6-0.1,0.8-0.1c0.3,0,0.6,0,1,0H94c0.4,0,0.8,0,1,0
			c0.3,0,0.6,0.1,0.8,0.1c0.3,0.1,0.5,0.2,0.6,0.3c0.1,0.1,0.3,0.3,0.4,0.6c0.1,0.3,0.1,0.6,0.1,1c0,0.9-0.2,1.5-0.7,1.8
			C96.8,164.5,97,165.2,97,166z M96.1,162.4c0-0.2,0-0.4,0-0.6c0-0.1-0.1-0.3-0.1-0.3c-0.1-0.1-0.1-0.2-0.2-0.2s-0.2-0.1-0.4-0.1
			c-0.2,0-0.3-0.1-0.6-0.1c-0.1,0-0.4,0-0.7,0h-0.5c-0.3,0-0.5,0-0.6,0c-0.1,0-0.3,0-0.5,0c-0.2,0-0.3,0.1-0.4,0.1s-0.1,0.1-0.3,0.1
			c-0.1,0.1-0.1,0.1-0.2,0.2c0,0.1-0.1,0.2-0.1,0.3c0,0.1-0.1,0.3-0.1,0.5c0,0.2,0,0.3,0.1,0.5c0,0.1,0.1,0.3,0.1,0.3
			c0,0.1,0.1,0.1,0.2,0.2c0.1,0.1,0.2,0.1,0.3,0.1s0.2,0.1,0.4,0.1c0.2,0,0.3,0,0.5,0c0.1,0,0.3,0,0.6,0H94c0.3,0,0.5,0,0.6,0
			s0.3,0,0.5,0c0.2,0,0.3-0.1,0.4-0.1c0.1-0.1,0.1-0.1,0.3-0.1c0.1-0.1,0.1-0.1,0.2-0.2c0-0.1,0.1-0.2,0.1-0.3
			C96.1,162.7,96.1,162.6,96.1,162.4z M91.5,166c0,0.6,0.1,1,0.4,1.2c0.3,0.1,0.8,0.3,1.7,0.3H94c0.8,0,1.4-0.1,1.7-0.3
			c0.3-0.1,0.4-0.6,0.4-1.2s-0.1-1-0.4-1.2c-0.3-0.1-0.8-0.3-1.7-0.3h-0.4c-0.8,0-1.4,0.1-1.7,0.3C91.6,165,91.5,165.4,91.5,166z"/>
		<path fill="#FFFFFF" d="M98.7,166.5c0.1,0,0.2,0.1,0.5,0.3c0.2,0.1,0.6,0.3,1,0.5c0.4,0.1,0.8,0.3,1.2,0.3c0.8,0,1.3-0.2,1.7-0.6
			c0.4-0.4,0.6-0.9,0.6-1.6c0-0.6-0.2-1.1-0.6-1.4c-0.4-0.3-0.8-0.4-1.3-0.4h-3.4l0.1-1.7c0.1-0.6,0.2-1.1,0.4-1.3
			c0.3-0.3,0.6-0.3,1.2-0.3h3.5c0.3,0,0.6,0.1,0.6,0.5c0,0.1-0.1,0.2-0.1,0.3c-0.1,0.1-0.2,0.1-0.4,0.1H100c-0.2,0-0.3,0.1-0.4,0.1
			c-0.1,0.1-0.1,0.2-0.1,0.5l-0.1,1h2.3c0.8,0,1.5,0.3,2.1,0.8c0.6,0.5,0.9,1.2,0.9,2c0,1-0.3,1.7-0.9,2.3s-1.4,0.8-2.4,0.8
			c-0.6,0-1.2-0.1-2-0.5c-0.8-0.3-1.1-0.6-1.1-1c0-0.1,0.1-0.2,0.1-0.3C98.5,166.6,98.5,166.5,98.7,166.5z"/>
		<path fill="#FFFFFF" d="M110.1,168.3c-0.3,0-0.4-0.2-0.4-0.6v-7.2c0-0.2,0.1-0.3,0.1-0.4c0.1-0.1,0.2-0.1,0.3-0.1
			c0.1,0,0.2,0.1,0.3,0.1c0.1,0.1,0.1,0.2,0.1,0.4v6.9h4.3c0.3,0,0.6,0.1,0.6,0.5c0,0.3-0.2,0.4-0.6,0.4H110.1z"/>
		<path fill="#FFFFFF" d="M116.8,167.8v-7.1c0-0.3,0.1-0.6,0.4-0.6h2.4c1,0,1.8,0.1,2.4,0.4c0.5,0.3,0.8,0.8,0.8,1.6
			c0,0.6-0.1,1.1-0.5,1.5c0.7,0.3,1,1,1,2.1v0.3c0,0.9-0.3,1.6-0.8,1.9c-0.5,0.3-1.3,0.5-2.5,0.5h-2.8
			C116.9,168.3,116.8,168.2,116.8,167.8z M119.6,163.4c0.8,0,1.4-0.1,1.7-0.2c0.3-0.1,0.5-0.5,0.5-1c0-0.5-0.1-0.8-0.5-0.9
			c-0.3-0.1-0.9-0.2-1.7-0.2h-1.9v2.3H119.6z M120.2,164.3h-2.6v3.1h2.3c1,0,1.6-0.1,1.9-0.3c0.3-0.1,0.4-0.6,0.4-1.2v-0.2
			c0-0.6-0.1-1-0.4-1.2C121.6,164.4,121.1,164.3,120.2,164.3z"/>
		<path fill="#FFFFFF" d="M125.7,162.2c0,0.3,0.1,0.6,0.2,0.8s0.3,0.3,0.5,0.4l3.5,0.6c0.6,0.1,1,0.3,1.3,0.8
			c0.3,0.4,0.4,0.9,0.4,1.5c0,0.6-0.2,1.1-0.6,1.5c-0.3,0.4-1,0.6-1.9,0.6H128c-1.1,0-1.9-0.1-2.5-0.5c-0.5-0.3-0.8-1-0.8-1.9
			c0-0.3,0.1-0.6,0.5-0.6c0.1,0,0.3,0.1,0.3,0.1c0.1,0.1,0.1,0.2,0.1,0.4c0,0.7,0.1,1.1,0.4,1.2c0.3,0.2,0.9,0.3,1.9,0.3h1.5
			c0.4,0,0.8-0.1,1-0.4c0.2-0.3,0.3-0.6,0.3-0.9c0-0.4-0.1-0.7-0.2-0.9c-0.1-0.2-0.3-0.3-0.4-0.4l-3.5-0.6c-0.6-0.1-1.1-0.3-1.4-0.7
			s-0.4-0.8-0.4-1.4c0-0.3,0.1-0.6,0.1-0.8c0.1-0.2,0.2-0.5,0.4-0.7c0.2-0.2,0.5-0.4,0.8-0.5c0.3-0.1,0.8-0.2,1.3-0.2h1
			c0.6,0,1,0,1.4,0.1c0.3,0.1,0.7,0.2,1,0.3c0.3,0.1,0.5,0.4,0.6,0.8c0.1,0.3,0.2,0.8,0.2,1.2c0,0.2-0.1,0.3-0.1,0.4
			c-0.1,0.1-0.2,0.1-0.3,0.1c-0.1,0-0.3-0.1-0.3-0.1c-0.1-0.1-0.1-0.2-0.1-0.4c0-0.7-0.1-1-0.4-1.2c-0.3-0.1-0.9-0.3-1.9-0.3H127
			c-0.5,0-0.8,0.1-1,0.4C125.8,161.7,125.7,162,125.7,162.2z"/>
	</g>
	<path fill="#DE573D" d="M176.1,52"/>
	<path fill="#D7A17D" d="M169.2,30.8c0,0,1.1,12.3-5.5,11.2c-3.3-0.6-3.7-2-3.3-3.4c0.3-1.2,1.5-1.9,2.8-2.1
		C164.3,36.3,166.1,35.1,169.2,30.8z"/>
	<path fill="#D7A17D" d="M148.3,180.3c0,0,1.1,12.3-5.5,11.2c-3.3-0.6-3.7-2-3.3-3.4c0.3-1.2,1.5-1.9,2.8-2.1
		C143.4,185.8,145.2,184.6,148.3,180.3z"/>
	<path fill="#D7A17D" d="M179.8,17.4c0,0,11.4,4.5,12.3-2.1c0.4-3.3-0.9-4.1-2.4-4.1c-1.2,0-2.3,0.9-2.8,2
		C186.4,14.2,184.8,15.7,179.8,17.4z"/>
	<path fill="#D7A17D" d="M294.6,33.1c0,0,11.4,4.5,12.3-2.1c0.4-3.3-0.9-4.1-2.4-4.1c-1.2,0-2.3,0.9-2.8,2
		C301.2,29.9,299.6,31.4,294.6,33.1z"/>
	<path fill="#D7A17D" d="M402.8,195.3c0,0,7.3,9.9,11.4,4.8c2.1-2.6,1.4-3.9,0.2-4.7c-1.1-0.7-2.4-0.5-3.5,0.2
		C410.1,196.2,408,196.5,402.8,195.3z"/>
	<path fill="#D7A17D" d="M164.3,43.9c0,0,0.6,8.7-3.1,7.9c-1.5-0.3-2-1.1-1.9-1.9c0.1-1,0.8-1.7,1.7-2
		C161.6,47.7,162.7,46.8,164.3,43.9z"/>
	<path fill="#DE573D" d="M424.6,356.9l-0.5-29.5H1.5V283h421.9l-0.4-26.7l71.8,44.8L424.6,356.9z"/>
	<g>
		<rect x="-13" y="297.9" fill="none" width="510.6" height="34.4"/>
		<path fill="#FFFFFF" d="M33.1,311.7c0,0.5-0.2,0.8-0.6,0.8c-0.4,0-0.6-0.3-0.6-0.8v-12.9c0-0.6,0.2-0.8,0.6-0.8h9.1
			c0.5,0,0.8,0.2,0.8,0.6c0,0.3-0.3,0.6-0.8,0.6h-8.5v4.5H39c0.6,0,0.8,0.2,0.8,0.6c0,0.3-0.3,0.6-0.8,0.6h-5.8L33.1,311.7
			L33.1,311.7L33.1,311.7z"/>
		<path fill="#FFFFFF" d="M46.1,311.8c0,0.5-0.2,0.7-0.6,0.7c-0.3,0-0.6-0.2-0.6-0.7v-13.2c0-0.5,0.2-0.8,0.6-0.8
			c0.4,0,0.6,0.3,0.6,0.8L46.1,311.8L46.1,311.8z"/>
		<path fill="#FFFFFF" d="M58.9,306.8h-3c-0.6,0-0.8-0.2-0.8-0.6c0-0.4,0.3-0.6,0.8-0.6H60v4.2c0,0.8-0.1,1.3-0.4,1.8
			c-0.3,0.5-0.9,0.7-1.8,0.7h-3.3c-0.8,0-1.5-0.1-2.1-0.1c-0.6-0.1-1-0.3-1.5-0.6c-0.5-0.3-0.8-0.7-1-1.2c-0.2-0.6-0.3-1.2-0.3-2.1
			v-6.4c0-1.6,0.4-2.6,1.2-3.2c0.8-0.6,2.1-0.8,3.8-0.8h3.2c0.5,0,0.9,0.1,1.2,0.2c0.3,0.1,0.6,0.3,0.7,0.6c0.1,0.3,0.2,0.6,0.3,0.8
			c0.1,0.3,0.1,0.6,0.1,0.9c0,0.6-0.2,0.8-0.6,0.8c-0.4,0-0.6-0.3-0.6-0.8c0-0.5-0.1-0.8-0.3-1c-0.1-0.2-0.5-0.3-1-0.3h-3
			c-1.5,0-2.5,0.1-3,0.5c-0.6,0.3-0.8,1.1-0.8,2.4v6.3c0,1.2,0.3,2,0.8,2.4c0.6,0.3,1.5,0.5,2.9,0.5h3.2c0.5,0,0.8-0.1,1-0.3
			c0.1-0.2,0.3-0.6,0.3-1L58.9,306.8L58.9,306.8z"/>
		<path fill="#FFFFFF" d="M72.7,298.5c0-0.5,0.2-0.7,0.6-0.7c0.3,0,0.6,0.3,0.6,0.8v8.6c0,1.7-0.5,3-1.5,3.9c-1,1-2.2,1.5-3.7,1.5
			s-2.8-0.5-3.7-1.4c-1-0.9-1.5-2.3-1.5-3.9v-8.6c0-0.5,0.2-0.8,0.6-0.8c0.4,0,0.6,0.2,0.6,0.7v8.6c0,1.3,0.3,2.4,1,3.1
			c0.7,0.8,1.7,1.1,3,1.1c1.2,0,2.3-0.3,3-1.1c0.7-0.8,1-1.7,1-3.1L72.7,298.5L72.7,298.5z"/>
		<path fill="#FFFFFF" d="M84.3,304.8c0.5,0.5,1,1.3,1.5,2.4s0.8,2.1,1,3s0.3,1.4,0.3,1.5c0,0.2-0.1,0.4-0.1,0.5
			c-0.1,0.1-0.3,0.2-0.4,0.2c-0.2,0-0.3-0.1-0.4-0.2c-0.1-0.1-0.1-0.3-0.1-0.5c0-0.2-0.1-0.7-0.3-1.5c-0.2-0.8-0.6-1.7-1.1-2.8
			c-0.5-1.1-1.1-1.9-1.7-2.4h-4.2v6.7c0,0.5-0.2,0.7-0.6,0.7c-0.3,0-0.6-0.2-0.6-0.7v-13c0-0.6,0.2-0.8,0.6-0.8h4.1
			c1.7,0,2.8,0.3,3.7,0.8c0.8,0.5,1.2,1.4,1.2,2.7C87,303.3,86.1,304.4,84.3,304.8z M82.1,303.9c1.4,0,2.4-0.1,2.9-0.5
			c0.6-0.3,0.8-1,0.8-1.9c0-1-0.3-1.6-0.8-1.9c-0.6-0.3-1.5-0.5-2.9-0.5h-3.4v4.7L82.1,303.9L82.1,303.9z"/>
		<path fill="#FFFFFF" d="M91.5,304.8v6.3h8.5c0.5,0,0.8,0.2,0.8,0.6c0,0.3-0.3,0.6-0.8,0.6h-9.1c-0.3,0-0.6-0.3-0.6-0.8v-12.7
			c0-0.6,0.2-0.8,0.6-0.8h9.1c0.5,0,0.8,0.2,0.8,0.6c0,0.3-0.3,0.6-0.8,0.6h-8.5v4.5h5.8c0.6,0,0.8,0.2,0.8,0.6
			c0,0.3-0.3,0.6-0.8,0.6L91.5,304.8L91.5,304.8z"/>
		<path fill="#FFFFFF" d="M118.2,311.1c-1,1-2.2,1.5-3.7,1.5s-2.8-0.5-3.7-1.4c-1-0.9-1.5-2.3-1.5-3.9v-4.1c0-1.7,0.5-3,1.5-3.9
			c1-1,2.2-1.4,3.7-1.4s2.8,0.5,3.7,1.5c1,1,1.5,2.3,1.5,3.9v4.1C119.7,308.8,119.2,310.1,118.2,311.1z M117.5,300.1
			c-0.7-0.8-1.7-1.1-3-1.1c-1.2,0-2.3,0.3-3,1.1c-0.7,0.8-1,1.7-1,3.1v4c0,1.3,0.3,2.4,1,3.1c0.7,0.8,1.7,1.1,3,1.1
			c1.2,0,2.3-0.3,3-1.1c0.7-0.8,1-1.7,1-3.1v-4.1C118.5,301.8,118.1,300.8,117.5,300.1z"/>
		<path fill="#FFFFFF" d="M132.2,298.5c0-0.5,0.2-0.7,0.6-0.7c0.3,0,0.6,0.3,0.6,0.8v8.6c0,1.7-0.5,3-1.5,3.9c-1,1-2.2,1.5-3.7,1.5
			c-1.5,0-2.8-0.5-3.7-1.4s-1.5-2.3-1.5-3.9v-8.6c0-0.5,0.2-0.8,0.6-0.8c0.4,0,0.6,0.2,0.6,0.7v8.6c0,1.3,0.3,2.4,1,3.1
			c0.7,0.8,1.7,1.1,3,1.1s2.3-0.3,3-1.1c0.7-0.8,1-1.7,1-3.1L132.2,298.5L132.2,298.5L132.2,298.5z"/>
		<path fill="#FFFFFF" d="M144.6,298c0.5,0,0.8,0.2,0.8,0.6c0,0.3-0.3,0.6-0.8,0.6h-3.5v12.6c0,0.5-0.2,0.7-0.6,0.7
			c-0.3,0-0.6-0.2-0.6-0.7v-12.6h-3.5c-0.5,0-0.8-0.2-0.8-0.6c0-0.4,0.3-0.6,0.8-0.6L144.6,298L144.6,298z"/>
		<path fill="#FFFFFF" d="M157.1,305.4l-4.7-6.5c-0.1-0.2-0.2-0.3-0.2-0.5c0-0.1,0.1-0.3,0.2-0.4c0.1-0.1,0.3-0.1,0.4-0.1
			s0.3,0.1,0.6,0.4l4.4,6l4.4-6c0.2-0.3,0.4-0.4,0.6-0.4c0.1,0,0.3,0.1,0.3,0.1c0.1,0.1,0.2,0.3,0.2,0.4s-0.1,0.3-0.2,0.5l-4.7,6.5
			v6.4c0,0.5-0.2,0.7-0.6,0.7s-0.6-0.2-0.6-0.7V305.4L157.1,305.4z"/>
		<path fill="#FFFFFF" d="M173.8,311.1c-1,1-2.2,1.5-3.7,1.5c-1.5,0-2.8-0.5-3.7-1.4s-1.5-2.3-1.5-3.9v-4.1c0-1.7,0.5-3,1.5-3.9
			c1-1,2.2-1.4,3.7-1.4c1.5,0,2.8,0.5,3.7,1.5c1,1,1.5,2.3,1.5,3.9v4.1C175.2,308.8,174.7,310.1,173.8,311.1z M173,300.1
			c-0.7-0.8-1.7-1.1-3-1.1c-1.2,0-2.3,0.3-3,1.1c-0.7,0.8-1,1.7-1,3.1v4c0,1.3,0.3,2.4,1,3.1c0.7,0.8,1.7,1.1,3,1.1
			c1.2,0,2.3-0.3,3-1.1c0.7-0.8,1-1.7,1-3.1v-4.1C174,301.8,173.7,300.8,173,300.1z"/>
		<path fill="#FFFFFF" d="M187.8,298.5c0-0.5,0.2-0.7,0.6-0.7c0.3,0,0.6,0.3,0.6,0.8v8.6c0,1.7-0.5,3-1.5,3.9c-1,1-2.2,1.5-3.7,1.5
			c-1.5,0-2.8-0.5-3.7-1.4c-1-0.9-1.5-2.3-1.5-3.9v-8.6c0-0.5,0.2-0.8,0.6-0.8c0.4,0,0.6,0.2,0.6,0.7v8.6c0,1.3,0.3,2.4,1,3.1
			c0.7,0.8,1.7,1.1,3,1.1s2.3-0.3,3-1.1c0.7-0.8,1-1.7,1-3.1L187.8,298.5L187.8,298.5L187.8,298.5z"/>
		<path fill="#FFFFFF" d="M199.5,304.8c0.5,0.5,1,1.3,1.5,2.4s0.8,2.1,1,3c0.2,0.8,0.3,1.4,0.3,1.5c0,0.2-0.1,0.4-0.1,0.5
			c-0.1,0.1-0.3,0.2-0.4,0.2c-0.2,0-0.3-0.1-0.4-0.2c-0.1-0.1-0.1-0.3-0.1-0.5c0-0.2-0.1-0.7-0.3-1.5c-0.2-0.8-0.6-1.7-1.1-2.8
			c-0.5-1.1-1.1-1.9-1.7-2.4h-4.2v6.7c0,0.5-0.2,0.7-0.6,0.7c-0.3,0-0.6-0.2-0.6-0.7v-13c0-0.6,0.2-0.8,0.6-0.8h4.1
			c1.7,0,2.8,0.3,3.7,0.8c0.8,0.5,1.2,1.4,1.2,2.7C202.1,303.3,201.2,304.4,199.5,304.8z M197.2,303.9c1.4,0,2.4-0.1,2.9-0.5
			c0.6-0.3,0.8-1,0.8-1.9c0-1-0.3-1.6-0.8-1.9c-0.6-0.3-1.5-0.5-2.9-0.5h-3.4v4.7L197.2,303.9L197.2,303.9z"/>
		<path fill="#FFFFFF" d="M219.8,311.1c-1,1-2.2,1.5-3.7,1.5c-1.5,0-2.8-0.5-3.7-1.4s-1.5-2.3-1.5-3.9v-4.1c0-1.7,0.5-3,1.5-3.9
			c1-1,2.2-1.4,3.7-1.4c1.5,0,2.8,0.5,3.7,1.5c1,1,1.5,2.3,1.5,3.9v4.1C221.3,308.8,220.8,310.1,219.8,311.1z M219.1,300.1
			c-0.7-0.8-1.7-1.1-3-1.1c-1.2,0-2.3,0.3-3,1.1c-0.7,0.8-1,1.7-1,3.1v4c0,1.3,0.3,2.4,1,3.1c0.7,0.8,1.7,1.1,3,1.1
			c1.2,0,2.3-0.3,3-1.1c0.7-0.8,1-1.7,1-3.1v-4.1C220.1,301.8,219.8,300.8,219.1,300.1z"/>
		<path fill="#FFFFFF" d="M237.4,309.6l4.2-11.5c0.1-0.3,0.3-0.5,0.6-0.5c0.3,0,0.6,0.1,0.6,0.4c0,0.1,0,0.2-0.1,0.4l-4.3,13.8h-1.3
			l-4-12.5l-3.9,12.5h-1.3l-4.4-13.9c-0.1-0.2-0.1-0.3-0.1-0.4c0-0.3,0.2-0.4,0.6-0.4c0.3,0,0.5,0.1,0.6,0.5l3.6,11.5l4.3-11.4
			c0.1-0.4,0.3-0.6,0.6-0.6c0.3,0,0.6,0.2,0.7,0.6L237.4,309.6z"/>
		<path fill="#FFFFFF" d="M255.2,312.5c-0.2,0-0.3-0.1-0.5-0.1l-8.2-12.3v11.6c0,0.5-0.2,0.8-0.6,0.8c-0.4,0-0.6-0.3-0.6-0.8v-13.1
			c0-0.6,0.2-0.8,0.6-0.8c0.3,0,0.5,0.1,0.7,0.4l8,11.9v-11.5c0-0.6,0.2-0.8,0.6-0.8c0.4,0,0.6,0.3,0.6,0.8v13.1
			C255.7,312.2,255.6,312.5,255.2,312.5z"/>
		<path fill="#FFFFFF" d="M273.3,312.3h-3.2c-1.7,0-3-0.3-3.8-0.8c-0.8-0.6-1.2-1.6-1.2-3.3V302c0-1.6,0.4-2.7,1.2-3.3
			c0.8-0.6,2-0.8,3.7-0.8h3.3c0.5,0,0.9,0.1,1.2,0.2c0.3,0.1,0.6,0.3,0.7,0.6c0.1,0.3,0.2,0.6,0.3,0.8c0.1,0.3,0.1,0.6,0.1,0.9
			c0,0.6-0.2,0.8-0.6,0.8c-0.4,0-0.6-0.3-0.6-0.8c0-0.6-0.1-0.9-0.3-1.1s-0.5-0.3-1-0.3H270c-0.7,0-1.3,0-1.7,0.1
			c-0.4,0.1-0.8,0.2-1.1,0.3c-0.3,0.2-0.6,0.5-0.7,0.9c-0.1,0.4-0.2,0.9-0.2,1.5v6.2c0,1.2,0.3,2,0.8,2.4c0.6,0.3,1.5,0.5,3,0.5h3
			c0.5,0,0.8-0.1,1-0.3c0.1-0.2,0.3-0.6,0.3-1.1c0-0.5,0.2-0.8,0.6-0.8c0.4,0,0.6,0.3,0.6,0.8c0,0.3,0,0.6-0.1,0.9
			c-0.1,0.3-0.1,0.5-0.3,0.8c-0.1,0.3-0.3,0.5-0.7,0.6C274.2,312.3,273.8,312.3,273.3,312.3z"/>
		<path fill="#FFFFFF" d="M283.9,298l5.1,13.8c0.1,0.1,0.1,0.3,0.1,0.3c0,0.2-0.1,0.3-0.2,0.4c-0.1,0.1-0.3,0.1-0.3,0.1
			c-0.3,0-0.4-0.1-0.6-0.5l-1.6-4.3h-6.2l-1.6,4.3c-0.1,0.3-0.3,0.5-0.6,0.5c-0.1,0-0.3-0.1-0.3-0.1c-0.1-0.1-0.2-0.2-0.2-0.4
			c0-0.1,0-0.2,0.1-0.3l5.1-13.8H283.9z M283.2,299.7l-2.6,7h5.3L283.2,299.7z"/>
		<path fill="#FFFFFF" d="M298.4,304.8c0.5,0.5,1,1.3,1.5,2.4c0.5,1.1,0.8,2.1,1,3s0.3,1.4,0.3,1.5c0,0.2-0.1,0.4-0.1,0.5
			c-0.1,0.1-0.3,0.2-0.4,0.2c-0.2,0-0.3-0.1-0.4-0.2c-0.1-0.1-0.1-0.3-0.1-0.5c0-0.2-0.1-0.7-0.3-1.5c-0.2-0.8-0.6-1.7-1.1-2.8
			c-0.5-1.1-1.1-1.9-1.7-2.4h-4.2v6.7c0,0.5-0.2,0.7-0.6,0.7c-0.3,0-0.6-0.2-0.6-0.7v-13c0-0.6,0.2-0.8,0.6-0.8h4.1
			c1.7,0,2.8,0.3,3.7,0.8c0.8,0.5,1.2,1.4,1.2,2.7C301.1,303.3,300.2,304.4,298.4,304.8z M296.2,303.9c1.4,0,2.4-0.1,2.9-0.5
			s0.8-1,0.8-1.9c0-1-0.3-1.6-0.8-1.9c-0.6-0.3-1.5-0.5-2.9-0.5h-3.4v4.7L296.2,303.9L296.2,303.9z"/>
		<path fill="#FFFFFF" d="M304.4,311.5v-12.7c0-0.6,0.2-0.8,0.6-0.8h4.1c1.7,0,2.9,0.2,3.7,0.7c0.8,0.5,1.2,1.3,1.2,2.6
			c0,1.2-0.3,2-1.1,2.6c0.7,0.3,1.2,0.7,1.5,1.2c0.3,0.6,0.5,1.4,0.5,2.5v0.6c0,1.6-0.4,2.7-1.2,3.3c-0.8,0.6-2.1,0.8-3.8,0.8H305
			C304.5,312.3,304.4,312.1,304.4,311.5z M309,303.7c1.4,0,2.4-0.1,2.9-0.4c0.6-0.3,0.8-0.9,0.8-1.8c0-1-0.3-1.6-0.8-1.9
			c-0.6-0.3-1.5-0.4-2.9-0.4h-3.4v4.5L309,303.7L309,303.7z M305.6,304.8v6.3h4.3c1.5,0,2.5-0.1,3-0.5c0.6-0.3,0.8-1.1,0.8-2.4v-0.6
			c0-1.2-0.3-2-0.8-2.4c-0.6-0.3-1.5-0.5-2.9-0.5L305.6,304.8L305.6,304.8z"/>
		<path fill="#FFFFFF" d="M326.6,311.1c-1,1-2.2,1.5-3.7,1.5c-1.5,0-2.8-0.5-3.7-1.4s-1.5-2.3-1.5-3.9v-4.1c0-1.7,0.5-3,1.5-3.9
			c1-1,2.2-1.4,3.7-1.4c1.5,0,2.8,0.5,3.7,1.5c1,1,1.5,2.3,1.5,3.9v4.1C328,308.8,327.5,310.1,326.6,311.1z M325.8,300.1
			c-0.7-0.8-1.7-1.1-3-1.1s-2.3,0.3-3,1.1c-0.7,0.8-1,1.7-1,3.1v4c0,1.3,0.3,2.4,1,3.1c0.7,0.8,1.7,1.1,3,1.1s2.3-0.3,3-1.1
			c0.7-0.8,1-1.7,1-3.1v-4.1C326.8,301.8,326.5,300.8,325.8,300.1z"/>
		<path fill="#FFFFFF" d="M341.3,312.5c-0.2,0-0.3-0.1-0.5-0.1l-8.2-12.3v11.6c0,0.5-0.2,0.8-0.6,0.8c-0.4,0-0.6-0.3-0.6-0.8v-13.1
			c0-0.6,0.2-0.8,0.6-0.8c0.3,0,0.5,0.1,0.7,0.4l8,11.9v-11.5c0-0.6,0.2-0.8,0.6-0.8c0.4,0,0.6,0.3,0.6,0.8v13.1
			C341.9,312.2,341.7,312.5,341.3,312.5z"/>
		<path fill="#FFFFFF" d="M352.7,311.7c0,0.5-0.2,0.8-0.6,0.8c-0.4,0-0.6-0.3-0.6-0.8v-12.9c0-0.6,0.2-0.8,0.6-0.8h9.1
			c0.5,0,0.8,0.2,0.8,0.6c0,0.3-0.3,0.6-0.8,0.6h-8.5v4.5h5.8c0.6,0,0.8,0.2,0.8,0.6c0,0.3-0.3,0.6-0.8,0.6h-5.8L352.7,311.7
			L352.7,311.7z"/>
		<path fill="#FFFFFF" d="M372.8,311.1c-1,1-2.2,1.5-3.7,1.5s-2.8-0.5-3.7-1.4s-1.5-2.3-1.5-3.9v-4.1c0-1.7,0.5-3,1.5-3.9
			c1-1,2.2-1.4,3.7-1.4s2.8,0.5,3.7,1.5s1.5,2.3,1.5,3.9v4.1C374.3,308.8,373.8,310.1,372.8,311.1z M372.1,300.1
			c-0.7-0.8-1.7-1.1-3-1.1s-2.3,0.3-3,1.1c-0.7,0.8-1,1.7-1,3.1v4c0,1.3,0.3,2.4,1,3.1c0.7,0.8,1.7,1.1,3,1.1s2.3-0.3,3-1.1
			c0.7-0.8,1-1.7,1-3.1v-4.1C373.1,301.8,372.8,300.8,372.1,300.1z"/>
		<path fill="#FFFFFF" d="M386.2,311.1c-1,1-2.2,1.5-3.7,1.5s-2.8-0.5-3.7-1.4s-1.5-2.3-1.5-3.9v-4.1c0-1.7,0.5-3,1.5-3.9
			c1-1,2.2-1.4,3.7-1.4s2.8,0.5,3.7,1.5s1.5,2.3,1.5,3.9v4.1C387.7,308.8,387.2,310.1,386.2,311.1z M385.4,300.1
			c-0.7-0.8-1.7-1.1-3-1.1s-2.3,0.3-3,1.1c-0.7,0.8-1,1.7-1,3.1v4c0,1.3,0.3,2.4,1,3.1c0.7,0.8,1.7,1.1,3,1.1s2.3-0.3,3-1.1
			c0.7-0.8,1-1.7,1-3.1v-4.1C386.5,301.8,386.1,300.8,385.4,300.1z"/>
		<path fill="#FFFFFF" d="M398.3,298c0.5,0,0.8,0.2,0.8,0.6c0,0.3-0.3,0.6-0.8,0.6h-3.5v12.6c0,0.5-0.2,0.7-0.6,0.7
			c-0.3,0-0.6-0.2-0.6-0.7v-12.6h-3.5c-0.5,0-0.8-0.2-0.8-0.6c0-0.4,0.3-0.6,0.8-0.6L398.3,298L398.3,298z"/>
		<path fill="#FFFFFF" d="M402.7,311.8c0,0.5-0.2,0.7-0.6,0.7c-0.3,0-0.6-0.2-0.6-0.7v-13c0-0.6,0.2-0.8,0.6-0.8h4.1
			c1.6,0,2.8,0.3,3.7,0.8c0.8,0.5,1.2,1.4,1.2,2.8c0,1.1-0.3,2-1,2.6c-0.7,0.6-1.7,0.9-2.8,0.9h-4.4L402.7,311.8L402.7,311.8
			L402.7,311.8z M406.2,303.7c1.4,0,2.4-0.1,2.9-0.5c0.6-0.3,0.8-0.9,0.8-1.9s-0.3-1.6-0.8-1.9c-0.6-0.3-1.5-0.4-2.9-0.4h-3.5v4.6
			H406.2z"/>
		<path fill="#FFFFFF" d="M420.6,304.8c0.5,0.5,1,1.3,1.5,2.4c0.5,1.1,0.8,2.1,1,3s0.3,1.4,0.3,1.5c0,0.2-0.1,0.4-0.1,0.5
			c-0.1,0.1-0.3,0.2-0.4,0.2c-0.2,0-0.3-0.1-0.4-0.2c-0.1-0.1-0.1-0.3-0.1-0.5c0-0.2-0.1-0.7-0.3-1.5c-0.2-0.8-0.6-1.7-1.1-2.8
			c-0.5-1.1-1.1-1.9-1.7-2.4h-4.2v6.7c0,0.5-0.2,0.7-0.6,0.7c-0.3,0-0.6-0.2-0.6-0.7v-13c0-0.6,0.2-0.8,0.6-0.8h4.1
			c1.7,0,2.8,0.3,3.7,0.8c0.8,0.5,1.2,1.4,1.2,2.7C423.2,303.3,422.3,304.4,420.6,304.8z M418.3,303.9c1.4,0,2.4-0.1,2.9-0.5
			s0.8-1,0.8-1.9c0-1-0.3-1.6-0.8-1.9c-0.6-0.3-1.5-0.5-2.9-0.5h-3.4v4.7L418.3,303.9L418.3,303.9z"/>
		<path fill="#FFFFFF" d="M427.7,311.8c0,0.5-0.2,0.7-0.6,0.7c-0.3,0-0.6-0.2-0.6-0.7v-13.2c0-0.5,0.2-0.8,0.6-0.8
			c0.4,0,0.6,0.3,0.6,0.8L427.7,311.8L427.7,311.8z"/>
		<path fill="#FFFFFF" d="M441.3,312.5c-0.2,0-0.3-0.1-0.5-0.1l-8.2-12.3v11.6c0,0.5-0.2,0.8-0.6,0.8c-0.4,0-0.6-0.3-0.6-0.8v-13.1
			c0-0.6,0.2-0.8,0.6-0.8c0.3,0,0.5,0.1,0.7,0.4l8,11.9v-11.5c0-0.6,0.2-0.8,0.6-0.8c0.4,0,0.6,0.3,0.6,0.8v13.1
			C441.9,312.2,441.8,312.5,441.3,312.5z"/>
		<path fill="#FFFFFF" d="M453.3,298c0.5,0,0.8,0.2,0.8,0.6c0,0.3-0.3,0.6-0.8,0.6h-3.5v12.6c0,0.5-0.2,0.7-0.6,0.7
			c-0.3,0-0.6-0.2-0.6-0.7v-12.6h-3.5c-0.5,0-0.8-0.2-0.8-0.6c0-0.4,0.3-0.6,0.8-0.6L453.3,298L453.3,298z"/>
	</g>
</g>
</svg>
