<?xml version="1.0" encoding="utf-8"?>
<!-- Generator: Adobe Illustrator 19.2.1, SVG Export Plug-In . SVG Version: 6.00 Build 0)  -->
<svg version="1.1" id="Layer_1" xmlns="http://www.w3.org/2000/svg" xmlns:xlink="http://www.w3.org/1999/xlink" x="0px" y="0px"
	 width="864px" height="360px" viewBox="0 0 864 360" enable-background="new 0 0 864 360" xml:space="preserve">
<g id="Title">
	
		<path opacity="0.78" fill="#FFFFFF" stroke="#046938" stroke-width="6.2178" stroke-miterlimit="10" enable-background="new    " d="
		M831,341.3H28.8c-4,0-7.2-3.2-7.2-7.2V21.5c0-4,3.2-7.2,7.2-7.2H831c4,0,7.2,3.2,7.2,7.2V334C838.2,338.1,834.9,341.3,831,341.3z"
		/>
	<ellipse fill="none" stroke="#231F20" stroke-width="1.9365" stroke-miterlimit="10" cx="285.2" cy="36.2" rx="17.9" ry="9.4"/>
	<ellipse fill="none" stroke="#231F20" stroke-width="2" stroke-miterlimit="10" cx="570.2" cy="37.6" rx="17.9" ry="10.1"/>
	<g>
		<polygon fill="none" points="844.7,257.3 31,257.3 28.4,76.9 842.1,76.9 		"/>
		<path fill="#2AB674" d="M161.4,135.7H142c-3.5,0-5.3-1.2-5.3-3.7c0-2.7,1.8-4,5.3-4h27.1v28c0,4.8-1,8.7-2.9,11.7
			s-5.9,4.4-11.9,4.4h-21.7c-5.4,0-9.9-0.3-13.5-1c-3.6-0.6-6.8-1.8-9.8-3.6s-5.2-4.4-6.7-8c-1.4-3.6-2.1-8.1-2.1-13.6v-41.7
			c0-10.5,2.6-17.4,7.9-20.9S122,78,133.5,78h20.9c3.2,0,5.8,0.5,7.9,1.4c2.1,0.9,3.6,2.3,4.6,4c0.9,1.7,1.6,3.4,1.8,5.1
			c0.3,1.7,0.4,3.6,0.4,5.9c0,3.6-1.3,5.3-3.8,5.3c-2.6,0-3.8-1.7-3.8-5s-0.6-5.6-1.7-7c-1.1-1.4-3.3-2.1-6.4-2.1h-19.8
			c-9.8,0-16.4,1.1-20,3.3s-5.3,7.3-5.3,15.3v41.4c0,8,1.8,13.1,5.3,15.3s9.9,3.3,19.2,3.3h20.7c3.2,0,5.3-0.7,6.4-2
			c1.1-1.3,1.7-3.6,1.7-6.9v-19.6H161.4z"/>
		<path fill="#2AB674" d="M237,122.9c3.3,3.2,6.4,8.4,9.5,15.8s5.3,13.9,6.8,19.5s2.2,9,2.2,10.1c0,1.4-0.4,2.5-1.1,3.4
			c-0.7,0.9-1.7,1.3-2.9,1.3s-2.1-0.5-2.7-1.4c-0.6-0.9-1-2-1-3.3s-0.7-4.5-2.1-9.8c-1.4-5.2-3.7-11.4-7.1-18.6
			c-3.4-7.2-7.1-12.4-11.2-15.5h-27.8v43.9c0,3.2-1.3,4.7-4,4.7c-2.5,0-3.7-1.6-3.7-4.7V83.2c0-3.6,1.2-5.3,3.6-5.3h26.6
			c10.7,0,18.8,1.6,24.2,4.8c5.4,3.2,8.1,9.1,8.1,17.7C254.3,112.9,248.5,120.4,237,122.9z M222,116.7c9.2,0,15.6-1,19.2-3
			c3.6-2,5.4-6.2,5.4-12.4c0-6.5-1.8-10.7-5.5-12.7s-10-3-19.1-3h-22.5v31.1H222L222,116.7z"/>
		<path fill="#2AB674" d="M283.7,122.9v41.5h55.9c3.4,0,5,1.4,5,4.1c0,2.4-1.7,3.6-5,3.6h-60.1c-2.4,0-3.6-1.8-3.6-5.3V83.3
			c0-3.6,1.2-5.3,3.6-5.3h60.1c3.4,0,5,1.4,5,4.1c0,2.4-1.7,3.5-5,3.5h-55.9v29.6H322c3.6,0,5.3,1.4,5.3,4.1c0,2.4-1.8,3.6-5.3,3.6
			L283.7,122.9L283.7,122.9z"/>
		<path fill="#2AB674" d="M372.2,122.9v41.5h55.9c3.4,0,5,1.4,5,4.1c0,2.4-1.7,3.6-5,3.6H368c-2.4,0-3.6-1.8-3.6-5.3V83.3
			c0-3.6,1.2-5.3,3.6-5.3h60.1c3.4,0,5,1.4,5,4.1c0,2.4-1.7,3.5-5,3.5h-55.9v29.6h38.3c3.6,0,5.3,1.4,5.3,4.1c0,2.4-1.8,3.6-5.3,3.6
			L372.2,122.9L372.2,122.9z"/>
		<path fill="#2AB674" d="M517.9,173.1c-1.4,0-2.4-0.3-3-1l-54.3-80.3v76.5c0,3.3-1.3,4.9-3.8,4.9c-2.6,0-3.8-1.7-3.8-5V82.3
			c0-3.5,1.2-5.2,3.6-5.2c1.8,0,3.3,0.9,4.4,2.8l53,78.1V82.4c0-3.6,1.2-5.3,3.7-5.3c2.7,0,4,1.7,4,5.2v85.9
			C521.6,171.4,520.4,173.1,517.9,173.1z"/>
		<path fill="#2AB674" d="M554.1,122.9v41.5H610c3.4,0,5,1.4,5,4.1c0,2.4-1.7,3.6-5,3.6h-60.1c-2.4,0-3.6-1.8-3.6-5.3V83.3
			c0-3.6,1.2-5.3,3.6-5.3H610c3.4,0,5,1.4,5,4.1c0,2.4-1.7,3.5-5,3.5h-55.9v29.6h38.3c3.6,0,5.3,1.4,5.3,4.1c0,2.4-1.8,3.6-5.3,3.6
			L554.1,122.9L554.1,122.9z"/>
		<path fill="#2AB674" d="M639.2,100.9c0,3.9,0.9,7.3,2.6,10.1c1.7,2.8,3.8,4.5,6.3,5l35.1,7.5c6.6,1.5,11.4,4.5,14.3,9.2
			c3,4.6,4.4,10.1,4.4,16.3c0,6.6-1.9,12.3-5.8,17.1s-10.3,7.2-19.3,7.2h-12.3c-5.6,0-10.3-0.3-13.9-1c-3.6-0.6-7-1.9-10.1-3.7
			s-5.4-4.5-6.8-8.1c-1.4-3.6-2.1-8.2-2.1-13.8c0-3.3,1.4-4.9,4.1-4.9c2.5,0,3.7,1.6,3.7,4.9c0,8.2,1.7,13.4,5.3,15.6
			c3.5,2.2,10.1,3.3,19.9,3.3h15.1c5.2,0,9-1.8,11.2-5.3c2.3-3.6,3.4-7.3,3.4-11.4c0-4.8-1-8.8-2.9-11.8s-3.9-4.8-6-5.3l-34.8-7.7
			c-6.9-1.5-11.8-4.1-14.7-7.8s-4.4-8.9-4.4-15.6c0-6.6,2-12.3,6.1-16.9c4-4.7,10.7-7,20.1-7h11.2c5.6,0,10.2,0.3,13.8,1
			c3.6,0.6,7,1.8,10.1,3.6c3.2,1.8,5.4,4.4,6.9,8c1.4,3.6,2.1,8.1,2.1,13.8c0,3.3-1.3,4.9-4,4.9c-2.6,0-3.8-1.6-3.8-4.9
			c0-8.2-1.7-13.3-5.2-15.5c-3.5-2.1-10.1-3.2-20-3.2h-14.5c-5.3,0-9.2,1.7-11.6,5.2C640.4,93.1,639.2,96.8,639.2,100.9z"/>
		<path fill="#2AB674" d="M773.3,78c3.3,0,4.9,1.3,4.9,4c0,2.5-1.7,3.7-5,3.7h-22.9v82.7c0,3.2-1.4,4.7-4.1,4.7
			c-2.4,0-3.6-1.6-3.6-4.7V85.7h-23.1c-3.3,0-5-1.3-5-3.8c0-2.6,1.6-3.8,4.9-3.8L773.3,78L773.3,78L773.3,78z"/>
		<path fill="#046938" d="M143.1,235.4l10.8-34.9c0.4-1.2,1.2-1.9,2.5-1.9c1.5,0,2.3,0.7,2.3,2.1c0,0.3-0.1,0.7-0.3,1.2l-12.9,39.9
			h-4.9l-11.9-35.3l-11.8,35.3H112l-13-40.2c-0.2-0.5-0.3-0.9-0.3-1.2c0-1.4,0.8-2.1,2.3-2.1c1.3,0,2.1,0.6,2.5,1.9l10.9,35.2
			l11.5-34.8c0.5-1.4,1.4-2.1,2.7-2.1c1.4,0,2.4,0.7,2.9,2.2L143.1,235.4z"/>
		<path fill="#046938" d="M180.9,199.4l15.8,39.8c0.1,0.4,0.2,0.8,0.2,1.3c0,0.8-0.3,1.4-0.8,1.7c-0.6,0.4-1.1,0.5-1.6,0.5
			c-1.2,0-2-0.6-2.5-1.9l-4.6-11.8h-18.5l-4.6,11.8c-0.5,1.2-1.4,1.9-2.5,1.9c-0.5,0-1-0.2-1.6-0.5c-0.6-0.4-0.8-0.9-0.8-1.7
			c0-0.4,0.1-0.9,0.2-1.3l15.8-39.8H180.9z M170.8,224.4h14.6l-7.4-18L170.8,224.4z"/>
		<path fill="#046938" d="M210.1,221.4L195.5,203c-0.5-0.8-0.7-1.3-0.7-1.7c0-0.6,0.2-1.2,0.7-1.6c0.5-0.4,1-0.7,1.6-0.7
			c0.8,0,1.5,0.5,2.2,1.5l13.1,17l13-17c0.8-1,1.6-1.5,2.3-1.5c0.5,0,1.1,0.2,1.6,0.6c0.5,0.4,0.8,1,0.8,1.6c0,0.4-0.2,1-0.7,1.7
			l-14.5,18.4v18.2c0,1.7-0.8,2.6-2.4,2.6c-1.6,0-2.4-0.9-2.4-2.6L210.1,221.4L210.1,221.4z"/>
		<path fill="#046938" d="M240.3,210.2c0,1.5,0.4,2.8,1.1,4c0.7,1.2,1.5,1.8,2.4,2l18.3,3.3c3.2,0.6,5.5,2,6.9,4.1s2.2,4.7,2.2,7.6
			c0,3.1-1,5.7-2.9,7.9c-2,2.2-5.2,3.3-9.6,3.3h-6.4c-5.9,0-10.1-0.8-12.7-2.5c-2.6-1.7-4-5.1-4-10.1c0-1.9,0.8-2.9,2.5-2.9
			c0.7,0,1.3,0.3,1.7,0.8s0.6,1.2,0.6,2.1c0,3.4,0.8,5.6,2.3,6.5s4.7,1.4,9.5,1.4h7.8c2.3,0,3.9-0.7,4.9-2.1c1-1.4,1.4-2.9,1.4-4.5
			c0-2-0.4-3.6-1.2-4.8s-1.6-1.9-2.3-2l-18.2-3.4c-3.3-0.7-5.7-1.8-7.1-3.6c-1.4-1.7-2.1-4.1-2.1-7.2c0-1.4,0.2-2.7,0.6-3.9
			c0.4-1.2,1.1-2.4,2.1-3.5s2.4-2,4.3-2.7c1.9-0.6,4.1-1,6.7-1h5.1c3,0,5.4,0.2,7.3,0.5s3.6,0.9,5.2,1.8c1.6,0.9,2.7,2.1,3.4,3.8
			s1,3.8,1,6.4c0,1-0.3,1.8-0.8,2.2s-1.1,0.7-1.7,0.7c-0.7,0-1.3-0.3-1.7-0.8s-0.7-1.2-0.7-2.1c0-3.4-0.8-5.6-2.3-6.4
			s-4.7-1.3-9.7-1.3h-7c-2.6,0-4.4,0.7-5.4,2.1C240.8,207.2,240.3,208.7,240.3,210.2z"/>
		<path fill="#046938" d="M322.4,199.4c1.9,0,2.9,0.8,2.9,2.5c0,1.6-1,2.3-2.9,2.3h-9.8v35.3c0,0.9-0.3,1.6-0.9,2s-1.3,0.6-2,0.6
			s-1.3-0.2-1.9-0.6c-0.5-0.4-0.8-1.1-0.8-2.1v-35.3h-10c-1,0-1.8-0.2-2.2-0.7s-0.7-1-0.7-1.7c0-0.6,0.2-1.2,0.7-1.7
			c0.4-0.5,1.2-0.7,2.2-0.7L322.4,199.4L322.4,199.4L322.4,199.4z"/>
		<path fill="#046938" d="M347.1,242.4c-5.1,0-9.1-1.4-12.2-4.2s-4.6-6.7-4.6-11.7v-11.7c0-5,1.5-8.9,4.6-11.7s7.1-4.2,12.2-4.2
			c5,0,9.1,1.4,12.1,4.3c3.1,2.8,4.6,6.7,4.6,11.6v11.7c0,4.9-1.5,8.8-4.6,11.6C356.1,240.9,352.1,242.4,347.1,242.4z M356,206.7
			c-2-2-5-3-8.9-3s-6.9,1-8.9,3s-3,4.8-3,8.3v11.3c0,3.6,1,6.4,3.1,8.4c2,2,5,2.9,8.9,2.9s6.9-1,8.9-2.9c2-2,3.1-4.7,3.1-8.4V215
			C359.1,211.4,358.1,208.7,356,206.7z"/>
		<path fill="#046938" d="M418.8,226.1h-8.4c-2.2,0-3.3-0.8-3.3-2.3c0-1.6,1.1-2.5,3.3-2.5h13.2v12.8c0,2.3-0.5,4.2-1.5,5.6
			c-1,1.4-2.9,2.1-5.8,2.1h-10.6c-5.4,0-9.4-0.8-11.9-2.5s-3.8-4.8-3.8-9.6v-18.2c0-4.8,1.3-8,3.9-9.6s6.9-2.4,12.9-2.4h9.4
			c2.9,0,4.8,0.7,5.8,2.2s1.5,3.4,1.5,5.9c0,2-0.8,3.1-2.4,3.1s-2.4-1-2.4-2.9c0-1.3-0.2-2.2-0.6-2.7s-1.2-0.7-2.4-0.7h-8.9
			c-4.9,0-8.1,0.4-9.7,1.3s-2.4,2.9-2.4,6.1v17.8c0,3.2,0.7,5.3,2.2,6.1c1.4,0.9,4.3,1.3,8.7,1.3h10.1c1.2,0,2-0.2,2.4-0.6
			c0.4-0.4,0.6-1.3,0.6-2.6L418.8,226.1L418.8,226.1z"/>
		<path fill="#046938" d="M438.6,220.4V237h25.8c1.9,0,2.9,0.8,2.9,2.5c0,1.5-1,2.3-2.9,2.3h-28.3c-1.5,0-2.3-1-2.3-2.9v-36.4
			c0-2,0.8-2.9,2.3-2.9h28.3c1.9,0,2.9,0.8,2.9,2.5c0,1.5-1,2.3-2.9,2.3h-25.8v11.3h17.6c2.2,0,3.3,0.8,3.3,2.5
			c0,1.5-1.1,2.3-3.3,2.3L438.6,220.4L438.6,220.4z"/>
		<path fill="#046938" d="M500.5,199.4c1.9,0,2.9,0.8,2.9,2.5c0,1.6-1,2.3-2.9,2.3h-9.8v35.3c0,0.9-0.3,1.6-0.9,2s-1.3,0.6-2,0.6
			s-1.3-0.2-1.9-0.6c-0.5-0.4-0.8-1.1-0.8-2.1v-35.3h-10c-1,0-1.8-0.2-2.2-0.7s-0.7-1-0.7-1.7c0-0.6,0.2-1.2,0.7-1.7
			c0.4-0.5,1.2-0.7,2.2-0.7L500.5,199.4L500.5,199.4L500.5,199.4z"/>
		<path fill="#046938" d="M545.4,199.4l15.8,39.8c0.1,0.4,0.2,0.8,0.2,1.3c0,0.8-0.3,1.4-0.8,1.7c-0.6,0.4-1.1,0.5-1.6,0.5
			c-1.2,0-2-0.6-2.5-1.9l-4.6-11.8h-18.5l-4.6,11.8c-0.5,1.2-1.4,1.9-2.5,1.9c-0.5,0-1-0.2-1.6-0.5c-0.6-0.4-0.8-0.9-0.8-1.7
			c0-0.4,0.1-0.9,0.2-1.3l15.8-39.8H545.4z M535.4,224.4H550l-7.4-18L535.4,224.4z"/>
		<path fill="#046938" d="M592.1,219.4c1.4,1.7,2.7,4.2,4,7.4c1.3,3.3,2.2,6.1,2.8,8.4c0.6,2.4,0.9,3.8,0.9,4.3
			c0,0.7-0.2,1.3-0.7,1.9c-0.5,0.5-1.1,0.8-1.8,0.8c-0.8,0-1.3-0.3-1.7-0.8s-0.6-1.2-0.6-1.9c0-0.8-0.4-2.2-1-4.5
			c-0.6-2.2-1.7-4.9-3.2-8s-3.2-5.4-5.2-6.7h-12.4v19.2c0,1.8-0.8,2.7-2.5,2.7c-1.6,0-2.3-0.9-2.3-2.7v-37.8c0-1.9,0.8-2.9,2.3-2.9
			h12.5c5.4,0,9.4,0.8,12,2.3s3.9,4.3,3.9,8.3C599.3,214.7,596.9,218.1,592.1,219.4z M573.3,203.7v12h10c4.3,0,7.3-0.4,8.8-1.2
			c1.6-0.8,2.3-2.4,2.3-4.9s-0.8-4.1-2.4-4.8s-4.5-1.1-8.8-1.1H573.3z"/>
		<path fill="#046938" d="M624.5,242.4c-5.1,0-9.1-1.4-12.2-4.2c-3.1-2.8-4.6-6.7-4.6-11.7v-11.7c0-5,1.5-8.9,4.6-11.7
			s7.1-4.2,12.2-4.2c5,0,9.1,1.4,12.1,4.3c3.1,2.8,4.6,6.7,4.6,11.6v11.7c0,4.9-1.5,8.8-4.6,11.6
			C633.5,240.9,629.5,242.4,624.5,242.4z M633.4,206.7c-2-2-5-3-8.9-3s-6.9,1-8.9,3s-3,4.8-3,8.3v11.3c0,3.6,1,6.4,3.1,8.4
			c2,2,5,2.9,8.9,2.9s6.9-1,8.9-2.9c2-2,3.1-4.7,3.1-8.4V215C636.4,211.4,635.4,208.7,633.4,206.7z"/>
		<path fill="#046938" d="M679.3,201.7c0-1.8,0.8-2.7,2.5-2.7c1.6,0,2.3,0.9,2.3,2.7v24.7c0,4.9-1.5,8.8-4.6,11.6s-7.1,4.3-12.1,4.3
			c-5.1,0-9.1-1.4-12.2-4.2c-3.1-2.8-4.6-6.7-4.6-11.7v-24.7c0-1.8,0.8-2.7,2.4-2.7c0.6,0,1.2,0.2,1.7,0.6c0.5,0.4,0.7,1.1,0.7,2
			v24.6c0,3.6,1,6.4,3.1,8.4c2,2,5,2.9,8.9,2.9s6.9-1,8.9-2.9c2-2,3.1-4.7,3.1-8.4L679.3,201.7L679.3,201.7z"/>
		<path fill="#046938" d="M726,242.3c-1,0-1.6-0.2-1.9-0.5l-24.5-34.4v32.2c0,1.7-0.8,2.6-2.4,2.6s-2.4-0.9-2.4-2.8v-37.6
			c0-1.9,0.8-2.9,2.3-2.9c1,0,1.8,0.5,2.5,1.5l23.9,33.4V202c0-2,0.8-3.1,2.3-3.1c1.6,0,2.5,1,2.5,2.9v37.6
			C728.3,241.4,727.5,242.3,726,242.3z"/>
		<path fill="#046938" d="M773,211.8v17.8c0,4.8-1.3,8.1-3.9,9.7c-2.6,1.7-6.9,2.5-12.8,2.5h-14.5c-1.5,0-2.3-1-2.3-2.9v-36.4
			c0-2,0.8-2.9,2.3-2.9h15.7c5.4,0,9.3,0.8,11.8,2.5C771.7,203.8,773,206.9,773,211.8z M768.2,229.4v-17.6c0-3.3-0.7-5.4-2.2-6.2
			c-1.4-0.9-4.3-1.3-8.6-1.3h-13.2V237h12c4.9,0,8.1-0.4,9.7-1.3S768.2,232.8,768.2,229.4z"/>
	</g>
	<g>
		<rect x="21.5" y="270.7" fill="none" width="825" height="79.1"/>
		<path fill="#DE573D" d="M97.1,292.4h-8.8v-1.1c0.3-0.2,0.7-0.3,1.1-0.5s0.8-0.3,1.2-0.3v-16.4c-0.5-0.1-0.9-0.2-1.3-0.3
			c-0.4-0.2-0.8-0.3-1-0.5v-1.1h8.8v1.1c-0.3,0.2-0.6,0.4-1,0.5c-0.4,0.2-0.7,0.3-1.1,0.3v7h7.7v-7c-0.4-0.1-0.8-0.2-1.1-0.3
			c-0.3-0.2-0.6-0.3-0.9-0.5v-1.1h8.8v1.1c-0.3,0.2-0.7,0.4-1.1,0.5s-0.8,0.2-1.2,0.3v16.4c0.4,0.1,0.9,0.2,1.3,0.3
			c0.4,0.2,0.8,0.3,1.1,0.5v1.1h-8.8v-1.1c0.3-0.2,0.6-0.3,1-0.5c0.3-0.2,0.7-0.3,1.1-0.3V283h-7.7v7.5c0.4,0.1,0.7,0.2,1.1,0.3
			c0.3,0.1,0.7,0.3,1,0.5v1.1H97.1z"/>
		<path fill="#DE573D" d="M110.9,285.2c0-1.2,0.2-2.2,0.5-3.2c0.4-0.9,0.9-1.7,1.5-2.4c0.7-0.7,1.5-1.2,2.4-1.5s2-0.5,3.2-0.5
			c1.3,0,2.5,0.2,3.5,0.6s1.8,0.9,2.4,1.6s1.1,1.5,1.4,2.4s0.4,2,0.4,3.1c0,1.2-0.2,2.2-0.5,3.2c-0.3,0.9-0.9,1.7-1.5,2.4
			c-0.7,0.7-1.5,1.2-2.4,1.5c-1,0.3-2,0.5-3.2,0.5c-1.3,0-2.5-0.2-3.4-0.6c-1-0.4-1.8-0.9-2.4-1.6s-1.1-1.5-1.4-2.4
			C111,287.3,110.9,286.3,110.9,285.2z M115.4,285.2c0,0.9,0.1,1.7,0.2,2.4c0.1,0.7,0.3,1.3,0.6,1.8s0.6,0.9,1.1,1.2
			s1.1,0.4,1.8,0.4c0.4,0,0.8-0.1,1.2-0.3c0.3-0.2,0.6-0.5,0.9-1s0.4-1.1,0.6-1.8c0.1-0.7,0.2-1.7,0.2-2.7c0-0.9-0.1-1.7-0.2-2.4
			c-0.1-0.7-0.3-1.3-0.5-1.8c-0.3-0.5-0.6-0.9-1.1-1.2s-1-0.4-1.7-0.4c-0.5,0-0.9,0.1-1.3,0.3c-0.4,0.2-0.7,0.5-0.9,1
			s-0.4,1.1-0.6,1.8C115.4,283.2,115.4,284.1,115.4,285.2z"/>
		<path fill="#DE573D" d="M132.6,292.8l-4.5-13c-0.3-0.1-0.5-0.2-0.8-0.3s-0.5-0.2-0.7-0.4V278h7.3v1.1c-0.3,0.2-0.5,0.3-0.8,0.4
			s-0.5,0.2-0.8,0.3l2,7.4l0.4,2.2h0.1l0.5-2.3l3.1-9l1.4-0.2l3.3,9.2l0.6,2.3h0.1l0.5-2.3l1.7-7.4c-0.2,0-0.5-0.1-0.7-0.2
			c-0.3-0.1-0.6-0.3-0.9-0.5v-1.1h5.6v1.1c-0.4,0.3-1,0.5-1.6,0.7l-4,12.7l-2.7,0.3l-2.5-7.1l-0.5-2.4h-0.1l-0.7,2.4l-2.3,6.8
			L132.6,292.8z"/>
		<path fill="#DE573D" d="M158.4,279.7c-0.3-0.1-0.6-0.2-0.8-0.3s-0.5-0.3-0.7-0.4v-1.1h7.6v1.1c-0.4,0.3-1,0.5-1.6,0.7l2.9,7.3
			l0.5,1.9h0.1l0.5-1.9l2.3-7.3c-0.6-0.1-1.1-0.3-1.6-0.7v-1.1h5.6v1.1c-0.4,0.3-1,0.5-1.6,0.7l-4.7,12.7c-0.5,1.2-0.9,2.2-1.4,3
			s-0.9,1.4-1.4,1.9s-0.9,0.8-1.4,1s-0.9,0.3-1.4,0.4c-0.2-0.2-0.4-0.4-0.5-0.7c-0.2-0.3-0.3-0.5-0.4-0.8c-0.1-0.3-0.2-0.6-0.3-0.9
			s-0.1-0.6-0.1-0.9l0.4-0.7h3.5c0.2-0.3,0.3-0.6,0.4-0.9c0.1-0.3,0.3-0.8,0.4-1.4L158.4,279.7z"/>
		<path fill="#DE573D" d="M173.1,285.2c0-1.2,0.2-2.2,0.5-3.2c0.4-0.9,0.9-1.7,1.5-2.4c0.7-0.7,1.5-1.2,2.4-1.5s2-0.5,3.2-0.5
			c1.3,0,2.5,0.2,3.5,0.6s1.8,0.9,2.4,1.6c0.6,0.7,1.1,1.5,1.4,2.4c0.3,0.9,0.4,2,0.4,3.1c0,1.2-0.2,2.2-0.5,3.2
			c-0.3,0.9-0.9,1.7-1.5,2.4c-0.7,0.7-1.5,1.2-2.4,1.5c-1,0.3-2,0.5-3.2,0.5c-1.3,0-2.5-0.2-3.4-0.6c-1-0.4-1.8-0.9-2.4-1.6
			c-0.6-0.7-1.1-1.5-1.4-2.4C173.2,287.3,173.1,286.3,173.1,285.2z M177.5,285.2c0,0.9,0.1,1.7,0.2,2.4c0.1,0.7,0.3,1.3,0.6,1.8
			s0.6,0.9,1.1,1.2s1.1,0.4,1.8,0.4c0.4,0,0.8-0.1,1.2-0.3c0.3-0.2,0.6-0.5,0.9-1c0.3-0.5,0.4-1.1,0.6-1.8c0.1-0.7,0.2-1.7,0.2-2.7
			c0-0.9-0.1-1.7-0.2-2.4c-0.1-0.7-0.3-1.3-0.5-1.8c-0.3-0.5-0.6-0.9-1.1-1.2s-1-0.4-1.7-0.4c-0.5,0-0.9,0.1-1.3,0.3
			c-0.4,0.2-0.7,0.5-0.9,1s-0.4,1.1-0.6,1.8C177.6,283.2,177.5,284.1,177.5,285.2z"/>
		<path fill="#DE573D" d="M191.4,286.7c0-1.2,0-2.3,0.1-3.4c0.1-1,0.1-2.1,0.1-3.3l-1.9-0.2v-1.1c0.3-0.1,0.7-0.2,1.1-0.3
			s0.9-0.2,1.4-0.3s1-0.2,1.4-0.2s0.8-0.1,1.1-0.2h1c0,1.4,0,2.9-0.1,4.3s-0.1,2.8-0.1,4.1c0,1.6,0.2,2.7,0.5,3.4s0.9,1,1.8,1
			c0.6,0,1.2-0.2,1.7-0.7s0.9-1.2,1.3-2.2V280l-1.9-0.2v-1.1c0.3-0.1,0.7-0.2,1.1-0.3c0.4-0.1,0.9-0.2,1.4-0.3s0.9-0.2,1.4-0.2
			s0.9-0.1,1.2-0.2h1v12.7l1.9,0.2v1c-0.3,0.1-0.6,0.2-1,0.3s-0.8,0.2-1.3,0.3c-0.4,0.1-0.9,0.2-1.3,0.3c-0.4,0.1-0.8,0.1-1.2,0.2
			h-1l-0.2-3.4h-0.1c-0.1,0.4-0.3,0.8-0.5,1.2c-0.3,0.4-0.6,0.8-1,1.1s-0.9,0.6-1.4,0.8s-1.1,0.3-1.8,0.3s-1.4-0.1-2-0.3
			s-1.1-0.5-1.5-1s-0.7-1.1-0.9-1.9C191.5,288.9,191.4,287.9,191.4,286.7z"/>
		<path fill="#DE573D" d="M215.7,281.3c-0.2,0.1-0.5,0.3-0.8,0.6s-0.6,0.7-0.8,1.3v7.4c0.4,0,0.8,0.1,1.2,0.2s0.8,0.3,1.2,0.5v1.1
			h-8.4v-1.1c0.3-0.2,0.7-0.3,1-0.4s0.6-0.2,0.9-0.3V280l-1.9-0.2v-1.1c0.3-0.1,0.7-0.3,1.1-0.4c0.5-0.1,0.9-0.2,1.4-0.3
			s0.9-0.2,1.4-0.2c0.5-0.1,0.8-0.1,1.1-0.1h1v3.8h0.1c0.2-0.4,0.4-0.9,0.7-1.3s0.7-0.9,1.1-1.3c0.4-0.4,0.8-0.7,1.3-0.9
			s1-0.3,1.5-0.3c0.2,0.3,0.4,0.7,0.5,1.1c0.2,0.5,0.3,1,0.4,1.4v1.1L215.7,281.3L215.7,281.3z"/>
		<path fill="#DE573D" d="M240.8,290.1c-0.1,0.4-0.4,0.7-0.7,1.1s-0.7,0.6-1.1,0.9c-0.4,0.3-0.9,0.4-1.5,0.6
			c-0.5,0.1-1.1,0.2-1.7,0.2c-1.3,0-2.4-0.2-3.3-0.5c-0.9-0.4-1.7-0.9-2.3-1.5c-0.6-0.7-1-1.5-1.3-2.4s-0.4-2-0.4-3.1
			c0-2.5,0.7-4.3,2-5.6s3.2-2,5.7-2c0.9,0,1.8,0.1,2.6,0.3s1.4,0.4,2,0.7c0,0.3-0.1,0.7-0.2,1.1c-0.1,0.4-0.1,0.8-0.2,1.2
			s-0.2,0.8-0.3,1.2s-0.2,0.7-0.3,0.9h-1.4l-1.2-3.4c-0.1-0.1-0.3-0.2-0.4-0.2s-0.4-0.1-0.7-0.1c-0.5,0-0.9,0.1-1.3,0.3
			c-0.4,0.2-0.7,0.5-0.9,0.9c-0.3,0.4-0.5,1-0.6,1.8c-0.1,0.7-0.2,1.6-0.2,2.7c0,0.8,0.1,1.5,0.3,2.2s0.4,1.2,0.8,1.7
			c0.4,0.5,0.8,0.9,1.3,1.2s1.2,0.4,1.9,0.4s1.3-0.1,1.8-0.3s0.9-0.4,1.3-0.7L240.8,290.1z"/>
		<path fill="#DE573D" d="M242.1,285.2c0-1.2,0.2-2.2,0.5-3.2c0.4-0.9,0.9-1.7,1.5-2.4c0.7-0.7,1.5-1.2,2.4-1.5s2-0.5,3.2-0.5
			c1.3,0,2.5,0.2,3.5,0.6s1.8,0.9,2.4,1.6c0.6,0.7,1.1,1.5,1.4,2.4s0.4,2,0.4,3.1c0,1.2-0.2,2.2-0.5,3.2c-0.3,0.9-0.9,1.7-1.5,2.4
			c-0.7,0.7-1.5,1.2-2.4,1.5c-1,0.3-2,0.5-3.2,0.5c-1.3,0-2.5-0.2-3.4-0.6c-1-0.4-1.8-0.9-2.4-1.6c-0.6-0.7-1.1-1.5-1.4-2.4
			C242.2,287.3,242.1,286.3,242.1,285.2z M246.6,285.2c0,0.9,0.1,1.7,0.2,2.4c0.1,0.7,0.3,1.3,0.6,1.8s0.6,0.9,1.1,1.2
			s1.1,0.4,1.8,0.4c0.4,0,0.8-0.1,1.2-0.3c0.3-0.2,0.6-0.5,0.9-1c0.3-0.5,0.4-1.1,0.6-1.8c0.1-0.7,0.2-1.7,0.2-2.7
			c0-0.9-0.1-1.7-0.2-2.4c-0.1-0.7-0.3-1.3-0.5-1.8c-0.3-0.5-0.6-0.9-1.1-1.2s-1-0.4-1.7-0.4c-0.5,0-0.9,0.1-1.3,0.3
			c-0.4,0.2-0.7,0.5-0.9,1s-0.4,1.1-0.6,1.8C246.6,283.2,246.6,284.1,246.6,285.2z"/>
		<path fill="#DE573D" d="M275.6,292.4h-7.2v-1.1c0.2-0.1,0.4-0.2,0.7-0.4c0.2-0.1,0.5-0.2,0.8-0.3v-5.8c0-0.9,0-1.6-0.1-2.3
			c0-0.6-0.2-1.1-0.3-1.5c-0.2-0.4-0.4-0.7-0.6-0.9c-0.3-0.2-0.6-0.3-1-0.3c-0.6,0-1.2,0.2-1.6,0.7c-0.5,0.5-0.8,1.1-1,1.9v8.1
			c0.5,0.2,1,0.4,1.4,0.7v1.1h-7.5v-1.1c0.3-0.1,0.6-0.3,0.9-0.4s0.7-0.2,1-0.3v-10.6l-1.9-0.2v-1.1c0.3-0.1,0.7-0.3,1.1-0.4
			c0.5-0.1,0.9-0.2,1.4-0.3s0.9-0.2,1.4-0.2c0.5-0.1,0.8-0.1,1.1-0.1h1v3.3l0,0c0.3-0.9,0.9-1.7,1.6-2.3c0.8-0.6,1.7-1,2.8-1
			c0.5,0,0.9,0,1.4,0.1c0.4,0.1,0.9,0.3,1.2,0.5c0.4,0.3,0.7,0.6,1,1.1s0.5,1.1,0.6,1.8c0.3-1.1,0.9-1.9,1.7-2.6c0.8-0.7,1.8-1,3-1
			c0.7,0,1.3,0.1,1.9,0.3s1,0.5,1.4,1s0.7,1.1,0.9,1.9c0.2,0.8,0.3,1.8,0.3,3v6.9c0.7,0.1,1.3,0.3,1.9,0.7v1.1h-7.5v-1.1
			c0.4-0.3,0.9-0.5,1.4-0.7v-6.3c0-1.5-0.1-2.6-0.4-3.3c-0.3-0.7-0.9-1.1-1.8-1.1c-0.7,0-1.2,0.3-1.6,0.8s-0.7,1.2-0.9,2.1v7.8
			c0.3,0.1,0.6,0.2,0.9,0.3s0.5,0.2,0.7,0.4L275.6,292.4L275.6,292.4z"/>
		<path fill="#DE573D" d="M302.3,292.4h-7.2v-1.1c0.2-0.1,0.4-0.2,0.7-0.4c0.2-0.1,0.5-0.2,0.8-0.3v-5.8c0-0.9,0-1.6-0.1-2.3
			c0-0.6-0.2-1.1-0.3-1.5c-0.2-0.4-0.4-0.7-0.6-0.9c-0.3-0.2-0.6-0.3-1-0.3c-0.6,0-1.2,0.2-1.6,0.7c-0.5,0.5-0.8,1.1-1,1.9v8.1
			c0.5,0.2,1,0.4,1.4,0.7v1.1h-7.5v-1.1c0.3-0.1,0.6-0.3,0.9-0.4s0.7-0.2,1-0.3v-10.6l-1.9-0.2v-1.1c0.3-0.1,0.7-0.3,1.1-0.4
			c0.5-0.1,0.9-0.2,1.4-0.3s0.9-0.2,1.4-0.2c0.5-0.1,0.8-0.1,1.1-0.1h1v3.3l0,0c0.3-0.9,0.9-1.7,1.6-2.3c0.8-0.6,1.7-1,2.8-1
			c0.5,0,0.9,0,1.4,0.1c0.4,0.1,0.9,0.3,1.2,0.5c0.4,0.3,0.7,0.6,1,1.1s0.5,1.1,0.6,1.8c0.3-1.1,0.9-1.9,1.7-2.6c0.8-0.7,1.8-1,3-1
			c0.7,0,1.3,0.1,1.9,0.3s1,0.5,1.4,1s0.7,1.1,0.9,1.9c0.2,0.8,0.3,1.8,0.3,3v6.9c0.7,0.1,1.3,0.3,1.9,0.7v1.1h-7.5v-1.1
			c0.4-0.3,0.9-0.5,1.4-0.7v-6.3c0-1.5-0.1-2.6-0.4-3.3c-0.3-0.7-0.9-1.1-1.8-1.1c-0.7,0-1.2,0.3-1.6,0.8s-0.7,1.2-0.9,2.1v7.8
			c0.3,0.1,0.6,0.2,0.9,0.3s0.5,0.2,0.7,0.4L302.3,292.4L302.3,292.4z"/>
		<path fill="#DE573D" d="M313.9,286.7c0-1.2,0-2.3,0.1-3.4c0.1-1,0.1-2.1,0.1-3.3l-1.9-0.2v-1.1c0.3-0.1,0.7-0.2,1.1-0.3
			s0.9-0.2,1.4-0.3s1-0.2,1.4-0.2s0.8-0.1,1.1-0.2h1c0,1.4,0,2.9-0.1,4.3s-0.1,2.8-0.1,4.1c0,1.6,0.2,2.7,0.5,3.4s0.9,1,1.8,1
			c0.6,0,1.2-0.2,1.7-0.7s0.9-1.2,1.3-2.2V280l-1.9-0.2v-1.1c0.3-0.1,0.7-0.2,1.1-0.3c0.4-0.1,0.9-0.2,1.4-0.3s0.9-0.2,1.4-0.2
			s0.9-0.1,1.2-0.2h1v12.7l1.9,0.2v1c-0.3,0.1-0.6,0.2-1,0.3s-0.8,0.2-1.3,0.3c-0.4,0.1-0.9,0.2-1.3,0.3c-0.4,0.1-0.8,0.1-1.2,0.2
			h-1l-0.2-3.4h-0.1c-0.1,0.4-0.3,0.8-0.5,1.2c-0.3,0.4-0.6,0.8-1,1.1s-0.9,0.6-1.4,0.8s-1.1,0.3-1.8,0.3s-1.4-0.1-2-0.3
			s-1.1-0.5-1.5-1s-0.7-1.1-0.9-1.9C314,288.9,313.9,287.9,313.9,286.7z"/>
		<path fill="#DE573D" d="M330.1,278.7c0.7-0.5,1.5-0.8,2.3-1v-2.3c0.1-0.1,0.3-0.2,0.6-0.3s0.6-0.2,0.9-0.3s0.6-0.2,0.9-0.2
			c0.3-0.1,0.6-0.1,0.8-0.2h1v3.7h3.8v1.9h-3.8v7.5c0,1.2,0.1,2,0.4,2.5s0.8,0.7,1.5,0.7c0.3,0,0.7,0,1.2-0.1c0.4,0,0.8-0.1,1.2-0.3
			l0.2,1c-0.2,0.2-0.4,0.4-0.8,0.5c-0.3,0.2-0.7,0.4-1.2,0.5c-0.4,0.2-0.9,0.3-1.4,0.4s-1,0.2-1.6,0.2c-1.3,0-2.2-0.3-2.8-1
			s-0.9-1.7-0.9-3.2v-8.8h-2.3L330.1,278.7L330.1,278.7z"/>
		<path fill="#DE573D" d="M355.5,290c-0.2,0.3-0.4,0.7-0.7,1s-0.8,0.6-1.2,0.9c-0.5,0.3-1.1,0.5-1.7,0.6c-0.6,0.2-1.3,0.2-2.1,0.2
			c-1.2,0-2.3-0.2-3.2-0.5s-1.7-0.9-2.3-1.5c-0.6-0.7-1.1-1.5-1.4-2.4s-0.5-2-0.5-3.1c0-2.5,0.6-4.3,1.9-5.6
			c1.3-1.3,3.1-1.9,5.4-1.9c1,0,1.9,0.1,2.8,0.4s1.6,0.7,2.1,1.3c0.6,0.6,1,1.4,1.2,2.4s0.2,2.2,0,3.7h-8.9c0,1.5,0.4,2.7,1.2,3.6
			c0.8,0.9,1.9,1.4,3.4,1.4c0.6,0,1.3-0.1,2-0.3s1.2-0.4,1.6-0.8L355.5,290z M349.5,279.2c-0.4,0-0.7,0.1-1,0.2s-0.6,0.4-0.8,0.7
			c-0.2,0.4-0.4,0.8-0.5,1.4s-0.2,1.4-0.3,2.3h4.6c0.1-1.5,0-2.7-0.3-3.5C350.9,279.7,350.3,279.2,349.5,279.2z"/>
		<path fill="#DE573D" d="M373.6,292.4h-8v-1.1c0.3-0.2,0.6-0.3,0.9-0.4s0.6-0.2,1-0.3V280l-1.9-0.2v-1.1c0.3-0.1,0.7-0.2,1.1-0.3
			c0.4-0.1,0.9-0.2,1.4-0.3s1-0.2,1.4-0.2s0.9-0.1,1.2-0.2h1v13c0.4,0.1,0.7,0.2,1,0.3s0.6,0.2,0.9,0.4V292.4L373.6,292.4z
			 M367.1,273.2c0-0.7,0.2-1.2,0.7-1.6s1-0.6,1.8-0.6s1.3,0.2,1.8,0.6s0.7,0.9,0.7,1.6s-0.2,1.2-0.7,1.6s-1,0.6-1.8,0.6
			s-1.3-0.2-1.8-0.6S367.1,273.9,367.1,273.2z"/>
		<path fill="#DE573D" d="M391.5,292.4h-7.2v-1.1c0.2-0.1,0.4-0.2,0.7-0.4c0.2-0.1,0.5-0.2,0.8-0.3v-5.8c0-0.9,0-1.6-0.1-2.3
			c0-0.6-0.2-1.1-0.3-1.5c-0.2-0.4-0.4-0.7-0.6-0.9c-0.3-0.2-0.6-0.3-1-0.3c-0.6,0-1.2,0.2-1.6,0.7c-0.5,0.5-0.8,1.1-1,1.9v8.1
			c0.5,0.2,1,0.4,1.4,0.7v1.1h-7.5v-1.1c0.3-0.1,0.6-0.3,0.9-0.4s0.7-0.2,1-0.3v-10.6l-1.9-0.2v-1.1c0.3-0.1,0.7-0.3,1.1-0.4
			c0.5-0.1,0.9-0.2,1.4-0.3s0.9-0.2,1.4-0.2c0.5-0.1,0.8-0.1,1.1-0.1h1v3.3l0,0c0.3-0.9,0.9-1.7,1.6-2.3c0.8-0.6,1.7-1,2.8-1
			c0.5,0,0.9,0,1.4,0.1c0.4,0.1,0.9,0.3,1.2,0.5c0.4,0.3,0.7,0.6,1,1.1s0.5,1.1,0.6,1.8c0.3-1.1,0.9-1.9,1.7-2.6c0.8-0.7,1.8-1,3-1
			c0.7,0,1.3,0.1,1.9,0.3s1,0.5,1.4,1s0.7,1.1,0.9,1.9c0.2,0.8,0.3,1.8,0.3,3v6.9c0.7,0.1,1.3,0.3,1.9,0.7v1.1h-7.5v-1.1
			c0.4-0.3,0.9-0.5,1.4-0.7v-6.3c0-1.5-0.1-2.6-0.4-3.3c-0.3-0.7-0.9-1.1-1.8-1.1c-0.7,0-1.2,0.3-1.6,0.8s-0.7,1.2-0.9,2.1v7.8
			c0.3,0.1,0.6,0.2,0.9,0.3s0.5,0.2,0.7,0.4L391.5,292.4L391.5,292.4z"/>
		<path fill="#DE573D" d="M409.7,298.2h-8v-1.1c0.7-0.3,1.3-0.5,1.9-0.7V280l-1.9-0.2v-1.1c0.3-0.1,0.7-0.3,1.1-0.4
			c0.5-0.1,0.9-0.2,1.4-0.3s0.9-0.2,1.4-0.2c0.5-0.1,0.8-0.1,1.1-0.1h1v3.2l0,0c0.3-0.9,0.8-1.7,1.5-2.3s1.7-0.9,2.9-0.9
			c0.8,0,1.6,0.1,2.3,0.4c0.7,0.3,1.3,0.7,1.7,1.3c0.5,0.6,0.8,1.3,1.1,2.3c0.3,0.9,0.4,2,0.4,3.3c0,1.2-0.2,2.3-0.5,3.3
			s-0.8,1.8-1.4,2.5s-1.4,1.2-2.3,1.6s-1.9,0.5-3.1,0.5c-0.7,0-1.2,0-1.5-0.1s-0.8-0.2-1.2-0.4v4.2c0.3,0,0.6,0.1,0.9,0.2
			s0.6,0.3,1,0.5v0.9L409.7,298.2L409.7,298.2z M410.6,279.9c-0.7,0-1.2,0.2-1.8,0.7s-0.9,1.2-1.1,2.1v7.7c0.3,0.2,0.6,0.4,1,0.5
			c0.3,0.1,0.8,0.2,1.4,0.2c1.1,0,1.9-0.5,2.4-1.6s0.8-2.6,0.8-4.7c0-1.6-0.2-2.8-0.6-3.7C412.3,280.3,411.6,279.9,410.6,279.9z"/>
		<path fill="#DE573D" d="M432.3,288.2c0,0.4,0,0.8,0,1.1s0,0.6,0.1,1l2,0.3v1c-0.2,0.1-0.5,0.2-0.9,0.3s-0.8,0.2-1.2,0.3
			s-0.9,0.2-1.3,0.3c-0.4,0.1-0.8,0.1-1.1,0.2h-1c-0.2-0.4-0.3-0.9-0.3-1.3s-0.1-1-0.1-1.6h-0.1c-0.1,0.4-0.3,0.8-0.5,1.1
			c-0.2,0.4-0.5,0.7-0.9,1s-0.8,0.5-1.3,0.7s-1,0.3-1.6,0.3s-1.2-0.1-1.8-0.3s-1-0.5-1.4-0.8s-0.7-0.8-1-1.3c-0.2-0.5-0.3-1-0.3-1.7
			c0-0.9,0.2-1.6,0.5-2.1c0.3-0.6,0.8-1,1.5-1.4s1.6-0.6,2.7-0.8c1.1-0.2,2.5-0.3,4-0.4c0.2-1.7,0.1-2.9-0.2-3.6
			c-0.3-0.8-0.9-1.2-1.9-1.2c-0.6,0-1.1,0.1-1.6,0.3l-1.4,3.5h-1.3c-0.2-0.2-0.3-0.5-0.4-0.8s-0.3-0.6-0.4-1c-0.1-0.3-0.2-0.7-0.3-1
			s-0.1-0.7-0.2-1c0.7-0.5,1.7-0.9,2.8-1.2c1.2-0.3,2.4-0.4,3.7-0.4c1.1,0,2,0.1,2.7,0.4c0.7,0.2,1.2,0.6,1.6,1s0.7,0.9,0.8,1.5
			c0.2,0.6,0.2,1.2,0.2,1.8c0,1.2,0,2.2-0.1,3.1C432.3,286.3,432.3,287.2,432.3,288.2z M425.8,290.4c0.4,0,0.8-0.1,1-0.2
			c0.3-0.2,0.5-0.3,0.7-0.5s0.4-0.4,0.5-0.7s0.2-0.5,0.2-0.7v-2.9c-0.9,0-1.6,0.1-2.2,0.2s-1,0.3-1.4,0.5c-0.3,0.2-0.6,0.5-0.7,0.8
			s-0.2,0.7-0.2,1.2c0,0.7,0.2,1.3,0.5,1.7C424.7,290.2,425.2,290.4,425.8,290.4z"/>
		<path fill="#DE573D" d="M448,290.1c-0.1,0.4-0.4,0.7-0.7,1.1s-0.7,0.6-1.1,0.9s-0.9,0.4-1.5,0.6c-0.5,0.1-1.1,0.2-1.7,0.2
			c-1.3,0-2.4-0.2-3.3-0.5c-0.9-0.4-1.7-0.9-2.3-1.5c-0.6-0.7-1-1.5-1.3-2.4s-0.4-2-0.4-3.1c0-2.5,0.7-4.3,2-5.6s3.2-2,5.7-2
			c0.9,0,1.8,0.1,2.6,0.3s1.4,0.4,2,0.7c0,0.3-0.1,0.7-0.2,1.1s-0.1,0.8-0.2,1.2s-0.2,0.8-0.3,1.2s-0.2,0.7-0.3,0.9h-1.4l-1.2-3.4
			c-0.1-0.1-0.3-0.2-0.4-0.2s-0.4-0.1-0.7-0.1c-0.5,0-0.9,0.1-1.3,0.3c-0.4,0.2-0.7,0.5-0.9,0.9c-0.3,0.4-0.5,1-0.6,1.8
			c-0.1,0.7-0.2,1.6-0.2,2.7c0,0.8,0.1,1.5,0.3,2.2s0.4,1.2,0.8,1.7s0.8,0.9,1.3,1.2s1.2,0.4,1.9,0.4s1.3-0.1,1.8-0.3
			s0.9-0.4,1.3-0.7L448,290.1z"/>
		<path fill="#DE573D" d="M448.7,278.7c0.7-0.5,1.5-0.8,2.3-1v-2.3c0.1-0.1,0.3-0.2,0.6-0.3s0.6-0.2,0.9-0.3s0.6-0.2,0.9-0.2
			c0.3-0.1,0.6-0.1,0.8-0.2h1v3.7h3.8v1.9h-3.8v7.5c0,1.2,0.1,2,0.4,2.5s0.8,0.7,1.5,0.7c0.3,0,0.7,0,1.2-0.1c0.4,0,0.8-0.1,1.2-0.3
			l0.2,1c-0.2,0.2-0.4,0.4-0.8,0.5c-0.3,0.2-0.7,0.4-1.2,0.5c-0.4,0.2-0.9,0.3-1.4,0.4s-1,0.2-1.6,0.2c-1.3,0-2.2-0.3-2.8-1
			s-0.9-1.7-0.9-3.2v-8.8h-2.3L448.7,278.7L448.7,278.7z"/>
		<path fill="#DE573D" d="M468.4,289.3c0-0.5-0.2-0.9-0.5-1.3c-0.4-0.4-0.8-0.7-1.3-1s-1.1-0.6-1.7-0.9s-1.2-0.7-1.7-1.1
			s-1-0.9-1.3-1.5c-0.4-0.6-0.5-1.2-0.5-2.1c0-0.6,0.1-1.1,0.4-1.6s0.6-0.9,1.1-1.2s1-0.6,1.7-0.8c0.6-0.2,1.3-0.3,2.1-0.3
			c1,0,2,0.1,2.9,0.2c0.9,0.2,1.7,0.4,2.4,0.7c-0.1,0.6-0.2,1.3-0.5,2s-0.5,1.3-0.7,1.9h-1l-1.2-3c-0.2-0.1-0.5-0.2-0.7-0.2
			c-0.3,0-0.5,0-0.8,0c-0.6,0-1,0.2-1.3,0.5s-0.4,0.7-0.4,1.1c0,0.5,0.2,0.9,0.5,1.3c0.4,0.4,0.8,0.7,1.3,1s1.1,0.6,1.7,0.9
			s1.2,0.7,1.7,1.1s1,0.9,1.3,1.4c0.4,0.5,0.5,1.2,0.5,1.9c0,1.3-0.5,2.4-1.6,3.1s-2.5,1.1-4.3,1.1c-0.9,0-1.9-0.1-2.9-0.3
			s-1.8-0.5-2.5-0.8c0-0.7,0.2-1.4,0.5-2.1s0.6-1.4,0.9-1.9h1l1.4,3.2c0.2,0.2,0.4,0.2,0.7,0.3s0.5,0,0.7,0c0.6,0,1.1-0.2,1.5-0.5
			S468.4,289.8,468.4,289.3z"/>
		<path fill="#DE573D" d="M482,279.7c-0.3-0.1-0.6-0.2-0.8-0.3s-0.5-0.3-0.7-0.4v-1.1h7.6v1.1c-0.4,0.3-1,0.5-1.6,0.7l2.9,7.3
			l0.5,1.9h0.1l0.5-1.9l2.3-7.3c-0.6-0.1-1.1-0.3-1.6-0.7v-1.1h5.6v1.1c-0.4,0.3-1,0.5-1.6,0.7l-4.7,12.7c-0.5,1.2-0.9,2.2-1.4,3
			s-0.9,1.4-1.4,1.9s-0.9,0.8-1.4,1s-0.9,0.3-1.4,0.4c-0.2-0.2-0.4-0.4-0.5-0.7c-0.2-0.3-0.3-0.5-0.4-0.8s-0.2-0.6-0.3-0.9
			c-0.1-0.3-0.1-0.6-0.1-0.9l0.4-0.7h3.5c0.2-0.3,0.3-0.6,0.4-0.9s0.3-0.8,0.4-1.4L482,279.7z"/>
		<path fill="#DE573D" d="M496.7,285.2c0-1.2,0.2-2.2,0.5-3.2c0.4-0.9,0.9-1.7,1.5-2.4c0.7-0.7,1.5-1.2,2.4-1.5s2-0.5,3.2-0.5
			c1.3,0,2.5,0.2,3.5,0.6s1.8,0.9,2.4,1.6s1.1,1.5,1.4,2.4s0.4,2,0.4,3.1c0,1.2-0.2,2.2-0.5,3.2c-0.3,0.9-0.9,1.7-1.5,2.4
			c-0.7,0.7-1.5,1.2-2.4,1.5c-1,0.3-2,0.5-3.2,0.5c-1.3,0-2.5-0.2-3.4-0.6c-1-0.4-1.8-0.9-2.4-1.6s-1.1-1.5-1.4-2.4
			C496.8,287.3,496.7,286.3,496.7,285.2z M501.1,285.2c0,0.9,0.1,1.7,0.2,2.4c0.1,0.7,0.3,1.3,0.6,1.8s0.6,0.9,1.1,1.2
			s1.1,0.4,1.8,0.4c0.4,0,0.8-0.1,1.2-0.3c0.3-0.2,0.6-0.5,0.9-1s0.4-1.1,0.6-1.8c0.1-0.7,0.2-1.7,0.2-2.7c0-0.9-0.1-1.7-0.2-2.4
			c-0.1-0.7-0.3-1.3-0.5-1.8c-0.3-0.5-0.6-0.9-1.1-1.2s-1-0.4-1.7-0.4c-0.5,0-0.9,0.1-1.3,0.3c-0.4,0.2-0.7,0.5-0.9,1
			s-0.4,1.1-0.6,1.8S501.1,284.1,501.1,285.2z"/>
		<path fill="#DE573D" d="M515,286.7c0-1.2,0-2.3,0.1-3.4c0.1-1,0.1-2.1,0.1-3.3l-1.9-0.2v-1.1c0.3-0.1,0.7-0.2,1.1-0.3
			s0.9-0.2,1.4-0.3s1-0.2,1.4-0.2s0.8-0.1,1.1-0.2h1c0,1.4,0,2.9-0.1,4.3s-0.1,2.8-0.1,4.1c0,1.6,0.2,2.7,0.5,3.4s0.9,1,1.8,1
			c0.6,0,1.2-0.2,1.7-0.7s0.9-1.2,1.3-2.2V280l-1.9-0.2v-1.1c0.3-0.1,0.7-0.2,1.1-0.3c0.4-0.1,0.9-0.2,1.4-0.3s0.9-0.2,1.4-0.2
			s0.9-0.1,1.2-0.2h1v12.7l1.9,0.2v1c-0.3,0.1-0.6,0.2-1,0.3s-0.8,0.2-1.3,0.3c-0.4,0.1-0.9,0.2-1.3,0.3c-0.4,0.1-0.8,0.1-1.2,0.2
			h-1l-0.2-3.4h-0.1c-0.1,0.4-0.3,0.8-0.5,1.2c-0.3,0.4-0.6,0.8-1,1.1s-0.9,0.6-1.4,0.8s-1.1,0.3-1.8,0.3s-1.4-0.1-2-0.3
			s-1.1-0.5-1.5-1s-0.7-1.1-0.9-1.9C515.1,288.9,515,287.9,515,286.7z"/>
		<path fill="#DE573D" d="M539.3,281.3c-0.2,0.1-0.5,0.3-0.8,0.6s-0.6,0.7-0.8,1.3v7.4c0.4,0,0.8,0.1,1.2,0.2s0.8,0.3,1.2,0.5v1.1
			h-8.4v-1.1c0.3-0.2,0.7-0.3,1-0.4s0.6-0.2,0.9-0.3V280l-1.9-0.2v-1.1c0.3-0.1,0.7-0.3,1.1-0.4c0.5-0.1,0.9-0.2,1.4-0.3
			s0.9-0.2,1.4-0.2c0.5-0.1,0.8-0.1,1.1-0.1h1v3.8h0.1c0.2-0.4,0.4-0.9,0.7-1.3s0.7-0.9,1.1-1.3c0.4-0.4,0.8-0.7,1.3-0.9
			s1-0.3,1.5-0.3c0.2,0.3,0.4,0.7,0.5,1.1c0.2,0.5,0.3,1,0.4,1.4v1.1L539.3,281.3L539.3,281.3z"/>
		<path fill="#DE573D" d="M564.4,290.1c-0.1,0.4-0.4,0.7-0.7,1.1s-0.7,0.6-1.1,0.9c-0.4,0.3-0.9,0.4-1.5,0.6
			c-0.5,0.1-1.1,0.2-1.7,0.2c-1.3,0-2.4-0.2-3.3-0.5c-0.9-0.4-1.7-0.9-2.3-1.5c-0.6-0.7-1-1.5-1.3-2.4s-0.4-2-0.4-3.1
			c0-2.5,0.7-4.3,2-5.6s3.2-2,5.7-2c0.9,0,1.8,0.1,2.6,0.3s1.4,0.4,2,0.7c0,0.3-0.1,0.7-0.2,1.1c-0.1,0.4-0.1,0.8-0.2,1.2
			s-0.2,0.8-0.3,1.2s-0.2,0.7-0.3,0.9H562l-1.2-3.4c-0.1-0.1-0.3-0.2-0.4-0.2s-0.4-0.1-0.7-0.1c-0.5,0-0.9,0.1-1.3,0.3
			c-0.4,0.2-0.7,0.5-0.9,0.9c-0.3,0.4-0.5,1-0.6,1.8c-0.1,0.7-0.2,1.6-0.2,2.7c0,0.8,0.1,1.5,0.3,2.2s0.4,1.2,0.8,1.7
			c0.4,0.5,0.8,0.9,1.3,1.2s1.2,0.4,1.9,0.4s1.3-0.1,1.8-0.3s0.9-0.4,1.3-0.7L564.4,290.1z"/>
		<path fill="#DE573D" d="M578.8,288.2c0,0.4,0,0.8,0,1.1s0,0.6,0.1,1l2,0.3v1c-0.2,0.1-0.5,0.2-0.9,0.3s-0.8,0.2-1.2,0.3
			s-0.9,0.2-1.3,0.3c-0.4,0.1-0.8,0.1-1.1,0.2h-1c-0.2-0.4-0.3-0.9-0.3-1.3s-0.1-1-0.1-1.6h-0.1c-0.1,0.4-0.3,0.8-0.5,1.1
			c-0.2,0.4-0.5,0.7-0.9,1s-0.8,0.5-1.3,0.7s-1,0.3-1.6,0.3s-1.2-0.1-1.8-0.3s-1-0.5-1.4-0.8s-0.7-0.8-1-1.3c-0.2-0.5-0.3-1-0.3-1.7
			c0-0.9,0.2-1.6,0.5-2.1c0.3-0.6,0.8-1,1.5-1.4s1.6-0.6,2.7-0.8c1.1-0.2,2.5-0.3,4-0.4c0.2-1.7,0.1-2.9-0.2-3.6
			c-0.3-0.8-0.9-1.2-1.9-1.2c-0.6,0-1.1,0.1-1.6,0.3l-1.4,3.5h-1.3c-0.2-0.2-0.3-0.5-0.4-0.8c-0.1-0.3-0.3-0.6-0.4-1
			c-0.1-0.3-0.2-0.7-0.3-1s-0.1-0.7-0.2-1c0.7-0.5,1.7-0.9,2.8-1.2c1.2-0.3,2.4-0.4,3.7-0.4c1.1,0,2,0.1,2.7,0.4
			c0.7,0.2,1.2,0.6,1.6,1s0.7,0.9,0.8,1.5c0.2,0.6,0.2,1.2,0.2,1.8c0,1.2,0,2.2-0.1,3.1C578.8,286.3,578.8,287.2,578.8,288.2z
			 M572.3,290.4c0.4,0,0.8-0.1,1-0.2c0.3-0.2,0.5-0.3,0.7-0.5s0.4-0.4,0.5-0.7s0.2-0.5,0.2-0.7v-2.9c-0.9,0-1.6,0.1-2.2,0.2
			c-0.6,0.1-1,0.3-1.4,0.5c-0.3,0.2-0.6,0.5-0.7,0.8c-0.1,0.3-0.2,0.7-0.2,1.2c0,0.7,0.2,1.3,0.5,1.7
			C571.2,290.2,571.7,290.4,572.3,290.4z"/>
		<path fill="#DE573D" d="M589.7,281.3c-0.2,0.1-0.5,0.3-0.8,0.6s-0.6,0.7-0.8,1.3v7.4c0.4,0,0.8,0.1,1.2,0.2s0.8,0.3,1.2,0.5v1.1
			h-8.4v-1.1c0.3-0.2,0.7-0.3,1-0.4s0.6-0.2,0.9-0.3V280l-1.9-0.2v-1.1c0.3-0.1,0.7-0.3,1.1-0.4c0.5-0.1,0.9-0.2,1.4-0.3
			s0.9-0.2,1.4-0.2c0.5-0.1,0.8-0.1,1.1-0.1h1v3.8h0.1c0.2-0.4,0.4-0.9,0.7-1.3s0.7-0.9,1.1-1.3c0.4-0.4,0.8-0.7,1.3-0.9
			s1-0.3,1.5-0.3c0.2,0.3,0.4,0.7,0.5,1.1c0.2,0.5,0.3,1,0.4,1.4v1.1L589.7,281.3L589.7,281.3z"/>
		<path fill="#DE573D" d="M595.8,273l-2.2-0.2v-1.1c0.3-0.1,0.7-0.2,1.1-0.3c0.5-0.1,1-0.2,1.5-0.3s1-0.2,1.5-0.2
			c0.5-0.1,0.9-0.1,1.3-0.2h1v10h0.1c0.4-1,1-1.7,1.8-2.3s1.7-0.8,2.8-0.8c1.7,0,3,0.6,4,1.8c0.9,1.2,1.4,3,1.4,5.4
			c0,2.6-0.7,4.6-2.1,6s-3.4,2-6.1,2c-0.5,0-1,0-1.6-0.1s-1.2-0.2-1.7-0.2s-1.1-0.2-1.5-0.3c-0.5-0.1-0.8-0.3-1-0.4V273H595.8z
			 M602.7,279.9c-0.7,0-1.3,0.3-1.8,0.8c-0.4,0.5-0.8,1.2-1,2v7.7c0.3,0.2,0.6,0.3,1,0.5c0.4,0.1,0.8,0.2,1.3,0.2
			c1.1,0,1.9-0.5,2.4-1.5s0.8-2.5,0.8-4.6c0-1.5-0.2-2.7-0.6-3.6C604.4,280.4,603.7,279.9,602.7,279.9z"/>
		<path fill="#DE573D" d="M611.7,285.2c0-1.2,0.2-2.2,0.5-3.2c0.4-0.9,0.9-1.7,1.5-2.4c0.7-0.7,1.5-1.2,2.4-1.5s2-0.5,3.2-0.5
			c1.3,0,2.5,0.2,3.5,0.6s1.8,0.9,2.4,1.6c0.6,0.7,1.1,1.5,1.4,2.4c0.3,0.9,0.4,2,0.4,3.1c0,1.2-0.2,2.2-0.5,3.2
			c-0.3,0.9-0.9,1.7-1.5,2.4c-0.7,0.7-1.5,1.2-2.4,1.5c-1,0.3-2,0.5-3.2,0.5c-1.3,0-2.5-0.2-3.4-0.6c-1-0.4-1.8-0.9-2.4-1.6
			c-0.6-0.7-1.1-1.5-1.4-2.4C611.9,287.3,611.7,286.3,611.7,285.2z M616.2,285.2c0,0.9,0.1,1.7,0.2,2.4c0.1,0.7,0.3,1.3,0.6,1.8
			s0.6,0.9,1.1,1.2s1.1,0.4,1.8,0.4c0.4,0,0.8-0.1,1.2-0.3c0.3-0.2,0.6-0.5,0.9-1c0.3-0.5,0.4-1.1,0.6-1.8c0.1-0.7,0.2-1.7,0.2-2.7
			c0-0.9-0.1-1.7-0.2-2.4c-0.1-0.7-0.3-1.3-0.5-1.8c-0.3-0.5-0.6-0.9-1.1-1.2s-1-0.4-1.7-0.4c-0.5,0-0.9,0.1-1.3,0.3
			c-0.4,0.2-0.7,0.5-0.9,1s-0.4,1.1-0.6,1.8C616.3,283.2,616.2,284.1,616.2,285.2z"/>
		<path fill="#DE573D" d="M646.3,292.4h-7.7v-1.1c0.2-0.1,0.5-0.3,0.7-0.4s0.5-0.2,0.9-0.3v-6.8c0-1.2-0.2-2.2-0.5-2.9s-1-1-1.9-1
			c-0.7,0-1.4,0.2-1.9,0.7s-0.9,1.1-1.2,1.9v8.1c0.3,0.1,0.6,0.2,0.8,0.3s0.5,0.2,0.8,0.4v1.1h-7.7v-1.1c0.5-0.3,1.1-0.5,1.9-0.7
			V280l-1.9-0.2v-1.1c0.3-0.1,0.6-0.2,1-0.3s0.8-0.2,1.3-0.3s1-0.2,1.4-0.2c0.5-0.1,0.9-0.1,1.3-0.2h1v3l0,0c0.4-0.8,1-1.5,1.8-2.1
			s1.8-0.9,3-0.9c0.8,0,1.4,0.1,2,0.3s1.1,0.5,1.5,1s0.7,1.1,1,1.9s0.3,1.8,0.3,3v6.9c0.8,0.1,1.4,0.4,1.9,0.7v0.9L646.3,292.4
			L646.3,292.4z"/>
		<path fill="#DE573D" d="M663.7,270.7c0.8,0,1.5,0.1,2.1,0.2s1.1,0.3,1.4,0.4c-0.1,0.6-0.2,1.3-0.4,2s-0.4,1.2-0.5,1.7h-1l-1.3-2.7
			c-0.5,0-0.9,0.1-1.3,0.2c-0.3,0.1-0.6,0.3-0.8,0.6c-0.2,0.3-0.4,0.7-0.4,1.3c-0.1,0.6-0.1,1.3-0.1,2.2v1.4h3.1v1.9h-3.1v10.8
			c1,0.1,1.9,0.3,2.8,0.7v1.1h-8.9v-1.1c0.6-0.3,1.2-0.6,1.9-0.7v-10.8H655v-1.2c0.7-0.4,1.4-0.8,2.2-1v-1c0-1.2,0.2-2.2,0.5-3
			s0.8-1.4,1.4-1.9c0.6-0.5,1.3-0.8,2-0.9C662,270.7,662.9,270.7,663.7,270.7z"/>
		<path fill="#DE573D" d="M665.7,285.2c0-1.2,0.2-2.2,0.5-3.2c0.4-0.9,0.9-1.7,1.5-2.4c0.7-0.7,1.5-1.2,2.4-1.5s2-0.5,3.2-0.5
			c1.3,0,2.5,0.2,3.5,0.6s1.8,0.9,2.4,1.6c0.6,0.7,1.1,1.5,1.4,2.4s0.4,2,0.4,3.1c0,1.2-0.2,2.2-0.5,3.2c-0.3,0.9-0.9,1.7-1.5,2.4
			c-0.7,0.7-1.5,1.2-2.4,1.5c-1,0.3-2,0.5-3.2,0.5c-1.3,0-2.5-0.2-3.4-0.6c-1-0.4-1.8-0.9-2.4-1.6c-0.6-0.7-1.1-1.5-1.4-2.4
			C665.8,287.3,665.7,286.3,665.7,285.2z M670.2,285.2c0,0.9,0.1,1.7,0.2,2.4s0.3,1.3,0.6,1.8s0.6,0.9,1.1,1.2s1.1,0.4,1.8,0.4
			c0.4,0,0.8-0.1,1.2-0.3c0.3-0.2,0.6-0.5,0.9-1s0.4-1.1,0.6-1.8c0.1-0.7,0.2-1.7,0.2-2.7c0-0.9-0.1-1.7-0.2-2.4s-0.3-1.3-0.5-1.8
			c-0.3-0.5-0.6-0.9-1.1-1.2s-1-0.4-1.7-0.4c-0.5,0-0.9,0.1-1.3,0.3s-0.7,0.5-0.9,1s-0.4,1.1-0.6,1.8
			C670.2,283.2,670.2,284.1,670.2,285.2z"/>
		<path fill="#DE573D" d="M682.9,285.2c0-1.2,0.2-2.2,0.5-3.2c0.4-0.9,0.9-1.7,1.5-2.4c0.7-0.7,1.5-1.2,2.4-1.5s2-0.5,3.2-0.5
			c1.3,0,2.5,0.2,3.5,0.6s1.8,0.9,2.4,1.6c0.6,0.7,1.1,1.5,1.4,2.4s0.4,2,0.4,3.1c0,1.2-0.2,2.2-0.5,3.2c-0.3,0.9-0.9,1.7-1.5,2.4
			c-0.7,0.7-1.5,1.2-2.4,1.5c-1,0.3-2,0.5-3.2,0.5c-1.3,0-2.5-0.2-3.4-0.6c-1-0.4-1.8-0.9-2.4-1.6c-0.6-0.7-1.1-1.5-1.4-2.4
			C683,287.3,682.9,286.3,682.9,285.2z M687.4,285.2c0,0.9,0.1,1.7,0.2,2.4s0.3,1.3,0.6,1.8s0.6,0.9,1.1,1.2s1.1,0.4,1.8,0.4
			c0.4,0,0.8-0.1,1.2-0.3c0.3-0.2,0.6-0.5,0.9-1s0.4-1.1,0.6-1.8c0.1-0.7,0.2-1.7,0.2-2.7c0-0.9-0.1-1.7-0.2-2.4s-0.3-1.3-0.5-1.8
			c-0.3-0.5-0.6-0.9-1.1-1.2s-1-0.4-1.7-0.4c-0.5,0-0.9,0.1-1.3,0.3s-0.7,0.5-0.9,1s-0.4,1.1-0.6,1.8
			C687.4,283.2,687.4,284.1,687.4,285.2z"/>
		<path fill="#DE573D" d="M699.2,278.7c0.7-0.5,1.5-0.8,2.3-1v-2.3c0.1-0.1,0.3-0.2,0.6-0.3c0.3-0.1,0.6-0.2,0.9-0.3
			s0.6-0.2,0.9-0.2c0.3-0.1,0.6-0.1,0.8-0.2h1v3.7h3.8v1.9h-3.8v7.5c0,1.2,0.1,2,0.4,2.5s0.8,0.7,1.5,0.7c0.3,0,0.7,0,1.2-0.1
			c0.4,0,0.8-0.1,1.2-0.3l0.2,1c-0.2,0.2-0.4,0.4-0.8,0.5c-0.3,0.2-0.7,0.4-1.2,0.5c-0.4,0.2-0.9,0.3-1.4,0.4s-1,0.2-1.6,0.2
			c-1.3,0-2.2-0.3-2.8-1s-0.9-1.7-0.9-3.2v-8.8h-2.3L699.2,278.7L699.2,278.7z"/>
		<path fill="#DE573D" d="M719.1,298.2h-8v-1.1c0.7-0.3,1.3-0.5,1.9-0.7V280l-1.9-0.2v-1.1c0.3-0.1,0.7-0.3,1.1-0.4
			c0.5-0.1,0.9-0.2,1.4-0.3s0.9-0.2,1.4-0.2c0.5-0.1,0.8-0.1,1.1-0.1h1v3.2l0,0c0.3-0.9,0.8-1.7,1.5-2.3s1.7-0.9,2.9-0.9
			c0.8,0,1.6,0.1,2.3,0.4s1.3,0.7,1.7,1.3c0.5,0.6,0.8,1.3,1.1,2.3c0.3,0.9,0.4,2,0.4,3.3c0,1.2-0.2,2.3-0.5,3.3s-0.8,1.8-1.4,2.5
			s-1.4,1.2-2.3,1.6c-0.9,0.4-1.9,0.5-3.1,0.5c-0.7,0-1.2,0-1.5-0.1s-0.8-0.2-1.2-0.4v4.2c0.3,0,0.6,0.1,0.9,0.2s0.6,0.3,1,0.5v0.9
			L719.1,298.2L719.1,298.2z M720.1,279.9c-0.7,0-1.2,0.2-1.8,0.7s-0.9,1.2-1.1,2.1v7.7c0.3,0.2,0.6,0.4,1,0.5
			c0.3,0.1,0.8,0.2,1.4,0.2c1.1,0,1.9-0.5,2.4-1.6s0.8-2.6,0.8-4.7c0-1.6-0.2-2.8-0.6-3.7C721.8,280.3,721.1,279.9,720.1,279.9z"/>
		<path fill="#DE573D" d="M736.5,281.3c-0.2,0.1-0.5,0.3-0.8,0.6s-0.6,0.7-0.8,1.3v7.4c0.4,0,0.8,0.1,1.2,0.2s0.8,0.3,1.2,0.5v1.1
			h-8.4v-1.1c0.3-0.2,0.7-0.3,1-0.4s0.6-0.2,0.9-0.3V280l-1.9-0.2v-1.1c0.3-0.1,0.7-0.3,1.1-0.4c0.5-0.1,0.9-0.2,1.4-0.3
			s0.9-0.2,1.4-0.2c0.5-0.1,0.8-0.1,1.1-0.1h1v3.8h0.1c0.2-0.4,0.4-0.9,0.7-1.3s0.7-0.9,1.1-1.3c0.4-0.4,0.8-0.7,1.3-0.9
			s1-0.3,1.5-0.3c0.2,0.3,0.4,0.7,0.5,1.1c0.2,0.5,0.3,1,0.4,1.4v1.1L736.5,281.3L736.5,281.3z"/>
		<path fill="#DE573D" d="M749.5,292.4h-8v-1.1c0.3-0.2,0.6-0.3,0.9-0.4s0.6-0.2,1-0.3V280l-1.9-0.2v-1.1c0.3-0.1,0.7-0.2,1.1-0.3
			s0.9-0.2,1.4-0.3s1-0.2,1.4-0.2s0.9-0.1,1.2-0.2h1v13c0.4,0.1,0.7,0.2,1,0.3s0.6,0.2,0.9,0.4L749.5,292.4L749.5,292.4z M743,273.2
			c0-0.7,0.2-1.2,0.7-1.6s1-0.6,1.8-0.6s1.3,0.2,1.8,0.6s0.7,0.9,0.7,1.6s-0.2,1.2-0.7,1.6s-1,0.6-1.8,0.6s-1.3-0.2-1.8-0.6
			C743.2,274.4,743,273.9,743,273.2z"/>
		<path fill="#DE573D" d="M768.5,292.4h-7.7v-1.1c0.2-0.1,0.5-0.3,0.7-0.4s0.5-0.2,0.9-0.3v-6.8c0-1.2-0.2-2.2-0.5-2.9s-1-1-1.9-1
			c-0.7,0-1.4,0.2-1.9,0.7s-0.9,1.1-1.2,1.9v8.1c0.3,0.1,0.6,0.2,0.8,0.3c0.2,0.1,0.5,0.2,0.8,0.4v1.1h-7.7v-1.1
			c0.5-0.3,1.1-0.5,1.9-0.7V280l-1.9-0.2v-1.1c0.3-0.1,0.6-0.2,1-0.3s0.8-0.2,1.3-0.3s1-0.2,1.4-0.2c0.5-0.1,0.9-0.1,1.3-0.2h1v3
			l0,0c0.4-0.8,1-1.5,1.8-2.1s1.8-0.9,3-0.9c0.8,0,1.4,0.1,2,0.3s1.1,0.5,1.5,1s0.7,1.1,1,1.9s0.3,1.8,0.3,3v6.9
			c0.8,0.1,1.4,0.4,1.9,0.7v0.9L768.5,292.4L768.5,292.4z"/>
		<path fill="#DE573D" d="M769.1,278.7c0.7-0.5,1.5-0.8,2.3-1v-2.3c0.1-0.1,0.3-0.2,0.6-0.3c0.3-0.1,0.6-0.2,0.9-0.3
			s0.6-0.2,0.9-0.2c0.3-0.1,0.6-0.1,0.8-0.2h1v3.7h3.8v1.9h-3.8v7.5c0,1.2,0.1,2,0.4,2.5s0.8,0.7,1.5,0.7c0.3,0,0.7,0,1.2-0.1
			c0.4,0,0.8-0.1,1.2-0.3l0.2,1c-0.2,0.2-0.4,0.4-0.8,0.5c-0.3,0.2-0.7,0.4-1.2,0.5c-0.4,0.2-0.9,0.3-1.4,0.4s-1,0.2-1.6,0.2
			c-1.3,0-2.2-0.3-2.8-1s-0.9-1.7-0.9-3.2v-8.8h-2.3L769.1,278.7L769.1,278.7z"/>
	</g>
</g>
</svg>
